<svg version="1" xmlns="http://www.w3.org/2000/svg" width="293.333" height="293.333" viewBox="0 0 220.000000 220.000000"><path d="M51.3 48.2C27.6 51.8 6.7 72.5 1.2 98c-.2 1.4-.5 7.4-.5 13.5 0 8.7.5 12.3 2.3 17.5 3.2 9.6 8.4 17.6 16.7 25.7 24.8 24.4 61.9 23.4 87-2.4l3.3-3.3 4.2 4.1c17.6 16.8 40.4 22.4 62.4 15.5 29.7-9.5 48.2-41.8 41.4-72.6-4-18-17.3-35.2-33.5-43.3-15.5-7.7-39.4-7.2-55.2 1.1-4.7 2.5-15.1 10.6-17.1 13.4-.7 1-1.8 1.8-2.3 1.8-.6 0-3.9-2.5-7.2-5.6-6.9-6.2-21.5-13.8-28.7-15-6.4-1-16.6-1.1-22.7-.2zm22.5 9.4c11.7 2.6 16.6 5.8 30.7 19.9 18.6 18.7 30.5 31.2 30.5 32.2 0 .9-12 13.6-30.7 32.5-17.1 17.3-23.5 20.5-42.5 21.2-10.1.4-17.6-1.6-27.2-7.4-7.3-4.4-16.4-14.1-19.9-21.4-7.3-14.9-7.6-35-.8-48.5C25.6 63.3 49.3 52 73.8 57.6zm100.7 18.8c11.1 5.1 18.9 15.1 20.5 26.4 1.8 13.3-1.2 22.9-9.8 31.6-6.4 6.6-13.6 9.8-22.5 10.2-12 .6-21.1-3.1-29.6-11.9-4-4.2-4-4.1 6.5-14.9 7.8-8 7.9-7.5-1.6-17.5-10.5-11-10.1-9.8-4.4-14.9 2.7-2.5 6.6-5.7 8.7-7.1 7.9-5.5 22.5-6.3 32.2-1.9z"/></svg>