<?xml version="1.0" encoding="utf-8"?>
<!-- Generator: Adobe Illustrator 21.0.2, SVG Export Plug-In . SVG Version: 6.00 Build 0)  -->
<svg version="1.1" id="Layer_1" xmlns="http://www.w3.org/2000/svg" xmlns:xlink="http://www.w3.org/1999/xlink" x="0px" y="0px"
	 viewBox="0 0 288 185.9" style="enable-background:new 0 0 288 185.9;" xml:space="preserve">
<style type="text/css">
	.st0{fill:#FFFFFF;}
</style>
<title>LOGOPRETOSVG</title>
<g id="layer101">
	<path class="st0" d="M86.6,157.9c-24.1-3.8-45.5-23.9-51.1-48c-1.7-7.6-1.5-22.2,0.6-30c5.3-20.3,22.2-38.1,42-44.2
		c9.9-3.1,25.3-3.1,35-0.1c9.3,3.1,17.9,8.2,25,14.9l5.2,5.2l6-5.7c12.3-11.6,23.4-16.2,39.9-16.9c18.5-0.7,31.3,4,44.2,16.2
		c20.9,19.8,26,48.8,13.2,74.4c-18.4,36.6-65.8,45.4-95.7,17.8l-7-6.5l-4.9,5C125.5,153.8,105,160.8,86.6,157.9z M113.1,147
		c11.5-4.1,13.5-5.8,44.3-38.5l12.2-12.8l-16.3-17.2c-22.6-23.9-25.7-26.8-32.4-30.4c-15.1-8-34.4-8.3-49.2-0.7
		c-11.4,5.7-21.3,17.2-26.1,30c-4.8,13-3.6,30.5,3.1,43.7c7,13.8,22.4,25.4,37.9,28.2C92.4,150.3,107.2,149,113.1,147z M207.3,128.8
		c8-2.9,17.1-12.2,20.2-20.4c3-8,2.6-21.5-0.8-28.7c-3.5-7.4-9.5-13.4-16.9-17c-6.1-3-7.4-3.3-15.7-3.2
		c-11.4,0.1-16.3,2.2-25.1,10.5l-6.4,6.2l9.2,9.9l9.1,9.9l-6.4,6.7c-3.6,3.7-7.5,7.9-8.7,9.3l-2.3,2.7l3.2,3.6
		c4.3,4.9,9.8,8.7,15.9,10.9C189.2,131.5,200.3,131.3,207.3,128.8L207.3,128.8z"/>
</g>
</svg>
