<?xml version="1.0" encoding="utf-8"?>
<!-- Generator: Adobe Illustrator 21.0.2, SVG Export Plug-In . SVG Version: 6.00 Build 0)  -->
<svg version="1.1" id="Layer_1" xmlns="http://www.w3.org/2000/svg" xmlns:xlink="http://www.w3.org/1999/xlink" x="0px" y="0px"
	 viewBox="0 0 304 304" style="enable-background:new 0 0 304 304;" xml:space="preserve">
<style type="text/css">
	.st0{fill:#FFFFFF;}
</style>
<g id="layer101">
	<path class="st0" d="M64,220v-17h3.5c1.9,0,3.5,0.5,3.5,1c0,0.7,0.6,0.7,1.9,0c6.2-3.3,14.8,0.6,17.1,7.6
		c3.4,10.3-6.8,20.6-15.9,16.1l-3.1-1.5v5.4v5.4h-3.5H64V220z M82,220c3.5-3.5,2.5-8.1-2.1-9.9c-4.1-1.5-7.3,0.6-7.7,5.1
		C71.7,221.1,77.8,224.2,82,220z"/>
	<path class="st0" d="M124.5,234.8c0.4-1.3,1.3-3.5,2.1-4.9c1.1-2.3,0.9-3.6-2.7-12.5c-2.1-5.4-4.3-10.7-4.9-11.6
		c-1.5-2.6-1.3-2.8,2.9-2.8c3.9,0,4,0.1,6,5.5c1.1,3,2.3,6.6,2.7,8.1c0.6,2.3,1,1.8,3.9-5.2c3.2-7.7,3.4-7.9,7-8.2
		c4.4-0.4,4.7-1.9-3.9,18.3l-6.3,15l-3.8,0.3C124.1,237.1,123.9,237,124.5,234.8z"/>
	<path class="st0" d="M43.4,227.6c-5-2.2-7.4-6.1-7.4-12.2c0-6.4,3.2-10.8,8.9-12.4c8-2.1,14.9,2.5,15.8,10.4l0.6,4.6h-9.2
		c-5,0-9.1,0.4-9.1,0.8c0,2.8,7.6,4.4,10.9,2.3c1.4-0.9,6,1.5,6.1,3.2c0,1.2-8.1,4.7-11,4.6C47.6,228.9,45.1,228.3,43.4,227.6z
		 M53,210.5c-1.6-1.9-6-1.9-8.6,0c-1.7,1.3-1.4,1.4,4,1.5C53.5,212,54.1,211.8,53,210.5z"/>
	<path class="st0" d="M225.6,228c-6.9-2.1-10.7-9.6-8.4-16.6c2.5-7.4,12.4-10.9,18.2-6.3l2.6,2v-2c0-1.2,0.6-2.1,1.5-2.1
		c1.3,0,1.5,2.1,1.5,12.5c0,10.4-0.2,12.5-1.5,12.5c-0.8,0-1.5-0.9-1.5-2v-2.1l-2.2,2.1c-1.2,1.1-2.7,2-3.4,2
		c-0.7,0-1.8,0.2-2.6,0.4C229.1,228.6,227.2,228.4,225.6,228z M233.3,223.9c5-2.3,6.2-10,2.3-14.6c-1.9-2.2-3.2-2.8-6.6-2.8
		c-11.8,0-12.1,18.1-0.3,18.4C229.9,225,232,224.5,233.3,223.9z"/>
	<path class="st0" d="M7,225.8c0-1.3,3.6-7.5,8.1-13.8l8-11.5l-8-0.3L7,199.9v-3.4V193h13.5c12.7,0,13.5,0.1,13.5,1.9
		c0,1.1-3.7,7.3-8.3,13.8l-8.3,11.8l8.3,0.3l8.3,0.3v3.4v3.5H20.5C7.2,228,7,228,7,225.8z"/>
	<path class="st0" d="M94,210.5V193h3.5h3.5v6c0,5.7,0.1,6,1.9,5c3.6-1.9,8.6-1.2,11.3,1.5c3,3,3.8,6.3,3.8,15.6v6.9h-3.5H111v-8
		c0-7.4-0.2-8.1-2.5-9.6c-2.3-1.5-2.7-1.5-5,0c-2.3,1.5-2.5,2.2-2.5,9.6v8h-3.5H94V210.5z"/>
	<path class="st0" d="M147,215.5V203h3.6c2.3,0,3.3,0.4,2.8,1.1c-0.4,0.7,0.1,0.7,1.6-0.1c2.1-1.1,10.4-0.9,11.6,0.2
		c0.2,0.3-0.3,1.9-1.3,3.6c-1.5,2.6-2.1,2.9-5,2.5c-5.2-0.9-6.3,0.8-6.3,9.8v7.9h-3.5H147V215.5z"/>
	<path class="st0" d="M178,210.5V193h8.6c10.2,0,14.5,1.7,16.8,6.5c2,4.1,2,6.8,0.1,10.5c-2.5,4.9-5.1,6-13.7,6H182v6
		c0,5.3-0.2,6-2,6C178.1,228,178,227.3,178,210.5z M198.5,210.5c3.2-3.1,3.4-8.6,0.5-11.5c-1.6-1.6-3.3-2-9.5-2H182v8v8h7
		C195.2,213,196.4,212.7,198.5,210.5z"/>
	<path class="st0" d="M209,210.5c0-14.9,0.2-17.5,1.5-17.5s1.5,2.6,1.5,17.5c0,14.9-0.2,17.5-1.5,17.5S209,225.4,209,210.5z"/>
	<path class="st0" d="M251.8,226.4c-7.8-4.2-7.6-17.8,0.2-21.9c1.6-0.8,4.3-1.5,6-1.5c3.4,0,9,2.5,9,4c0,1.8-1.8,1.9-4.9,0.4
		c-9.4-4.7-17.7,7.2-10.2,14.7c3.4,3.3,7.4,3.8,11,1.3c1.7-1.3,2.5-1.4,3.4-0.4c0.9,0.9,0.6,1.6-1.2,3.1
		C262.3,228.4,255.7,228.6,251.8,226.4z"/>
	<path class="st0" d="M274.4,224.6c-2.9-2.9-3.4-4.1-3.4-8c0-8.7,4.7-13.6,13.1-13.6c5.6,0,10.9,5,10.9,10.4v3.6h-10.5
		c-6.8,0-10.5,0.4-10.5,1.1c0,0.6,1.3,2.4,2.9,4c3.3,3.3,7,3.7,11.5,1.4c5.8-3.1,7.9-0.9,2.4,2.5c-2.1,1.3-5.1,2-8.1,2
		C278.5,228,277.3,227.5,274.4,224.6z M292,212.6c0-2.9-3.5-5.7-7.7-6.3c-3.7-0.5-4.6-0.2-7.3,2.5c-1.6,1.7-3,3.5-3,4.1
		c0,0.7,3.2,1.1,9,1.1C290,214,292,213.7,292,212.6z"/>
	<path class="st0" d="M96,176c-24.1-3.8-45.5-23.9-51.1-48c-1.7-7.6-1.5-22.2,0.6-30c5.3-20.3,22.2-38.1,42-44.2
		c9.9-3.1,25.3-3.1,35-0.1c9,2.9,18.4,8.5,25,14.9l5.2,5.2l6-5.7c12.3-11.6,23.4-16.2,39.9-16.9c18.5-0.7,31.3,4,44.2,16.2
		c20.9,19.8,26,48.8,13.2,74.4c-18.4,36.6-65.8,45.4-95.7,17.8l-7-6.5l-4.9,5C134.9,171.9,114.4,178.9,96,176z M122.5,165.1
		c11.5-4.1,13.5-5.8,44.3-38.5l12.2-12.8l-16.3-17.2c-22.6-23.9-25.7-26.8-32.4-30.4c-15.1-8-34.4-8.3-49.2-0.7
		c-11.4,5.7-21.3,17.2-26.1,30c-4.8,13-3.6,30.5,3.1,43.7c7,13.8,22.4,25.4,37.9,28.2C101.8,168.4,116.6,167.1,122.5,165.1z
		 M216.7,146.9c8-2.9,17.1-12.2,20.2-20.4c3-8,2.6-21.5-0.8-28.7c-3.6-7.5-9.4-13.4-16.9-17c-6.1-3-7.4-3.3-15.7-3.2
		c-11.4,0.1-16.3,2.2-25.1,10.5l-6.4,6.2l9.2,9.9l9.1,9.9l-6.4,6.7c-3.6,3.7-7.5,7.9-8.7,9.3l-2.3,2.7l3.2,3.6
		c4.1,4.8,10.2,9,15.9,10.9C198.6,149.6,209.7,149.4,216.7,146.9z"/>
</g>
</svg>
