<?xml version="1.0" encoding="utf-8"?>
<!-- Generator: Adobe Illustrator 21.0.2, SVG Export Plug-In . SVG Version: 6.00 Build 0)  -->
<svg version="1.1" id="Layer_1" xmlns="http://www.w3.org/2000/svg" xmlns:xlink="http://www.w3.org/1999/xlink" x="0px" y="0px"
	 viewBox="0 0 288 185.9" style="enable-background:new 0 0 288 185.9;" xml:space="preserve">
<title>LOGOPRETOSVG</title>
<g id="layer101">
	<path d="M61.6,106.9V90.8h3.3c1.8,0,3.3,0.5,3.3,0.9c0,0.7,0.6,0.7,1.8,0c5.9-3.1,14,0.6,16.1,7.2c3.2,9.7-6.4,19.5-15,15.2
		l-2.9-1.4v10.2h-6.6V106.9z M78.6,106.9c3.3-3.3,2.4-7.6-2-9.3c-3.9-1.4-6.9,0.6-7.3,4.8C68.9,107.9,74.7,110.8,78.6,106.9z"/>
	<path d="M118.8,120.9c0.5-1.6,1.2-3.1,2-4.6c1-2.2,0.8-3.4-2.5-11.8c-2-5.1-4.1-10.1-4.6-11c-1.4-2.5-1.2-2.6,2.7-2.6
		c3.7,0,3.8,0.1,5.7,5.2c1,2.8,2.2,6.2,2.5,7.6c0.6,2.2,0.9,1.7,3.7-4.9c3-7.3,3.2-7.5,6.6-7.7c4.2-0.4,4.4-1.8-3.7,17.3l-5.9,14.2
		l-3.6,0.3C118.4,123,118.2,122.9,118.8,120.9z"/>
	<path d="M42.2,114.1c-4.7-2.1-7-5.8-7-11.5c0-6,3-10.2,8.4-11.7c7.6-2,14.1,2.4,14.9,9.8l0.6,4.3h-8.7c-4.7,0-8.6,0.4-8.6,0.8
		c0,2.6,7.2,4.2,10.3,2.2c1.3-0.8,5.7,1.4,5.8,3c0,1.1-7.6,4.4-10.4,4.3C45.7,115.2,43.9,114.7,42.2,114.1z M51.3,97.9
		c-1.5-1.8-5.7-1.8-8.1,0c-1.6,1.2-1.3,1.3,3.8,1.4C51.7,99.3,52.3,99.1,51.3,97.9z"/>
	<path d="M214.2,114.4c-6.5-2-10.1-8.9-8-15.4c0-0.1,0.1-0.2,0.1-0.3c2.4-7,11.7-10.3,17.2-5.9l2.5,1.9v-1.9c0-1.1,0.6-2,1.4-2
		c1.2,0,1.4,2,1.4,11.8s-0.2,11.8-1.4,11.8c-0.8,0-1.4-0.8-1.4-1.9v-2l-2.1,2c-0.9,0.9-2,1.6-3.2,1.9c-0.8,0-1.7,0.2-2.5,0.4
		C216.9,114.9,215.5,114.8,214.2,114.4z M221.5,110.6c4.7-2.2,5.9-9.4,2.2-13.8c-1.8-2.1-3-2.6-6.2-2.6c-11.1,0-11.4,17.1-0.3,17.4
		C218.7,111.5,220.1,111.2,221.5,110.6z"/>
	<path d="M7.8,112.4c0-1.2,3.4-7.1,7.6-13L23,88.5l-7.6-0.3l-7.6-0.3v-6.5h12.7c12,0,12.7,0.1,12.7,1.8c0,1-3.5,6.9-7.8,13
		l-7.8,11.1l7.8,0.3l7.8,0.3v6.5H20.6C8,114.4,7.8,114.4,7.8,112.4z"/>
	<path d="M90,97.9V81.4h6.6v5.7c0,5.4,0.1,5.7,1.8,4.7c3.5-1.8,7.7-1.2,10.7,1.4c2.8,2.8,3.6,5.9,3.6,14.7v6.5H106v-7.6
		c0-7-0.2-7.6-2.4-9.1c-2.2-1.4-2.5-1.4-4.7,0c-2.2,1.4-2.4,2.1-2.4,9.1v7.6H90V97.9z"/>
	<path d="M140,102.6V90.8h3.4c2.2,0,3.1,0.4,2.6,1c-0.5,0.7,0.1,0.7,1.5-0.1c2-1,9.8-0.8,11,0.2c0.2,0.3-0.3,1.8-1.2,3.4
		c-1.4,2.5-2,2.7-4.7,2.4c-4.9-0.8-5.9,0.8-5.9,9.3v7.5H140L140,102.6z"/>
	<path d="M169.3,97.9V81.4h8.1c9.6,0,13.7,1.6,15.9,6.1c1.9,3.9,1.9,6.4,0.1,9.9c-2.4,4.6-4.8,5.7-12.9,5.7h-7.4v5.7
		c0,5-0.2,5.7-1.9,5.7S169.3,113.8,169.3,97.9z M188.6,97.9c3-2.9,3.2-8.1,0.5-10.9c-1.5-1.5-3.1-1.9-9-1.9h-7.1v15.1h6.6
		C185.5,100.3,186.7,100,188.6,97.9z"/>
	<path d="M198.6,97.9c0-14.1,0.2-16.5,1.4-16.5c1.2,0,1.4,2.5,1.4,16.5s-0.2,16.5-1.4,16.5C198.7,114.4,198.6,112,198.6,97.9z"/>
	<path d="M239,112.9c-7.4-4-7.2-16.8,0.2-20.7c1.8-0.8,3.7-1.3,5.7-1.4c3.2,0,8.5,2.4,8.5,3.8c0,1.7-1.7,1.8-4.6,0.4
		c-8.9-4.4-16.7,6.8-9.6,13.9c3.2,3.1,7,3.6,10.4,1.2c1.6-1.2,2.4-1.3,3.2-0.4s0.6,1.5-1.1,2.9C248.9,114.8,242.6,115,239,112.9z"/>
	<path d="M260.3,111.2c-2.7-2.7-3.2-3.9-3.2-7.6c0-8.2,4.4-12.8,12.4-12.8c5.3,0,10.3,4.7,10.3,9.8v3.4h-9.9c-6.4,0-9.9,0.4-9.9,1
		s1.2,2.3,2.7,3.8c3.1,3.1,6.6,3.5,10.9,1.3c5.5-2.9,7.5-0.8,2.3,2.4c-2.3,1.3-5,1.9-7.6,1.9C264.2,114.4,263,114,260.3,111.2z
		 M276.9,99.9c0-2.7-3.3-5.4-7.3-5.9c-3.5-0.5-4.3-0.2-6.9,2.4c-1.5,1.6-2.8,3.3-2.8,3.9s3,1,8.5,1
		C275,101.2,276.9,100.9,276.9,99.9z"/>
</g>
</svg>
