<?xml version="1.0" encoding="utf-8"?>
<!-- Generator: Adobe Illustrator 21.0.2, SVG Export Plug-In . SVG Version: 6.00 Build 0)  -->
<svg version="1.1" id="Layer_1" xmlns="http://www.w3.org/2000/svg" xmlns:xlink="http://www.w3.org/1999/xlink" x="0px" y="0px"
	 viewBox="0 0 25 25" style="enable-background:new 0 0 25 25;" xml:space="preserve">
<style type="text/css">
	.st0{fill:url(#SVGID_1_);}
	.st1{filter:url(#Adobe_OpacityMaskFilter);}
	.st2{clip-path:url(#SVGID_3_);fill:url(#SVGID_5_);}
	.st3{clip-path:url(#SVGID_3_);mask:url(#SVGID_4_);}
	.st4{opacity:0.25;}
	.st5{fill:none;stroke:#444343;stroke-miterlimit:10;}
	.st6{fill:#444343;}
	.st7{fill:#282828;}
	.st8{fill:none;}
	.st9{filter:url(#Adobe_OpacityMaskFilter_1_);}
	.st10{clip-path:url(#SVGID_7_);fill:url(#SVGID_9_);}
	.st11{clip-path:url(#SVGID_7_);mask:url(#SVGID_8_);}
</style>
<g>
	
		<radialGradient id="SVGID_1_" cx="12.625" cy="12.5" r="22.3125" gradientTransform="matrix(-1 0 0 1 25 0)" gradientUnits="userSpaceOnUse">
		<stop  offset="0" style="stop-color:#FFFFFF"/>
		<stop  offset="0.2776" style="stop-color:#FDFDFD"/>
		<stop  offset="0.4152" style="stop-color:#F5F5F5"/>
		<stop  offset="0.5221" style="stop-color:#E8E8E8"/>
		<stop  offset="0.6132" style="stop-color:#D5D5D5"/>
		<stop  offset="0.6941" style="stop-color:#BDBDBD"/>
		<stop  offset="0.7679" style="stop-color:#9F9F9F"/>
		<stop  offset="0.8364" style="stop-color:#7B7B7B"/>
		<stop  offset="0.9005" style="stop-color:#525252"/>
		<stop  offset="0.9591" style="stop-color:#252525"/>
		<stop  offset="1" style="stop-color:#000000"/>
	</radialGradient>
	<rect class="st0" width="25" height="25"/>
	<g>
		<defs>
			<rect id="SVGID_2_" width="25" height="25"/>
		</defs>
		<clipPath id="SVGID_3_">
			<use xlink:href="#SVGID_2_"  style="overflow:visible;"/>
		</clipPath>
		<defs>
			<filter id="Adobe_OpacityMaskFilter" filterUnits="userSpaceOnUse" x="-5.8" y="-1" width="36.6" height="27">
				<feColorMatrix  type="matrix" values="1 0 0 0 0  0 1 0 0 0  0 0 1 0 0  0 0 0 1 0"/>
			</filter>
		</defs>
		<mask maskUnits="userSpaceOnUse" x="-5.8" y="-1" width="36.6" height="27" id="SVGID_4_">
			<g class="st1">
				
					<radialGradient id="SVGID_5_" cx="34.0625" cy="37.0625" r="50.4094" gradientTransform="matrix(-1 0 0 1 25 0)" gradientUnits="userSpaceOnUse">
					<stop  offset="0.2294" style="stop-color:#FFFFFF"/>
					<stop  offset="0.332" style="stop-color:#B8B8B8"/>
					<stop  offset="0.4355" style="stop-color:#777777"/>
					<stop  offset="0.5299" style="stop-color:#444444"/>
					<stop  offset="0.6116" style="stop-color:#1F1F1F"/>
					<stop  offset="0.6775" style="stop-color:#080808"/>
					<stop  offset="0.7192" style="stop-color:#000000"/>
				</radialGradient>
				<rect class="st2" width="25" height="25"/>
			</g>
		</mask>
		<g class="st3">
			<g>
				<g class="st4">
					<g>
						<g>
							<g>
								<path class="st5" d="M28.5,1.1"/>
							</g>
							<g>
								<path class="st6" d="M-5.8,17.2l5,1.4l-5,3V17.2z M-0.9,18.6l-4.8-1.4v4.3L-0.9,18.6z"/>
							</g>
							<g>
								<path class="st6" d="M-3.6,10.9L-3.6,10.9l-2.3,1.4v-0.5L-3.6,10.9z M-5.8,12.2l2-1.2l-2,0.8V12.2z"/>
							</g>
							<g>
								<path class="st6" d="M-3.5,10.9l2.7,7.8l-5-1.4v-5L-3.5,10.9z M-0.9,18.6L-3.6,11l-2.2,1.3v4.9L-0.9,18.6z"/>
							</g>
							<g>
								<path class="st6" d="M18.2,17.4l3.6,5.7l-4.5-0.1L18.2,17.4z M21.8,23.1l-3.5-5.5L17.4,23L21.8,23.1z"/>
							</g>
							<g>
								<path class="st6" d="M15.4,17.1l2.8,0.4l0,0l-0.9,5.7L15.4,17.1z M18.2,17.5l-2.7-0.4l1.9,5.8L18.2,17.5z"/>
							</g>
							<g>
								<path class="st6" d="M15.5,17l1.9,6l0,0l-4.1,2.5L15.5,17z M17.3,23l-1.9-5.8l-2.1,8.3L17.3,23z"/>
							</g>
							<g>
								<path class="st6" d="M9.4,10.6L9.4,10.6l6.1,6.6L7,17.8L9.4,10.6z M15.4,17.1l-6-6.4l-2.3,7.1L15.4,17.1z"/>
							</g>
							<g>
								<path class="st5" d="M4.5-1"/>
							</g>
							<g>
								<polygon class="st6" points="15.2,-0.1 18.6,5.4 18.6,5.4 15.1,-0.1 								"/>
							</g>
							<g>
								<path class="st5" d="M15.2-0.1"/>
							</g>
							<g>
								<path class="st6" d="M15.1-0.2l3.5,5.7l-4-3.1l0,0L15.1-0.2z M18.5,5.3l-3.3-5.3l-0.4,2.4L18.5,5.3z"/>
							</g>
							<g>
								<path class="st5" d="M15.2-0.1"/>
							</g>
							<g>
								<path class="st6" d="M9.4,10.6l-2.4,7.2L1.2,15L9.4,10.6z M7.1,17.7l2.3-7.1L1.3,15L7.1,17.7z"/>
							</g>
							<g>
								<path class="st6" d="M9.4,10.6L9.4,10.6L1.2,15l-0.3-1.8l0,0L9.4,10.6z M1.3,14.9l7.9-4.2L1,13.3L1.3,14.9z"/>
							</g>
							<g>
								<path class="st6" d="M1.3,14.9l5.8,2.8l-0.8,0.9L1.3,14.9L1.3,14.9z M7,17.8l-5.5-2.7l4.8,3.4L7,17.8z"/>
							</g>
							<g>
								<path class="st6" d="M1.2,14.9l5.1,3.7l-5.6,0.1l0,0L1.2,14.9z M6.2,18.5l-5-3.5l-0.4,3.7L6.2,18.5z"/>
							</g>
							<g>
								<path class="st6" d="M-3.7,10.8L1,13.2l0,0L1.3,15L-3.7,10.8z M0.9,13.3L-3.4,11l4.6,3.9L0.9,13.3z"/>
							</g>
							<g>
								<path class="st6" d="M1.3,14.9l-0.5,3.9l-1.8-0.1L1.3,14.9z M0.8,18.7l0.4-3.6l-2.1,3.5L0.8,18.7z"/>
							</g>
							<g>
								<path class="st6" d="M-3.6,10.9L1.3,15l0,0l-2.2,3.7l0,0L-3.6,10.9z M1.2,15l-4.7-4l2.6,7.6L1.2,15z"/>
							</g>
							<g>
								<path class="st6" d="M6.3,18.5l0.5,4l0,0l-6.1-3.8L6.3,18.5z M6.8,22.4l-0.5-3.8l-5.4,0.1L6.8,22.4z"/>
							</g>
							<g>
								<path class="st6" d="M15.5,17.1l-2.2,8.5l0,0l-6.3-7L15.5,17.1z M13.3,25.5l2.1-8.3l-8.3,1.4L13.3,25.5z"/>
							</g>
							<g>
								<path class="st6" d="M15.5,17.1L15.5,17.1L7,18.6v-0.9L15.5,17.1z M7.1,18.5l7.9-1.4l-7.9,0.6V18.5z"/>
							</g>
							<g>
								<path class="st6" d="M7.1,18.5L7.1,18.5l6.4,7.1l-6.6-3.1l0,0L7.1,18.5z M13.2,25.5l-6.1-6.8l-0.2,3.8L13.2,25.5z"/>
							</g>
							<g>
								<path class="st6" d="M7.1,17.7v0.9H6.3L7.1,17.7z M7,18.5v-0.7l-0.7,0.7H7z"/>
							</g>
							<g>
								<path class="st6" d="M6.3,18.5h0.8l-0.3,3.9l0,0L6.3,18.5z M7,18.6H6.3l0.5,3.7L7,18.6z"/>
							</g>
							<g>
								<path class="st6" d="M30.8,1v2.3l-2.4-2.2L30.8,1z M30.8,3.2V1l-2.2,0.1L30.8,3.2z"/>
							</g>
							<g>
								<path class="st5" d="M4.5-1"/>
							</g>
							<g>
								<path class="st6" d="M18.8,14.7l-0.5,2.8l-2.9-0.4L18.8,14.7z M18.2,17.5l0.5-2.6l-3.2,2.3L18.2,17.5z"/>
							</g>
							<g>
								<path class="st6" d="M9.3,10.5l9.5,4.2l-3.3,2.4l0,0L9.3,10.5z M18.7,14.8l-9.2-4.1l6,6.4L18.7,14.8z"/>
							</g>
							<g>
								<path class="st6" d="M7.4,8l2.2,2.7l-2.4-2L7.4,8z M9.3,10.4L7.4,8.1L7.2,8.8L9.3,10.4z"/>
							</g>
							<g>
								<path class="st6" d="M7.2,8.7l2.3,1.9l0,0l-8.6,2.7L7.2,8.7z M9.4,10.6L7.2,8.8l-6.1,4.4L9.4,10.6z"/>
							</g>
							<g>
								<path class="st6" d="M-5.8-0.4l3.5,3.9l-3.5-0.3V-0.4z M-2.5,3.4l-3.3-3.7v3.4L-2.5,3.4z"/>
							</g>
							<g>
								<path class="st6" d="M-2.4,3.4l9.8,4.7L7.2,8.8L-2.4,3.4L-2.4,3.4z M7.4,8.1l-9.1-4.4l9,5L7.4,8.1z"/>
							</g>
							<g>
								<path class="st6" d="M-2.4,3.4l9.7,5.4l-6.3,4.5l0,0L-2.4,3.4z M7.2,8.8l-9.5-5.3L1,13.2L7.2,8.8z"/>
							</g>
							<g>
								<path class="st5" d="M-2.4,3.4"/>
							</g>
							<g>
								<path class="st6" d="M-2.4,3.3L-2.4,3.3l3.4,10l-4.6-2.4l0,0L-2.4,3.3z M0.9,13.2l-3.3-9.7l-1.1,7.4L0.9,13.2z"/>
							</g>
							<g>
								<polygon class="st6" points="-5.8,-0.4 -2.4,3.4 -2.4,3.4 -5.8,-0.3 								"/>
							</g>
							<g>
								<path class="st6" d="M29.9,13.4l0.9,2.3v5l0,0l-4,0.3l0,0L29.9,13.4z M30.8,15.7l-0.9-2.2l-3,7.4l3.9-0.3V15.7z"/>
							</g>
							<g>
								<path class="st6" d="M30.8,20.6v0.6l-2.8,1L26.8,21L30.8,20.6z M30.8,21.2v-0.5L26.9,21l1.2,1.2L30.8,21.2z"/>
							</g>
							<g>
								<path class="st6" d="M26.9,21l1.2,1.3v0.7L26.9,21L26.9,21z M28,22.2l-1-1.1l1,1.6V22.2z"/>
							</g>
							<g>
								<path class="st6" d="M26.9,20.9l1.2,1.9l-6.4,0.3L26.9,20.9z M28,22.8L26.8,21l-4.9,2.1L28,22.8z"/>
							</g>
							<g>
								<path class="st6" d="M18.2,17.5l8.7,3.5l-5.1,2.2L18.2,17.5z M26.8,21l-8.5-3.4l3.5,5.5L26.8,21z"/>
							</g>
							<g>
								<path class="st6" d="M18.7,14.7l8.3,6.3l-8.8-3.5L18.7,14.7z M26.7,20.9l-7.9-6.1l-0.5,2.7L26.7,20.9z"/>
							</g>
							<g>
								<path class="st6" d="M9.9-0.5l5.2,0.4l-0.5,2.5L9.9-0.5z M15.1-0.1l-5-0.4l4.6,2.8L15.1-0.1z"/>
							</g>
							<g>
								<polygon class="st6" points="10,-0.5 15.2,-0.2 15.2,-0.1 10,-0.5 								"/>
							</g>
							<g>
								<path class="st6" d="M28.5,1.1L28.5,1.1l1.3,8.9l0,0l-9.5-3.2L28.5,1.1z M29.8,9.9l-1.3-8.8l-8.1,5.6L29.8,9.9z"/>
							</g>
							<g>
								<polygon class="st6" points="28.5,1.1 28.5,1.1 20.4,6.8 20.3,6.7 								"/>
							</g>
							<g>
								<path class="st6" d="M20.3,6.7l1.4,4.5l-3,3.7L20.3,6.7z M21.7,11.2l-1.4-4.3l-1.5,7.9L21.7,11.2z"/>
							</g>
							<g>
								<polygon class="st6" points="18.6,5.3 20.4,6.7 20.3,6.8 18.6,5.4 								"/>
							</g>
							<g>
								<path class="st6" d="M18.5,5.3l1.8,1.4l0,0L18.7,15L18.5,5.3z M20.3,6.8l-1.7-1.4l0.2,9.2L20.3,6.8z"/>
							</g>
							<g>
								<path class="st6" d="M30.8,13.2v0.6l-1-0.3L30.8,13.2z M30.8,13.7v-0.4L30,13.5L30.8,13.7z"/>
							</g>
							<g>
								<path class="st6" d="M29.8,13.4l1,0.3v2.1L29.8,13.4z M30.8,13.8l-0.8-0.3l0.8,2.1V13.8z"/>
							</g>
							<g>
								<path class="st6" d="M29.8,9.9l0.1,3.5l0,0l-4.7-1.4L29.8,9.9z M29.9,13.4L29.8,10l-4.5,2L29.9,13.4z"/>
							</g>
							<g>
								<path class="st6" d="M25.2,12l4.7,1.4l0,0l-3.1,7.6L25.2,12z M29.9,13.5l-4.6-1.4l1.6,8.8L29.9,13.5z"/>
							</g>
							<g>
								<path class="st6" d="M20.3,6.7L20.3,6.7l9.6,3.3l-4.6,2.1L20.3,6.7z M29.8,10l-9.3-3.2l4.9,5.2L29.8,10z"/>
							</g>
							<g>
								<path class="st6" d="M25.3,12l1.6,9l0,0l-8.1-6.2L25.3,12z M26.8,20.9l-1.6-8.8l-6.4,2.7L26.8,20.9z"/>
							</g>
							<g>
								<path class="st6" d="M20.3,6.7l5,5.4l-3.6-0.9L20.3,6.7z M25.2,12l-4.8-5.2l1.4,4.3L25.2,12z"/>
							</g>
							<g>
								<path class="st6" d="M21.7,11.2l3.6,0.9l-6.7,2.8L21.7,11.2z M25.2,12.1l-3.5-0.9l-2.9,3.5L25.2,12.1z"/>
							</g>
							<g>
								<path class="st6" d="M28.4,1.1l2.4,2.1V8L28.4,1.1z M30.8,3.2l-2.2-2l2.2,6.6V3.2z"/>
							</g>
							<g>
								<path class="st6" d="M30.8,10.6v2.6l-1,0.2L30.8,10.6z M30.8,13.2v-2.3l-0.8,2.5L30.8,13.2z"/>
							</g>
							<g>
								<path class="st6" d="M30.8,9.5l0,1.3l-0.9,2.8L29.8,10L30.8,9.5z M30.8,10.8V9.6L29.8,10l0.1,3.3L30.8,10.8z"/>
							</g>
							<g>
								<path class="st6" d="M28.5,1.1l2.3,6.8v1.7l-1,0.4L28.5,1.1L28.5,1.1z M30.8,7.9l-2.2-6.5l1.3,8.6l0.9-0.4V7.9z"/>
							</g>
							<g>
								<path class="st5" d="M29.4-0.6"/>
							</g>
							<g>
								<path class="st6" d="M-5.8,3.1l3.5,0.3l-3.5,1.3V3.1z M-2.5,3.4l-3.3-0.3v1.5L-2.5,3.4z"/>
							</g>
							<g>
								<path class="st6" d="M-2.4,3.4L-3.5,11l-2.3-0.9V4.6L-2.4,3.4z M-3.6,10.9l1.1-7.5l-3.3,1.2v5.4L-3.6,10.9z"/>
							</g>
							<g>
								<path class="st6" d="M-5.8,10l2.3,0.9l-2.3,0.9V10z M-3.6,10.9l-2.2-0.8v1.7L-3.6,10.9z"/>
							</g>
							<g>
								<path class="st6" d="M4.7,2L4.7,2l2.8,6.1l-0.1,0l-9.9-4.7L4.7,2z M7.3,8L4.7,2l-7,1.4L7.3,8z"/>
							</g>
							<g>
								<path class="st6" d="M18.6,5.3L18.6,5.3l0.2,9.5l-7.7-8.4l0,0L18.6,5.3z M18.7,14.7l-0.2-9.3l-7.3,1.1L18.7,14.7z"/>
							</g>
							<g>
								<path class="st6" d="M11.2,6.5L11.2,6.5l7.7,8.4l-9.5-4.2L11.2,6.5z M18.7,14.7l-7.5-8.2l-1.7,4.1L18.7,14.7z"/>
							</g>
							<g>
								<path class="st6" d="M14.7,2.3L14.7,2.3l3.9,3.1l-7.5,1.2L14.7,2.3z M18.5,5.3l-3.8-3l-3.5,4.1L18.5,5.3z"/>
							</g>
							<g>
								<path class="st6" d="M10.1-0.5L10.1-0.5l1.2,7.1l0,0L4.6,2L10.1-0.5z M11.1,6.5L10-0.5L4.7,2L11.1,6.5z"/>
							</g>
							<g>
								<path class="st6" d="M11.2,6.5l-1.8,4.2L7.3,8.1L11.2,6.5z M9.4,10.6l1.7-4L7.4,8.1L9.4,10.6z"/>
							</g>
							<g>
								<path class="st6" d="M4.6,1.9L4.6,1.9l6.6,4.6l0,0L7.4,8.1l0,0L4.6,1.9z M11.1,6.5L4.7,2.1l2.7,6L11.1,6.5z"/>
							</g>
						</g>
					</g>
					<circle class="st7" cx="26.9" cy="21" r="0.4"/>
					<circle class="st7" cx="15.4" cy="17.2" r="0.4"/>
					<circle class="st7" cx="25.4" cy="12.1" r="0.4"/>
					<circle class="st7" cx="21.8" cy="23.2" r="0.4"/>
					<circle class="st7" cx="28" cy="22.8" r="0.2"/>
					<circle class="st7" cx="28.1" cy="22.3" r="0.1"/>
					<circle class="st7" cx="18.3" cy="17.5" r="0.2"/>
					<circle class="st7" cx="17.4" cy="23.1" r="0.2"/>
					<circle class="st7" cx="29.9" cy="13.5" r="0.2"/>
					<circle class="st7" cx="0.8" cy="18.7" r="0.4"/>
					<circle class="st7" cx="21.7" cy="11.2" r="0.4"/>
					<circle class="st7" cx="20.4" cy="6.8" r="0.3"/>
					<circle class="st7" cx="11.2" cy="6.6" r="0.3"/>
					<circle class="st7" cx="4.7" cy="2" r="0.3"/>
					<circle class="st7" cx="7.4" cy="8.1" r="0.3"/>
					<circle class="st7" cx="-3.5" cy="11" r="0.3"/>
					<circle class="st7" cx="-0.9" cy="18.6" r="0.3"/>
					<circle class="st7" cx="1" cy="13.2" r="0.3"/>
					<circle class="st7" cx="6.8" cy="22.4" r="0.3"/>
					<circle class="st7" cx="6.4" cy="18.6" r="0.3"/>
					<circle class="st7" cx="7.1" cy="17.8" r="0.2"/>
					<circle class="st7" cx="7.1" cy="18.6" r="0.2"/>
					<circle class="st7" cx="1.3" cy="15.1" r="0.3"/>
					<circle class="st7" cx="10" cy="-0.5" r="0.3"/>
					<circle class="st7" cx="18.5" cy="5.4" r="0.3"/>
					<circle class="st7" cx="29.8" cy="10" r="0.3"/>
					<circle class="st7" cx="28.5" cy="1.1" r="0.3"/>
					<circle class="st7" cx="14.7" cy="2.3" r="0.3"/>
					<circle class="st7" cx="18.9" cy="14.7" r="0.6"/>
					<circle class="st7" cx="9.5" cy="10.7" r="0.6"/>
					<circle class="st7" cx="13.3" cy="25.5" r="0.6"/>
					<circle class="st7" cx="-2.4" cy="3.6" r="0.6"/>
				</g>
				<g>
					<g>
						<g>
							<g>
								<path class="st5" d="M28.5,23.9"/>
							</g>
							<g>
								<path class="st6" d="M-5.8,3.4l5,3l-5,1.4V3.4z M-5.8,3.5v4.3l4.8-1.4L-5.8,3.5z"/>
							</g>
							<g>
								<path class="st6" d="M-5.8,13.2v-0.5l2.3,1.4l0,0L-5.8,13.2z M-5.8,13.2l2,0.8l-2-1.2V13.2z"/>
							</g>
							<g>
								<path class="st6" d="M-5.8,12.7v-5l5-1.4l-2.7,7.8L-5.8,12.7z M-5.8,7.8v4.9l2.2,1.3l2.6-7.6L-5.8,7.8z"/>
							</g>
							<g>
								<path class="st6" d="M17.3,1.9l4.5-0.1l-3.6,5.7L17.3,1.9z M17.4,2l0.9,5.5l3.5-5.5L17.4,2z"/>
							</g>
							<g>
								<path class="st6" d="M17.4,1.8l0.9,5.7l0,0l-2.8,0.4L17.4,1.8z M17.4,2l-1.9,5.8l2.7-0.4L17.4,2z"/>
							</g>
							<g>
								<path class="st6" d="M13.3-0.6l4.1,2.5l0,0l-1.9,6L13.3-0.6z M13.4-0.5l2.1,8.3L17.3,2L13.4-0.5z"/>
							</g>
							<g>
								<path class="st6" d="M7,7.2l8.5,0.6l-6.1,6.5l0,0L7,7.2z M7.1,7.3l2.3,7.1l6-6.4L7.1,7.3z"/>
							</g>
							<g>
								<path class="st5" d="M4.5,26"/>
							</g>
							<g>
								<polygon class="st6" points="15.2,25.1 18.6,19.6 18.6,19.6 15.1,25.1 								"/>
							</g>
							<g>
								<path class="st5" d="M15.2,25.1"/>
							</g>
							<g>
								<path class="st6" d="M14.7,22.7L14.7,22.7l4-3.1l-3.5,5.7L14.7,22.7z M14.7,22.7l0.4,2.4l3.3-5.3L14.7,22.7z"/>
							</g>
							<g>
								<path class="st5" d="M15.2,25.1"/>
							</g>
							<g>
								<path class="st6" d="M1.2,10l5.9-2.8l2.4,7.2L1.2,10z M1.3,10l8.1,4.3L7.1,7.3L1.3,10z"/>
							</g>
							<g>
								<path class="st6" d="M0.9,11.8L0.9,11.8L1.2,10l8.2,4.4l0,0L0.9,11.8z M1,11.7l8.2,2.6l-7.9-4.2L1,11.7z"/>
							</g>
							<g>
								<path class="st6" d="M1.2,10l5.1-3.6l0.8,0.9L1.2,10L1.2,10z M6.3,6.5L1.5,9.9L7,7.2L6.3,6.5z"/>
							</g>
							<g>
								<path class="st6" d="M0.8,6.3L0.8,6.3l5.6,0.1l-5.1,3.7L0.8,6.3z M0.8,6.3L1.3,10l5-3.5L0.8,6.3z"/>
							</g>
							<g>
								<path class="st6" d="M1.3,10L1,11.7l0,0l-4.7,2.4L1.3,10z M1.2,10.1L-3.4,14l4.3-2.2L1.2,10.1z"/>
							</g>
							<g>
								<path class="st6" d="M-0.9,6.3l1.8-0.1l0.5,3.9L-0.9,6.3z M-0.9,6.4l2.1,3.5L0.8,6.3L-0.9,6.4z"/>
							</g>
							<g>
								<path class="st6" d="M-0.9,6.4L-0.9,6.4L1.3,10l0,0l-4.9,4.1L-0.9,6.4z M-0.9,6.4L-3.5,14l4.7-4L-0.9,6.4z"/>
							</g>
							<g>
								<path class="st6" d="M0.7,6.3l6.1-3.8l0,0l-0.5,4L0.7,6.3z M0.9,6.3l5.4,0.1l0.5-3.9L0.9,6.3z"/>
							</g>
							<g>
								<path class="st6" d="M7,6.4l6.3-7l0,0l2.2,8.5L7,6.4z M7.1,6.4l8.3,1.4l-2.1-8.3L7.1,6.4z"/>
							</g>
							<g>
								<path class="st6" d="M7,7.3V6.4l8.4,1.5l0,0L7,7.3z M7.1,7.2L15,7.8L7.1,6.5V7.2z"/>
							</g>
							<g>
								<path class="st6" d="M6.8,2.5L6.8,2.5l6.6-3.1l-6.3,7l0,0L6.8,2.5z M6.8,2.5l0.2,3.9l6.1-6.8L6.8,2.5z"/>
							</g>
							<g>
								<path class="st6" d="M6.3,6.4h0.8v0.9L6.3,6.4z M6.4,6.4L7,7.2V6.4H6.4z"/>
							</g>
							<g>
								<path class="st6" d="M6.8,2.5L6.8,2.5l0.3,3.9H6.3L6.8,2.5z M6.8,2.7L6.3,6.4H7L6.8,2.7z"/>
							</g>
							<g>
								<path class="st6" d="M28.4,23.9l2.4-2.1V24L28.4,23.9z M28.6,23.9l2.2,0.1v-2.1L28.6,23.9z"/>
							</g>
							<g>
								<path class="st5" d="M4.5,26"/>
							</g>
							<g>
								<path class="st6" d="M15.4,7.9l2.9-0.4l0.5,2.8L15.4,7.9z M15.5,7.9l3.2,2.3l-0.5-2.6L15.5,7.9z"/>
							</g>
							<g>
								<path class="st6" d="M15.5,7.9L15.5,7.9l3.3,2.4l-9.5,4.2L15.5,7.9z M15.5,7.9l-6,6.4l9.2-4.1L15.5,7.9z"/>
							</g>
							<g>
								<path class="st6" d="M7.2,16.2l2.4-2L7.4,17L7.2,16.2z M7.2,16.2l0.2,0.6l1.9-2.3L7.2,16.2z"/>
							</g>
							<g>
								<path class="st6" d="M0.8,11.7l8.6,2.7l0,0l-2.3,1.9L0.8,11.7z M1.1,11.8l6.1,4.4l2.2-1.8L1.1,11.8z"/>
							</g>
							<g>
								<path class="st6" d="M-5.8,21.8l3.5-0.3l-3.5,3.9V21.8z M-5.8,21.9v3.4l3.3-3.7L-5.8,21.9z"/>
							</g>
							<g>
								<path class="st6" d="M-2.4,21.6l9.6-5.4l0.2,0.7L-2.4,21.6L-2.4,21.6z M7.2,16.3l-9,5l9.1-4.4L7.2,16.3z"/>
							</g>
							<g>
								<path class="st6" d="M0.9,11.7L0.9,11.7l6.3,4.5l-9.7,5.4L0.9,11.7z M1,11.8l-3.3,9.8l9.5-5.3L1,11.8z"/>
							</g>
							<g>
								<path class="st5" d="M-2.4,21.6"/>
							</g>
							<g>
								<path class="st6" d="M-3.6,14.1L-3.6,14.1L1,11.7l-3.4,9.9l0,0.1L-3.6,14.1z M-3.5,14.1l1.1,7.4l3.3-9.7L-3.5,14.1z"/>
							</g>
							<g>
								<polygon class="st6" points="-5.8,25.4 -2.4,21.6 -2.4,21.6 -5.8,25.3 								"/>
							</g>
							<g>
								<path class="st6" d="M26.8,4L26.8,4l4,0.3l0,0v5l-0.9,2.3L26.8,4z M30.8,4.4l-3.9-0.3l3,7.4l0.9-2.2V4.4z"/>
							</g>
							<g>
								<path class="st6" d="M26.8,4L28,2.7l2.8,1v0.6L26.8,4z M28.1,2.8L26.9,4l3.9,0.3V3.8L28.1,2.8z"/>
							</g>
							<g>
								<path class="st6" d="M26.8,4l1.2-1.9v0.7L26.8,4L26.8,4z M28,2.3l-1,1.6l1-1.1V2.3z"/>
							</g>
							<g>
								<path class="st6" d="M21.7,1.8l6.4,0.3l-1.2,1.9L21.7,1.8z M21.9,1.9L26.8,4L28,2.2L21.9,1.9z"/>
							</g>
							<g>
								<path class="st6" d="M21.8,1.8L26.9,4l-8.7,3.5L21.8,1.8z M21.8,1.9l-3.5,5.5L26.8,4L21.8,1.9z"/>
							</g>
							<g>
								<path class="st6" d="M18.2,7.5L27,3.9l-8.3,6.3L18.2,7.5z M18.3,7.5l0.5,2.7l7.9-6.1L18.3,7.5z"/>
							</g>
							<g>
								<path class="st6" d="M14.7,22.6l0.5,2.5l-5.2,0.4L14.7,22.6z M14.7,22.7l-4.6,2.8l5-0.4L14.7,22.7z"/>
							</g>
							<g>
								<polygon class="st6" points="10,25.5 15.2,25.2 15.2,25.1 10,25.5 								"/>
							</g>
							<g>
								<path class="st6" d="M20.3,18.2l9.5-3.2l0,0l-1.3,8.9l0,0L20.3,18.2z M20.4,18.3l8.1,5.6l1.3-8.8L20.4,18.3z"/>
							</g>
							<g>
								<polygon class="st6" points="28.5,23.9 28.5,23.9 20.4,18.2 20.3,18.3 								"/>
							</g>
							<g>
								<path class="st6" d="M18.7,10.1l3,3.7l-1.4,4.5L18.7,10.1z M18.8,10.3l1.5,7.9l1.4-4.3L18.8,10.3z"/>
							</g>
							<g>
								<polygon class="st6" points="18.6,19.7 20.4,18.3 20.3,18.2 18.6,19.6 								"/>
							</g>
							<g>
								<path class="st6" d="M18.7,10l1.6,8.2l0,0l-1.8,1.4L18.7,10z M18.8,10.4l-0.2,9.2l1.7-1.4L18.8,10.4z"/>
							</g>
							<g>
								<path class="st6" d="M29.8,11.5l1-0.3v0.6L29.8,11.5z M30,11.5l0.8,0.2v-0.4L30,11.5z"/>
							</g>
							<g>
								<path class="st6" d="M30.8,9.2v2.1l-1,0.3L30.8,9.2z M30.8,9.4l-0.8,2.1l0.8-0.3V9.4z"/>
							</g>
							<g>
								<path class="st6" d="M25.2,12.9l4.7-1.4l0,0l-0.1,3.5L25.2,12.9z M25.3,12.9l4.5,2l0.1-3.4L25.3,12.9z"/>
							</g>
							<g>
								<path class="st6" d="M26.8,3.9l3.1,7.6l0,0L25.2,13L26.8,3.9z M26.9,4.1l-1.6,8.8l4.6-1.4L26.9,4.1z"/>
							</g>
							<g>
								<path class="st6" d="M25.3,12.9l4.6,2.1l-9.5,3.2l-0.1,0L25.3,12.9z M25.3,13l-4.9,5.2l9.3-3.2L25.3,13z"/>
							</g>
							<g>
								<path class="st6" d="M18.7,10.2L26.8,4l0,0l-1.6,9L18.7,10.2z M18.8,10.2l6.4,2.7l1.6-8.8L18.8,10.2z"/>
							</g>
							<g>
								<path class="st6" d="M21.7,13.8l3.6-0.9l-5,5.4L21.7,13.8z M21.8,13.8l-1.4,4.3l4.8-5.2L21.8,13.8z"/>
							</g>
							<g>
								<path class="st6" d="M18.7,10.2l6.7,2.8l-3.6,0.9L18.7,10.2z M18.8,10.3l2.9,3.5l3.5-0.9L18.8,10.3z"/>
							</g>
							<g>
								<path class="st6" d="M30.8,17v4.8l-2.4,2.1L30.8,17z M30.8,17.2l-2.2,6.6l2.2-2V17.2z"/>
							</g>
							<g>
								<path class="st6" d="M29.8,11.5l1,0.2v2.6L29.8,11.5z M29.9,11.6l0.8,2.5v-2.3L29.9,11.6z"/>
							</g>
							<g>
								<path class="st6" d="M29.8,15l0.1-3.6l0.9,2.8l0,1.3L29.8,15z M29.9,11.7L29.8,15l0.9,0.4v-1.2L29.9,11.7z"/>
							</g>
							<g>
								<path class="st6" d="M28.5,23.9l1.3-8.9l1,0.4v1.7L28.5,23.9L28.5,23.9z M30.8,15.5l-0.9-0.4l-1.3,8.6l2.2-6.5V15.5z"/>
							</g>
							<g>
								<path class="st5" d="M29.4,25.6"/>
							</g>
							<g>
								<path class="st6" d="M-5.8,20.3l3.5,1.3l-3.5,0.3V20.3z M-5.8,20.4v1.5l3.3-0.3L-5.8,20.4z"/>
							</g>
							<g>
								<path class="st6" d="M-5.8,20.4v-5.4l2.3-0.9l1.1,7.6L-5.8,20.4z M-5.8,14.9v5.4l3.3,1.2l-1.1-7.5L-5.8,14.9z"/>
							</g>
							<g>
								<path class="st6" d="M-5.8,13.2l2.3,0.9L-5.8,15V13.2z M-5.8,13.2v1.7l2.2-0.8L-5.8,13.2z"/>
							</g>
							<g>
								<path class="st6" d="M-2.5,21.6l9.9-4.7l0.1,0L4.7,23l0,0L-2.5,21.6z M-2.3,21.6l7,1.4l2.7-6L-2.3,21.6z"/>
							</g>
							<g>
								<path class="st6" d="M11.2,18.5L11.2,18.5l7.6-8.4l-0.2,9.5v0L11.2,18.5z M11.2,18.5l7.3,1.1l0.2-9.3L11.2,18.5z"/>
							</g>
							<g>
								<path class="st6" d="M9.4,14.4l9.5-4.2l-7.7,8.4l0,0L9.4,14.4z M9.4,14.4l1.7,4.1l7.5-8.2L9.4,14.4z"/>
							</g>
							<g>
								<path class="st6" d="M11.1,18.5l7.5,1.2l-3.9,3.1l0,0L11.1,18.5z M11.2,18.5l3.5,4.1l3.8-3L11.2,18.5z"/>
							</g>
							<g>
								<path class="st6" d="M4.6,23l6.5-4.5l0,0l-1.1,7.1l0,0L4.6,23z M4.7,23l5.3,2.5l1.1-6.9L4.7,23z"/>
							</g>
							<g>
								<path class="st6" d="M7.3,16.9l2.1-2.6l1.8,4.2L7.3,16.9z M7.4,16.9l3.7,1.5l-1.7-4L7.4,16.9z"/>
							</g>
							<g>
								<path class="st6" d="M7.4,16.9L7.4,16.9l3.8,1.6l0,0L4.7,23l-0.1,0L7.4,16.9z M7.4,16.9l-2.7,6l6.4-4.4L7.4,16.9z"/>
							</g>
						</g>
					</g>
					<circle class="st7" cx="26.9" cy="4" r="0.4"/>
					<circle class="st7" cx="15.4" cy="7.8" r="0.4"/>
					<circle class="st7" cx="25.4" cy="12.9" r="0.4"/>
					<circle class="st7" cx="21.8" cy="1.8" r="0.4"/>
					<circle class="st7" cx="28" cy="2.2" r="0.2"/>
					<circle class="st7" cx="28.1" cy="2.7" r="0.1"/>
					<circle class="st7" cx="18.3" cy="7.5" r="0.2"/>
					<circle class="st7" cx="17.4" cy="1.9" r="0.2"/>
					<circle class="st7" cx="29.9" cy="11.5" r="0.2"/>
					<circle class="st7" cx="0.8" cy="6.3" r="0.4"/>
					<circle class="st7" cx="21.7" cy="13.7" r="0.4"/>
					<circle class="st7" cx="20.4" cy="18.2" r="0.3"/>
					<circle class="st7" cx="11.2" cy="18.4" r="0.3"/>
					<circle class="st7" cx="4.7" cy="23" r="0.3"/>
					<circle class="st7" cx="7.4" cy="16.9" r="0.3"/>
					<circle class="st7" cx="-3.5" cy="14" r="0.3"/>
					<circle class="st7" cx="-0.9" cy="6.4" r="0.3"/>
					<circle class="st7" cx="1" cy="11.8" r="0.3"/>
					<circle class="st7" cx="6.8" cy="2.6" r="0.3"/>
					<circle class="st7" cx="6.4" cy="6.4" r="0.3"/>
					<circle class="st7" cx="7.1" cy="7.2" r="0.2"/>
					<circle class="st7" cx="7.1" cy="6.4" r="0.2"/>
					<circle class="st7" cx="1.3" cy="9.9" r="0.3"/>
					<circle class="st7" cx="10" cy="25.5" r="0.3"/>
					<circle class="st7" cx="18.5" cy="19.6" r="0.3"/>
					<circle class="st7" cx="29.8" cy="15" r="0.3"/>
					<circle class="st7" cx="28.5" cy="23.9" r="0.3"/>
					<circle class="st7" cx="14.7" cy="22.7" r="0.3"/>
					<circle class="st7" cx="18.9" cy="10.3" r="0.6"/>
					<circle class="st7" cx="9.5" cy="14.3" r="0.6"/>
					<circle class="st7" cx="13.3" cy="-0.5" r="0.6"/>
					<circle class="st7" cx="-2.4" cy="21.4" r="0.6"/>
				</g>
			</g>
			<rect class="st8" width="25" height="25"/>
		</g>
	</g>
	<g>
		<defs>
			<rect id="SVGID_6_" width="25" height="25"/>
		</defs>
		<clipPath id="SVGID_7_">
			<use xlink:href="#SVGID_6_"  style="overflow:visible;"/>
		</clipPath>
		<defs>
			<filter id="Adobe_OpacityMaskFilter_1_" filterUnits="userSpaceOnUse" x="-1" y="-5.8" width="27" height="36.6">
				<feColorMatrix  type="matrix" values="1 0 0 0 0  0 1 0 0 0  0 0 1 0 0  0 0 0 1 0"/>
			</filter>
		</defs>
		<mask maskUnits="userSpaceOnUse" x="-1" y="-5.8" width="27" height="36.6" id="SVGID_8_">
			<g class="st9">
				
					<radialGradient id="SVGID_9_" cx="34.0625" cy="37.0615" r="50.4094" gradientTransform="matrix(0 -1 -1 0 24.999 25)" gradientUnits="userSpaceOnUse">
					<stop  offset="0.2294" style="stop-color:#FFFFFF"/>
					<stop  offset="0.332" style="stop-color:#B8B8B8"/>
					<stop  offset="0.4355" style="stop-color:#777777"/>
					<stop  offset="0.5299" style="stop-color:#444444"/>
					<stop  offset="0.6116" style="stop-color:#1F1F1F"/>
					<stop  offset="0.6775" style="stop-color:#080808"/>
					<stop  offset="0.7192" style="stop-color:#000000"/>
				</radialGradient>
				<rect class="st10" width="25" height="25"/>
			</g>
		</mask>
		<g class="st11">
			<g>
				<g class="st4">
					<g>
						<g>
							<g>
								<path class="st5" d="M23.9,28.5"/>
							</g>
							<g>
								<path class="st6" d="M7.8-5.8l-1.4,5l-3-5H7.8z M6.4-0.9l1.4-4.8H3.5L6.4-0.9z"/>
							</g>
							<g>
								<path class="st6" d="M14.1-3.6L14.1-3.6l-1.4-2.3h0.5L14.1-3.6z M12.8-5.8l1.2,2l-0.8-2H12.8z"/>
							</g>
							<g>
								<path class="st6" d="M14.1-3.5L6.3-0.9l1.4-5h5L14.1-3.5z M6.4-0.9L14-3.6l-1.3-2.2H7.8L6.4-0.9z"/>
							</g>
							<g>
								<path class="st6" d="M7.6,18.2l-5.7,3.6l0.1-4.5L7.6,18.2z M1.9,21.8l5.5-3.5L2,17.4L1.9,21.8z"/>
							</g>
							<g>
								<path class="st6" d="M7.9,15.4l-0.4,2.8l0,0l-5.7-0.9L7.9,15.4z M7.5,18.2l0.4-2.7L2,17.4L7.5,18.2z"/>
							</g>
							<g>
								<path class="st6" d="M8,15.5l-6,1.9l0,0l-2.5-4.1L8,15.5z M2,17.3l5.8-1.9l-8.3-2.1L2,17.3z"/>
							</g>
							<g>
								<path class="st6" d="M14.4,9.4L14.4,9.4l-6.6,6.1L7.2,7L14.4,9.4z M7.9,15.4l6.4-6L7.3,7.1L7.9,15.4z"/>
							</g>
							<g>
								<path class="st5" d="M26,4.5"/>
							</g>
							<g>
								<polygon class="st6" points="25.1,15.2 19.6,18.6 19.6,18.6 25.1,15.1 								"/>
							</g>
							<g>
								<path class="st5" d="M25.1,15.2"/>
							</g>
							<g>
								<path class="st6" d="M25.2,15.1l-5.7,3.5l3.1-4l0,0L25.2,15.1z M19.7,18.5l5.3-3.3l-2.4-0.4L19.7,18.5z"/>
							</g>
							<g>
								<path class="st5" d="M25.1,15.2"/>
							</g>
							<g>
								<path class="st6" d="M14.4,9.4L7.2,7.1L10,1.2L14.4,9.4z M7.3,7.1l7.1,2.3L10,1.3L7.3,7.1z"/>
							</g>
							<g>
								<path class="st6" d="M14.4,9.4L14.4,9.4L10,1.2l1.8-0.3l0,0L14.4,9.4z M10.1,1.3l4.2,7.9L11.7,1L10.1,1.3z"/>
							</g>
							<g>
								<path class="st6" d="M10.1,1.3L7.3,7.1L6.4,6.3L10.1,1.3L10.1,1.3z M7.2,7l2.7-5.5L6.5,6.3L7.2,7z"/>
							</g>
							<g>
								<path class="st6" d="M10.1,1.2L6.4,6.4L6.3,0.8l0,0L10.1,1.2z M6.5,6.2l3.5-5L6.3,0.8L6.5,6.2z"/>
							</g>
							<g>
								<path class="st6" d="M14.2-3.7L11.8,1l0,0L10,1.3L14.2-3.7z M11.7,0.9L14-3.4l-3.9,4.6L11.7,0.9z"/>
							</g>
							<g>
								<path class="st6" d="M10.1,1.3L6.3,0.8l0.1-1.8L10.1,1.3z M6.3,0.8l3.6,0.4L6.4-0.9L6.3,0.8z"/>
							</g>
							<g>
								<path class="st6" d="M14.1-3.6L10,1.3l0,0L6.3-0.9l0,0L14.1-3.6z M10,1.2l4-4.7L6.4-0.9L10,1.2z"/>
							</g>
							<g>
								<path class="st6" d="M6.5,6.3l-4,0.5l0,0l3.8-6.1L6.5,6.3z M2.6,6.8l3.8-0.5L6.3,0.9L2.6,6.8z"/>
							</g>
							<g>
								<path class="st6" d="M7.9,15.5l-8.5-2.2l0,0l7-6.3L7.9,15.5z M-0.5,13.3l8.3,2.1L6.4,7.1L-0.5,13.3z"/>
							</g>
							<g>
								<path class="st6" d="M7.9,15.5L7.9,15.5L6.4,7h0.9L7.9,15.5z M6.5,7.1L7.8,15L7.2,7.1H6.5z"/>
							</g>
							<g>
								<path class="st6" d="M6.5,7.1L6.5,7.1l-7.1,6.4l3.1-6.6l0,0L6.5,7.1z M-0.5,13.2l6.8-6.1L2.5,6.8L-0.5,13.2z"/>
							</g>
							<g>
								<path class="st6" d="M7.3,7.1H6.4V6.3L7.3,7.1z M6.5,7h0.7L6.5,6.4V7z"/>
							</g>
							<g>
								<path class="st6" d="M6.5,6.3v0.8L2.5,6.8l0,0L6.5,6.3z M6.4,7V6.3L2.7,6.8L6.4,7z"/>
							</g>
							<g>
								<path class="st6" d="M24,30.8h-2.3l2.2-2.4L24,30.8z M21.8,30.8H24l-0.1-2.2L21.8,30.8z"/>
							</g>
							<g>
								<path class="st5" d="M26,4.5"/>
							</g>
							<g>
								<path class="st6" d="M10.3,18.8l-2.8-0.5l0.4-2.9L10.3,18.8z M7.5,18.2l2.6,0.5l-2.3-3.2L7.5,18.2z"/>
							</g>
							<g>
								<path class="st6" d="M14.5,9.3l-4.2,9.5l-2.4-3.3l0,0L14.5,9.3z M10.2,18.7l4.1-9.2l-6.4,6L10.2,18.7z"/>
							</g>
							<g>
								<path class="st6" d="M17,7.4l-2.7,2.2l2-2.4L17,7.4z M14.6,9.3l2.3-1.9l-0.6-0.2L14.6,9.3z"/>
							</g>
							<g>
								<path class="st6" d="M16.3,7.2l-1.9,2.3l0,0l-2.7-8.6L16.3,7.2z M14.4,9.4l1.8-2.2l-4.4-6.1L14.4,9.4z"/>
							</g>
							<g>
								<path class="st6" d="M25.4-5.8l-3.9,3.5l0.3-3.5H25.4z M21.6-2.5l3.7-3.3h-3.4L21.6-2.5z"/>
							</g>
							<g>
								<path class="st6" d="M21.6-2.4l-4.7,9.8l-0.7-0.2L21.6-2.4L21.6-2.4z M16.9,7.4l4.4-9.1l-5,9L16.9,7.4z"/>
							</g>
							<g>
								<path class="st6" d="M21.6-2.4l-5.4,9.7l-4.5-6.3l0,0L21.6-2.4z M16.2,7.2l5.3-9.5L11.8,1L16.2,7.2z"/>
							</g>
							<g>
								<path class="st5" d="M21.6-2.4"/>
							</g>
							<g>
								<path class="st6" d="M21.7-2.4L21.7-2.4L11.7,1l2.4-4.6l0,0L21.7-2.4z M11.8,0.9l9.7-3.3l-7.4-1.1L11.8,0.9z"/>
							</g>
							<g>
								<polygon class="st6" points="25.4,-5.8 21.6,-2.4 21.6,-2.4 25.3,-5.8 								"/>
							</g>
							<g>
								<path class="st6" d="M11.6,29.9l-2.3,0.9h-5l0,0l-0.3-4l0,0L11.6,29.9z M9.3,30.8l2.2-0.9l-7.4-3l0.3,3.9H9.3z"/>
							</g>
							<g>
								<path class="st6" d="M4.4,30.8H3.8l-1-2.8L4,26.8L4.4,30.8z M3.8,30.8h0.5L4,26.9l-1.2,1.2L3.8,30.8z"/>
							</g>
							<g>
								<path class="st6" d="M4,26.9l-1.3,1.2H2.1L4,26.9L4,26.9z M2.8,28l1.1-1l-1.6,1H2.8z"/>
							</g>
							<g>
								<path class="st6" d="M4.1,26.9l-1.9,1.2l-0.3-6.4L4.1,26.9z M2.2,28L4,26.8l-2.1-4.9L2.2,28z"/>
							</g>
							<g>
								<path class="st6" d="M7.5,18.2L4,26.9l-2.2-5.1L7.5,18.2z M4,26.8l3.4-8.5l-5.5,3.5L4,26.8z"/>
							</g>
							<g>
								<path class="st6" d="M10.3,18.7L3.9,27l3.5-8.8L10.3,18.7z M4.1,26.7l6.1-7.9l-2.7-0.5L4.1,26.7z"/>
							</g>
							<g>
								<path class="st6" d="M25.5,9.9l-0.4,5.2l-2.5-0.5L25.5,9.9z M25.1,15.1l0.4-5l-2.8,4.6L25.1,15.1z"/>
							</g>
							<g>
								<polygon class="st6" points="25.5,10 25.2,15.2 25.1,15.2 25.5,10 								"/>
							</g>
							<g>
								<path class="st6" d="M23.9,28.5L23.9,28.5L15,29.8l0,0l3.2-9.5L23.9,28.5z M15.1,29.8l8.8-1.3l-5.6-8.1L15.1,29.8z"/>
							</g>
							<g>
								<polygon class="st6" points="23.9,28.5 23.9,28.5 18.2,20.4 18.3,20.3 								"/>
							</g>
							<g>
								<path class="st6" d="M18.3,20.3l-4.5,1.4l-3.7-3L18.3,20.3z M13.8,21.7l4.3-1.4l-7.9-1.5L13.8,21.7z"/>
							</g>
							<g>
								<polygon class="st6" points="19.7,18.6 18.3,20.4 18.2,20.3 19.6,18.6 								"/>
							</g>
							<g>
								<path class="st6" d="M19.7,18.5l-1.4,1.8l0,0L10,18.7L19.7,18.5z M18.2,20.3l1.4-1.7l-9.2,0.2L18.2,20.3z"/>
							</g>
							<g>
								<path class="st6" d="M11.8,30.8h-0.6l0.3-1L11.8,30.8z M11.3,30.8h0.4L11.5,30L11.3,30.8z"/>
							</g>
							<g>
								<path class="st6" d="M11.6,29.8l-0.3,1H9.2L11.6,29.8z M11.2,30.8l0.3-0.8l-2.1,0.8H11.2z"/>
							</g>
							<g>
								<path class="st6" d="M15.1,29.8l-3.5,0.1l0,0l1.4-4.7L15.1,29.8z M11.6,29.9l3.4-0.1l-2-4.5L11.6,29.9z"/>
							</g>
							<g>
								<path class="st6" d="M13,25.2l-1.4,4.7l0,0l-7.6-3.1L13,25.2z M11.5,29.9l1.4-4.6l-8.8,1.6L11.5,29.9z"/>
							</g>
							<g>
								<path class="st6" d="M18.3,20.3L18.3,20.3L15,29.9l-2.1-4.6L18.3,20.3z M15,29.8l3.2-9.3L13,25.3L15,29.8z"/>
							</g>
							<g>
								<path class="st6" d="M13,25.3l-9,1.6l0,0l6.2-8.1L13,25.3z M4.1,26.8l8.8-1.6l-2.7-6.4L4.1,26.8z"/>
							</g>
							<g>
								<path class="st6" d="M18.3,20.3l-5.4,5l0.9-3.6L18.3,20.3z M13,25.2l5.2-4.8l-4.3,1.4L13,25.2z"/>
							</g>
							<g>
								<path class="st6" d="M13.8,21.7l-0.9,3.6l-2.8-6.7L13.8,21.7z M12.9,25.2l0.9-3.5l-3.5-2.9L12.9,25.2z"/>
							</g>
							<g>
								<path class="st6" d="M23.9,28.4l-2.1,2.4H17L23.9,28.4z M21.8,30.8l2-2.2l-6.6,2.2H21.8z"/>
							</g>
							<g>
								<path class="st6" d="M14.4,30.8h-2.6l-0.2-1L14.4,30.8z M11.8,30.8h2.3l-2.5-0.8L11.8,30.8z"/>
							</g>
							<g>
								<path class="st6" d="M15.5,30.8l-1.3,0l-2.8-0.9l3.6-0.1L15.5,30.8z M14.2,30.8h1.2L15,29.8l-3.3,0.1L14.2,30.8z"/>
							</g>
							<g>
								<path class="st6" d="M23.9,28.5l-6.8,2.3h-1.7l-0.4-1L23.9,28.5L23.9,28.5z M17.1,30.8l6.5-2.2l-8.6,1.3l0.4,0.9H17.1z"/>
							</g>
							<g>
								<path class="st5" d="M25.6,29.4"/>
							</g>
							<g>
								<path class="st6" d="M21.9-5.8l-0.3,3.5l-1.3-3.5H21.9z M21.6-2.5l0.3-3.3h-1.5L21.6-2.5z"/>
							</g>
							<g>
								<path class="st6" d="M21.6-2.4L14-3.5l0.9-2.3h5.4L21.6-2.4z M14.1-3.6l7.5,1.1l-1.2-3.3h-5.4L14.1-3.6z"/>
							</g>
							<g>
								<path class="st6" d="M15-5.8l-0.9,2.3l-0.9-2.3H15z M14.1-3.6l0.8-2.2h-1.7L14.1-3.6z"/>
							</g>
							<g>
								<path class="st6" d="M23,4.7L23,4.7l-6.1,2.8l0-0.1l4.7-9.9L23,4.7z M17,7.3l6-2.7l-1.4-7L17,7.3z"/>
							</g>
							<g>
								<path class="st6" d="M19.7,18.6L19.7,18.6l-9.5,0.2l8.4-7.7l0,0L19.7,18.6z M10.3,18.7l9.3-0.2l-1.1-7.3L10.3,18.7z"/>
							</g>
							<g>
								<path class="st6" d="M18.5,11.2L18.5,11.2l-8.4,7.7l4.2-9.5L18.5,11.2z M10.3,18.7l8.2-7.5l-4.1-1.7L10.3,18.7z"/>
							</g>
							<g>
								<path class="st6" d="M22.7,14.7L22.7,14.7l-3.1,3.9l-1.2-7.5L22.7,14.7z M19.7,18.5l3-3.8l-4.1-3.5L19.7,18.5z"/>
							</g>
							<g>
								<path class="st6" d="M25.5,10.1L25.5,10.1l-7.1,1.2l0,0L23,4.6L25.5,10.1z M18.5,11.1l6.9-1.1L23,4.7L18.5,11.1z"/>
							</g>
							<g>
								<path class="st6" d="M18.5,11.2l-4.2-1.8l2.6-2.1L18.5,11.2z M14.4,9.4l4,1.7l-1.5-3.7L14.4,9.4z"/>
							</g>
							<g>
								<path class="st6" d="M23.1,4.6L23.1,4.6l-4.6,6.6l0,0l-1.6-3.8l0,0L23.1,4.6z M18.5,11.1l4.4-6.4l-6,2.7L18.5,11.1z"/>
							</g>
						</g>
					</g>
					<circle class="st7" cx="4" cy="26.9" r="0.4"/>
					<circle class="st7" cx="7.8" cy="15.4" r="0.4"/>
					<circle class="st7" cx="12.9" cy="25.4" r="0.4"/>
					<circle class="st7" cx="1.8" cy="21.8" r="0.4"/>
					<circle class="st7" cx="2.2" cy="28" r="0.2"/>
					<circle class="st7" cx="2.7" cy="28.1" r="0.1"/>
					<circle class="st7" cx="7.5" cy="18.3" r="0.2"/>
					<circle class="st7" cx="1.9" cy="17.4" r="0.2"/>
					<circle class="st7" cx="11.5" cy="29.9" r="0.2"/>
					<circle class="st7" cx="6.3" cy="0.8" r="0.4"/>
					<circle class="st7" cx="13.8" cy="21.7" r="0.4"/>
					<circle class="st7" cx="18.2" cy="20.4" r="0.3"/>
					<circle class="st7" cx="18.5" cy="11.2" r="0.3"/>
					<circle class="st7" cx="23" cy="4.7" r="0.3"/>
					<circle class="st7" cx="16.9" cy="7.4" r="0.3"/>
					<circle class="st7" cx="14" cy="-3.5" r="0.3"/>
					<circle class="st7" cx="6.4" cy="-0.9" r="0.3"/>
					<circle class="st7" cx="11.8" cy="1" r="0.3"/>
					<circle class="st7" cx="2.6" cy="6.8" r="0.3"/>
					<circle class="st7" cx="6.4" cy="6.4" r="0.3"/>
					<circle class="st7" cx="7.2" cy="7.1" r="0.2"/>
					<circle class="st7" cx="6.4" cy="7.1" r="0.2"/>
					<circle class="st7" cx="9.9" cy="1.3" r="0.3"/>
					<circle class="st7" cx="25.5" cy="10" r="0.3"/>
					<circle class="st7" cx="19.6" cy="18.5" r="0.3"/>
					<circle class="st7" cx="15" cy="29.8" r="0.3"/>
					<circle class="st7" cx="23.9" cy="28.5" r="0.3"/>
					<circle class="st7" cx="22.7" cy="14.7" r="0.3"/>
					<circle class="st7" cx="10.3" cy="18.9" r="0.6"/>
					<circle class="st7" cx="14.3" cy="9.5" r="0.6"/>
					<circle class="st7" cx="-0.5" cy="13.3" r="0.6"/>
					<circle class="st7" cx="21.4" cy="-2.4" r="0.6"/>
				</g>
				<g>
					<g>
						<g>
							<g>
								<path class="st5" d="M1.1,28.5"/>
							</g>
							<g>
								<path class="st6" d="M21.6-5.8l-3,5l-1.4-5H21.6z M21.5-5.8h-4.3l1.4,4.8L21.5-5.8z"/>
							</g>
							<g>
								<path class="st6" d="M11.8-5.8h0.5l-1.4,2.3l0,0L11.8-5.8z M11.8-5.8l-0.8,2l1.2-2H11.8z"/>
							</g>
							<g>
								<path class="st6" d="M12.3-5.8h5l1.4,5l-7.8-2.7L12.3-5.8z M17.2-5.8h-4.9L11-3.6l7.6,2.6L17.2-5.8z"/>
							</g>
							<g>
								<path class="st6" d="M23.1,17.3l0.1,4.5l-5.7-3.6L23.1,17.3z M23,17.4l-5.5,0.9l5.5,3.5L23,17.4z"/>
							</g>
							<g>
								<path class="st6" d="M23.2,17.4l-5.7,0.9l0,0l-0.4-2.8L23.2,17.4z M23,17.4l-5.8-1.9l0.4,2.7L23,17.4z"/>
							</g>
							<g>
								<path class="st6" d="M25.6,13.3l-2.5,4.1l0,0l-6-1.9L25.6,13.3z M25.5,13.4l-8.3,2.1l5.8,1.9L25.5,13.4z"/>
							</g>
							<g>
								<path class="st6" d="M17.8,7l-0.6,8.5l-6.5-6.1l0,0L17.8,7z M17.7,7.1l-7.1,2.3l6.4,6L17.7,7.1z"/>
							</g>
							<g>
								<path class="st5" d="M-1,4.5"/>
							</g>
							<g>
								<polygon class="st6" points="-0.1,15.2 5.4,18.6 5.4,18.6 -0.1,15.1 								"/>
							</g>
							<g>
								<path class="st5" d="M-0.1,15.2"/>
							</g>
							<g>
								<path class="st6" d="M2.3,14.7L2.3,14.7l3.1,4l-5.7-3.5L2.3,14.7z M2.3,14.7l-2.4,0.4l5.3,3.3L2.3,14.7z"/>
							</g>
							<g>
								<path class="st5" d="M-0.1,15.2"/>
							</g>
							<g>
								<path class="st6" d="M15,1.2l2.8,5.9l-7.2,2.4L15,1.2z M15,1.3l-4.3,8.1l7.1-2.3L15,1.3z"/>
							</g>
							<g>
								<path class="st6" d="M13.2,0.9L13.2,0.9L15,1.2l-4.4,8.2l0,0L13.2,0.9z M13.3,1l-2.6,8.2l4.2-7.9L13.3,1z"/>
							</g>
							<g>
								<path class="st6" d="M15,1.2l3.6,5.1l-0.9,0.8L15,1.2L15,1.2z M18.5,6.3l-3.4-4.8L17.8,7L18.5,6.3z"/>
							</g>
							<g>
								<path class="st6" d="M18.7,0.8L18.7,0.8l-0.1,5.6l-3.7-5.1L18.7,0.8z M18.7,0.8L15,1.3l3.5,5L18.7,0.8z"/>
							</g>
							<g>
								<path class="st6" d="M15,1.3L13.3,1l0,0l-2.4-4.7L15,1.3z M14.9,1.2L11-3.4l2.2,4.3L14.9,1.2z"/>
							</g>
							<g>
								<path class="st6" d="M18.7-0.9l0.1,1.8l-3.9,0.5L18.7-0.9z M18.6-0.9l-3.5,2.1l3.6-0.4L18.6-0.9z"/>
							</g>
							<g>
								<path class="st6" d="M18.6-0.9L18.6-0.9L15,1.3l0,0l-4.1-4.9L18.6-0.9z M18.6-0.9L11-3.5l4,4.7L18.6-0.9z"/>
							</g>
							<g>
								<path class="st6" d="M18.7,0.7l3.8,6.1l0,0l-4-0.5L18.7,0.7z M18.7,0.9l-0.1,5.4l3.9,0.5L18.7,0.9z"/>
							</g>
							<g>
								<path class="st6" d="M18.6,7l7,6.3l0,0l-8.5,2.2L18.6,7z M18.6,7.1l-1.4,8.3l8.3-2.1L18.6,7.1z"/>
							</g>
							<g>
								<path class="st6" d="M17.7,7h0.9l-1.5,8.4l0,0L17.7,7z M17.8,7.1L17.2,15l1.4-7.9H17.8z"/>
							</g>
							<g>
								<path class="st6" d="M22.5,6.8L22.5,6.8l3.1,6.6l-7-6.3l0,0L22.5,6.8z M22.5,6.8l-3.9,0.2l6.8,6.1L22.5,6.8z"/>
							</g>
							<g>
								<path class="st6" d="M18.6,6.3v0.8h-0.9L18.6,6.3z M18.6,6.4L17.8,7h0.7V6.4z"/>
							</g>
							<g>
								<path class="st6" d="M22.5,6.8L22.5,6.8l-3.9,0.3V6.3L22.5,6.8z M22.3,6.8l-3.7-0.5V7L22.3,6.8z"/>
							</g>
							<g>
								<path class="st6" d="M1.1,28.4l2.1,2.4H1L1.1,28.4z M1.1,28.6L1,30.8h2.1L1.1,28.6z"/>
							</g>
							<g>
								<path class="st5" d="M-1,4.5"/>
							</g>
							<g>
								<path class="st6" d="M17.1,15.4l0.4,2.9l-2.8,0.5L17.1,15.4z M17.1,15.5l-2.3,3.2l2.6-0.5L17.1,15.5z"/>
							</g>
							<g>
								<path class="st6" d="M17.1,15.5L17.1,15.5l-2.4,3.3l-4.2-9.5L17.1,15.5z M17.1,15.5l-6.4-6l4.1,9.2L17.1,15.5z"/>
							</g>
							<g>
								<path class="st6" d="M8.8,7.2l2,2.4L8,7.4L8.8,7.2z M8.8,7.2L8.1,7.4l2.3,1.9L8.8,7.2z"/>
							</g>
							<g>
								<path class="st6" d="M13.3,0.8l-2.7,8.6l0,0L8.7,7.2L13.3,0.8z M13.2,1.1L8.8,7.2l1.8,2.2L13.2,1.1z"/>
							</g>
							<g>
								<path class="st6" d="M3.2-5.8l0.3,3.5l-3.9-3.5H3.2z M3.1-5.8h-3.4l3.7,3.3L3.1-5.8z"/>
							</g>
							<g>
								<path class="st6" d="M3.4-2.4l5.4,9.6L8.1,7.4L3.4-2.4L3.4-2.4z M8.7,7.2l-5-9l4.4,9.1L8.7,7.2z"/>
							</g>
							<g>
								<path class="st6" d="M13.3,0.9L13.3,0.9L8.8,7.2L3.4-2.4L13.3,0.9z M13.2,1L3.5-2.4l5.3,9.5L13.2,1z"/>
							</g>
							<g>
								<path class="st5" d="M3.4-2.4"/>
							</g>
							<g>
								<path class="st6" d="M10.9-3.6L10.9-3.6L13.3,1L3.4-2.4l-0.1,0L10.9-3.6z M10.9-3.5L3.5-2.4l9.7,3.3L10.9-3.5z"/>
							</g>
							<g>
								<polygon class="st6" points="-0.4,-5.8 3.4,-2.4 3.4,-2.4 -0.3,-5.8 								"/>
							</g>
							<g>
								<path class="st6" d="M21,26.8L21,26.8l-0.3,4l0,0h-5l-2.3-0.9L21,26.8z M20.6,30.8l0.3-3.9l-7.4,3l2.2,0.9H20.6z"/>
							</g>
							<g>
								<path class="st6" d="M21,26.8l1.3,1.2l-1,2.8h-0.6L21,26.8z M22.2,28.1L21,26.9l-0.3,3.9h0.5L22.2,28.1z"/>
							</g>
							<g>
								<path class="st6" d="M21,26.8l1.9,1.2h-0.7L21,26.8L21,26.8z M22.7,28l-1.6-1l1.1,1H22.7z"/>
							</g>
							<g>
								<path class="st6" d="M23.2,21.7l-0.3,6.4l-1.9-1.2L23.2,21.7z M23.1,21.9L21,26.8l1.8,1.2L23.1,21.9z"/>
							</g>
							<g>
								<path class="st6" d="M23.2,21.8L21,26.9l-3.5-8.7L23.2,21.8z M23.1,21.8l-5.5-3.5l3.4,8.5L23.1,21.8z"/>
							</g>
							<g>
								<path class="st6" d="M17.5,18.2l3.5,8.8l-6.3-8.3L17.5,18.2z M17.5,18.3l-2.7,0.5l6.1,7.9L17.5,18.3z"/>
							</g>
							<g>
								<path class="st6" d="M2.4,14.7l-2.5,0.5l-0.4-5.2L2.4,14.7z M2.3,14.7l-2.8-4.6l0.4,5L2.3,14.7z"/>
							</g>
							<g>
								<polygon class="st6" points="-0.5,10 -0.2,15.2 -0.1,15.2 -0.5,10 								"/>
							</g>
							<g>
								<path class="st6" d="M6.8,20.3l3.2,9.5l0,0l-8.9-1.3l0,0L6.8,20.3z M6.7,20.4l-5.6,8.1l8.8,1.3L6.7,20.4z"/>
							</g>
							<g>
								<polygon class="st6" points="1.1,28.5 1.1,28.5 6.8,20.4 6.7,20.3 								"/>
							</g>
							<g>
								<path class="st6" d="M14.9,18.7l-3.7,3l-4.5-1.4L14.9,18.7z M14.7,18.8l-7.8,1.5l4.3,1.4L14.7,18.8z"/>
							</g>
							<g>
								<polygon class="st6" points="5.3,18.6 6.7,20.4 6.8,20.3 5.4,18.6 								"/>
							</g>
							<g>
								<path class="st6" d="M15,18.7l-8.2,1.6l0,0l-1.4-1.8L15,18.7z M14.6,18.8l-9.2-0.2l1.4,1.7L14.6,18.8z"/>
							</g>
							<g>
								<path class="st6" d="M13.5,29.8l0.3,1h-0.6L13.5,29.8z M13.5,30l-0.2,0.8h0.4L13.5,30z"/>
							</g>
							<g>
								<path class="st6" d="M15.8,30.8h-2.1l-0.3-1L15.8,30.8z M15.6,30.8l-2.1-0.8l0.3,0.8H15.6z"/>
							</g>
							<g>
								<path class="st6" d="M12.1,25.2l1.4,4.7l0,0l-3.5-0.1L12.1,25.2z M12.1,25.3l-2,4.5l3.4,0.1L12.1,25.3z"/>
							</g>
							<g>
								<path class="st6" d="M21.1,26.8l-7.6,3.1l0,0L12,25.2L21.1,26.8z M20.9,26.9l-8.8-1.6l1.4,4.6L20.9,26.9z"/>
							</g>
							<g>
								<path class="st6" d="M12.1,25.3L10,29.9l-3.2-9.5l0-0.1L12.1,25.3z M12,25.3l-5.2-4.9l3.2,9.3L12,25.3z"/>
							</g>
							<g>
								<path class="st6" d="M14.8,18.7l6.2,8.1l0,0l-9-1.6L14.8,18.7z M14.8,18.8l-2.7,6.4l8.8,1.6L14.8,18.8z"/>
							</g>
							<g>
								<path class="st6" d="M11.2,21.7l0.9,3.6l-5.4-5L11.2,21.7z M11.2,21.8l-4.3-1.4l5.2,4.8L11.2,21.8z"/>
							</g>
							<g>
								<path class="st6" d="M14.8,18.7l-2.8,6.7l-0.9-3.6L14.8,18.7z M14.7,18.8l-3.5,2.9l0.9,3.5L14.7,18.8z"/>
							</g>
							<g>
								<path class="st6" d="M8,30.8H3.2l-2.1-2.4L8,30.8z M7.8,30.8l-6.6-2.2l2,2.2H7.8z"/>
							</g>
							<g>
								<path class="st6" d="M13.5,29.8l-0.2,1h-2.6L13.5,29.8z M13.4,29.9l-2.5,0.8h2.3L13.4,29.9z"/>
							</g>
							<g>
								<path class="st6" d="M10,29.8l3.6,0.1l-2.8,0.9l-1.3,0L10,29.8z M13.3,29.9L10,29.8l-0.4,0.9h1.2L13.3,29.9z"/>
							</g>
							<g>
								<path class="st6" d="M1.1,28.5l8.9,1.3l-0.4,1H7.9L1.1,28.5L1.1,28.5z M9.5,30.8l0.4-0.9l-8.6-1.3l6.5,2.2H9.5z"/>
							</g>
							<g>
								<path class="st5" d="M-0.6,29.4"/>
							</g>
							<g>
								<path class="st6" d="M4.7-5.8L3.4-2.3L3.1-5.8H4.7z M4.6-5.8H3.2l0.3,3.3L4.6-5.8z"/>
							</g>
							<g>
								<path class="st6" d="M4.6-5.8h5.4L11-3.5L3.4-2.4L4.6-5.8z M10.1-5.8H4.7L3.4-2.4l7.5-1.1L10.1-5.8z"/>
							</g>
							<g>
								<path class="st6" d="M11.8-5.8l-0.9,2.3L10-5.8H11.8z M11.8-5.8h-1.7l0.8,2.2L11.8-5.8z"/>
							</g>
							<g>
								<path class="st6" d="M3.4-2.5l4.7,9.9l0,0.1L2,4.7l0,0L3.4-2.5z M3.4-2.3L2,4.7l6,2.7L3.4-2.3z"/>
							</g>
							<g>
								<path class="st6" d="M6.5,11.2L6.5,11.2l8.4,7.6l-9.5-0.2h0L6.5,11.2z M6.5,11.2l-1.1,7.3l9.3,0.2L6.5,11.2z"/>
							</g>
							<g>
								<path class="st6" d="M10.6,9.4l4.2,9.5l-8.4-7.7l0,0L10.6,9.4z M10.6,9.4l-4.1,1.7l8.2,7.5L10.6,9.4z"/>
							</g>
							<g>
								<path class="st6" d="M6.5,11.1l-1.2,7.5l-3.1-3.9l0,0L6.5,11.1z M6.5,11.2l-4.1,3.5l3,3.8L6.5,11.2z"/>
							</g>
							<g>
								<path class="st6" d="M2,4.6l4.5,6.5l0,0l-7.1-1.1l0,0L2,4.6z M2,4.7L-0.5,10l6.9,1.1L2,4.7z"/>
							</g>
							<g>
								<path class="st6" d="M8.1,7.3l2.6,2.1l-4.2,1.8L8.1,7.3z M8.1,7.4l-1.5,3.7l4-1.7L8.1,7.4z"/>
							</g>
							<g>
								<path class="st6" d="M8.1,7.4L8.1,7.4l-1.6,3.8l0,0L2,4.7l0-0.1L8.1,7.4z M8.1,7.4l-6-2.7l4.4,6.4L8.1,7.4z"/>
							</g>
						</g>
					</g>
					<circle class="st7" cx="21" cy="26.9" r="0.4"/>
					<circle class="st7" cx="17.2" cy="15.4" r="0.4"/>
					<circle class="st7" cx="12.1" cy="25.4" r="0.4"/>
					<circle class="st7" cx="23.2" cy="21.8" r="0.4"/>
					<circle class="st7" cx="22.8" cy="28" r="0.2"/>
					<circle class="st7" cx="22.3" cy="28.1" r="0.1"/>
					<circle class="st7" cx="17.5" cy="18.3" r="0.2"/>
					<circle class="st7" cx="23.1" cy="17.4" r="0.2"/>
					<circle class="st7" cx="13.5" cy="29.9" r="0.2"/>
					<circle class="st7" cx="18.7" cy="0.8" r="0.4"/>
					<circle class="st7" cx="11.3" cy="21.7" r="0.4"/>
					<circle class="st7" cx="6.8" cy="20.4" r="0.3"/>
					<circle class="st7" cx="6.6" cy="11.2" r="0.3"/>
					<circle class="st7" cx="2" cy="4.7" r="0.3"/>
					<circle class="st7" cx="8.1" cy="7.4" r="0.3"/>
					<circle class="st7" cx="11" cy="-3.5" r="0.3"/>
					<circle class="st7" cx="18.6" cy="-0.9" r="0.3"/>
					<circle class="st7" cx="13.2" cy="1" r="0.3"/>
					<circle class="st7" cx="22.4" cy="6.8" r="0.3"/>
					<circle class="st7" cx="18.6" cy="6.4" r="0.3"/>
					<circle class="st7" cx="17.8" cy="7.1" r="0.2"/>
					<circle class="st7" cx="18.6" cy="7.1" r="0.2"/>
					<circle class="st7" cx="15.1" cy="1.3" r="0.3"/>
					<circle class="st7" cx="-0.5" cy="10" r="0.3"/>
					<circle class="st7" cx="5.4" cy="18.5" r="0.3"/>
					<circle class="st7" cx="10" cy="29.8" r="0.3"/>
					<circle class="st7" cx="1.1" cy="28.5" r="0.3"/>
					<circle class="st7" cx="2.3" cy="14.7" r="0.3"/>
					<circle class="st7" cx="14.7" cy="18.9" r="0.6"/>
					<circle class="st7" cx="10.7" cy="9.5" r="0.6"/>
					<circle class="st7" cx="25.5" cy="13.3" r="0.6"/>
					<circle class="st7" cx="3.6" cy="-2.4" r="0.6"/>
				</g>
			</g>
			<rect class="st8" width="25" height="25"/>
		</g>
	</g>
</g>
</svg>
