<?xml version="1.0" encoding="utf-8"?>
<!-- Generator: Adobe Illustrator 21.0.2, SVG Export Plug-In . SVG Version: 6.00 Build 0)  -->
<svg version="1.1" id="Layer_1" xmlns="http://www.w3.org/2000/svg" xmlns:xlink="http://www.w3.org/1999/xlink" x="0px" y="0px"
	 viewBox="0 0 600 600" style="enable-background:new 0 0 600 600;" xml:space="preserve">
<style type="text/css">
	.st0{fill:url(#SVGID_1_);}
	.st1{clip-path:url(#SVGID_3_);}
	.st2{opacity:0.2443;fill:#6C6C6C;enable-background:new    ;}
	.st3{opacity:0.5761;fill:#6C6C6C;enable-background:new    ;}
	.st4{opacity:0.1811;fill:#6C6C6C;enable-background:new    ;}
	.st5{opacity:0.2475;fill:#6C6C6C;enable-background:new    ;}
	.st6{opacity:5.465100e-02;fill:#6C6C6C;enable-background:new    ;}
	.st7{opacity:0.6378;fill:#6C6C6C;enable-background:new    ;}
	.st8{opacity:0.6534;fill:#6C6C6C;enable-background:new    ;}
	.st9{opacity:0.4075;fill:#6C6C6C;enable-background:new    ;}
	.st10{opacity:0.1929;fill:#6C6C6C;enable-background:new    ;}
	.st11{opacity:0.201;fill:#6C6C6C;enable-background:new    ;}
	.st12{opacity:0.9176;fill:#6C6C6C;enable-background:new    ;}
	.st13{opacity:0.6816;fill:#6C6C6C;enable-background:new    ;}
	.st14{opacity:0.4956;fill:#6C6C6C;enable-background:new    ;}
	.st15{opacity:0.6271;fill:#6C6C6C;enable-background:new    ;}
	.st16{opacity:0.7557;fill:#6C6C6C;enable-background:new    ;}
	.st17{opacity:0.3556;fill:#6C6C6C;enable-background:new    ;}
	.st18{opacity:5.872200e-02;fill:#6C6C6C;enable-background:new    ;}
	.st19{opacity:0.5999;fill:#6C6C6C;enable-background:new    ;}
	.st20{opacity:0.7881;fill:#6C6C6C;enable-background:new    ;}
	.st21{opacity:0.397;fill:#6C6C6C;enable-background:new    ;}
	.st22{opacity:0.1352;fill:#6C6C6C;enable-background:new    ;}
	.st23{opacity:0.5835;fill:#6C6C6C;enable-background:new    ;}
	.st24{opacity:0.4081;fill:#6C6C6C;enable-background:new    ;}
	.st25{opacity:0.9412;fill:#6C6C6C;enable-background:new    ;}
	.st26{opacity:0.2255;fill:#6C6C6C;enable-background:new    ;}
	.st27{opacity:0.1251;fill:#6C6C6C;enable-background:new    ;}
	.st28{opacity:0.2913;fill:#6C6C6C;enable-background:new    ;}
	.st29{opacity:0.7893;fill:#6C6C6C;enable-background:new    ;}
	.st30{opacity:0.7612;fill:#6C6C6C;enable-background:new    ;}
	.st31{opacity:0.769;fill:#6C6C6C;enable-background:new    ;}
	.st32{opacity:0.7914;fill:#6C6C6C;enable-background:new    ;}
	.st33{opacity:0.3504;fill:#6C6C6C;enable-background:new    ;}
	.st34{opacity:0.5955;fill:#6C6C6C;enable-background:new    ;}
	.st35{opacity:0.9285;fill:#6C6C6C;enable-background:new    ;}
	.st36{opacity:0.9356;fill:#6C6C6C;enable-background:new    ;}
	.st37{opacity:0.2443;}
	.st38{fill:#363636;}
	.st39{opacity:0.5761;}
	.st40{opacity:0.1811;}
	.st41{opacity:0.6975;}
	.st42{opacity:5.465100e-02;}
	.st43{opacity:0.6378;}
	.st44{opacity:0.6534;}
	.st45{opacity:0.4075;}
	.st46{opacity:0.1929;}
	.st47{opacity:0.9176;}
	.st48{opacity:0.1984;}
	.st49{opacity:0.4956;}
	.st50{opacity:0.6271;}
	.st51{opacity:0.7557;}
	.st52{opacity:0.3556;}
	.st53{opacity:5.872200e-02;}
	.st54{opacity:0.5999;}
	.st55{opacity:0.7881;}
	.st56{opacity:0.397;}
	.st57{opacity:0.1352;}
	.st58{opacity:0.7245;}
	.st59{opacity:0.6437;}
	.st60{opacity:0.2546;}
	.st61{opacity:0.2255;}
	.st62{opacity:0.1251;}
	.st63{opacity:0.2913;}
	.st64{opacity:0.7893;}
	.st65{opacity:0.769;}
	.st66{opacity:0.7914;}
	.st67{opacity:0.7235;}
	.st68{opacity:0.3504;}
	.st69{opacity:0.5955;}
	.st70{opacity:0.9285;}
	.st71{opacity:0.9356;}
	.st72{clip-path:url(#SVGID_5_);}
	.st73{opacity:0.3;}
</style>
<g>
	<g>
		<g>
			<g>
				<g>
					
						<radialGradient id="SVGID_1_" cx="-36.5537" cy="708.3691" r="884.0566" gradientTransform="matrix(1 0 0 -1 0 602)" gradientUnits="userSpaceOnUse">
						<stop  offset="0" style="stop-color:#DEE0E1"/>
						<stop  offset="3.270373e-02" style="stop-color:#E0E2E3"/>
						<stop  offset="0.6935" style="stop-color:#FFFFFF"/>
					</radialGradient>
					<rect id="SVGID_9_" class="st0" width="600" height="600"/>
				</g>
				<g>
					<defs>
						<rect id="SVGID_2_" width="600" height="600"/>
					</defs>
					<clipPath id="SVGID_3_">
						<use xlink:href="#SVGID_2_"  style="overflow:visible;"/>
					</clipPath>
					<g class="st1">
						<g>
							<polygon id="triangle36_1778_" class="st2" points="16.9,127.1 34.6,192.7 88.5,123.8 							"/>
							<polygon id="triangle36_1777_" class="st3" points="41.5,456.7 -8.8,423.1 -5.4,433.3 							"/>
							<polygon class="st4" points="-27.1,540 -22.5,498.8 -27.1,501.5 							"/>
							<polygon id="triangle36_1776_" class="st5" points="675,60.8 569,17.7 624.6,-10.4 							"/>
							<polygon class="st6" points="-27.1,138.5 4.2,153.5 16.9,127.1 -27.1,117.7 							"/>
							<polygon id="triangle36_1775_" class="st7" points="431.5,158.5 390.2,142.3 402.7,135 							"/>
							<polygon class="st8" points="380.4,-31.3 410.8,80.8 436.9,-31.3 							"/>
							<polygon id="triangle36_1774_" class="st9" points="402.7,135 390.2,142.3 406.3,110 							"/>
							<polygon id="triangle36_1773_" class="st10" points="251.9,180.4 153.8,173.5 177.5,272.7 							"/>
							<polygon id="triangle36_1772_" class="st11" points="181.3,578.8 112.1,485.8 144,576.9 							"/>
							<polygon class="st12" points="-27.1,416.7 -5.4,433.3 -8.8,423.1 -27.1,412.5 							"/>
							<polygon class="st13" points="-27.1,582.5 49.6,616.5 25.4,572.9 -27.1,579.8 							"/>
							<polygon class="st14" points="436.9,-31.3 410.8,80.8 437.3,74.2 437.7,-31.3 							"/>
							<polygon id="triangle36_1771_" class="st15" points="112.1,485.8 41.5,456.7 79.6,404.6 							"/>
							<polygon id="triangle36_1770_" class="st16" points="-7.9,361 -8.8,423.1 79.6,404.6 							"/>
							<polygon class="st17" points="-27.1,168.3 4.2,153.5 -27.1,138.5 							"/>
							<polygon class="st18" points="-27.1,276.5 8.8,282.3 -27.1,264.8 							"/>
							<polygon id="triangle36_1769_" class="st19" points="153.8,173.5 119.2,166 91.5,212.7 							"/>
							<polygon id="triangle36_1768_" class="st20" points="153.8,173.5 138.1,246.7 91.5,212.7 							"/>
							<polygon id="triangle36_1767_" class="st21" points="119.2,166 72.9,213.8 91.5,212.7 							"/>
							<polygon id="triangle36_1766_" class="st22" points="72.9,213.8 118.1,287.5 91.5,212.7 							"/>
							<polygon id="triangle36_1765_" class="st23" points="569,17.7 497.9,36.3 524.4,-9.6 							"/>
							<polygon class="st24" points="237.7,-31.3 209,-2.5 254.6,60.2 272.5,-31.3 							"/>
							<polygon class="st25" points="67.1,-31.3 47.9,30.8 132.1,1.5 111.5,-31.3 							"/>
							<polygon id="triangle36_1764_" class="st26" points="410.8,80.8 406.3,110 365,89.2 							"/>
							<polygon id="triangle36_1763_" class="st27" points="406.3,110 390.2,142.3 365,89.2 							"/>
							<polygon id="triangle36_1762_" class="st28" points="390.2,142.3 339,168.8 365,89.2 							"/>
							<polygon id="triangle36_1761_" class="st29" points="254.6,60.2 240.2,97.7 365,89.2 							"/>
							<polygon class="st30" points="511.7,-31.3 514.2,-20 512.9,-31.3 							"/>
							<polygon id="triangle36_1760_" class="st31" points="497.9,36.3 437.3,74.2 493.5,105.8 							"/>
							<polygon id="triangle36_1759_" class="st32" points="433.5,161.5 431.5,158.5 493.5,105.8 							"/>
							<polygon id="triangle36_1758_" class="st33" points="41.5,456.7 -22.5,498.8 1,444.4 							"/>
							<polygon id="triangle36_1757_" class="st34" points="-5.4,433.3 -22.5,498.8 1,444.4 							"/>
							<polygon id="triangle36_1756_" class="st35" points="153.8,173.5 119.2,166 136.7,162.5 							"/>
							<polygon id="triangle36_1755_" class="st36" points="240.2,97.7 153.8,173.5 136.7,162.5 							"/>
						</g>
						<g>
							<polygon id="triangle36_1754_" class="st2" points="16.9,127.1 34.6,192.7 88.5,123.8 							"/>
							<polygon id="triangle36_1753_" class="st3" points="41.5,456.7 -8.8,423.1 -5.4,433.3 							"/>
							<polygon class="st4" points="-27.1,540 -22.5,498.8 -27.1,501.5 							"/>
							<polygon id="triangle36_1752_" class="st5" points="675,60.8 569,17.7 624.6,-10.4 							"/>
							<polygon class="st6" points="-27.1,138.5 4.2,153.5 16.9,127.1 -27.1,117.7 							"/>
							<polygon id="triangle36_1751_" class="st7" points="431.5,158.5 390.2,142.3 402.7,135 							"/>
							<polygon class="st8" points="380.4,-31.3 410.8,80.8 436.9,-31.3 							"/>
							<polygon id="triangle36_1750_" class="st9" points="402.7,135 390.2,142.3 406.3,110 							"/>
							<polygon id="triangle36_1749_" class="st10" points="251.9,180.4 153.8,173.5 177.5,272.7 							"/>
							<polygon id="triangle36_1748_" class="st11" points="181.3,578.8 112.1,485.8 144,576.9 							"/>
							<polygon class="st12" points="-27.1,416.7 -5.4,433.3 -8.8,423.1 -27.1,412.5 							"/>
							<polygon class="st13" points="-27.1,582.5 49.6,616.5 25.4,572.9 -27.1,579.8 							"/>
							<polygon class="st14" points="436.9,-31.3 410.8,80.8 437.3,74.2 437.7,-31.3 							"/>
							<polygon id="triangle36_1747_" class="st15" points="112.1,485.8 41.5,456.7 79.6,404.6 							"/>
							<polygon id="triangle36_1746_" class="st16" points="-7.9,361 -8.8,423.1 79.6,404.6 							"/>
							<polygon class="st17" points="-27.1,168.3 4.2,153.5 -27.1,138.5 							"/>
							<polygon class="st18" points="-27.1,276.5 8.8,282.3 -27.1,264.8 							"/>
							<polygon id="triangle36_1745_" class="st19" points="153.8,173.5 119.2,166 91.5,212.7 							"/>
							<polygon id="triangle36_1744_" class="st20" points="153.8,173.5 138.1,246.7 91.5,212.7 							"/>
							<polygon id="triangle36_1743_" class="st21" points="119.2,166 72.9,213.8 91.5,212.7 							"/>
							<polygon id="triangle36_1742_" class="st22" points="72.9,213.8 118.1,287.5 91.5,212.7 							"/>
							<polygon id="triangle36_1741_" class="st23" points="569,17.7 497.9,36.3 524.4,-9.6 							"/>
							<polygon class="st24" points="237.7,-31.3 209,-2.5 254.6,60.2 272.5,-31.3 							"/>
							<polygon class="st25" points="67.1,-31.3 47.9,30.8 132.1,1.5 111.5,-31.3 							"/>
							<polygon id="triangle36_1740_" class="st26" points="410.8,80.8 406.3,110 365,89.2 							"/>
							<polygon id="triangle36_1739_" class="st27" points="406.3,110 390.2,142.3 365,89.2 							"/>
							<polygon id="triangle36_1738_" class="st28" points="390.2,142.3 339,168.8 365,89.2 							"/>
							<polygon id="triangle36_1737_" class="st29" points="254.6,60.2 240.2,97.7 365,89.2 							"/>
							<polygon class="st30" points="511.7,-31.3 514.2,-20 512.9,-31.3 							"/>
							<polygon id="triangle36_1736_" class="st31" points="497.9,36.3 437.3,74.2 493.5,105.8 							"/>
							<polygon id="triangle36_1735_" class="st32" points="433.5,161.5 431.5,158.5 493.5,105.8 							"/>
							<polygon id="triangle36_1734_" class="st33" points="41.5,456.7 -22.5,498.8 1,444.4 							"/>
							<polygon id="triangle36_1733_" class="st34" points="-5.4,433.3 -22.5,498.8 1,444.4 							"/>
							<polygon id="triangle36_1732_" class="st35" points="153.8,173.5 119.2,166 136.7,162.5 							"/>
							<polygon id="triangle36_1731_" class="st36" points="240.2,97.7 153.8,173.5 136.7,162.5 							"/>
						</g>
						<g>
							<g id="triangle36_1730_" class="st37">
								<path class="st38" d="M91.3,130.4L68.8,47.1l91.3-4.2L91.3,130.4z M70.4,48.3l21.5,79.4l65.4-83.3L70.4,48.3z"/>
							</g>
							<g id="triangle36_1729_" class="st39">
								<path class="st38" d="M99.8,457.7l-58.3-29.2L36.7,414l63.8,42.7L99.8,457.7z M42.5,427.7l48.8,24.4l-52.3-35L42.5,427.7z"
									/>
							</g>
							<g class="st40">
								<path class="st38" d="M10,612.1l-37.7-30.6v-44.4l0.4-0.2l48.8-28.5L10,612.1z M-26.5,581L9,609.8l11-99l-46.3,27.3V581
									H-26.5z"/>
							</g>
							<g id="triangle36_1728_" class="st41">
								<path class="st38" d="M523.1,153.3l10-87.5l52.7,20.6L523.1,153.3z M534.2,67.5l-9.4,82.1l58.8-62.7L534.2,67.5z"/>
							</g>
							<g class="st42">
								<path class="st38" d="M54.2,81.3l-81.9-39.4v-16l98.3,21.3L54.2,81.3z M-26.5,41l80,38.3l15.2-31.3l-95.2-20.6
									C-26.5,27.5-26.5,41-26.5,41z"/>
							</g>
							<g id="triangle36_1727_" class="st43">
								<path class="st38" d="M588.3,88.8l-56-22.1l16.9-10l0.4,0.2L588.3,88.8z M535.2,66.5l46,18.1L549,58.3L535.2,66.5z"/>
							</g>
							<g class="st44">
								<path class="st38" d="M559.2-7.3l-6.7-24.6h12.3L559.2-7.3z M554.2-30.6l5,18.1l4.2-18.1H554.2z"/>
							</g>
							<g id="triangle36_1726_" class="st45">
								<path class="st38" d="M532.1,68.3l22.7-45.8l-5.2,35.4L532.1,68.3z M552.3,30.4L535.2,65l13.1-7.9L552.3,30.4z"/>
							</g>
							<g id="triangle36_1725_" class="st46">
								<path class="st38" d="M269,230l-30-125.4h0.8l123.1,8.5L269,230z M240.6,106l29,121l90.8-112.7L240.6,106z"/>
							</g>
							<g id="triangle36_1724_" class="st47">
								<path class="st38" d="M43.1,430l-56.5-43.3l0.6-1l51,29.6L43.1,430z M-4.6,391.7l45.4,34.8L37.5,416L-4.6,391.7z"/>
							</g>
							<g class="st48">
								<path class="st38" d="M-11.7,386.9l-16-3.3v-23.1L-11.7,386.9z M-26.5,382.5l12.3,2.5l-12.3-20.2V382.5z"/>
							</g>
							<g class="st49">
								<path class="st38" d="M558.3-9l5.2-22.9h29.2v14.2L558.3-9z M564.6-30.6L560-10.8l31.5-7.9v-11.9H564.6z"/>
							</g>
							<g id="triangle36_1723_" class="st50">
								<path class="st38" d="M189.2,494.6l-90-37.1l48.8-66.5l0.4,1L189.2,494.6z M101,456.9l85.6,35.2l-39.4-98.5L101,456.9z"/>
							</g>
							<g id="triangle36_1722_" class="st51">
								<path class="st38" d="M37.1,416.5l1-79.2l111.5,55.2L37.1,416.5z M39.4,339.4l-1,75.4l107.5-22.7L39.4,339.4z"/>
							</g>
							<g class="st52">
								<path class="st38" d="M-27.7,119.6v-79l83.1,40L-27.7,119.6z M-26.5,42.5v75l78.8-37.1L-26.5,42.5z"/>
							</g>
							<g class="st53">
								<path class="st38" d="M63.8,241.7l-91.5-14.8v-29.6L63.8,241.7z M-26.5,225.8l81.9,13.3l-81.9-39.8
									C-26.5,199.4-26.5,225.8-26.5,225.8z"/>
							</g>
							<g id="triangle36_1721_" class="st54">
								<path class="st38" d="M160.4,155.8l36-60.8h0.4l44.4,9.8L160.4,155.8z M197.1,96.7l-32.9,55.4l74-46.5L197.1,96.7z"/>
							</g>
							<g id="triangle36_1720_" class="st55">
								<path class="st38" d="M220.8,197.3L161.3,154l0.8-0.4l78.8-49.4l-0.4,1.5L220.8,197.3z M163.5,154l56.5,41l19-88.3
									L163.5,154z"/>
							</g>
							<g id="triangle36_1719_" class="st56">
								<path class="st38" d="M137.7,156l62.5-64.6l-37.5,63.1L137.7,156z M193.5,100.2l-52.7,54.4l21-1.3L193.5,100.2z"/>
							</g>
							<g id="triangle36_1718_" class="st57">
								<path class="st38" d="M198.1,252.5l-59.8-97.7l24.6-1.5L198.1,252.5z M140.4,155.8l52.3,85.4l-30.8-86.7L140.4,155.8z"/>
							</g>
							<g id="triangle36_1717_" class="st58">
								<path class="st38" d="M524.6,152.9L469,99.4l65.6-33.8L524.6,152.9z M471,99.6l52.5,50.4l9.4-82.3L471,99.6z"/>
							</g>
							<g id="triangle36_1716_" class="st59">
								<path class="st38" d="M526.3,152.7l-48.7-13.5v-0.4L469,97.5L526.3,152.7z M478.5,138.1l43.1,12.1l-50.8-48.8L478.5,138.1z"
									/>
							</g>
							<g class="st60">
								<path class="st38" d="M-27.7,538.8v-59.4l49.6,30L-27.7,538.8z M-26.5,481.9v54.8l45.8-27.1L-26.5,481.9z"/>
							</g>
							<g id="triangle36_1715_" class="st61">
								<path class="st38" d="M554.2,27.5l-54-27.3L560-10.6L554.2,27.5z M504.2,0.6l49,24.8l5.2-34.6L504.2,0.6z"/>
							</g>
							<g id="triangle36_1714_" class="st62">
								<path class="st38" d="M533.8,68.1L500.8-1L554.4,26L533.8,68.1z M503.5,1.9l30.2,63.3l19-38.3L503.5,1.9z"/>
							</g>
							<g id="triangle36_1713_" class="st63">
								<path class="st38" d="M469,100.8L502.1-1.2l32.5,68.1L469,100.8z M502.3,2.1l-31.3,96l61.9-31.9L502.3,2.1z"/>
							</g>
							<g class="st64">
								<path class="st38" d="M346.3,11.9l16.9-43.8H381L506.3,0.8L346.3,11.9z M364-30.6l-15.8,41l150-10.2L380.6-30.4H364V-30.6z"
									/>
							</g>
							<g class="st65">
								<path class="st38" d="M662.7,22.3l-71.9-40.4l22.1-13.7H666L662.7,22.3z M593.3-18.1l68.1,38.3l3.1-50.8h-51.5L593.3-18.1z"
									/>
							</g>
							<g id="triangle36_1712_" class="st66">
								<path class="st38" d="M587.3,91.3l-3.3-4.8l77.7-65.8l0.8,1L587.3,91.3z M585.6,86.9l1.9,2.5L640,40.6L585.6,86.9z"/>
							</g>
							<g id="triangle36_1711_" class="st67">
								<path class="st38" d="M465,186.9l12.7-49.2l21.7,17.9L465,186.9z M478.3,139.8l-11,43.1l30-27.5L478.3,139.8z"/>
							</g>
							<g id="triangle36_1710_" class="st68">
								<path class="st38" d="M19.2,511.3L49.6,441l51.9,15.8L19.2,511.3z M50.4,442.7l-28.3,65.2l76.5-50.4L50.4,442.7z"/>
							</g>
							<g id="triangle36_1709_" class="st69">
								<path class="st38" d="M21.3,509.8l-1.3-0.4l21.7-82.9l9,15.4l-0.2,0.2L21.3,509.8z M42.3,429.8l-18.8,71.9l25.8-59.8
									L42.3,429.8z"/>
							</g>
							<g id="triangle36_1708_" class="st70">
								<path class="st38" d="M243.1,106.7l-49.4-10.8l25-5L243.1,106.7z M200,95.8l36.5,8.1l-18.1-11.7L200,95.8z"/>
							</g>
							<g id="triangle36_1707_" class="st71">
								<path class="st38" d="M239.8,106.3l-22.5-14.6l129.6-81l0.8,1L239.8,106.3z M219.8,91.7l20,12.9L341,15.8L219.8,91.7z"/>
							</g>
						</g>
						<g>
							<ellipse transform="matrix(0.8201 -0.5722 0.5722 0.8201 -54.9184 72.9191)" cx="88.5" cy="123.8" rx="2.3" ry="2.3"/>
							<ellipse transform="matrix(0.8203 -0.572 0.572 0.8203 -103.9963 54.4351)" cx="34.6" cy="192.7" rx="2.3" ry="2.3"/>
							<ellipse transform="matrix(0.8202 -0.572 0.572 0.8202 -69.6857 32.4762)" cx="16.8" cy="127.1" rx="2.3" ry="2.3"/>
							<ellipse transform="matrix(0.8203 -0.572 0.572 0.8203 -248.8486 74.7961)" cx="-5.4" cy="433.4" rx="2.3" ry="2.3"/>
							<ellipse transform="matrix(0.8202 -0.572 0.572 0.8202 -243.6275 71.0339)" cx="-8.8" cy="423.1" rx="2.3" ry="2.3"/>
							<ellipse transform="matrix(0.82 -0.5724 0.5724 0.82 -253.9319 105.9173)" cx="41.4" cy="456.6" rx="2.3" ry="2.3"/>
							<ellipse transform="matrix(0.82 -0.5724 0.5724 0.82 -289.5406 76.8678)" cx="-22.6" cy="498.8" rx="2.3" ry="2.3"/>
							<ellipse transform="matrix(0.8202 -0.5721 0.5721 0.8202 118.253 355.4999)" cx="624.7" cy="-10.4" rx="2.3" ry="2.3"/>
							<ellipse transform="matrix(0.8202 -0.5721 0.5721 0.8202 92.1361 328.7149)" cx="569" cy="17.8" rx="2.3" ry="2.3"/>
							<ellipse transform="matrix(0.8201 -0.5722 0.5722 0.8201 86.6294 397.1806)" cx="675" cy="60.8" rx="2.3" ry="2.3"/>
							<ellipse transform="matrix(0.8197 -0.5727 0.5727 0.8197 -11.2143 249.1121)" cx="390.1" cy="142.4" rx="2.3" ry="2.3"/>
							<ellipse transform="matrix(0.8201 -0.5723 0.5723 0.8201 -13.0731 275.4482)" cx="431.5" cy="158.5" rx="2.3" ry="2.3"/>
							<ellipse transform="matrix(0.8201 -0.5722 0.5722 0.8201 -87.0907 30.0172)" cx="4.2" cy="153.5" rx="2.3" ry="2.3"/>
							<ellipse transform="matrix(0.8202 -0.572 0.572 0.8202 -69.6857 32.4762)" cx="16.8" cy="127.1" rx="2.3" ry="2.3"/>
							<ellipse transform="matrix(0.8204 -0.5718 0.5718 0.8204 -4.8564 254.4855)" cx="402.7" cy="135" rx="2.3" ry="2.3"/>
							<ellipse transform="matrix(0.8197 -0.5727 0.5727 0.8197 -11.2143 249.1121)" cx="390.1" cy="142.4" rx="2.3" ry="2.3"/>
							<ellipse transform="matrix(0.8201 -0.5723 0.5723 0.8201 -13.0731 275.4482)" cx="431.5" cy="158.5" rx="2.3" ry="2.3"/>
							<ellipse transform="matrix(0.8206 -0.5716 0.5716 0.8206 27.5463 249.3383)" cx="410.9" cy="80.8" rx="2.3" ry="2.3"/>
							<ellipse transform="matrix(0.8202 -0.572 0.572 0.8202 10.0644 252.1469)" cx="406.2" cy="110.1" rx="2.3" ry="2.3"/>
							<ellipse transform="matrix(0.8197 -0.5727 0.5727 0.8197 -11.2143 249.1121)" cx="390.1" cy="142.4" rx="2.3" ry="2.3"/>
							<ellipse transform="matrix(0.8204 -0.5718 0.5718 0.8204 -4.8564 254.4855)" cx="402.7" cy="135" rx="2.3" ry="2.3"/>
							<ellipse transform="matrix(0.8201 -0.5722 0.5722 0.8201 86.6294 397.1806)" cx="675" cy="60.8" rx="2.3" ry="2.3"/>
							<ellipse transform="matrix(0.82 -0.5724 0.5724 0.82 -124.1748 150.6958)" cx="177.5" cy="272.8" rx="2.3" ry="2.3"/>
							<ellipse transform="matrix(0.8202 -0.572 0.572 0.8202 -71.6514 119.1447)" cx="153.7" cy="173.6" rx="2.3" ry="2.3"/>
							<ellipse transform="matrix(0.8202 -0.572 0.572 0.8202 -57.9422 176.5112)" cx="251.9" cy="180.4" rx="2.3" ry="2.3"/>
							<ellipse transform="matrix(0.8203 -0.5719 0.5719 0.8203 -326.4599 181.3681)" cx="125.4" cy="610.3" rx="2.3" ry="2.3"/>
							<ellipse transform="matrix(0.8204 -0.5718 0.5718 0.8204 -303.9958 185.9052)" cx="143.9" cy="576.9" rx="2.3" ry="2.3"/>
							<ellipse transform="matrix(0.8202 -0.572 0.572 0.8202 -257.7469 151.4539)" cx="112.1" cy="485.8" rx="2.3" ry="2.3"/>
							<ellipse transform="matrix(0.8205 -0.5716 0.5716 0.8205 -298.2979 207.4796)" cx="181.2" cy="578.8" rx="2.3" ry="2.3"/>
							<ellipse transform="matrix(0.8203 -0.572 0.572 0.8203 -248.8486 74.7961)" cx="-5.4" cy="433.4" rx="2.3" ry="2.3"/>
							<ellipse transform="matrix(0.8202 -0.572 0.572 0.8202 -243.6275 71.0339)" cx="-8.8" cy="423.1" rx="2.3" ry="2.3"/>
							<ellipse transform="matrix(0.8199 -0.5725 0.5725 0.8199 -344.021 139.3769)" cx="49.5" cy="616.5" rx="2.3" ry="2.3"/>
							<ellipse transform="matrix(0.8204 -0.5717 0.5717 0.8204 -323.0058 117.3688)" cx="25.4" cy="572.9" rx="2.3" ry="2.3"/>
							<ellipse transform="matrix(0.8199 -0.5725 0.5725 0.8199 -344.021 139.3769)" cx="49.5" cy="616.5" rx="2.3" ry="2.3"/>
							<ellipse transform="matrix(0.8205 -0.5717 0.5717 0.8205 32.1169 351.4995)" cx="575.7" cy="124.6" rx="2.3" ry="2.3"/>
							<ellipse transform="matrix(0.8205 -0.5717 0.5717 0.8205 32.1169 351.4995)" cx="575.7" cy="124.6" rx="2.3" ry="2.3"/>
							<ellipse transform="matrix(0.8205 -0.5717 0.5717 0.8205 32.1169 351.4995)" cx="575.7" cy="124.6" rx="2.3" ry="2.3"/>
							<ellipse transform="matrix(0.8202 -0.572 0.572 0.8202 36.1796 263.468)" cx="437.3" cy="74.2" rx="2.3" ry="2.3"/>
							<ellipse transform="matrix(0.8206 -0.5716 0.5716 0.8206 27.5463 249.3383)" cx="410.9" cy="80.8" rx="2.3" ry="2.3"/>
							<ellipse transform="matrix(0.82 -0.5724 0.5724 0.82 -217.2702 118.4264)" cx="79.6" cy="404.6" rx="2.3" ry="2.3"/>
							<ellipse transform="matrix(0.82 -0.5724 0.5724 0.82 -253.9319 105.9173)" cx="41.4" cy="456.6" rx="2.3" ry="2.3"/>
							<ellipse transform="matrix(0.8202 -0.572 0.572 0.8202 -257.7469 151.4539)" cx="112.1" cy="485.8" rx="2.3" ry="2.3"/>
							<ellipse transform="matrix(0.82 -0.5724 0.5724 0.82 -217.2702 118.4264)" cx="79.6" cy="404.6" rx="2.3" ry="2.3"/>
							<ellipse transform="matrix(0.8202 -0.572 0.572 0.8202 -243.6275 71.0339)" cx="-8.8" cy="423.1" rx="2.3" ry="2.3"/>
							<ellipse transform="matrix(0.8201 -0.5722 0.5722 0.8201 -208.0083 60.4265)" cx="-7.9" cy="361" rx="2.3" ry="2.3"/>
							<ellipse transform="matrix(0.8201 -0.5722 0.5722 0.8201 -87.0907 30.0172)" cx="4.2" cy="153.5" rx="2.3" ry="2.3"/>
							<ellipse transform="matrix(0.8201 -0.5723 0.5723 0.8201 -159.953 55.8131)" cx="8.8" cy="282.3" rx="2.3" ry="2.3"/>
							<ellipse transform="matrix(0.8198 -0.5727 0.5727 0.8198 -105.3373 90.7282)" cx="91.5" cy="212.7" rx="2.3" ry="2.3"/>
							<ellipse transform="matrix(0.82 -0.5723 0.5723 0.82 -73.5845 98.1242)" cx="119.2" cy="166.1" rx="2.3" ry="2.3"/>
							<ellipse transform="matrix(0.8202 -0.572 0.572 0.8202 -71.6514 119.1447)" cx="153.7" cy="173.6" rx="2.3" ry="2.3"/>
							<ellipse transform="matrix(0.8198 -0.5727 0.5727 0.8198 -105.3373 90.7282)" cx="91.5" cy="212.7" rx="2.3" ry="2.3"/>
							<ellipse transform="matrix(0.8198 -0.5726 0.5726 0.8198 -116.3768 123.5511)" cx="138.1" cy="246.7" rx="2.3" ry="2.3"/>
							<ellipse transform="matrix(0.8202 -0.572 0.572 0.8202 -71.6514 119.1447)" cx="153.7" cy="173.6" rx="2.3" ry="2.3"/>
							<ellipse transform="matrix(0.8198 -0.5727 0.5727 0.8198 -105.3373 90.7282)" cx="91.5" cy="212.7" rx="2.3" ry="2.3"/>
							<ellipse transform="matrix(0.8202 -0.5721 0.5721 0.8202 -109.1976 80.1493)" cx="72.9" cy="213.8" rx="2.3" ry="2.3"/>
							<ellipse transform="matrix(0.82 -0.5723 0.5723 0.82 -73.5845 98.1242)" cx="119.2" cy="166.1" rx="2.3" ry="2.3"/>
							<ellipse transform="matrix(0.8198 -0.5727 0.5727 0.8198 -105.3373 90.7282)" cx="91.5" cy="212.7" rx="2.3" ry="2.3"/>
							<ellipse transform="matrix(0.8203 -0.5719 0.5719 0.8203 -143.1805 119.2288)" cx="118.2" cy="287.5" rx="2.3" ry="2.3"/>
							<ellipse transform="matrix(0.8202 -0.5721 0.5721 0.8202 -109.1976 80.1493)" cx="72.9" cy="213.8" rx="2.3" ry="2.3"/>
							<ellipse transform="matrix(0.8205 -0.5716 0.5716 0.8205 99.5865 298.0436)" cx="524.4" cy="-9.6" rx="2.3" ry="2.3"/>
							<ellipse transform="matrix(0.8202 -0.572 0.572 0.8202 68.7645 291.3457)" cx="497.9" cy="36.3" rx="2.3" ry="2.3"/>
							<ellipse transform="matrix(0.8202 -0.5721 0.5721 0.8202 92.1361 328.7149)" cx="569" cy="17.8" rx="2.3" ry="2.3"/>
							<ellipse transform="matrix(0.8202 -0.572 0.572 0.8202 -35.6372 224.215)" cx="338.9" cy="168.8" rx="2.3" ry="2.3"/>
							<ellipse transform="matrix(0.8197 -0.5727 0.5727 0.8197 -11.2143 249.1121)" cx="390.1" cy="142.4" rx="2.3" ry="2.3"/>
							<ellipse transform="matrix(0.8202 -0.572 0.572 0.8202 -35.6372 224.215)" cx="338.9" cy="168.8" rx="2.3" ry="2.3"/>
							<ellipse transform="matrix(0.8201 -0.5722 0.5722 0.8201 39.0001 119.107)" cx="208.9" cy="-2.5" rx="2.3" ry="2.3"/>
							<ellipse transform="matrix(0.8202 -0.572 0.572 0.8202 11.2856 156.43)" cx="254.5" cy="60.3" rx="2.3" ry="2.3"/>
							<ellipse transform="matrix(0.8203 -0.5719 0.5719 0.8203 -9.0455 32.9693)" cx="47.9" cy="30.9" rx="2.3" ry="2.3"/>
							<ellipse transform="matrix(0.8203 -0.5719 0.5719 0.8203 22.9143 75.7996)" cx="132.1" cy="1.4" rx="2.3" ry="2.3"/>
							<ellipse transform="matrix(0.82 -0.5724 0.5724 0.82 -289.5406 76.8678)" cx="-22.6" cy="498.8" rx="2.3" ry="2.3"/>
							<ellipse transform="matrix(0.8203 -0.5719 0.5719 0.8203 14.6105 224.7652)" cx="365" cy="89.1" rx="2.3" ry="2.3"/>
							<ellipse transform="matrix(0.8202 -0.572 0.572 0.8202 10.0644 252.1469)" cx="406.2" cy="110.1" rx="2.3" ry="2.3"/>
							<ellipse transform="matrix(0.8206 -0.5716 0.5716 0.8206 27.5463 249.3383)" cx="410.9" cy="80.8" rx="2.3" ry="2.3"/>
							<ellipse transform="matrix(0.8203 -0.5719 0.5719 0.8203 14.6105 224.7652)" cx="365" cy="89.1" rx="2.3" ry="2.3"/>
							<ellipse transform="matrix(0.8197 -0.5727 0.5727 0.8197 -11.2143 249.1121)" cx="390.1" cy="142.4" rx="2.3" ry="2.3"/>
							<ellipse transform="matrix(0.8202 -0.572 0.572 0.8202 10.0644 252.1469)" cx="406.2" cy="110.1" rx="2.3" ry="2.3"/>
							<ellipse transform="matrix(0.8203 -0.5719 0.5719 0.8203 14.6105 224.7652)" cx="365" cy="89.1" rx="2.3" ry="2.3"/>
							<ellipse transform="matrix(0.8202 -0.572 0.572 0.8202 -35.6372 224.215)" cx="338.9" cy="168.8" rx="2.3" ry="2.3"/>
							<ellipse transform="matrix(0.8197 -0.5727 0.5727 0.8197 -11.2143 249.1121)" cx="390.1" cy="142.4" rx="2.3" ry="2.3"/>
							<ellipse transform="matrix(0.8203 -0.5719 0.5719 0.8203 14.6105 224.7652)" cx="365" cy="89.1" rx="2.3" ry="2.3"/>
							<ellipse transform="matrix(0.8201 -0.5722 0.5722 0.8201 -12.7102 155.0395)" cx="240.2" cy="97.7" rx="2.3" ry="2.3"/>
							<ellipse transform="matrix(0.8202 -0.572 0.572 0.8202 11.2856 156.43)" cx="254.5" cy="60.3" rx="2.3" ry="2.3"/>
							<ellipse transform="matrix(0.8205 -0.5716 0.5716 0.8205 103.6955 290.2793)" cx="514.1" cy="-20" rx="2.3" ry="2.3"/>
							<ellipse transform="matrix(0.8202 -0.572 0.572 0.8202 28.1628 301.3482)" cx="493.5" cy="105.9" rx="2.3" ry="2.3"/>
							<ellipse transform="matrix(0.8202 -0.572 0.572 0.8202 36.1796 263.468)" cx="437.3" cy="74.2" rx="2.3" ry="2.3"/>
							<ellipse transform="matrix(0.8202 -0.572 0.572 0.8202 68.7645 291.3457)" cx="497.9" cy="36.3" rx="2.3" ry="2.3"/>
							<ellipse transform="matrix(0.8202 -0.572 0.572 0.8202 28.1628 301.3482)" cx="493.5" cy="105.9" rx="2.3" ry="2.3"/>
							<ellipse transform="matrix(0.8201 -0.5723 0.5723 0.8201 -13.0731 275.4482)" cx="431.5" cy="158.5" rx="2.3" ry="2.3"/>
							<ellipse transform="matrix(0.8202 -0.5721 0.5721 0.8202 -14.3953 277.0518)" cx="433.5" cy="161.4" rx="2.3" ry="2.3"/>
							<ellipse transform="matrix(0.8202 -0.572 0.572 0.8202 -254.0053 80.4756)" cx="1" cy="444.4" rx="2.3" ry="2.3"/>
							<ellipse transform="matrix(0.82 -0.5724 0.5724 0.82 -289.5406 76.8678)" cx="-22.6" cy="498.8" rx="2.3" ry="2.3"/>
							<ellipse transform="matrix(0.82 -0.5724 0.5724 0.82 -253.9319 105.9173)" cx="41.4" cy="456.6" rx="2.3" ry="2.3"/>
							<ellipse transform="matrix(0.8202 -0.572 0.572 0.8202 -254.0053 80.4756)" cx="1" cy="444.4" rx="2.3" ry="2.3"/>
							<ellipse transform="matrix(0.82 -0.5724 0.5724 0.82 -289.5406 76.8678)" cx="-22.6" cy="498.8" rx="2.3" ry="2.3"/>
							<ellipse transform="matrix(0.8203 -0.572 0.572 0.8203 -248.8486 74.7961)" cx="-5.4" cy="433.4" rx="2.3" ry="2.3"/>
							<ellipse transform="matrix(0.8203 -0.572 0.572 0.8203 -68.3884 107.4049)" cx="136.7" cy="162.5" rx="2.3" ry="2.3"/>
							<ellipse transform="matrix(0.82 -0.5723 0.5723 0.82 -73.5845 98.1242)" cx="119.2" cy="166.1" rx="2.3" ry="2.3"/>
							<ellipse transform="matrix(0.8202 -0.572 0.572 0.8202 -71.6514 119.1447)" cx="153.7" cy="173.6" rx="2.3" ry="2.3"/>
							<ellipse transform="matrix(0.8203 -0.572 0.572 0.8203 -68.3884 107.4049)" cx="136.7" cy="162.5" rx="2.3" ry="2.3"/>
							<ellipse transform="matrix(0.8202 -0.572 0.572 0.8202 -71.6514 119.1447)" cx="153.7" cy="173.6" rx="2.3" ry="2.3"/>
							<ellipse transform="matrix(0.8201 -0.5722 0.5722 0.8201 -12.7102 155.0395)" cx="240.2" cy="97.7" rx="2.3" ry="2.3"/>
						</g>
					</g>
				</g>
				<g>
					<defs>
						<rect id="SVGID_4_" width="600" height="600"/>
					</defs>
					<clipPath id="SVGID_5_">
						<use xlink:href="#SVGID_4_"  style="overflow:visible;"/>
					</clipPath>
					<g class="st72">
						<g id="triangle36_1706_" class="st73">
							<path class="st38" d="M477.3,191.7l-0.6-2.5L417.3-30L522.7-3.7l-0.2,0.6L477.3,191.7z M419.2-28.1l58.1,214.6l44-189.2
								L419.2-28.1z"/>
						</g>
						<g id="triangle36_1705_" class="st73">
							<path class="st38" d="M89.6,509.2l-40-166.9h0.8l164.2,11.5l-0.8,1L89.6,509.2z M51.5,343.8l39,162.5L212.3,355L51.5,343.8z"
								/>
						</g>
						<g id="triangle36_1704_" class="st73">
							<path class="st38" d="M476.5,190l46-198.8l-0.6,187.5L476.5,190z M521.3,2.5l-43.1,185.8l42.5-10.6L521.3,2.5z"/>
						</g>
						<g class="st73">
							<path class="st38" d="M-15.2,385.2v-41.9l8.1-13.5h0.4l59,12.9L-15.2,385.2z M-14,343.5v39.2L49,343.3l-55.4-12.1L-14,343.5z
								"/>
						</g>
						<g class="st73">
							<path class="st38" d="M25,465.6l-40.2-29.4v-52.7l0.2-0.2l66.5-41.7l-0.4,1.5L25,465.6z M-14,435.6l38.1,27.7l25.4-119
								L-14,384.2C-14,384.2-14,435.6-14,435.6z"/>
						</g>
						<g class="st73">
							<path class="st38" d="M-15.2,345.8v-7.5l11.7-12.1L-15.2,345.8z M-14,338.8v2.5l3.8-6.3L-14,338.8z"/>
						</g>
						<g class="st73">
							<path class="st38" d="M-6,537.7l-9.2-15v-10.8L-6,537.7z M-14,522.5l2.5,4.2l-2.5-7.3V522.5z"/>
						</g>
						<g class="st73">
							<path class="st38" d="M218.3,156.7L141.5,50.8l0.4-0.4l94.8-94.8h21l-0.2,0.8L218.3,156.7z M143.1,50.8l74.6,102.5L256-43.3
								h-19L143.1,50.8z"/>
						</g>
						<g class="st73">
							<path class="st38" d="M-15.2,68.3V8.8l30.6,49L-15.2,68.3z M-14,13.3v53.3l27.5-9.6L-14,13.3z"/>
						</g>
						<g id="triangle36_1703_" class="st73">
							<path class="st38" d="M470.4,238.5l-71.3-36l79-14.4L470.4,238.5z M403.1,203.1l66.3,33.5l7.1-46.9L403.1,203.1z"/>
						</g>
						<g id="triangle36_1702_" class="st73">
							<path class="st38" d="M193.1,217.9l24.4-63.7l0.6,0.2l187.1,49L193.1,217.9z M218.3,155.8L195,216.5l202.1-14L218.3,155.8z"
								/>
						</g>
						<g class="st73">
							<path class="st38" d="M418.8-27.9L391-44.4h30.4L418.8-27.9z M395.6-43.1L417.7-30l2.1-13.1H395.6z"/>
						</g>
						<g class="st73">
							<path class="st38" d="M609,228.1l-1-0.6L520,178.1l89-55.6V228.1z M522.5,177.9l85.2,47.9v-101L522.5,177.9z"/>
						</g>
						<g id="triangle36_1701_" class="st73">
							<path class="st38" d="M53.8,344.6L-10,330.4l32.3-6.5L53.8,344.6z M-3.8,330.4l51,11.2l-25.2-16.5L-3.8,330.4z"/>
						</g>
						<g id="triangle36_1700_" class="st73">
							<path class="st38" d="M50.6,344L21,324.8l172.7-108.1l0.8,1L50.6,344z M23.3,324.6l27.1,17.7l137.3-120.4L23.3,324.6z"/>
						</g>
					</g>
				</g>
			</g>
		</g>
	</g>
</g>
</svg>
