<?xml version="1.0" encoding="UTF-8"?>
<svg data-name="Layer 1" viewBox="0 0 288 185.87" xmlns="http://www.w3.org/2000/svg">
<title>LOGOPRETOSVG</title>
<path transform="translate(-7 -51.13)" d="M64,220V203h3.5c1.9,0,3.5.5,3.5,1,0,.7.6.7,1.9,0,6.2-3.3,14.8.6,17.1,7.6,3.4,10.3-6.8,20.6-15.9,16.1L71,226.2V237H64Zm18,0c3.5-3.5,2.5-8.1-2.1-9.9-4.1-1.5-7.3.6-7.7,5.1C71.7,221.1,77.8,224.2,82,220Z"/>
<path transform="translate(-7 -51.13)" d="m124.5 234.8a28.88 28.88 0 0 1 2.1 -4.9c1.1-2.3 0.9-3.6-2.7-12.5-2.1-5.4-4.3-10.7-4.9-11.6-1.5-2.6-1.3-2.8 2.9-2.8 3.9 0 4 0.1 6 5.5 1.1 3 2.3 6.6 2.7 8.1 0.6 2.3 1 1.8 3.9-5.2 3.2-7.7 3.4-7.9 7-8.2 4.4-0.4 4.7-1.9-3.9 18.3l-6.3 15-3.8 0.3c-3.4 0.3-3.6 0.2-3-2z"/>
<path transform="translate(-7 -51.13)" d="m43.4 227.6c-5-2.2-7.4-6.1-7.4-12.2 0-6.4 3.2-10.8 8.9-12.4 8-2.1 14.9 2.5 15.8 10.4l0.6 4.6h-9.2c-5 0-9.1 0.4-9.1 0.8 0 2.8 7.6 4.4 10.9 2.3 1.4-0.9 6 1.5 6.1 3.2 0 1.2-8.1 4.7-11 4.6a18 18 0 0 1 -5.6 -1.3zm9.6-17.1c-1.6-1.9-6-1.9-8.6 0-1.7 1.3-1.4 1.4 4 1.5 5.1 0 5.7-0.2 4.6-1.5z"/>
<path transform="translate(-7 -51.13)" d="M225.6,228a13,13,0,0,1-8.4-16.6c2.5-7.4,12.4-10.9,18.2-6.3l2.6,2v-2c0-1.2.6-2.1,1.5-2.1,1.3,0,1.5,2.1,1.5,12.5s-.2,12.5-1.5,12.5c-.8,0-1.5-.9-1.5-2v-2.1l-2.2,2.1a7.34,7.34,0,0,1-3.4,2,12.66,12.66,0,0,0-2.6.4A11.36,11.36,0,0,1,225.6,228Zm7.7-4.1c5-2.3,6.2-10,2.3-14.6-1.9-2.2-3.2-2.8-6.6-2.8-11.8,0-12.1,18.1-.3,18.4A11.25,11.25,0,0,0,233.3,223.9Z"/>
<path transform="translate(-7 -51.13)" d="M7,225.8c0-1.3,3.6-7.5,8.1-13.8l8-11.5-8-.3L7,199.9V193H20.5c12.7,0,13.5.1,13.5,1.9,0,1.1-3.7,7.3-8.3,13.8l-8.3,11.8,8.3.3,8.3.3V228H20.5C7.2,228,7,228,7,225.8Z"/>
<path transform="translate(-7 -51.13)" d="M94,210.5V193h7v6c0,5.7.1,6,1.9,5a10.13,10.13,0,0,1,11.3,1.5c3,3,3.8,6.3,3.8,15.6V228h-7v-8c0-7.4-.2-8.1-2.5-9.6s-2.7-1.5-5,0-2.5,2.2-2.5,9.6v8H94Z"/>
<path transform="translate(-7 -51.13)" d="M147,215.5V203h3.6c2.3,0,3.3.4,2.8,1.1s.1.7,1.6-.1c2.1-1.1,10.4-.9,11.6.2.2.3-.3,1.9-1.3,3.6-1.5,2.6-2.1,2.9-5,2.5-5.2-.9-6.3.8-6.3,9.8V228h-7Z"/>
<path transform="translate(-7 -51.13)" d="m178 210.5v-17.5h8.6c10.2 0 14.5 1.7 16.8 6.5 2 4.1 2 6.8 0.1 10.5-2.5 4.9-5.1 6-13.7 6h-7.8v6c0 5.3-0.2 6-2 6s-2-0.7-2-17.5zm20.5 0c3.2-3.1 3.4-8.6 0.5-11.5-1.6-1.6-3.3-2-9.5-2h-7.5v16h7c6.2 0 7.4-0.3 9.5-2.5z"/>
<path transform="translate(-7 -51.13)" d="m209 210.5c0-14.9 0.2-17.5 1.5-17.5s1.5 2.6 1.5 17.5-0.2 17.5-1.5 17.5-1.5-2.6-1.5-17.5z"/>
<path transform="translate(-7 -51.13)" d="m251.8 226.4c-7.8-4.2-7.6-17.8 0.2-21.9a16.08 16.08 0 0 1 6 -1.5c3.4 0 9 2.5 9 4 0 1.8-1.8 1.9-4.9 0.4-9.4-4.7-17.7 7.2-10.2 14.7 3.4 3.3 7.4 3.8 11 1.3 1.7-1.3 2.5-1.4 3.4-0.4s0.6 1.6-1.2 3.1c-2.8 2.3-9.4 2.5-13.3 0.3z"/>
<path transform="translate(-7 -51.13)" d="m274.4 224.6c-2.9-2.9-3.4-4.1-3.4-8 0-8.7 4.7-13.6 13.1-13.6 5.6 0 10.9 5 10.9 10.4v3.6h-10.5c-6.8 0-10.5 0.4-10.5 1.1s1.3 2.4 2.9 4c3.3 3.3 7 3.7 11.5 1.4 5.8-3.1 7.9-0.9 2.4 2.5a15.94 15.94 0 0 1 -8.1 2c-4.2 0-5.4-0.5-8.3-3.4zm17.6-12c0-2.9-3.5-5.7-7.7-6.3-3.7-0.5-4.6-0.2-7.3 2.5-1.6 1.7-3 3.5-3 4.1s3.2 1.1 9 1.1c7 0 9-0.3 9-1.4z"/>
<path transform="translate(-7 -51.13)" d="m96 176c-24.1-3.8-45.5-23.9-51.1-48-1.7-7.6-1.5-22.2 0.6-30 5.3-20.3 22.2-38.1 42-44.2 9.9-3.1 25.3-3.1 35-0.1a67.45 67.45 0 0 1 25 14.9l5.2 5.2 6-5.7c12.3-11.6 23.4-16.2 39.9-16.9 18.5-0.7 31.3 4 44.2 16.2 20.9 19.8 26 48.8 13.2 74.4-18.4 36.6-65.8 45.4-95.7 17.8l-7-6.5-4.9 5c-13.5 13.8-34 20.8-52.4 17.9zm26.5-10.9c11.5-4.1 13.5-5.8 44.3-38.5l12.2-12.8-16.3-17.2c-22.6-23.9-25.7-26.8-32.4-30.4-15.1-8-34.4-8.3-49.2-0.7-11.4 5.7-21.3 17.2-26.1 30-4.8 13-3.6 30.5 3.1 43.7 7 13.8 22.4 25.4 37.9 28.2 5.8 1 20.6-0.3 26.5-2.3zm94.2-18.2c8-2.9 17.1-12.2 20.2-20.4 3-8 2.6-21.5-0.8-28.7a35.76 35.76 0 0 0 -16.9 -17c-6.1-3-7.4-3.3-15.7-3.2-11.4 0.1-16.3 2.2-25.1 10.5l-6.4 6.2 9.2 9.9 9.1 9.9-6.4 6.7c-3.6 3.7-7.5 7.9-8.7 9.3l-2.3 2.7 3.2 3.6a38.19 38.19 0 0 0 15.9 10.9c6.6 2.3 17.7 2.1 24.7-0.4z"/>
</svg>
