<?xml version="1.0" encoding="utf-8"?>
<!-- Generator: Adobe Illustrator 21.0.2, SVG Export Plug-In . SVG Version: 6.00 Build 0)  -->
<svg version="1.1" id="Pontos_com_curva" xmlns="http://www.w3.org/2000/svg" xmlns:xlink="http://www.w3.org/1999/xlink" x="0px"
	 y="0px" viewBox="0 0 288 288" style="enable-background:new 0 0 288 288;" xml:space="preserve">
<style type="text/css">
	.st0{opacity:0.5;clip-path:url(#SVGID_2_);}
	.st1{fill:url(#SVGID_3_);}
	.st2{fill:url(#SVGID_4_);}
	.st3{fill:url(#SVGID_5_);}
	.st4{fill:url(#SVGID_6_);}
	.st5{fill:url(#SVGID_7_);}
</style>
<g id="Grupo_e_pontos">
	<g>
		<g>
			<g>
				<defs>
					<polyline id="SVGID_1_" points="0,0 288,0 288,288 0,288 					"/>
				</defs>
				<clipPath id="SVGID_2_">
					<use xlink:href="#SVGID_1_"  style="overflow:visible;"/>
				</clipPath>
				<g class="st0">
					<circle cx="171.2" cy="182.4" r="0.8"/>
					<circle cx="168.1" cy="164.3" r="0.8"/>
					<circle cx="168.4" cy="165.3" r="0.8"/>
					<circle cx="167.8" cy="163.8" r="0.8"/>
					<circle cx="167.3" cy="164.2" r="0.8"/>
					<circle cx="168.8" cy="166.9" r="0.8"/>
					<circle cx="169.2" cy="168.9" r="0.8"/>
					<circle cx="170.1" cy="174.6" r="0.8"/>
					
						<linearGradient id="SVGID_3_" gradientUnits="userSpaceOnUse" x1="188.5079" y1="28.3578" x2="167.0079" y2="130.8578" gradientTransform="matrix(1 0 0 -1 0 290)">
						<stop  offset="0" style="stop-color:#FFFFFF"/>
						<stop  offset="1" style="stop-color:#000000"/>
					</linearGradient>
					<circle class="st1" cx="169.6" cy="171.5" r="0.8"/>
					<circle cx="167.5" cy="163.8" r="0.8"/>
					<circle cx="173.7" cy="163.4" r="0.8"/>
					<circle cx="173" cy="164" r="0.8"/>
					<circle cx="176.1" cy="170.9" r="0.8"/>
					<circle cx="175.5" cy="168.4" r="0.8"/>
					<circle cx="174.1" cy="163.9" r="0.8"/>
					<circle cx="175" cy="166.4" r="0.8"/>
					<circle cx="174.5" cy="164.9" r="0.8"/>
					<circle cx="173.3" cy="163.4" r="0.8"/>
					<circle cx="193.1" cy="264.9" r="0.8"/>
					<circle cx="191.4" cy="256.1" r="0.8"/>
					<circle cx="189.8" cy="247.4" r="0.8"/>
					<circle cx="194.9" cy="274" r="0.8"/>
					<circle cx="186.9" cy="231.1" r="0.8"/>
					<circle cx="188.3" cy="239.1" r="0.8"/>
					<circle cx="198.8" cy="292.7" r="0.8"/>
					<circle cx="180.9" cy="196.8" r="0.8"/>
					<circle cx="178.2" cy="181.6" r="0.8"/>
					<circle cx="179.1" cy="186.2" r="0.8"/>
					<circle cx="177.5" cy="177.6" r="0.8"/>
					<circle cx="180" cy="191.3" r="0.8"/>
					<circle cx="185.5" cy="223.5" r="0.8"/>
					<circle cx="184.3" cy="216.2" r="0.8"/>
					<circle cx="183.1" cy="209.3" r="0.8"/>
					<circle cx="176.8" cy="174" r="0.8"/>
					<ellipse cx="182" cy="202.9" rx="0.8" ry="0.8"/>
					<circle cx="170.6" cy="178.3" r="0.8"/>
					<circle cx="163.1" cy="172" r="0.8"/>
					<circle cx="162.8" cy="169.3" r="0.8"/>
					<circle cx="162.5" cy="167.2" r="0.8"/>
					<circle cx="162" cy="164.6" r="0.8"/>
					<circle cx="162.3" cy="165.6" r="0.8"/>
					<circle cx="161.8" cy="164" r="0.8"/>
					<circle cx="163.4" cy="175.1" r="0.8"/>
					<circle cx="164.6" cy="187.6" r="0.8"/>
					<circle cx="164.2" cy="183" r="0.8"/>
					<circle cx="171.8" cy="187.1" r="0.8"/>
					<circle cx="161.7" cy="164" r="0.8"/>
					<circle cx="165" cy="192.8" r="0.8"/>
					<circle cx="161.4" cy="165.4" r="0.8"/>
					<circle cx="161.5" cy="164.4" r="0.8"/>
					<circle cx="289.7" cy="275.5" r="0.8"/>
					<circle cx="167.2" cy="218.2" r="0.8"/>
					<circle cx="172.6" cy="277" r="0.8"/>
					<circle cx="173.6" cy="286.4" r="0.8"/>
					<circle cx="174.6" cy="296" r="0.8"/>
					<circle cx="168.6" cy="233.4" r="0.8"/>
					<circle cx="167.9" cy="225.6" r="0.8"/>
					<circle cx="166.6" cy="211.2" r="0.8"/>
					<circle cx="171.7" cy="267.8" r="0.8"/>
					<circle cx="166.1" cy="204.6" r="0.8"/>
					<circle cx="165.5" cy="198.5" r="0.8"/>
					<circle cx="170.9" cy="258.8" r="0.8"/>
					<circle cx="170.1" cy="250" r="0.8"/>
					<circle cx="169.3" cy="241.5" r="0.8"/>
					<circle cx="163.8" cy="178.8" r="0.8"/>
					<circle cx="181.2" cy="257.6" r="0.8"/>
					<circle cx="185.3" cy="285.1" r="0.8"/>
					<circle cx="186.8" cy="294.6" r="0.8"/>
					<circle cx="183.8" cy="275.8" r="0.8"/>
					<circle cx="182.5" cy="266.6" r="0.8"/>
					<circle cx="178.8" cy="240.5" r="0.8"/>
					<circle cx="173.3" cy="197.8" r="0.8"/>
					<circle cx="174" cy="203.9" r="0.8"/>
					<circle cx="172.5" cy="192.2" r="0.8"/>
					<circle cx="180" cy="248.9" r="0.8"/>
					<circle cx="174.9" cy="210.4" r="0.8"/>
					<circle cx="175.8" cy="217.4" r="0.8"/>
					<circle cx="177.8" cy="232.4" r="0.8"/>
					<circle cx="176.7" cy="224.7" r="0.8"/>
					<circle cx="191.3" cy="161.8" r="0.8"/>
					<circle cx="197.6" cy="200" r="0.8"/>
					<circle cx="196.1" cy="194.2" r="0.8"/>
					<circle cx="193.3" cy="183.9" r="0.8"/>
					<circle cx="192.1" cy="179.5" r="0.8"/>
					<circle cx="194.7" cy="188.8" r="0.8"/>
					<circle cx="184.9" cy="162.6" r="0.8"/>
					<circle cx="206.9" cy="235.2" r="0.8"/>
					<circle cx="204.8" cy="227.4" r="0.8"/>
					<circle cx="202.8" cy="220" r="0.8"/>
					<circle cx="201" cy="212.9" r="0.8"/>
					<circle cx="209.2" cy="243.2" r="0.8"/>
					<circle cx="186" cy="162.8" r="0.8"/>
					<circle cx="185.4" cy="162.4" r="0.8"/>
					<circle cx="186.6" cy="163.6" r="0.8"/>
					<circle cx="184.5" cy="163.2" r="0.8"/>
					<circle cx="187.4" cy="165" r="0.8"/>
					<circle cx="189" cy="169.3" r="0.8"/>
					<circle cx="190" cy="172.2" r="0.8"/>
					<circle cx="188.1" cy="166.9" r="0.8"/>
					<circle cx="191" cy="175.6" r="0.8"/>
					<circle cx="199.2" cy="206.2" r="0.8"/>
					<circle cx="200.4" cy="182.4" r="0.8"/>
					<circle cx="199" cy="178.1" r="0.8"/>
					<circle cx="197.7" cy="174.3" r="0.8"/>
					<circle cx="196.5" cy="171" r="0.8"/>
					<circle cx="195.4" cy="168.2" r="0.8"/>
					<circle cx="205.3" cy="198.1" r="0.8"/>
					<circle cx="207.2" cy="204.2" r="0.8"/>
					<circle cx="201.9" cy="187.2" r="0.8"/>
					<circle cx="194.4" cy="165.9" r="0.8"/>
					<circle cx="192.7" cy="162.9" r="0.8"/>
					<circle cx="209.2" cy="210.8" r="0.8"/>
					<circle cx="191.9" cy="162.1" r="0.8"/>
					<circle cx="193.5" cy="164.1" r="0.8"/>
					<circle cx="190.7" cy="162" r="0.8"/>
					<circle cx="216" cy="232.6" r="0.8"/>
					<circle cx="211.3" cy="217.7" r="0.8"/>
					<circle cx="221.3" cy="248.8" r="0.8"/>
					<circle cx="218.6" cy="240.6" r="0.8"/>
					<circle cx="213.6" cy="225" r="0.8"/>
					<circle cx="224.2" cy="257.2" r="0.8"/>
					<circle cx="233.8" cy="283.7" r="0.8"/>
					<circle cx="237.3" cy="292.7" r="0.8"/>
					<circle cx="230.4" cy="274.7" r="0.8"/>
					<circle cx="227.2" cy="265.9" r="0.8"/>
					<circle cx="203.5" cy="192.4" r="0.8"/>
					<circle cx="195.9" cy="229.4" r="0.8"/>
					<circle cx="194.2" cy="221.9" r="0.8"/>
					<circle cx="192.7" cy="214.7" r="0.8"/>
					<circle cx="191.2" cy="207.9" r="0.8"/>
					<circle cx="189.8" cy="201.6" r="0.8"/>
					<circle cx="197.7" cy="237.3" r="0.8"/>
					<circle cx="201.6" cy="254" r="0.8"/>
					<circle cx="188.5" cy="195.6" r="0.8"/>
					<circle cx="205.9" cy="271.8" r="0.8"/>
					<circle cx="199.6" cy="245.5" r="0.8"/>
					<circle cx="203.7" cy="262.8" r="0.8"/>
					<circle cx="181.2" cy="165.8" r="0.8"/>
					<circle cx="180" cy="163.4" r="0.8"/>
					<circle cx="182.6" cy="170.2" r="0.8"/>
					
						<linearGradient id="SVGID_4_" gradientUnits="userSpaceOnUse" x1="200.4909" y1="30.8713" x2="178.9909" y2="133.3713" gradientTransform="matrix(1 0 0 -1 0 290)">
						<stop  offset="0" style="stop-color:#FFFFFF"/>
						<stop  offset="1" style="stop-color:#000000"/>
					</linearGradient>
					<circle class="st2" cx="180.6" cy="164.3" r="0.8"/>
					<circle cx="184.3" cy="176.7" r="0.8"/>
					<circle cx="186.2" cy="185.2" r="0.8"/>
					<circle cx="185.2" cy="180.7" r="0.8"/>
					<circle cx="187.3" cy="190.2" r="0.8"/>
					<circle cx="183.4" cy="173.2" r="0.8"/>
					<circle cx="181.9" cy="167.7" r="0.8"/>
					<circle cx="210.7" cy="290.2" r="0.8"/>
					<circle cx="208.2" cy="280.9" r="0.8"/>
					<circle cx="216.7" cy="269.1" r="0.8"/>
					<circle cx="222.4" cy="287.2" r="0.8"/>
					<circle cx="219.4" cy="278.1" r="0.8"/>
					<circle cx="214" cy="260.2" r="0.8"/>
					<circle cx="179.6" cy="163" r="0.8"/>
					<circle cx="225.4" cy="296.4" r="0.8"/>
					<circle cx="179.1" cy="163" r="0.8"/>
					<circle cx="178.8" cy="163.6" r="0.8"/>
					<circle cx="211.5" cy="251.6" r="0.8"/>
					<circle cx="150" cy="164.8" r="0.8"/>
					<path d="M207.1,160.2c0.4-0.2,0.7-0.3,1.1-0.5c-0.1-0.1-0.2-0.1-0.3-0.1C207.5,159.6,207.2,159.8,207.1,160.2z"/>
					<path d="M245.3,152.1c0,0.1,0,0.2,0.1,0.3c0.4-0.3,0.8-0.6,1.2-1c-0.1-0.1-0.3-0.2-0.5-0.2
						C245.7,151.3,245.3,151.6,245.3,152.1z"/>
					<circle cx="298.2" cy="207.9" r="0.8"/>
					<circle cx="293.1" cy="201.9" r="0.8"/>
					<circle cx="288.2" cy="196.2" r="0.8"/>
					<circle cx="275.3" cy="180.5" r="0.8"/>
					<circle cx="283.7" cy="190.6" r="0.8"/>
					<circle cx="271.5" cy="175.9" r="0.8"/>
					<circle cx="279.4" cy="185.4" r="0.8"/>
					<circle cx="268" cy="171.6" r="0.8"/>
					<circle cx="138.3" cy="287.3" r="0.8"/>
					<circle cx="139.2" cy="268.5" r="0.8"/>
					<circle cx="137.8" cy="296.9" r="0.8"/>
					<circle cx="138.8" cy="277.8" r="0.8"/>
					<circle cx="144.3" cy="165.5" r="0.8"/>
					<circle cx="103.6" cy="282.8" r="0.8"/>
					<path d="M172,165.1c0.5-0.1,0.9-0.2,1.3-0.3c-0.1-0.2-0.4-0.3-0.6-0.3C172.4,164.6,172.1,164.8,172,165.1z"/>
					<path d="M167.1,164.5c-0.4,0-0.8,0.4-0.8,0.8c0,0.2,0.1,0.4,0.3,0.6c0.4-0.1,0.8-0.1,1.2-0.2c0.1-0.1,0.1-0.3,0.1-0.4
						C167.9,164.8,167.5,164.5,167.1,164.5z"/>
					<path d="M190.2,162c-0.4,0-0.8,0.4-0.8,0.8c0,0.3,0.2,0.5,0.4,0.7c0.4-0.1,0.8-0.2,1.2-0.4c0-0.1,0.1-0.2,0.1-0.3
						C191,162.3,190.6,162,190.2,162z"/>
					<path d="M260.7,148.2c-0.4,0-0.8,0.4-0.8,0.8c0,0.3,0.2,0.6,0.4,0.7c0.4-0.3,0.7-0.7,1.1-1.1
						C261.2,148.4,261,148.2,260.7,148.2z"/>
					<circle cx="255.1" cy="151.1" r="0.8"/>
					<circle cx="257.2" cy="152.2" r="0.8"/>
					<circle cx="259.5" cy="153.8" r="0.8"/>
					<circle cx="270.7" cy="164.3" r="0.8"/>
					<circle cx="277.7" cy="171.8" r="0.8"/>
					<circle cx="285.8" cy="180.8" r="0.8"/>
					<circle cx="281.6" cy="176.2" r="0.8"/>
					<circle cx="290.2" cy="185.7" r="0.8"/>
					<circle cx="267.6" cy="161" r="0.8"/>
					<circle cx="264.6" cy="158.2" r="0.8"/>
					<circle cx="261.9" cy="155.8" r="0.8"/>
					<circle cx="274.1" cy="167.9" r="0.8"/>
					<circle cx="295" cy="191" r="0.8"/>
					<circle cx="300" cy="196.4" r="0.8"/>
					<circle cx="261.6" cy="164.3" r="0.8"/>
					<circle cx="258.8" cy="161.2" r="0.8"/>
					<circle cx="256.2" cy="158.5" r="0.8"/>
					<circle cx="253.8" cy="156.3" r="0.8"/>
					<circle cx="247.7" cy="152.3" r="0.8"/>
					<path d="M253.3,149.6c-0.4,0-0.8,0.4-0.8,0.8c0,0.3,0.2,0.5,0.4,0.7c0.4-0.3,0.8-0.7,1.2-1
						C253.9,149.8,253.6,149.6,253.3,149.6z"/>
					<circle cx="249.5" cy="153.2" r="0.8"/>
					<circle cx="251.5" cy="154.5" r="0.8"/>
					<circle cx="139.6" cy="259.5" r="0.8"/>
					<circle cx="264.7" cy="167.8" r="0.8"/>
					<circle cx="162.4" cy="296.8" r="0.8"/>
					<circle cx="159" cy="226.1" r="0.8"/>
					<circle cx="158.3" cy="211.7" r="0.8"/>
					<circle cx="158.6" cy="218.7" r="0.8"/>
					<circle cx="159.7" cy="242.1" r="0.8"/>
					<circle cx="160.1" cy="250.7" r="0.8"/>
					<circle cx="160.9" cy="268.5" r="0.8"/>
					<circle cx="161.9" cy="287.2" r="0.8"/>
					<circle cx="161.4" cy="277.8" r="0.8"/>
					<circle cx="160.5" cy="259.4" r="0.8"/>
					<circle cx="159.3" cy="234" r="0.8"/>
					<circle cx="155.7" cy="165.5" r="0.8"/>
					<circle cx="158" cy="205.1" r="0.8"/>
					<circle cx="156.9" cy="179.1" r="0.8"/>
					<circle cx="156.7" cy="175.4" r="0.8"/>
					<circle cx="156.4" cy="169.6" r="0.8"/>
					<circle cx="157.3" cy="188" r="0.8"/>
					<circle cx="157.5" cy="193.2" r="0.8"/>
					<circle cx="157.8" cy="198.9" r="0.8"/>
					<circle cx="157.1" cy="183.3" r="0.8"/>
					<circle cx="156.3" cy="167.4" r="0.8"/>
					<circle cx="156.5" cy="172.2" r="0.8"/>
					<circle cx="244.3" cy="280" r="0.8"/>
					<circle cx="155.7" cy="164.5" r="0.8"/>
					<circle cx="156.1" cy="165.8" r="0.8"/>
					<circle cx="155.9" cy="164.2" r="0.8"/>
					<circle cx="156" cy="164.7" r="0.8"/>
					<circle cx="155.8" cy="164.1" r="0.8"/>
					<circle cx="150.1" cy="259.7" r="0.8"/>
					<circle cx="150.7" cy="283.7" r="0.8"/>
					<circle cx="142.2" cy="198.9" r="0.8"/>
					<circle cx="144.1" cy="164.1" r="0.8"/>
					<circle cx="142.9" cy="183.3" r="0.8"/>
					<circle cx="142.5" cy="193.2" r="0.8"/>
					<circle cx="141.7" cy="211.7" r="0.8"/>
					<circle cx="142.7" cy="188" r="0.8"/>
					<circle cx="141.4" cy="218.7" r="0.8"/>
					<circle cx="140.8" cy="234" r="0.8"/>
					<circle cx="140.4" cy="242.2" r="0.8"/>
					<circle cx="141.1" cy="226.2" r="0.8"/>
					<circle cx="142" cy="205.1" r="0.8"/>
					<circle cx="143.9" cy="164.8" r="0.8"/>
					<circle cx="144" cy="164.2" r="0.8"/>
					<circle cx="144.2" cy="164.6" r="0.8"/>
					<circle cx="143.8" cy="165.8" r="0.8"/>
					<circle cx="143.7" cy="167.4" r="0.8"/>
					<circle cx="143.4" cy="172.2" r="0.8"/>
					<circle cx="143.3" cy="175.4" r="0.8"/>
					<circle cx="143.1" cy="179.1" r="0.8"/>
					<circle cx="143.6" cy="169.6" r="0.8"/>
					<circle cx="150" cy="164.2" r="0.8"/>
					<circle cx="150" cy="193.3" r="0.8"/>
					<circle cx="150" cy="226.3" r="0.8"/>
					<circle cx="150" cy="172.3" r="0.8"/>
					<circle cx="150" cy="179.2" r="0.8"/>
					<circle cx="150" cy="175.5" r="0.8"/>
					<circle cx="150" cy="188.1" r="0.8"/>
					<circle cx="150" cy="218.9" r="0.8"/>
					<circle cx="150" cy="199" r="0.8"/>
					<circle cx="150" cy="211.8" r="0.8"/>
					<circle cx="150" cy="205.2" r="0.8"/>
					<circle cx="150" cy="183.4" r="0.8"/>
					<circle cx="150" cy="165.5" r="0.8"/>
					<circle cx="150" cy="169.6" r="0.8"/>
					<circle cx="197.7" cy="282.8" r="0.8"/>
					<circle cx="150" cy="167.5" r="0.8"/>
					<circle cx="150" cy="165.9" r="0.8"/>
					<circle cx="150" cy="164.2" r="0.8"/>
					<circle cx="150" cy="164.6" r="0.8"/>
					<circle cx="150" cy="234.2" r="0.8"/>
					<circle cx="150.1" cy="268.8" r="0.8"/>
					<circle cx="140" cy="250.7" r="0.8"/>
					<circle cx="150.1" cy="250.9" r="0.8"/>
					<circle cx="150" cy="242.4" r="0.8"/>
					<circle cx="150.1" cy="297.1" r="0.8"/>
					<circle cx="150.1" cy="278" r="0.8"/>
					<circle cx="151.1" cy="287.5" r="0.8"/>
					<circle cx="287.8" cy="153.3" r="0.8"/>
					<circle cx="250.3" cy="161.2" r="0.8"/>
					<circle cx="240.5" cy="153.5" r="0.8"/>
					<circle cx="242.1" cy="154.1" r="0.8"/>
					<circle cx="245.8" cy="156.8" r="0.8"/>
					<circle cx="247.9" cy="158.8" r="0.8"/>
					<circle cx="243.9" cy="155.2" r="0.8"/>
					<path d="M294.3,144.4c0,0.1,0,0.2,0.1,0.3c0.3-0.4,0.5-0.8,0.7-1.1l0,0C294.7,143.6,294.3,144,294.3,144.4z"/>
					<circle cx="293.7" cy="167.2" r="0.8"/>
					<circle cx="289.6" cy="163.5" r="0.8"/>
					<circle cx="285.8" cy="160.1" r="0.8"/>
					<circle cx="282.2" cy="157" r="0.8"/>
					<circle cx="298" cy="171.2" r="0.8"/>
					<circle cx="275.9" cy="152" r="0.8"/>
					<circle cx="279" cy="154.3" r="0.8"/>
					<circle cx="273.1" cy="150.1" r="0.8"/>
					<circle cx="270.5" cy="148.5" r="0.8"/>
					<circle cx="265.7" cy="194.1" r="0.8"/>
					<circle cx="262" cy="188.7" r="0.8"/>
					<circle cx="252.2" cy="174.4" r="0.8"/>
					<circle cx="255.2" cy="178.8" r="0.8"/>
					<circle cx="269.7" cy="199.9" r="0.8"/>
					<circle cx="258.5" cy="183.5" r="0.8"/>
					<circle cx="288.2" cy="225.8" r="0.8"/>
					<circle cx="273.9" cy="206" r="0.8"/>
					<circle cx="283.2" cy="219" r="0.8"/>
					<circle cx="278.4" cy="212.4" r="0.8"/>
					<circle cx="249.3" cy="170.5" r="0.8"/>
					<circle cx="236.4" cy="155.9" r="0.8"/>
					<circle cx="233.4" cy="154.7" r="0.8"/>
					<circle cx="234.8" cy="155.1" r="0.8"/>
					<circle cx="238.1" cy="157.2" r="0.8"/>
					<circle cx="244.2" cy="163.8" r="0.8"/>
					<circle cx="293.5" cy="232.8" r="0.8"/>
					<circle cx="246.7" cy="166.9" r="0.8"/>
					<circle cx="242" cy="161.2" r="0.8"/>
					<circle cx="240" cy="158.9" r="0.8"/>
					<circle cx="299" cy="239.9" r="0.8"/>
					<circle cx="290.9" cy="213.6" r="0.8"/>
					<circle cx="296.1" cy="220.1" r="0.8"/>
					<circle cx="301.6" cy="226.7" r="0.8"/>
					<circle cx="261.7" cy="175.3" r="0.8"/>
					<circle cx="265.1" cy="179.8" r="0.8"/>
					<circle cx="258.5" cy="171.2" r="0.8"/>
					<circle cx="285.9" cy="207.3" r="0.8"/>
					<circle cx="255.5" cy="167.4" r="0.8"/>
					<circle cx="268.8" cy="184.6" r="0.8"/>
					<ellipse cx="276.8" cy="195.4" rx="0.8" ry="0.8"/>
					<circle cx="281.2" cy="201.2" r="0.8"/>
					<circle cx="272.7" cy="189.9" r="0.8"/>
					<circle cx="252.8" cy="164.1" r="0.8"/>
					<path d="M267.5,147.7c0,0.2,0.1,0.4,0.2,0.5c0.4-0.4,0.7-0.8,1.1-1.1c-0.1-0.1-0.3-0.2-0.5-0.2
						C267.8,146.9,267.5,147.2,267.5,147.7z"/>
					<circle cx="284.4" cy="150.8" r="0.8"/>
					<circle cx="281.4" cy="148.8" r="0.8"/>
					<circle cx="291.3" cy="156" r="0.8"/>
					<circle cx="278.5" cy="147.1" r="0.8"/>
					<circle cx="295.2" cy="159.2" r="0.8"/>
					<circle cx="299.3" cy="162.6" r="0.8"/>
					<circle cx="298.3" cy="145.7" r="0.8"/>
					<circle cx="300.6" cy="154.8" r="0.8"/>
					<circle cx="302" cy="147.9" r="0.8"/>
					<circle cx="296.7" cy="152" r="0.8"/>
					<circle cx="289.8" cy="147.4" r="0.8"/>
					<circle cx="293.1" cy="149.5" r="0.8"/>
					<circle cx="286.7" cy="145.6" r="0.8"/>
					<circle cx="202.8" cy="160.3" r="0.8"/>
					<circle cx="202.1" cy="160.7" r="0.8"/>
					<circle cx="203.7" cy="160.4" r="0.8"/>
					<circle cx="204.6" cy="161" r="0.8"/>
					<circle cx="225.1" cy="205.7" r="0.8"/>
					<circle cx="236.9" cy="234.1" r="0.8"/>
					<circle cx="233.7" cy="226.5" r="0.8"/>
					<circle cx="230.7" cy="219.2" r="0.8"/>
					<circle cx="227.8" cy="212.3" r="0.8"/>
					<circle cx="247.7" cy="258.3" r="0.8"/>
					<circle cx="205.6" cy="162" r="0.8"/>
					<circle cx="222.6" cy="199.5" r="0.8"/>
					<circle cx="251.7" cy="266.7" r="0.8"/>
					<circle cx="243.9" cy="250" r="0.8"/>
					<circle cx="240.3" cy="241.9" r="0.8"/>
					<circle cx="255.8" cy="275.3" r="0.8"/>
					<circle cx="210.8" cy="171.3" r="0.8"/>
					<circle cx="209.3" cy="168.2" r="0.8"/>
					<circle cx="206.7" cy="163.6" r="0.8"/>
					<circle cx="214.2" cy="178.9" r="0.8"/>
					<circle cx="216" cy="183.4" r="0.8"/>
					<ellipse cx="218.1" cy="188.3" rx="0.8" ry="0.8"/>
					<circle cx="212.4" cy="174.8" r="0.8"/>
					<circle cx="220.3" cy="193.7" r="0.8"/>
					<circle cx="207.9" cy="165.7" r="0.8"/>
					<circle cx="225.2" cy="185.9" r="0.8"/>
					<circle cx="223" cy="181.1" r="0.8"/>
					<circle cx="227.6" cy="191.1" r="0.8"/>
					<circle cx="220.9" cy="176.8" r="0.8"/>
					<circle cx="219" cy="172.9" r="0.8"/>
					<circle cx="238.9" cy="215.9" r="0.8"/>
					<circle cx="242.2" cy="223" r="0.8"/>
					<circle cx="230.1" cy="196.7" r="0.8"/>
					<circle cx="235.8" cy="209.2" r="0.8"/>
					<circle cx="232.9" cy="202.8" r="0.8"/>
					<circle cx="217.2" cy="169.5" r="0.8"/>
					<circle cx="215.6" cy="166.6" r="0.8"/>
					<circle cx="209.5" cy="159.4" r="0.8"/>
					<circle cx="208.6" cy="159.4" r="0.8"/>
					<circle cx="214.1" cy="164.2" r="0.8"/>
					<circle cx="212.8" cy="162.3" r="0.8"/>
					<circle cx="210.5" cy="159.9" r="0.8"/>
					<circle cx="211.6" cy="160.8" r="0.8"/>
					<circle cx="257.5" cy="253.9" r="0.8"/>
					<circle cx="249.4" cy="238" r="0.8"/>
					<circle cx="261.8" cy="262.1" r="0.8"/>
					<circle cx="245.7" cy="230.3" r="0.8"/>
					<circle cx="253.3" cy="245.8" r="0.8"/>
					<circle cx="281.5" cy="295.5" r="0.8"/>
					<circle cx="276.2" cy="287.2" r="0.8"/>
					<circle cx="271.2" cy="278.8" r="0.8"/>
					<circle cx="266.4" cy="270.4" r="0.8"/>
					<circle cx="241.2" cy="270.9" r="0.8"/>
					<circle cx="227.8" cy="237.5" r="0.8"/>
					
						<linearGradient id="SVGID_5_" gradientUnits="userSpaceOnUse" x1="235.399" y1="38.1934" x2="213.8989" y2="140.6934" gradientTransform="matrix(1 0 0 -1 0 290)">
						<stop  offset="0" style="stop-color:#FFFFFF"/>
						<stop  offset="1" style="stop-color:#000000"/>
					</linearGradient>
					<circle class="st3" cx="237.6" cy="262.3" r="0.8"/>
					
						<linearGradient id="SVGID_6_" gradientUnits="userSpaceOnUse" x1="233.85" y1="37.8685" x2="212.35" y2="140.3685" gradientTransform="matrix(1 0 0 -1 0 290)">
						<stop  offset="0" style="stop-color:#FFFFFF"/>
						<stop  offset="1" style="stop-color:#000000"/>
					</linearGradient>
					<circle class="st4" cx="234.2" cy="253.8" r="0.8"/>
					<circle cx="245" cy="279.7" r="0.8"/>
					<circle cx="253.1" cy="297.4" r="0.8"/>
					<circle cx="248.9" cy="288.5" r="0.8"/>
					<circle cx="230.9" cy="245.5" r="0.8"/>
					<circle cx="209" cy="185.4" r="0.8"/>
					<circle cx="212.8" cy="196" r="0.8"/>
					<circle cx="210.9" cy="190.5" r="0.8"/>
					<circle cx="207.3" cy="180.7" r="0.8"/>
					<circle cx="217.2" cy="208.4" r="0.8"/>
					<circle cx="219.6" cy="215.2" r="0.8"/>
					<circle cx="222.2" cy="222.3" r="0.8"/>
					<circle cx="215" cy="202" r="0.8"/>
					<circle cx="224.9" cy="229.7" r="0.8"/>
					<circle cx="260.2" cy="283.9" r="0.8"/>
					<circle cx="205.7" cy="176.6" r="0.8"/>
					<circle cx="264.9" cy="292.5" r="0.8"/>
					<circle cx="196.4" cy="161.4" r="0.8"/>
					<circle cx="198.6" cy="162" r="0.8"/>
					<circle cx="197.8" cy="161.3" r="0.8"/>
					<circle cx="197.1" cy="161.1" r="0.8"/>
					<circle cx="202.9" cy="169.7" r="0.8"/>
					<circle cx="201.7" cy="167" r="0.8"/>
					<circle cx="200.6" cy="164.8" r="0.8"/>
					<circle cx="199.6" cy="163.1" r="0.8"/>
					<circle cx="204.3" cy="172.9" r="0.8"/>
					<circle cx="247.8" cy="196.1" r="0.8"/>
					<circle cx="251.2" cy="202.1" r="0.8"/>
					<circle cx="241.7" cy="185.3" r="0.8"/>
					<circle cx="244.7" cy="190.5" r="0.8"/>
					<circle cx="254.8" cy="208.4" r="0.8"/>
					<circle cx="258.6" cy="215" r="0.8"/>
					<circle cx="222.1" cy="157.4" r="0.8"/>
					<circle cx="266.9" cy="229.1" r="0.8"/>
					<circle cx="271.4" cy="236.4" r="0.8"/>
					<circle cx="262.6" cy="221.9" r="0.8"/>
					<circle cx="239" cy="180.5" r="0.8"/>
					<circle cx="224.7" cy="159.3" r="0.8"/>
					<circle cx="223.3" cy="158.1" r="0.8"/>
					<circle cx="276.2" cy="244" r="0.8"/>
					<circle cx="220.9" cy="157.2" r="0.8"/>
					<circle cx="228" cy="163" r="0.8"/>
					<circle cx="234" cy="172.2" r="0.8"/>
					<circle cx="231.8" cy="168.6" r="0.8"/>
					<circle cx="229.8" cy="165.6" r="0.8"/>
					<circle cx="236.4" cy="176.1" r="0.8"/>
					<circle cx="226.3" cy="160.9" r="0.8"/>
					<circle cx="227.8" cy="156.1" r="0.8"/>
					<circle cx="232.2" cy="159.1" r="0.8"/>
					<circle cx="230.6" cy="157.6" r="0.8"/>
					<circle cx="245.6" cy="177.5" r="0.8"/>
					<circle cx="226.6" cy="156" r="0.8"/>
					<circle cx="234" cy="161" r="0.8"/>
					<circle cx="242.9" cy="173.4" r="0.8"/>
					<circle cx="238.1" cy="166.3" r="0.8"/>
					<circle cx="236" cy="163.4" r="0.8"/>
					<circle cx="229.1" cy="156.6" r="0.8"/>
					<circle cx="301.7" cy="260.9" r="0.8"/>
					<circle cx="295.9" cy="253.4" r="0.8"/>
					<circle cx="290.3" cy="245.9" r="0.8"/>
					<circle cx="275.2" cy="224.2" r="0.8"/>
					<circle cx="262.4" cy="204.3" r="0.8"/>
					<circle cx="258.6" cy="198.2" r="0.8"/>
					<circle cx="255" cy="192.5" r="0.8"/>
					<circle cx="251.7" cy="187.1" r="0.8"/>
					<circle cx="280" cy="231.2" r="0.8"/>
					<circle cx="266.4" cy="210.6" r="0.8"/>
					<circle cx="285" cy="238.5" r="0.8"/>
					<circle cx="248.6" cy="182.1" r="0.8"/>
					<circle cx="270.7" cy="217.3" r="0.8"/>
					<circle cx="240.4" cy="169.6" r="0.8"/>
					<circle cx="281.8" cy="273.2" r="0.8"/>
					<circle cx="276.6" cy="265.1" r="0.8"/>
					<circle cx="262.5" cy="241.3" r="0.8"/>
					<circle cx="267" cy="249.1" r="0.8"/>
					<circle cx="298.8" cy="297.5" r="0.8"/>
					<circle cx="281.2" cy="251.6" r="0.8"/>
					<circle cx="258.3" cy="233.7" r="0.8"/>
					<circle cx="292.9" cy="289.5" r="0.8"/>
					<circle cx="271.7" cy="257" r="0.8"/>
					<circle cx="232.2" cy="183.3" r="0.8"/>
					<circle cx="254.3" cy="226.3" r="0.8"/>
					<circle cx="237.5" cy="193.7" r="0.8"/>
					<circle cx="229.8" cy="178.7" r="0.8"/>
					<circle cx="234.7" cy="188.3" r="0.8"/>
					<circle cx="240.4" cy="199.6" r="0.8"/>
					<circle cx="250.5" cy="219.1" r="0.8"/>
					<circle cx="247" cy="212.3" r="0.8"/>
					<circle cx="243.6" cy="205.8" r="0.8"/>
					<circle cx="227.5" cy="174.6" r="0.8"/>
					<circle cx="287.2" cy="281.3" r="0.8"/>
					<circle cx="225.5" cy="170.9" r="0.8"/>
					<circle cx="292" cy="267.3" r="0.8"/>
					<circle cx="286.4" cy="259.4" r="0.8"/>
					<circle cx="297.7" cy="275.1" r="0.8"/>
					<circle cx="216.3" cy="158.7" r="0.8"/>
					<circle cx="214.3" cy="158.5" r="0.8"/>
					<circle cx="217.5" cy="159.5" r="0.8"/>
					<circle cx="215.2" cy="158.4" r="0.8"/>
					<circle cx="221.8" cy="164.9" r="0.8"/>
					<circle cx="218.8" cy="160.8" r="0.8"/>
					<circle cx="223.6" cy="167.6" r="0.8"/>
					<circle cx="220.2" cy="162.6" r="0.8"/>
					<circle cx="12.2" cy="153.4" r="0.8"/>
					<path d="M68.8,154.6c-0.4,0-0.8,0.3-0.8,0.8c0.4,0.2,0.8,0.4,1.3,0.7c0.2-0.1,0.3-0.4,0.3-0.6C69.6,155,69.3,154.6,68.8,154.6z
						"/>
					<path d="M80.9,157.5c-0.4,0-0.8,0.4-0.8,0.8c0,0.1,0,0.1,0,0.2c0.4,0.2,0.8,0.3,1.2,0.5c0.2-0.1,0.4-0.4,0.4-0.7
						C81.7,157.9,81.3,157.5,80.9,157.5z"/>
					<path d="M92.8,160.5c-0.2,0-0.4,0.1-0.5,0.2c0.4,0.1,0.9,0.3,1.3,0.4C93.5,160.7,93.2,160.5,92.8,160.5z"/>
					<path d="M49.9,149.5c-0.4,0-0.8,0.4-0.8,0.8l0,0c0.3,0.2,0.7,0.5,1,0.7c0.3-0.1,0.6-0.4,0.6-0.8
						C50.7,149.9,50.3,149.5,49.9,149.5z"/>
					<path d="M56.6,152c0.2,0.1,0.4,0.3,0.7,0.4C57.1,152.2,56.9,152,56.6,152z"/>
					<circle cx="16.1" cy="144.3" r="0.8"/>
					<circle cx="10.2" cy="147.5" r="0.8"/>
					<circle cx="6.8" cy="149.6" r="0.8"/>
					<circle cx="13.3" cy="145.7" r="0.8"/>
					<circle cx="3.2" cy="152.1" r="0.8"/>
					<circle cx="-0.7" cy="155" r="0.8"/>
					<circle cx="-4.9" cy="158.1" r="0.8"/>
					<circle cx="13.6" cy="140.5" r="0.8"/>
					<circle cx="10.9" cy="141.3" r="0.8"/>
					<circle cx="8.1" cy="142.5" r="0.8"/>
					<circle cx="21.1" cy="142.6" r="0.8"/>
					<circle cx="4.7" cy="159.3" r="0.8"/>
					<circle cx="-3.8" cy="166.5" r="0.8"/>
					<circle cx="0.6" cy="162.8" r="0.8"/>
					<circle cx="8.6" cy="156.2" r="0.8"/>
					<circle cx="-8.5" cy="170.5" r="0.8"/>
					<circle cx="18.7" cy="143.2" r="0.8"/>
					<circle cx="-8.4" cy="138.2" r="0.8"/>
					<circle cx="-5" cy="137" r="0.8"/>
					<circle cx="5" cy="144" r="0.8"/>
					<circle cx="-7.1" cy="143.9" r="0.8"/>
					<circle cx="-2" cy="148" r="0.8"/>
					<circle cx="-5.9" cy="150.6" r="0.8"/>
					<circle cx="1.6" cy="145.8" r="0.8"/>
					<circle cx="-3.4" cy="142" r="0.8"/>
					<circle cx="3" cy="139.2" r="0.8"/>
					<circle cx="-0.1" cy="140.5" r="0.8"/>
					<circle cx="126.6" cy="163.5" r="0.8"/>
					<circle cx="11.6" cy="275.7" r="0.8"/>
					<circle cx="127.2" cy="165" r="0.8"/>
					<circle cx="126.9" cy="164" r="0.8"/>
					<circle cx="120.1" cy="249" r="0.8"/>
					<circle cx="113.4" cy="294.7" r="0.8"/>
					<circle cx="116.3" cy="275.8" r="0.8"/>
					<circle cx="117.6" cy="266.6" r="0.8"/>
					<circle cx="118.9" cy="257.7" r="0.8"/>
					<circle cx="114.9" cy="285.2" r="0.8"/>
					<circle cx="105.2" cy="274.1" r="0.8"/>
					<circle cx="103.3" cy="283.3" r="0.8"/>
					<circle cx="101.4" cy="292.7" r="0.8"/>
					<circle cx="107" cy="265" r="0.8"/>
					<circle cx="115.8" cy="216.2" r="0.8"/>
					<circle cx="123.9" cy="171" r="0.8"/>
					<circle cx="120.9" cy="186.3" r="0.8"/>
					<circle cx="123.2" cy="174" r="0.8"/>
					<circle cx="122.5" cy="177.6" r="0.8"/>
					<circle cx="125.9" cy="163.9" r="0.8"/>
					<circle cx="125.5" cy="164.9" r="0.8"/>
					<circle cx="124.4" cy="168.4" r="0.8"/>
					<circle cx="125" cy="166.4" r="0.8"/>
					<circle cx="117" cy="209.4" r="0.8"/>
					<circle cx="113.2" cy="231.2" r="0.8"/>
					<circle cx="114.5" cy="223.5" r="0.8"/>
					<circle cx="111.8" cy="239.2" r="0.8"/>
					<circle cx="110.3" cy="247.5" r="0.8"/>
					<circle cx="126.3" cy="163.4" r="0.8"/>
					<circle cx="118.1" cy="202.9" r="0.8"/>
					<circle cx="120" cy="191.3" r="0.8"/>
					<circle cx="119.1" cy="196.9" r="0.8"/>
					<circle cx="108.7" cy="256.1" r="0.8"/>
					<circle cx="137.5" cy="167.2" r="0.8"/>
					<circle cx="126.6" cy="286.5" r="0.8"/>
					<circle cx="127.5" cy="277.1" r="0.8"/>
					<circle cx="125.6" cy="296" r="0.8"/>
					<circle cx="128.4" cy="267.8" r="0.8"/>
					<circle cx="130" cy="250" r="0.8"/>
					<circle cx="130.8" cy="241.6" r="0.8"/>
					<circle cx="131.5" cy="233.4" r="0.8"/>
					<circle cx="129.2" cy="258.8" r="0.8"/>
					<circle cx="132.2" cy="225.6" r="0.8"/>
					<circle cx="138.3" cy="164" r="0.8"/>
					<circle cx="137.9" cy="164.6" r="0.8"/>
					<circle cx="138.1" cy="164" r="0.8"/>
					<circle cx="137.7" cy="165.6" r="0.8"/>
					<circle cx="137.2" cy="169.3" r="0.8"/>
					<circle cx="138.4" cy="164.4" r="0.8"/>
					
						<linearGradient id="SVGID_7_" gradientUnits="userSpaceOnUse" x1="160.0399" y1="22.3864" x2="138.5399" y2="124.8864" gradientTransform="matrix(1 0 0 -1 0 290)">
						<stop  offset="0" style="stop-color:#FFFFFF"/>
						<stop  offset="1" style="stop-color:#000000"/>
					</linearGradient>
					<circle class="st5" cx="138.6" cy="165.4" r="0.8"/>
					<circle cx="135.4" cy="187.7" r="0.8"/>
					<circle cx="134.5" cy="198.5" r="0.8"/>
					<circle cx="134" cy="204.6" r="0.8"/>
					<circle cx="135" cy="192.8" r="0.8"/>
					<circle cx="133.4" cy="211.2" r="0.8"/>
					<circle cx="135.8" cy="183" r="0.8"/>
					<circle cx="136.6" cy="175.1" r="0.8"/>
					<circle cx="136.2" cy="178.8" r="0.8"/>
					<circle cx="132.8" cy="218.2" r="0.8"/>
					<circle cx="136.9" cy="172" r="0.8"/>
					<circle cx="130.4" cy="171.5" r="0.8"/>
					<circle cx="131.2" cy="166.9" r="0.8"/>
					<circle cx="130.8" cy="169" r="0.8"/>
					<circle cx="129.4" cy="178.3" r="0.8"/>
					<circle cx="129.9" cy="174.7" r="0.8"/>
					<circle cx="132.9" cy="165.2" r="0.8"/>
					<circle cx="121.2" cy="240.6" r="0.8"/>
					<circle cx="132.7" cy="164.2" r="0.8"/>
					<circle cx="131.9" cy="164.3" r="0.8"/>
					<circle cx="132.4" cy="163.8" r="0.8"/>
					<circle cx="132.2" cy="163.8" r="0.8"/>
					<circle cx="131.6" cy="165.3" r="0.8"/>
					<circle cx="123.3" cy="224.7" r="0.8"/>
					<circle cx="124.3" cy="217.4" r="0.8"/>
					<circle cx="125.2" cy="210.4" r="0.8"/>
					<circle cx="122.3" cy="232.5" r="0.8"/>
					<circle cx="127.5" cy="192.2" r="0.8"/>
					<circle cx="126" cy="203.9" r="0.8"/>
					<circle cx="128.2" cy="187.1" r="0.8"/>
					<circle cx="126.8" cy="197.8" r="0.8"/>
					<circle cx="128.8" cy="182.4" r="0.8"/>
					<circle cx="121.8" cy="181.7" r="0.8"/>
					<circle cx="99.1" cy="213" r="0.8"/>
					<circle cx="105.4" cy="188.9" r="0.8"/>
					<circle cx="100.8" cy="206.3" r="0.8"/>
					<circle cx="106.7" cy="184" r="0.8"/>
					<circle cx="102.4" cy="200" r="0.8"/>
					<circle cx="103.9" cy="194.2" r="0.8"/>
					<circle cx="74.8" cy="296.5" r="0.8"/>
					<circle cx="107.9" cy="179.5" r="0.8"/>
					<circle cx="110" cy="172.2" r="0.8"/>
					<circle cx="109" cy="175.6" r="0.8"/>
					<circle cx="111" cy="169.3" r="0.8"/>
					<circle cx="86.1" cy="260.3" r="0.8"/>
					<circle cx="83.5" cy="269.2" r="0.8"/>
					<circle cx="80.7" cy="278.2" r="0.8"/>
					<circle cx="77.8" cy="287.3" r="0.8"/>
					<circle cx="88.6" cy="251.7" r="0.8"/>
					<circle cx="93.1" cy="235.2" r="0.8"/>
					<circle cx="95.2" cy="227.5" r="0.8"/>
					<circle cx="111.8" cy="166.9" r="0.8"/>
					<circle cx="90.9" cy="243.3" r="0.8"/>
					<circle cx="97.2" cy="220" r="0.8"/>
					<circle cx="90.9" cy="210.9" r="0.8"/>
					<circle cx="92.9" cy="204.3" r="0.8"/>
					<circle cx="102.3" cy="174.4" r="0.8"/>
					<circle cx="94.7" cy="198.2" r="0.8"/>
					<circle cx="86.5" cy="225.1" r="0.8"/>
					<circle cx="101" cy="178.2" r="0.8"/>
					<circle cx="99.6" cy="182.5" r="0.8"/>
					<circle cx="96.5" cy="192.5" r="0.8"/>
					<circle cx="84" cy="232.7" r="0.8"/>
					<circle cx="98.1" cy="187.3" r="0.8"/>
					<circle cx="88.7" cy="217.8" r="0.8"/>
					<circle cx="66.4" cy="283.8" r="0.8"/>
					<circle cx="81.5" cy="240.7" r="0.8"/>
					<circle cx="62.8" cy="292.9" r="0.8"/>
					<circle cx="75.9" cy="257.3" r="0.8"/>
					<circle cx="78.8" cy="248.9" r="0.8"/>
					<circle cx="72.9" cy="266" r="0.8"/>
					<circle cx="69.7" cy="274.8" r="0.8"/>
					<circle cx="103.5" cy="171.1" r="0.8"/>
					<circle cx="106.5" cy="164.2" r="0.8"/>
					<circle cx="104.6" cy="168.3" r="0.8"/>
					<circle cx="107.3" cy="162.9" r="0.8"/>
					<circle cx="105.6" cy="166" r="0.8"/>
					<circle cx="109.8" cy="162.7" r="0.8"/>
					<circle cx="108" cy="162.1" r="0.8"/>
					<circle cx="109.3" cy="162" r="0.8"/>
					<circle cx="108.7" cy="161.8" r="0.8"/>
					<circle cx="104.2" cy="229.5" r="0.8"/>
					<circle cx="110.2" cy="201.6" r="0.8"/>
					<circle cx="113.8" cy="185.2" r="0.8"/>
					<circle cx="112.7" cy="190.2" r="0.8"/>
					<circle cx="91.9" cy="281" r="0.8"/>
					<circle cx="111.5" cy="195.7" r="0.8"/>
					<circle cx="114.8" cy="180.7" r="0.8"/>
					<circle cx="116.6" cy="173.2" r="0.8"/>
					<circle cx="118.1" cy="167.7" r="0.8"/>
					<circle cx="118.8" cy="165.8" r="0.8"/>
					<circle cx="119.4" cy="164.3" r="0.8"/>
					<circle cx="117.4" cy="170.2" r="0.8"/>
					<circle cx="98.6" cy="254.1" r="0.8"/>
					<circle cx="100.5" cy="245.6" r="0.8"/>
					<circle cx="96.5" cy="262.9" r="0.8"/>
					<circle cx="94.3" cy="271.8" r="0.8"/>
					<circle cx="107.4" cy="214.8" r="0.8"/>
					<circle cx="108.8" cy="208" r="0.8"/>
					<circle cx="105.8" cy="221.9" r="0.8"/>
					<circle cx="102.4" cy="237.4" r="0.8"/>
					<circle cx="115.7" cy="176.7" r="0.8"/>
					<circle cx="121.5" cy="164.7" r="0.8"/>
					<circle cx="121.2" cy="163.6" r="0.8"/>
					<circle cx="120.8" cy="163.1" r="0.8"/>
					<circle cx="119.9" cy="163.4" r="0.8"/>
					<circle cx="120.4" cy="163" r="0.8"/>
					<circle cx="114.5" cy="162.5" r="0.8"/>
					<circle cx="115" cy="162.6" r="0.8"/>
					<circle cx="114" cy="162.8" r="0.8"/>
					<circle cx="113.3" cy="163.7" r="0.8"/>
					<circle cx="89.5" cy="290.3" r="0.8"/>
					<path d="M115.8,163.7c-0.4,0-0.7,0.3-0.8,0.7c0.5,0.1,1,0.2,1.6,0.3c0-0.1,0-0.1,0-0.2C116.6,164.1,116.3,163.7,115.8,163.7z"
						/>
					<circle cx="115.5" cy="163.2" r="0.8"/>
					<circle cx="112.6" cy="165" r="0.8"/>
					<path d="M5.8,137.7c-0.2,0-0.4,0.1-0.5,0.2c0.3,0.4,0.7,0.8,1,1.2c0.2-0.1,0.4-0.4,0.4-0.7C6.6,138.1,6.3,137.7,5.8,137.7z"/>
					<circle cx="1.3" cy="297.7" r="0.8"/>
					<circle cx="49.5" cy="219.3" r="0.8"/>
					<circle cx="33.1" cy="249.3" r="0.8"/>
					<circle cx="37.5" cy="241.5" r="0.8"/>
					<circle cx="41.8" cy="233.8" r="0.8"/>
					<circle cx="45.8" cy="226.4" r="0.8"/>
					<circle cx="23.5" cy="265.3" r="0.8"/>
					<circle cx="12.9" cy="281.6" r="0.8"/>
					<circle cx="18.3" cy="273.4" r="0.8"/>
					<circle cx="7.3" cy="289.7" r="0.8"/>
					<circle cx="28.4" cy="257.2" r="0.8"/>
					<circle cx="77.9" cy="157.5" r="0.8"/>
					<circle cx="80" cy="157.5" r="0.8"/>
					<circle cx="79" cy="157.3" r="0.8"/>
					<circle cx="76.4" cy="167.7" r="0.8"/>
					<circle cx="70.2" cy="178.8" r="0.8"/>
					<circle cx="72.5" cy="174.6" r="0.8"/>
					<circle cx="74.5" cy="170.9" r="0.8"/>
					<circle cx="67.8" cy="183.4" r="0.8"/>
					<circle cx="56.4" cy="205.9" r="0.8"/>
					<circle cx="59.6" cy="199.7" r="0.8"/>
					<circle cx="62.5" cy="193.9" r="0.8"/>
					<circle cx="65.3" cy="188.4" r="0.8"/>
					<circle cx="78.1" cy="164.9" r="0.8"/>
					<circle cx="86.5" cy="159.1" r="0.8"/>
					<circle cx="84.7" cy="158.4" r="0.8"/>
					<circle cx="85.7" cy="158.5" r="0.8"/>
					<circle cx="79.7" cy="162.7" r="0.8"/>
					<circle cx="83.7" cy="158.7" r="0.8"/>
					<circle cx="81.2" cy="160.9" r="0.8"/>
					<circle cx="82.5" cy="159.6" r="0.8"/>
					<circle cx="53.1" cy="212.4" r="0.8"/>
					<circle cx="70.8" cy="156.7" r="0.8"/>
					<circle cx="61.9" cy="166.4" r="0.8"/>
					<circle cx="72.2" cy="156.2" r="0.8"/>
					<circle cx="73.4" cy="156.1" r="0.8"/>
					<circle cx="66" cy="161.1" r="0.8"/>
					<circle cx="69.4" cy="157.7" r="0.8"/>
					<circle cx="64" cy="163.5" r="0.8"/>
					<circle cx="67.7" cy="159.2" r="0.8"/>
					<circle cx="74.4" cy="156.5" r="0.8"/>
					<circle cx="76.6" cy="158.2" r="0.8"/>
					<circle cx="-1.6" cy="261.2" r="0.8"/>
					<circle cx="59.5" cy="169.7" r="0.8"/>
					<circle cx="4.2" cy="253.6" r="0.8"/>
					<circle cx="9.8" cy="246.1" r="0.8"/>
					<circle cx="20.1" cy="231.4" r="0.8"/>
					<circle cx="15.1" cy="238.7" r="0.8"/>
					<circle cx="-7.7" cy="268.7" r="0.8"/>
					<circle cx="24.8" cy="224.3" r="0.8"/>
					<circle cx="51.4" cy="182.3" r="0.8"/>
					<circle cx="48.3" cy="187.3" r="0.8"/>
					<circle cx="54.3" cy="177.7" r="0.8"/>
					<circle cx="29.4" cy="217.4" r="0.8"/>
					<circle cx="57" cy="173.5" r="0.8"/>
					<circle cx="45" cy="192.6" r="0.8"/>
					<circle cx="37.6" cy="204.4" r="0.8"/>
					<circle cx="33.6" cy="210.8" r="0.8"/>
					<circle cx="41.4" cy="198.4" r="0.8"/>
					<circle cx="45.2" cy="208.5" r="0.8"/>
					<circle cx="41.4" cy="215.2" r="0.8"/>
					<circle cx="48.8" cy="202.2" r="0.8"/>
					<circle cx="55.3" cy="190.7" r="0.8"/>
					<circle cx="52.2" cy="196.3" r="0.8"/>
					<circle cx="37.4" cy="222.1" r="0.8"/>
					<circle cx="18.9" cy="251.8" r="0.8"/>
					<circle cx="33.2" cy="229.2" r="0.8"/>
					<circle cx="23.9" cy="244.1" r="0.8"/>
					<circle cx="28.7" cy="236.6" r="0.8"/>
					<circle cx="13.7" cy="259.6" r="0.8"/>
					<circle cx="73.7" cy="161" r="0.8"/>
					<circle cx="70.1" cy="165.7" r="0.8"/>
					<circle cx="75.2" cy="159.3" r="0.8"/>
					<circle cx="68.1" cy="168.7" r="0.8"/>
					<circle cx="61" cy="180.6" r="0.8"/>
					<circle cx="63.6" cy="176.2" r="0.8"/>
					<circle cx="58.3" cy="185.4" r="0.8"/>
					<circle cx="65.9" cy="172.2" r="0.8"/>
					<circle cx="72" cy="163.1" r="0.8"/>
					<circle cx="8.1" cy="267.5" r="0.8"/>
					<circle cx="-3.7" cy="283.2" r="0.8"/>
					<circle cx="2.4" cy="275.3" r="0.8"/>
					<circle cx="33.7" cy="270.6" r="0.8"/>
					<circle cx="55.2" cy="279.8" r="0.8"/>
					<circle cx="51.2" cy="288.7" r="0.8"/>
					<circle cx="47" cy="297.6" r="0.8"/>
					<circle cx="90.7" cy="168.3" r="0.8"/>
					<circle cx="98.5" cy="161.6" r="0.8"/>
					<circle cx="97.1" cy="160.3" r="0.8"/>
					<circle cx="97.8" cy="160.7" r="0.8"/>
					<circle cx="96.3" cy="160.4" r="0.8"/>
					<circle cx="94.4" cy="162.1" r="0.8"/>
					<circle cx="93.3" cy="163.7" r="0.8"/>
					<circle cx="92" cy="165.7" r="0.8"/>
					<circle cx="95.4" cy="161" r="0.8"/>
					<circle cx="262.7" cy="149.8" r="0.8"/>
					<circle cx="270.3" cy="155.1" r="0.8"/>
					<circle cx="267.6" cy="152.9" r="0.8"/>
					<circle cx="265.1" cy="151.2" r="0.8"/>
					<circle cx="58.9" cy="271.1" r="0.8"/>
					<circle cx="102.9" cy="161.1" r="0.8"/>
					<circle cx="102.1" cy="161.3" r="0.8"/>
					<circle cx="103.5" cy="161.4" r="0.8"/>
					<circle cx="104.1" cy="162.2" r="0.8"/>
					<circle cx="101.3" cy="162" r="0.8"/>
					<circle cx="301.4" cy="185.6" r="0.8"/>
					<circle cx="296.6" cy="180.7" r="0.8"/>
					<circle cx="292" cy="176.1" r="0.8"/>
					<circle cx="273.3" cy="157.7" r="0.8"/>
					<circle cx="287.8" cy="171.7" r="0.8"/>
					<circle cx="276.6" cy="160.7" r="0.8"/>
					<circle cx="280" cy="164" r="0.8"/>
					<circle cx="283.8" cy="167.7" r="0.8"/>
					<circle cx="77.8" cy="222.4" r="0.8"/>
					<circle cx="80.4" cy="215.2" r="0.8"/>
					<circle cx="100.4" cy="163.2" r="0.8"/>
					<circle cx="82.8" cy="208.5" r="0.8"/>
					<circle cx="62.5" cy="262.4" r="0.8"/>
					<circle cx="65.9" cy="253.9" r="0.8"/>
					<circle cx="72.2" cy="237.6" r="0.8"/>
					<circle cx="85.1" cy="202.1" r="0.8"/>
					<circle cx="69.2" cy="245.7" r="0.8"/>
					<circle cx="75.1" cy="229.8" r="0.8"/>
					<circle cx="95.7" cy="173" r="0.8"/>
					<circle cx="98.3" cy="167.1" r="0.8"/>
					<circle cx="97" cy="169.8" r="0.8"/>
					<circle cx="99.4" cy="164.9" r="0.8"/>
					<circle cx="87.2" cy="196.1" r="0.8"/>
					<circle cx="89.1" cy="190.6" r="0.8"/>
					<circle cx="91" cy="185.5" r="0.8"/>
					<circle cx="92.7" cy="180.8" r="0.8"/>
					<circle cx="94.3" cy="176.6" r="0.8"/>
					<circle cx="79.1" cy="176.9" r="0.8"/>
					<circle cx="85.8" cy="164.3" r="0.8"/>
					<circle cx="87.2" cy="162.3" r="0.8"/>
					<circle cx="90.5" cy="159.4" r="0.8"/>
					<circle cx="89.5" cy="159.9" r="0.8"/>
					<circle cx="84.4" cy="166.7" r="0.8"/>
					<circle cx="88.4" cy="160.9" r="0.8"/>
					<circle cx="77" cy="181.2" r="0.8"/>
					<circle cx="81" cy="173" r="0.8"/>
					<circle cx="74.8" cy="186" r="0.8"/>
					<circle cx="82.7" cy="169.6" r="0.8"/>
					<circle cx="92.2" cy="159.9" r="0.8"/>
					<circle cx="91.4" cy="159.5" r="0.8"/>
					<circle cx="64.2" cy="209.3" r="0.8"/>
					<circle cx="38.3" cy="262.2" r="0.8"/>
					<circle cx="23.9" cy="287.4" r="0.8"/>
					<circle cx="28.9" cy="278.9" r="0.8"/>
					<circle cx="18.6" cy="295.7" r="0.8"/>
					<circle cx="54.3" cy="230.5" r="0.8"/>
					<circle cx="42.6" cy="254" r="0.8"/>
					<circle cx="61.1" cy="216" r="0.8"/>
					<circle cx="69.9" cy="196.8" r="0.8"/>
					<circle cx="67.1" cy="202.9" r="0.8"/>
					<circle cx="50.6" cy="238.1" r="0.8"/>
					<circle cx="46.7" cy="246" r="0.8"/>
					<circle cx="57.8" cy="223.1" r="0.8"/>
					<circle cx="72.4" cy="191.2" r="0.8"/>
					<circle cx="56.2" cy="250.2" r="0.8"/>
					<circle cx="52.4" cy="258.4" r="0.8"/>
					<circle cx="59.8" cy="242.1" r="0.8"/>
					<circle cx="66.4" cy="226.6" r="0.8"/>
					<circle cx="48.5" cy="266.9" r="0.8"/>
					<circle cx="35.3" cy="292.7" r="0.8"/>
					<circle cx="39.9" cy="284" r="0.8"/>
					<circle cx="44.3" cy="275.4" r="0.8"/>
					<circle cx="63.2" cy="234.2" r="0.8"/>
					<circle cx="85.8" cy="178.9" r="0.8"/>
					<circle cx="81.9" cy="188.4" r="0.8"/>
					<circle cx="83.9" cy="183.4" r="0.8"/>
					<circle cx="87.6" cy="174.9" r="0.8"/>
					<circle cx="69.4" cy="219.4" r="0.8"/>
					<circle cx="72.2" cy="212.4" r="0.8"/>
					<circle cx="79.7" cy="193.8" r="0.8"/>
					<circle cx="74.9" cy="205.8" r="0.8"/>
					<circle cx="77.4" cy="199.6" r="0.8"/>
					<circle cx="89.2" cy="171.4" r="0.8"/>
					<circle cx="56.1" cy="155.3" r="0.8"/>
					<circle cx="12.2" cy="171.9" r="0.8"/>
					<circle cx="7.9" cy="176.2" r="0.8"/>
					<circle cx="16.2" cy="167.8" r="0.8"/>
					<circle cx="19.9" cy="164.1" r="0.8"/>
					<circle cx="-1.4" cy="185.8" r="0.8"/>
					<circle cx="23.4" cy="160.8" r="0.8"/>
					<circle cx="-6.6" cy="191" r="0.8"/>
					<circle cx="3.4" cy="180.9" r="0.8"/>
					<circle cx="39.3" cy="149" r="0.8"/>
					<circle cx="41.2" cy="148.5" r="0.8"/>
					<circle cx="32.4" cy="153" r="0.8"/>
					<circle cx="37.2" cy="149.9" r="0.8"/>
					<circle cx="26.6" cy="157.8" r="0.8"/>
					<circle cx="29.6" cy="155.2" r="0.8"/>
					<circle cx="34.9" cy="151.3" r="0.8"/>
					<circle cx="38" cy="155.9" r="0.8"/>
					<circle cx="46.7" cy="150.4" r="0.8"/>
					<circle cx="40.5" cy="153.9" r="0.8"/>
					<circle cx="42.7" cy="152.3" r="0.8"/>
					<circle cx="48.4" cy="150.1" r="0.8"/>
					<circle cx="44.8" cy="151.1" r="0.8"/>
					<circle cx="29.3" cy="164.4" r="0.8"/>
					<circle cx="-5.3" cy="202.3" r="0.8"/>
					<circle cx="25.9" cy="168" r="0.8"/>
					<circle cx="35.3" cy="158.3" r="0.8"/>
					<circle cx="22.2" cy="172" r="0.8"/>
					<circle cx="32.4" cy="161.1" r="0.8"/>
					<circle cx="9.7" cy="185.9" r="0.8"/>
					<circle cx="18.3" cy="176.3" r="0.8"/>
					<circle cx="5" cy="191.2" r="0.8"/>
					<circle cx="0" cy="196.6" r="0.8"/>
					<circle cx="14.2" cy="181" r="0.8"/>
					<circle cx="42.9" cy="148.4" r="0.8"/>
					<circle cx="-2.7" cy="175.8" r="0.8"/>
					<circle cx="-7.6" cy="180.4" r="0.8"/>
					<circle cx="26.4" cy="145.1" r="0.8"/>
					<circle cx="21.4" cy="147.2" r="0.8"/>
					<circle cx="18.6" cy="148.9" r="0.8"/>
					<circle cx="28.5" cy="144.6" r="0.8"/>
					<circle cx="24" cy="145.9" r="0.8"/>
					<circle cx="1.9" cy="171.4" r="0.8"/>
					<circle cx="24" cy="152.1" r="0.8"/>
					<circle cx="26.8" cy="150.2" r="0.8"/>
					<circle cx="21" cy="154.4" r="0.8"/>
					<circle cx="31.7" cy="147.5" r="0.8"/>
					<circle cx="17.7" cy="157.1" r="0.8"/>
					<circle cx="10.4" cy="163.6" r="0.8"/>
					<circle cx="6.3" cy="167.4" r="0.8"/>
					<circle cx="14.2" cy="160.2" r="0.8"/>
					<circle cx="29.4" cy="148.6" r="0.8"/>
					<circle cx="33.9" cy="146.8" r="0.8"/>
					<circle cx="35.8" cy="146.5" r="0.8"/>
					<circle cx="21.6" cy="212.6" r="0.8"/>
					<circle cx="1" cy="240.1" r="0.8"/>
					<circle cx="6.6" cy="233" r="0.8"/>
					<circle cx="11.8" cy="226" r="0.8"/>
					<circle cx="16.8" cy="219.2" r="0.8"/>
					<circle cx="-4.8" cy="247.3" r="0.8"/>
					<circle cx="60.9" cy="153.3" r="0.8"/>
					<circle cx="59.5" cy="153.5" r="0.8"/>
					<circle cx="57.9" cy="154.2" r="0.8"/>
					<circle cx="62.2" cy="153.5" r="0.8"/>
					<circle cx="15.5" cy="151" r="0.8"/>
					<circle cx="54.2" cy="156.9" r="0.8"/>
					<circle cx="63.6" cy="156" r="0.8"/>
					<circle cx="50.7" cy="170.6" r="0.8"/>
					<circle cx="55.7" cy="163.9" r="0.8"/>
					<circle cx="44.8" cy="178.9" r="0.8"/>
					<circle cx="53.3" cy="167" r="0.8"/>
					<circle cx="47.8" cy="174.5" r="0.8"/>
					<circle cx="30.3" cy="200.1" r="0.8"/>
					<circle cx="34.3" cy="194.3" r="0.8"/>
					<circle cx="38" cy="188.8" r="0.8"/>
					<circle cx="41.5" cy="183.7" r="0.8"/>
					<circle cx="66.5" cy="154.8" r="0.8"/>
					<ellipse cx="67.7" cy="154.8" rx="0.8" ry="0.8"/>
					<circle cx="60" cy="159" r="0.8"/>
					<circle cx="58" cy="161.2" r="0.8"/>
					<circle cx="65.1" cy="155.1" r="0.8"/>
					<circle cx="61.9" cy="157.3" r="0.8"/>
					<circle cx="26.1" cy="206.2" r="0.8"/>
					<circle cx="35.3" cy="167.9" r="0.8"/>
					<circle cx="41.2" cy="161.3" r="0.8"/>
					<circle cx="38.3" cy="164.4" r="0.8"/>
					<circle cx="46.2" cy="156.4" r="0.8"/>
					<circle cx="43.8" cy="158.6" r="0.8"/>
					<circle cx="32" cy="171.8" r="0.8"/>
					<circle cx="20.6" cy="185.6" r="0.8"/>
					<circle cx="24.7" cy="180.6" r="0.8"/>
					<circle cx="48.4" cy="154.6" r="0.8"/>
					<circle cx="28.5" cy="176" r="0.8"/>
					<circle cx="52" cy="158.9" r="0.8"/>
					<circle cx="16.3" cy="190.8" r="0.8"/>
					<circle cx="52.2" cy="152.3" r="0.8"/>
					<circle cx="50.4" cy="153.2" r="0.8"/>
					<circle cx="55.4" cy="151.8" r="0.8"/>
					<circle cx="53.9" cy="151.8" r="0.8"/>
					<circle cx="11.8" cy="196.3" r="0.8"/>
					<circle cx="1.8" cy="208.1" r="0.8"/>
					<circle cx="-3.6" cy="214.3" r="0.8"/>
					<circle cx="6.9" cy="202.1" r="0.8"/>
					<circle cx="3.9" cy="220.3" r="0.8"/>
					<circle cx="-1.6" cy="227" r="0.8"/>
					<circle cx="14.1" cy="207.4" r="0.8"/>
					<circle cx="-7.4" cy="233.8" r="0.8"/>
					<circle cx="9.2" cy="213.8" r="0.8"/>
					<circle cx="18.8" cy="201.4" r="0.8"/>
					<circle cx="49.7" cy="161.3" r="0.8"/>
					<circle cx="23.2" cy="195.5" r="0.8"/>
					<circle cx="44.4" cy="167.5" r="0.8"/>
					<circle cx="41.5" cy="171.3" r="0.8"/>
					<circle cx="31.2" cy="184.8" r="0.8"/>
					<circle cx="38.3" cy="175.4" r="0.8"/>
					<circle cx="27.3" cy="190" r="0.8"/>
					<circle cx="34.9" cy="179.9" r="0.8"/>
					<circle cx="47.2" cy="164.2" r="0.8"/>
				</g>
			</g>
		</g>
	</g>
</g>
</svg>
