<svg xmlns="http://www.w3.org/2000/svg" width="539.313" height="428.257" viewBox="0 0 539.313 428.257">
    <defs>
        <style>
            .prefix__cls-2{fill:#2de0c7}.prefix__cls-3{fill:#00c2cc}.prefix__cls-5{fill:#d82fea}.prefix__cls-6{fill:#7e18ea}.prefix__cls-7{fill:#5100cb}
        </style>
    </defs>
    <g id="prefix__Grupo_1038" data-name="Grupo 1038" transform="translate(-720.481 -3062.616)">
        <g id="prefix__Grupo_1037" data-name="Grupo 1037">
            <g id="prefix__Grupo_1036" data-name="Grupo 1036" transform="translate(-15082 3471)">
                <path id="prefix__Caminho_2852" d="M15226 9922.6s277.2-168 374.6-108 4.2 266.8-73.2 217.4-152.2 73.2-62.8 102.6 265.4-96.2 292-17.4-30.6 110.8-30.6 110.8" data-name="Caminho 2852" transform="translate(577 -10209)" style="fill:none;stroke:#707070;stroke-width:2px;stroke-dasharray:21"/>
                <g id="prefix__planets" transform="translate(15954 -145)">
                    <path id="prefix__Caminho_2887" d="M328.78 16.273a12.429 12.429 0 11-12.429-12.429 12.429 12.429 0 0112.429 12.429zm0 0" class="prefix__cls-2" data-name="Caminho 2887" transform="translate(-243.007 -3.073)"/>
                    <path id="prefix__Caminho_2888" d="M367.052 16.273a12.439 12.439 0 01-15.263 12.1 12.432 12.432 0 000-24.207 12.439 12.439 0 0115.263 12.1zm0 0" class="prefix__cls-3" data-name="Caminho 2888" transform="translate(-281.28 -3.073)"/>
                    <path id="prefix__Caminho_2889" d="M140.984 91.279a40.381 40.381 0 01-80.118 7.172 39.919 39.919 0 01-.431-3.1 40.785 40.785 0 01.33-10.66q.247-1.5.6-2.955A40.364 40.364 0 01129.1 62.668q1.181 1.176 2.265 2.447a40.212 40.212 0 018.953 18.8 40.65 40.65 0 01.669 7.361zm0 0" data-name="Caminho 2889" transform="translate(-48.159 -40.7)" style="fill:#e667f9"/>
                    <path id="prefix__Caminho_2890" d="M296.063 112.049a1.508 1.508 0 01-.92.4 28.022 28.022 0 00-7.533 2.173c-4.307 1.786-11.075 5.422-18.87 12.608a1.5 1.5 0 11-2.039-2.209c13.182-12.152 23.711-14.844 27.1-15.419q1.181 1.176 2.265 2.447zm0 0" class="prefix__cls-5" data-name="Caminho 2890" transform="translate(-212.86 -87.634)"/>
                    <path id="prefix__Caminho_2891" d="M233 210.444a1.5 1.5 0 01-1.123-2.5 111.634 111.634 0 012.954-3.187 1.5 1.5 0 012.169 2.085c-.959.994-1.925 2.036-2.872 3.1a1.5 1.5 0 01-1.123.5zm0 0" class="prefix__cls-5" data-name="Caminho 2891" transform="translate(-185.1 -163.347)"/>
                    <path id="prefix__Caminho_2892" d="M288 91.279a40.377 40.377 0 01-40.376 40.378c-1.186 0-2.363-.052-3.523-.152a40.38 40.38 0 000-80.451c1.16-.1 2.337-.153 3.523-.153A40.333 40.333 0 01288 91.279zm0 0" class="prefix__cls-5" data-name="Caminho 2892" transform="translate(-195.177 -40.7)"/>
                    <path id="prefix__Caminho_2893" d="M81.3 269.267a48.4 48.4 0 01-13.327 1.8 52.026 52.026 0 01-6.288-.375 39.919 39.919 0 01-.431-3.1 48.48 48.48 0 006.732.451 45.384 45.384 0 0012.477-1.665 1.5 1.5 0 01.836 2.888zm0 0" class="prefix__cls-5" data-name="Caminho 2893" transform="translate(-48.974 -212.941)"/>
                    <path id="prefix__Caminho_2894" d="M178.754 222.987a40.334 40.334 0 01-40.376 40.378 40.25 40.25 0 01-3.523-.152 40.269 40.269 0 01-27.385-14.245c9.112-12.114 22.691-22.358 42.285-22.7a43.722 43.722 0 0021.861-5.913 41.533 41.533 0 006.469-4.726 40.658 40.658 0 01.669 7.362zm0 0" class="prefix__cls-2" data-name="Caminho 2894" transform="translate(-85.929 -172.407)"/>
                    <path id="prefix__Caminho_2895" d="M288 222.987a40.334 40.334 0 01-40.376 40.378 40.25 40.25 0 01-3.523-.152 40.382 40.382 0 0036.847-40.226q0-1.329-.086-2.636a41.532 41.532 0 006.469-4.726 40.657 40.657 0 01.669 7.362zm0 0" class="prefix__cls-3" data-name="Caminho 2895" transform="translate(-195.177 -172.407)"/>
                    <path id="prefix__Caminho_2896" d="M253.213 305.934a40.206 40.206 0 01-1.467 4.319q-.6 1.5-1.327 2.932A40.366 40.366 0 01214.3 335.5a40.25 40.25 0 01-3.523-.152 40.08 40.08 0 01-8.354-1.626 24.723 24.723 0 0011.877-10.45c6-10.339 17.6-16.4 31.85-17.307a60.941 60.941 0 017.064-.036zm0 0" class="prefix__cls-6" data-name="Caminho 2896" transform="translate(-161.85 -244.547)"/>
                    <path id="prefix__Caminho_2897" d="M286.539 305.934a40.393 40.393 0 01-38.914 29.566 40.25 40.25 0 01-3.523-.152 40.408 40.408 0 0035.374-29.383 60.934 60.934 0 017.064-.036zm0 0" class="prefix__cls-7" data-name="Caminho 2897" transform="translate(-195.177 -244.547)"/>
                    <path id="prefix__Caminho_2898" d="M128.08 40.249a65.4 65.4 0 01-6.855 11.663c-6.62 9.42-16.5 20.845-27.822 32.165s-22.745 21.2-32.167 27.824a65.315 65.315 0 01-11.661 6.853 13.212 13.212 0 01-4.872 1.208 3.968 3.968 0 01-2.946-1.084c-2.808-2.808-.109-9.762 8.251-21.265a1.475 1.475 0 01.738-.539q.773 1.233 1.628 2.4c-8.887 12.247-9.144 16.624-8.492 17.277.6.6 4.576.455 15.628-7.309 9.284-6.526 20.566-16.287 31.768-27.489s20.965-22.486 27.489-31.77c7.767-11.05 7.911-15.026 7.312-15.626-.658-.658-5.043-.388-17.279 8.49q-1.247-.914-2.563-1.727a1.534 1.534 0 01.377-.4c11.686-8.547 18.755-11.32 21.586-8.49 1.487 1.488 1.447 4.045-.123 7.819zm0 0" data-name="Caminho 2898" transform="translate(-32.531 -25.074)" style="fill:#c5ee09"/>
                    <path id="prefix__Caminho_2899" d="M128.144 118.881a3.97 3.97 0 01-2.947 1.084 13.192 13.192 0 01-4.87-1.208 65.292 65.292 0 01-11.663-6.853C99.241 105.282 87.819 95.4 76.5 84.081S55.3 61.336 48.674 51.916a65.446 65.446 0 01-6.854-11.663c-1.57-3.775-1.61-6.332-.122-7.819 2.8-2.8 9.729-.121 21.181 8.193a1.507 1.507 0 01.569.83q-1.2.755-2.347 1.6c-12.251-8.891-16.626-9.145-17.279-8.492-.6.6-.453 4.576 7.312 15.626 6.524 9.284 16.287 20.568 27.489 31.77s22.484 20.964 31.768 27.489c11.051 7.764 15.026 7.909 15.627 7.309.658-.657.389-5.043-8.494-17.279a39.582 39.582 0 001.729-2.561 1.432 1.432 0 01.4.374c8.549 11.7 11.327 18.757 8.491 21.592zm0 0" data-name="Caminho 2899" transform="translate(-32.472 -25.077)" style="fill:#edff85"/>
                    <path id="prefix__Caminho_2900" d="M45.861 251.762a6.934 6.934 0 11-6.934-6.934 6.934 6.934 0 016.934 6.934zm0 0" data-name="Caminho 2900" transform="translate(-25.58 -195.757)" style="fill:#9bf2e5"/>
                    <g id="prefix__Grupo_925" data-name="Grupo 925">
                        <path id="prefix__Caminho_2901" d="M65.271 251.76a6.94 6.94 0 01-9 6.62 6.939 6.939 0 000-13.243 6.942 6.942 0 019 6.623zm0 0" class="prefix__cls-2" data-name="Caminho 2901" transform="translate(-44.992 -195.754)"/>
                        <path id="prefix__Caminho_2902" d="M163.183 3.531h-.007a1.5 1.5 0 01-1.5-1.51v-.525a1.5 1.5 0 113.006.014v.525a1.5 1.5 0 01-1.499 1.496zm0 0" class="prefix__cls-2" data-name="Caminho 2902" transform="translate(-129.274)"/>
                        <path id="prefix__Caminho_2903" d="M163.1 30.168h-.008a1.5 1.5 0 01-1.5-1.51v-.525a1.5 1.5 0 113.006.015v.525a1.5 1.5 0 01-1.498 1.495zm0 0" class="prefix__cls-2" data-name="Caminho 2903" transform="translate(-129.206 -21.298)"/>
                        <path id="prefix__Caminho_2904" d="M175.681 17.67h-.532a1.5 1.5 0 01.007-3.006h.532a1.5 1.5 0 01-.007 3.006zm0 0" class="prefix__cls-2" data-name="Caminho 2904" transform="translate(-138.847 -11.722)"/>
                        <path id="prefix__Caminho_2905" d="M149.044 17.588h-.532a1.5 1.5 0 01.007-3.006h.532a1.5 1.5 0 01-.008 3.006zm0 0" class="prefix__cls-2" data-name="Caminho 2905" transform="translate(-117.549 -11.656)"/>
                        <path id="prefix__Caminho_2906" d="M16.164 324.676h-.008a1.5 1.5 0 01-1.5-1.511v-.525a1.5 1.5 0 011.5-1.5h.007a1.5 1.5 0 011.5 1.51v.525a1.5 1.5 0 01-1.5 1.5zm0 0" class="prefix__cls-2" data-name="Caminho 2906" transform="translate(-11.722 -256.778)"/>
                        <path id="prefix__Caminho_2907" d="M16.085 351.312h-.007a1.5 1.5 0 01-1.5-1.51v-.525a1.5 1.5 0 011.5-1.5h.008a1.5 1.5 0 011.5 1.51v.525a1.5 1.5 0 01-1.5 1.5zm0 0" class="prefix__cls-2" data-name="Caminho 2907" transform="translate(-11.659 -278.075)"/>
                        <path id="prefix__Caminho_2908" d="M28.664 338.813h-.532a1.5 1.5 0 01.014-3.006h.525a1.5 1.5 0 01-.007 3.006zm0 0" class="prefix__cls-2" data-name="Caminho 2908" transform="translate(-21.298 -268.499)"/>
                        <path id="prefix__Caminho_2909" d="M2.028 338.731h-.532a1.5 1.5 0 01.007-3.006h.532a1.5 1.5 0 01-.007 3.006zm0 0" class="prefix__cls-2" data-name="Caminho 2909" transform="translate(0 -268.433)"/>
                        <path id="prefix__Caminho_2910" d="M483.91 339.3h-.01a1.5 1.5 0 01-1.5-1.51v-.525a1.5 1.5 0 013.006.014v.525a1.5 1.5 0 01-1.496 1.496zm0 0" class="prefix__cls-2" data-name="Caminho 2910" transform="translate(-385.717 -268.471)"/>
                        <path id="prefix__Caminho_2911" d="M483.828 365.936h-.008a1.5 1.5 0 01-1.5-1.51v-.525a1.5 1.5 0 113.006.015v.525a1.5 1.5 0 01-1.498 1.495zm0 0" class="prefix__cls-2" data-name="Caminho 2911" transform="translate(-385.652 -289.768)"/>
                        <path id="prefix__Caminho_2912" d="M496.411 353.442h-.536a1.5 1.5 0 01.007-3.006h.532a1.5 1.5 0 01-.007 3.006zm0 0" class="prefix__cls-2" data-name="Caminho 2912" transform="translate(-395.293 -280.196)"/>
                        <path id="prefix__Caminho_2913" d="M469.774 353.357h-.532a1.5 1.5 0 01.007-3.006h.532a1.5 1.5 0 01-.007 3.006zm0 0" class="prefix__cls-2" data-name="Caminho 2913" transform="translate(-373.995 -280.127)"/>
                    </g>
                    <path id="prefix__Caminho_2914" d="M136.716 461.432h-.028a1.5 1.5 0 01.007-3.006h.028a1.5 1.5 0 01-.007 3.006zm0 0" class="prefix__cls-3" data-name="Caminho 2914" transform="translate(-108.095 -366.543)"/>
                    <path id="prefix__Caminho_2915" d="M172.427 475.268h-.021a1.5 1.5 0 110-3.006h.021a1.5 1.5 0 110 3.006zm0 0" class="prefix__cls-3" data-name="Caminho 2915" transform="translate(-136.649 -377.606)"/>
                    <path id="prefix__Caminho_2916" d="M272.118 18.752h-.028a1.5 1.5 0 11.014-3.006h.021a1.5 1.5 0 01-.007 3.006zm0 0" class="prefix__cls-3" data-name="Caminho 2916" transform="translate(-216.358 -12.59)"/>
                    <path id="prefix__Caminho_2917" d="M453.243 3.006h-.028A1.5 1.5 0 01453.222 0h.028a1.5 1.5 0 01-.007 3.006zm0 0" class="prefix__cls-3" data-name="Caminho 2917" transform="translate(-361.18)"/>
                    <path id="prefix__Caminho_2918" d="M471.837 14.085h-.028a1.5 1.5 0 01.006-3.006h.029a1.5 1.5 0 01-.007 3.006zm0 0" class="prefix__cls-3" data-name="Caminho 2918" transform="translate(-376.048 -8.858)"/>
                    <path id="prefix__Caminho_2919" d="M32.634 215.776h-.028a1.5 1.5 0 01.007-3.006h.028a1.5 1.5 0 01-.007 3.006zm0 0" class="prefix__cls-3" data-name="Caminho 2919" transform="translate(-24.874 -170.124)"/>
                    <path id="prefix__Caminho_2920" d="M176.509 121.827c0-3.035-3.882-5.5-8.669-5.5s-8.669 2.46-8.669 5.5 3.881 5.495 8.669 5.495 8.669-2.46 8.669-5.495zm0 0" class="prefix__cls-6" data-name="Caminho 2920" transform="translate(-127.269 -93.016)"/>
                    <path id="prefix__Caminho_2921" d="M159.172 121.828c0-3.037 3.88-5.5 8.669-5.5 4.724 0 8.568 2.395 8.667 5.378a10.925 10.925 0 00-6.931-2.195c-4.786 0-8.669 2.459-8.669 5.5v.117a4.362 4.362 0 01-1.738-3.3zm0 0" class="prefix__cls-7" data-name="Caminho 2921" transform="translate(-127.269 -93.016)"/>
                    <path id="prefix__Caminho_2922" d="M281.334 69.279a1.484 1.484 0 01-.82.365 38.152 38.152 0 00-17.06 6.548 1.5 1.5 0 01-1.832-2.385 40.451 40.451 0 0115.455-6.662 40.313 40.313 0 014.257 2.134zm0 0" class="prefix__cls-5" data-name="Caminho 2922" transform="translate(-208.716 -53.687)"/>
                    <path id="prefix__Caminho_2923" d="M73.42 207.793a1.5 1.5 0 01-1.5 1.4h-.1a46.3 46.3 0 01-8.92-1.493q.247-1.5.6-2.955c.261.077 1.134.321 2.429.6a44.561 44.561 0 006.091.853 1.5 1.5 0 011.4 1.595zm0 0" class="prefix__cls-5" data-name="Caminho 2923" transform="translate(-50.292 -163.706)"/>
                    <path id="prefix__Caminho_2924" d="M386.933 327.337q-.6 1.5-1.327 2.932c-2.307.154-8.947.7-11.994 2.061a1.48 1.48 0 01-.611.132 1.5 1.5 0 01-.611-2.879c4.217-1.88 13.489-2.346 13.88-2.367a1.5 1.5 0 01.663.121zm0 0" class="prefix__cls-7" data-name="Caminho 2924" transform="translate(-297.037 -261.631)"/>
                </g>
            </g>
        </g>
    </g>
</svg>
