<svg xmlns="http://www.w3.org/2000/svg" width="808.098" height="185.529" viewBox="0 0 808.098 185.529">
    <defs>
        <style>
            .prefix__cls-2{fill:#03aa6f}
        </style>
    </defs>
    <g id="prefix__Grupo_1039" data-name="Grupo 1039" transform="translate(-374.785 -3891.142)">
        <path id="prefix__Caminho_2854" d="M14848.484 11173.636s-64.621 113.637 24.242 151.516 230 48.485 331.212 0 163.864-96.439 270.91-115.151 157.272 40.3 157.272 40.3" data-name="Caminho 2854" transform="translate(-14450 -7282)" style="fill:none;stroke:#707070;stroke-width:2px;stroke-dasharray:21"/>
        <g id="prefix__worldwide" transform="translate(763 3957.934)">
            <g id="prefix__Grupo_926" data-name="Grupo 926" transform="translate(3.773 3.579)">
                <path id="prefix__Caminho_2925" d="M312.571 36.874l-5.018 3.346-8.363-1.673-5.018-1.673-6.69 1.673-5.018-1.673 3.345-6.692h6.69l6.556-3.279a47.9 47.9 0 0113.516 9.971z" class="prefix__cls-2" data-name="Caminho 2925" transform="translate(-232.724 -25.33)"/>
                <path id="prefix__Caminho_2926" d="M61.294 23.456l-1.673 5.019-5.021 1.673-5.018 8.365-8.363 5.019L29.516 45.2v5.019l3.345 3.346v6.692l-5.017-3.346-5.018-3.346-2.91-8.75A48.479 48.479 0 0146.509 18.6l4.75 3.179z" class="prefix__cls-2" data-name="Caminho 2926" transform="translate(-19.916 -18.604)"/>
                <path id="prefix__Caminho_2927" d="M105.713 227l-1.672 8.365-6.69 6.692v5.019l-6.69 5.019v8.365l-5.017-1.673-3.344-8.368V233.69l-8.363-1.673-3.345-6.692v-5.019l3.345-3.346 5.018-5.019 3.345 6.692h11.705L99.023 227z" class="prefix__cls-2" data-name="Caminho 2927" transform="translate(-60.99 -175.303)"/>
                <path id="prefix__Caminho_2928" d="M312.609 117.892a48.479 48.479 0 01-2.676 51.644l-4.516-4.517v-6.692l-3.345-6.692-3.345-6.692v-6.692l-5.018-3.346-6.69 1.673-11.708-5.019-1.672-11.711 5.018-5.019h10.035l3.345 5.019 10.035 1.673 10.035-3.346z" class="prefix__cls-2" data-name="Caminho 2928" transform="translate(-225.57 -96.595)"/>
            </g>
            <path id="prefix__Caminho_2929" d="M58.532 16.8l6.69-1.673L70.24 16.8l8.36 1.669 5.018-3.346a47.777 47.777 0 017.192 9.753l-.5.284-10.035 3.347-10.035-1.673-3.345-5.019H56.86l-5.018 5.019 1.673 11.711 11.708 5.019 6.69-1.673 5.018 3.346v6.692l3.345 6.692 3.345 6.692V72l4.516 4.517A48.506 48.506 0 013.773 29.795l2.91 8.75L11.7 41.89l5.018 3.346-3.345 3.346V53.6l3.345 6.692 8.363 1.673V78.7l3.345 8.365 5.018 1.673v-8.369l6.69-5.019v-5.019l6.69-6.692 1.676-8.365h-6.69l-5.018-8.365H25.081l-3.345-6.692-5.018 5.019v-6.692L13.374 35.2v-5.02l11.708-1.673 8.363-5.019 5.018-8.365 5.018-1.673 1.672-5.019-10.036-1.673-4.75-3.179a48.5 48.5 0 0139.739 1.573L63.55 8.431h-6.69l-3.345 6.692z" data-name="Caminho 2929" style="fill:#86daf1"/>
        </g>
    </g>
</svg>
