<svg xmlns="http://www.w3.org/2000/svg" width="34.464" height="33.474" viewBox="0 0 34.464 33.474">
    <defs>
        <style>
            .cls-1{fill:#6a6a6a}
        </style>
    </defs>
    <g id="call-answer" transform="translate(0 -.394)">
        <g id="Grupo_678" data-name="Grupo 678" transform="translate(0 .394)">
            <g id="Grupo_677" data-name="Grupo 677">
                <path id="Caminho_1742" d="M33.691 26.87l-5.322-5.182a2.829 2.829 0 0 0-3.913.072l-2.681 2.61-.529-.287a26.687 26.687 0 0 1-6.45-4.541 26.144 26.144 0 0 1-4.674-6.29c-.1-.175-.194-.343-.288-.5L11.632 11l.885-.862a2.649 2.649 0 0 0 .071-3.809L7.266 1.145a2.826 2.826 0 0 0-3.913.072l-1.5 1.469.041.04A8.388 8.388 0 0 0 .658 4.848 8.609 8.609 0 0 0 .108 7c-.7 5.672 1.96 10.855 9.185 17.889 9.988 9.722 18.037 8.988 18.384 8.952A9.194 9.194 0 0 0 29.9 33.3a8.71 8.71 0 0 0 2.172-1.2l.033.028 1.52-1.449a2.653 2.653 0 0 0 .066-3.809z" class="cls-1" data-name="Caminho 1742" transform="translate(0 -.394)"/>
            </g>
        </g>
    </g>
</svg>
