<svg xmlns="http://www.w3.org/2000/svg" width="31.567" height="30.188" viewBox="0 0 31.567 30.188">
    <defs>
        <style>
            .cls-1{fill:#fff}
        </style>
    </defs>
    <path id="Caminho_2" d="M29.449 13.071a15.807 15.807 0 0 0-13.666-7.706 15.808 15.808 0 0 0-13.666 7.706A14.906 14.906 0 0 0 0 20.837a14.839 14.839 0 0 0 3.011 9.1 15.443 15.443 0 0 0 7.778 5.59.934.934 0 0 0 .822-.141.781.781 0 0 0 .267-.6l-.01-1.088q-.01-1.028-.01-1.793l-.473.08a6.149 6.149 0 0 1-1.141.071 8.859 8.859 0 0 1-1.428-.141 3.223 3.223 0 0 1-1.377-.6 2.559 2.559 0 0 1-.9-1.239l-.21-.476a5.018 5.018 0 0 0-.647-1.027 2.467 2.467 0 0 0-.894-.765l-.144-.1a1.5 1.5 0 0 1-.267-.242 1.1 1.1 0 0 1-.185-.282q-.062-.141.1-.232a1.357 1.357 0 0 1 .6-.09l.411.06a3.027 3.027 0 0 1 1.017.483 3.278 3.278 0 0 1 1 1.047 3.576 3.576 0 0 0 1.141 1.259 2.453 2.453 0 0 0 1.346.433 5.958 5.958 0 0 0 1.171-.1 4.144 4.144 0 0 0 .925-.3 3.24 3.24 0 0 1 1.007-2.075 14.329 14.329 0 0 1-2.11-.369 8.482 8.482 0 0 1-1.932-.786 5.508 5.508 0 0 1-1.654-1.35 6.439 6.439 0 0 1-1.079-2.115 9.875 9.875 0 0 1-.421-3.022 5.812 5.812 0 0 1 1.624-4.15 5.317 5.317 0 0 1 .144-4.11 2.932 2.932 0 0 1 1.767.272 12.473 12.473 0 0 1 1.716.776q.545.322.873.544a15.13 15.13 0 0 1 7.892 0l.781-.483a11.158 11.158 0 0 1 1.89-.887 2.743 2.743 0 0 1 1.665-.221 5.266 5.266 0 0 1 .164 4.11 5.813 5.813 0 0 1 1.624 4.15 9.985 9.985 0 0 1-.421 3.032 6.19 6.19 0 0 1-1.089 2.115 5.722 5.722 0 0 1-1.665 1.34 8.5 8.5 0 0 1-1.932.786 14.313 14.313 0 0 1-2.106.363 3.55 3.55 0 0 1 1.068 2.861v4.25a.8.8 0 0 0 .257.6.907.907 0 0 0 .812.141 15.441 15.441 0 0 0 7.779-5.59 14.842 14.842 0 0 0 3.011-9.1 14.919 14.919 0 0 0-2.119-7.755z" class="cls-1" data-name="Caminho 2" transform="translate(0 -5.365)"/>
</svg>
