<svg xmlns="http://www.w3.org/2000/svg" width="15.9" height="30.188" viewBox="0 0 15.9 30.188">
    <defs>
        <style>
            .cls-1{fill:#fff}
        </style>
    </defs>
    <path id="Caminho_3" d="M37.378.006L33.565 0c-4.285 0-7.053 2.916-7.053 7.429v3.425h-3.835a.608.608 0 0 0-.6.616v4.963a.608.608 0 0 0 .6.616h3.834v12.523a.608.608 0 0 0 .6.616h5a.608.608 0 0 0 .6-.616V17.049H37.2a.608.608 0 0 0 .6-.616V11.47a.625.625 0 0 0-.176-.435.592.592 0 0 0-.424-.181h-4.487v-2.9c0-1.4.324-2.1 2.1-2.1h2.569a.608.608 0 0 0 .6-.616V.622a.608.608 0 0 0-.604-.616z" class="cls-1" data-name="Caminho 3" transform="translate(-22.077)"/>
</svg>
