<svg xmlns="http://www.w3.org/2000/svg" width="1920.064" height="455.021" viewBox="0 0 1920.064 455.021">
    <defs>
        <style>
            .cls-1{fill:#f8f9fa}.cls-2,.cls-3,.cls-4,.cls-5{stroke:#000}.cls-2{font-size:39px}.cls-2,.cls-4{font-family:Montserrat-Regular,Montserrat}.cls-3,.cls-4{font-size:41px}.cls-3{font-family:Montserrat-Bold,Montserrat;font-weight:700}.cls-10,.cls-5{fill:none;stroke-width:2px}.cls-5{stroke-dasharray:20;opacity:.77}.cls-6{fill:#efc75e}.cls-7{fill:#deb957}.cls-8{fill:url(#linear-gradient)}.cls-9{fill:#d0d0d0}.cls-10{stroke:#39393a;stroke-dasharray:19}
        </style>
        <linearGradient id="linear-gradient" x1=".5" x2=".5" y2="1" gradientUnits="objectBoundingBox">
            <stop offset="0" stop-color="#00f2fe"/>
            <stop offset=".021" stop-color="#03effe"/>
            <stop offset=".293" stop-color="#24d2fe"/>
            <stop offset=".554" stop-color="#3cbdfe"/>
            <stop offset=".796" stop-color="#4ab0fe"/>
            <stop offset="1" stop-color="#4facfe"/>
        </linearGradient>
    </defs>
    <g id="Grupo_1023" data-name="Grupo 1023" transform="translate(.064 -1131.63)">
        <g id="Grupo_1019" data-name="Grupo 1019">
            <g id="Grupo_1018" data-name="Grupo 1018">
                <path id="Ret창ngulo_524" d="M0 0h1920v453H0z" class="cls-1" data-name="Ret창ngulo 524" transform="translate(0 1133)"/>
                <g id="Grupo_952" data-name="Grupo 952" transform="translate(0 -4104)">
                    <text id="A" class="cls-2" transform="rotate(2 -156716.222 12130.723)">
                        <tspan x="0" y="0">A</tspan>
                    </text>
                    <text id="Z" class="cls-3" transform="rotate(-4.01 77993.39 -2959.031)">
                        <tspan x="0" y="40">Z</tspan>
                    </text>
                    <text id="P" class="cls-3" transform="translate(437 5449)">
                        <tspan x="0" y="40">P</tspan>
                    </text>
                    <text id="p-2" class="cls-4" data-name="p" transform="rotate(-5.13 62653.278 -3039.792)">
                        <tspan x="0" y="40">p</tspan>
                    </text>
                    <text id="o" class="cls-4" transform="rotate(-5.13 62661.922 -3477.797)">
                        <tspan x="0" y="40">o</tspan>
                    </text>
                    <text id="d" class="cls-4" transform="rotate(-5.13 62635.64 -3906.166)">
                        <tspan x="0" y="40">d</tspan>
                    </text>
                    <text id="e" class="cls-4" transform="rotate(-5.13 62583.891 -4324.384)">
                        <tspan x="0" y="40">e</tspan>
                    </text>
                    <text id="f" class="cls-4" transform="rotate(-3 103893.46 -10808.432)">
                        <tspan x="0" y="40">f</tspan>
                    </text>
                    <text id="a-2" class="cls-4" data-name="a" transform="rotate(-3 103795.163 -11203.566)">
                        <tspan x="0" y="40">a</tspan>
                    </text>
                    <text id="z-2" class="cls-4" data-name="z" transform="rotate(-2 154976.217 -19044.091)">
                        <tspan x="0" y="40">z</tspan>
                    </text>
                    <text id="e-2" class="cls-4" data-name="e" transform="translate(791 5411)">
                        <tspan x="0" y="40">e</tspan>
                    </text>
                    <text id="r" class="cls-4" transform="translate(823 5410)">
                        <tspan x="0" y="40">r</tspan>
                    </text>
                    <text id="o-2" class="cls-4" data-name="o" transform="translate(888 5411)">
                        <tspan x="0" y="40">o</tspan>
                    </text>
                    <text id="s" class="cls-4" transform="rotate(6.02 -50923.253 11930.685)">
                        <tspan x="0" y="40">s</tspan>
                    </text>
                    <text id="e-3" class="cls-4" data-name="e" transform="rotate(10.02 -30392.68 8431.325)">
                        <tspan x="0" y="40">e</tspan>
                    </text>
                    <text id="u" class="cls-4" transform="rotate(14 -21576.988 6938.908)">
                        <tspan x="0" y="40">u</tspan>
                    </text>
                    <text id="n" class="cls-4" transform="rotate(14 -21620.94 7287.92)">
                        <tspan x="0" y="40">n</tspan>
                    </text>
                    <text id="e-4" class="cls-4" data-name="e" transform="rotate(11 -27760.85 8694.8)">
                        <tspan x="0" y="40">e</tspan>
                    </text>
                    <text id="g" class="cls-4" transform="rotate(12.04 -25371.483 8361.657)">
                        <tspan x="0" y="40">g</tspan>
                    </text>
                    <text id="처" class="cls-4" transform="rotate(9 -34181.918 10438.8)">
                        <tspan x="0" y="40">처</tspan>
                    </text>
                    <text id="c" class="cls-4" transform="rotate(14.98 -20190.379 7482.791)">
                        <tspan x="0" y="40">c</tspan>
                    </text>
                    <text id="i" class="cls-4" transform="rotate(9 -34248.585 10855.887)">
                        <tspan x="0" y="40">i</tspan>
                    </text>
                    <text id="o-3" class="cls-4" data-name="o" transform="rotate(7 -44269.402 13292.329)">
                        <tspan x="0" y="40">o</tspan>
                    </text>
                    <text id="d-2" class="cls-3" data-name="d" transform="rotate(-5.13 63829.352 -12619.398)">
                        <tspan x="0" y="40">d</tspan>
                    </text>
                    <text id="e-5" class="cls-3" data-name="e" transform="rotate(-10.02 32072.768 -5138.83)">
                        <tspan x="0" y="40">e</tspan>
                    </text>
                    <text id="c-2" class="cls-3" data-name="c" transform="rotate(-12.04 26849.423 -3950.273)">
                        <tspan x="0" y="40">c</tspan>
                    </text>
                    <text id="o-4" class="cls-3" data-name="o" transform="rotate(-14 23085.833 -3116.097)">
                        <tspan x="0" y="40">o</tspan>
                    </text>
                    <text id="l" class="cls-3" transform="rotate(-14.98 21550.033 -2857.984)">
                        <tspan x="0" y="40">l</tspan>
                    </text>
                    <text id="a-3" class="cls-3" data-name="a" transform="rotate(-14 23055.833 -3325.71)">
                        <tspan x="0" y="40">a</tspan>
                    </text>
                    <text id="r-2" class="cls-3" data-name="r" transform="rotate(-18.01 18040.25 -2046.106)">
                        <tspan x="0" y="40">r</tspan>
                    </text>
                    <text id="_" class="cls-3" data-name="!" transform="rotate(-18.01 18025.327 -2156.084)">
                        <tspan x="0" y="40">!</tspan>
                    </text>
                    <g id="Grupo_951" data-name="Grupo 951">
                        <g id="Grupo_847" data-name="Grupo 847" transform="translate(91 3318)">
                            <path id="Caminho_446" d="M-84.7 5014.756s231.068-405.686 274.815-231.312-204.228 321.02-153.171 21.21S-4.992 4312.193 115.312 4023s93.2-284.435 37.427-634" class="cls-5" data-name="Caminho 446" transform="rotate(83.98 1581.52 3598.019)"/>
                            <path id="Caminho_436" d="M23.713 24.391a12.308 12.308 0 0 0 .293-16.973C19.559 2.844 6.323-2.977 1.715 1.768S2.772 20.13 7.219 24.7a11.483 11.483 0 0 0 16.494-.309z" class="cls-6" data-name="Caminho 436" transform="rotate(-79 2131.241 79.478)"/>
                            <path id="Caminho_437" d="M0 16.525l.009-.5C.163 7.372 7.157.17 15.566.011L15.889 0a12.4 12.4 0 0 1-2.425 14.019A11.528 11.528 0 0 1 0 16.525z" class="cls-7" data-name="Caminho 437" transform="rotate(-79 2132.447 68.127)"/>
                            <path id="Caminho_438" d="M55.826 57.416C69.9 42.926 73 22.657 60.131 9.426l-6.115-6.289C41.151-10.093 49.647 22.1 35.575 36.59s-45.441 5.685-32.5 19l6.115 6.289c12.865 13.23 32.561 10.029 46.633-4.46z" data-name="Caminho 438" transform="rotate(-79 2131.18 88.487)"/>
                            <path id="Caminho_439" d="M82.027 84.42c4.279-4.406 2.894-31.827-22.438-57.963C43.069 9.552 32.583 3.679 32.583 3.679 21.479-3.929 15.97 1.5 8.729 8.955S-3.864 22.085 3.617 33.5c0 0 5.793 10.869 22.231 27.858C51.18 87.416 77.746 88.909 82.027 84.42z" class="cls-8" data-name="Caminho 439" transform="rotate(-79 2133.466 67.505)"/>
                            <path id="Caminho_440" d="M36.965 7.3C25.381-.547 19.626 5.052 12.138 12.763 4.567 20.558-.949 26.4 6.847 38.314l1.178 1.974a74.882 74.882 0 0 1-4.408-6.82c-7.481-11.42-2.129-17.093 5.112-24.55s12.749-12.8 23.854-5.276c0 0 4.962 2.817 13.486 10.058a83.409 83.409 0 0 0-9.104-6.4z" data-name="Caminho 440" transform="rotate(-79 2133.488 67.486)"/>
                            <path id="Caminho_441" d="M17.159 17.654a10.614 10.614 0 0 0 .254-14.727A9.907 9.907 0 0 0 3.1 3.2a10.615 10.615 0 0 0-.254 14.727 9.907 9.907 0 0 0 14.313-.273z" class="cls-9" data-name="Caminho 441" transform="rotate(-79 2138.236 24.593)"/>
                            <path id="Caminho_442" d="M29.739 30.534c2.057-2.118-1.7-9.45-11.384-19.413S2.73-1.476.672.726c-2.057 2.118.424 8.226 10.112 18.19 9.769 9.962 16.816 13.821 18.955 11.618z" data-name="Caminho 442" transform="rotate(-79 2132.798 65.24)"/>
                            <path id="Caminho_443" d="M10.054 18.579a7.915 7.915 0 0 0 5.513-2.457 8.372 8.372 0 0 0 2.384-5.675 7.79 7.79 0 0 0-2.19-5.588A7.347 7.347 0 0 0 10.33 2.61a7.915 7.915 0 0 0-5.512 2.457 8.372 8.372 0 0 0-2.384 5.675 7.79 7.79 0 0 0 2.19 5.588 7.346 7.346 0 0 0 5.431 2.25m-.044 2.52a9.4 9.4 0 0 1-7.133-2.974 10.723 10.723 0 0 1 .257-14.875 10.464 10.464 0 0 1 7.24-3.246 9.4 9.4 0 0 1 7.133 2.974 10.723 10.723 0 0 1-.257 14.876 10.121 10.121 0 0 1-7.24 3.245z" data-name="Caminho 443" transform="rotate(-79 2138.287 24.68)"/>
                            <path id="Caminho_444" d="M.007 25.056A30.948 30.948 0 0 1 8.7 8.506 31.321 31.321 0 0 1 22.667.007c5.1 13.544 4.515 24.035 2.045 26.66-2.388 2.541-12.098 3.14-24.705-1.611z" data-name="Caminho 444" transform="rotate(-79 2139.838 3.864)"/>
                        </g>
                        <g id="Grupo_848" data-name="Grupo 848" transform="translate(12 3332)">
                            <path id="Caminho_2578" d="M10386.65 1978.5s-52.3-23.3-78.65-25" class="cls-10" data-name="Caminho 2578" transform="translate(-10320 90)"/>
                        </g>
                    </g>
                </g>
            </g>
        </g>
    </g>
</svg>
