<svg xmlns="http://www.w3.org/2000/svg" width="497.363" height="541.031" viewBox="0 0 497.363 541.031">
    <defs>
        <style>
            .cls-1{fill:#f4ad91}.cls-2,.cls-4{fill:#fff}.cls-2{stroke:#000;stroke-miterlimit:10}.cls-3{fill:#eb8371}.cls-10,.cls-11,.cls-5,.cls-6,.cls-7,.cls-9{fill:none}.cls-5{stroke:#61daf8}.cls-5,.cls-9{stroke-width:10px}.cls-6{stroke:#4052a9}.cls-10,.cls-6,.cls-7{stroke-width:5px}.cls-7{stroke:rgba(0,25,141,.55)}.cls-8{fill:#7380c0}.cls-9{stroke:#00198d}.cls-10{stroke:rgba(0,25,141,.75)}.cls-11{stroke:#454545;stroke-width:2.5px}.cls-12{filter:url(#Caminho_1591)}.cls-13{filter:url(#Caminho_1590)}.cls-14{filter:url(#base)}
        </style>
        <filter id="base" width="336.067" height="451.271" x="0" y="0" filterUnits="userSpaceOnUse">
            <feOffset dx="-10" dy="22"/>
            <feGaussianBlur result="blur" stdDeviation="17"/>
            <feFlood flood-opacity=".102"/>
            <feComposite in2="blur" operator="in"/>
            <feComposite in="SourceGraphic"/>
        </filter>
        <filter id="Caminho_1590" width="185.369" height="97.947" x="67.781" y="140.957" filterUnits="userSpaceOnUse">
            <feOffset dy="3"/>
            <feGaussianBlur result="blur-2" stdDeviation="3"/>
            <feFlood flood-opacity=".29"/>
            <feComposite in2="blur-2" operator="in"/>
            <feComposite in="SourceGraphic"/>
        </filter>
        <filter id="Caminho_1591" width="150.656" height="65.187" x="130.36" y="298.311" filterUnits="userSpaceOnUse">
            <feOffset dy="3"/>
            <feGaussianBlur result="blur-3" stdDeviation="3"/>
            <feFlood flood-opacity=".29"/>
            <feComposite in2="blur-3" operator="in"/>
            <feComposite in="SourceGraphic"/>
        </filter>
    </defs>
    <g id="Grupo_52" data-name="Grupo 52" transform="translate(36.742 30.667)">
        <path id="Caminho_374" d="M969.554 682.905c-3.239-2.463-7.977-5.408-10.173-6.834a42.919 42.919 0 0 0-6.192-3.2 7.979 7.979 0 0 0-3.244-.872c-.2 0-3.388.025-5.013 2.326-.58.821-.855 1.783-.885 3.78a31.693 31.693 0 0 0 1.769 9.6z" class="cls-1" data-name="Caminho 374" transform="translate(-876.79 -661.546)"/>
        <g id="Grupo_46" data-name="Grupo 46" transform="translate(3.619 61.793)">
            <path id="Caminho_375" d="M804.826 910.286c-22.705-16.576-31.2-28.306-34.8-32.57-.442-.524-.8-1.037-.885-1.163-.861-1.25-3.715-5.395-2.654-10.178.2-.9.881-3.97 3.539-5.525a7.8 7.8 0 0 1 4.423-.872 27.834 27.834 0 0 1 10.91 2.908 258.02 258.02 0 0 0 12.68 5.234z" class="cls-1" data-name="Caminho 375" transform="translate(-766.258 -859.968)"/>
            <path id="Caminho_381" d="M805.589 927.467l-6.782-38.967-.59 25.881a59.847 59.847 0 0 1-12.974-6.4c-5-2.7-11.937-6.247-15.923-13.377-.436-.779-1.417-2.429-1.769-3.2a11.8 11.8 0 0 0 1.474 3.78c.633 1.037 1.542 2.054 2.064 2.908.427.7 1.464 1.629 2.949 3.49a131.617 131.617 0 0 0 4.423 5.234c.955 1.082 1.769 1.686 2.359 2.326l1.474 1.454 1.769 1.745a97.769 97.769 0 0 0 5.6 5.525q1.337 1.216 2.654 2.326 2 1.733 4.128 3.49 2.386 1.967 4.718 3.78 1.3 1.015 2.654 2.036c1.189.9 1.485 1.189 2.654 2.036z" class="cls-3" data-name="Caminho 381" transform="translate(-767.169 -880.203)"/>
        </g>
        <g id="Grupo_48" data-name="Grupo 48" transform="translate(0 108.196)">
            <g id="Grupo_47" data-name="Grupo 47" transform="translate(.036)">
                <path id="Caminho_376" d="M751.146 1027.553c-.861-1.25-3.715-5.4-2.654-10.178.2-.9.881-3.97 3.539-5.525a7.8 7.8 0 0 1 4.423-.872 104.039 104.039 0 0 1 15.039 2.617c11.409 2.874 21.317 11.067 23.242 11.906l9.195 48.872c-11.922-8.452-26.142-18.561-35.975-27.626a216.188 216.188 0 0 1-14.744-16.576q-1.05-1.31-2.065-2.618z" class="cls-1" data-name="Caminho 376" transform="translate(-748.259 -1010.968)"/>
            </g>
            <path id="Caminho_383" d="M785.707 1027.9l8.846 4.944 2.064 11.05c1.474 6.979 3.833 19.775 3.833 19.775l3.244 17.739-4.718-2.908a1076.912 1076.912 0 0 1-11.5-8.433c-11.457-8.517-14.1-10.831-15.628-12.214-1.658-1.5-4.644-4.585-10.615-10.76 0 0-3.23-3.34-9.436-11.05a18.533 18.533 0 0 1-1.769-2.617 12.936 12.936 0 0 1-1.769-4.653 10.976 10.976 0 0 1 .295-4.653 10.571 10.571 0 0 1 1.18-2.617 14.624 14.624 0 0 0 .295 5.816c1.173 4.473 4.305 7.214 6.487 9.015A126.947 126.947 0 0 0 777.155 1050a251.088 251.088 0 0 0 18.282 8.433 72.419 72.419 0 0 0-5.6-22.683z" class="cls-3" data-name="Caminho 383" transform="translate(-748.135 -1018.437)"/>
        </g>
        <g id="Grupo_49" data-name="Grupo 49" transform="translate(18.103 226.977)">
            <path id="Caminho_379" d="M854.217 1457.953a182.3 182.3 0 0 1-29.193-3.78c-.69-.161-14.2-3.413-22.411-9.6a27.974 27.974 0 0 1-6.782-8.433 5.468 5.468 0 0 1-.885-3.49c.423-2.86 3.774-4.373 4.423-4.653l49.834 1.454z" class="cls-1" data-name="Caminho 379" transform="translate(-794.905 -1428)"/>
            <path id="Caminho_384" d="M849.512 1432.5l5.013 28.5a133.482 133.482 0 0 1-25.36-2.908 96.66 96.66 0 0 1-17.987-5.525 32.056 32.056 0 0 1-8.257-4.943 29.3 29.3 0 0 1-2.949-2.908 27.65 27.65 0 0 1-2.949-4.071l-.885-1.454-.59-1.454a91.31 91.31 0 0 0 10.321 4.362 97.948 97.948 0 0 0 20.052 4.653 123.732 123.732 0 0 0 20.641 1.163 49.111 49.111 0 0 0-7.372-15.413z" class="cls-3" data-name="Caminho 384" transform="translate(-795.36 -1431.191)"/>
        </g>
        <g id="Grupo_43" data-name="Grupo 43" transform="rotate(-13 173.728 -35.987)">
            <g id="Grupo_23" data-name="Grupo 23">
                <g id="Grupo_18" data-name="Grupo 18" transform="translate(11.763 .095)">
                    <g id="Group_4" data-name="Group 4">
                        <g id="Group">
                            <g class="cls-14" transform="matrix(.97 .22 -.22 .97 -44.31 -78.24)">
                                <path id="base-2" d="M23.821.193l116.393.943c13.156.107 23.906 10.285 24.01 22.735l2.3 274.029c.1 12.45-10.476 22.456-23.632 22.349L26.5 319.306c-13.161-.106-23.91-10.285-24.015-22.735L.189 22.542C.085 10.092 10.665.086 23.821.193z" data-name="base" transform="rotate(-13 321.207 -233.55)"/>
                            </g>
                            <path id="Screen" d="M124.883 305.086H24.3a24.3 24.3 0 0 1-24.3-24.3V24.3A24.3 24.3 0 0 1 24.3 0h100.583a24.3 24.3 0 0 1 24.3 24.3v256.486a24.3 24.3 0 0 1-24.3 24.3zM34.637.281A11.033 11.033 0 0 0 45.658 11.3h58.318A11.033 11.033 0 0 0 115 .281z" class="cls-4" transform="translate(7.246 6.861)"/>
                        </g>
                    </g>
                </g>
                <path id="Linha_1" d="M0 0l65.353.529" class="cls-5" data-name="Linha 1" transform="translate(29.684 72.123)"/>
                <path id="Linha_2" d="M0 0l130.052 1.054" class="cls-6" data-name="Linha 2" transform="translate(29.819 88.203)"/>
                <path id="Linha_3" d="M0 0l85.612.694" class="cls-7" data-name="Linha 3" transform="translate(29.907 98.716)"/>
                <g class="cls-13" transform="matrix(.97 .22 -.22 .97 -32.54 -78.15)">
                    <path id="Caminho_1590-2" d="M6.887.056L154.292 1.25a6.912 6.912 0 0 1 6.943 6.714l.254 30.27a6.642 6.642 0 0 1-6.831 6.6L7.252 43.642a6.912 6.912 0 0 1-6.943-6.714L.056 6.658A6.642 6.642 0 0 1 6.887.056z" class="cls-8" data-name="Caminho 1590" transform="rotate(-13 842.45 -245.023)"/>
                </g>
                <path id="Linha_4" d="M0 0l65.353.529" class="cls-9" data-name="Linha 4" transform="translate(27.957 177.855)"/>
                <path id="Caminho_2473" d="M0 0l130.052 1.054" class="cls-10" data-name="Caminho 2473" transform="translate(28.091 193.934)"/>
                <path id="Caminho_2474" d="M0 0l85.612.694" class="cls-7" data-name="Caminho 2474" transform="translate(28.179 204.447)"/>
                <path id="Linha_7" d="M0 0l65.353.529" class="cls-9" data-name="Linha 7" transform="translate(29.03 227.953)"/>
                <path id="Caminho_2475" d="M0 0l130.052 1.054" class="cls-10" data-name="Caminho 2475" transform="translate(29.165 244.033)"/>
                <path id="Caminho_2476" d="M0 0l85.612.694" class="cls-7" data-name="Caminho 2476" transform="translate(29.253 254.546)"/>
                <g class="cls-12" transform="matrix(.97 .22 -.22 .97 -32.54 -78.15)">
                    <path id="Caminho_1591-2" d="M8.805.071L123.195 1a8.837 8.837 0 0 1 8.877 8.584 8.493 8.493 0 0 1-8.734 8.442L8.948 17.1A8.837 8.837 0 0 1 .071 8.513 8.493 8.493 0 0 1 8.805.071z" class="cls-8" data-name="Caminho 1591" transform="rotate(-13 1535.156 -444.204)"/>
                </g>
                <path id="Caminho_2477" d="M0 0l65.353.529" class="cls-9" data-name="Caminho 2477" transform="translate(11.219 130.103)"/>
                <path id="Linha_11" d="M0 0l123.54 1.001" class="cls-10" data-name="Linha 11" transform="translate(11.315 141.508)"/>
                <path id="Caminho_2472" d="M0 0l85.612.694" class="cls-7" data-name="Caminho 2472" transform="translate(11.377 148.965)"/>
                <path id="Caminho_313" d="M0 0l16.338.132" class="cls-11" data-name="Caminho 313" transform="translate(29.41 39.346)"/>
                <path id="Caminho_314" d="M0 0l16.338.132" class="cls-11" data-name="Caminho 314" transform="translate(29.446 43.675)"/>
                <path id="Caminho_315" d="M0 0l16.338.132" class="cls-11" data-name="Caminho 315" transform="translate(29.482 48.004)"/>
            </g>
        </g>
        <g id="Grupo_45" data-name="Grupo 45" transform="translate(164.87 95.971)">
            <g id="Grupo_44" data-name="Grupo 44">
                <path id="Caminho_385" d="M1467.329 1391.893a151.135 151.135 0 0 1 38.334-24.718c6.705-3 11.147-4.4 14.154-5.525 13.254-4.966 31.395-16.934 51.013-48.564l-73.424-71.247-44.231-50.6-24.77-31.406a126.547 126.547 0 0 1-5.013-27.336 125.554 125.554 0 0 1-.295-11.05l-4.423-66.012a33.892 33.892 0 0 0-7.962-18.03 32.277 32.277 0 0 0-5.9-5.234l-58.385-51.763a6.385 6.385 0 0 0-5.6-2.326h-27.718l-35.975-.582a3.374 3.374 0 0 0-1.769 1.454c-1.34 2.442 2.376 6.521 3.833 8.142a85.11 85.11 0 0 0 25.064 18.611c8.64 4.059 19.938 5.528 22.705 6.688a15.037 15.037 0 0 1 4.718 4.653 13.592 13.592 0 0 1 1.474 3.2c.888 2.774 6.574 13.641 22.41 41.294 1.264 3.841 2.236 9.159 0 14.249a14.868 14.868 0 0 1-1.474 2.617c-3.368 4.823-9.619 19.555-13.564 35.187-1.537 6.089-7.665 31.9-3.539 66.012a193.134 193.134 0 0 0 3.244 18.9l-56.616 12.214a37.442 37.442 0 0 0 6.487 7.27 39.427 39.427 0 0 0 9.141 5.816c6.789 3.232 19.907 7.974 37.154 12.8a34.319 34.319 0 0 1 11.8 5.234 32.832 32.832 0 0 1 2.949 2.327l10.321 9.015 19.462 20.356 45.116 57 24.77 35.187 10.321 15.994z" class="cls-1" data-name="Caminho 385" transform="translate(-1275.079 -977.5)"/>
            </g>
            <path id="Caminho_386" d="M1316.23 1769.147a43.094 43.094 0 0 1-5.9-4.071 47.713 47.713 0 0 1-6.782-7.561l41.872-9.015a53.544 53.544 0 0 0 10.026 13.668 57.867 57.867 0 0 0 10.615 8.142 60.275 60.275 0 0 0 10.321 4.944 40.017 40.017 0 0 1 14.744 7.852 39.213 39.213 0 0 1 8.551 10.178l20.936 28.208 35.09 41.876a368.391 368.391 0 0 0 21.821 24.136 379.448 379.448 0 0 0 36.565 32.279 220.681 220.681 0 0 0-24.77 17.448q-.892.725-1.769 1.454l-20.346-31.406-21.526-30.244-23.59-29.953-13.859-17.448c-5.575-6.968-10.273-12.345-14.154-16.576-.826-.9-8.026-8.711-18.282-18.03-4.42-4.016-6.641-6.088-9.731-7.852-5.5-3.14-9.936-4.036-14.449-5.234-5.36-1.424-13.261-2.968-22.411-7.27l-6.782-2.617z" class="cls-3" data-name="Caminho 386" transform="translate(-1295.155 -1524.292)"/>
            <path id="Caminho_388" d="M1482.024 1531.5c2.845 18.318 6.8 29.893 10.026 37.223.672 1.527 2.3 5.116 2.064 5.234-.458.229-7.553-12.709-13.564-23.846z" class="cls-3" data-name="Caminho 388" transform="translate(-1419.962 -1370.396)"/>
            <path id="Caminho_389" d="M1635.5 1737.61c-.35-.107 3.142-24.676 20.641-43.329a69.98 69.98 0 0 1 3.833-3.781 204.648 204.648 0 0 0-21.821 39.84c-2.411 5.951-2.577 7.295-2.653 7.27z" class="cls-3" data-name="Caminho 389" transform="translate(-1529.201 -1483.158)"/>
            <path id="Caminho_390" d="M1665.358 1801.871c-.423-.1.553-14.36 9.731-25.591a38.624 38.624 0 0 1 3.538-3.781 137.922 137.922 0 0 0-11.205 23.264c-1.758 4.781-1.932 6.137-2.064 6.108z" class="cls-3" data-name="Caminho 390" transform="translate(-1550.218 -1541.312)"/>
            <path id="Caminho_391" d="M1746.589 1728.5a71.945 71.945 0 0 0-23.885 19.193c-4.66 5.857-8.917 11.589-10.321 14.54-11.893 25.006-23.981 56.489-26.834 63.1l4.423 5.816c8.328-17.06 14.165-31.323 17.988-41.294 6.717-17.523 10.175-25.679 17.987-34.9a63.676 63.676 0 0 1 27.128-19.193z" class="cls-3" data-name="Caminho 391" transform="translate(-1564.512 -1510.108)"/>
            <path id="Caminho_392" d="M1670.071 1827.208a15.38 15.38 0 0 1-5.9 6.979c-6.285 3.871-13.508 1.4-15.039.873-12.356-4.233-16.436-20.116-17.693-25.009-.977-3.8-2.857-12.876 1.18-32.279 5.716-27.473 15.016-45.789 23.59-59.324 8.129-12.833 15.925-18.983 23.59-23.555 10.146-6.052 18.73-6.389 21.526-6.4 4.836-.015 11.168-.034 16.218 4.362 5.625 4.9 6.435 12.461 6.782 15.7a39.886 39.886 0 0 1-.59 9.887l-6.192-7.27a12.839 12.839 0 0 0-.295-5.525 13.419 13.419 0 0 0-2.654-4.943 18.053 18.053 0 0 0-6.487-4.944c-5.5-2.292-11.169-.207-14.744 1.163-5.683 2.178-11.294 5.831-19.462 14.831a129.207 129.207 0 0 0-16.218 22.1s-16.079 28.106-17.987 61.359a50.419 50.419 0 0 0 1.769 15.994 31.708 31.708 0 0 0 5.308 10.76 13.54 13.54 0 0 0 4.423 4.071c1.124.6 4.213 2.262 7.667 1.163 4.5-1.431 5.807-6.618 5.9-6.979z" class="cls-4" data-name="Caminho 392" transform="translate(-1525.444 -1481.735)"/>
            <path id="Caminho_393" d="M1381.615 1122.791q4.129-5.979 8.257-11.341a54 54 0 0 0 10.91 11.923 53.16 53.16 0 0 0 3.539 2.617 66.283 66.283 0 0 1-12.385-17.739 26.859 26.859 0 0 0 .295-9.6 27.594 27.594 0 0 0 10.026 6.4 49.771 49.771 0 0 1-13.564-14.54 75.48 75.48 0 0 0-13.859-21.519l-10.615-18.03c-1.769-3.49-1.982-4.429-3.539-6.4-4.539-5.741-12.1-5.822-13.269-5.816a74.726 74.726 0 0 1-12.09-2.908 99.882 99.882 0 0 1-11.205-4.653 276.395 276.395 0 0 1-13.564-6.688 73.964 73.964 0 0 0 8.846 7.561 71.968 71.968 0 0 0 8.846 5.525 65.709 65.709 0 0 0 19.167 6.4 14.065 14.065 0 0 1 5.9 1.454 13.91 13.91 0 0 1 5.308 4.653 13.492 13.492 0 0 1 1.474 2.908 44.503 44.503 0 0 0 2.359 5.526l3.833 7.27 5.308 9.6 5.6 9.887 4.128 7.27a14.629 14.629 0 0 1 1.179 2.036 16.113 16.113 0 0 1 1.474 6.688 19.154 19.154 0 0 1-1.774 8.725 82.067 82.067 0 0 0-3.244 5.525 107.163 107.163 0 0 0-5.6 13.086 236.2 236.2 0 0 0-3.538 10.178c.002-.004 6.882-8.889 11.797-15.998z" class="cls-3" data-name="Caminho 393" transform="translate(-1300.091 -1010.832)"/>
        </g>
    </g>
</svg>
