<svg xmlns="http://www.w3.org/2000/svg" id="Grupo_7" width="33" height="30" data-name="Grupo 7" viewBox="0 0 33 30">
    <defs>
        <style>
            .cls-1{fill:#fff}
        </style>
    </defs>
    <path id="Caminho_6" d="M33 51.552a12.955 12.955 0 0 1-3.9 1.2 7.437 7.437 0 0 0 2.976-4.184 12.686 12.686 0 0 1-4.29 1.832 6.467 6.467 0 0 0-4.94-2.4c-3.745 0-6.761 3.4-6.761 7.572a8.688 8.688 0 0 0 .157 1.726A18.565 18.565 0 0 1 2.3 49.38a8.324 8.324 0 0 0-.926 3.826A7.853 7.853 0 0 0 4.377 59.5a6.147 6.147 0 0 1-3.057-.932v.083a7.445 7.445 0 0 0 5.42 7.438 6.078 6.078 0 0 1-1.774.249 5.366 5.366 0 0 1-1.281-.129 6.978 6.978 0 0 0 6.322 5.273 12.707 12.707 0 0 1-8.388 3.228A11.344 11.344 0 0 1 0 74.6 17.61 17.61 0 0 0 10.378 78c12.449 0 19.255-11.538 19.255-21.54 0-.335-.01-.658-.025-.978A14.492 14.492 0 0 0 33 51.552z" class="cls-1" data-name="Caminho 6" transform="translate(0 -48)"/>
</svg>
