<svg xmlns="http://www.w3.org/2000/svg" width="30.376" height="30.707" viewBox="0 0 30.376 30.707">
    <defs>
        <style>
            .cls-1{fill:#fff}
        </style>
    </defs>
    <g id="Grupo_2" data-name="Grupo 2" transform="translate(.527)">
        <g id="Grupo_1" data-name="Grupo 1">
            <path id="Caminho_4" d="M20.524 0H9.329A9.383 9.383 0 0 0 0 9.434v11.322a9.383 9.383 0 0 0 9.329 9.434h11.2a9.383 9.383 0 0 0 9.329-9.434V9.434A9.383 9.383 0 0 0 20.524 0zm6.53 20.756a6.575 6.575 0 0 1-6.53 6.6H9.329a6.575 6.575 0 0 1-6.53-6.6V9.434a6.575 6.575 0 0 1 6.53-6.6h11.2a6.575 6.575 0 0 1 6.53 6.6z" class="cls-1" data-name="Caminho 4"/>
        </g>
    </g>
</svg>
