<svg xmlns="http://www.w3.org/2000/svg" width="334" height="210" viewBox="0 0 334 210">
    <defs>
        <style>
            .cls-1{fill:#fff}
        </style>
    </defs>
    <g id="layer101" transform="translate(-7 -51.133)">
        <path id="Caminho_630" d="M64 222.232v-19.207h4.059c2.2 0 4.059.565 4.059 1.13 0 .791.7.791 2.2 0 7.19-3.728 17.164.678 19.831 8.587 3.943 11.637-7.886 23.275-18.44 18.19l-3.6-1.695v12.2H64zm20.875 0c4.059-3.954 2.9-9.152-2.435-11.185-4.755-1.695-8.466.678-8.93 5.762-.58 6.666 6.49 10.168 11.365 5.423z" class="cls-1" data-name="Caminho 630" transform="translate(9.104 19.694)"/>
        <path id="Caminho_631" d="M125.515 238.929a32.19 32.19 0 0 1 2.435-5.536c1.276-2.6 1.044-4.067-3.131-14.123-2.435-6.1-4.987-12.089-5.683-13.106-1.736-2.938-1.508-3.164 3.364-3.164 4.523 0 4.639.113 6.958 6.214 1.276 3.39 2.667 7.457 3.131 9.152.7 2.6 1.16 2.034 4.523-5.875 3.711-8.7 3.943-8.926 8.118-9.265 5.1-.452 5.451-2.147-4.523 20.676L133.4 240.85l-4.407.339c-3.942.339-4.174.226-3.478-2.26z" class="cls-1" data-name="Caminho 631" transform="translate(17.753 19.718)"/>
        <path id="Caminho_632" d="M44.582 230.86c-5.8-2.486-8.582-6.892-8.582-13.784 0-7.231 3.711-12.2 10.322-14.01 9.278-2.373 17.28 2.825 18.324 11.75l.7 5.2H54.672c-5.8 0-10.553.452-10.553.9 0 3.164 8.814 4.971 12.641 2.6 1.624-1.017 6.958 1.695 7.074 3.615 0 1.356-9.394 5.31-12.757 5.2a21.337 21.337 0 0 1-6.495-1.471zm11.133-19.32c-1.856-2.147-6.958-2.147-9.974 0-1.972 1.469-1.624 1.582 4.639 1.695 5.92-.001 6.611-.227 5.335-1.695z" class="cls-1" data-name="Caminho 632" transform="translate(4.632 19.652)"/>
        <path id="Caminho_633" d="M227.049 231.246a14.64 14.64 0 0 1-9.742-18.755c2.9-8.361 14.381-12.315 21.107-7.118l3.015 2.26v-2.26c0-1.356.7-2.373 1.74-2.373 1.508 0 1.74 2.373 1.74 14.123s-.232 14.123-1.74 14.123a2.079 2.079 0 0 1-1.74-2.26v-2.373l-2.551 2.373c-1.392 1.243-3.131 2.26-3.943 2.26a15.04 15.04 0 0 0-3.015.452 13.507 13.507 0 0 1-4.871-.452zm8.93-4.632c5.8-2.6 7.19-11.3 2.667-16.5-2.2-2.486-3.711-3.164-7.654-3.164-13.685 0-14.033 20.45-.348 20.789a13.343 13.343 0 0 0 5.335-1.125z" class="cls-1" data-name="Caminho 633" transform="translate(33.466 19.718)"/>
        <path id="Caminho_634" d="M7 230.059c0-1.469 4.175-8.474 9.394-15.592l9.278-12.993-9.278-.339L7 200.8V193h15.656c14.728 0 15.656.113 15.656 2.147 0 1.243-4.291 8.248-9.626 15.592l-9.626 13.332 9.626.339 9.626.339v7.8H22.656C7.232 232.544 7 232.544 7 230.059z" class="cls-1" data-name="Caminho 634" transform="translate(0 18.42)"/>
        <path id="Caminho_635" d="M94 212.772V193h8.118v6.779c0 6.44.116 6.779 2.2 5.649 4.175-2.147 9.974-1.356 13.1 1.695 3.479 3.39 4.407 7.118 4.407 17.625v7.8h-8.118v-9.039c0-8.361-.232-9.152-2.9-10.846s-3.131-1.695-5.8 0-2.9 2.486-2.9 10.846v9.039H94z" class="cls-1" data-name="Caminho 635" transform="translate(13.896 18.42)"/>
        <path id="Caminho_636" d="M147 217.123V203h4.175c2.667 0 3.827.452 3.247 1.243-.464.791.116.791 1.856-.113 2.435-1.243 12.061-1.017 13.453.226.232.339-.348 2.147-1.508 4.067-1.74 2.938-2.435 3.277-5.8 2.825-6.031-1.017-7.306.9-7.306 11.072v8.926H147z" class="cls-1" data-name="Caminho 636" transform="translate(22.361 19.718)"/>
        <path id="Caminho_637" d="M178 212.772V193h9.974c11.829 0 16.816 1.921 19.483 7.344 2.319 4.632 2.319 7.683.116 11.863-2.9 5.536-5.915 6.779-15.888 6.779h-9.046v6.779c0 5.988-.232 6.779-2.319 6.779-2.204 0-2.32-.791-2.32-19.772zm23.774 0c3.711-3.5 3.943-9.717.58-12.993-1.856-1.808-3.827-2.26-11.017-2.26h-8.7V215.6h8.118c7.192 0 8.584-.342 11.019-2.828z" class="cls-1" data-name="Caminho 637" transform="translate(27.313 18.42)"/>
        <path id="Caminho_638" d="M209 212.772c0-16.835.232-19.772 1.74-19.772s1.74 2.938 1.74 19.772-.232 19.772-1.74 19.772-1.74-2.937-1.74-19.772z" class="cls-1" data-name="Caminho 638" transform="translate(32.264 18.42)"/>
        <path id="Caminho_639" d="M252.719 229.438c-9.046-4.745-8.814-20.111.232-24.743a19.046 19.046 0 0 1 6.958-1.695c3.943 0 10.438 2.825 10.438 4.519 0 2.034-2.087 2.147-5.683.452-10.9-5.31-20.527 8.135-11.829 16.609 3.943 3.728 8.582 4.293 12.757 1.469 1.972-1.469 2.9-1.582 3.943-.452 1.044 1.017.7 1.808-1.392 3.5-3.243 2.603-10.902 2.827-15.424.341z" class="cls-1" data-name="Caminho 639" transform="translate(38.181 19.718)"/>
        <path id="Caminho_640" d="M274.943 227.4c-3.363-3.277-3.943-4.632-3.943-9.039 0-9.83 5.451-15.366 15.192-15.366 6.494 0 12.641 5.649 12.641 11.75v4.067h-12.177c-7.886 0-12.177.452-12.177 1.243 0 .678 1.508 2.712 3.363 4.519 3.827 3.728 8.118 4.18 13.337 1.582 6.726-3.5 9.162-1.017 2.783 2.825a18.873 18.873 0 0 1-9.394 2.26c-4.868.005-6.262-.56-9.625-3.841zm20.411-13.558c0-3.277-4.059-6.44-8.93-7.118-4.291-.565-5.335-.226-8.466 2.825-1.856 1.921-3.479 3.954-3.479 4.632 0 .791 3.711 1.243 10.438 1.243 8.118.004 10.437-.335 10.437-1.578z" class="cls-1" data-name="Caminho 640" transform="translate(42.167 19.718)"/>
        <path id="Caminho_641" d="M104.344 192.213c-27.949-4.293-52.767-27-59.262-54.232-1.972-8.587-1.74-25.082.7-33.9 6.147-22.936 25.746-43.047 48.708-49.939 11.481-3.5 29.341-3.5 40.59-.113a78.671 78.671 0 0 1 28.99 16.839l6.031 5.875 6.958-6.44C191.323 57.2 204.2 52 223.332 51.209c21.455-.791 36.3 4.519 51.26 18.3 24.238 22.371 30.153 55.136 15.308 84.06-21.339 41.352-76.31 51.295-110.985 20.111l-8.118-7.344-5.683 5.649c-15.657 15.595-39.431 23.504-60.77 20.228zm30.733-12.313c13.337-4.632 15.656-6.553 51.376-43.5l14.147-14.463-18.9-19.437c-26.21-27-29.8-30.28-37.575-34.347-17.512-9.039-39.894-9.378-57.058-.791-13.221 6.44-24.7 19.433-30.269 33.9-5.567 14.688-4.175 34.46 3.6 49.374 8.118 15.592 25.978 28.7 43.953 31.861 6.719 1.129 23.883-.34 30.726-2.597zm109.246-20.563c9.278-3.277 19.831-13.784 23.426-23.049 3.479-9.039 3.015-24.292-.928-32.426a40.946 40.946 0 0 0-19.6-19.207c-7.074-3.39-8.582-3.728-18.208-3.615-13.221.113-18.9 2.486-29.109 11.863l-7.422 7 10.669 11.185 10.553 11.185-7.422 7.57c-4.175 4.18-8.7 8.926-10.09 10.508l-2.667 3.051 3.711 4.067a44.344 44.344 0 0 0 18.44 12.315c7.656 2.601 20.524 2.375 28.646-.45z" class="cls-1" data-name="Caminho 641" transform="translate(5.871)"/>
    </g>
</svg>
