<svg xmlns="http://www.w3.org/2000/svg" width="554" height="560.107" viewBox="0 0 554 560.107">
    <defs>
        <style>
            .cls-1{fill:#d0d0d0}.cls-2{fill:#d0cde1}.cls-3{fill:#a0616a}.cls-4{opacity:.15}.cls-5{fill:#3f3d56}.cls-6{fill:#2f2e41}
        </style>
    </defs>
    <g id="Grupo_915" data-name="Grupo 915" transform="translate(-99 -221.893)">
        <path id="Retângulo_450" d="M0 0h554v560H0z" data-name="Retângulo 450" transform="translate(99 222)"/>
        <g id="Grupo_881" data-name="Grupo 881" transform="translate(-13828 1359)">
            <g id="Grupo_882" data-name="Grupo 882" transform="rotate(-6.02 14186.98 -1036.018)">
                <path id="Caminho_2637" d="M731.863 165.376c0 17.939-3.611 32.7-9.875 45.354a92.448 92.448 0 0 1-7.018 11.859c-23.028 33.138-65.841 51.276-104.535 80.655C496.214 389.964 483.842 251 489 165.376c2.081-34.551 13.517-66.2 31.685-90.433a132.883 132.883 0 0 1 12.333-14.266C553.645 40.01 580.293 27.5 610.434 27.5c51.713 0 95.874 36.7 113.383 88.413a154.468 154.468 0 0 1 8.046 49.46z" class="cls-1" data-name="Caminho 2637" transform="translate(13677.202 -1148.503)"/>
                <path id="Caminho_2638" d="M678.964 88.423l-115.62 16.367a132.855 132.855 0 0 1 12.333-14.266z" class="cls-2" data-name="Caminho 2638" transform="translate(13634.546 -1178.35)"/>
                <path id="Caminho_2639" d="M889.107 384.661a92.439 92.439 0 0 1-7.018 11.859L783.05 382.5z" class="cls-2" data-name="Caminho 2639" transform="translate(13510.082 -1322.433)"/>
                <path id="Caminho_2640" d="M821.9 204.118L654.05 178.5l163.808 11.4q2.36 6.97 4.04 14.22z" class="cls-2" data-name="Caminho 2640" transform="translate(13583.161 -1222.485)"/>
            </g>
            <path id="Caminho_2641" d="M489.082 85.786c0 .352-.01.7-.041 1.041a14.28 14.28 0 1 1-26.87-7.707 13.132 13.132 0 0 1 1.051-1.688 14.276 14.276 0 0 1 25.809 7.192c.036.381.051.769.051 1.162z" class="cls-1" data-name="Caminho 2641" transform="translate(13690.688 -1170.061)"/>
            <path id="Caminho_2642" d="M495.941 98.035c0 .352-.01.7-.041 1.041L474.519 96.5l21.371.367c.036.388.051.775.051 1.168z" class="cls-2" data-name="Caminho 2642" transform="translate(13683.829 -1182.31)"/>
            <path id="Caminho_2643" d="M486.069 113.615L466.289 116a14.312 14.312 0 0 1-1.51-2.015z" class="cls-2" data-name="Caminho 2643" transform="translate(13688.602 -1190.693)"/>
            <path id="Caminho_2644" d="M479.958 82.615l-16.2 1.948a13.125 13.125 0 0 1 1.051-1.688z" class="cls-2" data-name="Caminho 2644" transform="translate(13689.102 -1175.505)"/>
            <path id="Caminho_2645" d="M874.413 583.483c-.165.311-.337.612-.524.9a14.28 14.28 0 1 1-20.122-19.4 13.138 13.138 0 0 1 1.72-1 14.276 14.276 0 0 1 19.426 18.451c-.147.352-.313.701-.5 1.049z" class="cls-1" data-name="Caminho 2645" transform="translate(13501.082 -1410.625)"/>
            <path id="Caminho_2646" d="M882.763 592.686c-.165.311-.337.612-.524.9l-17.682-12.294 18.706 10.343c-.147.354-.315.704-.5 1.051z" class="cls-2" data-name="Caminho 2646" transform="translate(13492.732 -1419.829)"/>
            <path id="Caminho_2647" d="M866.575 602.131l-18.589-7.168a14.3 14.3 0 0 1-.389-2.487z" class="cls-2" data-name="Caminho 2647" transform="translate(13501.042 -1425.308)"/>
            <path id="Caminho_2648" d="M875 572.266l-15.223-5.873a13.134 13.134 0 0 1 1.72-1z" class="cls-2" data-name="Caminho 2648" transform="translate(13495.076 -1412.04)"/>
            <path id="Caminho_2649" d="M1075.023 116.815c.246.252.481.507.7.773a14.28 14.28 0 1 1-24.617 13.243 13.12 13.12 0 0 1-.426-1.942 14.276 14.276 0 0 1 23.5-12.871c.287.249.572.516.843.797z" class="cls-1" data-name="Caminho 2649" transform="translate(13401.621 -1190.149)"/>
            <path id="Caminho_2650" d="M1082.8 120.19c.246.252.481.507.7.773l-17.1 13.088 15.556-14.659c.29.25.576.516.844.798z" class="cls-2" data-name="Caminho 2650" transform="translate(13393.842 -1193.524)"/>
            <path id="Caminho_2651" d="M1086.866 138.039l-12.5 15.516a14.312 14.312 0 0 1-2.488-.388z" class="cls-2" data-name="Caminho 2651" transform="translate(13391.155 -1202.659)"/>
            <path id="Caminho_2652" d="M1061.5 123.526l-10.237 12.705a13.121 13.121 0 0 1-.427-1.942z" class="cls-2" data-name="Caminho 2652" transform="translate(13401.467 -1195.549)"/>
            <circle id="Elipse_242" cx="32.647" cy="32.647" r="32.647" class="cls-3" data-name="Elipse 242" transform="translate(14063.764 -1058.259)"/>
            <path id="Caminho_2655" d="M285.129 229.879s-9.141 40.482-23.506 52.234 56.152 0 56.152 0-15.675-26.113-3.918-37.87-28.728-14.364-28.728-14.364z" class="cls-3" data-name="Caminho 2655" transform="translate(13789.082 -1247.656)"/>
            <path id="Caminho_2656" d="M333.343 433.406l-21.664 2.4-60.6 6.738s-.287-.771-.8-2.168c-4.4-12-25.595-70.4-27.932-87.937-2.612-19.588 24.811-43.093 24.811-43.093s26.117-5.223 33.952-5.223 39.176 11.753 39.176 11.753l11.687 105.135 1.006 9.1z" class="cls-2" data-name="Caminho 2656" transform="translate(13807.466 -1284.032)"/>
            <path id="Caminho_2657" d="M413.969 522.531l-37.429-27.286s-.771-2.507-2.076-6.738c-.653-2.116-1.449-4.675-2.35-7.574-5.067-16.271-13.568-43.12-20.384-62.733-10.447-30.035 40.482 53.541 40.482 53.541l2.546 1.972 1.006 9.1c3.513.392 5.589.679 5.589.679 9.361 9.651 8.907 24.349 12.616 39.039z" class="cls-4" data-name="Caminho 2657" transform="translate(13744.682 -1336.731)"/>
            <g id="Grupo_883" data-name="Grupo 883" transform="translate(-9 -3)">
                <path id="Caminho_2662" d="M545.337 287.237l-.237-.031.578 2.2a57.723 57.723 0 0 0 2.372 9.016l16.95 64.42a10.919 10.919 0 0 0 8.891 8.013l34.561 5.347a10.919 10.919 0 0 0 11.3-5.637l32.844-61.347a57.63 57.63 0 0 0 2.81-5.248l1.115-2.083-.174-.023a58.068 58.068 0 1 0-111-14.627z" class="cls-5" data-name="Caminho 2662" transform="rotate(8 16681.963 97583.766)"/>
                <path id="Caminho_2663" d="M607.676 376.567a11.88 11.88 0 0 1-1.818-.14l-36.127-5.589a11.921 11.921 0 0 1-9.708-8.75l-17.715-67.34a60.729 60.729 0 0 1-2.488-9.465l-.448-2.946a61.22 61.22 0 0 1 70.078-68.278l-.156 1.008a60.221 60.221 0 0 0-68.822 67.793l.344 2.2a60.333 60.333 0 0 0 2.467 9.385l17.727 67.38a10.9 10.9 0 0 0 8.878 8l36.126 5.589a10.919 10.919 0 0 0 11.28-5.629l.9.481a11.946 11.946 0 0 1-10.517 6.3z" class="cls-2" data-name="Caminho 2663" transform="rotate(8 16653.033 97602.538)"/>
                <path id="Retângulo_419" d="M0 0h63.917v1.319H0z" class="cls-2" data-name="Retângulo 419" transform="rotate(-62 6368.287 -12352.357)"/>
                <path id="Retângulo_420" d="M0 0h1.319v63.917H0z" class="cls-2" data-name="Retângulo 420" transform="rotate(5 18560.327 163020.472)"/>
                <path id="Caminho_2664" d="M622.235 583.815l-46.291-7.161a1.32 1.32 0 0 1 .4-2.608l46.291 7.161a1.32 1.32 0 1 1-.4 2.608z" class="cls-5" data-name="Caminho 2664" transform="rotate(8 17925.428 97564.952)"/>
                <path id="Caminho_2665" d="M624.562 564.541l-46.291-7.161a1.319 1.319 0 1 1 .4-2.608l46.291 7.161a1.319 1.319 0 1 1-.4 2.608z" class="cls-5" data-name="Caminho 2665" transform="rotate(8 17858.481 97552.087)"/>
                <path id="Caminho_2666" d="M626.889 545.269l-46.289-7.162a1.319 1.319 0 1 1 .4-2.608l46.291 7.161a1.319 1.319 0 1 1-.4 2.608z" class="cls-5" data-name="Caminho 2666" transform="rotate(8 17791.533 97539.208)"/>
                <path id="Caminho_2667" d="M605.212 590.979c9.182 1.421 17.417-2.545 18.394-8.858l-33.251-5.144c-.977 6.312 5.675 12.581 14.857 14.002z" class="cls-5" data-name="Caminho 2667" transform="rotate(8 17939.54 97511.614)"/>
                <path id="Caminho_2668" d="M633.753 346.018a8.129 8.129 0 0 1-4.505-2.913c-.294-.343-.58-.7-.866-1.056a10.3 10.3 0 0 0-3.4-3.165c-3.028-1.413-6.6.561-9.685 2.678l-.746-1.088c3.4-2.328 7.357-4.479 10.99-2.786a11.434 11.434 0 0 1 3.871 3.534c.278.346.555.691.84 1.024.932 1.088 2.789 2.851 4.78 2.444a6.426 6.426 0 0 0 2.293-1.214 12.281 12.281 0 0 1 1.623-1.024 6.462 6.462 0 0 1 7.093 1 12.771 12.771 0 0 1 .963 1.018 4.675 4.675 0 0 0 1.883 1.547c1.078.345 2.218-.272 3.426-.923a6.823 6.823 0 0 1 3.994-1.2l.142.019c2.6.4 3.8 3.276 4.475 5.422l-1.258.4c-.921-2.916-2.043-4.366-3.514-4.528a5.8 5.8 0 0 0-3.212 1.046c-1.4.754-2.842 1.534-4.453 1.019a5.706 5.706 0 0 1-2.475-1.934 11.617 11.617 0 0 0-.861-.915 5.185 5.185 0 0 0-5.617-.794 11.135 11.135 0 0 0-1.447.919 7.5 7.5 0 0 1-2.79 1.429 4.338 4.338 0 0 1-1.542.034z" class="cls-2" data-name="Caminho 2668" transform="rotate(8 17105.075 97367.756)"/>
            </g>
            <path id="Caminho_2721" d="M214.639 381.3l-18.486-25.84a4.427 4.427 0 0 0-4.07-1.684l-4.821.521a4.308 4.308 0 0 0-2.949 1.571 3.215 3.215 0 0 0-.567 2.956l9.466 30.423s14.967 53.744.6 82.5l-.6 12.86s-13.775 39.732-10.714 70.193 4.592 56.949 4.592 56.949-7.653 19.866-4.592 26.488c.918 1.987.735 4.927.028 8.07-4.316 19.183-5.43 38.8-4.82 58.339l.269 15.173s-10.714 7.946-1.531 9.271c.55.079 2.557.111 2.557.111s9.476-.737 18.244-1.451 13.969-1.2 16.827-1.4l.773-.055s7.99-3.826 2.6-7.153l9.437-49.115s15.306-18.542 13.775-30.461c0 0 4.592-19.866 0-29.137l1.531-58.274 6.122 70.193-7.358 91.95s-12.245 7.946-4.592 10.6c.119.041 1 .109 1 .109l31.39-1.417 18.348-.925s3.26-1.1 3.26-2.306c0-6.622-3.061-9.271-3.061-9.271s14.653-106.524 18.468-169.923-21.065-85.082-21.065-85.082-60.88 6-54.758-64.191c0 0 16.281-48.924 33.655-54.892a.874.874 0 0 0 .651-.844.9.9 0 0 0-.723-.8l-6.738-3.334a1.112 1.112 0 0 0-.587.009c-3.059.898-28.593 28.069-41.561 49.269z" class="cls-6" data-name="Caminho 2721" transform="translate(13857.298 -1306.283)"/>
            <path id="Caminho_2659" d="M246.836 547.528s18.282 37.87 26.117 33.952-19.588-43.094-19.588-43.094z" class="cls-3" data-name="Caminho 2659" transform="translate(13795.381 -1398.808)"/>
            <path id="Caminho_2660" d="M169.744 352.77l-69.211 57.458s-26.117 18.282 22.2 31.341 52.234 20.894 52.234 20.894 5.223-16.976 11.753-14.365l-56.152-27.423 45.705-27.423z" class="cls-2" data-name="Caminho 2660" transform="translate(13870.515 -1307.866)"/>
            <path id="Caminho_2661" d="M173.41 192.332c3.632-1.8 11.654-5.429 18.486-9.8-.479-14.229 1.273-27.146 6.4-33.993 2.879-6.537 8.925-13.082 13.66-18.236 11.628-12.657 37.341-19.722 41.9-13.4 34.493.681 38.124 27.718 38.124 27.718-.179 11.309-11.933 11.667-22.229 11.255.922 7.72-1.535 15.742-8.65 19.3-13.606 6.8-17.688 15.647-10.885 21.77s19.049 22.45 2.721 26.532-18.368 12.246-13.606 15.647S228.45 233 228.45 233s-2.721 16.328-17.008 12.246a8.594 8.594 0 0 1-3.818-2.705c-3.858 4.24-7.3 6.746-9.895 6.76-14.858.079-13.076-16.378-13.076-16.378s-17.636 4.953-12.133 2.961 5.739-10.4-8.884-18.736 1.572-20.754 9.774-24.816z" class="cls-6" data-name="Caminho 2661" transform="translate(13839.032 -1191.149)"/>
            <path id="Caminho_2653" d="M569.5 636.956s31.341 1.306 31.341 9.141-35.258 0-35.258 0z" class="cls-3" data-name="Caminho 2653" transform="translate(13639.212 -1447.101)"/>
            <path id="Caminho_2658" d="M360.7 350.47c-.636 6.982.052 14.185 3.855 25.118 10.447 30.035 24.811 77.046 24.811 77.046l75.74 44.4 10.447-13.059-70.516-54.846s-2.612-99.246-15.67-103.163a23.034 23.034 0 0 0-7.091-1.25c-4.916-.1-21.076 20.296-21.576 25.754z" class="cls-2" data-name="Caminho 2658" transform="translate(13739.69 -1294.12)"/>
        </g>
    </g>
</svg>
