<svg xmlns="http://www.w3.org/2000/svg" width="687.16" height="568.881" viewBox="0 0 687.16 568.881">
    <defs>
        <filter id="prefix__O_React_Native_é_uma_biblioteca_que_permite_criar_aplicativos_móveis_usando_apenas_JavaScript__Ele_usa_o_mesmo_design_que_o_React_" width="537" height="249" x="96" y="196.763" filterUnits="userSpaceOnUse">
            <feOffset dx="6" dy="3"/>
            <feGaussianBlur result="blur" stdDeviation="3"/>
            <feFlood flood-opacity=".161"/>
            <feComposite in2="blur" operator="in"/>
            <feComposite in="SourceGraphic"/>
        </filter>
    </defs>
    <g id="prefix__Grupo_1050" data-name="Grupo 1050" transform="translate(-991.84 -5186.237)">
        <g id="prefix__Grupo_920" data-name="Grupo 920" transform="translate(991.84 5186.237)">
            <path id="prefix__Caminho_2848" d="M337.5 0C504.2 88.4 675 122 675 272.5S453.2 505.6 337.5 545 69 387 0 272.5 170.8-88.4 337.5 0z" data-name="Caminho 2848" transform="translate(12.16 18.763)" style="fill:#fff"/>
            <g>
                <text id="prefix__O_React_Native_é_uma_biblioteca_que_permite_criar_aplicativos_móveis_usando_apenas_JavaScript__Ele_usa_o_mesmo_design_que_o_React_-2" data-name="O React Native é uma biblioteca que permite criar aplicativos móveis usando apenas JavaScript. Ele usa o mesmo design que o React." transform="translate(99 202.76)" style="font-size:28px;font-family:Montserrat-Light,Montserrat;font-weight:300;letter-spacing:.01em">
                    <tspan x="28.514" y="27">O </tspan><tspan y="27" style="font-family:Montserrat-SemiBold,Montserrat;font-weight:600">React Native</tspan><tspan y="27"> é uma biblioteca </tspan><tspan x="5.232" y="87">que permite criar aplicativos móveis </tspan><tspan x="6.912" y="147">usando apenas JavaScript. Ele usa o </tspan><tspan x="62.45" y="207">mesmo design que o React.</tspan>
                </text>
            </g>
            <path id="prefix__icons8-react-native" d="M72.877-.657a15.271 15.271 0 00-5.461.915A36.963 36.963 0 0055.84 7.471C54.277 8.82 52.7 10.362 51.116 12c-1.54-1.584-3.078-3.075-4.6-4.385A36.389 36.389 0 0035 .473c-3.689-1.257-7.363-1.285-10.385.57s-4.835 5.249-5.654 9.273a41.591 41.591 0 00.058 14.174c.278 1.862.676 3.815 1.13 5.8-1.725.559-3.4 1.146-4.955 1.793a36 36 0 00-11.4 7.054c-2.83 2.769-4.661 6.125-4.67 9.8s1.806 7.019 4.622 9.771a35.485 35.485 0 0011.369 6.99c1.659.682 3.454 1.3 5.309 1.874-.674 2.645-1.221 5.21-1.6 7.642a41.609 41.609 0 00-.124 14.198c.8 4.029 2.6 7.431 5.626 9.277s6.718 1.789 10.422.506a36.924 36.924 0 0011.572-7.209c1.548-1.337 3.115-2.861 4.684-4.479 1.569 1.618 3.134 3.14 4.684 4.474a36.378 36.378 0 0011.523 7.134c3.689 1.257 7.363 1.285 10.385-.57s4.83-5.249 5.65-9.273a41.564 41.564 0 00-.058-14.17c-.364-2.436-.9-5.007-1.562-7.656 1.918-.6 3.774-1.246 5.486-1.959a36.006 36.006 0 0011.4-7.059c2.83-2.769 4.661-6.12 4.67-9.8s-1.806-7.024-4.622-9.776a35.483 35.483 0 00-11.369-6.985c-1.573-.647-3.272-1.231-5.022-1.786.467-2 .883-3.974 1.171-5.849a41.636 41.636 0 00.123-14.194c-.8-4.029-2.6-7.426-5.631-9.272a10.014 10.014 0 00-4.955-1.423zm-.22 4.877a5.656 5.656 0 012.856.8c1.612.983 2.8 2.9 3.43 6.064a37.258 37.258 0 01-.167 12.4c-.262 1.7-.64 3.5-1.069 5.343a99.231 99.231 0 00-15.09-2.527 113.549 113.549 0 00-8.282-10.8c1.49-1.541 2.97-2.983 4.414-4.23a33.058 33.058 0 0110.077-6.356 10.96 10.96 0 013.831-.695zm-42.913.144a10.906 10.906 0 013.841.672 32.6 32.6 0 0110.064 6.3c1.409 1.213 2.849 2.619 4.3 4.114a115.627 115.627 0 00-8.4 10.943 99.4 99.4 0 00-15.036 2.633c-.417-1.832-.786-3.62-1.038-5.308a37.247 37.247 0 01-.1-12.41c.646-3.175 1.854-5.116 3.487-6.118a5.757 5.757 0 012.883-.826zM51.17 18.955a107.172 107.172 0 015.5 6.933c-1.8-.074-3.613-.116-5.459-.11-1.883.006-3.735.06-5.565.148a105.874 105.874 0 015.524-6.971zm.024 11.662c3.075-.009 6.072.115 8.987.333 2 3.047 3.951 6.28 5.811 9.7a139.16 139.16 0 014.457 8.976 140.829 140.829 0 01-4.563 9.125 138.817 138.817 0 01-4.568 7.716c-3.294.3-6.707.474-10.212.485a115.55 115.55 0 01-10.444-.446 138.048 138.048 0 01-4.456-7.572 136.604 136.604 0 01-4.5-9.079 140.417 140.417 0 014.572-9.158 137.805 137.805 0 015.832-9.686c2.941-.237 5.974-.385 9.084-.394zM66 31.531A92.176 92.176 0 0176.481 33.5c-.975 3.36-2.174 6.87-3.625 10.493-.932-1.91-1.9-3.827-2.941-5.747-1.264-2.329-2.582-4.546-3.915-6.715zm-29.861.128a146.892 146.892 0 00-3.859 6.605 149.537 149.537 0 00-3.013 5.84 110.623 110.623 0 01-3.548-10.411 92.433 92.433 0 0110.421-2.034zm44.813 3.1c1.6.509 3.149 1.041 4.567 1.624a31.619 31.619 0 019.936 6.039c2.209 2.159 3.165 4.22 3.16 6.224s-.971 4.071-3.191 6.243a32.083 32.083 0 01-9.966 6.1c-1.58.658-3.315 1.255-5.119 1.822a122.283 122.283 0 00-4.848-13.084 120.989 120.989 0 005.461-14.97zm-59.612.2a119.506 119.506 0 005.317 14.785 123.679 123.679 0 00-4.939 13.188c-1.738-.541-3.411-1.112-4.938-1.74a31.623 31.623 0 01-9.936-6.039C4.634 53 3.678 50.935 3.683 48.932s.971-4.071 3.191-6.243a32.086 32.086 0 019.966-6.1c1.4-.582 2.923-1.116 4.5-1.628zm29.837 2.82c-6.218.021-11.32 5.429-11.337 12.021s5.06 11.96 11.278 11.941 11.32-5.426 11.336-12.014-5.06-11.965-11.277-11.946zM29.293 55.495a144.46 144.46 0 002.993 5.85 146.14 146.14 0 002.542 4.48 91.5 91.5 0 01-8.631-1.654c.87-2.8 1.903-5.708 3.096-8.676zm43.593-.132c1.178 2.969 2.2 5.874 3.062 8.676a91.982 91.982 0 01-8.665 1.7c.881-1.485 1.75-3 2.6-4.552a149.32 149.32 0 003.003-5.825zm-48 13.464a98.172 98.172 0 0013.227 2.29A116.4 116.4 0 0047.782 84c-1.476 1.525-2.938 2.957-4.369 4.192a33.045 33.045 0 01-10.081 6.348c-2.907 1.007-5.074.881-6.687-.1s-2.8-2.9-3.426-6.064a37.2 37.2 0 01.163-12.392c.346-2.248.862-4.658 1.501-7.158zm52.36-.14c.633 2.511 1.138 4.927 1.475 7.188a37.247 37.247 0 01.1 12.41c-.646 3.175-1.846 5.12-3.478 6.122s-3.821 1.138-6.731.147a32.6 32.6 0 01-10.063-6.3c-1.435-1.235-2.9-2.67-4.38-4.2a118.013 118.013 0 009.8-13.011 98.9 98.9 0 0013.274-2.357zM44.01 71.59c2.322.127 4.674.21 7.084.2 2.33-.007 4.607-.1 6.855-.231a110.137 110.137 0 01-7 8.983 108.676 108.676 0 01-6.939-8.952z" transform="translate(198.544 49.927)" style="fill:#03effe;stroke:#03effe;fill-rule:evenodd"/>
        </g>
    </g>
</svg>
