<svg xmlns="http://www.w3.org/2000/svg" width="732" height="458" viewBox="0 0 732 458">
    <defs>
        <style>
            .cls-1{fill:#fff}.cls-2,.cls-9{fill:#4052a9}.cls-2,.cls-6,.cls-7{opacity:.1}.cls-3{fill:url(#linear-gradient)}.cls-4{fill:#fbbebe}.cls-5{fill:#f86d70}.cls-8{fill:#3f3d56}.cls-10{fill:#434175}
        </style>
        <linearGradient id="linear-gradient" x1="27.757" x2="27.757" y1="1" y2=".003" gradientUnits="objectBoundingBox">
            <stop offset="0" stop-color="gray" stop-opacity=".251"/>
            <stop offset=".54" stop-color="gray" stop-opacity=".122"/>
            <stop offset="1" stop-color="gray" stop-opacity=".102"/>
        </linearGradient>
    </defs>
    <g id="draw02" transform="translate(-889 -1392)">
        <path id="Retângulo_378" d="M0 0h732v458H0z" class="cls-1" data-name="Retângulo 378" transform="translate(889 1392)"/>
        <g id="Grupo_855" data-name="Grupo 855" transform="translate(1016 1466.387)">
            <path id="Caminho_1268" d="M659.937 326.3a11.4 11.4 0 0 0-7.285.883 9.761 9.761 0 0 1-8.789-.043 11.171 11.171 0 0 0-10.287.222 5.86 5.86 0 0 1-2.963.825c-4.171 0-7.642-4.667-8.363-10.826a8.679 8.679 0 0 0 2.085-2.5c2.446-4.378 6.234-7.187 10.487-7.187s7.994 2.775 10.426 7.11a7.893 7.893 0 0 0 6.951 4.228h.109c3.333.015 6.208 2.974 7.629 7.288z" class="cls-2" data-name="Caminho 1268" transform="translate(-385.809 -222.242)"/>
            <path id="Caminho_1269" d="M672.656 288.559l-6.742 4.754 4.092-8.273a6.29 6.29 0 0 0-4.079-1.617h-.109a7.114 7.114 0 0 1-1.4-.111l-2.276 1.607.982-1.979a8.274 8.274 0 0 1-4-3.379l-4.092 2.9 2.607-5.218c-2.394-3.19-5.617-5.15-9.162-5.15-4.253 0-8.041 2.814-10.487 7.192a7.656 7.656 0 0 1-6.951 4.151h-.23c-4.7 0-8.5 5.918-8.5 13.211s3.806 13.211 8.5 13.211a5.891 5.891 0 0 0 2.963-.821 11.155 11.155 0 0 1 10.287-.227 9.761 9.761 0 0 0 8.75.024 11.18 11.18 0 0 1 10.2.217 5.862 5.862 0 0 0 2.928.806c4.7 0 8.5-5.913 8.5-13.211a18.289 18.289 0 0 0-1.781-8.087z" class="cls-2" data-name="Caminho 1269" transform="translate(-385.843 -203.835)"/>
            <path id="Caminho_1270" d="M571 337.529a7.482 7.482 0 0 0 .791-.174 3 3 0 0 1-.221.84 3.39 3.39 0 0 1-1.234 1.207.35.35 0 0 0-.478-.034c-.56.367-1.008.907-1.6 1.226-.208.116-.434.208-.63.333a3.687 3.687 0 0 0-1.173 1.356 1.051 1.051 0 0 0-.139.965.734.734 0 0 0 .239.237 1.29 1.29 0 0 0 .826.275 2.826 2.826 0 0 0 .521-.121c.174-.034.469 0 .7-.048a3.646 3.646 0 0 0 .99-.285l1.16-.449a6.036 6.036 0 0 0 .96-.439c.182-.106.356-.237.547-.338a4.014 4.014 0 0 1 .652-.256l.66-.217a.643.643 0 0 1 .3-.043c.091 0 .169.082.261.111a.7.7 0 0 0 .434-.043l.769-.246a1.371 1.371 0 0 0 .456-.208 1.66 1.66 0 0 0 .408-1.308 10.978 10.978 0 0 0-.226-2.167.629.629 0 0 0-.248.208c-.078-.125-.169-.241-.252-.352a4.35 4.35 0 0 1-.765-1.564 2.721 2.721 0 0 0 .686-.849 20.032 20.032 0 0 0-1.642-4.971c-.269-.483-.578-.965-.869-1.448-.8-1.409-.964-3.19-1.877-4.508a.853.853 0 0 1 0-.922c.1-.15.274-.3.239-.483s-.148-.265-.1-.391.078-.1.126-.145c.152-.159.135-.434.148-.671a3.489 3.489 0 0 1 .665-1.607.9.9 0 0 1 .243-.294c.083-.058.178-.082.261-.14.3-.2.274-.681.413-1.033.182-.483.643-.7.947-1.081.382-.483.478-1.154.869-1.573a1.109 1.109 0 0 1 .13-.121 8.49 8.49 0 0 0-.235 2.2c-.039 2.544.526 5.179.261 7.723a5.483 5.483 0 0 0 2.455 5.005 11.131 11.131 0 0 0 1.912.9c.982.391 1.955.792 2.915 1.236q1.017.483 2.007 1.018a25.176 25.176 0 0 1 2.368 1.472 9.419 9.419 0 0 1 2.554 2.355 1.933 1.933 0 0 0 1.13-.483c.256.227.569.4.812.647a2.874 2.874 0 0 1 .639 1.4h-.1l.035.753a.252.252 0 0 1-.117.28l-.521.391a1.658 1.658 0 0 0-.817 1.154.62.62 0 0 0 .113.415.769.769 0 0 0 .465.232 7.333 7.333 0 0 0 2.754.28 1.734 1.734 0 0 0 1.173-.6 2.739 2.739 0 0 0 .434-1.25c.113-.758.208-1.52.282-2.288a5.5 5.5 0 0 1 .278-1.516.176.176 0 0 1 .074-.1h.126a.206.206 0 0 0 .082-.145 10.253 10.253 0 0 0 .243-2.273 1.758 1.758 0 0 0-.083-.584 1.075 1.075 0 0 0-.726-.623 5.062 5.062 0 0 0-.934-.121 3.866 3.866 0 0 1-.778-.164.678.678 0 0 0-.322-.043.248.248 0 0 0-.2.251.308.308 0 0 0 .043.121l-.265-.058c-.213-.043-.517-.15-.83-.232v-.183a.368.368 0 0 0-.182-.323l-4.47-2.655-.838-.483c-1.833-1.091-3.727-2.095-5.561-3.186-.126.043-.226-.116-.261-.251s-.061-.309-.178-.367-.135-.034-.178-.087a.232.232 0 0 1-.03-.164c.061-.994.7-1.907.569-2.9a3.856 3.856 0 0 1-.161-1.245 5.361 5.361 0 0 1 .339-.787c.217-.6 0-1.332.239-1.931a4.917 4.917 0 0 0 .326-1.226 9.076 9.076 0 0 1 .682-2.413 4.365 4.365 0 0 1 .63-1.067c.135-.164.287-.309.413-.483a4.182 4.182 0 0 0 .643-1.868 9.947 9.947 0 0 0 .091-3.654 5.693 5.693 0 0 1-.209-1.231c0-.483.178-1.072-.039-1.472a1.321 1.321 0 0 0 .434-.806 1.016 1.016 0 0 1 .061-.328.8.8 0 0 1 .282-.285 1.387 1.387 0 0 0 .434-1.294c.23.116.474-.145.582-.4s.2-.574.434-.681a3.023 3.023 0 0 1 .508-.082c.269-.077.434-.367.626-.594a4.731 4.731 0 0 1 1.438-.989 16.4 16.4 0 0 0 3.91-3.509 14.373 14.373 0 0 0 1.686-2.119 7.067 7.067 0 0 0 .369-.681h.03v.039a1.02 1.02 0 0 0 .061.246c.052.2.117.391.178.584a4.451 4.451 0 0 0 .752 1.593 2 2 0 0 0 .169.169 1.754 1.754 0 0 0 .217.164 2.485 2.485 0 0 0 .995.333c.13 0 .265.029.4.034h.4l2.737.082a9.605 9.605 0 0 1-.951-5.338c.156-4.74.986-9.523.217-14.186a3.955 3.955 0 0 0-.526-1.583 2.875 2.875 0 0 0-1.738-1.047 9.64 9.64 0 0 1-1.938-.55 7.7 7.7 0 0 0-1.525-.806 3.04 3.04 0 0 0-1.216 0c-.5.082-.986.179-1.477.29l-.117.029h-.586l-.048.024-.043.024-.043.024-.043.024-.043.029-.039.029-.039.029-.039.034-.035.029-.039.039-.03.029-.039.043-.026.034a.228.228 0 0 0-.039.053v.029l-.048.077a1.461 1.461 0 0 0-.1.227 1.155 1.155 0 0 0-.03.116 2.431 2.431 0 0 0-.039.246v.376a1.7 1.7 0 0 0 .039.42 4.693 4.693 0 0 0-2.024 3.818 4.754 4.754 0 0 0 1.829 3.938q.006.113 0 .227v.048a6.879 6.879 0 0 1-.074.792 8.773 8.773 0 0 0-2.037-.2c-.408 0-.817.039-1.229.077-.434-.579-.834-1.216-1.225-1.844l-.9-1.472a15.171 15.171 0 0 1-.869-1.511c-.222-.483-.4-.965-.639-1.448-.508-.965-1.342-1.767-1.442-2.872l-.239.058c-.13-.241-.3-.483-.356-.627a13.2 13.2 0 0 1-.752-2.452 4.1 4.1 0 0 0-.361-1.269 2.738 2.738 0 0 0-.526-.618 3.45 3.45 0 0 0-1.13-.792 1.32 1.32 0 0 0-1.151.072c-.061-.024-.117-.053-.178-.072a1.281 1.281 0 0 0-1.277.164 2.022 2.022 0 0 0-.565 1.318 3.586 3.586 0 0 0 .3 2 7.651 7.651 0 0 0 1.447 1.665 6.426 6.426 0 0 1 .908 1.255 15.22 15.22 0 0 1-.069 3.051c-.065.434-.165.859-.2 1.294-.126 1.578.612 3.157.352 4.711a1.192 1.192 0 0 0 .478 1.216 5.017 5.017 0 0 0 1.238.376c.817.232 1.529.816 2.35 1.033.382.1.778.121 1.156.232H583a3.181 3.181 0 0 0-.608 1.284c-.165.792 0 1.636-.178 2.413a5.736 5.736 0 0 1-.83 1.771l-1.99 3.2a20.542 20.542 0 0 1-1.464 2.138c-.912 1.105-2.489 1.984-2.95 3.316l-.039-.1c-.656.536-.9 1.535-1.425 2.23-.252.338-.569.613-.847.922a10.5 10.5 0 0 0-.921 1.52 23.692 23.692 0 0 0-2.12 3.75c-.291.7-.517 1.448-.747 2.153-.912 2.853-2.4 5.56-3.015 8.514a17.3 17.3 0 0 0-.608 2.109 4.439 4.439 0 0 0 .6 2.235c.513 1.062 1.073 2.095 1.529 3.186.269.637.5 1.294.795 1.931s.721 1.3 1.056 1.974a24.432 24.432 0 0 1 1.762 5.46zm11.2-53.909l-.078-.043a2.776 2.776 0 0 1-.825-.6 7.528 7.528 0 0 1-1.268-3.335 12.3 12.3 0 0 1-.074-.415 20.415 20.415 0 0 1 2.245 4.393z" class="cls-3" data-name="Caminho 1270" transform="translate(-353.578 -202.299)"/>
            <path id="Caminho_1271" d="M591.5 272.785a4.046 4.046 0 0 0-.361-1.26 2.758 2.758 0 0 0-.53-.618 3.443 3.443 0 0 0-1.129-.782 1.289 1.289 0 0 0-1.3.164 1.991 1.991 0 0 0-.565 1.308 3.543 3.543 0 0 0 .3 1.984 7.956 7.956 0 0 0 1.447 1.656 6.2 6.2 0 0 1 .947 1.308 3.7 3.7 0 0 0 .434.7.772.772 0 0 0 .682.3 1.159 1.159 0 0 0 .556-.362c.2-.2.76-.56.778-.878s-.434-.84-.526-1.081a13.185 13.185 0 0 1-.734-2.437z" class="cls-4" data-name="Caminho 1271" transform="translate(-366.199 -202.764)"/>
            <path id="Caminho_1272" d="M606.376 291.829a8.987 8.987 0 0 0-2.741-.376c-1.542.024-3.132.439-4.6-.087a7.592 7.592 0 0 1-1.1-.531 2.825 2.825 0 0 1-.821-.6 7.409 7.409 0 0 1-1.273-3.311 23.942 23.942 0 0 1-.348-3.523 2.3 2.3 0 0 1-1.2.352.912.912 0 0 1-.839-.864 15.932 15.932 0 0 1-.057 3.282c-.065.43-.165.85-.2 1.284-.126 1.564.617 3.133.352 4.677a1.181 1.181 0 0 0 .478 1.207 4.994 4.994 0 0 0 1.242.377c.817.232 1.534.806 2.355 1.023.382.1.778.121 1.156.232.543.159 1.034.483 1.586.613a12.126 12.126 0 0 0 1.26.063c.421.039.721.14 1.082.154a3.046 3.046 0 0 0 2.333-1.284 11.556 11.556 0 0 0 1.335-2.688z" class="cls-5" data-name="Caminho 1272" transform="translate(-369.366 -209.423)"/>
            <path id="Caminho_1273" d="M606.376 291.829a8.987 8.987 0 0 0-2.741-.376c-1.542.024-3.132.439-4.6-.087a7.592 7.592 0 0 1-1.1-.531 2.825 2.825 0 0 1-.821-.6 7.409 7.409 0 0 1-1.273-3.311 23.942 23.942 0 0 1-.348-3.523 2.3 2.3 0 0 1-1.2.352.912.912 0 0 1-.839-.864 15.932 15.932 0 0 1-.057 3.282c-.065.43-.165.85-.2 1.284-.126 1.564.617 3.133.352 4.677a1.181 1.181 0 0 0 .478 1.207 4.994 4.994 0 0 0 1.242.377c.817.232 1.534.806 2.355 1.023.382.1.778.121 1.156.232.543.159 1.034.483 1.586.613a12.126 12.126 0 0 0 1.26.063c.421.039.721.14 1.082.154a3.046 3.046 0 0 0 2.333-1.284 11.556 11.556 0 0 0 1.335-2.688z" class="cls-6" data-name="Caminho 1273" transform="translate(-369.366 -209.423)"/>
            <g id="Grupo_645" class="cls-7" data-name="Grupo 645" transform="translate(132.065 66.213)">
                <path id="Caminho_1274" d="M461.829 656.805v2.486c0 5.145-3.754 9.315-8.385 9.315s-8.385-4.171-8.385-9.315v-2.486c0-5.145 3.754-9.315 8.385-9.315s8.385 4.171 8.385 9.315z" class="cls-8" data-name="Caminho 1274" transform="translate(-417.661 -464.254)"/>
                <path id="Caminho_1275" d="M445.06 571.786v-2.481c0-5.145 3.754-9.316 8.385-9.316s8.385 4.171 8.385 9.316v2.481a10.162 10.162 0 0 1-.361 2.693c-1.194 4.431-5.135 7.217-9.253 6.541s-7.167-4.608-7.156-9.234z" class="cls-8" data-name="Caminho 1275" transform="translate(-417.661 -418.987)"/>
                <path id="Caminho_1276" d="M461.829 613.016v2.484c0 5.145-3.754 9.315-8.385 9.315s-8.385-4.171-8.385-9.315v-2.486c0-5.145 3.754-9.315 8.385-9.315s8.385 4.172 8.385 9.317z" class="cls-8" data-name="Caminho 1276" transform="translate(-417.661 -441.6)"/>
                <path id="Caminho_1277" d="M453.445 691.24c4.626.016 8.373 4.18 8.385 9.32v2.481c0 5.145-3.754 9.316-8.385 9.316s-8.385-4.171-8.385-9.316v-2.481c.012-5.14 3.758-9.304 8.385-9.32z" class="cls-8" data-name="Caminho 1277" transform="translate(-417.661 -486.887)"/>
                <path id="Caminho_1278" d="M445.06 579.78v2.244c-.008 4.625 3.04 8.555 7.158 9.23s8.057-2.111 9.251-6.542z" class="cls-6" data-name="Caminho 1278" transform="translate(-417.661 -429.225)"/>
                <path id="Caminho_1279" d="M445.06 623.53v2.249c0 4.615 3.05 8.532 7.159 9.206s8.044-2.1 9.249-6.513z" class="cls-6" data-name="Caminho 1279" transform="translate(-417.661 -451.858)"/>
                <path id="Caminho_1280" d="M445.06 667.29v2.245c0 4.615 3.05 8.532 7.159 9.206s8.044-2.1 9.249-6.513z" class="cls-6" data-name="Caminho 1280" transform="translate(-417.661 -474.497)"/>
                <path id="Caminho_1281" d="M445.06 711v2.244c-.011 4.626 3.037 8.558 7.155 9.234s8.059-2.11 9.253-6.541z" class="cls-6" data-name="Caminho 1281" transform="translate(-417.661 -497.109)"/>
                <path id="Caminho_1282" d="M403.154 621.775l.669.569a2.934 2.934 0 0 0 4.121-.261 3.811 3.811 0 0 0 .389-4.565 3.314 3.314 0 0 0-.639-.743l-.669-.56a2.963 2.963 0 0 0-4.444.637 3.787 3.787 0 0 0 .573 4.938z" class="cls-8" data-name="Caminho 1282" transform="translate(-393.263 -447.694)"/>
                <path id="Caminho_1283" d="M420.115 626.274l.669.574a3.788 3.788 0 0 1 .573 4.938 2.963 2.963 0 0 1-4.444.637l-.669-.574a3.788 3.788 0 0 1-.573-4.938 2.963 2.963 0 0 1 4.444-.637z" class="cls-8" data-name="Caminho 1283" transform="translate(-400.667 -452.899)"/>
                <path id="Caminho_1284" d="M433.2 636.374l.669.574a3.787 3.787 0 0 1 .573 4.938 2.963 2.963 0 0 1-4.444.637l-.669-.574a3.787 3.787 0 0 1-.573-4.938 2.963 2.963 0 0 1 4.444-.637z" class="cls-8" data-name="Caminho 1284" transform="translate(-408.064 -458.124)"/>
                <path id="Caminho_1285" d="M446.274 646.474l.669.575a3.787 3.787 0 0 1 .573 4.938 2.963 2.963 0 0 1-4.444.637l-.678-.574a3.788 3.788 0 0 1-.573-4.938 2.963 2.963 0 0 1 4.444-.637z" class="cls-8" data-name="Caminho 1285" transform="translate(-415.456 -463.349)"/>
                <path id="Caminho_1286" d="M404.9 624.01l.608.517a2.934 2.934 0 0 0 4.121-.261 3.811 3.811 0 0 0 .389-4.565z" class="cls-6" data-name="Caminho 1286" transform="translate(-394.948 -449.877)"/>
                <path id="Caminho_1287" d="M418 634.11l.608.516a2.934 2.934 0 0 0 4.121-.261 3.811 3.811 0 0 0 .389-4.565z" class="cls-6" data-name="Caminho 1287" transform="translate(-402.357 -455.102)"/>
                <path id="Caminho_1288" d="M431.08 644.21l.6.516a2.934 2.934 0 0 0 4.129-.252 3.811 3.811 0 0 0 .385-4.575z" class="cls-6" data-name="Caminho 1288" transform="translate(-409.755 -460.327)"/>
                <path id="Caminho_1289" d="M398.9 326.249c-5.25 0-9.505 4.726-9.505 10.558s4.256 10.561 9.505 10.561a9.337 9.337 0 0 0-8.439 5.2 11.579 11.579 0 0 0 0 10.72 9.337 9.337 0 0 0 8.439 5.2c-5.25 0-9.505 4.728-9.505 10.561s4.257 10.551 9.505 10.551c-5.25 0-9.505 4.726-9.505 10.558s4.256 10.561 9.505 10.561h45.841c5.25 0 9.505-4.726 9.505-10.558s-4.256-10.561-9.505-10.561c5.25 0 9.505-4.727 9.505-10.56s-4.256-10.561-9.505-10.561a9.341 9.341 0 0 0 8.421-5.2 11.58 11.58 0 0 0 0-10.706 9.34 9.34 0 0 0-8.421-5.2c5.25 0 9.505-4.726 9.505-10.558s-4.256-10.561-9.505-10.561c5.25 0 9.505-4.727 9.505-10.56s-4.256-10.561-9.505-10.561a9.34 9.34 0 0 0 8.421-5.2 11.58 11.58 0 0 0 0-10.706 9.34 9.34 0 0 0-8.421-5.2h-2.094c-1.2-9.084-10.426-16.15-21.665-16.15s-20.462 7.066-21.665 16.15h-.434c-5.25 0-9.505 4.726-9.505 10.558s4.256 10.561 9.505 10.561c-5.25 0-9.505 4.727-9.505 10.56s4.256 10.561 9.505 10.561z" class="cls-9" data-name="Caminho 1289" transform="translate(-386.039 -267.86)"/>
                <path id="Caminho_1290" d="M389.72 311.876c.014 5.826 4.262 10.545 9.505 10.561h45.841L399.5 301.32h-.278c-5.239.016-9.485 4.732-9.502 10.556z" class="cls-6" data-name="Caminho 1290" transform="translate(-386.363 -285.17)"/>
                <path id="Caminho_1291" d="M466.329 355.681c-.029 5.819-4.268 10.529-9.505 10.561H411l45.568-21.122h.278c5.229.045 9.454 4.751 9.483 10.561z" class="cls-6" data-name="Caminho 1291" transform="translate(-398.398 -307.829)"/>
                <path id="Caminho_1292" d="M466.329 443.141c-.017 5.824-4.263 10.54-9.505 10.556H411l45.568-21.117h.278c5.235.029 9.469 4.744 9.484 10.561z" class="cls-6" data-name="Caminho 1292" transform="translate(-398.398 -353.074)"/>
                <path id="Caminho_1293" d="M466.329 530.681c-.017 5.824-4.263 10.54-9.505 10.556H411l45.568-21.117h.278c5.235.029 9.469 4.744 9.483 10.561z" class="cls-6" data-name="Caminho 1293" transform="translate(-398.398 -398.361)"/>
                <path id="Caminho_1294" d="M389.72 399.386c.014 5.826 4.262 10.545 9.505 10.561h45.841L399.5 388.83h-.278c-5.239.016-9.485 4.732-9.502 10.556z" class="cls-6" data-name="Caminho 1294" transform="translate(-386.363 -330.441)"/>
                <path id="Caminho_1295" d="M389.72 486.891c.029 5.82 4.268 10.529 9.505 10.561h45.841L399.5 476.33h-.278c-5.234.032-9.474 4.741-9.502 10.561z" class="cls-6" data-name="Caminho 1295" transform="translate(-386.363 -375.708)"/>
                <path id="Caminho_1296" d="M390.6 624.357l15.1-9.031a4.2 4.2 0 0 0 1.328-5.278 3.386 3.386 0 0 0-4.7-1.667 4.18 4.18 0 0 0 1.447-5.348 3.382 3.382 0 0 0-4.814-1.607l-.691.415c-1.846-2.756-6.017-3.263-9.714-1.052s-5.609 6.357-4.557 9.586l-.135.082a4.18 4.18 0 0 0-1.447 5.348 3.382 3.382 0 0 0 4.814 1.607 4.182 4.182 0 0 0-1.445 5.35 3.383 3.383 0 0 0 4.816 1.6z" class="cls-9" data-name="Caminho 1296" transform="translate(-381.992 -439.379)"/>
                <path id="Caminho_1297" d="M382.454 625.414a3.393 3.393 0 0 0 4.814 1.607L402.351 618l-18.372 2.022-.091.053a4.2 4.2 0 0 0-1.434 5.339z" class="cls-6" data-name="Caminho 1297" transform="translate(-382.016 -448.997)"/>
                <path id="Caminho_1298" d="M418.139 619.2a4.191 4.191 0 0 1-1.442 5.348l-15.1 9.031 11.634-15.928.091-.058a3.393 3.393 0 0 1 4.814 1.607z" class="cls-6" data-name="Caminho 1298" transform="translate(-393.082 -448.544)"/>
            </g>
            <g id="Grupo_646" class="cls-7" data-name="Grupo 646" transform="translate(82.097 226.276)">
                <path id="Caminho_1299" d="M289.876 710.842v.709a2.409 2.409 0 1 1-4.809 0v-.709a2.758 2.758 0 0 1 1.172-2.41 2.2 2.2 0 0 1 2.466 0 2.758 2.758 0 0 1 1.172 2.41z" class="cls-8" data-name="Caminho 1299" transform="translate(-277.206 -655.649)"/>
                <path id="Caminho_1300" d="M285.07 686.71V686a2.409 2.409 0 1 1 4.809 0v.714a2.849 2.849 0 0 1-.1.772 2.408 2.408 0 0 1-2.654 1.879 2.6 2.6 0 0 1-2.055-2.655z" class="cls-8" data-name="Caminho 1300" transform="translate(-277.208 -642.912)"/>
                <path id="Caminho_1301" d="M289.876 698.3v.709a2.409 2.409 0 1 1-4.809 0v-.709a2.758 2.758 0 0 1 1.172-2.41 2.2 2.2 0 0 1 2.466 0 2.758 2.758 0 0 1 1.171 2.41z" class="cls-8" data-name="Caminho 1301" transform="translate(-277.206 -649.161)"/>
                <path id="Caminho_1302" d="M287.474 720.83a2.556 2.556 0 0 1 2.4 2.674v.709a2.758 2.758 0 0 1-1.172 2.41 2.2 2.2 0 0 1-2.466 0 2.758 2.758 0 0 1-1.172-2.41v-.71a2.555 2.555 0 0 1 2.407-2.674z" class="cls-8" data-name="Caminho 1302" transform="translate(-277.206 -662.258)"/>
                <path id="Caminho_1303" d="M285.07 688.89v.642a2.6 2.6 0 0 0 2.051 2.651 2.408 2.408 0 0 0 2.654-1.879z" class="cls-6" data-name="Caminho 1303" transform="translate(-277.208 -645.734)"/>
                <path id="Caminho_1304" d="M285.07 701.43v.642a2.6 2.6 0 0 0 2.051 2.651 2.408 2.408 0 0 0 2.654-1.879z" class="cls-6" data-name="Caminho 1304" transform="translate(-277.208 -652.222)"/>
                <path id="Caminho_1305" d="M285.07 714v.642a2.6 2.6 0 0 0 2.051 2.651 2.408 2.408 0 0 0 2.654-1.879z" class="cls-6" data-name="Caminho 1305" transform="translate(-277.208 -658.725)"/>
                <path id="Caminho_1306" d="M285.07 726.51v.642a2.6 2.6 0 0 0 2.051 2.651 2.408 2.408 0 0 0 2.654-1.879z" class="cls-6" data-name="Caminho 1306" transform="translate(-277.208 -665.196)"/>
                <path id="Caminho_1307" d="M273.072 700.911l.191.169a.842.842 0 0 0 1.206-.048 1.092 1.092 0 0 0 .1-1.337.937.937 0 0 0-.182-.217l-.191-.164a.85.85 0 0 0-1.275.181 1.087 1.087 0 0 0 .163 1.417z" class="cls-8" data-name="Caminho 1307" transform="translate(-270.228 -651.018)"/>
                <path id="Caminho_1308" d="M277.923 702.214l.191.164a1.06 1.06 0 0 1 .367.94 1 1 0 0 1-.563.812.836.836 0 0 1-.912-.155l-.2-.164a1.086 1.086 0 0 1-.163-1.417.85.85 0 0 1 1.28-.18z" class="cls-8" data-name="Caminho 1308" transform="translate(-272.338 -652.518)"/>
                <path id="Caminho_1309" d="M281.7 705.124l.191.164a1.1 1.1 0 0 1 .165 1.419.849.849 0 0 1-1.273.179l-.191-.164a1.087 1.087 0 0 1-.145-1.4.849.849 0 0 1 1.253-.198z" class="cls-8" data-name="Caminho 1309" transform="translate(-274.489 -654.033)"/>
                <path id="Caminho_1310" d="M285.453 708.023l.191.164a1.06 1.06 0 0 1 .367.94 1 1 0 0 1-.563.812.836.836 0 0 1-.912-.155l-.191-.164a1.087 1.087 0 0 1-.145-1.4.849.849 0 0 1 1.253-.197z" class="cls-8" data-name="Caminho 1310" transform="translate(-276.61 -655.533)"/>
                <path id="Caminho_1311" d="M273.56 701.566l.174.15a.842.842 0 0 0 1.206-.048 1.092 1.092 0 0 0 .1-1.337z" class="cls-6" data-name="Caminho 1311" transform="translate(-270.699 -651.653)"/>
                <path id="Caminho_1312" d="M277.32 704.456l.174.15a.842.842 0 0 0 1.206-.048 1.092 1.092 0 0 0 .1-1.337z" class="cls-6" data-name="Caminho 1312" transform="translate(-272.825 -653.148)"/>
                <path id="Caminho_1313" d="M281.07 707.35l.174.145a.849.849 0 0 0 1.273-.179 1.116 1.116 0 0 0 0-1.207z" class="cls-6" data-name="Caminho 1313" transform="translate(-274.946 -654.643)"/>
                <path id="Caminho_1314" d="M271.934 616.214a7.225 7.225 0 0 1-2.619 9.081 3.052 3.052 0 0 1-.1 6.055 3.043 3.043 0 0 1 0 6.053 2.887 2.887 0 0 0 2.724 3.026h13.142a7.084 7.084 0 0 1 2.724-9.079 3.052 3.052 0 0 1-.1-6.055 3.052 3.052 0 0 1 .1-6.055 3.043 3.043 0 0 1 0-6.053 3.043 3.043 0 0 1 0-6.053 2.887 2.887 0 0 0-2.724-3.026h-.6c-.348-2.6-2.993-4.629-6.212-4.629s-5.865 2.027-6.208 4.629h-.122a7.084 7.084 0 0 1-2.724 9.079 2.887 2.887 0 0 0 2.719 3.027z" class="cls-9" data-name="Caminho 1314" transform="translate(-268.238 -599.48)"/>
                <path id="Caminho_1315" d="M269.21 612.1a2.9 2.9 0 0 0 2.724 3.026h13.142l-13.059-6.053h-.083a2.9 2.9 0 0 0-2.724 3.027z" class="cls-6" data-name="Caminho 1315" transform="translate(-268.238 -604.441)"/>
                <path id="Caminho_1316" d="M291.165 624.636a2.9 2.9 0 0 1-2.724 3.026H275.3l13.059-6.053h.083a2.9 2.9 0 0 1 2.724 3.026z" class="cls-6" data-name="Caminho 1316" transform="translate(-271.683 -610.929)"/>
                <path id="Caminho_1317" d="M291.165 649.751a2.9 2.9 0 0 1-2.724 3.026H275.3l13.059-6.058h.083a2.9 2.9 0 0 1 2.724 3.031z" class="cls-6" data-name="Caminho 1317" transform="translate(-271.683 -623.919)"/>
                <path id="Caminho_1318" d="M291.165 674.806a2.9 2.9 0 0 1-2.724 3.026H275.3l13.059-6.053h.083a2.9 2.9 0 0 1 2.723 3.027z" class="cls-6" data-name="Caminho 1318" transform="translate(-271.683 -636.883)"/>
                <path id="Caminho_1319" d="M269.21 637.176a2.9 2.9 0 0 0 2.724 3.026h13.142l-13.059-6.053h-.083a2.9 2.9 0 0 0-2.724 3.027z" class="cls-6" data-name="Caminho 1319" transform="translate(-268.238 -617.416)"/>
                <path id="Caminho_1320" d="M269.21 662.266a2.9 2.9 0 0 0 2.724 3.026h13.142l-13.059-6.053h-.083a2.9 2.9 0 0 0-2.724 3.026z" class="cls-6" data-name="Caminho 1320" transform="translate(-268.238 -630.396)"/>
                <path id="Caminho_1321" d="M270.135 701.661l4.344-2.592a2.563 2.563 0 0 1-.936-1.634 2.742 2.742 0 0 1 .384-1.889 1.047 1.047 0 0 0-.6-.549.927.927 0 0 0-.777.09l-.2.116a2.041 2.041 0 0 0-2.785-.3 2.532 2.532 0 0 0-1.3 2.746l-.039.024a2.562 2.562 0 0 1 .936 1.634 2.742 2.742 0 0 1-.384 1.889.971.971 0 0 0 1.357.465z" class="cls-9" data-name="Caminho 1321" transform="translate(-267.656 -648.64)"/>
                <path id="Caminho_1322" d="M267.107 701.984a1.056 1.056 0 0 0 .6.561.929.929 0 0 0 .781-.078l4.344-2.587-5.287.541h-.026a1.117 1.117 0 0 0-.5.685 1.246 1.246 0 0 0 .088.878z" class="cls-6" data-name="Caminho 1322" transform="translate(-266.974 -651.42)"/>
                <path id="Caminho_1323" d="M277.337 700.188a1.206 1.206 0 0 1-.413 1.535l-4.344 2.587 3.332-4.566h.026a.935.935 0 0 1 .783-.1 1.053 1.053 0 0 1 .616.544z" class="cls-6" data-name="Caminho 1323" transform="translate(-270.144 -651.274)"/>
            </g>
            <g id="Grupo_647" class="cls-7" data-name="Grupo 647" transform="translate(298.967 18.361)">
                <path id="Caminho_1324" d="M834.26 642.827v3.026c0 6.273 4.577 11.357 10.222 11.357s10.222-5.085 10.222-11.357v-3.026c0-6.272-4.577-11.357-10.222-11.357s-10.222 5.085-10.222 11.357z" class="cls-8" data-name="Caminho 1324" transform="translate(-804.682 -408.114)"/>
                <path id="Caminho_1325" d="M854.7 539.184v-3.026c0-6.272-4.577-11.357-10.222-11.357s-10.222 5.085-10.222 11.357v3.026a12.321 12.321 0 0 0 .434 3.282c1.484 5.359 6.268 8.712 11.26 7.892s8.7-5.567 8.724-11.174z" class="cls-8" data-name="Caminho 1325" transform="translate(-804.682 -352.93)"/>
                <path id="Caminho_1326" d="M834.26 589.487v3.031c0 6.272 4.577 11.357 10.222 11.357s10.222-5.085 10.222-11.357v-3.031c0-6.272-4.577-11.357-10.222-11.357s-10.222 5.085-10.222 11.357z" class="cls-8" data-name="Caminho 1326" transform="translate(-804.682 -380.52)"/>
                <path id="Caminho_1327" d="M844.482 684.8c-5.639.019-10.206 5.093-10.222 11.357v3.026c0 6.272 4.577 11.357 10.222 11.357s10.222-5.085 10.222-11.357v-3.026c-.014-6.266-4.583-11.341-10.222-11.357z" class="cls-8" data-name="Caminho 1327" transform="translate(-804.682 -435.703)"/>
                <path id="Caminho_1328" d="M855.3 548.93v2.737c-.025 5.607-3.731 10.354-8.724 11.175s-9.776-2.533-11.26-7.893z" class="cls-6" data-name="Caminho 1328" transform="translate(-805.282 -365.414)"/>
                <path id="Caminho_1329" d="M855.3 602.27v2.737c-.025 5.607-3.731 10.355-8.724 11.175s-9.776-2.533-11.26-7.893z" class="cls-6" data-name="Caminho 1329" transform="translate(-805.282 -393.008)"/>
                <path id="Caminho_1330" d="M855.3 655.6v2.737c-.025 5.607-3.731 10.354-8.724 11.175s-9.776-2.533-11.26-7.892z" class="cls-6" data-name="Caminho 1330" transform="translate(-805.282 -420.597)"/>
                <path id="Caminho_1331" d="M855.3 708.93v2.737c-.025 5.607-3.731 10.355-8.724 11.175s-9.776-2.533-11.26-7.892z" class="cls-6" data-name="Caminho 1331" transform="translate(-805.282 -448.186)"/>
                <path id="Caminho_1332" d="M921.289 600.1l-.817.7a3.578 3.578 0 0 1-5.039-.31 4.648 4.648 0 0 1-.461-5.583 4 4 0 0 1 .782-.9l.817-.7a3.611 3.611 0 0 1 5.417.777 4.617 4.617 0 0 1-.699 6.016z" class="cls-8" data-name="Caminho 1332" transform="translate(-849.923 -387.907)"/>
                <path id="Caminho_1333" d="M900.51 605.6l-.812.69a4.51 4.51 0 0 0-1.554 4 4.249 4.249 0 0 0 2.4 3.449 3.558 3.558 0 0 0 3.876-.657l.812-.7a4.617 4.617 0 0 0 .7-6.019 3.611 3.611 0 0 0-5.417-.777z" class="cls-8" data-name="Caminho 1333" transform="translate(-840.795 -394.265)"/>
                <path id="Caminho_1334" d="M884.554 617.922l-.817.7a4.511 4.511 0 0 0-1.554 4 4.249 4.249 0 0 0 2.4 3.449 3.557 3.557 0 0 0 3.876-.657l.817-.7a4.617 4.617 0 0 0 .7-6.019 3.611 3.611 0 0 0-5.422-.773z" class="cls-8" data-name="Caminho 1334" transform="translate(-831.769 -400.643)"/>
                <path id="Caminho_1335" d="M868.7 630.156l-.812.7a4.617 4.617 0 0 0-.7 6.019 3.611 3.611 0 0 0 5.417.777l.812-.7a4.51 4.51 0 0 0 1.554-4 4.249 4.249 0 0 0-2.4-3.449 3.557 3.557 0 0 0-3.871.653z" class="cls-8" data-name="Caminho 1335" transform="translate(-822.853 -406.935)"/>
                <path id="Caminho_1336" d="M921.211 602.841l-.739.632a3.578 3.578 0 0 1-5.039-.31 4.648 4.648 0 0 1-.461-5.583z" class="cls-6" data-name="Caminho 1336" transform="translate(-849.923 -390.582)"/>
                <path id="Caminho_1337" d="M905.314 615.151l-.734.628a3.577 3.577 0 0 1-5-.351 4.648 4.648 0 0 1-.485-5.538z" class="cls-6" data-name="Caminho 1337" transform="translate(-840.96 -396.95)"/>
                <path id="Caminho_1338" d="M889.31 627.456l-.739.632a3.578 3.578 0 0 1-5.031-.315 4.648 4.648 0 0 1-.469-5.574z" class="cls-6" data-name="Caminho 1338" transform="translate(-831.885 -403.318)"/>
                <path id="Caminho_1339" d="M833.919 239.89c6.4 0 11.586 5.763 11.586 12.873s-5.187 12.873-11.586 12.873c6.4 0 11.586 5.761 11.586 12.87s-5.187 12.873-11.586 12.873c6.29.166 11.312 5.879 11.312 12.869s-5.021 12.7-11.312 12.869c6.4 0 11.586 5.763 11.586 12.873s-5.187 12.873-11.586 12.873h-55.881c-6.4 0-11.586-5.763-11.586-12.873s5.187-12.873 11.586-12.873c-6.4 0-11.586-5.761-11.586-12.87s5.187-12.873 11.586-12.873a11.386 11.386 0 0 1-10.263-6.345 14.115 14.115 0 0 1 0-13.049 11.386 11.386 0 0 1 10.263-6.345c-6.4 0-11.586-5.763-11.586-12.873s5.187-12.873 11.586-12.873c-6.4 0-11.586-5.761-11.586-12.87s5.187-12.873 11.586-12.873a11.385 11.385 0 0 1-10.263-6.345 14.115 14.115 0 0 1 0-13.049 11.386 11.386 0 0 1 10.263-6.345h2.555c1.468-11.072 12.729-19.688 26.409-19.688s24.941 8.616 26.409 19.688h.508c6.4 0 11.586 5.761 11.586 12.87s-5.187 12.873-11.586 12.873c6.29.166 11.312 5.879 11.312 12.869s-5.021 12.7-11.312 12.869z" class="cls-9" data-name="Caminho 1339" transform="translate(-766.176 -168.72)"/>
                <path id="Caminho_1340" d="M860.943 222.383c-.019 7.1-5.193 12.847-11.582 12.868H793.48l55.538-25.741h.343c6.391.021 11.566 5.773 11.582 12.873z" class="cls-6" data-name="Caminho 1340" transform="translate(-781.618 -189.822)"/>
                <path id="Caminho_1341" d="M767.6 275.713c.019 7.1 5.2 12.849 11.586 12.868h55.877l-55.538-25.741h-.339c-6.391.021-11.567 5.772-11.586 12.873z" class="cls-6" data-name="Caminho 1341" transform="translate(-766.981 -217.411)"/>
                <path id="Caminho_1342" d="M767.6 382.378c.019 7.1 5.2 12.852 11.586 12.873h55.877l-55.538-25.741h-.339c-6.39.019-11.567 5.768-11.586 12.868z" class="cls-6" data-name="Caminho 1342" transform="translate(-766.981 -272.594)"/>
                <path id="Caminho_1343" d="M767.6 489.043c.019 7.1 5.2 12.852 11.586 12.873h55.877l-55.538-25.746h-.339c-6.391.021-11.567 5.772-11.586 12.873z" class="cls-6" data-name="Caminho 1343" transform="translate(-766.981 -327.773)"/>
                <path id="Caminho_1344" d="M860.943 329.043c-.017 7.1-5.192 12.852-11.582 12.873H793.48l55.538-25.746h.343c6.391.021 11.566 5.773 11.582 12.873z" class="cls-6" data-name="Caminho 1344" transform="translate(-781.618 -245)"/>
                <path id="Caminho_1345" d="M860.943 435.713c-.019 7.1-5.193 12.847-11.582 12.868H793.48l55.538-25.741h.343c6.391.021 11.565 5.773 11.582 12.873z" class="cls-6" data-name="Caminho 1345" transform="translate(-781.618 -300.184)"/>
                <path id="Caminho_1346" d="M907.427 603.227l-18.4-11a5.145 5.145 0 0 1-1.489-6.359 4.147 4.147 0 0 1 5.6-2.117 4.845 4.845 0 0 1-2.578-4.146 4.978 4.978 0 0 1 2.149-4.437 3.978 3.978 0 0 1 4.534.107l.843.483c2.25-3.379 7.329-3.977 11.834-1.284s6.842 7.752 5.556 11.686l.169.1a4.849 4.849 0 0 1 2.564 4.146 4.978 4.978 0 0 1-2.147 4.428 3.978 3.978 0 0 1-4.526-.1 4.869 4.869 0 0 1 2.464 4.129 4.981 4.981 0 0 1-2.112 4.371 3.975 3.975 0 0 1-4.461-.007z" class="cls-9" data-name="Caminho 1346" transform="translate(-834.518 -377.752)"/>
                <path id="Caminho_1347" d="M925.407 604.524a4.13 4.13 0 0 1-5.869 1.931l-18.4-11 22.4 2.462.113.068a4.754 4.754 0 0 1 2.1 2.867 5.308 5.308 0 0 1-.342 3.678z" class="cls-6" data-name="Caminho 1347" transform="translate(-842.507 -389.48)"/>
                <path id="Caminho_1348" d="M887.22 596.982a5.111 5.111 0 0 0 1.759 6.521l18.4 11-14.179-19.409-.109-.068a4.133 4.133 0 0 0-5.871 1.956z" class="cls-6" data-name="Caminho 1348" transform="translate(-834.343 -388.965)"/>
            </g>
            <ellipse id="Elipse_63" cx="226.774" cy="11.101" class="cls-8" data-name="Elipse 63" rx="226.774" ry="11.101" transform="translate(0 286.05)"/>
            <ellipse id="Elipse_64" cx="49.091" cy="7.274" class="cls-6" data-name="Elipse 64" rx="49.091" ry="7.274" transform="translate(168.995 289.395)"/>
            <path id="Caminho_1349" d="M557.836 490.254a9.323 9.323 0 0 1-8.675-2.727 11.8 11.8 0 0 1-3.167-9.378c1.138-11.179 4.679-29.187 14.362-56.222 11.226-31.345 7.177-38.918-4.853-61.4-3.884-7.264-8.289-15.494-13.033-26.064-12.234-27.155-7.585-48.084-1.547-60.821a59.951 59.951 0 0 1 16.63-21.426l9.479 17.424-.869.965c-.022 0 .434 0 1.095 1.337a41.785 41.785 0 0 0-8.98 12.776c-5.257 11.7-4.562 25.1 2.064 39.806 4.436 9.856 8.641 17.719 12.351 24.655 6.664 12.453 11.925 22.29 13.667 34.709 1.8 12.854-.434 26.682-7.424 46.24-9.214 25.722-12.164 41.819-13.063 50.458-.5 4.816-3.742 8.722-8.024 9.653z" class="cls-8" data-name="Caminho 1349" transform="translate(-336.349 -193.556)"/>
            <path id="Caminho_1350" d="M409 44.671L449.207 0l40.6 44.671h-27.593V78.83h-25.623V44.888z" class="cls-9" data-name="Caminho 1350" transform="translate(-231.317)"/>
            <ellipse id="Elipse_65" cx="25.632" cy="3.799" class="cls-6" data-name="Elipse 65" rx="25.632" ry="3.799" transform="translate(280.21 288.883)"/>
            <path id="Caminho_1351" d="M770.426 603.888a4.864 4.864 0 0 1-4.53-1.422 6.159 6.159 0 0 1-1.653-4.9c.591-5.835 2.442-15.238 7.5-29.351 5.861-16.367 3.745-20.32-2.533-32.059-2.029-3.789-4.344-8.09-6.816-13.611-6.378-14.176-3.953-25.1-.8-31.75a31.573 31.573 0 0 1 8.689-11.188l4.948 9.1-.461.483s.235 0 .573.7a21.79 21.79 0 0 0-4.692 6.67c-2.741 6.106-2.376 13.1 1.082 20.784 2.316 5.145 4.509 9.253 6.447 12.873 3.476 6.5 6.225 11.637 7.138 18.124.938 6.709-.222 13.93-3.88 24.134-4.809 13.428-6.351 21.831-6.821 26.344a5.591 5.591 0 0 1-4.188 5.044z" class="cls-8" data-name="Caminho 1351" transform="translate(-462.808 -311.192)"/>
            <path id="Caminho_1352" d="M655.44 308.783l20.992-23.323 21.2 23.323h-14.406v17.835h-13.38V308.9z" class="cls-9" data-name="Caminho 1352" transform="translate(-370.695 -147.677)"/>
            <ellipse id="Elipse_66" cx="25.632" cy="3.799" class="cls-6" data-name="Elipse 66" rx="25.632" ry="3.799" transform="translate(104.699 288.883)"/>
            <path id="Caminho_1353" d="M354.118 603.888a4.864 4.864 0 0 0 4.529-1.422 6.159 6.159 0 0 0 1.653-4.9c-.591-5.835-2.442-15.238-7.5-29.351-5.861-16.367-3.745-20.32 2.533-32.059 2.029-3.789 4.344-8.09 6.816-13.611 6.377-14.176 3.953-25.1.8-31.75a31.574 31.574 0 0 0-8.689-11.188l-4.948 9.1.461.483s-.235 0-.573.7a21.788 21.788 0 0 1 4.692 6.671c2.741 6.106 2.376 13.1-1.082 20.784-2.316 5.145-4.509 9.253-6.447 12.873-3.475 6.5-6.225 11.637-7.138 18.124-.938 6.709.222 13.93 3.879 24.134 4.809 13.428 6.351 21.831 6.821 26.344a5.591 5.591 0 0 0 4.188 5.044z" class="cls-8" data-name="Caminho 1353" transform="translate(-225.565 -311.192)"/>
            <path id="Caminho_1354" d="M293.632 308.783L272.64 285.46l-21.2 23.323h14.406v17.835h13.381V308.9z" class="cls-9" data-name="Caminho 1354" transform="translate(-142.206 -147.677)"/>
            <path id="Caminho_1384" d="M9.208-.243c5.084-.152 9.19.26 9.172.921S14.226 2 9.142 2.151s-9.19-.26-9.172-.921S4.124-.09 9.208-.243z" class="cls-6" data-name="Caminho 1384" transform="rotate(-16.49 593.536 -649.296)"/>
            <path id="Caminho_1385" d="M9.208-.243c5.084-.152 9.19.26 9.172.921S14.226 2 9.142 2.151s-9.19-.26-9.172-.921S4.124-.09 9.208-.243z" class="cls-6" data-name="Caminho 1385" transform="rotate(-16.49 628.806 -657.957)"/>
            <path id="Caminho_1386" d="M9.208-.243c5.084-.152 9.19.26 9.172.921S14.226 2 9.142 2.151s-9.19-.26-9.172-.921S4.124-.09 9.208-.243z" class="cls-6" data-name="Caminho 1386" transform="rotate(-16.49 655.949 -669.324)"/>
            <path id="Caminho_1387" d="M9.208-.243c5.084-.152 9.19.26 9.172.921S14.226 2 9.142 2.151s-9.19-.26-9.172-.921S4.124-.09 9.208-.243z" class="cls-6" data-name="Caminho 1387" transform="rotate(-16.49 682.674 -677.708)"/>
            <path id="Caminho_1355" d="M930.024 713.516h-18.455a4.276 4.276 0 0 1 0-8.5 3.755 3.755 0 0 1-3.422-2.082 4.662 4.662 0 0 1 0-4.335 3.755 3.755 0 0 1 3.422-2.082h.843c.482-3.659 4.2-6.506 8.715-6.511s8.254 2.838 8.728 6.492h.169a3.755 3.755 0 0 1 3.422 2.083 4.661 4.661 0 0 1 0 4.335 3.755 3.755 0 0 1-3.422 2.082 4.276 4.276 0 0 1 0 8.5z" class="cls-9" data-name="Caminho 1355" transform="translate(-547.201 -420.032)"/>
            <path id="Caminho_1356" d="M939 707.717a4.062 4.062 0 0 1-3.823 4.252H916.73l18.333-8.519h.113a4.068 4.068 0 0 1 3.824 4.267z" class="cls-6" data-name="Caminho 1356" transform="translate(-552.357 -426.99)"/>
            <path id="Caminho_1357" d="M908.17 725.463a4.065 4.065 0 0 0 3.83 4.248h18.455l-18.346-8.481h-.1a4.067 4.067 0 0 0-3.839 4.233z" class="cls-6" data-name="Caminho 1357" transform="translate(-547.516 -436.189)"/>
            <path id="Caminho_1358" d="M684.536 713.9h-10.474a5.649 5.649 0 0 0-2.172-7.24 2.3 2.3 0 0 1 2.172-2.413h.482c.269-2.076 2.381-3.693 4.944-3.693s4.674 1.607 4.953 3.683h.1a5.649 5.649 0 0 0 2.172 7.24 2.3 2.3 0 0 1-2.172 2.413z" class="cls-9" data-name="Caminho 1358" transform="translate(-413.884 -425.49)"/>
            <path id="Caminho_1359" d="M689.536 710.613a2.3 2.3 0 0 1-2.172 2.413H676.89l10.426-4.827h.048a2.3 2.3 0 0 1 2.172 2.414z" class="cls-6" data-name="Caminho 1359" transform="translate(-416.712 -429.448)"/>
            <path id="Caminho_1360" d="M672.05 720.643a2.3 2.3 0 0 0 2.172 2.413h10.47l-10.426-4.827h-.066a2.305 2.305 0 0 0-2.15 2.414z" class="cls-6" data-name="Caminho 1360" transform="translate(-413.975 -434.637)"/>
            <path id="Caminho_1361" d="M214.444 726.337h-22.156a4.508 4.508 0 0 1-4.094-2.5 5.594 5.594 0 0 1 0-5.192 4.507 4.507 0 0 1 4.094-2.5 4.507 4.507 0 0 1-4.094-2.5 5.594 5.594 0 0 1 0-5.192 4.508 4.508 0 0 1 4.094-2.5h1.012c.578-4.388 5.039-7.8 10.457-7.81s9.883 3.4 10.47 7.785h.2a5.147 5.147 0 0 1 0 10.2 5.147 5.147 0 0 1 0 10.2z" class="cls-9" data-name="Caminho 1361" transform="translate(-139.961 -424.238)"/>
            <path id="Caminho_1362" d="M225.189 719.381a4.877 4.877 0 0 1-4.583 5.1H198.45l21.991-10.223h.135a4.885 4.885 0 0 1 4.613 5.123z" class="cls-6" data-name="Caminho 1362" transform="translate(-146.122 -432.583)"/>
            <path id="Caminho_1363" d="M188.22 740.623a4.879 4.879 0 0 0 4.6 5.092h22.156L192.96 735.54h-.135a4.882 4.882 0 0 0-4.605 5.083z" class="cls-6" data-name="Caminho 1363" transform="translate(-140.337 -443.592)"/>
            <path id="Caminho_1364" d="M319.664 269.788a8.017 8.017 0 0 0-5.122.608 6.822 6.822 0 0 1-6.126 0 7.827 7.827 0 0 0-7.2.154 4.12 4.12 0 0 1-2.072.579c-2.919 0-5.348-3.268-5.852-7.583a6.043 6.043 0 0 0 1.46-1.747c1.712-3.065 4.344-5.029 7.338-5.029s5.6 1.931 7.312 4.976a5.539 5.539 0 0 0 4.848 2.959h.078c2.321-.005 4.333 2.066 5.336 5.083z" class="cls-2" data-name="Caminho 1364" transform="translate(-199.761 -195.91)"/>
            <path id="Caminho_1365" d="M328.541 243.351l-4.718 3.326 2.863-5.792a4.368 4.368 0 0 0-2.854-1.134h-.074a4.7 4.7 0 0 1-.977-.077l-1.6 1.125.686-1.385a5.813 5.813 0 0 1-2.8-2.36l-2.872 2.022 1.805-3.655a8.132 8.132 0 0 0-6.412-3.6c-2.976 0-5.648 1.964-7.342 5.029a5.379 5.379 0 0 1-4.853 2.9h-.143c-3.284 0-5.952 4.141-5.952 9.248s2.667 9.248 5.952 9.248a4.072 4.072 0 0 0 2.072-.579 7.826 7.826 0 0 1 7.2-.154 6.965 6.965 0 0 0 3.08.734 6.879 6.879 0 0 0 3.041-.719 7.821 7.821 0 0 1 7.138.154 4.1 4.1 0 0 0 2.051.565c3.289 0 5.952-4.141 5.952-9.248a12.812 12.812 0 0 0-1.243-5.648z" class="cls-2" data-name="Caminho 1365" transform="translate(-199.766 -183.003)"/>
            <path id="Caminho_1366" d="M210.62 379.788a8.016 8.016 0 0 1 5.1.608 6.81 6.81 0 0 0 6.121 0 7.826 7.826 0 0 1 7.2.154 4.133 4.133 0 0 0 2.072.579c2.919 0 5.352-3.268 5.856-7.583a5.973 5.973 0 0 1-1.46-1.747c-1.712-3.065-4.366-5.029-7.342-5.029s-5.6 1.931-7.307 4.976A5.537 5.537 0 0 1 216 374.7h-.074c-2.313 0-4.326 2.071-5.306 5.088z" class="cls-2" data-name="Caminho 1366" transform="translate(-153.005 -252.816)"/>
            <path id="Caminho_1367" d="M188.522 353.346l4.718 3.326-2.867-5.792a4.376 4.376 0 0 1 2.854-1.134h.078a4.7 4.7 0 0 0 .977-.077l1.6 1.125-.686-1.385a5.82 5.82 0 0 0 2.8-2.36l2.863 2.018-1.812-3.654a8.14 8.14 0 0 1 6.417-3.6c2.976 0 5.626 1.964 7.342 5.029a5.375 5.375 0 0 0 4.853 2.9h.156c3.289 0 5.952 4.141 5.952 9.248s-2.663 9.248-5.952 9.248a4.1 4.1 0 0 1-2.072-.579 7.826 7.826 0 0 0-7.2-.154 6.946 6.946 0 0 1-3.076.734 6.852 6.852 0 0 1-3.041-.719 7.829 7.829 0 0 0-7.142.154 4.086 4.086 0 0 1-2.051.565c-3.284 0-5.952-4.141-5.952-9.248a12.814 12.814 0 0 1 1.241-5.645z" class="cls-2" data-name="Caminho 1367" transform="translate(-139.804 -239.904)"/>
            <path id="Caminho_1368" d="M625.061 401.34a2.112 2.112 0 0 1 .791.275 2.076 2.076 0 0 1 .691 1.028 10 10 0 0 1 .46 3.219 7.622 7.622 0 0 1-.3 2.611 1.664 1.664 0 0 1-.391.681 1.534 1.534 0 0 1-1.8.116 2.358 2.358 0 0 1-.56-1.448 3.62 3.62 0 0 0-.752-2.018c-.361-.372-.869-.56-1.134-1.018a2.384 2.384 0 0 1 .052-1.873c.169-.531.434-1.6.921-1.873s1.505.194 2.022.3z" class="cls-4" data-name="Caminho 1368" transform="translate(-385.605 -270.502)"/>
            <path id="Caminho_1369" d="M579.877 406a4.283 4.283 0 0 0 .778 1.6c.221.285.5.627.378.965a.821.821 0 0 1-.209.314 10.109 10.109 0 0 1-6.191 2.954.207.207 0 0 1-.109 0c-.065-.034-.083-.125-.091-.208a2.842 2.842 0 0 1 0-.792 2.3 2.3 0 0 1 1.073-1.39 3.544 3.544 0 0 0 1.26-1.221c.33-.69.191-1.588.582-2.235a2.047 2.047 0 0 1 1.477-.845c.191-.034.608-.275.773-.164s.214.807.279 1.022z" class="cls-4" data-name="Caminho 1369" transform="translate(-358.751 -272.568)"/>
            <path id="Caminho_1370" d="M625.807 401.346a.248.248 0 0 1 .2-.251.619.619 0 0 1 .322.048 4.355 4.355 0 0 0 .778.159 5.1 5.1 0 0 1 .938.121 1.083 1.083 0 0 1 .725.618 1.71 1.71 0 0 1 .083.579 10.141 10.141 0 0 1-.243 2.259.162.162 0 0 1-.083.14c-.048.019-.087 0-.126 0a.179.179 0 0 0-.074.1 5.465 5.465 0 0 0-.278 1.511 49.304 49.304 0 0 1-.282 2.269 2.7 2.7 0 0 1-.434 1.24 1.772 1.772 0 0 1-1.173.6 7.463 7.463 0 0 1-2.763-.28.769.769 0 0 1-.465-.232.64.64 0 0 1-.113-.41c0-.483.434-.864.817-1.144l.565-.381a.291.291 0 0 0 .091-.092.383.383 0 0 0 .026-.188l-.035-.743a1.907 1.907 0 0 1 1.655 1.168c.074.159.143.348.291.41a.386.386 0 0 0 .456-.309 1.438 1.438 0 0 0 0-.652c-.3-1.82-.23-3.692-.434-5.531a1.322 1.322 0 0 0-.169-.579c-.088-.14-.253-.246-.275-.43z" class="cls-5" data-name="Caminho 1370" transform="translate(-386.13 -270.572)"/>
            <path id="Caminho_1371" d="M571.738 413.39c-.078.14-.2.246-.269.4a.359.359 0 0 0 .056.439.351.351 0 0 0 .243.029 7.83 7.83 0 0 0 4.409-2.215 3.286 3.286 0 0 0 .539-.661c.143-.241.265-.536.508-.637a10.834 10.834 0 0 1 .23 2.153 1.627 1.627 0 0 1-.435 1.3 1.332 1.332 0 0 1-.434.208l-.769.241a.7.7 0 0 1-.434.043 1.817 1.817 0 0 0-.265-.106.567.567 0 0 0-.3.039l-.66.217a3.523 3.523 0 0 0-.656.251c-.191.1-.365.232-.547.343a6.44 6.44 0 0 1-.96.43l-1.164.449a3.782 3.782 0 0 1-.99.285 3.831 3.831 0 0 0-.7.043c-.235.043-.343.1-.526.121a1.313 1.313 0 0 1-.825-.27.855.855 0 0 1-.239-.241c-.165-.285 0-.666.143-.965a3.591 3.591 0 0 1 1.177-1.352c.2-.125.434-.217.63-.328.6-.319 1.043-.854 1.6-1.221s.886.551.638 1.005z" class="cls-5" data-name="Caminho 1371" transform="translate(-354.834 -275.563)"/>
            <path id="Caminho_1372" d="M614.92 301.708a4.585 4.585 0 0 0 2.059.893 7.851 7.851 0 0 0 1.164.068 27.234 27.234 0 0 0 4.848-.449 6.793 6.793 0 0 1-1.525-2.635 4.9 4.9 0 0 1-.074-1.651 14.162 14.162 0 0 1 .434-2.08 11.2 11.2 0 0 1-2.05-.058c-.387-.043-1.338-.434-1.677-.135s-.078 1.25-.069 1.7a.206.206 0 0 1 0 .048 5.946 5.946 0 0 1-.391 1.989 3.44 3.44 0 0 1-2.719 2.31z" class="cls-4" data-name="Caminho 1372" transform="translate(-381.664 -215.971)"/>
            <path id="Caminho_1373" d="M621.976 297.364a3.75 3.75 0 0 0 3.341.57 14.186 14.186 0 0 1 .434-2.08 11.2 11.2 0 0 1-2.05-.058c-.387-.043-1.338-.434-1.677-.135s-.057 1.249-.048 1.703z" class="cls-6" data-name="Caminho 1373" transform="translate(-385.587 -215.971)"/>
            <ellipse id="Elipse_71" cx="4.084" cy="4.537" class="cls-4" data-name="Elipse 71" rx="4.084" ry="4.537" transform="translate(234.538 72.85)"/>
            <path id="Caminho_1374" d="M587.4 320.831a2.178 2.178 0 0 0 .921 1.82 3.285 3.285 0 0 0 1 .391 17.8 17.8 0 0 0 5.7.782 2.909 2.909 0 0 0 1.208-.28 1.428 1.428 0 0 0 .747-1.038.6.6 0 0 1 .339-.608 1.36 1.36 0 0 0 .434-1.284c.235.116.478-.145.586-.4s.2-.57.434-.676a2.952 2.952 0 0 1 .508-.082c.269-.077.434-.367.626-.589a4.636 4.636 0 0 1 1.442-.965 16.437 16.437 0 0 0 3.91-3.49 14.215 14.215 0 0 0 1.686-2.1c.135-.222.261-.449.374-.681a20.3 20.3 0 0 0 .943-2.389 3.048 3.048 0 0 0 .239-1.371v-.125a2.744 2.744 0 0 0-.369-.83 3.226 3.226 0 0 0-1.673-1.53 4.352 4.352 0 0 0-2.172.212 4.808 4.808 0 0 1-.73.125 6.173 6.173 0 0 1-2.272-.4l-.812-.246c-.4-.125-.608-.671-1.017-.767a1.338 1.338 0 0 0-.552.034 6.988 6.988 0 0 0-2.407.874 3.685 3.685 0 0 0-.465.352 3.336 3.336 0 0 0-1.086 1.781c-.169.787 0 1.622-.182 2.413a5.564 5.564 0 0 1-.83 1.757l-1.99 3.176a19.225 19.225 0 0 1-1.468 2.119c-1.072 1.279-3.042 2.259-3.072 4.015z" class="cls-5" data-name="Caminho 1374" transform="translate(-366.099 -220.499)"/>
            <path id="Caminho_1375" d="M594.557 272.785a4.044 4.044 0 0 0-.361-1.26 2.761 2.761 0 0 0-.53-.618 3.444 3.444 0 0 0-1.13-.782 1.289 1.289 0 0 0-1.3.164 1.991 1.991 0 0 0-.565 1.308 3.542 3.542 0 0 0 .3 1.984 7.958 7.958 0 0 0 1.447 1.656 6.206 6.206 0 0 1 .947 1.308 3.7 3.7 0 0 0 .434.7.773.773 0 0 0 .682.3 1.158 1.158 0 0 0 .556-.362c.2-.2.76-.56.778-.878s-.434-.84-.526-1.081a13.184 13.184 0 0 1-.734-2.437z" class="cls-4" data-name="Caminho 1375" transform="translate(-367.93 -202.764)"/>
            <path id="Caminho_1376" d="M565.8 359.856c.513 1.052 1.077 2.076 1.534 3.161.265.632.5 1.284.795 1.9s.721 1.3 1.06 1.96a24.456 24.456 0 0 1 1.764 5.425 9.2 9.2 0 0 0 3.475-1.356c.07-.048.139-.1.2-.15a2.7 2.7 0 0 0 .7-.859 19.517 19.517 0 0 0-1.64-4.937c-.265-.483-.573-.965-.869-1.448-.8-1.4-.969-3.166-1.881-4.479a.837.837 0 0 1 0-.912c.1-.15.274-.294.239-.483s-.152-.265-.1-.391.078-.1.126-.14c.152-.159.135-.434.148-.666a3.473 3.473 0 0 1 .665-1.6 1 1 0 0 1 .243-.29c.083-.058.182-.082.265-.14.291-.2.269-.676.408-1.028.187-.483.647-.7.947-1.072.387-.483.482-1.144.869-1.559a1.156 1.156 0 0 1 .135-.121 8.161 8.161 0 0 0-.239 2.186c-.039 2.524.53 5.14.261 7.65a5.435 5.435 0 0 0 2.459 4.976 11.137 11.137 0 0 0 1.916.893c.982.386 1.959.787 2.919 1.231q1.017.483 2.007 1.009a24.131 24.131 0 0 1 2.372 1.448 9.4 9.4 0 0 1 2.559 2.336 2.237 2.237 0 0 0 1.651-1.009 7.335 7.335 0 0 0 .908-1.9 5.7 5.7 0 0 0 .434-1.791.349.349 0 0 0-.178-.323l-4.479-2.64-.839-.483c-1.833-1.081-3.736-2.08-5.569-3.161-.122.039-.226-.116-.261-.251s-.061-.3-.178-.367-.135-.029-.178-.082a.232.232 0 0 1-.03-.164c.061-.965.7-1.892.569-2.872a3.8 3.8 0 0 1-.161-1.236 6.1 6.1 0 0 1 .339-.782c.222-.6 0-1.323.243-1.931a4.713 4.713 0 0 0 .321-1.221 9 9 0 0 1 .686-2.413 4.417 4.417 0 0 1 .63-1.062c.135-.159.287-.3.434-.483a4.123 4.123 0 0 0 .643-1.853 9.824 9.824 0 0 0 .091-3.63 5.869 5.869 0 0 1-.209-1.221c0-.55.222-1.192-.122-1.588a1.064 1.064 0 0 0-.5-.285 14.409 14.409 0 0 0-2.429-.483l-3.745-.541a3.2 3.2 0 0 1-1.247-.357 2.742 2.742 0 0 1-1.047-1.491c-.66.531-.9 1.525-1.429 2.211a10.341 10.341 0 0 1-.869.917 10.974 10.974 0 0 0-.938 1.284 23.245 23.245 0 0 0-2.12 3.726c-.291.7-.517 1.419-.752 2.138-.912 2.833-2.4 5.522-3.041 8.452a17.585 17.585 0 0 0-.608 2.095 4.379 4.379 0 0 0 .643 2.253z" class="cls-10" data-name="Caminho 1376" transform="translate(-353.521 -237.301)"/>
            <path id="Caminho_1377" d="M611.022 335.059a1.351 1.351 0 0 1 .135.613c-.083-.483-.652-.714-.686-1.168 0-.208 0-.2.135-.087s.251.463.416.642z" class="cls-6" data-name="Caminho 1377" transform="translate(-379.147 -236.039)"/>
            <path id="Caminho_1378" d="M607.268 338.586a.979.979 0 0 1 .256.425 1.181 1.181 0 0 1 .052.743c-.083-.043-.109-.159-.135-.256a1.9 1.9 0 0 0-.178-.439c-.065-.121-.378-.4-.374-.531s.296-.01.379.058z" class="cls-6" data-name="Caminho 1378" transform="translate(-377.122 -238.176)"/>
            <path id="Caminho_1379" d="M607.3 305.544a4.338 4.338 0 0 0 .869.637c.808.454 1.7.7 2.52 1.134a11.488 11.488 0 0 1 1.169.758l2.42 1.7a2.933 2.933 0 0 1 .534.449c.287.348.287.965.552 1.323a1.55 1.55 0 0 0 1.177.6 3.52 3.52 0 0 0 1.3-.246 6.287 6.287 0 0 0 .747-.3 3.478 3.478 0 0 0 .717-.454 2.322 2.322 0 0 0 .869-1.487 3.293 3.293 0 0 0-.143-1.212 4.863 4.863 0 0 0-.261-.734 2.468 2.468 0 0 0-.2-.386 3.761 3.761 0 0 0-2.481-1.491c-.5-.106-1.008-.174-1.508-.27a4.812 4.812 0 0 1-.73.125 6.172 6.172 0 0 1-2.272-.4l-.812-.246c-.4-.125-.608-.671-1.017-.767a1.337 1.337 0 0 0-.552.034 6.988 6.988 0 0 0-2.407.874 3.648 3.648 0 0 0-.491.352z" class="cls-6" data-name="Caminho 1379" transform="translate(-377.354 -220.483)"/>
            <path id="Caminho_1380" d="M598.954 282c.1 1.1.934 1.9 1.442 2.848.248.483.434.965.643 1.448a14.938 14.938 0 0 0 .869 1.5l.908 1.448a15.025 15.025 0 0 0 1.738 2.447c1.19.227 2.172 1.207 3.31 1.68a15.325 15.325 0 0 0 2.836.629 3.761 3.761 0 0 1 2.481 1.491 4.334 4.334 0 0 1 .465 1.125 3.265 3.265 0 0 1 .143 1.211 2.321 2.321 0 0 1-.869 1.482 4.325 4.325 0 0 1-1.464.758 3.425 3.425 0 0 1-1.3.246 1.533 1.533 0 0 1-1.177-.6c-.265-.367-.261-.965-.552-1.318a2.7 2.7 0 0 0-.534-.449l-2.42-1.7a11.494 11.494 0 0 0-1.169-.758c-.817-.444-1.712-.681-2.52-1.139a3.306 3.306 0 0 1-1.738-2.2c-.491-3.046-2.389-5.613-4.01-8.128.052 0 .035-.145.056-.2a2.5 2.5 0 0 1 1.186-1.332 6.4 6.4 0 0 1 1.676-.489z" class="cls-5" data-name="Caminho 1380" transform="translate(-370.98 -208.962)"/>
            <path id="Caminho_1381" d="M622.438 279.732a1.78 1.78 0 0 1 .169-.965 1.866 1.866 0 0 1 1.342-.787c.491-.116.982-.208 1.477-.29a3.06 3.06 0 0 1 1.221-.024 7.921 7.921 0 0 1 1.525.8 9.717 9.717 0 0 0 1.938.55 2.859 2.859 0 0 1 1.738 1.038 3.879 3.879 0 0 1 .517 1.607c.773 4.634-.061 9.383-.217 14.094a9.389 9.389 0 0 0 .956 5.309l-2.746-.077a3.106 3.106 0 0 1-2.011-.545 3.761 3.761 0 0 1-.921-1.752 5.918 5.918 0 0 1-.352-1.569c-.043-1.11.521-2.2.339-3.282a3.691 3.691 0 0 0-1.26-2.042 12.011 12.011 0 0 1-1.664-1.646 6.5 6.5 0 0 1-.869-4.209 17.633 17.633 0 0 0 .135-2.616 3.528 3.528 0 0 0-.621-1.839 2.687 2.687 0 0 1-.696-1.755z" class="cls-10" data-name="Caminho 1381" transform="translate(-385.91 -206.694)"/>
            <path id="Caminho_1382" d="M622.6 279.162a1.837 1.837 0 0 1 1.3-.782 1.308 1.308 0 0 0-.652.57 1.781 1.781 0 0 0-.169.965 2.664 2.664 0 0 0 .7 1.757 3.526 3.526 0 0 1 .621 1.834 17.682 17.682 0 0 1-.135 2.621 6.628 6.628 0 0 0 .869 4.2 12.02 12.02 0 0 0 1.664 1.646 3.7 3.7 0 0 1 1.242 2c.182 1.091-.382 2.177-.339 3.282a5.881 5.881 0 0 0 .352 1.569 3.76 3.76 0 0 0 .921 1.752 3.064 3.064 0 0 0 2.011.545l1.946.058c.043.077.087.154.135.232l-2.746-.077a3.105 3.105 0 0 1-2.011-.545 3.76 3.76 0 0 1-.921-1.752 5.918 5.918 0 0 1-.352-1.569c-.043-1.11.521-2.2.339-3.282a3.689 3.689 0 0 0-1.238-2 12.021 12.021 0 0 1-1.664-1.646 6.5 6.5 0 0 1-.869-4.209 17.634 17.634 0 0 0 .135-2.616 3.527 3.527 0 0 0-.621-1.839 2.685 2.685 0 0 1-.7-1.757 1.778 1.778 0 0 1 .182-.957z" class="cls-6" data-name="Caminho 1382" transform="translate(-385.901 -207.09)"/>
            <path id="Caminho_1383" d="M575.37 369.248l5.052 13.635a2.7 2.7 0 0 0 .7-.859 19.516 19.516 0 0 0-1.646-4.933c-.265-.483-.573-.965-.869-1.448-.8-1.4-.969-3.166-1.881-4.479a.837.837 0 0 1 0-.912c.1-.15.274-.294.239-.483s-.152-.265-.1-.391.078-.1.126-.14c.152-.159.135-.434.148-.666a3.473 3.473 0 0 1 .665-1.6 1 1 0 0 1 .243-.29c.083-.058.182-.082.265-.14.291-.2.269-.676.408-1.028.187-.483.647-.7.947-1.072.387-.483.482-1.144.869-1.559l.035-.1-.382-2.635z" class="cls-6" data-name="Caminho 1383" transform="translate(-359.296 -249.391)"/>
        </g>
    </g>
</svg>
