<svg xmlns="http://www.w3.org/2000/svg" width="234" height="209.391" viewBox="0 0 234 209.391">
    <defs>
        <style>
            .cls-1,.cls-6{fill:#4052a9}.cls-1,.cls-15,.cls-3{opacity:.1}.cls-2{fill:#535461}.cls-4{fill:#fff}.cls-5{opacity:.2}.cls-7{fill:url(#linear-gradient)}.cls-8{fill:#4c4c78}.cls-9{fill:#ffb9b9}.cls-10{fill:#cbcdda}.cls-11{opacity:.05}.cls-12{fill:none;stroke:#00f;stroke-miterlimit:10}.cls-13{fill:#474463}.cls-14{fill:#472727}
        </style>
        <linearGradient id="linear-gradient" x1="-2.392" x2="-2.392" y1="1" gradientUnits="objectBoundingBox">
            <stop offset="0" stop-color="gray" stop-opacity=".251"/>
            <stop offset=".54" stop-color="gray" stop-opacity=".122"/>
            <stop offset="1" stop-color="gray" stop-opacity=".102"/>
        </linearGradient>
    </defs>
    <g id="Grupo_714" data-name="Grupo 714" transform="translate(-.048 .022)">
        <ellipse id="Elipse_168" cx="96.528" cy="7.515" class="cls-1" data-name="Elipse 168" rx="96.528" ry="7.515" transform="translate(16.161 194.339)"/>
        <path id="Caminho_2247" d="M85.61 57.625c-6.015 7.9-7.537 17.919-7.62 27.524-.058 6.773.766 14.119 5.8 19.114 6.631 6.572 19.363 7.867 22.648 16.264 2.913 7.462-3.866 14.969-10.378 20.235s-13.986 11.715-12.77 19.557c.771 5.007 5 8.938 9.217 12.238 8.018 6.287 17.032 11.788 27.193 14.464 18.435 4.849 38.346-.171 55.62-7.771 10.634-4.678 22.98-10.419 33.539-5.608 2.788 1.27 5.154 3.189 7.725 4.778 7.474 4.595 16.6 6.287 25.485 7.723 13.02 2.113 26.7 3.876 39.25.065s23.387-14.954 21.467-26.84c-1.811-11.2-13.339-18.5-22.525-26.143-3.241-2.7-6.539-6.275-5.733-10.2.641-3.114 3.657-5.281 6.347-7.293a81.577 81.577 0 0 0 29.34-41.467c2.259-7.605 3.075-16.367-1.965-22.781-4.065-5.173-11.033-7.658-17.659-9.7-12.3-3.8-24.9-7-37.833-7.867s-26.294.785-37.775 6.26c-5.506 2.628-10.5 6.089-16.057 8.619-15.786 7.183-34.387 6.217-51.992 5.083-6.291-.4-12.866-1.124-18.327-4.208-4.706-2.661-7.4-4.567-13.222-4.864-11.421-.584-23.236 4.212-29.775 12.818z" class="cls-1" data-name="Caminho 2247" transform="translate(-77.94 -33.72)"/>
        <path id="Caminho_2248" d="M237.5 304.963l-.246.571-1.6 3.684-16.754 38.623-28.441 78.205-4.065.035 28.457-78.24 19.392-44.691 1.419.787 1.6.888z" class="cls-2" data-name="Caminho 2248" transform="translate(-144.582 -226.926)"/>
        <path id="Caminho_2249" d="M462.644 426.081l-3.346-.035-28.443-78.205-16.319-37.609-2.037-4.7-.249-.571.249-.138 2.037-1.132.979-.543 19.1 44.691z" class="cls-2" data-name="Caminho 2249" transform="translate(-319.826 -226.926)"/>
        <path id="Retângulo_217" d="M0 0h3.637v133.436H0z" class="cls-2" data-name="Retângulo 217" transform="translate(91.075 65.719)"/>
        <path id="Caminho_2250" d="M474.408 207.69a4.94 4.94 0 0 0-4.628 5.193v1.856a4.66 4.66 0 1 0 9.259 0v-1.856a4.942 4.942 0 0 0-4.631-5.193zm3.471 7.042a3.5 3.5 0 1 1-6.947 0v-1.856a3.5 3.5 0 1 1 6.947 0z" class="cls-2" data-name="Caminho 2250" transform="translate(-381.93 -163.954)"/>
        <path id="Caminho_2251" d="M357.895 316.576h-3.76l-16.319-37.609v37.609h-3.636v-38.622l-16.76 38.622h-4.05l19.392-44.691 1.419.787V261.38h3.635v11.048l.979-.543z" class="cls-3" data-name="Caminho 2251" transform="translate(-243.106 -195.661)"/>
        <path id="Caminho_2252" d="M479.034 229.08v1.67a4.66 4.66 0 1 1-9.259 0v-1.67h1.156v1.67a3.5 3.5 0 1 0 6.947 0v-1.67z" class="cls-3" data-name="Caminho 2252" transform="translate(-381.926 -179.965)"/>
        <path id="Retângulo_218" d="M0 0h139.861v70.872H0z" class="cls-2" data-name="Retângulo 218" transform="translate(22.548 49.488)"/>
        <path id="Retângulo_219" d="M0 0h134.57v64.564H0z" class="cls-4" data-name="Retângulo 219" transform="translate(25.029 51.713)"/>
        <g id="Grupo_692" class="cls-5" data-name="Grupo 692" transform="translate(38.318 58.733)">
            <path id="Retângulo_220" d="M0 0h6.362v3.252H0z" class="cls-6" data-name="Retângulo 220"/>
        </g>
        <g id="Grupo_693" class="cls-5" data-name="Grupo 693" transform="translate(38.318 65.022)">
            <path id="Retângulo_221" d="M0 0h6.362v3.252H0z" class="cls-6" data-name="Retângulo 221"/>
        </g>
        <g id="Grupo_694" class="cls-5" data-name="Grupo 694" transform="translate(38.318 71.31)">
            <path id="Retângulo_222" d="M0 0h6.362v3.252H0z" class="cls-6" data-name="Retângulo 222"/>
        </g>
        <g id="Grupo_695" class="cls-5" data-name="Grupo 695" transform="translate(38.318 77.597)">
            <path id="Retângulo_223" d="M0 0h6.362v3.252H0z" class="cls-6" data-name="Retângulo 223"/>
        </g>
        <g id="Grupo_696" class="cls-5" data-name="Grupo 696" transform="translate(38.318 83.887)">
            <path id="Retângulo_224" d="M0 0h6.362v3.252H0z" class="cls-6" data-name="Retângulo 224"/>
        </g>
        <g id="Grupo_697" class="cls-5" data-name="Grupo 697" transform="translate(38.318 90.175)">
            <path id="Retângulo_225" d="M0 0h6.362v3.252H0z" class="cls-6" data-name="Retângulo 225"/>
        </g>
        <g id="Grupo_698" class="cls-5" data-name="Grupo 698" transform="translate(38.318 96.462)">
            <path id="Retângulo_226" d="M0 0h6.362v3.252H0z" class="cls-6" data-name="Retângulo 226"/>
        </g>
        <g id="Grupo_699" class="cls-5" data-name="Grupo 699" transform="translate(38.318 102.749)">
            <path id="Retângulo_227" d="M0 0h6.362v3.252H0z" class="cls-6" data-name="Retângulo 227"/>
        </g>
        <g id="Grupo_700" class="cls-5" data-name="Grupo 700" transform="translate(50.297 106.004)">
            <path id="Retângulo_228" d="M0 0h6.362v3.252H0z" class="cls-6" data-name="Retângulo 228"/>
        </g>
        <g id="Grupo_701" class="cls-5" data-name="Grupo 701" transform="translate(61.504 106.004)">
            <path id="Retângulo_229" d="M0 0h6.362v3.252H0z" class="cls-6" data-name="Retângulo 229"/>
        </g>
        <g id="Grupo_702" class="cls-5" data-name="Grupo 702" transform="translate(72.709 106.004)">
            <path id="Retângulo_230" d="M0 0h6.362v3.252H0z" class="cls-6" data-name="Retângulo 230"/>
        </g>
        <g id="Grupo_703" class="cls-5" data-name="Grupo 703" transform="translate(83.917 106.004)">
            <path id="Retângulo_231" d="M0 0h6.362v3.252H0z" class="cls-6" data-name="Retângulo 231"/>
        </g>
        <g id="Grupo_704" class="cls-5" data-name="Grupo 704" transform="translate(95.122 106.004)">
            <path id="Retângulo_232" d="M0 0h6.362v3.252H0z" class="cls-6" data-name="Retângulo 232"/>
        </g>
        <g id="Grupo_705" class="cls-5" data-name="Grupo 705" transform="translate(106.329 106.004)">
            <path id="Retângulo_233" d="M0 0h6.362v3.252H0z" class="cls-6" data-name="Retângulo 233"/>
        </g>
        <g id="Grupo_706" class="cls-5" data-name="Grupo 706" transform="translate(117.535 106.004)">
            <path id="Retângulo_234" d="M0 0h6.362v3.252H0z" class="cls-6" data-name="Retângulo 234"/>
        </g>
        <g id="Grupo_707" class="cls-5" data-name="Grupo 707" transform="translate(128.742 106.004)">
            <path id="Retângulo_235" d="M0 0h6.362v3.252H0z" class="cls-6" data-name="Retângulo 235"/>
        </g>
        <g id="Grupo_708" class="cls-5" data-name="Grupo 708" transform="translate(139.947 106.004)">
            <path id="Retângulo_236" d="M0 0h6.362v3.252H0z" class="cls-6" data-name="Retângulo 236"/>
        </g>
        <path id="Retângulo_237" d="M0 0h6.362v20.381H0z" class="cls-6" data-name="Retângulo 237" transform="translate(50.297 82.368)"/>
        <path id="Retângulo_238" d="M0 0h6.362v29.815H0z" class="cls-6" data-name="Retângulo 238" transform="translate(61.504 72.937)"/>
        <path id="Retângulo_239" d="M0 0h6.362v37.729H0z" class="cls-6" data-name="Retângulo 239" transform="translate(72.709 65.022)"/>
        <path id="Retângulo_240" d="M0 0h6.362v33.625H0z" class="cls-6" data-name="Retângulo 240" transform="translate(83.917 69.124)"/>
        <path id="Retângulo_241" d="M0 0h6.362v40.765H0z" class="cls-6" data-name="Retângulo 241" transform="translate(95.122 61.987)"/>
        <g id="Grupo_709" class="cls-5" data-name="Grupo 709" transform="translate(106.329 77.597)">
            <path id="Retângulo_242" d="M0 0h6.362v25.152H0z" class="cls-6" data-name="Retângulo 242"/>
        </g>
        <g id="Grupo_710" class="cls-5" data-name="Grupo 710" transform="translate(117.535 77.597)">
            <path id="Retângulo_243" d="M0 0h6.362v25.152H0z" class="cls-6" data-name="Retângulo 243"/>
        </g>
        <g id="Grupo_711" class="cls-5" data-name="Grupo 711" transform="translate(128.742 77.597)">
            <path id="Retângulo_244" d="M0 0h6.362v25.152H0z" class="cls-6" data-name="Retângulo 244"/>
        </g>
        <g id="Grupo_712" class="cls-5" data-name="Grupo 712" transform="translate(139.947 77.597)">
            <path id="Retângulo_245" d="M0 0h6.362v25.152H0z" class="cls-6" data-name="Retângulo 245"/>
        </g>
        <path id="Caminho_2253" d="M432.43 308.39l-54.48 3.762v1.192l55.641-2.477z" class="cls-2" data-name="Caminho 2253" transform="translate(-293.213 -230.848)"/>
        <path id="Caminho_2254" d="M762.009 224.345s2.851-5.261 2.093-13.515-3.5-21.614-3.5-21.614 1.19-7.485-5.264-8.536a21.431 21.431 0 0 1-6.88-2.862 7.061 7.061 0 0 1-2.465-2.766s-.038.123-.112.35q-.1-.17-.175-.35s-.016.045-.04.126l-1.1-1.916s-.15.179-.4.473a13.325 13.325 0 0 1-1.12-2.263 5.388 5.388 0 0 0 .8-.287 1.56 1.56 0 0 0 .652-.468 1.989 1.989 0 0 0 .3-.827 11.269 11.269 0 0 0 .148-2.907 16.04 16.04 0 0 1-.15-2.276c.049-.817.307-1.607.343-2.427a6.651 6.651 0 0 0-1.365-3.961c-.471-.682-1-1.315-1.407-2.045-.354-.634-.612-1.333-.993-1.949a5.906 5.906 0 0 0-3.924-2.578 12.466 12.466 0 0 0-4.646.171 34.738 34.738 0 0 1-4.034.7c-1.174.075-2.131-.37-3.207.5a3.6 3.6 0 0 0-1.25 2.515 1.488 1.488 0 0 0 .034.5 3.8 3.8 0 0 0 .224.49c.477 1.056-.249 2.311-.155 3.491a2.212 2.212 0 0 0 1.838 2.032c-.043.1-.09.2-.13.3a11.566 11.566 0 0 0 .471 9.478 9.28 9.28 0 0 0 7.12 5.126l.417.36c.941.817 2 1.8 3.019 2.86l-.02.018-.166-.106a8.98 8.98 0 0 1-.977.754 8.509 8.509 0 0 1-4.177 1.587s-3.066 1.823-4.121 7.837a17.407 17.407 0 0 1-9.043 4.992A132.878 132.878 0 0 1 705.2 196.7s-.06.121-.146.342l-.686-.141a1.544 1.544 0 0 1-.029.251l-.269-.136c-2.127-1.044-6.376-2.565-6.914 1.627-.722 5.623 4.056 4.977 4.056 4.977a20.518 20.518 0 0 1 2.9-.988l.267-.058a1.753 1.753 0 0 0 .188.412h.65a8.848 8.848 0 0 0 .813 1.484l15.145-.372a14.21 14.21 0 0 1 4.977-.231c-1.042 8.742-2.272 18.329-2.272 18.329s-2.577 15.183-.773 16.77a25.109 25.109 0 0 1 3.2-.961 18.241 18.241 0 0 0 .264 2.794l1.154 8.478s.448 8.661 1.948 13.832l1.322 7.067 1.107 5.342.623 9.066a95.714 95.714 0 0 1 1.851 11.68c.585 6.091 3.76 15.935 4.184 17.23-1.085 1.723-3.312 4.645-6.107 4.947-3.989.432-4.085 3.131-1.3 4.1s8.655 0 8.655 0l8.274-2.3a9.01 9.01 0 0 0-.2 3.212c.529.433 8.559 2.766 8.848-.971q.034-.463.061-.9a21.181 21.181 0 0 0-.84-7.067c-.065-.224-.123-.45-.175-.676a4.135 4.135 0 0 0 .327-.475s.578-10.09 1.011-13.707c.034-.289.056-.641.067-1.039.2-4.336-1.21-15.741-1.21-15.741s-1.741-7.419-1.676-10.829a3.624 3.624 0 0 1 .128-.835 1.038 1.038 0 0 0-.022-.181.532.532 0 0 1 .034-.143 89.468 89.468 0 0 1-.76-10.829 9.349 9.349 0 0 1 .224-1.786 13.117 13.117 0 0 0 .213-2.331c.112-2.766-.018-7.545-.2-12.027.02-.075.04-.151.056-.239a2.61 2.61 0 0 0-.11-1.056l-.038-.86c.074-.284.134-.586.188-.9h.116v.018s7.534-.4 9.267-2.671c0 0-1.75-6.1-2.721-11.066zm-32.468-18.985l-.119-.048c.19-.755.417-1.632.672-2.553-.217.996-.406 1.902-.553 2.601zm7.646-25.021l.034.035-.036-.023zm9.413 130.908c-.406-1.567-2.017-7.955-1.965-11a3.454 3.454 0 0 1 .123-.78 6.491 6.491 0 0 0 .224-1.7 50.554 50.554 0 0 0-.923-8.875s-2.427-7.683-2.241-13.785c0-.153.016-.307.025-.46.04-.578.072-1.2.094-1.866v-.013c.092-2.357.072-5.193.011-7.839l-.013-.1a307.44 307.44 0 0 0-.3-7.9c.224 1.8 1.658 13.027 2.277 14.863a41.744 41.744 0 0 0 1.876 9.557l1.685 11.383s.433 13.546 1.152 17.376c.323 1.705.6 2.854.8 3.6-.291 1.527-.762 4.084-1.078 6.2-.186-1.381-.84-6.642-1.741-8.661z" class="cls-7" data-name="Caminho 2254" transform="translate(-558.29 -121.966)"/>
        <path id="Caminho_2255" d="M851.426 782.345s-2.813 5.722-6.768 6.149-4.049 3.1-1.286 4.064 8.579 0 8.579 0l8.292-2.3s-1-9.2-2.335-9.68-6.482 1.767-6.482 1.767z" class="cls-8" data-name="Caminho 2255" transform="translate(-670.321 -592.714)"/>
        <path id="Caminho_2256" d="M925.273 786.24s-2.1 10.588-1.569 11.018 8.482 2.726 8.769-.963q.034-.465.06-.89a21.034 21.034 0 0 0-.834-7 6.226 6.226 0 0 1-.323-2.161c.133-1.5-6.103-.004-6.103-.004z" class="cls-8" data-name="Caminho 2256" transform="translate(-734.062 -596.504)"/>
        <path id="Caminho_2257" d="M864.449 216.962S858.015 234.7 859.16 229c.757-3.772-4.139-8.785-7.525-11.73a45.457 45.457 0 0 0-3.055-2.467s12.079-15.8 11.223-8.986a11.418 11.418 0 0 0 .659 5.5 14.129 14.129 0 0 0 3.987 5.645z" class="cls-9" data-name="Caminho 2257" transform="translate(-675.839 -161.276)"/>
        <path id="Caminho_2258" d="M706.789 335.739a3.3 3.3 0 0 0-1.472.1 20.374 20.374 0 0 0-2.871.978s-4.735.641-4.021-4.932c.531-4.155 4.742-2.646 6.851-1.615.717.355 1.192.651 1.192.651z" class="cls-9" data-name="Caminho 2258" transform="translate(-559.278 -254.858)"/>
        <path id="Caminho_2259" d="M730 339.125a3.3 3.3 0 0 0-1.472.1c-.516-1.459-.123-4.917-.04-5.568.717.355 1.192.651 1.192.651z" class="cls-3" data-name="Caminho 2259" transform="translate(-582.487 -258.243)"/>
        <path id="Caminho_2260" d="M731 333.481l-1.239-.251s-.634 4.778.2 6.036h1.425z" class="cls-10" data-name="Caminho 2260" transform="translate(-583.465 -257.921)"/>
        <path id="Caminho_2261" d="M820.356 366.055s-3.787-2.543-4.24.667-1.049 8.692-1.049 8.692l-1.049 6.979-1.358 13.983.19 2.379s4.034-1.524 4.98-.988 1.717-5.882 1.717-5.882l1.569-6.632.238-14.064z" class="cls-8" data-name="Caminho 2261" transform="translate(-647.969 -281.776)"/>
        <path id="Caminho_2262" d="M820.356 366.055s-3.787-2.543-4.24.667-1.049 8.692-1.049 8.692l-1.049 6.979-1.358 13.983.19 2.379s4.034-1.524 4.98-.988 1.717-5.882 1.717-5.882l1.569-6.632.238-14.064z" class="cls-3" data-name="Caminho 2262" transform="translate(-647.969 -281.776)"/>
        <path id="Caminho_2263" d="M755.29 303.4s-3.931 4.975-9.9 5.976a130.729 130.729 0 0 1-13.332 1.325 7.994 7.994 0 0 0 .822 7.7l15.015-.372a12.973 12.973 0 0 1 5.9 0z" class="cls-8" data-name="Caminho 2263" transform="translate(-584.945 -235.593)"/>
        <path id="Caminho_2264" d="M755.29 303.4s-3.931 4.975-9.9 5.976a130.729 130.729 0 0 1-13.332 1.325 7.994 7.994 0 0 0 .822 7.7l15.015-.372a12.973 12.973 0 0 1 5.9 0z" class="cls-11" data-name="Caminho 2264" transform="translate(-584.945 -235.593)"/>
        <path id="Caminho_2266" d="M859.825 211.168c-1.466 3.521-4.014 6.116-7.709 6.116-.164 0-.323 0-.482-.013a45.617 45.617 0 0 0-3.054-2.467s12.079-15.8 11.223-8.986c-.264 2.088-.567 3.782.022 5.35z" class="cls-3" data-name="Caminho 2266" transform="translate(-675.84 -161.276)"/>
        <path id="Caminho_2267" d="M841.677 183.341c0 5.707-4.129 10.33-9.214 10.326s-9.205-4.632-9.2-10.338S827.386 173 832.471 173a8.711 8.711 0 0 1 6.518 3.024 10.988 10.988 0 0 1 2.688 7.318z" class="cls-9" data-name="Caminho 2267" transform="translate(-656.194 -137.988)"/>
        <path id="Caminho_2268" d="M856.4 308.027s-20.537 2.035-21.29-.908 2.1-10.91 2.1-10.91l-.928-11.124-.034-.425s2.573-12.034 2.479-12.995c-.09-.865 4.141-10.963 5.011-13.027.1-.239.157-.37.157-.37l.164.106.072.048 1.006.659 3.973-1.056 4.789-2.814.445 30.789z" class="cls-10" data-name="Caminho 2268" transform="translate(-665.291 -199.523)"/>
        <path id="Caminho_2269" d="M865.594 268.693a1.581 1.581 0 0 0-1.954 1.149 17.456 17.456 0 0 1-.762 1.979l-.547 3.662-1 5.784-.74 25.59.334 4.545 1.835-3.662.334-23.92v-2.975a23.758 23.758 0 0 1 1.528-7.469l.255-.672 1.6-2.3z" class="cls-3" data-name="Caminho 2269" transform="translate(-685.158 -209.575)"/>
        <path id="Caminho_2270" d="M864.324 267.413a1.58 1.58 0 0 0-1.954 1.149 17.3 17.3 0 0 1-.764 1.979l-.547 3.664-1 5.784-.737 25.59.334 4.547 1.835-3.674.334-23.9v-2.983a23.884 23.884 0 0 1 1.528-7.469l.258-.672 1.6-2.3z" class="cls-8" data-name="Caminho 2270" transform="translate(-684.173 -208.617)"/>
        <path id="Caminho_2271" d="M885.667 241.31s-4.861 5.784-6.577 6.471c0 0 .858 4.386 1.717 5.241 0 0 5.1-5.837 6-6.31l.758-2.08z" class="cls-3" data-name="Caminho 2271" transform="translate(-699.512 -189.119)"/>
        <path id="Caminho_2272" d="M885.667 240s-4.861 5.784-6.577 6.471c0 0 .858 4.386 1.717 5.241 0 0 5.1-5.837 6-6.31l.758-2.077z" class="cls-10" data-name="Caminho 2272" transform="translate(-699.512 -188.138)"/>
        <path id="Caminho_2273" d="M848.541 267.37l-.049.151-1.557 4.685-2.786 8.84s-.025.091-.074.252c-.462 1.61-2.943 10.344-3.431 12.882l-.034-.425s2.573-12.034 2.479-12.995c-.09-.865 4.141-10.963 5.011-13.028.139-.106.246-.2.32-.264z" class="cls-3" data-name="Caminho 2273" transform="translate(-669.656 -208.625)"/>
        <path id="Caminho_2274" d="M825 267.36l-1.609 4.839-2.786 8.84s-.025.09-.074.251c-.489 1.715-3.274 11.506-3.5 13.3-.253 1.967-3.756 12.6-3.756 12.6l-2 18.407c-1.793-1.562.753-16.6.753-16.6s2.86-22.3 3.536-29.719 4.328-9.587 4.328-9.587a8.5 8.5 0 0 0 4.139-1.572 8.793 8.793 0 0 0 .968-.755z" class="cls-8" data-name="Caminho 2274" transform="translate(-646.399 -208.617)"/>
        <path id="Caminho_2275" d="M858.336 520.959c-.428 3.584-1 13.581-1 13.581-2 3.367-6.434 1.549-6.434 1.549a24.61 24.61 0 0 1-1.19-4.814c-.715-3.808-1.143-17.22-1.143-17.22l-1.67-11.267a41.243 41.243 0 0 1-1.858-9.466c-.672-1.979-2.288-14.974-2.288-14.974s.672 11.657.24 17.808 2.19 14.428 2.19 14.428 1.479 7.756.715 10.163 1.907 12.351 1.907 12.351c-.224 2.89-7.812 1.713-7.812 1.713s-3.57-10.752-4.2-17.223a95.028 95.028 0 0 0-1.835-11.569l-.619-8.986-1.1-5.312-1.309-7c-1.479-5.133-1.93-13.716-1.93-13.716l-1.145-8.423c-.749-4.165.224-9.054.87-11.612.28-1.109.5-1.786.5-1.786.657.523 4.417 1.137 6.362 1.635a9.977 9.977 0 0 0 3.25.292 65.381 65.381 0 0 0 14.52-2.988c.32-.108.491-.171.491-.171l.1.963.238 2.294.423 4.072s1.286 21.712.525 24.647.524 12.826.524 12.826c-.715 2.346 1.524 11.883 1.524 11.883s1.584 12.739 1.154 16.322z" class="cls-3" data-name="Caminho 2275" transform="translate(-659.555 -343.79)"/>
        <path id="Caminho_2276" d="M858.336 519.747c-.428 3.584-1 13.581-1 13.581-2 3.37-6.434 1.549-6.434 1.549a24.6 24.6 0 0 1-1.19-4.811c-.715-3.805-1.143-17.222-1.143-17.222l-1.67-11.282a41.982 41.982 0 0 1-1.858-9.479c-.672-1.979-2.288-14.974-2.288-14.974s.672 11.657.24 17.808 2.19 14.438 2.19 14.438 1.479 7.756.715 10.163 1.907 12.354 1.907 12.354c-.224 2.887-7.812 1.71-7.812 1.71s-3.57-10.739-4.2-17.212a95 95 0 0 0-1.835-11.569l-.619-8.983-1.1-5.294-1.309-7c-1.479-5.135-1.93-13.719-1.93-13.719l-1.145-8.423c-.749-4.165.224-9.054.87-11.612.28-1.107.5-1.783.5-1.783.657.523 4.417 1.134 6.362 1.632a9.9 9.9 0 0 0 3.25.292 65.375 65.375 0 0 0 14.52-2.988l.491-.168.1.961.238 2.3.423 4.072s1.286 21.709.525 24.647.524 12.826.524 12.826c-.715 2.344 1.524 11.881 1.524 11.881s1.584 12.716 1.154 16.305z" class="cls-13" data-name="Caminho 2276" transform="translate(-659.555 -342.892)"/>
        <path id="Caminho_2277" d="M844.447 183.37a11.3 11.3 0 0 1-1.219 5.151 4.435 4.435 0 0 1-4.034-1.094 21.973 21.973 0 0 1-1.842-2.563 14.765 14.765 0 0 0-1.316-1.456 4.232 4.232 0 0 0-1.036-.848 1.273 1.273 0 0 0-1.244-.015c-.506.317-.672 1.024-.966 1.587a1.975 1.975 0 0 1-1.056 1.034 1.058 1.058 0 0 1-1.262-.48c-.312-.6-.083-1.539-.6-1.906a3.132 3.132 0 0 0-.426-.2c-.672-.342-.751-1.356-.809-2.185a1.444 1.444 0 0 0-.412-1.087c-.3-.219-.706-.108-1.069-.1a1.24 1.24 0 0 1-.32-.028c1.764-4.462 6.069-6.93 10.324-5.919s7.3 5.225 7.3 10.107z" class="cls-3" data-name="Caminho 2277" transform="translate(-658.964 -138.017)"/>
        <path id="Caminho_2278" d="M819.993 156.116a3.571 3.571 0 0 0-1.239 2.5 1.44 1.44 0 0 0 .034.49 3.482 3.482 0 0 0 .224.488c.47 1.049-.249 2.291-.157 3.461a2.151 2.151 0 0 0 2.017 2.012c.363 0 .762-.121 1.069.1a1.44 1.44 0 0 1 .412 1.086c.058.83.132 1.843.807 2.186a3.546 3.546 0 0 1 .426.2c.525.367.3 1.308.607 1.906a1.058 1.058 0 0 0 1.262.48 1.968 1.968 0 0 0 1.053-1.031c.289-.566.462-1.257.968-1.587a1.267 1.267 0 0 1 1.244.013 4.242 4.242 0 0 1 1.038.85 14.463 14.463 0 0 1 1.315 1.456 22.162 22.162 0 0 0 1.842 2.56 4.649 4.649 0 0 0 5.213.722 1.574 1.574 0 0 0 .648-.463 1.98 1.98 0 0 0 .294-.822 11.17 11.17 0 0 0 .148-2.88 16.023 16.023 0 0 1-.15-2.263c.047-.81.3-1.592.341-2.4a6.639 6.639 0 0 0-1.345-3.928c-.466-.676-.99-1.3-1.394-2.027-.352-.629-.607-1.32-.984-1.929a5.838 5.838 0 0 0-3.89-2.558 12.345 12.345 0 0 0-4.6.171 33.625 33.625 0 0 1-4.007.7c-1.181.084-2.129-.361-3.196.507z" class="cls-14" data-name="Caminho 2278" transform="translate(-652.691 -124.203)"/>
        <path id="Caminho_2279" d="M859.259 267.36l-1.609 4.84-2.786 8.84s-.025.09-.074.251v.013l3.505-13.193a8.792 8.792 0 0 0 .964-.751z" class="cls-3" data-name="Caminho 2279" transform="translate(-680.658 -208.617)"/>
        <path id="Caminho_2280" d="M935.109 480.7s.166 5.855-1.239 7.326l-3.74-7.915 3.137-1.713z" class="cls-9" data-name="Caminho 2280" transform="translate(-739.114 -366.582)"/>
        <path id="Caminho_2281" d="M905.818 309.717c-1.717 2.246-9.188 2.648-9.188 2.648l-7.4-13.078s-1.75-1.363-5.038-7.5a25.016 25.016 0 0 1-3-14.4c.184-3.531 2.241-13.679 2.241-13.679.32-2.284 4.93-16.6 4.93-16.6a7.015 7.015 0 0 0 2.438 2.736 21.133 21.133 0 0 0 6.82 2.837c6.4 1.044 5.219 8.463 5.219 8.463s.072 28.839-.323 32.29 3.301 16.283 3.301 16.283z" class="cls-3" data-name="Caminho 2281" transform="translate(-701.091 -193.46)"/>
        <path id="Caminho_2282" d="M858.507 448.1l-.215 2.14-2.6-1.069-1.9-3.237 1.43-1.258z" class="cls-10" data-name="Caminho 2282" transform="translate(-662.415 -332.862)"/>
        <path id="Caminho_2283" d="M859.5 450.322l-1.358.156-13.094 1.469a18.942 18.942 0 0 1-6.3-.347l-6.073-1.363c.28-1.107.5-1.783.5-1.783.657.523 4.417 1.134 6.362 1.632a9.907 9.907 0 0 0 3.25.292 65.378 65.378 0 0 0 14.52-2.988l.592.792z" class="cls-3" data-name="Caminho 2283" transform="translate(-663.503 -343.371)"/>
        <g id="Grupo_713" class="cls-15" data-name="Grupo 713" transform="translate(169.679 103.856)">
            <path id="Caminho_2284" d="M835.059 451.7a1.157 1.157 0 0 1-.125-.08.082.082 0 0 1-.013.038z" data-name="Caminho 2284" transform="translate(-834.92 -450.393)"/>
            <path id="Caminho_2285" d="M937.857 503.422s-2.241-9.537-1.524-11.881c0 0-1.286-9.884-.522-12.826s-.527-24.647-.527-24.647l-.423-4.068-.237-2.3-.1-.961-.493.169-.3.1.038.372.238 2.294.424 4.072s1.286 21.712.527 24.647.522 12.826.522 12.826c-.72 2.347 1.52 11.881 1.52 11.881s1.569 12.731 1.145 16.312-1 13.581-1 13.581c-1.461 2.462-4.22 2.155-5.6 1.811l.025.06s4.43 1.821 6.43-1.549c0 0 .571-10 1-13.581s-1.143-16.312-1.143-16.312z" data-name="Caminho 2285" transform="translate(-909.887 -446.74)"/>
            <path id="Caminho_2286" d="M888.616 609.019c.762-2.407-.715-10.163-.715-10.163s-2.62-8.3-2.192-14.438c.179-2.563.168-6.078.092-9.305-.607-4.162-1.19-8.8-1.19-8.8s.672 11.657.242 17.806 2.19 14.441 2.19 14.441 1.479 7.754.715 10.16 1.9 12.341 1.9 12.341c-.19 2.314-5.087 2.012-7.03 1.811l.074.221s7.577 1.177 7.814-1.71c.007-.011-2.662-9.957-1.9-12.364z" data-name="Caminho 2286" transform="translate(-871.938 -536.239)"/>
        </g>
        <path id="Caminho_2287" d="M907.083 309.717c-1.714 2.246-9.188 2.648-9.188 2.648l-7.4-13.078s-1.75-1.363-5.04-7.5a25.017 25.017 0 0 1-3-14.4c.182-3.531 2.241-13.679 2.241-13.679.321-2.284 4.93-16.6 4.93-16.6a6.978 6.978 0 0 0 2.438 2.736 21.131 21.131 0 0 0 6.819 2.837c6.4 1.044 5.217 8.463 5.217 8.463s.072 28.839-.323 32.29 3.306 16.283 3.306 16.283z" class="cls-8" data-name="Caminho 2287" transform="translate(-702.071 -193.46)"/>
        <path id="Caminho_2288" d="M891.268 254.185l-1.609.671 1.071.843-8 21.659c.186-3.521 2.241-13.679 2.241-13.679.32-2.284 4.93-16.6 4.93-16.6a6.979 6.979 0 0 0 2.438 2.736z" class="cls-3" data-name="Caminho 2288" transform="translate(-702.336 -193.438)"/>
        <path id="Caminho_2289" d="M851.5 387.987l8.184-2.367 1.073 3.73-8.364 2.289z" class="cls-3" data-name="Caminho 2289" transform="translate(-660.638 -288.655)"/>
        <path id="Caminho_2290" d="M933.99 279.8s-3.718 3.926-2.315 12.676 3.646 18.249 3.646 18.249l-6.051 18.812s4.218 4.934 6.291 5.533l6.04-15.042s2.824-5.214 2.073-13.395-3.467-21.42-3.467-21.42.001-8.056-6.217-5.413z" class="cls-3" data-name="Caminho 2290" transform="translate(-738.447 -217.532)"/>
        <path id="Caminho_2291" d="M935.229 279.8s-3.72 3.926-2.322 12.676 3.644 18.249 3.644 18.249l-6.051 18.814s4.218 4.934 6.291 5.533l6.051-15.042s2.824-5.214 2.073-13.395-3.467-21.42-3.467-21.42-.001-8.058-6.219-5.415z" class="cls-8" data-name="Caminho 2291" transform="translate(-739.401 -217.532)"/>
        <path id="Caminho_2292" d="M928.266 480.644s4.717 7.329 4.361 9.28-1.739.908-1.739.908l-1.858-2.86-1.67-5.349s.164-2.308.906-1.979z" class="cls-3" data-name="Caminho 2292" transform="translate(-736.965 -368.237)"/>
        <path id="Caminho_2293" d="M925.715 480.644s4.706 7.329 4.361 9.28-1.739.908-1.739.908l-1.86-2.86-1.667-5.349s.164-2.308.905-1.979z" class="cls-3" data-name="Caminho 2293" transform="translate(-734.986 -368.237)"/>
        <path id="Caminho_2294" d="M927 480.644s4.706 7.329 4.359 9.28-1.739.908-1.739.908l-1.858-2.86-1.667-5.349s.156-2.308.905-1.979z" class="cls-13" data-name="Caminho 2294" transform="translate(-735.979 -368.237)"/>
    </g>
</svg>
