<svg xmlns="http://www.w3.org/2000/svg" id="whatsapp_4_" width="30" height="30" data-name="whatsapp (4)" viewBox="0 0 30 30">
    <defs>
        <style>
            .cls-1{fill:#fff}
        </style>
    </defs>
    <g id="Grupo_935" data-name="Grupo 935">
        <path id="Caminho_2936" d="M15 0A14.991 14.991 0 0 0 2.856 23.792l-1.87 5.572 5.766-1.843A15 15 0 1 0 15 0zm8.728 21.182a4.233 4.233 0 0 1-2.94 2.118c-.784.167-1.807.3-5.254-1.129-4.408-1.826-7.247-6.306-7.468-6.6a8.567 8.567 0 0 1-1.781-4.524A4.789 4.789 0 0 1 7.819 7.4a2.179 2.179 0 0 1 1.534-.538c.186 0 .353.009.5.017.441.019.662.045.952.741.362.872 1.243 3.024 1.348 3.246a.893.893 0 0 1 .064.812 2.592 2.592 0 0 1-.486.688c-.221.255-.431.45-.652.724-.2.238-.431.493-.176.934a13.314 13.314 0 0 0 2.434 3.024 11.028 11.028 0 0 0 3.518 2.169.948.948 0 0 0 1.057-.167 18.148 18.148 0 0 0 1.174-1.55.837.837 0 0 1 1.076-.326c.4.141 2.548 1.2 2.989 1.419s.731.326.838.512a3.736 3.736 0 0 1-.257 2.077z" class="cls-1" data-name="Caminho 2936"/>
    </g>
</svg>
