<svg xmlns="http://www.w3.org/2000/svg" width="241.455" height="355.215" viewBox="0 0 241.455 355.215">
    <defs>
        <style>
            .cls-1{fill:#e8e9ea}
        </style>
    </defs>
    <path id="Interseção_2" d="M-6880.475 5643.36c-4.04-5.723-8-11.922-11.848-18.509-16.85 10.4-32.926 18-47.292 22.118h-.005c-28.114 8.059-43.282.8-51.056-6.706-10.964-10.587-19.537-32.937 1.869-79.3 2.938-6.367 6.333-12.895 10.111-19.528-6.72-3.625-13.057-7.362-18.921-11.2-42.721-27.972-47.293-51.469-43.607-66.255 2.613-10.488 11.63-24.682 39.744-32.742 14.367-4.12 32.03-6.2 51.83-6.305-.223-7.627-.152-14.98.241-21.977 2.862-50.981 20.926-66.69 35.576-70.891s38.291-.451 67.737 41.266c4.038 5.725 7.993 11.924 11.848 18.512a226.232 226.232 0 0 1 33.462-17.3v26.775a226.942 226.942 0 0 0-21.888 12.19c5.6 11.418 10.868 23.649 15.727 36.5q3.1 1.05 6.162 2.134v226.33a34.7 34.7 0 0 1-11.95 6.152 34.309 34.309 0 0 1-9.491 1.328c-14.527.003-34.5-8.947-58.249-42.592zm8.569-32.217c20.478 35.345 41.141 53.181 52.417 49.947s19.349-29.309 17.986-70.136c-12.627-.863-25.841-2.406-39.423-4.63-10.339 9.083-20.728 17.395-30.979 24.819zm-94.669-39.908c-13.73 29.742-12.4 46.285-7.092 51.415 4.369 4.217 14.318 4.5 27.3.781 12.585-3.607 27.09-10.6 42.47-20.24-5.594-11.417-10.87-23.649-15.725-36.5-13.018-4.4-25.431-9.25-37.039-14.446-3.733 6.466-7.064 12.821-9.914 18.99zm83.119 17.979q5.805-4.293 11.667-8.987-4.434-1.021-8.888-2.124t-8.881-2.3q3.011 6.966 6.102 13.411zm71.885-30.925q-3.19 3.3-6.413 6.51 7.449.873 14.657 1.439-.8-7.1-1.935-14.609-3.112 3.344-6.309 6.66zm-85.813-82.872q-9.51 9.847-18.17 19.91 2.872 12.656 6.7 26.085 3.85 13.427 8.144 25.686 12.4 3.843 25.955 7.244a473.377 473.377 0 0 0 26.31 5.769c6.5-6 12.937-12.292 19.256-18.835q9.51-9.847 18.174-19.913-2.873-12.653-6.7-26.084-3.848-13.419-8.14-25.672-12.658-3.923-25.96-7.256a473.474 473.474 0 0 0-26.312-5.771 475.19 475.19 0 0 0-19.257 18.837zm-46.05 55.9q6.561 2.87 13.654 5.644-1.339-4.367-2.609-8.792t-2.451-8.851q-4.49 6.019-8.595 11.996zm-51.3-76.533c-12.977 3.722-21.264 9.235-22.733 15.127-2.836 11.383 15.713 31.415 51.763 50.653 7.083-10.543 15.032-21.215 23.722-31.832-2.693-13.474-4.7-26.644-6.008-39.291h-.272c-18.038-.003-33.946 1.749-46.469 5.34zm73.42 10.285q3.116-3.344 6.313-6.656t6.411-6.512q-7.449-.873-14.657-1.437.799 7.093 1.936 14.601zm66.529-28.6q4.435 1.021 8.888 2.124 4.469 1.114 8.881 2.3-3.007-6.97-6.1-13.411-5.802 4.293-11.666 8.987zm-52.3-80.865c-11.278 3.236-19.348 29.311-17.985 70.136 12.625.863 25.842 2.407 39.424 4.632 10.339-9.086 20.729-17.4 30.979-24.82-18.9-32.613-37.949-50.321-49.642-50.322a10.006 10.006 0 0 0-2.774.37zm11.354 162.048a33.79 33.79 0 0 1 23.142-41.749 33.79 33.79 0 0 1 41.747 23.142 33.788 33.788 0 0 1-23.142 41.747 33.666 33.666 0 0 1-9.292 1.312 33.81 33.81 0 0 1-32.453-24.452z" class="cls-1" data-name="Interseção 2" transform="translate(7042.24 -5330.739)"/>
</svg>
