<svg xmlns="http://www.w3.org/2000/svg" width="77.133" height="45" viewBox="0 0 77.133 45">
    <defs>
        <style>
            .cls-1{fill:#fff}
        </style>
    </defs>
    <path id="Caminho_1" d="M48.742 78.8c-8.48-1.362-16.01-8.569-17.981-17.209a29.135 29.135 0 0 1 .211-10.756 23.076 23.076 0 0 1 14.779-15.846 23.53 23.53 0 0 1 12.316-.036 23.742 23.742 0 0 1 8.8 5.342l1.83 1.864 2.103-2.043a19.456 19.456 0 0 1 14.04-6.059c6.51-.251 11.014 1.434 15.553 5.808a22.555 22.555 0 0 1 4.645 26.674c-6.475 13.122-23.153 16.277-33.675 6.382L68.9 70.59l-1.72 1.793A21.585 21.585 0 0 1 48.742 78.8zm9.325-3.908c4.047-1.47 4.75-2.079 15.588-13.8l4.292-4.592-5.736-6.167c-7.952-8.569-9.043-9.608-11.4-10.9a18.92 18.92 0 0 0-17.311-.249 20.133 20.133 0 0 0-9.184 10.756 21.143 21.143 0 0 0 1.091 15.667 19.789 19.789 0 0 0 13.336 10.11 27.54 27.54 0 0 0 9.323-.824zm33.147-6.525a14.018 14.018 0 0 0 7.108-7.314 16.054 16.054 0 0 0-.281-10.29 12.862 12.862 0 0 0-5.947-6.095c-2.146-1.076-2.6-1.183-5.524-1.147-4.011.036-5.736.789-8.832 3.765l-2.252 2.223 3.237 3.549 3.2 3.549-2.252 2.4c-1.267 1.327-2.639 2.832-3.061 3.334l-.809.968 1.126 1.291a13.643 13.643 0 0 0 5.595 3.908 14.977 14.977 0 0 0 8.691-.143z" class="cls-1" data-name="Caminho 1" transform="translate(-30.359 -34.032)"/>
</svg>
