<svg xmlns="http://www.w3.org/2000/svg" width="1989.934" height="726.844" viewBox="0 0 1989.934 726.844">
    <defs>
        <style>
            .cls-1,.cls-2,.cls-3{fill:none;stroke-width:2px}.cls-1,.cls-3{stroke:#000}.cls-1{stroke-dasharray:20;opacity:.77}.cls-2{stroke:#39393a;stroke-dasharray:19}.cls-3{stroke-dasharray:18}.cls-4{fill:#575a89}.cls-5{fill:#a0616a}.cls-6{fill:#2f2e41}.cls-7{fill:#3f3d56}.cls-8{opacity:.1}.cls-9{fill:#cacaca}
        </style>
    </defs>
    <g id="Grupo_989" data-name="Grupo 989" transform="translate(24.482 -293)">
        <g id="Grupo_954" data-name="Grupo 954" transform="translate(-5 -489)">
            <g id="Grupo_953" data-name="Grupo 953" transform="rotate(-11 1708.718 1392.455)">
                <path id="Caminho_446" d="M0 1328.542s188.825-331.52 224.575-189.025-166.893 262.333-125.17 17.333S65.139 754.417 163.45 518.1 239.616 285.659 194.035 0" class="cls-1" data-name="Caminho 446" transform="rotate(83.98 252.207 1210.973)"/>
                <g id="Grupo_848" data-name="Grupo 848" transform="translate(35 947.091)">
                    <path id="Caminho_2578" d="M10372.272 1973.93s-42.74-19.041-64.272-20.43" class="cls-2" data-name="Caminho 2578" transform="translate(-10308 -1953.5)"/>
                </g>
            </g>
            <path id="Caminho_2977" d="M17840.7 982.7c222.6-82.7 568.391 51.542 568.391 51.542" class="cls-3" data-name="Caminho 2977" transform="translate(-16439 93)"/>
        </g>
        <g id="Grupo_950" data-name="Grupo 950" transform="translate(1237 293)">
            <path id="Retângulo_459" d="M0 0h635.297v1.393H0z" class="cls-4" data-name="Retângulo 459" transform="translate(0 488.288)"/>
            <path id="Caminho_2945" d="M222.425 262.257h-4.18l-17.763 64.435s-.348 42.841 3.831 63.739c0 0 6.966-9.056 11.842-9.056s9.4-45.627 9.4-45.627 19.161-65.132-3.13-73.491z" class="cls-4" data-name="Caminho 2945" transform="translate(-137.283 -124.533)"/>
            <path id="Caminho_2946" d="M361.735 439.257s-11.146 31.347-.7 33.437 16.022-24.381 13.235-27.864-12.535-5.573-12.535-5.573z" class="cls-5" data-name="Caminho 2946" transform="translate(-184.642 -178.235)"/>
            <path id="Caminho_2947" d="M204.358 429.5s3.133 33.122 13.487 30.6 4.228-28.866.232-30.847-13.719.247-13.719.247z" class="cls-5" data-name="Caminho 2947" transform="translate(-138.461 -174.951)"/>
            <path id="Caminho_2948" d="M240.114 705.527s4.876 23.684-3.483 29.954 2.786 19.5 2.786 19.5l26.471-27.864s-11.146-17.415-10.449-27.864z" class="cls-5" data-name="Caminho 2948" transform="translate(-147.31 -257.12)"/>
            <path id="Caminho_2949" d="M191.707 674.711l-2.786 18.808-.7 13.235 15.325-1.393 2.09-27.167z" class="cls-5" data-name="Caminho 2949" transform="translate(-57.108 -204.709)"/>
            <path id="Caminho_2950" d="M214.861 434.726s-8.591 3.157-7.894 12.212 2.786 37.616 2.786 37.616-6.269 61.3 0 82.2 18.112 62.694 18.112 62.694 18.112 3.483 22.291-9.752c0 0-.7-45.279-8.359-55.031s-2.09-12.539-1.393-13.932 2.786-3.483 2.786-5.573.7-9.752.7-12.539-.7-2.09.7-6.269 2.786-5.573 2.786-6.269 11.842-37.616 11.842-37.616l15.325 85.682s-3.483 84.288-2.09 84.288 16.718 5.573 22.291 0c0 0 13.932-72.446 11.146-76.626s-3.483-4.876-2.786-9.056 2.09-6.269.7-8.359-3.483-9.056-1.393-11.146 2.786-11.842 2.786-11.842 11.842-68.267 4.18-78.019-94.516-22.663-94.516-22.663z" class="cls-6" data-name="Caminho 2950" transform="translate(-139.241 -176.86)"/>
            <path id="Caminho_2951" d="M235.734 745.646s-8.359-10.449-11.146-5.573-6.966 12.539-6.966 12.539-31.347 27.167-13.932 27.864 28.561-11.842 28.561-11.842S235.038 754.7 243.4 754.7l1.393 3.483 15.325-9.752s-2.158-18.5-8.393-17.955z" class="cls-6" data-name="Caminho 2951" transform="translate(-136.661 -266.588)"/>
            <path id="Caminho_2952" d="M293.58 780.91s18.112-6.966 20.2 0 2.09 10.449 2.09 10.449 15.325 25.078 0 26.471-22.291-8.359-22.291-8.359 2.09-11.842 0-13.235.001-15.326.001-15.326z" class="cls-6" data-name="Caminho 2952" transform="translate(-165.25 -280.954)"/>
            <circle id="Elipse_259" cx="24.381" cy="24.381" r="24.381" class="cls-5" data-name="Elipse 259" transform="translate(116.488 66.672)"/>
            <path id="Caminho_2953" d="M283.861 203.257l-4.876 27.167 34.133 8.359s-8.011-19.853.7-28.561c2.2-2.202-29.957-6.965-29.957-6.965z" class="cls-5" data-name="Caminho 2953" transform="translate(-161.103 -106.632)"/>
            <path id="Caminho_2954" d="M261.537 225.643a4.446 4.446 0 0 0-3.471 3.215 18.55 18.55 0 0 1-2.786 5.573s-32.74 15.325-32.74 17.415 13.235 46.672 13.235 46.672.7 27.864-4.876 34.133-11.145 29.257-9.752 31.349-9.752 6.966-5.573 10.449 62.694 36.92 97.524 21.595a47.7 47.7 0 0 0 0-10.449c-.7-4.18 4.18-18.112 2.786-22.988s0-55.031 0-55.031l7.179-59.39a4.833 4.833 0 0 0-3.391-5.207c-8.029-2.44-26.648-12.431-29.214-10.287-3.323 2.772-24.058.882-28.921-7.049z" class="cls-4" data-name="Caminho 2954" transform="translate(-141.578 -113.424)"/>
            <path id="Caminho_2955" d="M357.344 250.1l.044-.018a4.831 4.831 0 0 1 5.7 1.632c4.317 5.907 13.4 19.183 14.458 27.643 1.393 11.146 5.573 41.1 4.876 45.279s-1.393 4.876 0 6.966.7 1.393 0 3.483-9.056 59.907-9.056 59.907-5.573-12.539-16.022-8.359c0 0 1.393-11.146 0-14.629s-2.786-5.573-1.393-8.359 0-29.954-.7-32.74 0-17.415 0-17.415l-6.269-28.56z" class="cls-4" data-name="Caminho 2955" transform="translate(-182.342 -120.733)"/>
            <path id="Caminho_2956" d="M295.176 185.874l.824-5.741c.192-1.338.975-3.1 2.277-2.734 1.107.309 3.52 1.257 3.924.971 1.513-1.072 3.8.8 5.392-.15.666-.4 1.1-1.253 1.876-1.31a2.136 2.136 0 0 1 1.377.624 9.372 9.372 0 0 0 3.564 1.936 3.834 3.834 0 0 0 3.752-1.023 1.993 1.993 0 0 1 .663-.636 1.489 1.489 0 0 1 .954.044l4.064 1.106a15.616 15.616 0 0 0-2.089-12.857 25.858 25.858 0 0 0-5.919-5.8q-3.775-2.872-7.792-5.4c-2.931-1.851-6.039-3.6-9.466-4.118s-7.264.411-9.42 3.125a6.066 6.066 0 0 1-2.182-2.947 2.233 2.233 0 0 0 .144 3.423l-3.437-2.195c-.966 1.014.922 2.854.1 3.988a2.1 2.1 0 0 1-.925.6 15.756 15.756 0 0 0-5.04 3.172c-1.975 1.981-3.048 4.67-3.969 7.311-2.048 5.876-3.537 12.614-.627 18.114.33.624 4.685 10.915 5.265 11.317 1.961 1.357.685-1.927 2.09 0 1.1 1.511.9-4.271 2.533-3a4.083 4.083 0 0 0 4.444.2c.679-.471.46-3.086.094-5.487a2.829 2.829 0 0 1 3.442-3.183c2.036.484 4.052.894 4.087.65z" class="cls-6" data-name="Caminho 2956" transform="translate(-158.86 -90.671)"/>
            <path id="Caminho_2957" d="M808.088 168.756v-37.923a87.247 87.247 0 0 1-56.326-41.928 16.572 16.572 0 0 1-9.906 3.26h-30.114a124.377 124.377 0 0 0 96.346 76.59z" class="cls-7" data-name="Caminho 2957" transform="translate(-292.403 -71.938)"/>
            <path id="Caminho_2958" d="M826.234 121.27V84.839a20.286 20.286 0 0 0-20.292-20.292h-29.236v3.518a16.66 16.66 0 0 1-5.154 12.071 85.193 85.193 0 0 0 54.682 41.133z" class="cls-7" data-name="Caminho 2958" transform="translate(-310.549 -64.547)"/>
            <path id="Caminho_2959" d="M611.9 84.776h-18.83a16.709 16.709 0 0 1-16.7-16.711v-3.518h-27.437a20.29 20.29 0 0 0-20.292 20.293v451.533a20.257 20.257 0 0 0 20.292 20.278h183.31a19.743 19.743 0 0 0 2.5-.153 20.3 20.3 0 0 0 17.791-20.125v-332.4A166.857 166.857 0 0 1 611.9 84.776z" class="cls-7" data-name="Caminho 2959" transform="translate(-236.85 -64.547)"/>
            <path id="Caminho_2960" d="M691.126 93.587h-39.8a164.735 164.735 0 0 0 138.43 117.076v-38.327a126.55 126.55 0 0 1-98.631-78.749z" class="cls-7" data-name="Caminho 2960" transform="translate(-274.071 -73.358)"/>
            <path id="Caminho_2961" d="M622.935 585.932c.505-.5 12.489-12.638 22.647-41.433 9.319-26.419 18.723-72.489 10.6-141.94-15.4-131.571 63.549-215.421 64.349-216.253l-2.337-2.244c-.2.211-20.5 21.548-38.559 59.006a289.98 289.98 0 0 0-26.671 159.867c15.369 131.346-31.833 180.222-32.312 180.7z" class="cls-8" data-name="Caminho 2961" transform="translate(-264.765 -100.808)"/>
            <circle id="Elipse_260" cx="21.053" cy="21.053" r="21.053" class="cls-8" data-name="Elipse 260" transform="translate(458.95 41.188)"/>
            <circle id="Elipse_261" cx="21.053" cy="21.053" r="21.053" class="cls-8" data-name="Elipse 261" transform="translate(376.01 100.953)"/>
            <circle id="Elipse_262" cx="21.053" cy="21.053" r="21.053" class="cls-8" data-name="Elipse 262" transform="translate(407.769 162.052)"/>
            <circle id="Elipse_263" cx="21.053" cy="21.053" r="21.053" class="cls-8" data-name="Elipse 263" transform="translate(343.907 191.469)"/>
            <circle id="Elipse_264" cx="21.053" cy="21.053" r="21.053" class="cls-8" data-name="Elipse 264" transform="translate(396.996 274.446)"/>
            <path id="Caminho_2962" d="M597.482 714.994s32.744-45.35-19.393-98.088z" class="cls-8" data-name="Caminho 2962" transform="translate(-251.852 -232.134)"/>
            <path id="Caminho_2963" d="M642.357 749.077s22.379-51.263 94.309-33.215z" class="cls-8" data-name="Caminho 2963" transform="translate(-271.351 -260.99)"/>
            <path id="Retângulo_460" d="M0 0h176.936v34.83H0z" class="cls-9" data-name="Retângulo 460" transform="translate(315.559 342.699)"/>
            <path id="Caminho_2964" d="M657.214 266.641a80.465 80.465 0 0 0-15.43 159.435c.145.029.293.057.441.084q3.475.658 7.054 1.007c.148.015.293.031.441.042q3.485.324 7.054.344h.441q3.564 0 7.054-.306c.148-.011.293-.024.441-.04q3.574-.327 7.054-.968c.148-.026.3-.053.441-.082a80.464 80.464 0 0 0-14.989-159.519z" class="cls-9" data-name="Caminho 2964" transform="translate(-251.446 -125.863)"/>
            <path id="Caminho_2965" d="M735.7 348.614a77 77 0 0 1-62.627 75.638c-.146.029-.287.054-.428.079q-3.325.611-6.748.926c-.141.015-.281.027-.422.038q-3.334.291-6.748.293h-.422q-3.41-.016-6.748-.329a15.042 15.042 0 0 1-.422-.04q-3.42-.332-6.748-.964c-.141-.025-.283-.053-.422-.08a76.98 76.98 0 1 1 91.735-75.561z" class="cls-7" data-name="Caminho 2965" transform="translate(-252.957 -127.379)"/>
            <path id="Caminho_2966" d="M675.226 471.283a3.245 3.245 0 1 1 3.245-3.245 3.245 3.245 0 0 1-3.245 3.245zm0-5.842a2.6 2.6 0 1 0 2.6 2.6 2.6 2.6 0 0 0-2.6-2.6z" class="cls-9" data-name="Caminho 2966" transform="translate(-280.339 -185.982)"/>
            <path id="Retângulo_461" d="M0 0h.649v96.229H0z" class="cls-9" data-name="Retângulo 461" transform="translate(405.768 196.895)"/>
            <path id="Retângulo_462" d="M0 0h.649v28.389H0z" class="cls-9" data-name="Retângulo 462" transform="translate(405.768 155.645)"/>
            <path id="Retângulo_463" d="M0 0h.649v96.273H0z" class="cls-9" data-name="Retângulo 463" transform="translate(372.34 186.995)"/>
            <path id="Retângulo_464" d="M0 0h.649v96.273H0z" class="cls-9" data-name="Retângulo 464" transform="translate(418.101 186.995)"/>
            <path id="Retângulo_465" d="M0 0h.649v89.363H0z" class="cls-9" data-name="Retângulo 465" transform="translate(383.375 176.286)"/>
            <path id="Retângulo_466" d="M0 0h.649v123.977H0z" class="cls-9" data-name="Retângulo 466" transform="translate(394.562 151.911)"/>
            <path id="Retângulo_467" d="M0 0h.649v19.291H0z" class="cls-9" data-name="Retângulo 467" transform="translate(427.513 156.488)"/>
            <path id="Retângulo_468" d="M0 0h.649v88.236H0z" class="cls-9" data-name="Retângulo 468" transform="translate(427.513 188.66)"/>
            <path id="Retângulo_469" d="M0 0h.649v11.359H0z" class="cls-9" data-name="Retângulo 469" transform="translate(438.547 174.987)"/>
            <path id="Retângulo_470" d="M0 0h.649v56.425H0z" class="cls-9" data-name="Retângulo 470" transform="translate(438.547 199.086)"/>
            <path id="Retângulo_471" d="M0 0h.649v9.854H0z" class="cls-9" data-name="Retângulo 471" transform="translate(438.547 267.041)"/>
            <path id="Caminho_2967" d="M659.165 456.422a3.245 3.245 0 1 1 3.245-3.245 3.245 3.245 0 0 1-3.245 3.245z" class="cls-9" data-name="Caminho 2967" transform="translate(-275.466 -181.473)"/>
            <path id="Caminho_2968" d="M690.846 339.014a3.245 3.245 0 1 1 3.245-3.245 3.245 3.245 0 0 1-3.245 3.245zm0-5.842a2.6 2.6 0 1 0 2.6 2.6 2.6 2.6 0 0 0-2.6-2.6z" class="cls-9" data-name="Caminho 2968" transform="translate(-285.078 -145.852)"/>
            <path id="Caminho_2969" d="M691.312 285.435a3.245 3.245 0 1 1 3.245-3.245 3.245 3.245 0 0 1-3.245 3.245zm0-5.842a2.6 2.6 0 1 0 2.6 2.6 2.6 2.6 0 0 0-2.6-2.6z" class="cls-9" data-name="Caminho 2969" transform="translate(-285.22 -129.596)"/>
            <path id="Caminho_2970" d="M738.368 441.513a3.245 3.245 0 1 1 3.245-3.245 3.245 3.245 0 0 1-3.245 3.245zm0-5.842a2.6 2.6 0 1 0 2.6 2.6 2.6 2.6 0 0 0-2.6-2.6z" class="cls-9" data-name="Caminho 2970" transform="translate(-299.497 -176.95)"/>
            <path id="Caminho_2971" d="M643.324 324.1a3.245 3.245 0 1 1 3.245-3.245 3.245 3.245 0 0 1-3.245 3.245z" class="cls-9" data-name="Caminho 2971" transform="translate(-270.66 -141.328)"/>
            <path id="Caminho_2972" d="M738.368 343.207a3.245 3.245 0 1 1 3.245-3.245 3.245 3.245 0 0 1-3.245 3.245zm0-5.842a2.6 2.6 0 1 0 2.6 2.6 2.6 2.6 0 0 0-2.6-2.6z" class="cls-9" data-name="Caminho 2972" transform="translate(-299.497 -147.124)"/>
            <path id="Caminho_2973" d="M722.528 327.366a3.245 3.245 0 1 1 3.245-3.245 3.245 3.245 0 0 1-3.245 3.245z" class="cls-9" data-name="Caminho 2973" transform="translate(-294.691 -142.318)"/>
            <path id="Caminho_2974" d="M909.981 715.2s32.744-45.35-19.393-98.088z" class="cls-8" data-name="Caminho 2974" transform="translate(-346.665 -232.197)"/>
            <path id="Caminho_2975" d="M954.855 744.285s22.379-51.263 94.309-33.214z" class="cls-8" data-name="Caminho 2975" transform="translate(-366.164 -259.536)"/>
        </g>
    </g>
</svg>
