<svg xmlns="http://www.w3.org/2000/svg" width="1922.211" height="537" viewBox="0 0 1922.211 537">
    <defs>
        <style>
            .cls-1{fill:#f8f9fa}.cls-2,.cls-3{fill:none;stroke-width:2px}.cls-2{stroke:#39393a;stroke-dasharray:21 21}.cls-3{stroke:#454545;stroke-dasharray:21}.cls-4{fill:#d0cde1}.cls-5{fill:#2f2e41}.cls-6{fill:#3f3d56}.cls-7{fill:#fff}.cls-8{fill:#d0d0d0}.cls-9{fill:#ffb9b9}.cls-10{opacity:.1}.cls-11{fill:#575a89}
        </style>
    </defs>
    <g id="Grupo_1024" data-name="Grupo 1024" transform="translate(.563 -1906)">
        <g id="Grupo_1017" data-name="Grupo 1017">
            <g id="Grupo_1016" data-name="Grupo 1016">
                <path id="Retângulo_525" d="M0 0h1920v537H0z" class="cls-1" data-name="Retângulo 525" transform="translate(0 1906)"/>
                <path id="Caminho_2996" d="M23118.842-6643s204.557-72.422 366.752-49.79 184.895 81.882 307.371 117.093 212.457 20.652 384.742 27.536c141.789 5.666 254.139 29.516 304.4 0s-24.893-109.763-89.209-126.535-134.6 32.424-92.447 99 284.723 197.386 284.723 197.386" class="cls-2" data-name="Caminho 2996" transform="translate(-22664 8805)"/>
                <path id="Caminho_2997" d="M22641-6889.937s281.186 191.24 377.549 203.245" class="cls-3" data-name="Caminho 2997" transform="translate(-22641 8814)"/>
                <g id="Grupo_971" data-name="Grupo 971" transform="translate(58 1958)">
                    <path id="Caminho_2978" d="M329.837 726.027c9.379 17.464 501.761 16 501.015 0-9.381-17.465-501.764-15.998-501.015 0z" class="cls-4" data-name="Caminho 2978" transform="translate(-298.016 -325.27)"/>
                    <path id="Retângulo_488" d="M0 0h82.651v71.538H0z" class="cls-5" data-name="Retângulo 488" transform="translate(151.615 25.698)"/>
                    <path id="Retângulo_489" d="M0 0h236.84v196.556H0z" class="cls-6" data-name="Retângulo 489" transform="translate(277.328 45.84)"/>
                    <path id="Retângulo_490" d="M0 0h94.458v11.807H0z" class="cls-7" data-name="Retângulo 490" transform="translate(348.519 78.483)"/>
                    <path id="Retângulo_491" d="M0 0h65.634v6.945H0z" class="cls-7" data-name="Retângulo 491" transform="translate(416.237 106.265)"/>
                    <path id="Retângulo_492" d="M0 0h65.634v6.945H0z" class="cls-7" data-name="Retângulo 492" transform="translate(363.452 152.105)"/>
                    <path id="Retângulo_493" d="M0 0h65.634v6.945H0z" class="cls-8" data-name="Retângulo 493" transform="translate(310.666 106.265)"/>
                    <path id="Retângulo_494" d="M0 0h59.731v3.215H0z" class="cls-8" data-name="Retângulo 494" transform="translate(163.422 65.982)"/>
                    <path id="Retângulo_495" d="M0 0h59.731v3.215H0z" class="cls-8" data-name="Retângulo 495" transform="translate(164.118 73.056)"/>
                    <path id="Retângulo_496" d="M0 0h59.731v3.215H0z" class="cls-8" data-name="Retângulo 496" transform="translate(163.422 80.13)"/>
                    <path id="Retângulo_497" d="M0 0h59.731v3.215H0z" class="cls-8" data-name="Retângulo 497" transform="translate(163.422 42.367)"/>
                    <path id="Retângulo_498" d="M0 0h59.731v3.215H0z" class="cls-8" data-name="Retângulo 498" transform="translate(164.118 49.441)"/>
                    <path id="Retângulo_499" d="M0 0h59.731v3.215H0z" class="cls-8" data-name="Retângulo 499" transform="translate(163.422 56.515)"/>
                    <path id="Retângulo_500" d="M0 0h82.651v71.538H0z" class="cls-6" data-name="Retângulo 500" transform="translate(128.001 49.313)"/>
                    <path id="Retângulo_501" d="M0 0h59.731v3.215H0z" class="cls-8" data-name="Retângulo 501" transform="translate(139.808 89.596)"/>
                    <path id="Retângulo_502" d="M0 0h59.731v3.215H0z" class="cls-8" data-name="Retângulo 502" transform="translate(140.503 96.67)"/>
                    <path id="Retângulo_503" d="M0 0h59.731v3.215H0z" class="cls-8" data-name="Retângulo 503" transform="translate(139.808 103.745)"/>
                    <path id="Retângulo_504" d="M0 0h59.731v3.215H0z" class="cls-8" data-name="Retângulo 504" transform="translate(139.808 65.982)"/>
                    <path id="Retângulo_505" d="M0 0h59.731v3.215H0z" class="cls-8" data-name="Retângulo 505" transform="translate(140.503 73.056)"/>
                    <path id="Retângulo_506" d="M0 0h59.731v3.215H0z" class="cls-8" data-name="Retângulo 506" transform="translate(139.808 80.13)"/>
                    <path id="Retângulo_507" d="M0 0h82.651v71.538H0z" class="cls-6" data-name="Retângulo 507" transform="translate(618.349 77.094)"/>
                    <path id="Retângulo_508" d="M0 0h59.731v3.215H0z" class="cls-8" data-name="Retângulo 508" transform="translate(630.156 117.378)"/>
                    <path id="Retângulo_509" d="M0 0h59.731v3.215H0z" class="cls-8" data-name="Retângulo 509" transform="translate(630.851 124.452)"/>
                    <path id="Retângulo_510" d="M0 0h59.731v3.215H0z" class="cls-8" data-name="Retângulo 510" transform="translate(630.156 131.526)"/>
                    <path id="Retângulo_511" d="M0 0h59.731v3.215H0z" class="cls-8" data-name="Retângulo 511" transform="translate(630.156 93.763)"/>
                    <path id="Retângulo_512" d="M0 0h59.731v3.215H0z" class="cls-8" data-name="Retângulo 512" transform="translate(630.851 100.838)"/>
                    <path id="Retângulo_513" d="M0 0h59.731v3.215H0z" class="cls-8" data-name="Retângulo 513" transform="translate(630.156 107.911)"/>
                    <path id="Retângulo_514" d="M0 0h172.247v6.945H0z" class="cls-7" data-name="Retângulo 514" transform="translate(309.624 129.185)"/>
                    <path id="Retângulo_515" d="M0 0h38.547v6.945H0z" class="cls-8" data-name="Retângulo 515" transform="translate(443.324 152.105)"/>
                    <path id="Retângulo_516" d="M0 0h38.547v6.945H0z" class="cls-7" data-name="Retângulo 516" transform="translate(443.324 197.945)"/>
                    <path id="Retângulo_517" d="M0 0h38.547v6.945H0z" class="cls-7" data-name="Retângulo 517" transform="translate(310.666 152.105)"/>
                    <path id="Retângulo_518" d="M0 0h172.247v6.945H0z" class="cls-7" data-name="Retângulo 518" transform="translate(309.624 175.025)"/>
                    <path id="Retângulo_519" d="M0 0h101.056v6.945H0z" class="cls-7" data-name="Retângulo 519" transform="translate(309.624 197.945)"/>
                    <path id="Caminho_2979" d="M702.639 115.513l1.1-.844-75.219-98.2h-74.66v1.39h73.974z" class="cls-5" data-name="Caminho 2979" transform="translate(-376.549 -5.353)"/>
                    <path id="Caminho_2980" d="M58.532 185.211L168.769 90.92h74.06v-1.389h-74.573L57.629 184.155z" class="cls-5" data-name="Caminho 2980" transform="translate(419.276 -29.106)"/>
                    <ellipse id="Elipse_266" cx="11.113" cy="11.113" class="cls-8" data-name="Elipse 266" rx="11.113" ry="11.113" transform="translate(166.201)"/>
                    <ellipse id="Elipse_267" cx="11.113" cy="11.113" class="cls-8" data-name="Elipse 267" rx="11.113" ry="11.113" transform="translate(650.993 50.007)"/>
                    <path id="Caminho_2981" d="M935.106 673.446s-16.2-54.523 45.421-85.566z" class="cls-4" data-name="Caminho 2981" transform="translate(-854.894 -284.441)"/>
                    <path id="Caminho_2982" d="M1081.664 687.547s-6.424-53.812-78.194-57.185z" class="cls-4" data-name="Caminho 2982" transform="translate(-1003.47 -298.252)"/>
                    <path id="Caminho_2983" d="M497.821 563.512l16.751-1.116-5.583 25.126L490 579.7z" class="cls-9" data-name="Caminho 2983" transform="translate(-144.28 -182.829)"/>
                    <path id="Caminho_2984" d="M609.98 476.268l39.085-37.968 22.335 17.309 44.111 53.044-5.025 7.817-53.6-36.293-36.293 47.46-34.618-17.309z" class="cls-5" data-name="Caminho 2984" transform="translate(-409.988 -142.487)"/>
                    <path id="Caminho_2985" d="M609.98 476.268l39.085-37.968 22.335 17.309 44.111 53.044-5.025 7.817-53.6-36.293-36.293 47.46-34.618-17.309z" class="cls-10" data-name="Caminho 2985" transform="translate(-409.988 -142.487)"/>
                    <path id="Caminho_2986" d="M717.937 657.957l5.025 3.909 40.76-13.959 9.492-3.907 18.984 3.908s0-15.634-17.867-15.076l-18.425 4.468-21.776 1.675z" class="cls-9" data-name="Caminho 2986" transform="translate(-521.295 -299.05)"/>
                    <path id="Caminho_2987" d="M510.686 563.96l12.284 7.817h14.517l67.561-25.126 98.829 17.868 2.793-21.219-90.454-39.644-79.287 26.244z" class="cls-5" data-name="Caminho 2987" transform="translate(-350.337 -163.734)"/>
                    <path id="Caminho_2988" d="M777.318 558.037l8.375 1.675 1.825-2.129a11.282 11.282 0 0 0 1.525-12.388l-23.451-30.71s-6.7-15.076-17.309-8.934 8.934 16.192 8.934 16.192l11.725 18.426-1.117 9.492z" class="cls-9" data-name="Caminho 2988" transform="translate(-537.682 -257.199)"/>
                    <ellipse id="Elipse_268" cx="21.776" cy="21.776" class="cls-9" data-name="Elipse 268" rx="21.776" ry="21.776" transform="translate(164.815 220.993)"/>
                    <path id="Caminho_2989" d="M862.442 518.858l-10.05 24.009-24.01-10.05s7.817-18.984 7.817-19.542 26.243 5.583 26.243 5.583z" class="cls-9" data-name="Caminho 2989" transform="translate(-666.079 -260.176)"/>
                    <path id="Caminho_2990" d="M760.13 597.379a125.111 125.111 0 0 0 6.136 38.7l1.631 5.017 7.817 35.735 8.375 2.233 6.142-7.817 12.284-8.934 8.934-14.517 7.661-12.764 2.39-3.987 8.375-41.877L861.7 571.3l10.609-1.675-2.233-6.142-9.492-12.842-9.492-1.117-2.792-2.233-2.233 1.117-8.934-5.025-2.792 1.117-16.326 1.519-9.916-2.077-14.26-7.655-5.84.955-20.1 16.751a125.008 125.008 0 0 0-7.767 43.39z" class="cls-11" data-name="Caminho 2990" transform="translate(-629.882 -267.668)"/>
                    <path id="Caminho_2991" d="M525.26 699.505s-5-8.476-2.889-9.466 11.083-4.934 11.083-4.934l13.155-4.36s18.983-28.212 19.4-3.678-13.821 30.433-13.821 30.433-12.7 27.329-19.892 22.971-14.396-19.153-14.396-19.153 12.976-6.973 7.36-11.813z" class="cls-5" data-name="Caminho 2991" transform="translate(-160.111 -310.176)"/>
                    <path id="Caminho_2992" d="M744.814 468.41l21.217 13.958 31.67 28.555 2.39-3.987 6.7-33.5h-1.675l-17.309-31.826z" class="cls-10" data-name="Caminho 2992" transform="translate(-608.474 -143.562)"/>
                    <path id="Caminho_2993" d="M762.161 436.645l17.309 31.826h6.142l3.908 11.168 8.934 2.233-24.009 26.243-34.06-30.71-21.217-13.958z" class="cls-11" data-name="Caminho 2993" transform="translate(-582.828 -141.949)"/>
                    <path id="Caminho_2994" d="M855.925 465.769l2.359.908a3.294 3.294 0 0 0 .842-4.63l4.36-.2a32.924 32.924 0 0 0-49.15-3.962c-.2-.684-2.362.646-3.246 2-.3-1.112-2.326 4.265-3.043 8.067-.332-1.266-1.61.778-.491 2.738-.709-.1-1.029 1.711-.48 2.721-.776-.364-.645 1.8.2 3.249-1.107-.1 8.73 15.169 12.713 24.092 1.156-5.314 2.457-10.909 6.186-14.868.634-.673 1.328-1.286 2.021-1.9l3.748-3.309c4.358-3.847 8.323-8.6 14.13-10.034 3.99-.988 6.513-1.211 4.339-5.708 1.965.82 3.8 2.039 5.782 2.8-.031-.633-.308-1.333-.27-1.964z" class="cls-5" data-name="Caminho 2994" transform="translate(-652.396 -239.191)"/>
                    <ellipse id="Elipse_269" cx="3.909" cy="3.909" class="cls-9" data-name="Elipse 269" rx="3.909" ry="3.909" transform="translate(171.795 241.373)"/>
                </g>
            </g>
        </g>
    </g>
</svg>
