<svg xmlns="http://www.w3.org/2000/svg" id="facebook_1_" width="30" height="30" data-name="facebook (1)" viewBox="0 0 30 30">
    <defs>
        <style>
            .cls-1{fill:#fff}
        </style>
    </defs>
    <g id="Grupo_934" data-name="Grupo 934">
        <path id="Caminho_2935" d="M26.25 0H3.75A3.754 3.754 0 0 0 0 3.75v22.5A3.754 3.754 0 0 0 3.75 30H15V19.688h-3.75V15H15v-3.75a5.625 5.625 0 0 1 5.625-5.625h3.75v4.688H22.5c-1.035 0-1.875-.1-1.875.938V15h4.688l-1.875 4.688h-2.813V30h5.625A3.754 3.754 0 0 0 30 26.25V3.75A3.754 3.754 0 0 0 26.25 0z" class="cls-1" data-name="Caminho 2935"/>
    </g>
</svg>
