<svg xmlns="http://www.w3.org/2000/svg" width="242.482" height="506.259" viewBox="0 0 242.482 506.259">
    <defs>
        <style>
            .cls-1{fill:#e8e9ea}
        </style>
    </defs>
    <path id="Interseção_1" d="M-6873 5772.032l23.217-38.632a8.7 8.7 0 0 1 11.939-2.976 8.7 8.7 0 0 1 2.977 11.939l-38.133 63.452zm64.992-23.685a8.7 8.7 0 0 1-2.979-11.937l17.92-29.838a8.7 8.7 0 0 1 11.937-2.979 8.7 8.7 0 0 1 2.98 11.939l-17.92 29.834a8.672 8.672 0 0 1-5.354 3.963 8.732 8.732 0 0 1-2.113.26 8.668 8.668 0 0 1-4.474-1.242zm-64.992-41.656c14.052-7.085 28.957-16.637 35.185-27a62.691 62.691 0 0 0 8.815-25.154l-35.493-21.328a55.858 55.858 0 0 0-8.507 7.155v-109.781a351.37 351.37 0 0 1 17.741-52.348 61.192 61.192 0 0 0-17.741-2.163v-17.418a80.78 80.78 0 0 1 25.1 3.575c4.1-8.33 8.528-16.47 13.217-24.274 20.924-34.827 51.552-65.708 91.033-91.787 49.266-32.567 94.26-45.725 96.15-46.269a8.664 8.664 0 0 1 6.889.9 8.7 8.7 0 0 1 4.03 5.657c.408 1.925 9.915 47.831 4.288 106.62-4.493 47.1-17.378 88.642-38.305 123.467a331.03 331.03 0 0 1-15.229 23.066c23.1 23.518 23.518 46.872 19.526 62.7-9.188 36.44-50.943 67.987-84.357 76.317a8.7 8.7 0 0 1-9.1-3.267 8.7 8.7 0 0 1-.464-9.655c12.728-21.179 6.452-41.829 3.851-48.437l-3.692-2.219a305.918 305.918 0 0 1-37.521 24.164 24.59 24.59 0 0 1-14.926 2.644 82.385 82.385 0 0 1-10.388 26.8c-9.933 16.531-33.044 29.527-50.1 37.332zm127.523-83.18a9.066 9.066 0 0 1 3.63 3.623c5.886 11.017 8.937 30.846 4.64 48.091 24.073-11.571 48.125-33.749 54.032-57.171 3.947-15.65-.54-30.567-13.33-44.43a351.963 351.963 0 0 1-48.974 49.887zm-120.492-15.724a8.17 8.17 0 0 0 4.24 6.78c16.635 10 24.167 14.521 27.239 16.369 1.676 1 7.013 4.21 20.658 12.411a8.165 8.165 0 0 0 7.974.554 282.634 282.634 0 0 0 29.611-18.577l-87.221-52.407a282.471 282.471 0 0 0-2.504 34.87zm46.2-160.869a315.745 315.745 0 0 0-15.772 29.794 334.226 334.226 0 0 0-24.939 77.7l99.165 59.582a334.261 334.261 0 0 0 56.9-58.5 316.076 316.076 0 0 0 18.9-27.912c18.775-31.248 30.634-68.489 35.318-110.736l-88.377-53.1c-35.103 23.972-62.419 51.924-81.195 83.172zm97.486-93.685l73.719 44.294a391.359 391.359 0 0 0-3.4-77.833 391.106 391.106 0 0 0-70.319 33.539zm-79.653 216.059a8.706 8.706 0 0 1-2.976-11.937 8.7 8.7 0 0 1 11.946-2.979 8.705 8.705 0 0 1 2.975 11.938 8.682 8.682 0 0 1-5.357 3.958 8.726 8.726 0 0 1-2.118.261 8.673 8.673 0 0 1-4.47-1.241zm17.927-29.837a8.7 8.7 0 0 1-2.978-11.941l8.961-14.914a8.705 8.705 0 0 1 11.941-2.977 8.7 8.7 0 0 1 2.977 11.941l-8.961 14.914a8.679 8.679 0 0 1-5.354 3.961 8.752 8.752 0 0 1-2.112.259 8.661 8.661 0 0 1-4.474-1.243zm26.887-44.74a43.561 43.561 0 0 1-14.888-59.7 43.483 43.483 0 0 1 59.7-14.884 43.481 43.481 0 0 1 14.884 59.7 43.362 43.362 0 0 1-26.769 19.783 43.781 43.781 0 0 1-10.591 1.3 43.262 43.262 0 0 1-22.336-6.199zm16.086-62.625a26.025 26.025 0 0 0-16.059 11.888 26.137 26.137 0 0 0 8.933 35.819 26.136 26.136 0 0 0 35.815-8.931 26.086 26.086 0 0 0-8.929-35.817 26 26 0 0 0-13.428-3.737 26.193 26.193 0 0 0-6.332.778z" class="cls-1" data-name="Interseção 1" transform="translate(6873.003 -5299.557)"/>
</svg>
