<svg xmlns="http://www.w3.org/2000/svg" width="30" height="30" viewBox="0 0 30 30">
    <defs>
        <style>
            .cls-1{fill:#fff}
        </style>
    </defs>
    <path id="github" d="M15 .5A15.192 15.192 0 0 0 0 15.881a15.35 15.35 0 0 0 10.256 14.592c.75.145 1.025-.331 1.025-.74 0-.365-.013-1.333-.019-2.615-4.173.927-5.052-2.063-5.052-2.063a4.054 4.054 0 0 0-1.669-2.25c-1.359-.953.105-.934.105-.934a3.153 3.153 0 0 1 2.3 1.585 3.153 3.153 0 0 0 4.369 1.28 3.309 3.309 0 0 1 .95-2.057c-3.331-.385-6.832-1.707-6.832-7.6a6.017 6.017 0 0 1 1.544-4.127A5.6 5.6 0 0 1 7.1 6.881s1.256-.412 4.125 1.577a13.8 13.8 0 0 1 7.5 0c2.85-1.989 4.106-1.577 4.106-1.577a5.753 5.753 0 0 1 .15 4.071 6.042 6.042 0 0 1 1.537 4.127c0 5.909-3.506 7.209-6.844 7.587a3.734 3.734 0 0 1 1.013 2.846c0 2.058-.019 3.712-.019 4.212 0 .4.263.884 1.031.73A15.3 15.3 0 0 0 30 15.881 15.2 15.2 0 0 0 15 .5z" class="cls-1" transform="translate(0 -.5)"/>
</svg>
