<svg xmlns="http://www.w3.org/2000/svg" width="241.979" height="37.781" viewBox="0 0 241.979 37.781">
    <defs>
        <style>
            .cls-1{fill:#000}
        </style>
    </defs>
    <g id="Grupo_57" data-name="Grupo 57" transform="translate(-163.955 -62.241)">
        <path id="Caminho_9" d="M61.6 105.429V90.781h2.936c1.6 0 2.936.455 2.936.819q0 .955 1.6 0c5.249-2.82 12.455.546 14.323 6.551 2.847 8.825-5.694 17.741-13.344 13.829l-2.58-1.274v9.28H61.6v-14.557zm15.124 0c2.936-3 2.135-6.915-1.779-8.461-3.47-1.274-6.138.546-6.494 4.367-.357 5.004 4.803 7.642 8.273 4.094z" class="cls-1" data-name="Caminho 9" transform="translate(150.217 -19.988)"/>
        <path id="Caminho_10" d="M118.15 118.194a24.567 24.567 0 0 1 1.779-4.185c.89-2 .712-3.093-2.224-10.736-1.779-4.64-3.647-9.189-4.092-10.008-1.245-2.275-1.068-2.366 2.4-2.366 3.292 0 3.381.091 5.071 4.731.89 2.547 1.957 5.641 2.224 6.915.534 2 .8 1.547 3.292-4.458 2.669-6.642 2.847-6.824 5.872-7.006 3.736-.364 3.914-1.638-3.292 15.74l-5.249 12.919-3.2.273c-2.937.087-3.115.001-2.581-1.819z" class="cls-1" data-name="Caminho 10" transform="translate(144.554 -20.016)"/>
        <path id="Caminho_11" d="M41.427 111.964c-4.181-1.911-6.227-5.277-6.227-10.463 0-5.459 2.669-9.28 7.473-10.645 6.761-1.82 12.544 2.184 13.255 8.916l.534 3.912h-7.74c-4.181 0-7.651.364-7.651.728 0 2.366 6.405 3.821 9.163 2 1.157-.728 5.071 1.274 5.16 2.729 0 1-6.761 4-9.252 3.912a16.942 16.942 0 0 1-4.715-1.089zm8.1-14.739c-1.334-1.638-5.071-1.638-7.206 0-1.427 1.092-1.161 1.183 3.379 1.275 4.179 0 4.713-.183 3.823-1.275z" class="cls-1" data-name="Caminho 11" transform="translate(153.131 -19.973)"/>
        <path id="Caminho_12" d="M213.251 112.272a11.115 11.115 0 0 1-7.117-14.011c0-.091.089-.182.089-.273 2.135-6.369 10.409-9.371 15.3-5.368l2.224 1.729V92.62c0-1 .534-1.82 1.245-1.82 1.068 0 1.246 1.82 1.246 10.736s-.178 10.736-1.246 10.736c-.712 0-1.245-.728-1.245-1.729v-1.82l-1.868 1.82a6.223 6.223 0 0 1-2.847 1.729 9.461 9.461 0 0 0-2.224.364 9.509 9.509 0 0 1-3.557-.364zm6.494-3.457c4.181-2 5.249-8.552 1.957-12.555-1.6-1.911-2.669-2.365-5.516-2.365-9.875 0-10.142 15.558-.267 15.831a11.214 11.214 0 0 0 3.826-.912z" class="cls-1" data-name="Caminho 12" transform="translate(134.323 -20.007)"/>
        <path id="Caminho_13" d="M7.8 109.6c0-1.092 3.025-6.46 6.761-11.828l6.761-9.917-6.761-.273-6.761-.268V81.4h11.3c10.676 0 11.3.091 11.3 1.638 0 .91-3.114 6.278-6.939 11.828l-6.939 10.1 6.939.273 6.939.273v5.914H19.187C7.978 111.424 7.8 111.424 7.8 109.6z" class="cls-1" data-name="Caminho 13" transform="translate(156.155 -19.159)"/>
        <path id="Caminho_14" d="M90 96.412V81.4h5.872v5.186c0 4.913.089 5.186 1.6 4.276a8.39 8.39 0 0 1 9.519 1.274c2.491 2.547 3.2 5.368 3.2 13.374v5.914h-5.961v-6.915c0-6.369-.178-6.915-2.135-8.279-1.957-1.274-2.224-1.274-4.181 0s-2.135 1.911-2.135 8.279v6.915H90z" class="cls-1" data-name="Caminho 14" transform="translate(147.082 -19.159)"/>
        <path id="Caminho_15" d="M140 101.536V90.8h3.025c1.957 0 2.758.364 2.313.91-.445.637.089.637 1.334-.091 1.779-.91 8.718-.728 9.786.182.178.273-.267 1.638-1.068 3.093-1.245 2.275-1.779 2.456-4.181 2.184-4.359-.728-5.249.728-5.249 8.461v6.824H140z" class="cls-1" data-name="Caminho 15" transform="translate(141.564 -20.007)"/>
        <path id="Caminho_16" d="M169.3 96.412V81.4h7.206c8.54 0 12.188 1.456 14.145 5.55 1.69 3.548 1.69 5.823.089 9.007-2.135 4.185-4.27 5.186-11.476 5.186h-6.583v5.186c0 4.549-.178 5.186-1.69 5.186s-1.691-.637-1.691-15.103zm17.17 0c2.669-2.638 2.847-7.369.445-9.917-1.334-1.365-2.758-1.729-8.007-1.729h-6.316V98.5h5.872c5.248.1 6.315-.177 8.006-2.088z" class="cls-1" data-name="Caminho 16" transform="translate(138.33 -19.159)"/>
        <path id="Caminho_17" d="M198.6 96.412c0-12.828.178-15.012 1.245-15.012s1.245 2.275 1.245 15.012-.178 15.012-1.245 15.012c-1.156 0-1.245-2.184-1.245-15.012z" class="cls-1" data-name="Caminho 17" transform="translate(135.096 -19.159)"/>
        <path id="Caminho_18" d="M238.4 110.907c-6.583-3.639-6.405-15.285.178-18.833a13.909 13.909 0 0 1 5.071-1.274c2.847 0 7.562 2.184 7.562 3.457 0 1.547-1.512 1.638-4.092.364-7.918-4-14.857 6.187-8.54 12.646 2.847 2.82 6.227 3.275 9.252 1.092 1.423-1.092 2.135-1.183 2.847-.364s.534 1.365-.979 2.638c-2.493 2.002-8.099 2.184-11.299.274z" class="cls-1" data-name="Caminho 18" transform="translate(131.238 -20.007)"/>
        <path id="Caminho_19" d="M259.947 109.36c-2.4-2.456-2.847-3.548-2.847-6.915 0-7.46 3.914-11.646 11.031-11.646 4.715 0 9.163 4.276 9.163 8.916v3.093h-8.807c-5.694 0-8.807.364-8.807.91s1.068 2.093 2.4 3.457c2.758 2.82 5.872 3.184 9.7 1.183 4.893-2.638 6.672-.728 2.046 2.184a13.621 13.621 0 0 1-6.761 1.729c-3.649.001-4.716-.363-7.118-2.911zm14.768-10.281c0-2.456-2.936-4.913-6.494-5.368-3.114-.455-3.825-.182-6.138 2.184-1.334 1.456-2.491 3-2.491 3.548s2.669.91 7.562.91c5.87-.091 7.561-.364 7.561-1.274z" class="cls-1" data-name="Caminho 19" transform="translate(128.639 -20.007)"/>
    </g>
</svg>
