<svg xmlns="http://www.w3.org/2000/svg" id="instagram_4_" width="30" height="30" data-name="instagram (4)" viewBox="0 0 30 30">
    <defs>
        <style>
            .cls-1{fill:#fff}
        </style>
    </defs>
    <path id="Caminho_2942" d="M107.7 91H93.637A2.64 2.64 0 0 0 91 93.637V107.7a2.64 2.64 0 0 0 2.637 2.637H107.7a2.64 2.64 0 0 0 2.637-2.637V93.637A2.64 2.64 0 0 0 107.7 91zm-7.031 15.82a6.152 6.152 0 1 1 6.152-6.152 6.16 6.16 0 0 1-6.153 6.152zm6.152-10.547a1.758 1.758 0 1 1 1.758-1.758 1.76 1.76 0 0 1-1.759 1.758zm0 0" class="cls-1" data-name="Caminho 2942" transform="translate(-85.668 -85.668)"/>
    <path id="Caminho_2943" d="M185.395 181a4.395 4.395 0 1 0 4.395 4.395 4.4 4.4 0 0 0-4.395-4.395zm0 0" class="cls-1" data-name="Caminho 2943" transform="translate(-170.395 -170.395)"/>
    <path id="Caminho_2944" d="M25.547 0H4.453A4.5 4.5 0 0 0 0 4.453v21.094A4.5 4.5 0 0 0 4.453 30h21.094A4.5 4.5 0 0 0 30 25.547V4.453A4.5 4.5 0 0 0 25.547 0zm.879 22.031a4.4 4.4 0 0 1-4.395 4.395H7.969a4.4 4.4 0 0 1-4.395-4.395V7.969a4.4 4.4 0 0 1 4.395-4.395h14.062a4.4 4.4 0 0 1 4.395 4.395zm0 0" class="cls-1" data-name="Caminho 2944"/>
</svg>
