<svg xmlns="http://www.w3.org/2000/svg" width="31" height="30.788" viewBox="0 0 31 30.788">
    <defs>
        <style>
            .cls-1{fill:#fff}
        </style>
    </defs>
    <path id="LinkedIn" d="M31 28.434v11.912h-6.644V29.232c0-2.792-.961-4.7-3.366-4.7a3.653 3.653 0 0 0-3.409 2.526 4.9 4.9 0 0 0-.22 1.684v11.6h-6.647s.09-18.824 0-20.774h6.646v2.945c-.013.022-.031.046-.044.067h.044v-.067a6.565 6.565 0 0 1 5.989-3.433c4.373.004 7.651 2.973 7.651 9.354zM3.761 9.558A3.527 3.527 0 0 0 0 13.147a3.505 3.505 0 0 0 3.673 3.591h.044a3.528 3.528 0 0 0 3.759-3.591 3.513 3.513 0 0 0-3.715-3.589zM.395 40.346h6.644V19.572H.395z" class="cls-1" transform="translate(0 -9.558)"/>
</svg>
