<svg xmlns="http://www.w3.org/2000/svg" width="674" height="498" viewBox="0 0 674 498">
    <defs>
        <style>
            .cls-1{fill:#f8f9fa}.cls-2{fill:#3f3d56}.cls-3{fill:#f1f1f1}.cls-4{fill:#ff6584}.cls-5{fill:#d0d0d0}.cls-6{fill:#f2f2f2}.cls-7{fill:#2f2e41}.cls-8{fill:#ffb8b8}.cls-9{fill:#d0cde1}.cls-10{opacity:.1}.cls-11{fill:#fff}
        </style>
    </defs>
    <g id="Grupo_905" data-name="Grupo 905" transform="translate(-1165 -3551)">
        <path id="Retângulo_424" d="M0 0h674v498H0z" class="cls-1" data-name="Retângulo 424" transform="translate(1165 3551)"/>
        <g id="Grupo_872" data-name="Grupo 872" transform="translate(1210 3568)">
            <path id="Caminho_2596" d="M425.239 376.754v-.994c1.976.006 3.981-.028 5.962-.1l.037.993c-1.992.073-4.011.107-5.999.101zm-6-.135c-1.986-.084-4-.21-5.989-.373l.081-.991c1.975.163 3.977.287 5.95.371zm17.992-.307l-.076-.991c1.972-.151 3.969-.345 5.933-.576l.116.987c-1.978.232-3.987.427-5.973.58zm-29.952-.677c-1.981-.244-3.979-.53-5.941-.852l.161-.981c1.948.319 3.934.6 5.9.846zm41.87-.722l-.155-.982c1.95-.309 3.924-.663 5.868-1.051l.195.974a148.61 148.61 0 0 1-5.907 1.059zm-53.712-1.22c-1.954-.4-3.923-.85-5.853-1.329l.239-.965c1.917.476 3.873.92 5.814 1.32zm65.48-1.136l-.235-.965a147.42 147.42 0 0 0 5.764-1.523l.273.956a151.194 151.194 0 0 1-5.8 1.533zm-77.126-1.757a146.195 146.195 0 0 1-5.726-1.8l.317-.942c1.873.63 3.786 1.231 5.688 1.787zm88.665-1.543l-.312-.943a147.507 147.507 0 0 0 5.621-1.986l.35.93a153.16 153.16 0 0 1-5.66 2zM372.4 366.965a151.145 151.145 0 0 1-5.574-2.263l.392-.913c1.825.784 3.687 1.54 5.537 2.248zm111.272-1.928l-.387-.915c1.819-.77 3.646-1.586 5.429-2.427l.424.9a151.27 151.27 0 0 1-5.466 2.444zm-122.322-2.822c-1.8-.863-3.609-1.773-5.369-2.706l.465-.878c1.749.926 3.543 1.831 5.333 2.688zm133.15-2.285l-.46-.881a149.591 149.591 0 0 0 5.22-2.859l.5.861c-1.722.988-3.49 1.957-5.255 2.878zm-143.776-3.342a149.868 149.868 0 0 1-5.131-3.129l.535-.838a144.862 144.862 0 0 0 5.1 3.108zm154.167-2.625l-.529-.841c1.669-1.05 3.343-2.15 4.976-3.271l.562.819a147.302 147.302 0 0 1-5.009 3.293zm-164.3-3.835a149.798 149.798 0 0 1-4.86-3.529l.6-.792c1.575 1.193 3.2 2.372 4.828 3.506zm174.18-2.95l-.6-.8a148.265 148.265 0 0 0 4.7-3.661l.626.772c-1.55 1.258-3.142 2.5-4.732 3.685zm-183.754-4.3a151.367 151.367 0 0 1-4.56-3.906l.661-.741c1.477 1.317 3 2.623 4.53 3.88zm193.068-3.258l-.656-.745a149.443 149.443 0 0 0 4.394-4.027l.686.719a150.044 150.044 0 0 1-4.424 4.053zm-202.026-4.733a153.05 153.05 0 0 1-4.231-4.257l.718-.687a155.104 155.104 0 0 0 4.2 4.228zm210.708-3.55l-.714-.691c1.374-1.42 2.74-2.889 4.06-4.367l.741.662a151.709 151.709 0 0 1-4.087 4.4zm-219-5.128c-1.32-1.5-2.624-3.039-3.876-4.58l.772-.626a147.389 147.389 0 0 0 3.85 4.549zm226.991-3.826l-.767-.631a151.262 151.262 0 0 0 3.7-4.68l.792.6c-1.2 1.585-2.455 3.17-3.723 4.711zM306.214 316.9a151.62 151.62 0 0 1-3.495-4.872l.819-.563a147.039 147.039 0 0 0 3.472 4.84zm241.811-4.086l-.815-.567c1.134-1.629 2.249-3.3 3.312-4.965l.838.535a153.844 153.844 0 0 1-3.335 4.997zm-248.6-5.793a149.8 149.8 0 0 1-3.091-5.134l.861-.495a149.41 149.41 0 0 0 3.07 5.1zm255.068-4.333l-.858-.5a145.1 145.1 0 0 0 2.9-5.218l.878.466a147.806 147.806 0 0 1-2.923 5.252zm-261.04-6.056a149.381 149.381 0 0 1-2.666-5.363l.9-.424a151.66 151.66 0 0 0 2.648 5.328zm266.672-4.565l-.9-.43a148.658 148.658 0 0 0 2.473-5.438l.913.393a144.955 144.955 0 0 1-2.488 5.475zM288.338 285.8c-.777-1.833-1.525-3.7-2.223-5.557l.93-.35a147.18 147.18 0 0 0 2.208 5.519zm276.541-4.786l-.928-.355a149.853 149.853 0 0 0 2.025-5.624l.941.318a149.446 149.446 0 0 1-2.037 5.662zm-280.766-6.43a147.701 147.701 0 0 1-1.771-5.735l.955-.273c.545 1.9 1.137 3.817 1.759 5.7zm284.607-4.958l-.954-.279a147.65 147.65 0 0 0 1.558-5.754l.964.24a146.558 146.558 0 0 1-1.568 5.798zm-287.914-6.578a149.392 149.392 0 0 1-1.3-5.859l.974-.2c.389 1.938.824 3.9 1.291 5.82zm290.814-5.066l-.974-.2c.4-1.934.765-3.906 1.087-5.861l.981.161a149.072 149.072 0 0 1-1.094 5.9zm-293.177-6.7a150.347 150.347 0 0 1-.823-5.945l.987-.116c.232 1.969.507 3.955.817 5.9zm295.125-5.143l-.987-.122c.243-1.966.449-3.961.611-5.929l.991.082c-.164 1.981-.371 3.99-.615 5.969zm-296.53-6.774c-.154-1.985-.27-4-.344-5.992l.993-.037c.074 1.977.189 3.98.342 5.952zm297.522-5.184l-.993-.043c.084-1.98.13-3.985.137-5.96v-.329h.994v.327a150.469 150.469 0 0 1-.138 6.011zm-296.978-6.801h-.994v-.167c.006-1.938.05-3.9.131-5.832l.993.042c-.08 1.918-.124 3.868-.13 5.8zm296.012-5.48a148.708 148.708 0 0 0-.348-5.952l.991-.078c.156 1.989.274 4 .35 5.992zm-295.514-6.43l-.991-.081c.163-1.989.368-4 .609-5.97l.987.121c-.24 1.96-.443 3.954-.605 5.93zm294.58-5.459c-.233-1.961-.51-3.947-.824-5.9l.982-.157c.315 1.97.594 3.97.829 5.944zm-293.133-6.373l-.981-.16c.321-1.966.687-3.952 1.088-5.9l.973.2a143.2 143.2 0 0 0-1.08 5.863zm291.247-5.4a143.52 143.52 0 0 0-1.3-5.818l.965-.236c.472 1.931.912 3.9 1.307 5.858zm-288.851-6.28l-.965-.239c.479-1.932 1-3.882 1.562-5.8l.954.278a153.616 153.616 0 0 0-1.55 5.763zm286.02-5.3c-.547-1.9-1.14-3.816-1.765-5.694l.943-.313c.628 1.891 1.226 3.82 1.777 5.733zm-282.686-6.146l-.942-.317c.635-1.89 1.319-3.8 2.032-5.664l.928.354a147.969 147.969 0 0 0-2.018 5.627zm278.926-5.166a148.55 148.55 0 0 0-2.214-5.517l.914-.389a149.52 149.52 0 0 1 2.23 5.554zm-274.662-6l-.913-.392a149.574 149.574 0 0 1 2.484-5.477l.9.428a149.286 149.286 0 0 0-2.467 5.441zm270.011-4.944a147.372 147.372 0 0 0-2.654-5.324l.88-.461a146.956 146.956 0 0 1 2.672 5.361zm-264.859-5.832l-.879-.464a150.51 150.51 0 0 1 2.917-5.256l.859.5a156.82 156.82 0 0 0-2.896 5.225zm259.337-4.707a151.86 151.86 0 0 0-3.076-5.1l.84-.531c1.061 1.68 2.1 3.406 3.1 5.131zm-253.335-5.611l-.838-.534a150.072 150.072 0 0 1 3.329-5l.816.567a155.182 155.182 0 0 0-3.305 4.971zm246.981-4.452a150.489 150.489 0 0 0-3.477-4.836l.795-.6a150.969 150.969 0 0 1 3.5 4.869zm-240.169-5.342l-.792-.6c1.2-1.59 2.454-3.176 3.718-4.716l.768.631c-1.256 1.529-2.5 3.1-3.694 4.684zm233.023-4.189a148.883 148.883 0 0 0-3.855-4.544l.745-.658a149.693 149.693 0 0 1 3.881 4.575zm-225.451-5.027l-.742-.661c1.324-1.486 2.7-2.967 4.082-4.4l.715.69c-1.376 1.424-2.74 2.9-4.056 4.372zm217.563-3.905a151.007 151.007 0 0 0-4.208-4.224l.69-.715a151.622 151.622 0 0 1 4.235 4.252zm-209.282-4.671l-.687-.718a151.687 151.687 0 0 1 4.419-4.059l.657.745a149.69 149.69 0 0 0-4.39 4.032zm200.7-3.605a148.536 148.536 0 0 0-4.534-3.875l.63-.768a151.933 151.933 0 0 1 4.564 3.9zm-191.763-4.279l-.627-.771c1.546-1.258 3.137-2.5 4.728-3.691l.6.8a152.099 152.099 0 0 0-4.7 3.666zm182.542-3.287a147.756 147.756 0 0 0-4.831-3.5l.566-.816a151.31 151.31 0 0 1 4.864 3.524zm-173.008-3.855l-.564-.818c1.642-1.13 3.326-2.24 5.006-3.3l.53.841a151.602 151.602 0 0 0-4.972 3.277zm163.206-2.952a145.794 145.794 0 0 0-5.1-3.1l.5-.859c1.723 1 3.45 2.052 5.134 3.123zm-153.135-3.4l-.5-.861a149.894 149.894 0 0 1 5.251-2.884l.461.88c-1.751.917-3.507 1.88-5.216 2.865zm142.814-2.6a150.2 150.2 0 0 0-5.336-2.682l.428-.9c1.8.86 3.609 1.768 5.372 2.7zm-132.272-2.913l-.425-.9a151.066 151.066 0 0 1 5.463-2.45l.388.915c-1.818.772-3.644 1.59-5.427 2.433zm121.493-2.229a146.41 146.41 0 0 0-5.54-2.242l.354-.928c1.864.711 3.741 1.47 5.576 2.257zM373.37 89.13l-.351-.93a154.18 154.18 0 0 1 5.657-2.005l.313.943a147.91 147.91 0 0 0-5.619 1.992zm99.38-1.841a146.917 146.917 0 0 0-5.69-1.78l.278-.954a148.84 148.84 0 0 1 5.727 1.792zm-88.066-1.913l-.274-.955a148.15 148.15 0 0 1 5.8-1.54l.236.965c-1.924.469-3.862.984-5.762 1.53zm76.616-1.415a147.363 147.363 0 0 0-5.815-1.313l.2-.974c1.955.4 3.924.845 5.854 1.322zm-65.039-1.409l-.2-.974c1.949-.392 3.937-.751 5.906-1.065l.157.981c-1.949.312-3.924.668-5.859 1.058zm53.36-.981c-1.953-.318-3.939-.6-5.9-.839l.12-.987c1.976.241 3.976.525 5.941.845zm-41.589-.9l-.117-.987c1.978-.234 3.987-.432 5.972-.586l.077.991c-1.972.154-3.968.35-5.932.582zm29.756-.543c-1.969-.16-3.971-.283-5.95-.364l.041-.993c1.992.082 4.007.205 5.99.367zm-17.872-.384l-.038-.993c1.987-.076 4.006-.112 6-.109v.994c-1.981 0-3.987.033-5.961.108z" class="cls-2" data-name="Caminho 2596" transform="translate(-154.279 -46.043)"/>
            <path id="Caminho_2597" d="M690.3 246.383l-94.708 164.044-31.309 54.228-5.965-3.443-59.571-34.393-44.469-25.676-161.693-93.35L315.208 0z" class="cls-3" data-name="Caminho 2597" transform="translate(-135.224)"/>
            <path id="Caminho_2598" d="M256.524 445.973a53.566 53.566 0 0 1 71.031-37.666c10.184 3.842 18.919 10.675 27.049 17.752 15.7 13.672 30.914 27.9 49.884 37.026 16.944 8.149 36.024 11.609 54.448 6.75a56.647 56.647 0 0 0 22.682-11.689 53.4 53.4 0 0 0 14.6-21.718c6.582-17.328 6.453-36.289 11.482-54.028 2.59-9.14 6.7-17.775 13.266-24.74a64.864 64.864 0 0 1 23.514-15.395c20.779-8.212 43.27-7.547 65.221-7.257 20.745.274 42-.083 61.436-8.253a65.827 65.827 0 0 0 23.131-15.73c6.806-7.4 11.34-16.494 14.587-25.937 1.676-4.874 3.011-9.854 4.211-14.864.447-1.865-2.427-2.66-2.875-.792-2.486 10.372-5.575 20.755-11.04 29.991a57.492 57.492 0 0 1-21.054 20.6c-18.308 10.518-39.922 12.118-60.576 12.071-22.167-.049-44.842-1.7-66.374 4.721-17.522 5.224-33.648 15.692-41.762 32.562-8.077 16.794-8.359 35.85-12.38 53.752-2 8.891-4.983 17.645-10.339 25.109a48.445 48.445 0 0 1-21.446 16.39c-18.094 7.251-38.272 5.124-55.836-2.566-19.691-8.621-35.463-22.984-51.4-37.008-7.678-6.755-15.754-13.333-25.073-17.7a56.613 56.613 0 0 0-79.256 37.819c-.456 1.863 2.418 2.658 2.875.793z" class="cls-2" data-name="Caminho 2598" transform="translate(-143.655 -133.728)"/>
            <path id="Caminho_2599" d="M606.5 683.37h-49.919a174.6 174.6 0 0 1 0-59.522H606.5a107.1 107.1 0 0 0 0 59.522z" class="cls-4" data-name="Caminho 2599" transform="translate(-282.503 -298.02)"/>
            <path id="Caminho_2600" d="M304.384 572.483h49.921a174.605 174.605 0 0 0 0-59.522h-49.921a107.1 107.1 0 0 1 0 59.522z" class="cls-5" data-name="Caminho 2600" transform="translate(-167.125 -246.771)"/>
            <path id="Caminho_2601" d="M322.616 555.208a11.95 11.95 0 0 1 10.342.778c2.623 1.466 5 3.255 8.046 3.723a12.441 12.441 0 0 0 7.3-1.116c2.908-1.422 4.7-4.159 7.193-6.122 1.4-1.1-.572-3.047-1.956-1.956-2.432 1.917-4.166 4.706-7.128 5.884-3.171 1.261-6.258.618-9.134-1.039-2.319-1.336-4.479-2.865-7.141-3.446a14.6 14.6 0 0 0-8.263.628c-1.654.615-.938 3.289.735 2.667z" class="cls-6" data-name="Caminho 2601" transform="translate(-174.779 -263.979)"/>
            <path id="Caminho_2602" d="M322.617 580.063a11.95 11.95 0 0 1 10.342.778c2.623 1.466 5 3.256 8.046 3.723a12.441 12.441 0 0 0 7.3-1.116c2.908-1.422 4.7-4.159 7.193-6.122 1.4-1.1-.572-3.047-1.956-1.956-2.432 1.917-4.166 4.706-7.128 5.884-3.171 1.261-6.258.618-9.134-1.04-2.319-1.336-4.479-2.865-7.141-3.446a14.6 14.6 0 0 0-8.263.628c-1.654.615-.938 3.289.735 2.667z" class="cls-6" data-name="Caminho 2602" transform="translate(-174.779 -275.466)"/>
            <path id="Caminho_2603" d="M597.623 652.058a11.95 11.95 0 0 0-10.342.778c-2.623 1.466-5 3.256-8.047 3.723a12.44 12.44 0 0 1-7.3-1.116c-2.908-1.422-4.7-4.159-7.193-6.122-1.4-1.1.572-3.047 1.956-1.956 2.432 1.917 4.166 4.706 7.128 5.884 3.171 1.261 6.258.618 9.134-1.04 2.319-1.336 4.479-2.865 7.141-3.446a14.6 14.6 0 0 1 8.263.628c1.654.615.938 3.289-.735 2.667z" class="cls-6" data-name="Caminho 2603" transform="translate(-287.231 -308.74)"/>
            <path id="Caminho_2604" d="M597.623 676.057a11.949 11.949 0 0 0-10.342.778c-2.623 1.466-5 3.256-8.047 3.723a12.441 12.441 0 0 1-7.3-1.116c-2.908-1.422-4.7-4.159-7.193-6.122-1.4-1.1.572-3.047 1.956-1.956 2.432 1.917 4.166 4.706 7.128 5.884 3.171 1.261 6.258.618 9.134-1.04 2.319-1.336 4.479-2.865 7.141-3.446a14.6 14.6 0 0 1 8.263.628c1.654.615.938 3.289-.735 2.667z" class="cls-6" data-name="Caminho 2604" transform="translate(-287.231 -319.832)"/>
            <path id="Caminho_2605" d="M597.623 700.055a11.95 11.95 0 0 0-10.342.778c-2.623 1.466-5 3.255-8.047 3.723a12.441 12.441 0 0 1-7.3-1.116c-2.908-1.422-4.7-4.159-7.193-6.122-1.4-1.1.572-3.047 1.956-1.956 2.432 1.917 4.166 4.706 7.128 5.884 3.171 1.261 6.258.618 9.134-1.039 2.319-1.336 4.479-2.865 7.141-3.446a14.6 14.6 0 0 1 8.263.628c1.654.615.938 3.289-.735 2.667z" class="cls-6" data-name="Caminho 2605" transform="translate(-287.231 -330.923)"/>
            <path id="Caminho_2606" d="M738.469 209.73c-10.684-18.053-31.821-18.894-31.821-18.894s-20.6-2.634-33.81 24.86c-12.315 25.627-29.312 50.37-2.736 56.369l4.8-14.941 2.973 16.053a103.983 103.983 0 0 0 11.371.194c28.461-.919 55.565.269 54.692-9.944-1.16-13.576 4.811-36.327-5.469-53.697z" class="cls-7" data-name="Caminho 2606" transform="translate(-329.644 -97.863)"/>
            <path id="Caminho_2607" d="M632.931 544.754L596.9 569.776s-21.018 22.024-6.005 22.024 21.018-19.017 21.018-19.017l46.04-20.017z" class="cls-8" data-name="Caminho 2607" transform="translate(-297.043 -261.465)"/>
            <path id="Caminho_2608" d="M680.506 363.312S648.978 460.9 658.987 465.9s32.028 8.007 32.028 8.007z" class="cls-9" data-name="Caminho 2608" transform="translate(-330.105 -177.608)"/>
            <path id="Caminho_2609" d="M680.506 363.312S648.978 460.9 658.987 465.9s32.028 8.007 32.028 8.007z" class="cls-10" data-name="Caminho 2609" transform="translate(-330.105 -177.608)"/>
            <path id="Caminho_2610" d="M783.714 671.891l-31.309 54.228-5.965-3.443c-11.4-43.732-25.15-95.853-25.15-95.853l-34.42 61.461-44.47-25.677c10.644-22.915 28.843-76.82 28.843-76.82l81.075-41.035s26.021 16.014 27.022 55.049 1 62.055 1 62.055 1.323 3.803 3.374 10.035z" class="cls-7" data-name="Caminho 2610" transform="translate(-323.346 -261.464)"/>
            <circle id="Elipse_197" cx="26.023" cy="26.023" r="26.023" class="cls-8" data-name="Elipse 197" transform="translate(344.396 108.637)"/>
            <path id="Caminho_2611" d="M736.432 297.233s6.005 19.017 0 26.023 33.029-10.009 33.029-10.009-14.012-20.017-10.009-29.025z" class="cls-8" data-name="Caminho 2611" transform="translate(-366.515 -141.055)"/>
            <path id="Caminho_2612" d="M750.954 311.76a25.647 25.647 0 0 1-2.475 3.361c-1 1-7.006 2-8.007 4s-15.759 4.855-15.759 4.855l-5.259 2.151s-25.022 6.005-25.022 11.01-2 20.017-2 20.017-8.007 9.008-3 31.027a144.852 144.852 0 0 1 3.109 42.386c-2.4 27.828-9.49 57.857-2.108 59.7 12.01 3 46.04 4 57.05-11.01s12.01-28.024 24.021-29.025-2-42.037-2-42.037l15.013-98.085s-25.082-8.717-33.563 1.65z" class="cls-9" data-name="Caminho 2612" transform="translate(-344.032 -151.436)"/>
            <path id="Caminho_2613" d="M749.578 555.615H799.5a174.605 174.605 0 0 0 0-59.522h-49.922a107.1 107.1 0 0 1 0 59.522z" class="cls-5" data-name="Caminho 2613" transform="translate(-372.881 -238.975)"/>
            <path id="Caminho_2614" d="M767.443 529.5a11.95 11.95 0 0 1 10.342.778c2.623 1.466 5 3.256 8.047 3.723a12.441 12.441 0 0 0 7.3-1.116c2.908-1.422 4.7-4.159 7.193-6.122 1.4-1.1-.572-3.047-1.956-1.956-2.432 1.917-4.166 4.706-7.128 5.884-3.171 1.261-6.258.618-9.134-1.04-2.319-1.336-4.479-2.865-7.141-3.446a14.6 14.6 0 0 0-8.263.628c-1.654.615-.938 3.289.735 2.667z" class="cls-6" data-name="Caminho 2614" transform="translate(-380.364 -252.095)"/>
            <path id="Caminho_2615" d="M767.443 553.494a11.95 11.95 0 0 1 10.342.778c2.623 1.466 5 3.256 8.047 3.723a12.441 12.441 0 0 0 7.3-1.116c2.908-1.422 4.7-4.159 7.193-6.122 1.4-1.1-.572-3.047-1.956-1.956-2.432 1.917-4.166 4.706-7.128 5.884-3.171 1.261-6.258.618-9.134-1.04-2.319-1.336-4.479-2.865-7.141-3.446a14.6 14.6 0 0 0-8.263.628c-1.654.615-.938 3.289.735 2.667z" class="cls-6" data-name="Caminho 2615" transform="translate(-380.364 -263.187)"/>
            <path id="Caminho_2616" d="M861.827 429.375L825.8 454.4s-21.018 22.019-6.005 22.019 21.014-19.019 21.014-19.019l46.04-20.017z" class="cls-8" data-name="Caminho 2616" transform="translate(-402.832 -208.14)"/>
            <path id="Caminho_2617" d="M739.651 213.388l-20.883-10.938-13.1 2.033a23.423 23.423 0 0 0-19.253 17.973l-2.45 10.821 14.852-.571 4.149-9.681v9.522l6.853-.264 3.978-15.413 2.486 16.408 24.363-.5z" class="cls-7" data-name="Caminho 2617" transform="translate(-342.556 -103.262)"/>
            <path id="Caminho_2618" d="M855.142 315.068l7.006-2s71.062 29.025 69.06 54.047 1 25.022-11.01 26.023-47.041-11.01-46.04-13.011 8.007-12.01 8.007-12.01L855.142 347.1z" class="cls-9" data-name="Caminho 2618" transform="translate(-421.669 -154.386)"/>
            <circle id="Elipse_198" cx="4.003" cy="4.003" r="4.003" class="cls-8" data-name="Elipse 198" transform="translate(392.437 130.656)"/>
            <path id="Caminho_2619" d="M858.192 386.682c26.12-1.409 52.6 2.3 78.3-4.022 1.862-.458 1.073-3.334-.793-2.875-25.418 6.252-51.669 2.521-77.508 3.915-1.908.1-1.92 3.085 0 2.981z" class="cls-2" data-name="Caminho 2619" transform="translate(-422.415 -185.199)"/>
            <path id="Caminho_2620" d="M1045.258 407.066l41.426-27.857a174.6 174.6 0 0 0-33.214-49.393l-41.426 27.857a107.1 107.1 0 0 1 33.214 49.393z" class="cls-5" data-name="Caminho 2620" transform="translate(-494.184 -162.127)"/>
            <path id="Caminho_2621" d="M1052.306 390.208a11.949 11.949 0 0 1 9.016-5.126c2.995-.247 5.968-.09 8.755-1.4a12.441 12.441 0 0 0 5.437-5c1.62-2.8 1.582-6.076 2.553-9.094.545-1.693-2.175-2.209-2.714-.532-.948 2.948-.831 6.229-2.631 8.86-1.928 2.816-4.848 4-8.16 4.234-2.669.185-5.316.122-7.849 1.126a14.6 14.6 0 0 0-6.506 5.132c-1.029 1.433 1.057 3.253 2.1 1.8z" class="cls-6" data-name="Caminho 2621" transform="translate(-511.693 -179.786)"/>
            <path id="Caminho_2622" d="M1066.178 410.834a11.95 11.95 0 0 1 9.016-5.126c2.995-.247 5.968-.09 8.755-1.4a12.441 12.441 0 0 0 5.439-5c1.62-2.8 1.582-6.076 2.553-9.094.544-1.693-2.175-2.209-2.714-.532-.948 2.948-.831 6.229-2.631 8.86-1.928 2.816-4.849 4-8.16 4.234-2.669.185-5.316.122-7.849 1.126a14.6 14.6 0 0 0-6.506 5.132c-1.029 1.433 1.057 3.253 2.1 1.8z" class="cls-6" data-name="Caminho 2622" transform="translate(-518.105 -189.319)"/>
            <path id="Retângulo_393" d="M0 0h209.374v53.906H0z" class="cls-2" data-name="Retângulo 393" transform="rotate(.187 -8332.304 67.523)"/>
            <circle id="Elipse_199" cx="14.668" cy="14.668" r="14.668" class="cls-5" data-name="Elipse 199" transform="translate(10.442 39.481)"/>
            <path id="Retângulo_394" d="M0 0h60.684v4.314H0z" class="cls-11" data-name="Retângulo 394" transform="rotate(.187 -12804.443 17155.428)"/>
            <path id="Retângulo_395" d="M0 0h133.735v4.314H0z" class="cls-11" data-name="Retângulo 395" transform="rotate(.187 -15976.56 17150.187)"/>
            <path id="Retângulo_396" d="M0 0h133.735v4.314H0z" class="cls-11" data-name="Retângulo 396" transform="rotate(.187 -19148.984 17144.946)"/>
            <path id="Retângulo_397" d="M0 0h209.374v53.906H0z" class="cls-2" data-name="Retângulo 397" transform="rotate(.187 -52330.521 139.323)"/>
            <circle id="Elipse_200" cx="14.668" cy="14.668" r="14.668" class="cls-5" data-name="Elipse 200" transform="translate(10.442 183.081)"/>
            <path id="Retângulo_398" d="M0 0h60.684v4.314H0z" class="cls-11" data-name="Retângulo 398" transform="rotate(.187 -56802.66 17227.228)"/>
            <path id="Retângulo_399" d="M0 0h133.735v4.314H0z" class="cls-11" data-name="Retângulo 399" transform="rotate(.187 -59974.778 17221.987)"/>
            <path id="Retângulo_400" d="M0 0h133.735v4.314H0z" class="cls-11" data-name="Retângulo 400" transform="rotate(.187 -63147.2 17216.746)"/>
            <path id="Retângulo_401" d="M0 0h209.374v53.906H0z" class="cls-2" data-name="Retângulo 401" transform="rotate(179.813 129.841 76.69)"/>
            <circle id="Elipse_201" cx="14.668" cy="14.668" r="14.668" class="cls-5" data-name="Elipse 201" transform="translate(220.154 111.334)"/>
            <path id="Retângulo_402" d="M0 0h60.684v4.314H0z" class="cls-11" data-name="Retângulo 402" transform="rotate(179.813 101.915 59.192)"/>
            <path id="Retângulo_403" d="M0 0h133.735v4.314H0z" class="cls-11" data-name="Retângulo 403" transform="rotate(179.813 101.924 64.368)"/>
            <path id="Retângulo_404" d="M0 0h133.735v4.314H0z" class="cls-11" data-name="Retângulo 404" transform="rotate(179.813 101.932 69.546)"/>
        </g>
    </g>
</svg>
