<svg xmlns="http://www.w3.org/2000/svg" xmlns:xlink="http://www.w3.org/1999/xlink" width="283.801" height="249.918" viewBox="0 0 283.801 249.918">
    <defs>
        <style>
            .cls-1,.cls-2{fill:#454545}.cls-1,.cls-3,.cls-9{opacity:.1}.cls-4{fill:#3a3768}.cls-5{fill:#e6e8ec}.cls-6{fill:url(#linear-gradient)}.cls-7{fill:url(#linear-gradient-2)}.cls-8{fill:#fec2be}.cls-10{fill:#4c4981}.cls-11{opacity:.05}.cls-12{fill:#ca8496}.cls-13{fill:#ceddf9}.cls-14{fill:#fff}.cls-15{fill:#ff718d}.cls-16{fill:#9a5e7f}.cls-17{fill:#a8a8a8}.cls-18{opacity:.2}
        </style>
        <linearGradient id="linear-gradient" x1=".5" x2=".5" y1="1" y2=".001" gradientUnits="objectBoundingBox">
            <stop offset="0" stop-color="gray" stop-opacity=".251"/>
            <stop offset=".54" stop-color="gray" stop-opacity=".122"/>
            <stop offset="1" stop-color="gray" stop-opacity=".102"/>
        </linearGradient>
        <linearGradient id="linear-gradient-2" x1=".5" x2=".5" y1="1" xlink:href="#linear-gradient"/>
    </defs>
    <g id="Grupo_912" data-name="Grupo 912" transform="translate(0 -.001)">
        <ellipse id="Elipse_243" cx="36.29" cy="6.243" class="cls-1" data-name="Elipse 243" rx="36.29" ry="6.243" transform="translate(193.767 224.029)"/>
        <ellipse id="Elipse_244" cx="53.727" cy="3.801" class="cls-1" data-name="Elipse 244" rx="53.727" ry="3.801" transform="translate(66.451 220.366)"/>
        <path id="Caminho_2738" d="M223.553 50.433c9.622-8.575 24.727-10.321 38.464-9.637 43.177 2.137 82.151 22.99 115.865 46.566 12.211 8.548 24.22 17.733 32.142 29.489 16.127 23.927 11.344 57.085-11.081 76.785-7.632 6.716-16.878 11.848-26.375 16.405-16.881 8.1-35.106 14.61-54.259 16.46-13.664 1.322-27.5.247-41.083-1.593-37.951-5.147-75.2-16.53-106.42-36-13.694-8.548-26.6-19.159-32.249-32.969s-2.03-31.327 11.951-39.5c5.8-3.382 12.7-4.909 19.47-6.344 9.964-2.112 20.09-4.194 29.083-8.486 9.292-4.439 20.282-13.014 18.451-22.825-1.985-10.545-3.569-19.784 6.041-28.351z" class="cls-1" data-name="Caminho 2738" transform="translate(-135.748 -40.66)"/>
        <path id="Linha_34" d="M2.299 0H0" class="cls-2" data-name="Linha 34" transform="translate(47.766 54.006)"/>
        <g id="Grupo_909" class="cls-3" data-name="Grupo 909" transform="translate(72.975 35.65)">
            <path id="Caminho_2739" d="M427.645 570.64a6.034 6.034 0 0 0 5.08 3.279c3.535 0 6.411-3.746 6.411-8.37s-2.885-8.34-6.411-8.34a5.651 5.651 0 0 0-4.32 2.195 8.268 8.268 0 0 0-1.09 1.706l-.061.363a2.82 2.82 0 0 1-3.224.095v-27.115h-26.472a2.137 2.137 0 0 1-.321-2 2.552 2.552 0 0 1 1.194-1.453 6.037 6.037 0 0 0 3.282-5.08c0-3.535-3.749-6.411-8.371-6.411s-8.37 2.866-8.37 6.411a5.66 5.66 0 0 0 2.2 4.323 8.318 8.318 0 0 0 1.7 1.087l.037.061a2.6 2.6 0 0 1 .51 3.053H377.48v50.211a11.906 11.906 0 0 0 11.906 11.906h34.654v-26.645a2.109 2.109 0 0 1 2.158-.458 2.527 2.527 0 0 1 1.447 1.182z" data-name="Caminho 2739" transform="translate(-376.482 -408.981)"/>
            <path id="Caminho_2740" d="M380.819 282.154h4.146a8.368 8.368 0 0 1-3.269-6.566c0-4.759 4.152-8.615 9.271-8.615s9.274 3.856 9.274 8.615a8.367 8.367 0 0 1-3.269 6.566h24.848V255.4a2.137 2.137 0 0 1 2.158-.458 2.543 2.543 0 0 1 1.459 1.194 6.026 6.026 0 0 0 5.08 3.279c3.535 0 6.411-3.746 6.411-8.367s-2.863-8.37-6.411-8.37a5.661 5.661 0 0 0-4.323 2.195 8.436 8.436 0 0 0-1.09 1.706l-.058.037a2.607 2.607 0 0 1-3.227.43V219.94h-25.486a2.137 2.137 0 0 1-.321-2 2.537 2.537 0 0 1 1.194-1.456 6.03 6.03 0 0 0 3.279-5.08c0-3.535-3.746-6.411-8.367-6.411s-8.371 2.866-8.371 6.411a5.662 5.662 0 0 0 2.195 4.323 8.437 8.437 0 0 0 1.706 1.09l.037.058a2.6 2.6 0 0 1 .51 3.053h-7.375v-1.374h5.446A8.364 8.364 0 0 1 383 212c0-4.759 4.152-8.618 9.274-8.618s9.271 3.859 9.271 8.618a8.364 8.364 0 0 1-3.282 6.563H421.8v-27.074a2.119 2.119 0 0 1 2.161-.458 2.546 2.546 0 0 1 1.456 1.194 6.03 6.03 0 0 0 5.08 3.279c3.535 0 6.411-3.746 6.411-8.371s-2.863-8.367-6.411-8.367a5.652 5.652 0 0 0-4.323 2.195 8.27 8.27 0 0 0-1.09 1.706l-.058.363a2.824 2.824 0 0 1-3.227.095V157.87H387.16a11.906 11.906 0 0 0-11.906 11.906v12.888h-.18a.7.7 0 0 0-.7.7v6.105a.7.7 0 0 0 .7.7h.18v6.231h-.235a.7.7 0 0 0-.7.7v11.658a.7.7 0 0 0 .7.7h.235v4.579h-.192a.7.7 0 0 0-.7.7v3.755h-.153v7.908a.7.7 0 0 0 .7.7h.208v55.052z" data-name="Caminho 2740" transform="translate(-374.21 -157.739)"/>
            <path id="Caminho_2741" d="M585.31 200.807a.7.7 0 0 0-.7-.7h-.421v-.766h-.229v-30.453a11.445 11.445 0 0 0-11.448-11.448H538.17v23.2a8.471 8.471 0 0 1 6.716-3.373c4.8 0 8.685 4.155 8.685 9.277s-3.889 9.277-8.685 9.277a8.465 8.465 0 0 1-6.716-3.373v25.743h27.78a8.386 8.386 0 0 1-3.263-6.572c0-4.765 4.143-8.627 9.256-8.627a9.6 9.6 0 0 1 6.218 2.241 8.157 8.157 0 0 1 0 12.745v.2h6.029v-.021h1.12z" data-name="Caminho 2741" transform="translate(-488.118 -157.44)"/>
            <path id="Caminho_2742" d="M575.337 532.172v-3.053a5.81 5.81 0 0 0 .345-.571 5.086 5.086 0 0 0 .629-2.427 5 5 0 0 0-.287-1.661 5.5 5.5 0 0 0-.687-1.337 8.971 8.971 0 0 0-7.394-3.4c-4.625 0-8.37 2.866-8.37 6.411a5.662 5.662 0 0 0 2.195 4.323 8.436 8.436 0 0 0 1.706 1.09l.037.058a2.607 2.607 0 0 1 .51 3.053H537.09v25.032a8.367 8.367 0 0 1 6.646-3.358c4.759 0 8.615 4.152 8.615 9.271s-3.856 9.274-8.615 9.274a8.367 8.367 0 0 1-6.646-3.358v20.206h30.9a7.345 7.345 0 0 0 7.345-7.326v-49.736 49.7a7.345 7.345 0 0 1-7.345 7.345h-30.9v4.884h32.053a11.906 11.906 0 0 0 11.906-11.906V533.35h-5.712z" data-name="Caminho 2742" transform="translate(-487.368 -409.127)"/>
        </g>
        <path id="Caminho_2743" d="M391.536 621.668a7.345 7.345 0 0 1-7.345-7.345V564.46h-5.711v50.2a11.906 11.906 0 0 0 11.906 11.906h34.654v-4.884z" class="cls-4" data-name="Caminho 2743" transform="translate(-304.202 -404.559)"/>
        <path id="Caminho_2744" d="M440.175 565.458a2.527 2.527 0 0 1 1.456 1.194 6.034 6.034 0 0 0 5.08 3.279c3.535 0 6.411-3.746 6.411-8.37s-2.873-8.352-6.4-8.352a5.651 5.651 0 0 0-4.32 2.195 8.267 8.267 0 0 0-1.09 1.706l-.061.363a2.82 2.82 0 0 1-3.224.095v-27.115h-26.471a2.137 2.137 0 0 1-.321-2 2.552 2.552 0 0 1 1.194-1.453 6.037 6.037 0 0 0 3.282-5.08c0-3.535-3.749-6.411-8.371-6.411s-8.37 2.866-8.37 6.411a5.66 5.66 0 0 0 2.2 4.323 8.318 8.318 0 0 0 1.7 1.087l.037.061a2.6 2.6 0 0 1 .51 3.053h-6.227v49.872a7.345 7.345 0 0 0 7.345 7.345h33.5v-21.745a2.109 2.109 0 0 1 2.137-.458z" class="cls-2" data-name="Caminho 2744" transform="translate(-317.2 -370.552)"/>
        <path id="Retângulo_437" d="M0 0h.907v1.478H0z" class="cls-4" data-name="Retângulo 437" transform="translate(73.271 95.156)"/>
        <path id="Retângulo_438" d="M0 0h4.955v1.478H0z" class="cls-4" data-name="Retângulo 438" transform="translate(74.935 95.156)"/>
        <path id="Retângulo_439" d="M0 0h.757v1.478H0z" class="cls-4" data-name="Retângulo 439" transform="translate(74.177 95.156)"/>
        <path id="Caminho_2746" d="M375.858 364.337h.208V357.2h-.916v6.438a.7.7 0 0 0 .708.7z" class="cls-4" data-name="Caminho 2746" transform="translate(-301.888 -260.569)"/>
        <path id="Caminho_2747" d="M383.862 357.2h-4.955v6.438a.7.7 0 0 1-.7.7h-.055v55.077h5.712z" class="cls-4" data-name="Caminho 2747" transform="translate(-303.973 -260.569)"/>
        <path id="Caminho_2748" d="M378.15 364.337h.055a.7.7 0 0 0 .7-.7V357.2h-.757z" class="cls-4" data-name="Caminho 2748" transform="translate(-303.972 -260.569)"/>
        <path id="Caminho_2749" d="M397.736 378.828c0-4.759 4.152-8.615 9.271-8.615s9.274 3.856 9.274 8.615a8.367 8.367 0 0 1-3.269 6.579h24.849v-26.751a2.137 2.137 0 0 1 2.158-.458 2.543 2.543 0 0 1 1.459 1.194 6.026 6.026 0 0 0 5.08 3.279c3.535 0 6.411-3.746 6.411-8.367s-2.863-8.37-6.411-8.37a5.661 5.661 0 0 0-4.323 2.195 8.436 8.436 0 0 0-1.09 1.706l-.058.037a2.607 2.607 0 0 1-3.227.43v-27.109h-25.486a2.137 2.137 0 0 1-.32-2 2.537 2.537 0 0 1 1.194-1.456 6.03 6.03 0 0 0 3.279-5.08c0-3.535-3.746-6.411-8.367-6.411s-8.371 2.866-8.371 6.411a5.661 5.661 0 0 0 2.195 4.323 8.433 8.433 0 0 0 1.706 1.09l.037.058a2.6 2.6 0 0 1 .51 3.053h-7.377v62.223h4.146a8.367 8.367 0 0 1-3.27-6.576z" class="cls-2" data-name="Caminho 2749" transform="translate(-316.971 -226.562)"/>
        <path id="Caminho_2750" d="M379.407 338.149a.7.7 0 0 0-.7-.7h-.055V342h.757z" class="cls-4" data-name="Caminho 2750" transform="translate(-304.32 -246.848)"/>
        <path id="Caminho_2751" d="M376.622 235.07h-.153a.7.7 0 0 0-.7.7v6.105a.7.7 0 0 0 .7.7h.18v-7.5z" class="cls-4" data-name="Caminho 2751" transform="translate(-302.319 -175.722)"/>
        <path id="Caminho_2752" d="M376.282 280.05a.7.7 0 0 0-.7.7v11.658a.7.7 0 0 0 .7.7h.235V280.05z" class="cls-4" data-name="Caminho 2752" transform="translate(-302.187 -206.971)"/>
        <path id="Caminho_2753" d="M376.607 337.78h-.2a.7.7 0 0 0-.7.7v3.856h.916z" class="cls-4" data-name="Caminho 2753" transform="translate(-302.277 -247.077)"/>
        <path id="Caminho_2754" d="M378.636 165.772v12.888a.7.7 0 0 1 .672.7v6.105a.7.7 0 0 1-.672.7v6.234h.107a.7.7 0 0 1 .7.7v11.658a.7.7 0 0 1-.7.7h-.113v4.579h.055a.7.7 0 0 1 .7.7v3.84h4.955V166.12a7.345 7.345 0 0 1 7.342-7.345h9.955v1.276a6.047 6.047 0 0 0 6.047 6.047H425.2v-3.993h-8.062a1.187 1.187 0 0 1-1.181-1.175v-.256a1.184 1.184 0 0 1 1.181-1.181h8.047v-5.623h-34.649a11.906 11.906 0 0 0-11.9 11.9z" class="cls-4" data-name="Caminho 2754" transform="translate(-304.306 -119.31)"/>
        <path id="Caminho_2755" d="M379.322 241.871v-6.105a.7.7 0 0 0-.672-.7v7.494a.7.7 0 0 0 .672-.689z" class="cls-4" data-name="Caminho 2755" transform="translate(-304.32 -175.722)"/>
        <path id="Caminho_2756" d="M379.462 292.407v-11.658a.7.7 0 0 0-.7-.7h-.113v13.056h.107a.7.7 0 0 0 .705-.7z" class="cls-4" data-name="Caminho 2756" transform="translate(-304.32 -206.971)"/>
        <path id="Caminho_2757" d="M399.387 219.147c0-4.759 4.152-8.618 9.274-8.618s9.271 3.859 9.271 8.618a8.364 8.364 0 0 1-3.282 6.563h23.536v-27.077a2.118 2.118 0 0 1 2.161-.458 2.546 2.546 0 0 1 1.456 1.194 6.03 6.03 0 0 0 5.08 3.279c3.535 0 6.411-3.746 6.411-8.37s-2.863-8.367-6.411-8.367a5.652 5.652 0 0 0-4.323 2.195 8.269 8.269 0 0 0-1.09 1.706l-.058.363a2.824 2.824 0 0 1-3.227.095v-13.037h-17.5a6.047 6.047 0 0 1-6.032-6.047v-1.276H404.7a7.345 7.345 0 0 0-7.342 7.354v48.446h5.293a8.364 8.364 0 0 1-3.264-6.563z" class="cls-2" data-name="Caminho 2757" transform="translate(-317.318 -130.453)"/>
        <path id="Caminho_2758" d="M502.081 172.26a1.184 1.184 0 0 0-1.181 1.181v.266a1.187 1.187 0 0 0 1.181 1.184h8.047v-2.622z" class="cls-5" data-name="Caminho 2758" transform="translate(-389.251 -132.086)"/>
        <path id="Caminho_2759" d="M683.17 291.42v18.12h2.061v-18.85h-1.114a.86.86 0 0 0-.947.73z" class="cls-4" data-name="Caminho 2759" transform="translate(-515.879 -214.363)"/>
        <path id="Retângulo_440" d="M0 0h2.442v5.495H0z" class="cls-4" data-name="Retângulo 440" transform="translate(123.332 34.429)"/>
        <path id="Retângulo_441" d="M0 0h2.442v3.969H0z" class="cls-4" data-name="Retângulo 441" transform="translate(123.332 42.671)"/>
        <path id="Retângulo_442" d="M0 0h2.442v2.747H0z" class="cls-5" data-name="Retângulo 442" transform="translate(123.332 39.924)"/>
        <path id="Caminho_2760" d="M689.994 293.2h-.574v18.063h1.273V293.9a.7.7 0 0 0-.7-.7z" class="cls-4" data-name="Caminho 2760" transform="translate(-520.221 -216.106)"/>
        <path id="Caminho_2761" d="M546.472 158.935c.65.147 1.221 1.331 1.221 1.331v.256s-.574 1.181-1.221 1.16v3.969h13.8a6.05 6.05 0 0 0 6.047-6.05v-1.276h10.379a7.342 7.342 0 0 1 7.326 7.342v35.567a8.157 8.157 0 0 1 0 12.745v.2h4.274v-17.913a.088.088 0 0 1 .092-.089h1.435v-31.29a11.445 11.445 0 0 0-11.448-11.448h-32.2v5.495zm4.622-.027a1.487 1.487 0 1 1-1.487 1.487 1.487 1.487 0 0 1 1.487-1.487z" class="cls-4" data-name="Caminho 2761" transform="translate(-420.701 -119.011)"/>
        <path id="Caminho_2762" d="M545.836 184.38c4.8 0 8.685 4.155 8.685 9.277s-3.889 9.277-8.685 9.277a8.465 8.465 0 0 1-6.716-3.373V225.3h27.78a8.386 8.386 0 0 1-3.263-6.572c0-4.765 4.142-8.627 9.256-8.627a9.6 9.6 0 0 1 6.234 2.244v-35.563a7.342 7.342 0 0 0-7.327-7.342h-10.38v1.276a6.05 6.05 0 0 1-6.047 6.05h-16.238v10.99a8.471 8.471 0 0 1 6.7-3.376z" class="cls-2" data-name="Caminho 2762" transform="translate(-415.803 -130.127)"/>
        <path id="Caminho_2763" d="M546.465 174.187a1.221 1.221 0 0 0 1.221-1.16v-.256a1.526 1.526 0 0 0-1.221-1.331h-.305v2.747z" class="cls-5" data-name="Caminho 2763" transform="translate(-420.694 -131.516)"/>
        <circle id="Elipse_245" cx="1.487" cy="1.487" r="1.487" class="cls-5" data-name="Elipse 245" transform="rotate(-9.22 313.29 -777.905)"/>
        <path id="Caminho_2764" d="M663.38 535.918v-3.053a5.1 5.1 0 0 0 0-6z" class="cls-4" data-name="Caminho 2764" transform="translate(-502.13 -378.444)"/>
        <path id="Retângulo_443" d="M0 0h5.712v1.313H0z" class="cls-4" data-name="Retângulo 443" transform="translate(161.25 158.653)"/>
        <path id="Caminho_2765" d="M652.844 548.6a2.546 2.546 0 0 0-1.194 1.456 2.137 2.137 0 0 0 .321 2h3.178v-1.313h-1.221a9.159 9.159 0 0 0 1.221-1.178v-3.055a7.228 7.228 0 0 1-2.305 2.09z" class="cls-2" data-name="Caminho 2765" transform="translate(-493.899 -392.088)"/>
        <path id="Caminho_2766" d="M659.36 557.688h1.221v-1.178a9.155 9.155 0 0 1-1.221 1.178z" class="cls-2" data-name="Caminho 2766" transform="translate(-499.338 -399.036)"/>
        <path id="Caminho_2767" d="M664.354 529.888a5.211 5.211 0 0 0-.974-3v5.992a5.223 5.223 0 0 0 .974-2.992z" class="cls-4" data-name="Caminho 2767" transform="translate(-502.13 -378.458)"/>
        <path id="Caminho_2768" d="M582.049 564.67v50.037a11.905 11.905 0 0 1-11.906 11.906H538.09v-4.884h30.9a7.345 7.345 0 0 0 7.345-7.345V564.67z" class="cls-4" data-name="Caminho 2768" transform="translate(-415.088 -404.705)"/>
        <path id="Caminho_2769" d="M572.839 528.677a2.546 2.546 0 0 1 1.194-1.456 7.23 7.23 0 0 0 2.3-2.085v-5.992a8.971 8.971 0 0 0-7.394-3.4c-4.625 0-8.37 2.866-8.37 6.411a5.661 5.661 0 0 0 2.195 4.323 8.436 8.436 0 0 0 1.706 1.09l.037.058a2.607 2.607 0 0 1 .51 3.053H538.09v25.032a8.367 8.367 0 0 1 6.646-3.358c4.759 0 8.615 4.152 8.615 9.271s-3.856 9.274-8.615 9.274a8.367 8.367 0 0 1-6.646-3.358v20.206h30.9a7.345 7.345 0 0 0 7.345-7.326v-49.743h-3.169a2.137 2.137 0 0 1-.327-2z" class="cls-2" data-name="Caminho 2769" transform="translate(-415.088 -370.712)"/>
        <path id="Caminho_2770" d="M842.18 287.6a5.765 5.765 0 0 0 3.395-3.712 4.683 4.683 0 0 0 .116-.611 5.456 5.456 0 0 0 .2-.583 5.615 5.615 0 0 0-1.166-4.848l-2.232 8.548z" class="cls-6" data-name="Caminho 2770" transform="translate(-626.348 -205.442)"/>
        <path id="Caminho_2771" d="M768.376 210.84c-.348-2.042-6.8-6.466-6.8-6.466a18.1 18.1 0 0 1-4.356-3.291c-.965-1.123-1.267-1.111-1.358-.959a.458.458 0 0 0-.208-.07c-.061-.043-.119-.082-.174-.128a.412.412 0 0 0-.241-.418c-.073-.043-.146-.1-.22-.15a6.92 6.92 0 0 1-.72-3c-.073-1.279-1.526-.959-2.024-.815a45.337 45.337 0 0 1-.989-1.972 3.623 3.623 0 0 0 .345-.687c.9-1.951.7-4.188 1.093-6.252a18.139 18.139 0 0 0 .751-4.506v-.085a3.864 3.864 0 0 0-.247-1.062c-.259-.653-.711-1.221-.916-1.9-.327-.986-.119-2.073-.391-3.071a4.589 4.589 0 0 0-2.616-2.8 13 13 0 0 0-3.88-.916c-3.312-.415-6.832-.662-9.854.73a1.771 1.771 0 0 1-.916.247 2.812 2.812 0 0 1-.836-.388 2.545 2.545 0 0 0-2.558.391 7.357 7.357 0 0 0-1.7 2.064 6.422 6.422 0 0 1-1.755 2.018c-.882.589-2.048.788-2.747 1.581a2.555 2.555 0 0 0-.568 1.319v-.021a1.689 1.689 0 0 0 0 .174v.641a8.333 8.333 0 0 0 .589 2.167 3.016 3.016 0 0 0 .8 1.362c1.062.864 2.747.049 4.03.531.113.04.22.092.327.14a.61.61 0 0 1-.049.15 10.129 10.129 0 0 0-.412 2.873 10.506 10.506 0 0 0 10.63 10.379 5.813 5.813 0 0 0 .653-.024c.031.113.064.229.092.339a11.254 11.254 0 0 1 .305 3.883l-.064-.568a2.816 2.816 0 0 0-.443-.168 3.95 3.95 0 0 0-1.319-.2c-1.444-.018-3.617.562-5.937 3.376 0 0-2.961 1.645-3.831 2.042a.409.409 0 0 0-.162.183s-3.959 5.98-4.368 8.254-.916 4.884-.916 4.884-.989 2.949-1.627 4.255a14.028 14.028 0 0 0-1.276 3.12c-.055.568.232 1.813-.989 2.607S719 233.588 719 233.588s-.611.574-1.474 1.3h-.031l3.19-12.232.571.143a.733.733 0 0 0 .751-.256.681.681 0 0 0 .125-.253l.644-2.479.26-.986.052-.2.375-1.438-1.27-.305-1.487-.369-4.2-1.059.366-1.4.305-1.191 1.92-7.369.305-1.188a10.062 10.062 0 0 0-5.556-3.462c-4.61-1.145-9.073.717-9.97 4.158a4.687 4.687 0 0 0-.119.611 4.446 4.446 0 0 0-.192.58 4.909 4.909 0 0 0-.122 1.832q.018.15.046.305a6.283 6.283 0 0 0 1.169 2.616 8.341 8.341 0 0 0 1.426 1.481l.021.067a2.787 2.787 0 0 1 .4 1.221v.189a2.809 2.809 0 0 1-.366.513l-28.164-7-.305 1.188-6.344 24.376a9.194 9.194 0 0 1 2.747-1.45 8.948 8.948 0 0 1 1.191-.305l.144-.024a8.508 8.508 0 0 1 3.413.14 8.733 8.733 0 0 1 6.478 7.482 9.115 9.115 0 0 1 .076 1.358 9.574 9.574 0 0 1-.183 1.725 9.194 9.194 0 0 1-10.77 6.3 8.548 8.548 0 0 1-5.77-4.93l-.305 1.191-6.547 25.011 24.944 6.2.269-1.2h.04a8.288 8.288 0 0 1-1.722-6.6.349.349 0 0 1 .04-.116 4.21 4.21 0 0 1 .1-.259 8.4 8.4 0 0 1 .611-1.206c.122-.2.25-.391.388-.577q.128-.174.266-.339a8.673 8.673 0 0 1 1.493-1.423l.177-.128c.2-.143.409-.281.611-.409a8.89 8.89 0 0 1 .382-.214 9.9 9.9 0 0 1 4.8-1.145 10.532 10.532 0 0 1 2.381.305 9.873 9.873 0 0 1 5.889 4.094 8.92 8.92 0 0 1 .5.855 8.358 8.358 0 0 1 .864 2.79 7.9 7.9 0 0 1-.061 2.335 8.31 8.31 0 0 1-3.23 4.179l-.305 1.148h.034l-.046.034-.305 1.145 5.7 1.416 8.068-30.847c2.177-.253 3.291-1.221 3.291-1.361a15.964 15.964 0 0 1 4.066-1.987c.72-.2 1.554-.336 2.216-.476-.781 3.88-1.526 7.632-1.459 7.852.021.085.162-.049.375-.342a1.647 1.647 0 0 0-.028.342c0 .058.083.015.189-.1l-.015.073s-4.53 8.764-4.884 9.769.085 3.575 1.48 4.426a2.984 2.984 0 0 1 .714.632l-.165.327a6.605 6.605 0 0 0-.9 2.955 4 4 0 0 1-.611 2.638s-3.923 12.122-3.834 15.611-1.4 11.145-1.4 11.145-1.612 4.933-.653 6.337 2.048 7.531 2.048 7.531a6.214 6.214 0 0 1 .7 2.595 12.83 12.83 0 0 0 .7 3.358l2.442 8.8a7.808 7.808 0 0 0 .653 4c.916 1.658.827 1.148.391 4.042s.525 5.571 2.091 6.411a.957.957 0 0 1 .452 1.325c-.4-.156-.733.672-.931 1.34l-.2.192.134.034c-.086.305-.134.562-.134.562s-4.094 3.4-4.356 4.637-3.138 1.871-3.138 1.871a50.594 50.594 0 0 0-5.495 1.786 2.076 2.076 0 0 0-1.2 1.652 4.531 4.531 0 0 0 .159 1.667c.433 1.743 6.533 1.914 9.463 1.447s8.972-2.17 8.972-2.17 6.362-.611 8.242-1.362.391-2.723.391-2.723v-.183c.046-.711.177-3.291-.275-3.969a5.767 5.767 0 0 1-.281-2.662c1.273-2.29-1.459-9.158-1.459-9.158s.522-6.716.174-7.7-1.832-9.317-1.832-9.317-.916-3.785-.565-4.423-.22-2.47-.22-2.47-1.493-2.036-1.358-2.677a3.813 3.813 0 0 0-.437-1.786s4.445-6.637 4.051-7.87a7.091 7.091 0 0 1 .177-3.233s.559-.94 1.221-2.067a207.59 207.59 0 0 1 2.161-3.547 44.557 44.557 0 0 0 2.03-5.058c.244-.684.409-1.154.409-1.154s.7 12.516 1.307 13.783 1.526 11.359 1.526 11.359a6.9 6.9 0 0 1 .437 2.809c-.085 1.572 1.4 8.422 1.4 8.422s.653 4.848.217 6.124-.086 10.684-.086 10.684-2.4 1.832-3.007 3.233.086 5.232.086 5.232l.281.131a8.071 8.071 0 0 0-.5 1.655c-.085.809-1.4 4.469-1.264 4.979s-.565 2.085-.653 2.891-1.175 2-1.264 2.427a10.421 10.421 0 0 1-.479 1.12 10.685 10.685 0 0 0-.565 1.728c-.437 1.789 4.747 2.085 4.747 2.085 7.668 1.4 9.063-4.338 9.063-4.338s.959-5.1 1.307-5.495a.611.611 0 0 0 .058-.485 6.472 6.472 0 0 0-1.105-2.4 2.86 2.86 0 0 1-.22-1.667 3.854 3.854 0 0 0 .656-.122c3.092-.891 1.832-6.041 1.832-6.041s2.091-3.4 2.091-4.719a52.265 52.265 0 0 1 .742-5.361c2.659-4.765 1.612-16.335 2.048-17.272s-.916-4.423-2.006-6-.653-5.828 0-7.061-.653-5.495-.653-5.495 1.264-8.242 1.221-9.531a27.679 27.679 0 0 1 1.09-5.061s1.133-1.957.87-2.552.87-2.137.568-2.809.259-2.766.827-4a22.666 22.666 0 0 0 .916-3.92c.031-.171.061-.342.089-.51 1.27.8 2.442 1.4 2.857 1.239.778-.305-.461-4.274-1.31-6.746.147-.11.208-.192.147-.229-.522-.342.058-1.874.058-1.874 3.08-1.813 2.033-3.175 1.047-3.969s-.348-3.053-.641-3.968.351-5.046.873-8.053a5.763 5.763 0 0 0-.015-1.972 104.7 104.7 0 0 0 1.642-2.567c1.74-2.836 5.458-16.335 5.458-16.335l-.024-.07c.363-.717.635-1.3.781-1.688 1.115-2.929-.976-11.782-1.324-13.83zm-27.076-7.773l.079-.037v.064zM685.794 274.2zm38.606 73.672a1.394 1.394 0 0 1-.552-.11z" class="cls-7" data-name="Caminho 2771" transform="translate(-501.033 -131.887)"/>
        <path id="Caminho_2772" d="M755.13 411.155c2.512.952 8.352 1.056 10.947 1.056h1.276l1.664-3.388-1.664-2.823s-1.526-.421-3.553-.788c-2.992-.537-7.085-.959-9.036.25-3.273 2.023-2.906 4.45.366 5.693z" class="cls-8" data-name="Caminho 2772" transform="translate(-564.034 -293.555)"/>
        <path id="Caminho_2773" d="M791.824 413.42h1.276l1.664-3.388-1.661-2.824s-1.526-.421-3.553-.788c1.65 1.209 5.602 3.84 2.274 7z" class="cls-9" data-name="Caminho 2773" transform="translate(-589.784 -294.764)"/>
        <path id="Caminho_2774" d="M818.641 291.189l-.733-.849s-3.782 5.983-4.179 8.242-.916 4.854-.916 4.854-.959 2.937-1.581 4.234a14.033 14.033 0 0 0-1.239 3.1 2.725 2.725 0 0 1-.962 2.6c-1.187.791-1.465 2.937-1.465 2.937s-4.292 4.176-6.551 4.274-8.749 1.242-8.523 2.372-2.708 1.8-3.9 2.088 7.632 3.663 2.485 8.016c0 0 3.272.678 3.611 1.465s3.782-.449 3.782-.449a3.578 3.578 0 0 1 3.276-1.865c2.54-.113 3.837-1.242 3.837-1.41a14.351 14.351 0 0 1 3.969-1.975c1.429-.394 3.273-.565 3.331-.962s8.468-36.69 8.468-36.69z" class="cls-10" data-name="Caminho 2774" transform="translate(-589.045 -214.119)"/>
        <path id="Caminho_2775" d="M818.641 291.189l-.733-.849s-3.782 5.983-4.179 8.242-.916 4.854-.916 4.854-.959 2.937-1.581 4.234a14.033 14.033 0 0 0-1.239 3.1 2.725 2.725 0 0 1-.962 2.6c-1.187.791-1.465 2.937-1.465 2.937s-4.292 4.176-6.551 4.274-8.749 1.242-8.523 2.372-2.708 1.8-3.9 2.088 7.632 3.663 2.485 8.016c0 0 3.272.678 3.611 1.465s3.782-.449 3.782-.449a3.578 3.578 0 0 1 3.276-1.865c2.54-.113 3.837-1.242 3.837-1.41a14.351 14.351 0 0 1 3.969-1.975c1.429-.394 3.273-.565 3.331-.962s8.468-36.69 8.468-36.69z" class="cls-11" data-name="Caminho 2775" transform="translate(-589.045 -214.119)"/>
        <path id="Caminho_2776" d="M905.539 766c7.452 1.4 8.807-4.32 8.807-4.32s.931-5.08 1.27-5.461a.611.611 0 0 0 .058-.482 6.646 6.646 0 0 0-1.075-2.393c-.464-.549-.086-2.836-.086-2.836l-8.636-2.2a12.913 12.913 0 0 0-.846 2.54c-.082.806-1.355 4.445-1.221 4.955s-.549 2.073-.635 2.879-1.142 1.99-1.221 2.412a9.981 9.981 0 0 1-.467 1.117 11.182 11.182 0 0 0-.549 1.719c-.438 1.777 4.601 2.07 4.601 2.07z" class="cls-12" data-name="Caminho 2776" transform="translate(-667.151 -532.285)"/>
        <path id="Caminho_2777" d="M905.509 782.913c7.452 1.4 8.807-4.32 8.807-4.32s.931-5.08 1.27-5.461a.611.611 0 0 0 .058-.482l-1.795 5.141s-1.481 3.089-6.985 2.625c-3.132-.266-4.674-.846-5.422-1.3a11.176 11.176 0 0 0-.549 1.719c-.421 1.782 4.616 2.078 4.616 2.078z" class="cls-9" data-name="Caminho 2777" transform="translate(-667.12 -549.195)"/>
        <path id="Caminho_2778" d="M930.54 776.551s-1.862.043-1.99-1.481z" class="cls-9" data-name="Caminho 2778" transform="translate(-686.352 -550.876)"/>
        <path id="Caminho_2779" d="M609.754 467.07l1.181.3-.26 1.2-1.1-.278z" class="cls-2" data-name="Caminho 2779" transform="translate(-423.494 -324.487)"/>
        <path id="Caminho_2780" d="M609.754 467.07l1.181.3-.26 1.2-1.1-.278z" class="cls-9" data-name="Caminho 2780" transform="translate(-423.494 -324.487)"/>
        <path id="Retângulo_444" d="M0 0h1.478v1.273H0z" class="cls-4" data-name="Retângulo 444" transform="rotate(-75.72 167.181 -98.042)"/>
        <path id="Retângulo_445" d="M0 0h1.478v4.222H0z" class="cls-4" data-name="Retângulo 445" transform="rotate(-75.72 163.505 -95.185)"/>
        <path id="Retângulo_446" d="M0 0h1.478v1.493H0z" class="cls-4" data-name="Retângulo 446" transform="rotate(-75.72 166.222 -97.293)"/>
        <path id="Caminho_2781" d="M836.781 314.094c-.1.046-.192.095-.287.134l.238.061-.366 1.432-1.81-.461a2.137 2.137 0 0 1 .186-2.012 2.525 2.525 0 0 1 1.526-1.117 7.941 7.941 0 0 0 1.133-.421z" class="cls-2" data-name="Caminho 2781" transform="translate(-620.934 -228.966)"/>
        <path id="Caminho_2782" d="M856.38 332.635l.552.143a.7.7 0 0 0 .852-.507l.617-2.467-1.221-.305z" class="cls-4" data-name="Caminho 2782" transform="translate(-636.213 -241.325)"/>
        <path id="Caminho_2783" d="M847.49 288.633a5.691 5.691 0 0 1-3.3 3.694l2.167-8.517a5.637 5.637 0 0 1 1.133 4.823z" class="cls-4" data-name="Caminho 2783" transform="translate(-627.745 -209.583)"/>
        <path id="Caminho_2784" d="M809.731 329.209a.7.7 0 0 1-.5-.849l.629-2.47-4.091-1.041-12.476 49.008a8.139 8.139 0 0 1-2.663 10.443l-.29 1.142 5.535 1.419 14.625-57.444z" class="cls-4" data-name="Caminho 2784" transform="translate(-590.333 -238.095)"/>
        <path id="Caminho_2785" d="M852.161 330.73a.7.7 0 0 0 .5.849l.769.2.8-3.144-1.444-.369z" class="cls-4" data-name="Caminho 2785" transform="translate(-633.267 -240.464)"/>
        <path id="Caminho_2786" d="M719.777 285.262a2.549 2.549 0 0 1 1.526-1.117 8.133 8.133 0 0 0 1.129-.421l2.171-8.517a9.7 9.7 0 0 0-5.4-3.443c-4.478-1.142-8.819.711-9.689 4.136a5.655 5.655 0 0 0 1.062 4.732 8.241 8.241 0 0 0 1.383 1.474l.021.067a2.607 2.607 0 0 1-.263 3.1l-27.37-6.973-6.176 24.263a8.376 8.376 0 0 1 7.25-1.63c4.613 1.175 7.326 6.151 6.063 11.112s-6.014 8.035-10.626 6.875a8.374 8.374 0 0 1-5.608-4.906l-6.34 24.9 24.245 6.17a8.358 8.358 0 0 1-1.551-7.168c1.175-4.61 6.148-7.326 11.112-6.063a9.546 9.546 0 0 1 6.212 4.893l12.472-49.011-1.792-.461a2.137 2.137 0 0 1 .165-2.012z" class="cls-2" data-name="Caminho 2786" transform="translate(-505.972 -200.979)"/>
        <path id="Caminho_2787" d="M841.525 319.715l.052-.2c-.095.046-.189.095-.287.137z" class="cls-2" data-name="Caminho 2787" transform="translate(-625.73 -234.392)"/>
        <g id="Grupo_910" class="cls-3" data-name="Grupo 910" transform="translate(162.938 70.447)">
            <path id="Caminho_2788" d="M727.3 287.713l-1.444-.369-4.088-1.041.052-.2.61-2.384a7.94 7.94 0 0 1-1.133.421 2.525 2.525 0 0 0-1.526 1.117 2.954 2.954 0 0 0-.226.482 2.934 2.934 0 0 1 .223-.482 2.549 2.549 0 0 1 1.526-1.117 8.133 8.133 0 0 0 1.129-.421l2.171-8.517a9.7 9.7 0 0 0-5.4-3.443c-4.478-1.142-8.819.711-9.689 4.136a5.655 5.655 0 0 0 1.062 4.732 8.238 8.238 0 0 0 1.383 1.474l.021.067a2.607 2.607 0 0 1-.263 3.1l-27.367-6.968-6.176 24.263a8.376 8.376 0 0 1 7.256-1.63c4.613 1.175 7.326 6.151 6.063 11.112s-6.014 8.035-10.626 6.875a8.374 8.374 0 0 1-5.608-4.906l-6.34 24.9 24.245 6.17a8.358 8.358 0 0 1-1.551-7.168c1.175-4.61 6.148-7.326 11.112-6.063a9.546 9.546 0 0 1 6.212 4.893 8.139 8.139 0 0 1-2.659 10.446l-.29 1.142 5.535 1.42 14.625-57.454.553.143a.7.7 0 0 0 .852-.507l.617-2.479.363-1.432zm-5.629-1.526c-.046.021-.092.046-.137.064zm-2.076 1.1l1.81.461z" data-name="Caminho 2788" transform="translate(-668.91 -271.426)"/>
            <path id="Caminho_2789" d="M847.49 288.633a5.7 5.7 0 0 0-1.133-4.823l-2.167 8.517a5.651 5.651 0 0 0 3.3-3.694z" data-name="Caminho 2789" transform="translate(-790.682 -280.03)"/>
        </g>
        <path id="Retângulo_447" d="M0 0h1.478v1.273H0z" class="cls-4" data-name="Retângulo 447" transform="rotate(-75.72 166.572 -98.825)"/>
        <path id="Retângulo_448" d="M0 0h1.478v4.222H0z" class="cls-4" data-name="Retângulo 448" transform="rotate(-75.72 162.896 -95.968)"/>
        <path id="Retângulo_449" d="M0 0h1.478v1.493H0z" class="cls-4" data-name="Retângulo 449" transform="rotate(-75.72 165.609 -98.08)"/>
        <path id="Caminho_2790" d="M837.763 310.235l-.287.137.235.058-.363 1.441-1.81-.461a2.119 2.119 0 0 1 .183-2.012 2.54 2.54 0 0 1 1.526-1.117 7.9 7.9 0 0 0 1.13-.421z" class="cls-2" data-name="Caminho 2790" transform="translate(-621.614 -226.291)"/>
        <path id="Caminho_2791" d="M857.36 328.758l.556.14a.7.7 0 0 0 .861-.507l.629-2.467-1.221-.305z" class="cls-4" data-name="Caminho 2791" transform="translate(-636.894 -238.63)"/>
        <path id="Caminho_2792" d="M848.49 284.756a5.677 5.677 0 0 1-3.3 3.691l2.17-8.517a5.669 5.669 0 0 1 1.13 4.826z" class="cls-4" data-name="Caminho 2792" transform="translate(-628.439 -206.887)"/>
        <path id="Caminho_2793" d="M810.728 325.353a.7.7 0 0 1-.5-.852l.61-2.467-4.076-1.034-12.473 49a8.126 8.126 0 0 1-2.659 10.443l-.29 1.142 5.538 1.41 14.622-57.446z" class="cls-4" data-name="Caminho 2793" transform="translate(-591.028 -235.42)"/>
        <path id="Caminho_2794" d="M853.15 326.857a.7.7 0 0 0 .5.852l.766.2.806-3.147-1.447-.366z" class="cls-4" data-name="Caminho 2794" transform="translate(-633.954 -237.775)"/>
        <path id="Caminho_2795" d="M720.767 281.385a2.54 2.54 0 0 1 1.526-1.117 7.9 7.9 0 0 0 1.13-.421l2.167-8.517a9.7 9.7 0 0 0-5.4-3.443c-4.481-1.139-8.819.711-9.692 4.139a5.652 5.652 0 0 0 1.065 4.729 8.261 8.261 0 0 0 1.383 1.478l.021.064a2.613 2.613 0 0 1-.263 3.1l-27.374-6.966-6.185 24.26a8.371 8.371 0 0 1 7.265-1.627c4.61 1.172 7.326 6.148 6.063 11.112s-6.017 8.032-10.642 6.859a8.383 8.383 0 0 1-5.6-4.909l-6.337 24.9 24.241 6.173a8.358 8.358 0 0 1-1.548-7.168c1.172-4.613 6.148-7.326 11.112-6.063a9.524 9.524 0 0 1 6.215 4.909l12.473-49-1.81-.461a2.137 2.137 0 0 1 .183-2.021z" class="cls-2" data-name="Caminho 2795" transform="translate(-506.66 -198.286)"/>
        <path id="Caminho_2796" d="M842.515 315.838l.049-.2c-.095.046-.189.095-.284.137z" class="cls-2" data-name="Caminho 2796" transform="translate(-626.418 -231.696)"/>
        <path id="Caminho_2797" d="M828.316 500.286c.916 1.4 1.99 7.494 1.99 7.494a6.3 6.3 0 0 1 .678 2.583 13.287 13.287 0 0 0 .678 3.358l2.372 8.764a7.877 7.877 0 0 0 .635 3.969c.891 1.639.8 1.142.382 4.02s.507 5.547 2.03 6.411-.678 2.836-.678 2.836 9.738 2.625 11.771 1.017-1.059-9.57-1.059-9.57.51-6.688.171-7.662-1.78-9.271-1.78-9.271-.888-3.77-.55-4.405-.211-2.442-.211-2.442-1.441-2.033-1.313-2.668a3.9 3.9 0 0 0-.424-1.777s4.31-6.624 3.929-7.867a7.233 7.233 0 0 1 .168-3.218l1.2-2.058c.8-1.374 1.774-3.019 2.1-3.532a44.99 44.99 0 0 0 1.975-5.034l.4-1.148s.678 12.449 1.27 13.719 1.481 11.295 1.481 11.295a7.022 7.022 0 0 1 .424 2.793c-.086 1.566 1.355 8.383 1.355 8.383s.635 4.826.211 6.105-.086 10.629-.086 10.629a12.1 12.1 0 0 0-2.921 3.218c-.592 1.386.085 5.19.085 5.19s6.774 3.389 9.769 2.5 1.777-6.014 1.777-6.014 2.033-3.385 2.033-4.7a51.564 51.564 0 0 1 .739-5.321c2.583-4.741 1.566-16.256 1.99-17.187s-.891-4.405-1.948-5.971-.635-5.8 0-7.021-.653-5.467-.653-5.467 1.221-8.215 1.184-9.485a28.812 28.812 0 0 1 1.059-5.037s1.1-1.948.846-2.543.846-2.116.549-2.793.256-2.747.806-3.969a25.469 25.469 0 0 0 .916-3.9c.259-1.462.452-2.747.452-2.747l-6.988-5.632-17.443-4.579-6.56-2.116-6.4 10.074a25.638 25.638 0 0 0-1.242 2.268 6.7 6.7 0 0 0-.873 2.94 4.063 4.063 0 0 1-.592 2.625s-3.813 12.064-3.727 15.538-1.355 11.09-1.355 11.09-1.562 4.914-.622 6.315z" class="cls-13" data-name="Caminho 2797" transform="translate(-616.508 -324.651)"/>
        <path id="Caminho_2798" d="M912.094 246.676c.269-.11 18.686-7.717 16.149-9.228-1.5-.9-3.358-4.7-4.628-7.678-.885-2.079-1.487-3.755-1.487-3.755s-14.781-2.625-9.491 6.435a16.79 16.79 0 0 1 1.865 4.463 10.026 10.026 0 0 1-2.408 9.763z" class="cls-8" data-name="Caminho 2798" transform="translate(-674.503 -169.186)"/>
        <path id="Caminho_2799" d="M912.637 232.451a16.792 16.792 0 0 1 1.865 4.463 10.321 10.321 0 0 0 8.728-6.133 9.836 9.836 0 0 0 .385-1.01c-.885-2.079-1.487-3.755-1.487-3.755s-14.781-2.626-9.491 6.435z" class="cls-9" data-name="Caminho 2799" transform="translate(-674.503 -169.186)"/>
        <path id="Caminho_2800" d="M885.14 204.135a10.327 10.327 0 1 0 .4-2.86 10.327 10.327 0 0 0-.4 2.86z" class="cls-8" data-name="Caminho 2800" transform="translate(-656.194 -147.052)"/>
        <path id="Caminho_2801" d="M852.5 461.786a6.321 6.321 0 0 1 1.5 2.854s5.083 3.471 4.744 1.27 2.625-11.094 2.625-11.094l-.339 12.11s16.256-.763 17.443-1.948 8.129-3.456 8.129-3.456 2.137 1.706 4.078 3c.259-1.462.452-2.747.452-2.747l-6.988-5.632-17.444-4.578-6.56-2.116-6.4 10.074a25.608 25.608 0 0 0-1.242 2.262z" class="cls-9" data-name="Caminho 2801" transform="translate(-633.518 -324.658)"/>
        <path id="Caminho_2802" d="M847.191 322.881c1.355.846 1.862 3.132 1.862 3.132s5.08 3.471 4.741 1.27 2.625-11.094 2.625-11.094l-.339 12.11s16.259-.757 17.44-1.948 8.129-3.471 8.129-3.471 6.014 4.826 7.113 4.4-1.948-8.636-1.948-8.636l-3.129-48.1s.846-14.311-.424-14.821a1.831 1.831 0 0 1-.534-.333c-.836-.751-1.087-2.277-1.16-3.559-.082-1.526-2.115-.763-2.115-.763l1.184 1.526-10.492 6.38-.092.055a11.6 11.6 0 0 0-1.261-.571 4.566 4.566 0 0 0-2.973-.36 2.876 2.876 0 0 0-1.111 1 12.582 12.582 0 0 0-1.428 2.902l-3.8 6.432s-1.948 8.548-1.948 8.893-.592 8.129-1.27 8.975-1.355 5.08-1.1 6.35-.424 6.014-.424 6.014c-2.793 2.286-4.231 10.074-4.231 10.074s-4.414 8.731-4.762 9.738.092 3.572 1.447 4.405z" class="cls-14" data-name="Caminho 2802" transform="translate(-628.743 -186.709)"/>
        <path id="Caminho_2803" d="M925.94 260.072a21.452 21.452 0 0 0 4 3.663l8.581-7.25c-.836-.751-1.087-2.277-1.16-3.562-.082-1.526-2.115-.76-2.115-.76l.247.305a1.368 1.368 0 0 1-.369 2.006z" class="cls-9" data-name="Caminho 2803" transform="translate(-684.539 -187.463)"/>
        <path id="Caminho_2804" d="M925.94 258.965a21.451 21.451 0 0 0 4 3.663l8.581-7.25c-.836-.751-1.087-2.277-1.16-3.559-.082-1.526-2.115-.763-2.115-.763l.247.305a1.365 1.365 0 0 1-.369 2z" class="cls-14" data-name="Caminho 2804" transform="translate(-684.539 -186.695)"/>
        <path id="Caminho_2805" d="M912.94 278.168c1.108 1.325 2.68 2.83 2.607 2.076s.937-2.418 1.581-3.163a4.686 4.686 0 0 0-3.077.086 2.851 2.851 0 0 0-1.111 1.001z" class="cls-9" data-name="Caminho 2805" transform="translate(-675.507 -204.756)"/>
        <path id="Caminho_2806" d="M912.39 276.883c1.108 1.328 2.677 2.83 2.6 2.079s.833-1.975 1.478-2.72a4.542 4.542 0 0 0-2.973-.357 2.839 2.839 0 0 0-1.105.998z" class="cls-14" data-name="Caminho 2806" transform="translate(-675.125 -203.981)"/>
        <circle id="Elipse_246" cx=".678" cy=".678" r=".678" class="cls-15" data-name="Elipse 246" transform="translate(239.362 78.593)"/>
        <circle id="Elipse_247" cx=".678" cy=".678" r=".678" class="cls-15" data-name="Elipse 247" transform="translate(234.224 96.881)"/>
        <circle id="Elipse_248" cx=".678" cy=".678" r=".678" class="cls-15" data-name="Elipse 248" transform="translate(228.412 115.399)"/>
        <circle id="Elipse_249" cx=".678" cy=".678" r=".678" class="cls-15" data-name="Elipse 249" transform="translate(228.241 135.55)"/>
        <circle id="Elipse_250" cx=".678" cy=".678" r=".678" class="cls-15" data-name="Elipse 250" transform="translate(236.37 87.229)"/>
        <circle id="Elipse_251" cx=".678" cy=".678" r=".678" class="cls-15" data-name="Elipse 251" transform="translate(231.797 106.027)"/>
        <circle id="Elipse_252" cx=".678" cy=".678" r=".678" class="cls-15" data-name="Elipse 252" transform="translate(227.337 124.487)"/>
        <circle id="Elipse_253" cx=".678" cy=".678" r=".678" class="cls-15" data-name="Elipse 253" transform="translate(228.354 137.809)"/>
        <path id="Caminho_2807" d="M932.765 266.333s-.113-1.017 1.352.736a17.676 17.676 0 0 0 4.234 3.272s6.267 4.405 6.606 6.435 2.369 10.84 1.3 13.774-9.265 16.994-9.265 16.994a7.638 7.638 0 0 1 1.639 5.535c-.5 2.992-1.13 7.113-.849 8.016s-.339 3.16.611 3.95 1.975 2.137-1.017 3.95c0 0-.565 1.526-.058 1.865s-7.507 3.837-10.684 1.975-8.853-16.765-8.975-20.1 1.749-14.348 2.766-16.936 4.066-12.7 5.364-14.958 6.976-14.508 6.976-14.508z" class="cls-9" data-name="Caminho 2807" transform="translate(-678.78 -197.237)"/>
        <path id="Caminho_2808" d="M933.886 266.333s-.113-1.017 1.355.736a17.739 17.739 0 0 0 4.234 3.272s6.267 4.405 6.606 6.435 2.369 10.84 1.3 13.774-9.259 16.994-9.259 16.994a7.638 7.638 0 0 1 1.639 5.535c-.5 2.992-1.13 7.113-.849 8.016s-.339 3.16.611 3.95 1.975 2.137-1.017 3.95c0 0-.565 1.526-.058 1.865s-7.507 3.837-10.684 1.975-8.853-16.765-8.975-20.1 1.749-14.348 2.766-16.936 4.066-12.7 5.364-14.958 6.967-14.508 6.967-14.508z" class="cls-10" data-name="Caminho 2808" transform="translate(-679.565 -197.237)"/>
        <path id="Caminho_2809" d="M964.986 298.48s-4.854 5.364-4.686 8.92c0 0-.055-5.76 4.686-8.92z" class="cls-9" data-name="Caminho 2809" transform="translate(-708.407 -219.775)"/>
        <path id="Caminho_2810" d="M940.932 327.33c0 .168-3.276 12.36-3.1 13.887s-.962 6.038-.962 6.038l-1.526-.394s1.184-6.267 1.41-8.581 4.178-10.95 4.178-10.95z" class="cls-9" data-name="Caminho 2810" transform="translate(-691.069 -239.817)"/>
        <path id="Caminho_2811" d="M949.4 441.24c.113.168 7.736 8.8 5.589 9.427s-5.589-9.427-5.589-9.427z" class="cls-9" data-name="Caminho 2811" transform="translate(-700.837 -318.954)"/>
        <path id="Caminho_2812" d="M969.93 434c.168.113 3.053 6.209 3.385 4.579s-2.482 4.46-2.934-.055z" class="cls-9" data-name="Caminho 2812" transform="translate(-715.1 -313.924)"/>
        <path id="Caminho_2813" d="M879.615 272.489s-3.147-1.92-7.1 2.992c0 0-2.879 1.636-3.724 2.033s-1.807 10.9-1.807 10.9-1.862 4.515-1.355 7.113-1.465 11.515-1.465 11.515-3.279 16.027-3.169 16.485 3.33-5.025 3.276-7.736 2.708-11.176 3.1-11.686 3.1-15.013 3.1-15.013 2.2-6.154 3.611-8.187 3.163-5.87 3.9-6.548a7.46 7.46 0 0 1 1.749-1.13z" class="cls-9" data-name="Caminho 2813" transform="translate(-639.417 -201.461)"/>
        <path id="Caminho_2814" d="M878.891 272.489s-3.529-1.92-7.479 2.992c0 0-2.882 1.636-3.727 2.033s-1.807 10.9-1.807 10.9-1.862 4.515-1.355 7.113-1.465 11.515-1.465 11.515-3.276 16.033-3.163 16.485 3.33-5.025 3.276-7.736 2.708-11.176 3.1-11.686 3.114-15.013 3.114-15.013 2.2-6.154 3.611-8.187 3.163-5.87 3.9-6.548a6.938 6.938 0 0 1 2.088-1.13z" class="cls-10" data-name="Caminho 2814" transform="translate(-638.652 -201.461)"/>
        <path id="Caminho_2815" d="M836.118 382.456s-6.716-4.4-9.964-2.228-8.548 5.251-3.331 7.479 12.446 1.8 12.446 1.8z" class="cls-8" data-name="Caminho 2815" transform="translate(-611.376 -276.148)"/>
        <path id="Caminho_2816" d="M885.826 518.216c1 2.137 1.832 12.937 2.387 16.359.8-1.374 1.774-3.019 2.1-3.532a44.978 44.978 0 0 0 1.975-5.034c-.638-1.551-2.4-6-2.4-7.632 0-1.99-3.218-4.487-3.218-4.487a3.749 3.749 0 0 0-.844 4.326z" class="cls-9" data-name="Caminho 2816" transform="translate(-656.412 -369.426)"/>
        <path id="Caminho_2817" d="M934.812 632.719s-7.452-3.175-9.653-.916 9.653.916 9.653.916z" class="cls-9" data-name="Caminho 2817" transform="translate(-683.807 -450.781)"/>
        <path id="Caminho_2818" d="M943.67 640.81s7.537 4.234 4.955 4.942-4.955-4.942-4.955-4.942z" class="cls-9" data-name="Caminho 2818" transform="translate(-696.856 -457.602)"/>
        <path id="Caminho_2819" d="M869.89 628.75s3.218.211 1.99.846-1.99-.846-1.99-.846z" class="cls-9" data-name="Caminho 2819" transform="translate(-645.599 -449.223)"/>
        <path id="Caminho_2820" d="M856.71 631.94c.043.211 9.357 3.218 7.537 4.579s-7.537-4.579-7.537-4.579z" class="cls-9" data-name="Caminho 2820" transform="translate(-636.443 -451.439)"/>
        <path id="Caminho_2821" d="M938.224 711.914c-1.4-.214-9.186-3.813-6.139-1.221a6.039 6.039 0 0 0 6.139 1.221z" class="cls-9" data-name="Caminho 2821" transform="translate(-688.321 -505.502)"/>
        <path id="Caminho_2822" d="M932.251 726.11a3.027 3.027 0 0 1-3.26 2.286c-2.583-.338 3.26-2.286 3.26-2.286z" class="cls-9" data-name="Caminho 2822" transform="translate(-686.2 -516.862)"/>
        <path id="Caminho_2823" d="M934.274 739.5c-.467-.125-6.014-2.665-6.139-1.481s5.29 3.26 5.715 2.625a2.271 2.271 0 0 0 .424-1.145z" class="cls-9" data-name="Caminho 2823" transform="translate(-686.062 -524.915)"/>
        <path id="Caminho_2824" d="M870.557 731.3c-.678-.043-7.021-2.076-8.3-.256z" class="cls-9" data-name="Caminho 2824" transform="translate(-640.298 -519.763)"/>
        <path id="Caminho_2825" d="M865.061 736.084a2.253 2.253 0 0 0-2.2-.467c-1.1.507 2.2.467 2.2.467z" class="cls-9" data-name="Caminho 2825" transform="translate(-640.559 -523.366)"/>
        <path id="Caminho_2826" d="M913.351 771.88a1.9 1.9 0 0 1-1.441 1.481z" class="cls-9" data-name="Caminho 2826" transform="translate(-674.792 -548.66)"/>
        <path id="Caminho_2827" d="M810.382 753.743c.424 1.737 6.353 1.9 9.189 1.441s8.722-2.161 8.722-2.161 6.182-.592 8-1.352.382-2.711.382-2.711v-.183c.043-.708.171-3.276-.266-3.969-.507-.806-.211-3.431-.211-3.431s-8.764 1.694-8.935.891a4.57 4.57 0 0 0-2.158-2.2c-.632-.253-1.1 2.116-1.1 2.116s-3.969 3.388-4.234 4.616-3.053 1.862-3.053 1.862a48.034 48.034 0 0 0-5.336 1.777 2.048 2.048 0 0 0-1.166 1.645 4.579 4.579 0 0 0 .168 1.661z" class="cls-12" data-name="Caminho 2827" transform="translate(-604.13 -526.545)"/>
        <path id="Caminho_2828" d="M810.4 773.607c.424 1.737 6.353 1.9 9.189 1.441s8.722-2.161 8.722-2.161 6.182-.592 8-1.352.382-2.711.382-2.711v-.183l-8.853 1.963s-4.362 1.862-7.156 1.862c-2.442 0-7.906 1-10.44-.516a4.578 4.578 0 0 0 .156 1.658z" class="cls-9" data-name="Caminho 2828" transform="translate(-604.152 -546.409)"/>
        <path id="Caminho_2829" d="M850.05 763s.424 2.793 2.119 3.724z" class="cls-9" data-name="Caminho 2829" transform="translate(-631.816 -542.491)"/>
        <path id="Caminho_2830" d="M886.46 201.266a3.027 3.027 0 0 0 .5.211 3.119 3.119 0 0 0 2.274-.751c.705-.427 1.679-.745 2.289-.189.8.723.22 2.268 1.041 2.967.519.443 1.343.29 1.92.653a2.755 2.755 0 0 1 .9 1.847c.146.687.44 1.471 1.111 1.673s1.3-.241 1.96-.217c.137 0 .305.021.391-.076a.413.413 0 0 0 .064-.305 6.524 6.524 0 0 1 .217-2.442 2.354 2.354 0 0 1 1.722-1.612c1.188-.183 2.186.858 2.885 1.832a29.984 29.984 0 0 1 2 3.224 2.058 2.058 0 0 1 .1.223 10.33 10.33 0 1 0-19.378-7.021z" class="cls-9" data-name="Caminho 2830" transform="translate(-657.111 -147.044)"/>
        <path id="Caminho_2831" d="M891.085 191.279c-.7-.983-1.7-2.021-2.888-1.832a2.341 2.341 0 0 0-1.719 1.609 6.467 6.467 0 0 0-.214 2.442.427.427 0 0 1-.067.305c-.095.1-.253.085-.391.079-.662-.024-1.322.406-1.96.217s-.965-.986-1.111-1.673a2.716 2.716 0 0 0-.9-1.847c-.592-.375-1.4-.211-1.92-.656-.821-.7-.241-2.244-1.041-2.967-.611-.553-1.584-.235-2.29.192a3.119 3.119 0 0 1-2.277.748c-.269-.073-.51-.226-.772-.327-1.255-.479-2.882.333-3.914-.528a3.025 3.025 0 0 1-.781-1.352 8.608 8.608 0 0 1-.571-2.158 2.885 2.885 0 0 1 .574-2.1c.672-.791 1.807-.989 2.665-1.572a6.7 6.7 0 0 0 1.7-2.009 7.5 7.5 0 0 1 1.655-2.054 2.437 2.437 0 0 1 2.482-.391 2.748 2.748 0 0 0 .815.388 1.685 1.685 0 0 0 .9-.247c2.937-1.383 6.356-1.139 9.576-.727a12.334 12.334 0 0 1 3.77.916 4.53 4.53 0 0 1 2.543 2.784c.263 1 .061 2.079.379 3.053.214.665.653 1.221.916 1.89.687 1.786-.134 3.746-.482 5.626-.379 2.054-.189 4.274-1.062 6.221-.171.382-.363 1.05-.794.8-.305-.186-.629-1.27-.812-1.609a29.675 29.675 0 0 0-2.009-3.221z" class="cls-16" data-name="Caminho 2831" transform="translate(-644.46 -133.637)"/>
        <path id="Caminho_2832" d="M905.9 315.682l1.526 4.347s-3.614 13.432-5.309 16.256-4.176 6.435-4.176 6.435a15.476 15.476 0 0 1-9.033 1.129c-4.857-.962-19.031-3.5-19.031-3.5a1.884 1.884 0 0 1-1.807-.678c-.62-.9-3.846-1.362-3.846-1.362s-3.724-5.419.849-7.678c0 0 .565 1.242 2.992.4s3.159.675 3.159.675a25.822 25.822 0 0 0 6.154.51c2.186-.281 7.677-.4 8.242-.849a.727.727 0 0 1 1.017.058 6.127 6.127 0 0 0 1.8-1.017c.452-.51 1.075.565 1.075.565s.791-.452.565-1.017.733-2.708.733-2.708a5.518 5.518 0 0 0 .171-2.543c-.281-1.129 1.41-5.19 1.41-5.19a7.186 7.186 0 0 0-.226-2.033c-.284-1.014 2.137-3.053 2.137-3.053s2.369-11.518 7.394-7.736a9.932 9.932 0 0 1 4.204 8.989z" class="cls-9" data-name="Caminho 2832" transform="translate(-640.671 -224.952)"/>
        <path id="Caminho_2833" d="M907 315.682l1.526 4.347s-3.614 13.432-5.309 16.256-4.173 6.435-4.173 6.435a15.476 15.476 0 0 1-9.033 1.129c-4.857-.962-19.024-3.5-19.024-3.5a1.879 1.879 0 0 1-1.8-.678c-.62-.9-3.843-1.362-3.843-1.362s-3.724-5.419.849-7.678c0 0 .565 1.242 2.992.4s3.16.675 3.16.675a25.822 25.822 0 0 0 6.154.51c2.186-.281 7.678-.4 8.242-.849a.727.727 0 0 1 1.017.058 6.125 6.125 0 0 0 1.8-1.017c.452-.51 1.075.565 1.075.565s.791-.452.565-1.017.733-2.708.733-2.708a5.491 5.491 0 0 0 .168-2.543c-.284-1.129 1.413-5.19 1.413-5.19a7.181 7.181 0 0 0-.226-2.033c-.284-1.014 2.137-3.053 2.137-3.053s2.369-11.518 7.394-7.736a9.9 9.9 0 0 1 4.183 8.989z" class="cls-10" data-name="Caminho 2833" transform="translate(-641.442 -224.952)"/>
        <path id="Caminho_2834" d="M883.328 397.41c.055.4 1.3 1.975.846 2.259s-1.184.113-.507 1.017.611 2.256.168 2.088-1.184-2.2-1.184-2.992a8.885 8.885 0 0 1 .677-2.372z" class="cls-9" data-name="Caminho 2834" transform="translate(-654.464 -288.504)"/>
        <path id="Caminho_2835" d="M939.79 394.45s.339 3.953 3.117 5.083-3.117-5.083-3.117-5.083z" class="cls-9" data-name="Caminho 2835" transform="translate(-694.161 -286.448)"/>
        <path id="Caminho_2836" d="M958.65 390c.168.058 3.95 2.091 2.259 3.276S958.65 390 958.65 390z" class="cls-9" data-name="Caminho 2836" transform="translate(-707.263 -283.356)"/>
        <path id="Caminho_2837" d="M959.39 380.77s5.531 1.13 3.663 2.088-3.663-2.088-3.663-2.088z" class="cls-9" data-name="Caminho 2837" transform="translate(-707.778 -276.944)"/>
        <g id="Grupo_911" class="cls-3" data-name="Grupo 911" transform="translate(223.799 49.073)">
            <path id="Caminho_2838" d="M927.44 212.839a2.361 2.361 0 0 1 1.719-1.609c1.191-.183 2.189.858 2.888 1.832a29.994 29.994 0 0 1 2 3.224c.183.339.495 1.42.812 1.606.43.253.611-.415.794-.8.873-1.942.684-4.167 1.062-6.221a36.044 36.044 0 0 0 .727-3.633 17.635 17.635 0 0 1-.727 4.533c-.379 2.054-.189 4.274-1.062 6.224-.171.382-.363 1.05-.794.8-.305-.186-.629-1.267-.812-1.606a30 30 0 0 0-2-3.224c-.7-.98-1.7-2.021-2.888-1.832a2.341 2.341 0 0 0-1.719 1.609 4.476 4.476 0 0 0-.226 1.27 5.909 5.909 0 0 1 .226-2.173z" data-name="Caminho 2838" transform="translate(-909.209 -205.46)"/>
            <path id="Caminho_2839" d="M868.863 203.422a3.018 3.018 0 0 0 .781 1.355c1.032.861 2.659.049 3.914.528.262.1.5.253.772.327a3.132 3.132 0 0 0 2.277-.751c.7-.427 1.682-.742 2.289-.189.8.723.22 2.268 1.041 2.967.519.443 1.343.305 1.92.656a2.718 2.718 0 0 1 .9 1.832c.146.675.437 1.471 1.111 1.673s1.3-.238 1.96-.214c.137 0 .305.021.391-.079a.287.287 0 0 0 .046-.085c0 .229 0 .455.021.681a.431.431 0 0 1-.067.305c-.095.1-.253.082-.391.076-.662-.021-1.322.406-1.96.217s-.965-.983-1.111-1.673a2.642 2.642 0 0 0-.9-1.832c-.592-.36-1.4-.214-1.92-.656-.821-.7-.241-2.247-1.041-2.967-.611-.556-1.584-.238-2.289.189a3.136 3.136 0 0 1-2.277.751c-.269-.073-.51-.229-.772-.327-1.255-.479-2.882.333-3.914-.528a3.035 3.035 0 0 1-.781-1.355 8.612 8.612 0 0 1-.571-2.155 3.485 3.485 0 0 1 .018-.757 9.079 9.079 0 0 0 .553 2.011z" data-name="Caminho 2839" transform="translate(-868.279 -201.41)"/>
        </g>
        <path id="Caminho_2840" d="M208.743 767.2s-12.907-.778-11.387 8.264a2.2 2.2 0 0 0 1.148 2.326s.021-.672 1.325-.446a6.075 6.075 0 0 0 1.4.07 2.918 2.918 0 0 0 1.713-.708s3.63-1.5 5.04-7.43c0 0 1.044-1.291 1-1.624l-2.177.916a3.907 3.907 0 0 1 .159 2.879s-.07-2.821-.488-2.747c-.085 0-1.133.543-1.133.543s1.282 2.747.305 4.729c0 0 .366-3.373-.714-4.53l-1.526.894s1.5 2.827.482 5.135c0 0 .259-3.538-.806-4.915l-1.384 1.084s1.407 2.784.549 4.7c0 0-.113-4.118-.849-4.429a7.992 7.992 0 0 0-1.4 1.526s.962 2.024.363 3.092c0 0-.366-2.747-.665-2.747a8.914 8.914 0 0 0-1.337 3.053 6.61 6.61 0 0 1 1.044-3.239 3.636 3.636 0 0 0-1.853.962s.186-1.285 2.152-1.4a8.458 8.458 0 0 1 1.267-1.462 7.949 7.949 0 0 0-3.138.36s1.044-1.221 3.5-.659l1.371-1.12a11.356 11.356 0 0 0-3.663.037s1.255-1.072 4.033-.29l1.493-.894a13.594 13.594 0 0 0-3.5-.305 5.371 5.371 0 0 1 3.938.064l1.065-.479s-1.606-.305-2.076-.366-.5-.18-.5-.18a5.575 5.575 0 0 1 3.019.336 13.918 13.918 0 0 0 2.23-1z" class="cls-2" data-name="Caminho 2840" transform="translate(-178.283 -545.398)"/>
        <ellipse id="Elipse_254" cx="9.134" cy="1.545" class="cls-1" data-name="Elipse 254" rx="9.134" ry="1.545" transform="translate(12.437 231.636)"/>
        <path id="Caminho_2841" d="M301.247 689.148s-7.278-.44-6.411 4.661a1.245 1.245 0 0 0 .647 1.31s0-.378.748-.25a3.583 3.583 0 0 0 .791.04 1.67 1.67 0 0 0 .965-.4s2.039-.833 2.845-4.191c0 0 .589-.73.565-.916l-1.221.522a2.213 2.213 0 0 1 .089 1.624s-.04-1.59-.275-1.554c-.049 0-.638.305-.638.305a3.622 3.622 0 0 1 .177 2.665s.2-1.9-.4-2.555l-.87.519a3.821 3.821 0 0 1 .272 2.894s.147-2-.455-2.772l-.781.611a3.73 3.73 0 0 1 .305 2.65s-.064-2.323-.479-2.5a4.883 4.883 0 0 0-.791.852s.543 1.142.208 1.743c0 0-.208-1.548-.375-1.554a5.1 5.1 0 0 0-.754 1.728 3.725 3.725 0 0 1 .586-1.832 2.07 2.07 0 0 0-1.044.543s.107-.727 1.221-.788a4.622 4.622 0 0 1 .714-.824 4.472 4.472 0 0 0-1.771.2 1.988 1.988 0 0 1 1.972-.372l.772-.632a6.363 6.363 0 0 0-2.064.021 2.492 2.492 0 0 1 2.274-.165l.84-.5a7.542 7.542 0 0 0-1.972-.171 3.016 3.016 0 0 1 2.219.034l.611-.269s-.916-.18-1.169-.208-.281-.1-.281-.1a3.15 3.15 0 0 1 1.7.189 7.087 7.087 0 0 0 1.23-.558z" class="cls-2" data-name="Caminho 2841" transform="translate(-246.042 -491.177)"/>
        <ellipse id="Elipse_255" cx="5.15" cy=".87" class="cls-1" data-name="Elipse 255" rx="5.15" ry=".87" transform="translate(45.055 203.515)"/>
        <path id="Caminho_2842" d="M157.541 703.644s-8.786-.531-7.739 5.626a1.5 1.5 0 0 0 .781 1.581s0-.458.9-.305a4.011 4.011 0 0 0 .955.046 1.972 1.972 0 0 0 1.166-.482s2.47-1.02 3.431-5.055c0 0 .708-.879.681-1.105l-1.5.635a2.666 2.666 0 0 1 .107 1.957s-.049-1.917-.333-1.871c-.058 0-.769.369-.769.369a4.39 4.39 0 0 1 .214 3.218s.247-2.3-.488-3.083l-1.041.611a4.608 4.608 0 0 1 .327 3.492s.177-2.409-.546-3.358l-.946.739s.956 1.9.372 3.2c0 0-.076-2.805-.577-3.016a5.854 5.854 0 0 0-.955 1.029s.656 1.377.25 2.1c0 0-.25-1.868-.455-1.877a6.315 6.315 0 0 0-.916 2.088 4.5 4.5 0 0 1 .711-2.2 2.47 2.47 0 0 0-1.264.653s.128-.876 1.468-.952a5.841 5.841 0 0 1 .861-1 5.413 5.413 0 0 0-2.137.244 2.4 2.4 0 0 1 2.381-.449l.934-.763a7.706 7.706 0 0 0-2.494.027s.855-.733 2.747-.2l1.017-.611a9.177 9.177 0 0 0-2.381-.208 3.647 3.647 0 0 1 2.68.043l.727-.327s-1.093-.214-1.413-.247-.339-.122-.339-.122a3.774 3.774 0 0 1 2.054.226 8.975 8.975 0 0 0 1.529-.653z" class="cls-2" data-name="Caminho 2842" transform="translate(-145.273 -501.246)"/>
        <ellipse id="Elipse_256" cx="6.218" cy="1.05" class="cls-1" data-name="Elipse 256" rx="6.218" ry="1.05" transform="translate(0 209.092)"/>
        <ellipse id="Elipse_257" cx="9.134" cy="1.545" class="cls-1" data-name="Elipse 257" rx="9.134" ry="1.545" transform="translate(176.385 246.83)"/>
        <path id="Caminho_2843" d="M722.79 824.384s5.211-.162 6.78-1.279 8.013-2.442 8.4-.659 7.83 8.917 1.948 8.966-13.667-.916-15.236-1.871-1.892-5.157-1.892-5.157z" class="cls-17" data-name="Caminho 2843" transform="translate(-543.404 -583.183)"/>
        <path id="Caminho_2844" d="M740.019 837.168c-5.883.049-13.667-.916-15.233-1.868-1.194-.73-1.67-3.337-1.832-4.539h-.174s.33 4.2 1.9 5.156 9.353 1.917 15.236 1.871c1.7 0 2.283-.611 2.253-1.526-.236.558-.887.896-2.15.906z" class="cls-18" data-name="Caminho 2844" transform="translate(-543.397 -589.566)"/>
    </g>
</svg>
