<svg xmlns="http://www.w3.org/2000/svg" xmlns:xlink="http://www.w3.org/1999/xlink" width="234" height="208.212" viewBox="0 0 234 208.212">
    <defs>
        <style>
            .cls-1,.cls-3,.cls-5{fill:#4052a9}.cls-1,.cls-24,.cls-7{opacity:.1}.cls-2{opacity:.35}.cls-3{opacity:.2}.cls-4{fill:none;stroke:#535461;stroke-miterlimit:10;stroke-width:2px}.cls-6{opacity:.25}.cls-8{fill:#ffd037}.cls-9{fill:#65617d}.cls-10{fill:#9d9cb5}.cls-11{fill:url(#linear-gradient)}.cls-12{fill:#f6f7f9}.cls-13{fill:url(#linear-gradient-3)}.cls-14{fill:url(#linear-gradient-4)}.cls-15{fill:url(#linear-gradient-6)}.cls-16{fill:url(#linear-gradient-7)}.cls-17{fill:#2d293d}.cls-18{fill:#575988}.cls-19,.cls-20{opacity:.05}.cls-21{fill:#ffcdd3}.cls-22{fill:#dce6f2}.cls-23{fill:#656691}
        </style>
        <linearGradient id="linear-gradient" x1=".5" x2=".5" y1="1" gradientUnits="objectBoundingBox">
            <stop offset="0" stop-color="gray" stop-opacity=".251"/>
            <stop offset=".54" stop-color="gray" stop-opacity=".122"/>
            <stop offset="1" stop-color="gray" stop-opacity=".102"/>
        </linearGradient>
        <linearGradient id="linear-gradient-3" x1=".5" x2=".5" y1="1" xlink:href="#linear-gradient"/>
        <linearGradient id="linear-gradient-4" x1=".5" x2=".5" y1="1" xlink:href="#linear-gradient"/>
        <linearGradient id="linear-gradient-6" x1=".5" x2=".5" y1="1" xlink:href="#linear-gradient"/>
        <linearGradient id="linear-gradient-7" x1=".5" x2=".5" y1="1" xlink:href="#linear-gradient"/>
    </defs>
    <g id="Grupo_749" data-name="Grupo 749" transform="translate(-.002 -.002)">
        <ellipse id="Elipse_169" cx="23.918" cy="4.38" class="cls-1" data-name="Elipse 169" rx="23.918" ry="4.38" transform="translate(117.639 199.453)"/>
        <path id="Caminho_2361" d="M217.422 51.359c-9.792 9.079-22.5 8.492-33.615 3.769S162.444 41.994 151.6 36.017a85.018 85.018 0 0 0-28.294-9.766c-13.82-2.095-29.256.457-38.887 15.134-10.724 16.344-9.9 45.821 1.7 60.832 5.9 7.632 13.625 11.376 20.364 17.336s12.972 15.852 12.4 27.353c-.53 10.648-6.71 18.822-13.1 23.956-4.941 3.96-11.024 8.287-11.63 16.493-.577 7.94 4.538 14.161 9.425 17.7 15.933 11.543 35.561 11.43 51.44-.291 5.665-4.182 10.87-9.744 16.81-13 15.593-8.556 32.779.056 49.289 3.207a75.492 75.492 0 0 0 41.924-4.041c8.177-3.2 16.385-8.086 22.131-17.194 4.142-6.568 6.723-14.882 9.145-23.09q3.878-13.132 7.452-26.446a84.467 84.467 0 0 0 3.207-16.461c.671-10.333-2.152-20.533-5.992-29.265-9.109-20.719-24.468-35.276-41.092-38.974s-34.239 3.525-47.14 19.328" class="cls-1" data-name="Caminho 2361" transform="translate(-76.87 -25.61)"/>
        <g id="Grupo_716" class="cls-2" data-name="Grupo 716" transform="translate(75.455 48.252)">
            <path id="Caminho_2362" d="M450.834 224.626V223H427.4c-1.078 0-.42 1.635-.42 1.635h-12.74v36.459h55.914v-36.468z" class="cls-3" data-name="Caminho 2362" transform="translate(-414.24 -223)"/>
        </g>
        <path id="Caminho_2363" d="M910.28 239.051s7.047-13.645 17.669-17.576a22 22 0 0 0 11-9 40.988 40.988 0 0 0 3.245-6.38" class="cls-4" data-name="Caminho 2363" transform="translate(-723.883 -161.979)"/>
        <path id="Caminho_2364" d="M1059.039 178.076c-1.208 1.283-6.839 2.611-6.839 2.611s1.38-6.111 2.59-7.4a2.871 2.871 0 0 1 4.314.071 3.558 3.558 0 0 1-.065 4.718z" class="cls-5" data-name="Caminho 2364" transform="translate(-834.062 -136.478)"/>
        <path id="Caminho_2365" d="M1044.1 220.582c-1.653.359-7.041-1.872-7.041-1.872s4.2-4.31 5.853-4.669a3.072 3.072 0 0 1 3.586 2.622 3.335 3.335 0 0 1-2.398 3.919z" class="cls-5" data-name="Caminho 2365" transform="translate(-822.308 -167.93)"/>
        <path id="Caminho_2366" d="M998.581 270.056c-1.592-.6-5.211-5.5-5.211-5.5s5.616-1.406 7.208-.8a3.419 3.419 0 0 1 1.884 4.242 2.994 2.994 0 0 1-3.881 2.058z" class="cls-5" data-name="Caminho 2366" transform="translate(-788.39 -205.426)"/>
        <path id="Caminho_2367" d="M948.3 297.814c-1.662-.3-5.987-4.451-5.987-4.451s5.318-2.42 6.983-2.122a3.315 3.315 0 0 1 2.513 3.834 3.093 3.093 0 0 1-3.508 2.746z" class="cls-5" data-name="Caminho 2367" transform="translate(-748.749 -226.289)"/>
        <path id="Caminho_2368" d="M1016.056 203.245c0 1.843 3.048 7.184 3.048 7.184s3.055-5.339 3.055-7.182a3.416 3.416 0 0 0-1.5-2.965 2.831 2.831 0 0 0-3.1 0 3.416 3.416 0 0 0-1.5 2.965z" class="cls-5" data-name="Caminho 2368" transform="translate(-806.001 -157.234)"/>
        <path id="Caminho_2369" d="M960.209 233.687c.5 1.758 4.876 5.867 4.876 5.867s1.452-6.094.948-7.852a3.2 3.2 0 0 0-2.238-2.4 2.9 2.9 0 0 0-2.993 1.025 3.574 3.574 0 0 0-.584 3.368z" class="cls-5" data-name="Caminho 2369" transform="translate(-762.507 -179.439)"/>
        <path id="Caminho_2370" d="M911.461 275.3c.224 1.826 3.9 6.676 3.9 6.676s2.373-5.737 2.149-7.563a3.338 3.338 0 0 0-1.824-2.828 2.845 2.845 0 0 0-3.138.461 3.51 3.51 0 0 0-1.076 3.255z" class="cls-5" data-name="Caminho 2370" transform="translate(-724.762 -211.249)"/>
        <path id="Caminho_2371" d="M1059.039 178.076c-1.208 1.283-6.839 2.611-6.839 2.611s1.38-6.111 2.59-7.4a2.871 2.871 0 0 1 4.314.071 3.558 3.558 0 0 1-.065 4.718z" class="cls-6" data-name="Caminho 2371" transform="translate(-834.062 -136.478)"/>
        <path id="Caminho_2372" d="M1044.1 220.582c-1.653.359-7.041-1.872-7.041-1.872s4.2-4.31 5.853-4.669a3.072 3.072 0 0 1 3.586 2.622 3.335 3.335 0 0 1-2.398 3.919z" class="cls-6" data-name="Caminho 2372" transform="translate(-822.308 -167.93)"/>
        <path id="Caminho_2373" d="M998.581 270.056c-1.592-.6-5.211-5.5-5.211-5.5s5.616-1.406 7.208-.8a3.419 3.419 0 0 1 1.884 4.242 2.994 2.994 0 0 1-3.881 2.058z" class="cls-6" data-name="Caminho 2373" transform="translate(-788.39 -205.426)"/>
        <path id="Caminho_2374" d="M948.3 297.814c-1.662-.3-5.987-4.451-5.987-4.451s5.318-2.42 6.983-2.122a3.315 3.315 0 0 1 2.513 3.834 3.093 3.093 0 0 1-3.508 2.746z" class="cls-6" data-name="Caminho 2374" transform="translate(-748.749 -226.289)"/>
        <path id="Caminho_2375" d="M1016.056 203.245c0 1.843 3.048 7.184 3.048 7.184s3.055-5.339 3.055-7.182a3.416 3.416 0 0 0-1.5-2.965 2.831 2.831 0 0 0-3.1 0 3.416 3.416 0 0 0-1.5 2.965z" class="cls-6" data-name="Caminho 2375" transform="translate(-806.001 -157.234)"/>
        <path id="Caminho_2376" d="M960.209 233.687c.5 1.758 4.876 5.867 4.876 5.867s1.452-6.094.948-7.852a3.2 3.2 0 0 0-2.238-2.4 2.9 2.9 0 0 0-2.993 1.025 3.574 3.574 0 0 0-.584 3.368z" class="cls-6" data-name="Caminho 2376" transform="translate(-762.507 -179.439)"/>
        <path id="Caminho_2377" d="M911.461 275.3c.224 1.826 3.9 6.676 3.9 6.676s2.373-5.737 2.149-7.563a3.338 3.338 0 0 0-1.824-2.828 2.845 2.845 0 0 0-3.138.461 3.51 3.51 0 0 0-1.076 3.255z" class="cls-6" data-name="Caminho 2377" transform="translate(-724.762 -211.249)"/>
        <path id="Caminho_2378" d="M912.1 203s1.382-15.6 9.617-23.89a24.354 24.354 0 0 0 6.721-13.095 43.365 43.365 0 0 0 .6-7.272" class="cls-4" data-name="Caminho 2378" transform="translate(-725.296 -126.196)"/>
        <path id="Caminho_2379" d="M990.628 123.04c-.631 1.711-5.287 5.417-5.287 5.417s-1-6.2-.374-7.915a2.971 2.971 0 0 1 3.971-1.847 3.447 3.447 0 0 1 1.69 4.34z" class="cls-5" data-name="Caminho 2379" transform="translate(-781.705 -95.756)"/>
        <path id="Caminho_2380" d="M991.56 165.625c-1.378 1.061-7.13 1.406-7.13 1.406s2.237-5.8 3.619-6.859a2.89 2.89 0 0 1 4.251.808 3.536 3.536 0 0 1-.739 4.646z" class="cls-5" data-name="Caminho 2380" transform="translate(-781.449 -126.818)"/>
        <path id="Caminho_2381" d="M965.113 229.57c-1.68.154-6.8-2.721-6.8-2.721s4.614-3.772 6.294-3.926a3.146 3.146 0 0 1 3.3 3.045 3.26 3.26 0 0 1-2.794 3.602z" class="cls-5" data-name="Caminho 2381" transform="translate(-761.171 -174.681)"/>
        <path id="Caminho_2382" d="M931.918 274.933c-1.63.464-7.128-1.425-7.128-1.425s3.965-4.569 5.591-5.031a3.038 3.038 0 0 1 3.719 2.391 3.372 3.372 0 0 1-2.187 4.065z" class="cls-5" data-name="Caminho 2382" transform="translate(-735.148 -209.027)"/>
        <path id="Caminho_2383" d="M956.371 166.246c.682 1.684 5.45 5.216 5.45 5.216s.812-6.233.13-7.918a2.959 2.959 0 0 0-4.026-1.711 3.466 3.466 0 0 0-1.565 4.4z" class="cls-5" data-name="Caminho 2383" transform="translate(-759.455 -128.319)"/>
        <path id="Caminho_2384" d="M917.838 216.886c1.118 1.384 6.629 3.2 6.629 3.2s-.933-6.214-2.044-7.6a2.873 2.873 0 0 0-4.305-.306 3.554 3.554 0 0 0-.28 4.706z" class="cls-5" data-name="Caminho 2384" transform="translate(-729.162 -165.945)"/>
        <path id="Caminho_2385" d="M890.173 274.851c.895 1.569 6.039 4.376 6.039 4.376s.056-6.3-.839-7.866a2.907 2.907 0 0 0-4.2-1.1 3.52 3.52 0 0 0-1 4.589z" class="cls-5" data-name="Caminho 2385" transform="translate(-707.92 -210.084)"/>
        <path id="Caminho_2386" d="M175.674 464.381s-8.723-11.814-8.175-23.67a24.64 24.64 0 0 0-3.48-14.046 38.187 38.187 0 0 0-4.1-5.476" class="cls-4" data-name="Caminho 2386" transform="translate(-141.344 -324.491)"/>
        <path id="Caminho_2387" d="M141.555 384.458c.626 1.65-.289 7.671-.289 7.671s-4.545-3.544-5.171-5.194a3.345 3.345 0 0 1 1.6-4.223 2.874 2.874 0 0 1 3.864 1.749z" class="cls-5" data-name="Caminho 2387" transform="translate(-122.673 -295.232)"/>
        <path id="Caminho_2388" d="M176.709 407.83c-.3 1.755-4.059 6.26-4.059 6.26s-2.06-5.681-1.756-7.431a2.986 2.986 0 0 1 3.443-2.593 3.223 3.223 0 0 1 2.372 3.764z" class="cls-5" data-name="Caminho 2388" transform="translate(-149.84 -311.513)"/>
        <path id="Caminho_2389" d="M200.329 467.65c-1.067 1.354-6.4 3.166-6.4 3.166s.85-6.03 1.917-7.385a2.78 2.78 0 0 1 4.089-.237 3.445 3.445 0 0 1 .384 4.456z" class="cls-5" data-name="Caminho 2389" transform="translate(-167.748 -355.634)"/>
        <path id="Caminho_2390" d="M210.743 521.665c-.841 1.53-5.815 4.3-5.815 4.3s-.1-6.111.747-7.632a2.818 2.818 0 0 1 4.057-1.105 3.406 3.406 0 0 1 1.011 4.435z" class="cls-5" data-name="Caminho 2390" transform="translate(-176.284 -396.706)"/>
        <path id="Caminho_2391" d="M147.475 437.995c1.519.658 7.012-.435 7.012-.435s-3.31-4.913-4.826-5.573a2.887 2.887 0 0 0-3.769 1.842 3.348 3.348 0 0 0 1.583 4.166z" class="cls-5" data-name="Caminho 2391" transform="translate(-130.29 -332.498)"/>
        <path id="Caminho_2392" d="M154.8 499.047c1.628.132 6.571-2.706 6.571-2.706s-4.5-3.608-6.133-3.74a3.054 3.054 0 0 0-3.173 2.978 3.155 3.155 0 0 0 2.725 3.467z" class="cls-5" data-name="Caminho 2392" transform="translate(-135.239 -378.439)"/>
        <path id="Caminho_2393" d="M175.093 557.967c1.583.433 6.9-1.467 6.9-1.467s-3.883-4.373-5.466-4.8a2.95 2.95 0 0 0-3.584 2.355 3.262 3.262 0 0 0 2.155 3.917z" class="cls-5" data-name="Caminho 2393" transform="translate(-151.382 -423.027)"/>
        <path id="Caminho_2394" d="M1047.2 679s1.707 2.444-.787 6.111-4.551 6.791-3.719 9.089c0 0 3.764-6.844 6.826-6.935s1.055-4.153-2.32-8.265z" class="cls-5" data-name="Caminho 2394" transform="translate(-826.54 -519.281)"/>
        <path id="Caminho_2395" d="M1047.538 679a3.16 3.16 0 0 1 .349.765c2.988 3.838 4.581 7.419 1.709 7.509-2.684.083-5.887 5.312-6.656 6.634a3.113 3.113 0 0 0 .092.3s3.764-6.845 6.826-6.935 1.051-4.161-2.32-8.273z" class="cls-7" data-name="Caminho 2395" transform="translate(-826.873 -519.281)"/>
        <path id="Caminho_2396" d="M1076.323 690.013a.79.79 0 1 1-.394 0c0-.86.109-.452.224-.452s.17-.406.17.452z" class="cls-8" data-name="Caminho 2396" transform="translate(-852.485 -527.188)"/>
        <path id="Caminho_2397" d="M1077.88 694.089c-.689.411-1.29.658-1.342.555s.465-.523 1.154-.934.418-.112.469 0 .41-.031-.281.379z" class="cls-8" data-name="Caminho 2397" transform="translate(-852.954 -530.237)"/>
        <path id="Caminho_2398" d="M1009.907 679s-1.706 2.444.787 6.111 4.551 6.791 3.719 9.089c0 0-3.764-6.844-6.826-6.935s-1.051-4.153 2.32-8.265z" class="cls-5" data-name="Caminho 2398" transform="translate(-798.255 -519.281)"/>
        <path id="Caminho_2399" d="M1009.907 679a3.049 3.049 0 0 0-.349.765c-2.99 3.838-4.58 7.419-1.709 7.509 2.684.083 5.887 5.312 6.656 6.634-.027.1-.056.2-.092.3 0 0-3.764-6.845-6.826-6.935s-1.051-4.161 2.32-8.273z" class="cls-7" data-name="Caminho 2399" transform="translate(-798.255 -519.281)"/>
        <path id="Caminho_2400" d="M1009 690.013a.79.79 0 1 0 .394 0c0-.86-.11-.452-.224-.452s-.17-.406-.17.452z" class="cls-8" data-name="Caminho 2400" transform="translate(-800.524 -527.188)"/>
        <path id="Caminho_2401" d="M1002.685 694.089c.691.411 1.293.658 1.342.555s-.465-.523-1.154-.934-.418-.112-.47 0-.403-.031.282.379z" class="cls-8" data-name="Caminho 2401" transform="translate(-795.296 -530.237)"/>
        <ellipse id="Elipse_170" cx="17.843" cy="2.992" class="cls-1" data-name="Elipse 170" rx="17.843" ry="2.992" transform="translate(198.315 187.6)"/>
        <path id="Caminho_2402" d="M1020.636 724.249l-.085.76-.121 1.075-.049.45-.119 1.076-.054.45-.119 1.076-1.367 12.222c-.121 1.093-1.753 1.956-3.724 1.956h-7.094c-1.97 0-3.6-.851-3.724-1.956l-1.366-12.222-.121-1.076-.049-.45-.121-1.076-.051-.45-.119-1.075-.087-.76c-.067-.618.816-1.139 1.93-1.139h14.511c1.115 0 1.999.521 1.929 1.139z" class="cls-9" data-name="Caminho 2402" transform="translate(-795.294 -552.609)"/>
        <path id="Caminho_2403" d="M944 705.27l-.121 1.076h-17.961l-.119-1.076z" class="cls-10" data-name="Caminho 2403" transform="translate(-718.74 -532.869)"/>
        <path id="Caminho_2404" d="M944.409 711.51l-.121 1.076h-17.615l-.123-1.076z" class="cls-10" data-name="Caminho 2404" transform="translate(-719.322 -537.584)"/>
        <path id="Caminho_2405" d="M944.834 717.75l-.119 1.073h-17.274l-.121-1.073z" class="cls-10" data-name="Caminho 2405" transform="translate(-719.92 -542.299)"/>
        <path id="Caminho_2406" d="M785.285 193.814h-.185a1.575 1.575 0 0 0 .423-1.058l-1.7-1.858.649-1.589h-2.185l.4-1.239h-1.295l-14.327 5.216a4.758 4.758 0 0 0 0 .528h-9.225v45.43h40.07v-45.43z" class="cls-11" data-name="Caminho 2406" transform="translate(-605.537 -148.356)"/>
        <path id="Retângulo_246" d="M0 0h39.466v44.792H0z" class="cls-12" data-name="Retângulo 246" transform="translate(152.6 45.617)"/>
        <path id="Caminho_2407" d="M817.725 212.22c-1.87 3.009-14.359 6.972-14.359 6.972l.078-3.136h-2.31a1.482 1.482 0 0 0-.64-1.569c-.671-.4-.736-1.711-.727-2.266z" class="cls-7" data-name="Caminho 2407" transform="translate(-638.087 -166.603)"/>
        <path id="Caminho_2408" d="M813.89 189.012l-14.11 5.133s-.161 2 .716 2.525a1.487 1.487 0 0 1 .64 1.569h2.31l-.078 3.136s14.828-4.706 14.589-7.754l-1.673-1.831.637-1.569h-2.154l.4-1.222z" class="cls-10" data-name="Caminho 2408" transform="translate(-638.088 -149.059)"/>
        <g id="Grupo_717" class="cls-2" data-name="Grupo 717" transform="translate(159.896 60.137)">
            <path id="Retângulo_247" d="M0 0h24.875v.763H0z" class="cls-3" data-name="Retângulo 247"/>
        </g>
        <g id="Grupo_718" class="cls-2" data-name="Grupo 718" transform="translate(159.896 64.158)">
            <path id="Retângulo_248" d="M0 0h24.875v.763H0z" class="cls-3" data-name="Retângulo 248"/>
        </g>
        <g id="Grupo_719" class="cls-2" data-name="Grupo 719" transform="translate(159.896 68.177)">
            <path id="Retângulo_249" d="M0 0h24.875v.763H0z" class="cls-3" data-name="Retângulo 249"/>
        </g>
        <g id="Grupo_720" class="cls-2" data-name="Grupo 720" transform="translate(159.896 72.196)">
            <path id="Retângulo_250" d="M0 0h24.875v.763H0z" class="cls-3" data-name="Retângulo 250"/>
        </g>
        <g id="Grupo_721" class="cls-2" data-name="Grupo 721" transform="translate(159.896 76.214)">
            <path id="Retângulo_251" d="M0 0h24.875v.763H0z" class="cls-3" data-name="Retângulo 251"/>
        </g>
        <g id="Grupo_722" class="cls-2" data-name="Grupo 722" transform="translate(159.896 80.235)">
            <path id="Retângulo_252" d="M0 0h24.875v.763H0z" class="cls-3" data-name="Retângulo 252"/>
        </g>
        <path id="Caminho_2409" d="M213.133 178.807h-.094a27.319 27.319 0 0 0 1.331-4.28c-.063-.733-1.407.86-1.469.462s0-1.909-.611-1.909-.98.785-1.342.785-1.836-.264-1.836-.264l-1.876 5.207H193.1v48.52h35.078v-48.52z" class="cls-11" data-name="Caminho 2409" transform="translate(-167.103 -137.03)"/>
        <path id="Retângulo_253" d="M0 0h34.284v47.926H0z" class="cls-12" data-name="Retângulo 253" transform="translate(26.39 42.046)"/>
        <path id="Caminho_2410" d="M257.344 197.61c-.722 2.051-1.536 4.212-1.722 4.728-.36.978-.6.457-1.018.328s-.955.13-1.194 0a6.9 6.9 0 0 0-1.644 0 5.53 5.53 0 0 0 0-.721c-.031-.259-1.646 0-1.646 0l1.539-4.334z" class="cls-7" data-name="Caminho 2410" transform="translate(-211.371 -155.564)"/>
        <path id="Caminho_2411" d="M253.41 174.993l-3.29 9.216s1.615-.262 1.644 0a5.106 5.106 0 0 1 0 .719 6.785 6.785 0 0 1 1.646 0c.239.132.776-.132 1.194 0s.658.653 1.018-.328 2.99-7.974 2.93-8.692-1.375.851-1.436.457 0-1.885-.6-1.885-.957.775-1.315.775-1.791-.262-1.791-.262z" class="cls-10" data-name="Caminho 2411" transform="translate(-211.371 -138.088)"/>
        <g id="Grupo_723" class="cls-2" data-name="Grupo 723" transform="translate(31.096 54.767)">
            <path id="Retângulo_254" d="M0 0h24.875v.763H0z" class="cls-3" data-name="Retângulo 254"/>
        </g>
        <g id="Grupo_724" class="cls-2" data-name="Grupo 724" transform="translate(31.096 57.644)">
            <path id="Retângulo_255" d="M0 0h24.875v.763H0z" class="cls-3" data-name="Retângulo 255"/>
        </g>
        <g id="Grupo_725" class="cls-2" data-name="Grupo 725" transform="translate(31.096 60.519)">
            <path id="Retângulo_256" d="M0 0h24.875v.763H0z" class="cls-3" data-name="Retângulo 256"/>
        </g>
        <g id="Grupo_726" class="cls-2" data-name="Grupo 726" transform="translate(31.096 63.396)">
            <path id="Retângulo_257" d="M0 0h24.875v.763H0z" class="cls-3" data-name="Retângulo 257"/>
        </g>
        <g id="Grupo_727" class="cls-2" data-name="Grupo 727" transform="translate(31.096 66.27)">
            <path id="Retângulo_258" d="M0 0h24.875v.763H0z" class="cls-3" data-name="Retângulo 258"/>
        </g>
        <g id="Grupo_728" class="cls-2" data-name="Grupo 728" transform="translate(31.096 69.145)">
            <path id="Retângulo_259" d="M0 0h24.875v.763H0z" class="cls-3" data-name="Retângulo 259"/>
        </g>
        <path id="Caminho_2412" d="M775.955 468.164h-.094a33.705 33.705 0 0 0 1.63-5.28c-.074-.9-1.724 1.061-1.789.572s0-2.356-.749-2.356-1.2.978-1.648.978-2.25-.327-2.25-.327l-2.312 6.414H751.42v59.862h42.993v-59.863z" class="cls-13" data-name="Caminho 2412" transform="translate(-600.553 -354.646)"/>
        <path id="Retângulo_260" d="M0 0h42.244v59.058H0z" class="cls-12" data-name="Retângulo 260" transform="translate(151.212 113.935)"/>
        <path id="Caminho_2413" d="M829.929 491.7c-.881 2.508-1.87 5.133-2.1 5.764-.447 1.208-.736.562-1.252.4s-1.179.159-1.474 0a8.542 8.542 0 0 0-2.026 0 6.811 6.811 0 0 0 0-.887c-.038-.32-2.026 0-2.026 0l1.885-5.28z" class="cls-7" data-name="Caminho 2413" transform="translate(-654.61 -377.766)"/>
        <path id="Caminho_2414" d="M825.1 463.823l-4.053 11.355s1.988-.323 2.026 0a6.773 6.773 0 0 1 0 .885 8.537 8.537 0 0 1 2.026 0c.3.159.957-.159 1.474 0s.81.807 1.252-.4 3.684-9.827 3.61-10.712-1.7 1.046-1.769.565 0-2.325-.736-2.325-1.179.956-1.621.956-2.209-.324-2.209-.324z" class="cls-10" data-name="Caminho 2414" transform="translate(-654.61 -356.225)"/>
        <g id="Grupo_729" class="cls-2" data-name="Grupo 729" transform="translate(159.896 130.437)">
            <path id="Retângulo_261" d="M0 0h24.875v1.938H0z" class="cls-3" data-name="Retângulo 261"/>
        </g>
        <g id="Grupo_730" class="cls-2" data-name="Grupo 730" transform="translate(159.896 143.028)">
            <path id="Retângulo_262" d="M0 0h24.875v1.938H0z" class="cls-3" data-name="Retângulo 262"/>
        </g>
        <g id="Grupo_731" class="cls-2" data-name="Grupo 731" transform="translate(159.896 155.622)">
            <path id="Retângulo_263" d="M0 0h24.875v1.938H0z" class="cls-3" data-name="Retângulo 263"/>
        </g>
        <path id="Caminho_2415" d="M138.458 450.418v-7.228h-9.284v7.228H109.79v56.951h45.529v-56.951z" class="cls-14" data-name="Caminho 2415" transform="translate(-85.234 -334.853)"/>
        <path id="Retângulo_264" d="M0 0h44.568v56.291H0z" class="cls-12" data-name="Retângulo 264" transform="translate(25.037 115.853)"/>
        <path id="Retângulo_265" d="M0 0h9.089v7.668H0z" class="cls-7" data-name="Retângulo 265" transform="translate(44.012 115.853)"/>
        <path id="Retângulo_266" d="M0 0h9.089v14.552H0z" class="cls-10" data-name="Retângulo 266" transform="translate(44.012 108.708)"/>
        <g id="Grupo_732" class="cls-2" data-name="Grupo 732" transform="translate(34.882 129.469)">
            <path id="Retângulo_267" d="M0 0h24.875v1.938H0z" class="cls-3" data-name="Retângulo 267"/>
        </g>
        <g id="Grupo_733" class="cls-2" data-name="Grupo 733" transform="translate(34.882 133.324)">
            <path id="Retângulo_268" d="M0 0h24.875v1.938H0z" class="cls-3" data-name="Retângulo 268"/>
        </g>
        <g id="Grupo_734" class="cls-2" data-name="Grupo 734" transform="translate(34.882 137.181)">
            <path id="Retângulo_269" d="M0 0h24.875v1.938H0z" class="cls-3" data-name="Retângulo 269"/>
        </g>
        <g id="Grupo_735" class="cls-2" data-name="Grupo 735" transform="translate(34.882 141.036)">
            <path id="Retângulo_270" d="M0 0h24.875v1.938H0z" class="cls-3" data-name="Retângulo 270"/>
        </g>
        <g id="Grupo_736" class="cls-2" data-name="Grupo 736" transform="translate(53.101 145.329)">
            <path id="Retângulo_271" d="M0 0h6.658v5.881H0z" class="cls-3" data-name="Retângulo 271"/>
        </g>
        <g id="Grupo_737" class="cls-2" data-name="Grupo 737" transform="translate(34.882 152.603)">
            <path id="Retângulo_272" d="M0 0h6.658v5.881H0z" class="cls-3" data-name="Retângulo 272"/>
        </g>
        <path id="Caminho_2416" d="M498.532 477.347h-.063c.725-3.1 1.27-5.563 1.27-5.563l-3.091 1.589s-2.194-3.178-3.006-2.647-2.594 1.853-2.594 1.853l-2.366-1.325-.906 6.094H469.09v43.972l1.2.785c.991-.389 2.621-1.049 2.621-1.049l-.749 2.273.505.328.852-.843.315 1.611 1.013.662 1.6-1.112-.447 1.873 1.5.978 4.364-1.792-1.315 3.784.866.567 1.975-.379s-.089.755-.145 1.574l1.982 1.3c.812-.345 1.577-.684 1.577-.684s-.078.826-.114 1.638l1.328.87c1.049-.67 2.384-1.582 2.384-1.582l-1.118 2.273h25.251v-57.048z" class="cls-14" data-name="Caminho 2416" transform="translate(-381.367 -361.873)"/>
        <path id="Caminho_2417" d="M515.365 499.55v56.291H490.6l1.1-2.242s-1.308.9-2.337 1.56l-1.3-.86c.036-.8.114-1.616.114-1.616s-.751.335-1.548.674l-1.944-1.279c.056-.807.141-1.552.141-1.552l-1.935.374-.848-.56 1.288-3.735-4.278 1.77-1.474-.978.429-1.848-1.566 1.1-.993-.653-.309-1.589-.836.836-.5-.325.736-2.242s-1.6.65-2.572 1.034l-1.176-.772V499.55z" class="cls-12" data-name="Caminho 2417" transform="translate(-382.695 -383.697)"/>
        <g id="Grupo_738" class="cls-2" data-name="Grupo 738" transform="translate(97.948 133.324)">
            <path id="Retângulo_273" d="M0 0h24.875v1.938H0z" class="cls-3" data-name="Retângulo 273"/>
        </g>
        <g id="Grupo_739" class="cls-2" data-name="Grupo 739" transform="translate(97.948 139.12)">
            <path id="Retângulo_274" d="M0 0h24.875v1.938H0z" class="cls-3" data-name="Retângulo 274"/>
        </g>
        <g id="Grupo_740" class="cls-2" data-name="Grupo 740" transform="translate(97.948 144.913)">
            <path id="Retângulo_275" d="M0 0h24.875v1.938H0z" class="cls-3" data-name="Retângulo 275"/>
        </g>
        <g id="Grupo_741" class="cls-2" data-name="Grupo 741" transform="translate(97.948 150.709)">
            <path id="Retângulo_276" d="M0 0h4.983v1.938H0z" class="cls-3" data-name="Retângulo 276"/>
        </g>
        <path id="Caminho_2418" d="M557.5 499.542c-1.212 5.226-2.979 12.467-3.44 12.34-.716-.213-1.834-1.711-1.834-1.711s-2.63 2.7-3.905 1.308a2.561 2.561 0 0 0-3.031-.438l1.7-11.5z" class="cls-7" data-name="Caminho 2418" transform="translate(-440.525 -383.689)"/>
        <path id="Caminho_2419" d="M547.842 473.2l-2.552 17.253a2.553 2.553 0 0 1 3.028.438c1.275 1.4 3.907-1.313 3.907-1.313s1.118 1.5 1.834 1.711 4.625-17.566 4.625-17.566l-3.031 1.569s-2.152-3.139-2.95-2.615-2.543 1.831-2.543 1.831z" class="cls-10" data-name="Caminho 2419" transform="translate(-440.525 -363.349)"/>
        <path id="Caminho_2420" d="M521.283 161.945v-1.655h-23.734c-1.089 0-.423 1.655-.423 1.655h-12.9v36.9h56.607V161.93z" class="cls-15" data-name="Caminho 2420" transform="translate(-393.121 -127.367)"/>
        <path id="Retângulo_277" d="M0 0h55.909v36.469H0z" class="cls-12" data-name="Retângulo 277" transform="translate(91.467 34.754)"/>
        <path id="Caminho_2421" d="M566.337 173.727h-22.185s-.239-2.811.539-3.332-2.214-2.354-2.214-2.354q-.05-.128-.087-.262h23.947v.851s3.05 2.941 0 5.097z" class="cls-7" data-name="Caminho 2421" transform="translate(-438.273 -133.026)"/>
        <path id="Caminho_2422" d="M542.508 161.1h23.441v2.222s3.051 2.933 0 5.1h-22.184s-.239-2.811.539-3.332-2.214-2.354-2.214-2.354-.658-1.636.418-1.636z" class="cls-10" data-name="Caminho 2422" transform="translate(-437.885 -127.979)"/>
        <g id="Grupo_742" class="cls-2" data-name="Grupo 742" transform="translate(98.335 46.192)">
            <path id="Retângulo_278" d="M0 0h42.177v.763H0z" class="cls-3" data-name="Retângulo 278"/>
        </g>
        <g id="Grupo_743" class="cls-2" data-name="Grupo 743" transform="translate(98.335 49.066)">
            <path id="Retângulo_279" d="M0 0h25.195v.763H0z" class="cls-3" data-name="Retângulo 279"/>
        </g>
        <g id="Grupo_744" class="cls-2" data-name="Grupo 744" transform="translate(98.335 51.943)">
            <path id="Retângulo_280" d="M0 0h42.177v.763H0z" class="cls-3" data-name="Retângulo 280"/>
        </g>
        <g id="Grupo_745" class="cls-2" data-name="Grupo 745" transform="translate(98.335 54.818)">
            <path id="Retângulo_281" d="M0 0h42.177v.763H0z" class="cls-3" data-name="Retângulo 281"/>
        </g>
        <g id="Grupo_746" class="cls-2" data-name="Grupo 746" transform="translate(98.335 57.693)">
            <path id="Retângulo_282" d="M0 0h42.177v.763H0z" class="cls-3" data-name="Retângulo 282"/>
        </g>
        <path id="Caminho_2423" d="M538.624 362.1c-.4-1.863-.646-3.5-.646-3.5a7.782 7.782 0 0 0-.74-3.547V350.8a13.162 13.162 0 0 1 .863-1.956c.617-1.178 0-5.49 0-5.49s-2.286-6.079-1.729-9.934-4.7-17.123-4.7-17.123a18.307 18.307 0 0 1 .494-3.791 3.277 3.277 0 0 0 .067-.794v-.066c-.078-2.542-1.917-7.309-1.917-7.309l.246-9.086a29.108 29.108 0 0 0-.74-12.547c-.671-2.51-1.1-4.517-1.369-6.067q-.047-.264-.087-.506c3.943-.658 6.953-1.205 6.953-1.205s-2.288-10.462-3.831-12.291-2.78-7.578-2.78-7.578-.805-7.385.494-9.533 1.481-5.884 1.481-5.884 2.966-2.352 3.337-3.4a18.635 18.635 0 0 0 .989-4.644c0-1.247-.371-2.354-.246-3.007s-.866-3.136-.371-4.314a3.44 3.44 0 0 0 .2-1.134.153.153 0 0 0 0-.034.09.09 0 0 0 0-.012 17.437 17.437 0 0 0-.262-3.068 7.759 7.759 0 0 0-2.932-1.711l-.065-.281-.168-.733a3.091 3.091 0 0 0-.293-.191v-.266l-.027-1.061.465-2.388c.91-4.156-4.156-4.769-4.156-4.769a2.742 2.742 0 0 0-1.434-1.384c-1.02-.394-.17 6.243.307 6.666a25.122 25.122 0 0 1 2 3.422l.087.169a2.235 2.235 0 0 0-.224.266l.192 1.44.029.22a6.135 6.135 0 0 0-.807 1.508 3.376 3.376 0 0 1 .743 2.352 7.807 7.807 0 0 0 .306 2.875c-.056-.068-.707-.841-1.358-.653s-2.46.785-2.46.785-1.36.262-1.235.589-.928 1.765-.928 1.765l-3.652-3.784a9.84 9.84 0 0 1-.105-.342 9.959 9.959 0 0 1-.318-1.657 7.828 7.828 0 0 0 1.168-.406 2.506 2.506 0 0 0 1.011-.706 4.51 4.51 0 0 0 .588-1.711 25.3 25.3 0 0 1 1.355-3.3 11.667 11.667 0 0 0 .729-5.933 4.136 4.136 0 0 0-.561-1.736c-.595-.9-1.677-1.261-2.46-1.978s-1.293-1.806-2.21-2.344a4.025 4.025 0 0 0-2.771-.262 14.138 14.138 0 0 0-5.178 2.058 2.548 2.548 0 0 1-1.731.621 2.323 2.323 0 0 1-1.246-1 .535.535 0 0 1 .016-.056l-.04-.051a7.6 7.6 0 0 0-.568 2.987 4.563 4.563 0 0 0 .018.489v.169a.949.949 0 0 1 0 .137.828.828 0 0 1-.027.21 1.57 1.57 0 0 1-.342.54 2.946 2.946 0 0 0-.3.442c.016-.054.031-.108.049-.161a2.511 2.511 0 0 0-.378 1.256 1.333 1.333 0 0 0 .275.9 3.957 3.957 0 0 0 .595.523 7.889 7.889 0 0 0 3.332 7.915c.043.112.083.227.125.342a10.57 10.57 0 0 1 .671 4.354 6.402 6.402 0 0 1-.045.318c-.047.054-.092.11-.132.166s-6.039.064-7.45-1.342-3.578 3.422-3.578 3.422-2.163.46-2.594 0-2.966-.064-2.966-.064a5.226 5.226 0 0 0-3.769-1.5 10.93 10.93 0 0 0-2.767-1.682l-.069-.027a2.885 2.885 0 0 0-1.36-.188 29.573 29.573 0 0 1-3.829-4.116c-.863-1.428-4.985-6.771-5-6.8l-.016-.244-.047-.777a2.378 2.378 0 0 1-.369.034l-.083-.269a15.353 15.353 0 0 0-.877-2.2s0-.978.262-1.222-.107-3.84-.107-3.84-2.673-6.83-5.066-1.731c0 0-4.524 3.3-.727 7.138 0 0 1.514.8 1.729 1.44.141.413.655 1.564 1 2.332l.154.342-.042.039.056.64.022.244c-.716.445-1.2.882-1.082 1.222a7.791 7.791 0 0 1 .432 1.765s5.251 7.189 5.931 10.267c0 0 14.09 9.15 18.72 9.8l-.8 4.574s-.248 2.745-.186 3.725-.557 5.427-.557 5.427-.8 6.534-1.483 7.448-.555 4.838-.555 4.838a35.777 35.777 0 0 1-.928 5.556 15.628 15.628 0 0 0-.183 5.554s-2.348 5.884 3.274 1.9c0 0 2.76-.188 5.938-.306v.345c0 .447-.013.931-.018 1.442-.042 3.368-.06 8.01.078 11.523.246 6.209 1.977 18.5 1.977 18.5v6.172a9.083 9.083 0 0 0-.163 1.765 12.313 12.313 0 0 0 1.523 6.18l.382 4.075a17.3 17.3 0 0 1 1.036 4.334 2.583 2.583 0 0 1-.045.394 3.1 3.1 0 0 0-.049.631 38.434 38.434 0 0 0 .973 6.341s.063 4.51.671 4.772c.528.222-.7 2.6-1.074 3.28a.872.872 0 0 0-.022-.13c-.047.088-.076.137-.076.137a3.465 3.465 0 0 0-.192 1.139 1.7 1.7 0 0 0 .684 1.586c1.174.785 1.8 1.437.81 1.711a10.053 10.053 0 0 0-1.089.244c-.018-.051-.036-.1-.051-.152a.747.747 0 0 0-.407.79 3.594 3.594 0 0 0 .369 1.53 16.847 16.847 0 0 0 1.673 3.334l.474-.059a2.913 2.913 0 0 1-.275.557 2.048 2.048 0 0 1-.7.677 1.991 1.991 0 0 1-.843.315 2.321 2.321 0 0 0-1.751.931 2.1 2.1 0 0 0 .224 3.1l4.419 1.667s7.6 1.078 7.195-.785-.646-3.5-.646-3.5a7.991 7.991 0 0 0-.617-3.3 4.048 4.048 0 0 0-.268-.489l.268-.034s.555-4.117 1.3-4.889c.17-.181.208-.32.168-.425.078-.225-.116-.357-.365-.43l-.054.161a3.309 3.309 0 0 0-.738-.09s-.248-2.156.555-2.933a.878.878 0 0 0 .157-.641 3.778 3.778 0 0 0-.083-.878c0 .015-.018.034-.029.049a33.688 33.688 0 0 0-1.774-5.067 6.725 6.725 0 0 1 .432-2.743c.494-.787-.06-10.655-.06-10.655a35.206 35.206 0 0 0-.371-6.991 8.488 8.488 0 0 1 .671-4.838 1.076 1.076 0 0 0-.013-.142l.016-.034s-.027-.293-.072-.75a.345.345 0 0 0-.016.044c-.123-1.261-.36-3.549-.532-4.608-.248-1.5.06-8.692.06-8.692l1.118-3.07 1.977 5.292 2.1 7.06a6.335 6.335 0 0 1 1.065 3 1.211 1.211 0 0 1-.013.22 4.318 4.318 0 0 0-.025.472 4.487 4.487 0 0 0 .64 2.515s.557 3.332 1.422 4.183a3.991 3.991 0 0 1 .863 2.483 44.973 44.973 0 0 0 1.546 5.686 9 9 0 0 1 .434 3.288v.176s.145 1.728.141 3.178c0 .178 0 .352-.016.516v-.037a5.677 5.677 0 0 1-.127 1.176.558.558 0 0 0-.018.066 1.122 1.122 0 0 1 .018-.244 13.5 13.5 0 0 0-.309 3.014c-.029 1.738.224 3.8 1.176 5.006 1.669 2.092 2.72 1.831 2.72 1.831s-.805 2.613-1.789 3.136a.64.64 0 0 0-.105.073 1.184 1.184 0 0 0-.025-.152 1.344 1.344 0 0 0-.289.978 7.387 7.387 0 0 0 1.223 3.874 1.95 1.95 0 0 0 .834.533 1.826 1.826 0 0 1-.157.105 2.85 2.85 0 0 1-.34.174 1.517 1.517 0 0 1-.5.144 2.3 2.3 0 0 0-1.756.919 2.1 2.1 0 0 0 .224 3.1l4.419 1.667s7.588 1.079 7.183-.779z" class="cls-16" data-name="Caminho 2423" transform="translate(-380.764 -159.044)"/>
        <path id="Caminho_2424" d="M635.406 840.572l-4.276-1.667a2.149 2.149 0 0 1-.208-3.1 2.224 2.224 0 0 1 1.693-.931 1.893 1.893 0 0 0 .816-.315 2.015 2.015 0 0 0 .671-.677 3.683 3.683 0 0 0 .488-1.806s4.7-1.5 5.98 0a3.8 3.8 0 0 1 .568.912 8.425 8.425 0 0 1 .6 3.3s.239 1.63.626 3.5-6.958.784-6.958.784z" class="cls-17" data-name="Caminho 2424" transform="translate(-506.566 -634.433)"/>
        <path id="Caminho_2425" d="M728.981 831.152l-4.276-1.667a2.15 2.15 0 0 1-.208-3.1 2.212 2.212 0 0 1 1.693-.931 1.433 1.433 0 0 0 .49-.144 2.764 2.764 0 0 0 .329-.174 3.077 3.077 0 0 0 1.165-2.484s4.7-1.5 5.981 0a3.642 3.642 0 0 1 .447.667 8.014 8.014 0 0 1 .716 3.549s.239 1.633.628 3.5-6.965.784-6.965.784z" class="cls-17" data-name="Caminho 2425" transform="translate(-579.215 -627.316)"/>
        <path id="Caminho_2426" d="M653.6 832.076a3.8 3.8 0 0 1 .568.912l-7.036.892a3.684 3.684 0 0 0 .487-1.806s4.695-1.499 5.981.002z" class="cls-7" data-name="Caminho 2426" transform="translate(-519.588 -634.434)"/>
        <path id="Caminho_2427" d="M744.134 823.322v1.44c-1.094 1.97-6.387 1.54-7.924.55a2.765 2.765 0 0 0 .329-.173 3.077 3.077 0 0 0 1.165-2.484s4.7-1.5 5.981 0a3.629 3.629 0 0 1 .449.667z" class="cls-7" data-name="Caminho 2427" transform="translate(-588.745 -627.316)"/>
        <path id="Caminho_2428" d="M651.3 565.934a13.558 13.558 0 0 0-.836 1.956v5.168c-1.2 2.156-7.416 1.437-8.253.261s-1.733-4.248-.778-4.771 1.731-3.136 1.731-3.136-1.018.262-2.632-1.831-1.136-6.732-.834-7.842a25.125 25.125 0 0 0 0-4.838 10.54 10.54 0 0 0-.418-3.464 45.7 45.7 0 0 1-1.483-5.686 4.088 4.088 0 0 0-.839-2.484c-.839-.851-1.375-4.182-1.375-4.182a4.612 4.612 0 0 1-.6-2.808 6.033 6.033 0 0 0-1.018-3.4l-2.033-7.057-1.912-5.295-1.076 3.073s-.3 7.189-.06 8.692.6 5.49.6 5.49a8.718 8.718 0 0 0-.658 4.835 36.6 36.6 0 0 1 .36 6.994s.537 9.868.058 10.653a6.935 6.935 0 0 0-.418 2.745s2.46 5.749 1.675 6.534-.539 2.933-.539 2.933 1.675 0 .957.785-1.257 4.889-1.257 4.889l-7.228.917a16.424 16.424 0 0 1-1.619-3.334c-.948-2.418.179-2.156 1.141-2.418s.353-.914-.783-1.711-.479-2.549-.479-2.549 1.733-3.2 1.136-3.464-.658-4.772-.658-4.772-1.2-5.358-.895-6.8-.968-4.879-.968-4.879l-.418-4.119a12.243 12.243 0 0 1-1.315-7.776v-6.331s-1.675-12.286-1.914-18.495c-.152-3.977-.11-9.4-.06-12.789.029-1.9.06-3.158.06-3.158l25.832-2.933a25.277 25.277 0 0 0 .47 4.195c.262 1.55.671 3.557 1.324 6.067a30.042 30.042 0 0 1 .718 12.547l-.239 9.081s2.272 6.079 1.789 8.169a18.9 18.9 0 0 0-.479 3.791s5.088 13.264 4.549 17.128 1.675 9.934 1.675 9.934.599 4.307-.001 5.485z" class="cls-18" data-name="Caminho 2428" transform="translate(-495.076 -376.134)"/>
        <path id="Caminho_2429" d="M709.34 659.224l7.864-1.144s-4.456 4.967-7.864 1.144z" class="cls-19" data-name="Caminho 2429" transform="translate(-567.884 -503.475)"/>
        <path id="Caminho_2430" d="M734.436 623.73s.268 3.039-1.436 4.183c0 0 3.051-.523 1.436-4.183z" class="cls-7" data-name="Caminho 2430" transform="translate(-586.253 -477.521)"/>
        <path id="Caminho_2431" d="M705 584.16s-6.573 5.913-8.964 5.424S705 584.16 705 584.16z" class="cls-7" data-name="Caminho 2431" transform="translate(-557.296 -447.624)"/>
        <path id="Caminho_2432" d="M647.893 674.13s-4.992 1.239-5.144 3.422 5.144-3.422 5.144-3.422z" class="cls-7" data-name="Caminho 2432" transform="translate(-516.184 -515.602)"/>
        <path id="Caminho_2433" d="M651.889 785.61s-7.056 1.44-5.052 2.42a31.915 31.915 0 0 0 5.292 1.763s2.271.131-.24-4.183z" class="cls-19" data-name="Caminho 2433" transform="translate(-519.082 -599.831)"/>
        <g id="Grupo_747" class="cls-20" data-name="Grupo 747" transform="translate(120.47 116.142)">
            <path id="Caminho_2434" d="M638.561 798.417a1.541 1.541 0 0 1-.646-1.117l-.072.137s-.658 1.765.479 2.549l.369.264c.208-.042.434-.073.653-.134.961-.262.356-.916-.783-1.699z" data-name="Caminho 2434" transform="translate(-632.701 -724.805)"/>
            <path id="Caminho_2435" d="M681.193 795.582c.192-.2.186-.7.067-1.342a3.918 3.918 0 0 0-.4 1.892 1.579 1.579 0 0 1 .333-.55z" data-name="Caminho 2435" transform="translate(-666.243 -722.493)"/>
            <path id="Caminho_2436" d="M675.836 666.72a9.465 9.465 0 0 0-.476 2.4 10.05 10.05 0 0 1 .546-1.65l-.07-.75z" data-name="Caminho 2436" transform="translate(-661.973 -626.145)"/>
            <path id="Caminho_2437" d="M749.27 650.474a3.108 3.108 0 0 0 .065-.714c-.087.489-.15.941-.194 1.337.037-.203.08-.411.129-.623z" data-name="Caminho 2437" transform="translate(-719.252 -613.33)"/>
            <path id="Caminho_2438" d="M676.155 757.282a4.57 4.57 0 0 0 .179-1.452 5.515 5.515 0 0 0-.344 1.833 1.863 1.863 0 0 1 .165-.381z" data-name="Caminho 2438" transform="translate(-662.463 -693.472)"/>
            <path id="Caminho_2439" d="M647.689 812.19a27.667 27.667 0 0 0-.825 4.014l-7.231.914a16.341 16.341 0 0 1-1.619-3.332c-.083-.213-.15-.4-.2-.577-.434.217-.6.709-.036 2.144a17.084 17.084 0 0 0 1.619 3.334l7.231-.922s.539-4.116 1.257-4.889c.349-.39.124-.588-.196-.686z" data-name="Caminho 2439" transform="translate(-632.513 -736.055)"/>
            <path id="Caminho_2440" d="M621.128 565.127s.06 4.51.658 4.771c.3-.746.5-1.467.224-1.572-.6-.259-.658-4.769-.658-4.769s-1.2-5.361-.895-6.8-.957-4.9-.957-4.9l-.418-4.116a12.251 12.251 0 0 1-1.315-7.778v-6.336s-1.675-12.288-1.914-18.5c-.152-3.975-.109-9.4-.06-12.787 0-.614.02-1.156.029-1.613l-.208.022s-.031 1.259-.06 3.158c-.049 3.386-.092 8.8.06 12.789.239 6.209 1.914 18.495 1.914 18.495v6.341a12.242 12.242 0 0 0 1.315 7.776l.418 4.119s1.255 3.464.957 4.889.91 6.811.91 6.811z" data-name="Caminho 2440" transform="translate(-615.507 -500.73)"/>
            <path id="Caminho_2441" d="M730.861 815.534a8.028 8.028 0 0 1-1.145-3.1c-.738.733.109 3.557.895 4.674.836 1.176 7.056 1.894 8.253-.261V815.6c-1.606 1.751-7.211 1.047-8.003-.066z" data-name="Caminho 2441" transform="translate(-703.953 -736.237)"/>
            <path id="Caminho_2442" d="M773.549 794.746a13.427 13.427 0 0 0-.839 1.955v.917c.136-.335.331-.782.6-1.308a4.291 4.291 0 0 0 .262-1.621l-.023.057z" data-name="Caminho 2442" transform="translate(-737.551 -722.833)"/>
            <path id="Caminho_2443" d="M725.579 769.286a13.1 13.1 0 0 0 .59-1.552s-1.018.262-2.632-1.828c-1.174-1.523-1.241-4.4-1.074-6.275-.3 1.112-.778 5.752.834 7.842a4.265 4.265 0 0 0 2.282 1.813z" data-name="Caminho 2443" transform="translate(-698.303 -696.344)"/>
            <path id="Caminho_2444" d="M686.838 628.743a38.058 38.058 0 0 1 .119 3.874 6.007 6.007 0 0 1 .123-.606 25.11 25.11 0 0 0 0-4.835 10.536 10.536 0 0 0-.418-3.464 46.314 46.314 0 0 1-1.505-5.686 4.091 4.091 0 0 0-.836-2.483c-.837-.848-1.375-4.182-1.375-4.182a4.623 4.623 0 0 1-.6-2.811 6.03 6.03 0 0 0-1.018-3.4l-2.033-7.06-1.912-5.292-1.078 3.07s-.016.386-.036.992l.874-2.5 1.912 5.295 2.033 7.057a6.032 6.032 0 0 1 1.017 3.4 4.613 4.613 0 0 0 .6 2.809s.539 3.334 1.375 4.182a4.152 4.152 0 0 1 .852 2.484 46.019 46.019 0 0 0 1.5 5.686 10.464 10.464 0 0 1 .406 3.47z" data-name="Caminho 2444" transform="translate(-662.68 -570.294)"/>
        </g>
        <path id="Caminho_2445" d="M725.573 228.931l-.447 2.386.027 1.061.018.785-2.5.269-.28-.565a25.4 25.4 0 0 0-1.937-3.422c-.461-.425-1.284-7.06-.3-6.666a2.714 2.714 0 0 1 1.389 1.374s4.907.622 4.03 4.778z" class="cls-21" data-name="Caminho 2445" transform="translate(-575.918 -174.567)"/>
        <path id="Caminho_2446" d="M734.525 261.83l-2.5.281-.28-.565a2.073 2.073 0 0 1 2.755-.489z" class="cls-7" data-name="Caminho 2446" transform="translate(-585.282 -203.247)"/>
        <path id="Caminho_2447" d="M734.679 263.938l-3.294.846-.069-.538-.186-1.44a2.155 2.155 0 0 1 3.185-.477l.163.733z" class="cls-22" data-name="Caminho 2447" transform="translate(-584.801 -204.065)"/>
        <path id="Caminho_2448" d="M481.13 213.549l-3.507 2.063s-.134-.3-.318-.733c-.335-.765-.832-1.919-.968-2.332-.208-.636-1.675-1.437-1.675-1.437-3.675-3.84.7-7.14.7-7.14 2.317-5.1 4.9 1.731 4.9 1.731s.358 3.6.105 3.84-.253 1.222-.253 1.222a15.629 15.629 0 0 1 .845 2.2c.113.366.171.586.171.586z" class="cls-21" data-name="Caminho 2448" transform="translate(-384.553 -158.941)"/>
        <path id="Caminho_2449" d="M495.4 247.111l-3.507 2.063s-.134-.3-.318-.733c.494-.452 2.252-2.009 2.829-1.938a3.845 3.845 0 0 0 .832.022c.11.366.164.586.164.586z" class="cls-7" data-name="Caminho 2449" transform="translate(-398.827 -192.504)"/>
        <path id="Caminho_2450" d="M496.091 249.083l-3.948 2.127-.078-.929-.065-.65s2.286-2.141 2.961-2.058a3.238 3.238 0 0 0 1.031 0l.045.777z" class="cls-22" data-name="Caminho 2450" transform="translate(-399.153 -193.312)"/>
        <path id="Caminho_2451" d="M653.231 267.68s-17.208 2.122-13.992.978a4.612 4.612 0 0 0 3.315-4.08 10.65 10.65 0 0 0-.64-4.351 19.479 19.479 0 0 0-1.539-3.4s13.155-7.91 10.512-.733a12.434 12.434 0 0 0-.745 3.408 10.5 10.5 0 0 0 3.089 8.177z" class="cls-21" data-name="Caminho 2451" transform="translate(-513.151 -197.479)"/>
        <path id="Caminho_2452" d="M656.233 256.131a12.436 12.436 0 0 0-.745 3.408c-1.239 1.137-2.6 1.063-4.343 1.063-1.342 0-2.825.354-3.9-.352a19.477 19.477 0 0 0-1.539-3.4s13.159-7.909 10.527-.719z" class="cls-7" data-name="Caminho 2452" transform="translate(-518.485 -197.499)"/>
        <ellipse id="Elipse_171" cx="7.117" cy="7.778" class="cls-21" data-name="Elipse 171" rx="7.117" ry="7.778" transform="translate(125.31 48.045)"/>
        <path id="Caminho_2453" d="M653.231 295.695s-17.208 2.122-13.992.978a4.612 4.612 0 0 0 3.315-4.08 9.222 9.222 0 0 1 3.684-2.134 4.743 4.743 0 0 1 3.131-.056 4.147 4.147 0 0 1 1.134.577 10.431 10.431 0 0 0 2.728 4.715z" class="cls-7" data-name="Caminho 2453" transform="translate(-513.151 -225.494)"/>
        <path id="Caminho_2454" d="M735.324 267.5l-3.294.846-.069-.538a2.773 2.773 0 0 1 3.163-1.181z" class="cls-7" data-name="Caminho 2454" transform="translate(-585.445 -207.622)"/>
        <path id="Caminho_2455" d="M496.316 251.508l-3.948 2.127-.078-.929a27.779 27.779 0 0 1 3.981-1.926z" class="cls-7" data-name="Caminho 2455" transform="translate(-399.378 -195.737)"/>
        <path id="Caminho_2456" d="M642.122 493.72c-6.665 1.149-16.15 2.647-17.655 2.146-1.248-.415-5.236-.372-8.707-.244.029-1.9.06-3.158.06-3.158l25.832-2.933a25.257 25.257 0 0 0 .47 4.189z" class="cls-7" data-name="Caminho 2456" transform="translate(-495.234 -376.126)"/>
        <path id="Caminho_2457" d="M549.3 312.428s-21.945 4.119-24.3 3.334-14.446.066-14.446.066c-5.442 3.985-3.169-1.9-3.169-1.9a15.931 15.931 0 0 1 .179-5.554 36.858 36.858 0 0 0 .895-5.556s-.119-3.911.539-4.835 1.434-7.451 1.434-7.451.6-4.444.539-5.424.179-3.725.179-3.725l.781-4.566c-4.473-.653-18.116-9.8-18.116-9.8-.658-3.073-5.741-10.267-5.741-10.267a8.15 8.15 0 0 0-.418-1.765c-.36-1.046 5.023-3.136 5.023-3.136s4.006 5.358 4.842 6.8a28.718 28.718 0 0 0 3.708 4.119 2.652 2.652 0 0 1 1.315.188.253.253 0 0 1 .069.022 10.719 10.719 0 0 1 2.684 1.679 5 5 0 0 1 3.648 1.5s2.46-.391 2.87.066 2.512 0 2.512 0 2.093-4.838 3.469-3.422 7.211 1.34 7.211 1.34c.778-1.129 2.67-1.938 3.854-2.356a4.743 4.743 0 0 1 3.131-.056 3.837 3.837 0 0 1 1.23.65l3.54 3.789s1.018-1.437.895-1.765 1.2-.587 1.2-.587 1.733-.589 2.391-.785 1.261.582 1.315.65a8.261 8.261 0 0 1-.3-2.872 3.57 3.57 0 0 0-.718-2.354c2.093-5.622 6.817-.914 6.817-.914s.539 3.073.06 4.248.479 3.667.358 4.312.239 1.765.239 3.007a19.2 19.2 0 0 1-.957 4.645c-.36 1.049-3.241 3.386-3.241 3.386a15.907 15.907 0 0 1-1.436 5.881c-1.255 2.156-.479 9.533-.479 9.533s1.2 5.752 2.684 7.578 3.71 12.297 3.71 12.297z" class="cls-23" data-name="Caminho 2457" transform="translate(-395.763 -196.545)"/>
        <path id="Caminho_2458" d="M609.93 311.367s-.658-2.156-1.255-2.354a13.373 13.373 0 0 1-1.736-.848l.385-.8s2.248.672 2.606 1.391a6.175 6.175 0 0 1 0 2.611z" class="cls-7" data-name="Caminho 2458" transform="translate(-488.386 -238.486)"/>
        <path id="Caminho_2459" d="M547.682 298.956c-.119.655-5.442 1.242-5.442 1.242l2.684-2.948.067.024a10.487 10.487 0 0 1 2.691 1.682z" class="cls-7" data-name="Caminho 2459" transform="translate(-438.157 -230.848)"/>
        <ellipse id="Elipse_172" cx=".479" cy=".523" class="cls-18" data-name="Elipse 172" rx=".479" ry=".523" transform="translate(93.647 58.614)"/>
        <ellipse id="Elipse_173" cx=".479" cy=".523" class="cls-18" data-name="Elipse 173" rx=".479" ry=".523" transform="translate(94.26 59.661)"/>
        <ellipse id="Elipse_174" cx=".479" cy=".523" class="cls-18" data-name="Elipse 174" rx=".479" ry=".523" transform="translate(94.86 60.626)"/>
        <ellipse id="Elipse_175" cx=".479" cy=".523" class="cls-18" data-name="Elipse 175" rx=".479" ry=".523" transform="translate(95.486 61.67)"/>
        <ellipse id="Elipse_176" cx=".389" cy=".425" class="cls-18" data-name="Elipse 176" rx=".389" ry=".425" transform="translate(151.941 61.711)"/>
        <ellipse id="Elipse_177" cx=".389" cy=".425" class="cls-18" data-name="Elipse 177" rx=".389" ry=".425" transform="translate(152.001 62.675)"/>
        <ellipse id="Elipse_178" cx=".389" cy=".425" class="cls-18" data-name="Elipse 178" rx=".389" ry=".425" transform="translate(152.055 63.64)"/>
        <path id="Caminho_2460" d="M620.439 396.2c-.054-.076 13.419 18.529 23.889 7.778 0-.005-16.528 2.451-23.889-7.778z" class="cls-7" data-name="Caminho 2460" transform="translate(-498.866 -305.609)"/>
        <path id="Caminho_2461" d="M585.82 435.77s8.065.244 8.91 2.777v2.637a1.423 1.423 0 0 1-1.5 0c-.814-.489-5.69-3.178-7.41-1.885z" class="cls-7" data-name="Caminho 2461" transform="translate(-471.99 -335.507)"/>
        <path id="Caminho_2462" d="M586.49 435.77s7.714.23 8.521 2.647v2.515a1.363 1.363 0 0 1-1.436 0c-.776-.457-5.442-3.039-7.085-1.8z" class="cls-23" data-name="Caminho 2462" transform="translate(-472.51 -335.507)"/>
        <path id="Caminho_2463" d="M605.51 357.46a29.206 29.206 0 0 0 3.131 5.867 22.04 22.04 0 0 0 4.9 5.167s-7.897-9.822-8.031-11.034z" class="cls-7" data-name="Caminho 2463" transform="translate(-487.276 -276.34)"/>
        <path id="Caminho_2464" d="M593.71 315.55s1.342 6.355 4.813 8.507z" class="cls-7" data-name="Caminho 2464" transform="translate(-478.115 -244.674)"/>
        <path id="Caminho_2465" d="M584.064 318.174c-.034-.117-1.194 5.021 4.473 7.864-.002 0-2.408-.893-4.473-7.864z" class="cls-7" data-name="Caminho 2465" transform="translate(-470.534 -246.655)"/>
        <path id="Caminho_2466" d="M741.993 300.747a41.858 41.858 0 0 1 3.578 2.933c0 .008-1.883-3.065-3.578-2.933z" class="cls-7" data-name="Caminho 2466" transform="translate(-593.233 -233.487)"/>
        <path id="Caminho_2467" d="M639.786 228.6a1.661 1.661 0 0 0 .555 1.051 1.412 1.412 0 0 0 .671.164 13.3 13.3 0 0 0 6.435-.662 2.426 2.426 0 0 0 .977-.709 4.629 4.629 0 0 0 .568-1.711 25.877 25.877 0 0 1 1.315-3.3 12.043 12.043 0 0 0 .7-5.93 4.27 4.27 0 0 0-.544-1.738c-.577-.9-1.624-1.261-2.386-1.975s-1.25-1.806-2.138-2.344a3.79 3.79 0 0 0-2.684-.262 13.431 13.431 0 0 0-5.01 2.056 1.687 1.687 0 0 1-2.905-.408 7.826 7.826 0 0 0-.535 3.388 1.569 1.569 0 0 1-.016.511 1.531 1.531 0 0 1-.331.538 2.118 2.118 0 0 0-.34 2.444c.224.3.584.462.807.765a3.347 3.347 0 0 1 .257 2.031 1.109 1.109 0 0 0 .157.689.868.868 0 0 0 .879.23 2.234 2.234 0 0 1 .935-.1 1.592 1.592 0 0 1 .814.684 12.7 12.7 0 0 1 1.819 4.588z" class="cls-17" data-name="Caminho 2467" transform="translate(-509.282 -165.723)"/>
        <g id="Grupo_748" class="cls-24" data-name="Grupo 748" transform="translate(124.573 47.015)">
            <path id="Caminho_2468" d="M648.663 247.858a2.426 2.426 0 0 1-.977.709 13.189 13.189 0 0 1-6.434.66 1.382 1.382 0 0 1-.671-.161 1.71 1.71 0 0 1-.555-1.051 12.76 12.76 0 0 0-1.814-4.6 1.592 1.592 0 0 0-.814-.684 2.235 2.235 0 0 0-.935.1.871.871 0 0 1-.879-.23 1.11 1.11 0 0 1-.157-.689 3.428 3.428 0 0 0-.257-2.031c-.224-.306-.577-.467-.81-.765a1.66 1.66 0 0 1-.136-1.562 1.918 1.918 0 0 0-.1 2.083c.224.3.584.462.807.768a3.36 3.36 0 0 1 .257 2.031 1.109 1.109 0 0 0 .157.689.868.868 0 0 0 .879.23 2.233 2.233 0 0 1 .935-.1 1.593 1.593 0 0 1 .814.684 12.829 12.829 0 0 1 1.814 4.6 1.673 1.673 0 0 0 .555 1.051 1.383 1.383 0 0 0 .671.161 13.3 13.3 0 0 0 6.434-.66 2.426 2.426 0 0 0 .977-.709 2.138 2.138 0 0 0 .309-.631c-.023.036-.046.073-.07.107z" data-name="Caminho 2468" transform="translate(-633.856 -232.756)"/>
            <path id="Caminho_2469" d="M638.095 221.709a1.128 1.128 0 0 0 .224-.394 1.565 1.565 0 0 0 .016-.511 7.911 7.911 0 0 1 .333-2.814l-.038-.051a7.822 7.822 0 0 0-.535 3.388 2.186 2.186 0 0 1 0 .382z" data-name="Caminho 2469" transform="translate(-637.134 -217.94)"/>
        </g>
        <path id="Caminho_2470" d="M654.69 301.561s8.89 1.288 9.689-.171" class="cls-7" data-name="Caminho 2470" transform="translate(-525.457 -233.976)"/>
        <path id="Caminho_2471" d="M732 285.65s4.938 0 6.025 2.029" class="cls-7" data-name="Caminho 2471" transform="translate(-585.476 -222.083)"/>
    </g>
</svg>
