<svg xmlns="http://www.w3.org/2000/svg" width="234" height="188.464" viewBox="0 0 234 188.464">
    <defs>
        <style>
            .cls-1{fill:#4052a9}.cls-1,.cls-11,.cls-9{opacity:.1}.cls-2{opacity:.8}.cls-3{fill:#40a96e}.cls-4{fill:#444053}.cls-5,.cls-6{fill:none;stroke:#444053;stroke-miterlimit:10}.cls-6{stroke-width:.75px}.cls-7{fill:url(#linear-gradient)}.cls-8{fill:#fbbebe}.cls-10,.cls-11{fill:#c6c6c6}.cls-12{fill:#3f3d56}.cls-13{fill:#39374d}
        </style>
        <linearGradient id="linear-gradient" x1=".5" x2=".5" y1="1" gradientUnits="objectBoundingBox">
            <stop offset="0" stop-color="gray" stop-opacity=".251"/>
            <stop offset=".54" stop-color="gray" stop-opacity=".122"/>
            <stop offset="1" stop-color="gray" stop-opacity=".102"/>
        </linearGradient>
    </defs>
    <g id="Grupo_686" data-name="Grupo 686" transform="translate(.004 -.05)">
        <path id="Caminho_1888" d="M231.182 118c-15-.419-29.289-4.318-42.932-8.583s-27.156-9-41.8-11.26c-9.418-1.454-20.189-1.66-27.775 2.406-7.3 3.908-9.663 10.655-10.931 16.934-.955 4.714-1.516 9.675 1.1 14.088 1.817 3.064 5.039 5.639 7.269 8.575 7.758 10.213 2.274 22.8-6.131 32.775-3.94 4.677-8.518 9.138-11.562 14.118s-4.45 10.682-1.787 15.764c2.638 5.023 8.926 8.814 15.738 11.473 13.835 5.4 30.132 6.947 46.035 7.824 35.192 1.939 70.57 1.1 105.855.251 13.059-.311 26.173-.625 39.019-2.261 7.134-.9 14.5-2.336 19.679-5.795 6.573-4.39 8.2-11.825 3.8-17.331-7.389-9.236-27.815-11.531-32.986-21.443-2.842-5.455.077-11.531 4.209-16.592 8.864-10.853 23.719-20.375 24.5-32.783.538-8.52-6.6-17.055-17.646-21.086-11.573-4.225-27.624-3.695-36.159 3.3-8.797 7.217-24.248 9.99-37.495 9.626z" class="cls-1" data-name="Caminho 1888" transform="translate(-95.23 -91.542)"/>
        <g id="Grupo_685" class="cls-2" data-name="Grupo 685" transform="translate(168.059 .05)">
            <path id="Caminho_1889" d="M869.833 119.742s-2.615-1.15-10.931 2.984-9.355 3.609-11.508 2.976-3.354-.781-5.662-4.232c0 0-1.623-9.562-3.2-11.052s-8.27.846-8.27.846-8.025 2-9.564-9.627c0 0 1.085-8.761-.394-11.451 0 0 2.985 1.394 7.909-.857s8.864 2.426 8.864 2.426a18.742 18.742 0 0 1 1.113 5.558c-.13 2.075.656 2.858 3.013 1.854 0 0 1.159-1.778-.48-4.717s-2.8-5.129-2.343-7.412a9.02 9.02 0 0 1 5.978-7.033c4.212-1.587 9.934-1.884 12.681-3.109s3.41-2.047 3.41-2.047-1.69 1.836 2.292 9.612 1.444 11.155 1.444 11.155-2.119 5.471-11.469 5.023c0 0-9.01.357-4.1 4.5a79.031 79.031 0 0 0 7.851-2.313c4.705-1.62 8.1 5.066 8.94 9.718a12.183 12.183 0 0 0 4.426 7.198z" class="cls-3" data-name="Caminho 1889" transform="translate(-820.3 -74.85)"/>
            <path id="Caminho_1890" d="M958.237 98.245l.049-.015c.362 1.484-3.665 7.447-7.107 12.189l-.039-.033c4.854-6.686 7.385-11.001 7.097-12.141z" class="cls-4" data-name="Caminho 1890" transform="translate(-920.813 -92.358)"/>
            <path id="Caminho_1891" d="M918.922 146.24l.021.06c-2.749 3.788-6.207 8.309-8.975 11.657-.264.319-.526.653-.776 1l-.081-.068c.255-.344.517-.681.781-1a258.161 258.161 0 0 0 9.03-11.649z" class="cls-4" data-name="Caminho 1891" transform="translate(-888.525 -128.309)"/>
            <path id="Caminho_1892" d="M888.228 196.22l.056.1c-5.037 6.814-5.37 17.394-5.382 17.487l-1.062-1.316c.012-.106 1.317-9.412 6.388-16.271z" class="cls-4" data-name="Caminho 1892" transform="translate(-867.576 -165.735)"/>
            <path id="Caminho_1893" d="M878.913 172.322s-5.938-3.346-10.567-2.145-15.048-4.245-15.048-4.245-4.425-1.947-5.315-4.167c0 0-3.034-3.479-3.208-5.275s-3.136-6.327-5.055-6.49" class="cls-5" data-name="Caminho 1893" transform="translate(-835.219 -131.124)"/>
            <path id="Caminho_1894" d="M996.249 237.59s-2.99-2.183-2.642-4.73" class="cls-5" data-name="Caminho 1894" transform="translate(-953.415 -193.172)"/>
            <path id="Caminho_1895" d="M969.708 238.209s-4.279-1.683-4.708-8.289" class="cls-5" data-name="Caminho 1895" transform="translate(-931.46 -190.971)"/>
            <path id="Caminho_1896" d="M945.564 239.617a10.846 10.846 0 0 1-2.73-10.1" class="cls-5" data-name="Caminho 1896" transform="translate(-914.22 -190.671)"/>
            <path id="Caminho_1897" d="M915.421 232.13s-2.721-6.186-.3-10.21" class="cls-5" data-name="Caminho 1897" transform="translate(-892.372 -184.98)"/>
            <path id="Caminho_1898" d="M1000.749 222.63s-3.094 1.065-2.429 2.828" class="cls-5" data-name="Caminho 1898" transform="translate(-956.985 -185.512)"/>
            <path id="Caminho_1899" d="M978.957 198.41s-4.14 1.422-4.237 7.769" class="cls-5" data-name="Caminho 1899" transform="translate(-938.927 -167.375)"/>
            <path id="Caminho_1900" d="M956.455 192.58s-3.767 5.039-3.5 9.617" class="cls-5" data-name="Caminho 1900" transform="translate(-922.197 -163.01)"/>
            <path id="Caminho_1901" d="M928.676 200.45s-3.743 3.876-3.266 6.028" class="cls-5" data-name="Caminho 1901" transform="translate(-901.015 -168.903)"/>
            <path id="Caminho_1902" d="M916.648 193.308s-3.509.681-4-.568" class="cls-5" data-name="Caminho 1902" transform="translate(-891.244 -163.129)"/>
            <path id="Caminho_1903" d="M910.23 176.72s1.773 2.544 2.23 1.974" class="cls-5" data-name="Caminho 1903" transform="translate(-889.385 -151.133)"/>
            <path id="Caminho_1904" d="M950.105 163.773s-8.845.7-10.845-2.193" class="cls-5" data-name="Caminho 1904" transform="translate(-911.687 -139.796)"/>
            <path id="Caminho_1905" d="M902.2 125.68s4.151 9.653 7.165 10.883" class="cls-5" data-name="Caminho 1905" transform="translate(-883.217 -112.913)"/>
            <path id="Caminho_1906" d="M921 107.37s2.55 8.879 5.707 11.652" class="cls-5" data-name="Caminho 1906" transform="translate(-897.659 -99.202)"/>
            <path id="Caminho_1907" d="M966.434 141.028s-6.722 3.127-10.764-.038" class="cls-6" data-name="Caminho 1907" transform="translate(-924.293 -124.378)"/>
            <path id="Caminho_1908" d="M946.84 99.83s1.537 6.53 3.607 8.105" class="cls-6" data-name="Caminho 1908" transform="translate(-917.51 -93.556)"/>
            <path id="Caminho_1909" d="M980.522 112s-3.781 1.55-5.192.362" class="cls-6" data-name="Caminho 1909" transform="translate(-939.396 -102.669)"/>
            <path id="Caminho_1910" d="M891.52 185.21s0 5.689-1.43 6.093" class="cls-5" data-name="Caminho 1910" transform="translate(-873.913 -157.491)"/>
            <path id="Caminho_1911" d="M845.84 206.667s5.679.527 8.3-2.647" class="cls-5" data-name="Caminho 1911" transform="translate(-839.92 -171.576)"/>
            <path id="Caminho_1912" d="M872.832 158.45s-1.372 5.777-5.162 7.324" class="cls-5" data-name="Caminho 1912" transform="translate(-856.69 -137.452)"/>
            <path id="Caminho_1913" d="M831.15 183.381a7.039 7.039 0 0 0 7.475-2.341" class="cls-5" data-name="Caminho 1913" transform="translate(-828.635 -154.368)"/>
            <path id="Caminho_1914" d="M861.259 138.7s-.38 4.9-2.839 7.194" class="cls-5" data-name="Caminho 1914" transform="translate(-849.584 -122.663)"/>
            <path id="Caminho_1915" d="M831.81 157.193s3.335.023 4.117-1.153" class="cls-5" data-name="Caminho 1915" transform="translate(-829.142 -135.647)"/>
        </g>
        <ellipse id="Elipse_124" cx="50.53" cy="3.893" class="cls-1" data-name="Elipse 124" rx="50.53" ry="3.893" transform="translate(10.397 180.728)"/>
        <path id="Caminho_1916" d="M267.57 346.223c.7-1.354 1.527-2.63 2.2-4 .614-1.256 1.094-2.587 1.648-3.878.948-2.21 2.116-4.3 3.18-6.45a8.836 8.836 0 0 0 1.233-4.536c-.127-1.507-.943-2.813-1.259-4.27-1.284-5.98-4.374-11.471-6.258-17.256-.482-1.467-.95-2.944-1.553-4.36a46.915 46.915 0 0 0-4.4-7.6 21.255 21.255 0 0 0-1.947-2.622c-.582-.63-1.235-1.186-1.764-1.869-1.089-1.407-1.6-3.431-2.962-4.521-.023.065-.049.128-.074.193-.976-2.7-4.249-4.481-6.147-6.719a39.391 39.391 0 0 1-3.048-4.335l-4.133-6.473a11.223 11.223 0 0 1-1.725-3.589c-.352-1.6-.025-3.31-.373-4.913a6.384 6.384 0 0 0-1.263-2.6c.039-.013.081-.03.123-.04.788-.229 1.623-.269 2.4-.472 1.7-.44 3.185-1.62 4.881-2.092a11.191 11.191 0 0 0 2.578-.754 2.4 2.4 0 0 0 1-2.466c-.549-3.152.985-6.347.726-9.545-.07-.884-.278-1.746-.413-2.622a30.105 30.105 0 0 1-.144-6.184 12.933 12.933 0 0 1 1.889-2.544 16.345 16.345 0 0 0 3.013-3.373 7.06 7.06 0 0 0 .626-4.049 4.047 4.047 0 0 0-1.159-2.672 2.724 2.724 0 0 0-2.661-.337 3.851 3.851 0 0 0-.362.151 2.827 2.827 0 0 0-2.4-.151 7.21 7.21 0 0 0-2.346 1.6 5.646 5.646 0 0 0-1.094 1.256 7.9 7.9 0 0 0-.746 2.569 26.583 26.583 0 0 1-1.565 4.971c-.125.281-.464.786-.737 1.268l-.5-.111c-.216 2.238-1.945 3.881-3 5.815-.512.939-.872 1.967-1.333 2.939a28.961 28.961 0 0 1-1.759 3.057q-.939 1.507-1.88 2.986a42.407 42.407 0 0 1-2.55 3.737c-.851-.075-1.7-.143-2.55-.158a19.151 19.151 0 0 0-4.244.409 13.857 13.857 0 0 1-.151-1.61v-.1c0-.131.014-.286.03-.455a9.546 9.546 0 0 0 3.8-7.984 9.448 9.448 0 0 0-4.211-7.739 7.3 7.3 0 0 0 .088-.854v-.5a1.282 1.282 0 0 0-.016-.251 3.573 3.573 0 0 0-.079-.5 5.244 5.244 0 0 0-.065-.251 2.469 2.469 0 0 0-.192-.452.216.216 0 0 0-.016-.025c-.03-.053-.06-.105-.1-.156s-.03-.04-.044-.06a1.2 1.2 0 0 0-.079-.105l-.058-.065a1.307 1.307 0 0 0-.079-.088l-.065-.063-.081-.078-.074-.06-.083-.068-.081-.058-.083-.058a.997.997 0 0 0-.088-.055l-.086-.053-.093-.05-.086-.045-.1-.048-.083-.04-.111-.045-.079-.033-.121-.045-.072-.025-.132-.045-.063-.02-.144-.043-.056-.018-.151-.04-.044-.013-.167-.04h-.028l-.246-.058q-1.523-.339-3.064-.585a6.381 6.381 0 0 0-2.533-.048 16.976 16.976 0 0 0-3.171 1.635 20 20 0 0 1-4.019 1.12 5.988 5.988 0 0 0-3.583 2.117 7.785 7.785 0 0 0-1.094 3.21c-1.6 9.454.125 19.152.452 28.762.128 3.74-.028 7.739-1.984 10.8l5.7-.163c.273 0 .549-.018.827-.035s.556-.04.83-.075a5.181 5.181 0 0 0 2.065-.671 3.619 3.619 0 0 0 .8-.678 8.953 8.953 0 0 0 1.565-3.228c.128-.389.255-.784.369-1.18.046-.166.09-.331.13-.5l.019-.08.065.033c.232.472.494.934.772 1.381a29.31 29.31 0 0 0 3.507 4.293c2.487 2.675 5.03 5.4 8.147 7.116a9.7 9.7 0 0 1 2.992 2.009c.394.46.735 1.05 1.293 1.208.348.1.73 0 1.062.161.487.221.665.856.89 1.379s.732 1.055 1.215.816a2.757 2.757 0 0 0 .909 2.62 1.833 1.833 0 0 1 .589.573 2.237 2.237 0 0 1 .121.673 2.714 2.714 0 0 0 .878 1.63c-.452.811-.09 1.974-.079 2.986a12.074 12.074 0 0 1-.433 2.494 19.866 19.866 0 0 0 .185 7.4 8.455 8.455 0 0 0 1.337 3.793c.264.339.579.633.858.962a9.043 9.043 0 0 1 1.31 2.163 18 18 0 0 1 1.421 4.933 9.556 9.556 0 0 0 .672 2.487c.508 1.2.044 2.677.5 3.9a11.762 11.762 0 0 1 .709 1.595 7.822 7.822 0 0 1-.341 2.524c-.264 1.994 1.064 3.845 1.184 5.855a.494.494 0 0 1-.065.339c-.09.111-.246.108-.369.171-.232.121-.294.46-.369.741s-.283.6-.54.515c-3.808 2.208-7.751 4.247-11.559 6.455l-1.738 1-9.3 5.383a.737.737 0 0 0-.373.658c0 .121.014.251.023.364-.651.176-1.277.387-1.722.475-.183.038-.366.075-.547.118a.668.668 0 0 0 .083-.251.49.49 0 0 0-.41-.5 1.38 1.38 0 0 0-.67.1 9.112 9.112 0 0 1-1.623.324 10.721 10.721 0 0 0-1.945.251 2.245 2.245 0 0 0-1.507 1.256 3.281 3.281 0 0 0-.167 1.186 19.592 19.592 0 0 0 .505 4.606.4.4 0 0 0 .169.294c.081.035.178 0 .26.04a.373.373 0 0 1 .151.206 11.083 11.083 0 0 1 .584 3.074q.232 2.323.586 4.634a5.416 5.416 0 0 0 .851 2.532 3.7 3.7 0 0 0 2.438 1.221 15.756 15.756 0 0 0 5.73-.57 1.624 1.624 0 0 0 .967-.475 1.253 1.253 0 0 0 .232-.836 3.371 3.371 0 0 0-1.7-2.338l-1.076-.806a.519.519 0 0 1-.232-.568l.07-1.525h-.209a5.652 5.652 0 0 1 1.335-2.846c.5-.5 1.159-.854 1.685-1.311a3.982 3.982 0 0 0 2.343.932 19.541 19.541 0 0 1 5.308-4.772 50.938 50.938 0 0 1 4.925-2.979q2.054-1.1 4.172-2.062c1.993-.909 4.024-1.721 6.057-2.512a23.409 23.409 0 0 0 3.973-1.826 11.021 11.021 0 0 0 5.1-10.15c-.552-5.124.628-10.464.549-15.623a16.71 16.71 0 0 0-.5-4.458 2.237 2.237 0 0 1 .276.251c.844.854 1.048 2.21 1.854 3.185.628.766 1.583 1.256 1.963 2.19.29.716.248 1.683.853 2.095.172.118.376.168.547.284a1.932 1.932 0 0 1 .508.6 6.949 6.949 0 0 1 1.377 3.265c.03.48-.012 1.035.313 1.359.093.093.211.161.26.286.1.251-.167.517-.213.8-.067.387.285.681.5 1a1.688 1.688 0 0 1 0 1.861c-1.9 2.675-2.244 6.279-3.906 9.14-.575.987-1.215 1.922-1.771 2.921a39.628 39.628 0 0 0-3.414 10.069 5.439 5.439 0 0 0 1.426 1.723 8.781 8.781 0 0 1-1.588 3.177 7.94 7.94 0 0 0-.524.711 1.29 1.29 0 0 0-.517-.422 21.494 21.494 0 0 0-.464 4.4 3.294 3.294 0 0 0 .853 2.65 2.9 2.9 0 0 0 .948.425l1.59.5a1.544 1.544 0 0 0 .879.093c.188-.058.355-.183.547-.224a1.247 1.247 0 0 1 .617.088l1.374.435a8.64 8.64 0 0 1 1.358.52c.392.2.753.467 1.138.693a13.162 13.162 0 0 0 1.986.884l2.369.884a8.1 8.1 0 0 0 2.054.578c.487.045.98 0 1.46.09.366.068.721.211 1.089.251a2.7 2.7 0 0 0 1.715-.553 1.583 1.583 0 0 0 .5-.485 2.048 2.048 0 0 0-.29-1.957 7.5 7.5 0 0 0-2.45-2.763c-.42-.251-.874-.437-1.307-.668-1.233-.653-2.163-1.743-3.328-2.489a.744.744 0 0 0-1 .073 6.959 6.959 0 0 1-2.55-2.454 5.875 5.875 0 0 1-.464-1.7 21.54 21.54 0 0 0 1.648.349 48.513 48.513 0 0 1 3.678-11.061zM245.3 239.1c-.046.284-.1.565-.153.846-.464 2.359-1.126 5-2.642 6.757a5.78 5.78 0 0 1-1.711 1.223l-.169.09a41.3 41.3 0 0 1 4.675-8.916z" class="cls-7" data-name="Caminho 1916" transform="translate(-177.37 -182.799)"/>
        <path id="Caminho_1917" d="M389.14 226.431a7.949 7.949 0 0 1 .749-2.552 5.665 5.665 0 0 1 1.1-1.256 7.253 7.253 0 0 1 2.35-1.592 2.745 2.745 0 0 1 2.663.334 3.975 3.975 0 0 1 1.171 2.655 7.014 7.014 0 0 1-.628 4.019 16.025 16.025 0 0 1-3.013 3.351 12.843 12.843 0 0 0-1.963 2.652 7.613 7.613 0 0 1-.895 1.417 1.635 1.635 0 0 1-1.421.615 2.472 2.472 0 0 1-1.159-.736c-.429-.407-1.583-1.133-1.622-1.778-.028-.522.874-1.708 1.094-2.2a26.169 26.169 0 0 0 1.574-4.929z" class="cls-8" data-name="Caminho 1917" transform="translate(-318.965 -184.119)"/>
        <path id="Caminho_1918" d="M389.14 226.431a7.949 7.949 0 0 1 .749-2.552 5.665 5.665 0 0 1 1.1-1.256 7.253 7.253 0 0 1 2.35-1.592 2.745 2.745 0 0 1 2.663.334 3.975 3.975 0 0 1 1.171 2.655 7.014 7.014 0 0 1-.628 4.019 16.025 16.025 0 0 1-3.013 3.351 12.843 12.843 0 0 0-1.963 2.652 7.613 7.613 0 0 1-.895 1.417 1.635 1.635 0 0 1-1.421.615 2.472 2.472 0 0 1-1.159-.736c-.429-.407-1.583-1.133-1.622-1.778-.028-.522.874-1.708 1.094-2.2a26.169 26.169 0 0 0 1.574-4.929z" class="cls-9" data-name="Caminho 1918" transform="translate(-318.965 -184.119)"/>
        <path id="Caminho_1919" d="M293 289.04a19.278 19.278 0 0 1 5.7-.754c3.206.05 6.506.892 9.559-.173a15.938 15.938 0 0 0 2.292-1.078 5.8 5.8 0 0 0 1.711-1.216c1.518-1.743 2.172-4.368 2.647-6.711a48.387 48.387 0 0 0 .721-7.143 4.732 4.732 0 0 0 2.5.713 1.881 1.881 0 0 0 1.745-1.758 31.127 31.127 0 0 0 .114 6.653c.134.869.343 1.726.415 2.6.26 3.175-1.277 6.347-.728 9.479a2.376 2.376 0 0 1-1 2.449 10.237 10.237 0 0 1-2.582.754c-1.7.47-3.182 1.64-4.888 2.077-.8.2-1.623.251-2.406.47-1.126.322-2.149 1.02-3.3 1.241-.86.166-1.745.053-2.615.133-.756.068-1.5.284-2.255.3a6.342 6.342 0 0 1-4.842-2.6A22.644 22.644 0 0 1 293 289.04z" class="cls-10" data-name="Caminho 1919" transform="translate(-247.162 -221.623)"/>
        <path id="Caminho_1920" d="M293 289.04a19.278 19.278 0 0 1 5.7-.754c3.206.05 6.506.892 9.559-.173a15.938 15.938 0 0 0 2.292-1.078 5.8 5.8 0 0 0 1.711-1.216c1.518-1.743 2.172-4.368 2.647-6.711a48.387 48.387 0 0 0 .721-7.143 4.732 4.732 0 0 0 2.5.713 1.881 1.881 0 0 0 1.745-1.758 31.127 31.127 0 0 0 .114 6.653c.134.869.343 1.726.415 2.6.26 3.175-1.277 6.347-.728 9.479a2.376 2.376 0 0 1-1 2.449 10.237 10.237 0 0 1-2.582.754c-1.7.47-3.182 1.64-4.888 2.077-.8.2-1.623.251-2.406.47-1.126.322-2.149 1.02-3.3 1.241-.86.166-1.745.053-2.615.133-.756.068-1.5.284-2.255.3a6.342 6.342 0 0 1-4.842-2.6A22.644 22.644 0 0 1 293 289.04z" class="cls-11" data-name="Caminho 1920" transform="translate(-246.162 -220.623)"/>
        <path id="Caminho_1921" d="M586.687 342.62c8.813 0 15.957 7.742 15.956 17.291S595.5 377.2 586.686 377.2s-15.956-7.742-15.955-17.291 7.143-17.289 15.955-17.29m0-4.27c-10.989 0-19.9 9.654-19.9 21.561s8.908 21.56 19.9 21.56 19.9-9.654 19.9-21.561-8.916-21.547-19.899-21.559z" class="cls-12" data-name="Caminho 1921" transform="translate(-457.491 -272.116)"/>
        <path id="Retângulo_165" d="M0 0h4.664v5.32H0z" class="cls-12" data-name="Retângulo 165" transform="translate(126.249 61.19)"/>
        <path id="Caminho_1940" d="M0 0l4.767.172.181 5.211-4.767-.172z" class="cls-12" data-name="Caminho 1940" transform="rotate(31.02 -44.508 282.71)"/>
        <path id="Caminho_1941" d="M0 0l4.962.165.174 5.006-4.962-.165z" class="cls-12" data-name="Caminho 1941" transform="rotate(61 13.413 162.575)"/>
        <path id="Caminho_1942" d="M.264.255L5.208.08 5.024 5.1.08 5.28z" class="cls-12" data-name="Caminho 1942" transform="rotate(122 48.53 91.606)"/>
        <path id="Caminho_1943" d="M.249.241L5.211.075l-.175 5.006-4.961.166z" class="cls-12" data-name="Caminho 1943" transform="scale(-1) rotate(-61 -120.142 59.345)"/>
        <path id="Caminho_1944" d="M0 0l4.944.175.185 5.025-4.945-.175z" class="cls-12" data-name="Caminho 1944" transform="rotate(58 -31.36 148.254)"/>
        <path id="Caminho_1945" d="M.263.247L5.03.075l-.181 5.21-4.767.173z" class="cls-12" data-name="Caminho 1945" transform="rotate(148.98 51.597 50.919)"/>
        <path id="Retângulo_172" d="M0 0h4.664v5.32H0z" class="cls-12" data-name="Retângulo 172" transform="translate(126.249 109.073)"/>
        <path id="Caminho_1946" d="M.263.247L5.03.075l-.181 5.21-4.767.173z" class="cls-12" data-name="Caminho 1946" transform="rotate(-31.02 262.231 -191.945)"/>
        <path id="Caminho_1947" d="M0 0l4.767.172.181 5.211-4.767-.172z" class="cls-12" data-name="Caminho 1947" transform="rotate(-148.98 75.15 39.598)"/>
        <path id="Retângulo_175" d="M0 0h5.646v4.521H0z" class="cls-12" data-name="Retângulo 175" transform="translate(104.158 85.664)"/>
        <path id="Retângulo_176" d="M0 0h5.646v4.521H0z" class="cls-12" data-name="Retângulo 176" transform="rotate(180 77.117 45.093)"/>
        <path id="Caminho_1922" d="M746.607 218.71c8.813 0 15.957 7.742 15.956 17.291s-7.144 17.29-15.957 17.29S730.65 245.549 730.65 236s7.143-17.289 15.956-17.29m0-4.27c-10.989 0-19.9 9.654-19.9 21.561s8.909 21.56 19.9 21.56 19.9-9.654 19.9-21.561-8.916-21.547-19.899-21.56z" class="cls-12" data-name="Caminho 1922" transform="translate(-580.344 -179.329)"/>
        <path id="Retângulo_177" d="M0 0h4.664v5.32H0z" class="cls-12" data-name="Retângulo 177" transform="translate(163.317 30.07)"/>
        <path id="Caminho_1948" d="M0 0l4.767.172.181 5.211-4.767-.172z" class="cls-12" data-name="Caminho 1948" transform="rotate(31.02 30.16 333.958)"/>
        <path id="Caminho_1949" d="M0 0l4.962.165.174 5.006-4.962-.165z" class="cls-12" data-name="Caminho 1949" transform="rotate(61 58.345 178.47)"/>
        <path id="Caminho_1950" d="M.264.255L5.208.08 5.024 5.1.08 5.28z" class="cls-12" data-name="Caminho 1950" transform="rotate(122 75.687 86.317)"/>
        <path id="Caminho_1951" d="M.249.241L5.211.075l-.175 5.006-4.961.166z" class="cls-12" data-name="Caminho 1951" transform="scale(-1) rotate(-61 -112.263 106.347)"/>
        <path id="Caminho_1952" d="M0 0l4.944.175.185 5.025-4.945-.175z" class="cls-12" data-name="Caminho 1952" transform="rotate(58 15.248 166.133)"/>
        <path id="Caminho_1953" d="M.263.247L5.03.075l-.181 5.21-4.767.173z" class="cls-12" data-name="Caminho 1953" transform="rotate(148.98 74.449 40.496)"/>
        <path id="Retângulo_184" d="M0 0h4.664v5.32H0z" class="cls-12" data-name="Retângulo 184" transform="translate(163.317 77.951)"/>
        <path id="Caminho_1954" d="M.263.247L5.03.075l-.181 5.21-4.767.173z" class="cls-12" data-name="Caminho 1954" transform="rotate(-31.02 224.681 -274.349)"/>
        <path id="Caminho_1955" d="M0 0l4.767.172.181 5.211-4.767-.172z" class="cls-12" data-name="Caminho 1955" transform="rotate(-148.98 89.368 18.895)"/>
        <path id="Retângulo_187" d="M0 0h5.646v4.521H0z" class="cls-12" data-name="Retângulo 187" transform="translate(141.223 54.542)"/>
        <path id="Retângulo_188" d="M0 0h5.646v4.521H0z" class="cls-12" data-name="Retângulo 188" transform="rotate(180 95.651 29.532)"/>
        <path id="Caminho_1923" d="M425.6 213.4h.563c8.811.16 15.833 8.032 15.683 17.58s-7.414 17.157-16.225 16.994h-.565c-8.811-.16-15.832-8.033-15.682-17.581s7.415-17.156 16.226-16.993m0-4.267c-10.987-.207-20.046 9.279-20.234 21.185s8.566 21.723 19.553 21.927c.232 0 .464.009.7.009 10.987.206 20.046-9.28 20.233-21.186s-8.567-21.722-19.554-21.925c-.232 0-.464-.009-.7-.009z" class="cls-12" data-name="Caminho 1923" transform="translate(-333.479 -175.35)"/>
        <path id="Caminho_1956" d="M0 0l4.664.014.014 5.319-4.664-.014z" class="cls-12" data-name="Caminho 1956" transform="rotate(1.99 -779.758 2606.31)"/>
        <path id="Caminho_1957" d="M0 0l4.779.178.187 5.2L.187 5.2z" class="cls-12" data-name="Caminho 1957" transform="rotate(32.97 -1.393 189.635)"/>
        <path id="Caminho_1958" d="M0 0l4.973.158.166 4.994-4.973-.158z" class="cls-12" data-name="Caminho 1958" transform="rotate(62.99 23.349 112.066)"/>
        <path id="Caminho_1959" d="M.273.263L5.2.082 5.014 5.12.083 5.3z" class="cls-12" data-name="Caminho 1959" transform="rotate(123.99 39.331 64.144)"/>
        <path id="Caminho_1960" d="M.259.251l4.95-.173L5.028 5.1l-4.95.172z" class="cls-12" data-name="Caminho 1960" transform="rotate(121 26.877 42.602)"/>
        <path id="Caminho_1961" d="M0 0l4.974.169.178 5.031-4.974-.172z" class="cls-12" data-name="Caminho 1961" transform="rotate(60.113 -18.227 95.119)"/>
        <path id="Caminho_1962" d="M.253.237L5.008.071l-.174 5.223-4.755.166z" class="cls-12" data-name="Caminho 1962" transform="rotate(150.99 38.238 28.705)"/>
        <path id="Caminho_1963" d="M0 0l4.664.014.014 5.319-4.664-.014z" class="cls-12" data-name="Caminho 1963" transform="rotate(1.99 -2158.076 2586.1)"/>
        <path id="Caminho_1964" d="M.253.237L5.008.071l-.174 5.223-4.755.166z" class="cls-12" data-name="Caminho 1964" transform="rotate(-29.01 195.084 -152.968)"/>
        <path id="Caminho_1965" d="M0 0l4.779.178.187 5.2L.187 5.2z" class="cls-12" data-name="Caminho 1965" transform="rotate(-147.03 52.403 27.67)"/>
        <path id="Caminho_1966" d="M0 0l5.647.016.012 4.521-5.647-.016z" class="cls-12" data-name="Caminho 1966" transform="rotate(1.99 -1471.328 1959.949)"/>
        <path id="Caminho_1967" d="M0 0l5.647.016.012 4.521-5.647-.016z" class="cls-12" data-name="Caminho 1967" transform="rotate(-178.01 59.048 28.317)"/>
        <path id="Caminho_1924" d="M257.614 731.694a4.523 4.523 0 0 0-1.643.555 4.174 4.174 0 0 0-1.43 2.09 19.476 19.476 0 0 0-.96 6.531 15.141 15.141 0 0 0 .619 5.287 3.383 3.383 0 0 0 .818 1.384 2.823 2.823 0 0 0 1.12.588 2.855 2.855 0 0 0 2.624-.352 4.729 4.729 0 0 0 1.173-2.966 7.236 7.236 0 0 1 1.56-4.036c.746-.754 1.815-1.13 2.357-2.065.647-1.11.306-2.559-.107-3.8-.359-1.07-.885-3.242-1.919-3.79s-3.136.363-4.212.574z" class="cls-8" data-name="Caminho 1924" transform="translate(-216.876 -566.107)"/>
        <path id="Caminho_1925" d="M427.287 748.6a8.64 8.64 0 0 1-1.623 3.243c-.464.573-1.031 1.268-.788 1.979a1.765 1.765 0 0 0 .431.625c3.4 3.6 8.152 5.358 12.869 6a.41.41 0 0 0 .232 0c.139-.068.171-.251.19-.419a5.747 5.747 0 0 0 0-1.608 4.725 4.725 0 0 0-2.227-2.816 7.162 7.162 0 0 1-2.619-2.479c-.7-1.4-.4-3.215-1.215-4.521a4.324 4.324 0 0 0-3.062-1.715c-.406-.068-1.268-.55-1.622-.327s-.443 1.598-.566 2.038z" class="cls-8" data-name="Caminho 1925" transform="translate(-348.427 -577.748)"/>
        <path id="Caminho_1926" d="M248.02 731.867a.49.49 0 0 0-.41-.5 1.379 1.379 0 0 0-.67.093 9.089 9.089 0 0 1-1.622.322 10.836 10.836 0 0 0-1.949.251 2.237 2.237 0 0 0-1.509 1.256 3.351 3.351 0 0 0-.167 1.178 19.426 19.426 0 0 0 .505 4.574.4.4 0 0 0 .172.294c.081.035.178 0 .26.04a.367.367 0 0 1 .151.2 10.828 10.828 0 0 1 .586 3.054q.232 2.308.586 4.6a5.307 5.307 0 0 0 .853 2.512 3.692 3.692 0 0 0 2.441 1.21 15.917 15.917 0 0 0 5.739-.568 1.617 1.617 0 0 0 .967-.47 1.24 1.24 0 0 0 .232-.831 3.324 3.324 0 0 0-1.7-2.321l-1.085-.791a.582.582 0 0 1-.19-.186.713.713 0 0 1-.053-.377l.07-1.507a3.963 3.963 0 0 0-3.477 2.338c-.151.324-.292.7-.6.829-.387.158-.818-.2-.948-.62a2.922 2.922 0 0 1 .035-1.326c.635-3.687.487-7.477.874-11.2a2.7 2.7 0 0 1 .345-1.181c.179-.282.529-.529.564-.873z" class="cls-12" data-name="Caminho 1926" transform="translate(-207.745 -566.411)"/>
        <path id="Caminho_1927" d="M433.885 774.293c.16.286.408.5.556.8a.716.716 0 0 1-.12.9.759.759 0 0 1-.5.055 16.374 16.374 0 0 1-9.163-4.491 6.791 6.791 0 0 1-1.122-1.334c-.3-.5-.552-1.093-1.062-1.3a21.207 21.207 0 0 0-.464 4.365 3.261 3.261 0 0 0 .853 2.632 2.925 2.925 0 0 0 .95.419l1.592.487a1.571 1.571 0 0 0 .881.093c.188-.055.355-.183.547-.221a1.257 1.257 0 0 1 .619.085l1.375.435a8.626 8.626 0 0 1 1.361.5c.392.2.756.465 1.138.688a13.05 13.05 0 0 0 1.991.877l2.42.909a8 8 0 0 0 2.058.573c.487.045.98 0 1.463.09.366.068.721.211 1.092.251a2.729 2.729 0 0 0 1.715-.55 1.6 1.6 0 0 0 .5-.48 2.024 2.024 0 0 0-.292-1.946 7.4 7.4 0 0 0-2.452-2.735c-.422-.251-.876-.437-1.31-.666-1.233-.648-2.167-1.73-3.333-2.471-1.103-.693-1.813 1.113-1.293 2.035z" class="cls-12" data-name="Caminho 1927" transform="translate(-346.27 -594.539)"/>
        <path id="Caminho_1928" d="M271.015 332.768a9.586 9.586 0 0 1-4.279 1.8 15.944 15.944 0 0 1-2.422.141 56.974 56.974 0 0 1-10.073-.912 13.55 13.55 0 0 0 3.166-5.34 9.487 9.487 0 0 0 .151-3.346 26.8 26.8 0 0 0-.941-4.212 24.864 24.864 0 0 0 4.258-.118c.807-.088 2.781-.884 3.477-.281.651.56.16 2.542.148 3.456v.1a11.916 11.916 0 0 0 .814 4.034c1.018 2.472 3.2 4.502 5.701 4.678z" class="cls-8" data-name="Caminho 1928" transform="translate(-217.387 -258.584)"/>
        <path id="Caminho_1929" d="M272.375 323.909a7.951 7.951 0 0 1-6.954 1.155 26.8 26.8 0 0 0-.941-4.212 24.864 24.864 0 0 0 4.258-.118c.807-.088 2.781-.884 3.477-.281.663.56.171 2.542.16 3.456z" class="cls-9" data-name="Caminho 1929" transform="translate(-225.253 -258.547)"/>
        <ellipse id="Elipse_125" cx="8.483" cy="9.193" class="cls-8" data-name="Elipse 125" rx="8.483" ry="9.193" transform="translate(33.993 48.046)"/>
        <path id="Caminho_1930" d="M288.277 387.8a4.357 4.357 0 0 1-1.912 3.69 7.176 7.176 0 0 1-2.086.791 38.174 38.174 0 0 1-11.84 1.585 6.1 6.1 0 0 1-2.513-.573 2.875 2.875 0 0 1-1.551-2.1 2.137 2.137 0 0 0-.123-.668 1.794 1.794 0 0 0-.589-.568 2.732 2.732 0 0 1-.895-2.595c-.484.234-.99-.294-1.217-.814s-.406-1.148-.892-1.366a6.738 6.738 0 0 0-1.064-.161c-.559-.156-.9-.753-1.293-1.2a9.958 9.958 0 0 0-3-1.987c-3.122-1.705-5.667-4.408-8.159-7.065a28.742 28.742 0 0 1-3.512-4.27c-.28-.445-.533-.9-.772-1.371a40.3 40.3 0 0 1-1.956-4.85 5.981 5.981 0 0 1-.505-2.763c.012-.085.028-.171.046-.251a5.474 5.474 0 0 1 .77-1.685 6.635 6.635 0 0 1 3.477-3.1c1.483-.422 2.965.088 4.471.434a10.578 10.578 0 0 0 1.518.251 13.162 13.162 0 0 0 4.722-.8l1.683-.5c.844-.251 1.266-1.356 2.119-1.55a2.751 2.751 0 0 1 1.143.063 14.93 14.93 0 0 1 5 1.771 8.22 8.22 0 0 1 .971.716 6.706 6.706 0 0 1 2.258 3.614c.348 1.59.021 3.288.373 4.878a11.146 11.146 0 0 0 1.729 3.567l4.142 6.41a39.634 39.634 0 0 0 3.048 4.305c2.223 2.617 6.353 4.599 6.409 8.162z" class="cls-13" data-name="Caminho 1930" transform="translate(-209.806 -284.045)"/>
        <path id="Caminho_1931" d="M377.2 226.431a7.948 7.948 0 0 1 .746-2.552 5.665 5.665 0 0 1 1.1-1.256 7.278 7.278 0 0 1 2.35-1.592 2.744 2.744 0 0 1 2.663.334 3.974 3.974 0 0 1 1.171 2.655 7.014 7.014 0 0 1-.628 4.019 16.027 16.027 0 0 1-3.013 3.351 12.934 12.934 0 0 0-1.963 2.652 7.616 7.616 0 0 1-.895 1.417 1.635 1.635 0 0 1-1.421.615 2.483 2.483 0 0 1-1.159-.736c-.429-.407-1.585-1.133-1.622-1.778-.028-.522.874-1.708 1.094-2.2a26.34 26.34 0 0 0 1.577-4.929z" class="cls-8" data-name="Caminho 1931" transform="translate(-309.793 -184.119)"/>
        <path id="Caminho_1932" d="M333.064 527.8c-1.066 2.132-2.234 4.21-3.185 6.4-.554 1.283-1.034 2.6-1.65 3.853-.672 1.361-1.5 2.627-2.2 3.974a48.144 48.144 0 0 0-3.665 10.991 19.211 19.211 0 0 1-7.223-2.763c-.151-.1-.294-.2-.433-.3a5.455 5.455 0 0 1-1.458-1.741 39.185 39.185 0 0 1 3.419-10c.559-1 1.2-1.921 1.773-2.9 1.667-2.838 2.01-6.42 3.913-9.077a1.666 1.666 0 0 0 0-1.849c-.22-.309-.57-.6-.505-.985.049-.279.318-.53.213-.791-.049-.126-.167-.193-.26-.284-.324-.324-.283-.877-.311-1.351a6.79 6.79 0 0 0-1.391-3.243 1.955 1.955 0 0 0-.508-.593c-.171-.113-.375-.163-.547-.279-.607-.412-.563-1.371-.855-2.082-.38-.937-1.337-1.414-1.966-2.175-.8-.967-1-2.316-1.854-3.162a2.383 2.383 0 0 0-.276-.251 16.715 16.715 0 0 1 .494 4.428c.081 5.121-1.1 10.424-.547 15.512a10.913 10.913 0 0 1-5.111 10.082 23.6 23.6 0 0 1-3.978 1.816c-2.037.781-4.068 1.587-6.066 2.492q-2.119.949-4.172 2.047a51.644 51.644 0 0 0-4.935 2.959 19.5 19.5 0 0 0-5.315 4.742 4.7 4.7 0 0 1-3.433-2.047 14.634 14.634 0 0 1-1.88-3.858 11.421 11.421 0 0 1-.892-3.632.719.719 0 0 1 .4-.628l9.311-5.347 1.741-1c3.813-2.193 7.763-4.22 11.576-6.41.257.083.464-.234.54-.5s.13-.616.371-.736c.12-.063.278-.06.369-.171a.51.51 0 0 0 .065-.334c-.123-2.01-1.453-3.835-1.187-5.817a7.6 7.6 0 0 0 .341-2.512 11.372 11.372 0 0 0-.709-1.585c-.464-1.218 0-2.685-.5-3.878a9.536 9.536 0 0 1-.672-2.471 17.814 17.814 0 0 0-1.423-4.9 9.025 9.025 0 0 0-1.31-2.147c-.28-.327-.6-.618-.862-.957a8.355 8.355 0 0 1-1.337-3.768 19.649 19.649 0 0 1-.185-7.354 11.217 11.217 0 0 0 .433-2.477c-.012-1.113-.464-2.411.25-3.215a2.247 2.247 0 0 1 1.043-.58 29.3 29.3 0 0 1 5.048-1l7.776-1.1a6.636 6.636 0 0 0 2.587-.731 5.588 5.588 0 0 0 2.183-3.014c1.365 1.08 1.875 3.092 2.965 4.486.531.681 1.187 1.231 1.769 1.856a21.283 21.283 0 0 1 1.949 2.6 46.558 46.558 0 0 1 4.4 7.553c.6 1.407 1.073 2.873 1.555 4.333 1.9 5.744 4.993 11.2 6.277 17.135.315 1.452 1.133 2.763 1.261 4.247a8.613 8.613 0 0 1-1.221 4.489z" class="cls-12" data-name="Caminho 1932" transform="translate(-235.839 -379.004)"/>
        <path id="Caminho_1933" d="M338.047 472.785a2.761 2.761 0 0 0-.287 1.243c.174-.929 1.354-1.444 1.43-2.364.035-.424-.037-.4-.278-.181-.366.345-.526.938-.865 1.302z" class="cls-9" data-name="Caminho 1933" transform="translate(-281.548 -371.694)"/>
        <path id="Caminho_1934" d="M352.116 487.484a1.931 1.931 0 0 0-.538.861 2.354 2.354 0 0 0-.109 1.507c.174-.088.232-.319.285-.52a3.781 3.781 0 0 1 .369-.889c.139-.251.781-.811.779-1.075-.008-.404-.615-.027-.786.116z" class="cls-9" data-name="Caminho 1934" transform="translate(-292.021 -383.57)"/>
        <path id="Caminho_1935" d="M267.715 356.776a8.731 8.731 0 0 1-1.789 1.291c-1.68.922-3.542 1.409-5.234 2.3a25.517 25.517 0 0 0-2.429 1.535l-5.03 3.454a5.459 5.459 0 0 0-1.108.912c-.6.7-.6 1.927-1.159 2.675a3.293 3.293 0 0 1-2.441 1.221 7.38 7.38 0 0 1-2.719-.5 13.434 13.434 0 0 1-1.553-.613 7.2 7.2 0 0 1-1.493-.924 4.674 4.674 0 0 1-1.76-3.014 6.416 6.416 0 0 1 .3-2.456 9.918 9.918 0 0 1 .535-1.489 6.122 6.122 0 0 1 .426-.784 7.8 7.8 0 0 1 5.16-3.014c1.034-.218 2.086-.352 3.131-.543a10.6 10.6 0 0 0 1.518.251 13.163 13.163 0 0 0 4.721-.8l1.683-.5c.844-.251 1.266-1.356 2.119-1.55a2.752 2.752 0 0 1 1.143.063 14.93 14.93 0 0 1 5 1.771 8.236 8.236 0 0 1 .979.714z" class="cls-9" data-name="Caminho 1935" transform="translate(-207.205 -283.977)"/>
        <path id="Caminho_1936" d="M271.813 267.35c-.216 2.223-1.947 3.855-3.013 5.777-.512.932-.871 1.954-1.333 2.918a29.38 29.38 0 0 1-1.762 3.039l-1.884 2.964a30.4 30.4 0 0 1-3.644 4.961c-2.469.455-4.538 2.441-6.879 3.406a32.881 32.881 0 0 1-5.88 1.291 7.872 7.872 0 0 0-5.157 3.014 8.209 8.209 0 0 0-.964 2.261 6.313 6.313 0 0 0-.3 2.454 4.719 4.719 0 0 0 1.755 3.014 9.386 9.386 0 0 0 3.046 1.537 7.435 7.435 0 0 0 2.719.5 3.209 3.209 0 0 0 2.443-1.221c.575-.784.547-1.977 1.159-2.675a5.483 5.483 0 0 1 1.11-.912l5.03-3.454a25.5 25.5 0 0 1 2.427-1.525c1.692-.9 3.553-1.381 5.234-2.3a6.619 6.619 0 0 0 3.581-4.453c1.025-6.174 4.967-11.378 8.344-16.477-.111-.025-.077-.3-.118-.414a5.084 5.084 0 0 0-2.471-2.7 13.735 13.735 0 0 0-3.443-1.005z" class="cls-10" data-name="Caminho 1936" transform="translate(-207.2 -218.95)"/>
        <path id="Caminho_1937" d="M223.847 254.79a3.649 3.649 0 0 0-.35-1.939 3.927 3.927 0 0 0-2.781-1.595q-1.527-.339-3.069-.583a6.4 6.4 0 0 0-2.538-.045 16.6 16.6 0 0 0-3.176 1.623 20.337 20.337 0 0 1-4.026 1.113 6.012 6.012 0 0 0-3.588 2.1 7.664 7.664 0 0 0-1.094 3.185c-1.606 9.391.123 19.024.452 28.568.127 3.715-.028 7.686-1.986 10.738l5.7-.163a6.472 6.472 0 0 0 4.172-1.1 7.66 7.66 0 0 0 1.922-3.554 11.755 11.755 0 0 0 .728-3.18c.09-2.243-1.085-4.446-.7-6.654a7.457 7.457 0 0 1 2.575-4.061 23.172 23.172 0 0 0 3.458-3.336c1.711-2.343 2.037-5.546 1.824-8.522a35.191 35.191 0 0 1-.278-5.312 7.04 7.04 0 0 1 1.293-3.722 5.4 5.4 0 0 0 1.462-3.561z" class="cls-12" data-name="Caminho 1937" transform="translate(-177.017 -206.344)"/>
        <path id="Caminho_1938" d="M223.458 255.092a3.864 3.864 0 0 0-2.735-1.582 2.742 2.742 0 0 1 1.354 1.155 3.628 3.628 0 0 1 .35 1.939 5.373 5.373 0 0 1-1.463 3.564 7.032 7.032 0 0 0-1.293 3.722 35.174 35.174 0 0 0 .278 5.312c.213 2.976-.114 6.179-1.822 8.522a23.518 23.518 0 0 1-3.458 3.336 7.447 7.447 0 0 0-2.577 4.061c-.382 2.208.793 4.411.7 6.654a11.759 11.759 0 0 1-.73 3.18 7.631 7.631 0 0 1-1.922 3.552 6.512 6.512 0 0 1-4.172 1.1l-4.04.116c-.09.161-.183.322-.283.475l5.7-.163a6.472 6.472 0 0 0 4.172-1.1 7.661 7.661 0 0 0 1.922-3.554 11.754 11.754 0 0 0 .728-3.18c.09-2.243-1.085-4.446-.7-6.654a7.457 7.457 0 0 1 2.575-4.061 23.164 23.164 0 0 0 3.458-3.336c1.711-2.343 2.037-5.546 1.824-8.522a35.182 35.182 0 0 1-.278-5.312 7.04 7.04 0 0 1 1.293-3.722 5.33 5.33 0 0 0 1.463-3.564 3.65 3.65 0 0 0-.344-1.938z" class="cls-9" data-name="Caminho 1938" transform="translate(-176.979 -208.586)"/>
        <path id="Caminho_1939" d="M441.138 590.381l-10.47 27.667a5.453 5.453 0 0 1-1.458-1.741 39.189 39.189 0 0 1 3.419-10c.559-1 1.2-1.922 1.773-2.9 1.667-2.838 2.01-6.42 3.913-9.077a1.666 1.666 0 0 0 0-1.849c-.22-.309-.57-.6-.505-.985.049-.279.318-.53.213-.791-.049-.126-.167-.193-.26-.284-.325-.324-.283-.877-.311-1.351a6.789 6.789 0 0 0-1.391-3.242 1.957 1.957 0 0 0-.508-.593c-.172-.113-.376-.163-.547-.279-.607-.412-.563-1.371-.855-2.082-.38-.937-1.337-1.414-1.966-2.175-.8-.967-1-2.316-1.854-3.162l-.072-.2.816-5.337z" class="cls-9" data-name="Caminho 1939" transform="translate(-351.801 -447.08)"/>
    </g>
</svg>
