<svg xmlns="http://www.w3.org/2000/svg" id="Grupo_688" width="234" height="197" data-name="Grupo 688" viewBox="0 0 234 197">
    <defs>
        <style>
            .cls-1,.cls-23{fill:#4052a9}.cls-1,.cls-6{opacity:.1}.cls-2{fill:#3a3768}.cls-3{fill:#d48a9b}.cls-4{opacity:.05}.cls-5{fill:#efc6cd}.cls-7{fill:#fff}.cls-8{fill:#d3dae1}.cls-9{fill:url(#linear-gradient)}.cls-10{fill:#585b8a}.cls-11{opacity:.2}.cls-12{fill:#636992}.cls-13{fill:#ffd6d6}.cls-14{fill:#dce6f2}.cls-15{fill:#565988}.cls-16{fill:#505484}.cls-17{fill:#575988}.cls-18{fill:#d28690}.cls-19{fill:#575989}.cls-20{fill:#353045}.cls-21{fill:#f0f3f7}.cls-22{fill:#663d5c}.cls-24{opacity:.3}.cls-25{opacity:.15}.cls-26{fill:#ffd037}.cls-27{fill:#65617d}.cls-28{fill:#9d9cb5}.cls-29{fill:#4b4770}.cls-30{fill:#d4dfec}
        </style>
        <linearGradient id="linear-gradient" x1=".5" x2=".5" y1="1" gradientUnits="objectBoundingBox">
            <stop offset="0" stop-color="gray" stop-opacity=".251"/>
            <stop offset=".54" stop-color="gray" stop-opacity=".122"/>
            <stop offset="1" stop-color="gray" stop-opacity=".102"/>
        </linearGradient>
    </defs>
    <path id="Caminho_1968" d="M339.321 97.744c-.041.212-.079.423-.124.632a72.647 72.647 0 0 1-7.12 20.487c-.114.212-.227.423-.343.635a58.345 58.345 0 0 1-8.027 11.239 24.818 24.818 0 0 1-5.765 4.912c-3.093 1.793-6.708 2.52-10.262 3.115-3.691.621-7.433 1.139-11.164 1.7q-1.989.292-3.954.621c-3.605.592-7.184 1.277-10.678 2.185a58.457 58.457 0 0 0-12.459 4.651q-.474.238-.937.5a53.242 53.242 0 0 0-1.824 1.054c-.154.093-.309.185-.461.283s-.3.183-.45.278c-.446.276-.883.559-1.32.844l-.017.012c-.289.188-.574.38-.857.573a173.533 173.533 0 0 0-4.78 3.369l-.994.713-1.541 1.106c-.3.216-.607.433-.909.647-.214.157-.429.314-.662.475a85.144 85.144 0 0 1-4.265 2.813 45.364 45.364 0 0 1-7.377 3.69l-.034.014a31.113 31.113 0 0 1-3.918 1.227c-.765.185-1.532.338-2.308.454a22.33 22.33 0 0 1-6.258.1c-4.087-.525-7.917-2.266-12-2.853-8.41-1.189-16.578 2.641-24.487 5.642q-2.917 1.106-5.877 2.071c-1.312.43-2.628.837-3.954 1.229a135.574 135.574 0 0 1-24.8 4.824 62.988 62.988 0 0 1-10.534.259 35.013 35.013 0 0 1-3.952-.476 23.832 23.832 0 0 1-11.912-5.278 25.627 25.627 0 0 1-6.181-8.8 41.349 41.349 0 0 1-3.2-10.59c-.081-.5-.154-1.006-.214-1.51q-.161-1.293-.24-2.6a41.072 41.072 0 0 1 1.475-13.754c1.415-4.974 3.772-9.748 4.81-14.76q.064-.319.122-.635.213-1.142.315-2.3c.529-6.158-1.5-12.161-3.093-18.184a58.277 58.277 0 0 1-.165-.632q-.257-1-.493-2a46.223 46.223 0 0 1-.57-19.539c.041-.212.09-.423.137-.632a29.987 29.987 0 0 1 4.848-11.015 39.924 39.924 0 0 1 9.141-8.778q2.523-1.831 5.217-3.421 1.929-1.141 3.952-2.161a71.24 71.24 0 0 1 35.342-7.558c.643.031 1.286.069 1.929.121s1.346.114 2.019.183a132.475 132.475 0 0 1 23.094 5.121c2.544.749 5.084 1.517 7.622 2.271 1.13.333 2.257.666 3.386.989 5.532 1.586 11.145 3.022 16.829 4.094q1.974.378 3.952.689a102.33 102.33 0 0 0 13.822 1.3q2.7.059 5.4-.052 1.363-.055 2.728-.164c9.4-.735 18.482-3.193 27.58-5.49q1.974-.5 3.954-.984c1.732-.423 3.464-.832 5.2-1.21 10.83-2.361 20.483-1 30.553 3.868 2.289 1.106 4.576 2.442 5.978 4.517s1.754 4.625 2.018 7.087c.371 3.5.613 7.054.705 10.623 0 .209 0 .421.013.632a105.492 105.492 0 0 1-1.661 21.527z" class="cls-1" data-name="Caminho 1968" transform="translate(-108.298 -40.918)"/>
    <path id="Caminho_1969" d="M276.572 119.19h-.707v.635h.8zm-8.022 0a.046.046 0 0 0 0 .017c-.019.174-.041.347-.062.523v.1h6.13v-.038l.429-.6zm-16.428 0V98.7h7.051c-.075-.055-.152-.112-.232-.164l-.1-.074-.133-.09c-.077-.05-.154-.1-.236-.147s-.131-.081-.2-.121l-.047-.029h-6.1v-1.127l-.165.071-.174.09h-.013l-.036.021-.109.064-.109.064a7.013 7.013 0 0 0-.322.209l-.1.076-.214.152c-.276.2-.549.418-.829.618-.071.05-.141.1-.214.145-.152.1-.309.195-.469.281a1.7 1.7 0 0 1-.214.1l-.116.05-.107.04a4.628 4.628 0 0 1-.772.223v20.029h-10.581a.267.267 0 0 0 .021.067c.058.19.116.378.171.568h10.395v21.959h.161l.186.012.336.021.538.071.247.026.268.031h.041l.474.064.1.014.229.036.328.052.787-.038.107.021a.676.676 0 0 1 .133.024v-22.29h16.362v-.1c.021-.176.043-.35.062-.523a.045.045 0 0 1 0-.017zm24.451 0h-.707v.635h.8zm-8.464 0l-.075.635h6.835l.465-.635zm-15.987 0V98.7h7.051c-.075-.055-.152-.112-.232-.164l-.1-.074-.133-.09c-.077-.05-.154-.1-.236-.147s-.131-.081-.2-.121l-.047-.029h-6.1v-1.127l-.165.071-.174.09h-.013l-.036.021-.109.064-.109.064a7.013 7.013 0 0 0-.322.209l-.1.076-.214.152c-.276.2-.549.418-.829.618-.071.05-.141.1-.214.145-.152.1-.309.195-.469.281a1.7 1.7 0 0 1-.214.1l-.116.05-.107.04a4.627 4.627 0 0 1-.772.223v20.029h-10.581a.267.267 0 0 0 .021.067c.058.188.118.378.174.568h10.393v21.957h.161l.186.012.336.021.538.074.247.026.268.031h.041l.474.064.1.014.229.036.328.052.787-.038.107.021a.676.676 0 0 1 .133.024v-22.29h15.933l.075-.635zm53.484-42.663h44.467c0-.212 0-.423-.013-.632h-44.455V51.02q-1.98.476-3.954.984v23.89H253.29l-.122-.121.184-.181 17.988-17.931q-2.7.114-5.4.052l-13.821 13.776V56.417q-1.98-.311-3.952-.689v15.067l-20.209-20.15c-2.538-.754-5.077-1.522-7.622-2.271l27.483 27.4-.122.121h-50.452V43.274q-1.009-.1-2.019-.183a59.417 59.417 0 0 0-1.929-.121v32.924h-35.352V50.519q-2 1.018-3.952 2.161v23.214h-19.206c-.047.209-.1.421-.137.632h19.343V98.07h-18.28c.054.212.109.423.165.632h18.115v20.488h-15.337q-.058.316-.122.635h15.46v57.283c1.286.221 2.617.376 3.952.476v-57.759h35.344v52.67c1.327-.392 2.643-.8 3.954-1.229v-51.441h50.925v46.018a31.124 31.124 0 0 0 3.918-1.227l.034-.014v-44.777h49.529v21.584q1.972-.321 3.954-.616v-20.968h35.219c.116-.212.229-.423.343-.635h-35.561V98.7h42.681c.045-.209.084-.421.124-.632h-42.805zm-147.66 0h35.344V98.07h-35.345zm0 42.663V98.7h35.344v20.49zm39.3-42.663h50.925V98.07h-50.926zm0 42.663V98.7h50.925v20.49zm104.406 0h-49.53V98.7h49.529zm0-21.12h-49.53V77.1l.694-.578h48.835zm-33.1 21.12a.046.046 0 0 0 0 .017c-.019.174-.041.347-.062.523v.1h6.13v-.038l.429-.6zm8.022 0h-.707v.635h.8zm-24.451 0V98.7h7.051c-.075-.055-.152-.112-.232-.164l-.1-.074-.133-.09c-.077-.05-.154-.1-.236-.147s-.131-.081-.2-.121l-.047-.029h-6.1v-1.127l-.165.071-.174.09h-.013l-.036.021-.109.064-.109.064a7.013 7.013 0 0 0-.322.209l-.1.076-.214.152c-.276.2-.549.418-.829.618-.071.05-.141.1-.214.145-.152.1-.309.195-.469.281a1.7 1.7 0 0 1-.214.1l-.116.05-.107.04a4.628 4.628 0 0 1-.772.223v20.029h-10.582a.267.267 0 0 0 .021.067c.058.19.116.378.171.568h10.395v21.959h.161l.186.012.336.021.538.071.247.026.268.031h.041l.474.064.1.014.229.036.328.052.787-.038.107.021a.676.676 0 0 1 .133.024v-22.29h16.362v-.1c.021-.176.043-.35.062-.523a.045.045 0 0 1 0-.017z" class="cls-1" data-name="Caminho 1969" transform="translate(-117.388 -41.244)"/>
    <path id="Caminho_1970" d="M317.837 117.408h.306a.685.685 0 0 1-.375-.554c0-.437.589-.794 1.31-.794h9.165c.72 0 1.307.357 1.307.794 0 .435-.587.794-1.307.794h-.307a.678.678 0 0 1 .375.552c0 .373-.429.687-1 .77h2.638c.718 0 1.307.357 1.307.794s-.589.794-1.307.794h-9.167c-.718 0-1.307-.359-1.307-.794 0-.373.429-.685 1-.77h-2.638c-.72 0-1.307-.357-1.307-.794s.587-.792 1.307-.792z" class="cls-1" data-name="Caminho 1970" transform="translate(-260.286 -96.956)"/>
    <path id="Caminho_1971" d="M781.277 149.178h.306a.686.686 0 0 1-.373-.554c0-.437.587-.794 1.307-.794h9.165c.72 0 1.31.357 1.31.794 0 .435-.589.792-1.31.792h-.3a.686.686 0 0 1 .373.554c0 .373-.429.687-1 .77h2.638c.72 0 1.307.357 1.307.794s-.587.794-1.307.794h-9.165c-.72 0-1.309-.359-1.309-.794 0-.373.429-.687 1-.77h-2.638c-.718 0-1.307-.357-1.307-.794s.585-.792 1.303-.792z" class="cls-1" data-name="Caminho 1971" transform="translate(-624.397 -121.173)"/>
    <path id="Caminho_1972" d="M252.2 285.138h.3a.684.684 0 0 1-.373-.554c0-.435.589-.794 1.307-.794h9.167c.718 0 1.307.359 1.307.794 0 .437-.589.794-1.307.794h-.301a.676.676 0 0 1 .373.552c0 .373-.429.687-1 .77h2.638c.72 0 1.31.359 1.31.794s-.589.794-1.31.794h-9.156c-.72 0-1.307-.357-1.307-.794 0-.371.429-.685 1-.77H252.2c-.72 0-1.31-.357-1.31-.794s.598-.792 1.31-.792z" class="cls-1" data-name="Caminho 1972" transform="translate(-208.714 -224.807)"/>
    <path id="Caminho_2132" d="M16.634.082c8.5-.165 14.944 20.3 14.4 45.719s-7.87 46.152-16.366 46.316S-.275 71.814.268 46.4 8.137.247 16.634.082z" class="cls-1" data-name="Caminho 2132" transform="rotate(-78.45 147.785 -4.763)"/>
    <path id="Caminho_1973" d="M828.56 381.732s2.44-13.269 11.74-12.04c0 0 6.43.49 7.752 5.159v10.321z" class="cls-2" data-name="Caminho 1973" transform="translate(-662.573 -290.225)"/>
    <path id="Caminho_1974" d="M669.486 381.13l-82.853-7.62L576 375.968l.664 16.465.724.1.825 24.724 81.3 16.217 8.642-8.11v-26.8l1.106-.72z" class="cls-3" data-name="Caminho 1974" transform="translate(-452.547 -284.706)"/>
    <path id="Caminho_1975" d="M978.586 405.56l-.223 16.709-8.972 4.669-.111-17.449z" class="cls-4" data-name="Caminho 1975" transform="translate(-761.535 -309.136)"/>
    <path id="Caminho_1976" d="M974.71 478.94l.109 26.3-8.64 8.11.555-30.473z" class="cls-4" data-name="Caminho 1976" transform="translate(-759.1 -365.069)"/>
    <path id="Caminho_1977" d="M582.772 454.967l82.748 11.2.043-2.126-82.853-9.911z" class="cls-4" data-name="Caminho 1977" transform="translate(-457.818 -346.158)"/>
    <path id="Caminho_1978" d="M975.928 479.905v-.965l-8.2 4.013v2.13z" class="cls-4" data-name="Caminho 1978" transform="translate(-760.317 -365.069)"/>
    <path id="Caminho_1979" d="M575.48 375.968l10.633-2.458 82.853 7.62-9.3 3.93z" class="cls-5" data-name="Caminho 1979" transform="translate(-452.138 -284.706)"/>
    <path id="Caminho_1980" d="M948.1 407.55l4.066.295-6.739 2.237-3.427-.273z" class="cls-6" data-name="Caminho 1980" transform="translate(-740.102 -310.652)"/>
    <path id="Caminho_1981" d="M948.1 406.72l4.066.295-6.739 2.24-3.427-.276z" class="cls-7" data-name="Caminho 1981" transform="translate(-740.102 -310.02)"/>
    <path id="Caminho_1982" d="M1022.32 444.49c.161-.076.33.069.5.1.1.021.2 0 .3.021.2.029.4.176.587.1" class="cls-8" data-name="Caminho 1982" transform="translate(-814.805 -347.284)"/>
    <path id="Caminho_1983" d="M1021.34 445.059c.159-.076.33.067.5.1.1.019.2 0 .3.019.2.031.4.178.587.1" class="cls-8" data-name="Caminho 1983" transform="translate(-814.035 -347.717)"/>
    <path id="Caminho_1984" d="M1019.08 446.2c.161-.076.332.067.5.1.1.021.2 0 .3.021.2.031.4.178.587.1" class="cls-8" data-name="Caminho 1984" transform="translate(-812.259 -348.586)"/>
    <path id="Caminho_1985" d="M866.1 398.21l4.066.3-6.739 2.237-3.427-.278z" class="cls-6" data-name="Caminho 1985" transform="translate(-675.677 -303.533)"/>
    <path id="Caminho_1986" d="M866.1 397.39l4.066.295-6.739 2.237-3.427-.273z" class="cls-7" data-name="Caminho 1986" transform="translate(-675.677 -302.908)"/>
    <path id="Caminho_1987" d="M940.32 435.159c.161-.076.33.067.5.1.1.019.2 0 .3.019.2.031.4.178.587.1" class="cls-8" data-name="Caminho 1987" transform="translate(-750.38 -340.171)"/>
    <path id="Caminho_1988" d="M939.34 435.729c.159-.076.33.067.5.1.1.021.2 0 .3.021.2.031.4.178.587.1" class="cls-8" data-name="Caminho 1988" transform="translate(-749.61 -340.605)"/>
    <path id="Caminho_1989" d="M937.08 436.86c.161-.076.332.069.5.1.1.021.2 0 .3.021.2.029.4.178.587.1" class="cls-8" data-name="Caminho 1989" transform="translate(-747.834 -341.468)"/>
    <path id="Caminho_1990" d="M905.434 402.88l4.068.295-6.739 2.24-3.433-.276z" class="cls-6" data-name="Caminho 1990" transform="translate(-706.578 -307.093)"/>
    <path id="Caminho_1991" d="M905.434 402.06l4.068.295-6.739 2.237-3.433-.276z" class="cls-7" data-name="Caminho 1991" transform="translate(-706.578 -306.468)"/>
    <path id="Caminho_1992" d="M979.65 439.829c.161-.076.332.067.5.1.1.021.2 0 .3.021.2.029.4.178.587.1" class="cls-8" data-name="Caminho 1992" transform="translate(-781.28 -343.731)"/>
    <path id="Caminho_1993" d="M978.67 440.39c.161-.076.332.069.5.1.1.021.2 0 .3.021.2.029.4.178.587.1" class="cls-8" data-name="Caminho 1993" transform="translate(-780.51 -344.158)"/>
    <path id="Caminho_1994" d="M976.42 441.529c.159-.076.33.067.5.1.1.019.2 0 .3.019.2.031.4.178.587.1" class="cls-8" data-name="Caminho 1994" transform="translate(-778.742 -345.027)"/>
    <ellipse id="Elipse_127" cx="43.397" cy="9.91" class="cls-1" data-name="Elipse 127" rx="43.397" ry="9.91" transform="translate(63.407 168.336)"/>
    <path id="Caminho_1995" d="M470.506 277.913a34.881 34.881 0 0 0-2.3-8.818l.139-1.522s.03-.761-.015-1.9a9.549 9.549 0 0 1 .251-2.111 4.724 4.724 0 0 0-.564-3.091c-.094-.15.047-3.043-.8-4.463s-6.469-4.058-6.469-4.058-.3-.7-.729-1.522l.039-.083a8.943 8.943 0 0 0-1.286-1.923c-.345-.409-.677-.642-.945-.528a9.365 9.365 0 0 1-.249-1.205c.056.017.114.033.169.045a1.581 1.581 0 0 0 .707.019c.523-.131.87-.651 1.162-1.141a19.335 19.335 0 0 0 2.96-8.034 5.654 5.654 0 0 0-.075-1.774 6.345 6.345 0 0 0-.5-1.3 10.539 10.539 0 0 0-1.415-2.313 7.868 7.868 0 0 0-3.8-2.309 11.906 11.906 0 0 0-4.908-.407c-.429.055-.857.133-1.286.164a12.033 12.033 0 0 1-1.631-.031l-2.806-.181-.013-.048-.467-.031a1.424 1.424 0 0 0 .229 1.27 2.293 2.293 0 0 1 .474 1.227 2.618 2.618 0 0 1-.542 1.189 1.242 1.242 0 0 0-.174 1.243.691.691 0 0 0 .114.138 1.313 1.313 0 0 0 1.031.3h.064a8.311 8.311 0 0 0-1.421 4.689 8.018 8.018 0 0 0 3.877 6.985c.041.155.081.314.12.476a16.089 16.089 0 0 1 .45 5.14l-.049.119-.03-.126s-3.3 2.487-4.287 3.146a7.012 7.012 0 0 0-2.015 3.5c-.047.609-1.595 9.788-1.595 9.788a24.348 24.348 0 0 0-.776 2.834l-1.965 1.934a27.375 27.375 0 0 1-5.251.1l.034.252a16.168 16.168 0 0 0-3.164-.476 3.054 3.054 0 0 0-1.715.254l-.041.021-.032.017a6.286 6.286 0 0 0-1.8.561 3.816 3.816 0 0 0-.191.093l.013-.311-4.407-.252-2.25-.506s-.8-.713-1.267-.609-1.453-.609-1.453-.609a3.891 3.891 0 0 0-.724-.5l-.122-.925s-1.751-7.708-3.063-12.24a10.587 10.587 0 0 0-2.889-5.167c-.332-.642-.551-1.056-.551-1.056a4.757 4.757 0 0 0-1.134-1.84c-.032-.057-.056-.086-.069-.086a.229.229 0 0 0-.126.021 16.737 16.737 0 0 1-.019-6.809 7.861 7.861 0 0 0 2.473-5.792v-.2a7.989 7.989 0 0 0-1.592-4.826l-.073-.09a.594.594 0 0 0 .056-.05 1.352 1.352 0 0 0 .405-1.227 8.775 8.775 0 0 0-.583-1.248 8.809 8.809 0 0 1-.238-1.018 3.236 3.236 0 0 0-.675-1.305l.032.1a3.84 3.84 0 0 0-3.586-1.336c-.967.171-1.867.67-2.838.825-.7.109-1.406.038-2.107.117a5.068 5.068 0 0 0-1.869.6 1.085 1.085 0 0 0-.4.323 1.866 1.866 0 0 0-.2.611 8.144 8.144 0 0 1-1.539 2.454 6.141 6.141 0 0 0-1.037 3.172 2.743 2.743 0 0 0 .075.868c.047.169.12.328.154.5a3.756 3.756 0 0 1-.259 1.562 3.349 3.349 0 0 0 .152 1.983c.847 2.1 3.627 2.8 4.205 5.01a5.141 5.141 0 0 0 1.391.475c.039.219.073.44.1.663a.158.158 0 0 0-.036.024 5.025 5.025 0 0 0-.937 2.378l-.09.081a39.76 39.76 0 0 1-2.3 1.947c-1.125.863-3 3.754-4.312 4.617s-2.392 6.182-2.109 8.115 1.453 7.354.984 9.332.7 11.006.7 11.006a11.108 11.108 0 0 1 2.3.756l-.024.395-.071 1.189s-2.124 8.521-1.312 15.081-.375 7.235-.375 7.235.249 2.908-.375 3.923a9.206 9.206 0 0 0-.75 3.245s-.062 5 .062 6.419.186 3.992-.251 4.6a19.241 19.241 0 0 0-1.187 5.813c.062 1.217-1.562 3.992-.688 7.575a2.677 2.677 0 0 1-2.572 3.652s.439 5.468 1.376 7.033l.137.223c-.024.09-.047.185-.073.288-.354 1.427-.838 3.678-.5 4.222.5.813.75.675.75.675l.187 3.652s3.751 3.516 6.627 3.383 2.313-3.383 2.313-3.383l-2.45-7.047-.084-.238 2.722-5.706s.75-2.5.937-3.381 1.2-4 1.2-4 2.572-6.762 2.625-7.575.251-5.2.75-6.087a60.583 60.583 0 0 0 1.875-5.944l.034.033a2.157 2.157 0 0 1 .467 1.995 17.665 17.665 0 0 0-.126 3.921 29.467 29.467 0 0 1-.375 3.383 80.194 80.194 0 0 0 .126 12.779 40.082 40.082 0 0 1 .321 6.393c-.294 1.343-.551 3.012-.073 3.21.814.34 4.94.271 4.94.271s1.749-.678 4.126 1.69 9.688-.675 9.688-.675 2.25-.678-2.188-2.637a36.143 36.143 0 0 1-6.4-3.253c.03-.064.062-.128.09-.2 0 0-1.813-1.9-.313-5.273a16.039 16.039 0 0 0 1.438-6.222l.251-11.362-.75-15.083-.581-15.83.1-.038c.1 2.91.611 9.838 3.292 8.495 3.376-1.69.5-6.087.5-6.087l-1.515-3.276.452-.171-1.7-6.077a15.19 15.19 0 0 1-.064-3.583 15.738 15.738 0 0 0-.039-2.092 30.7 30.7 0 0 1 4.728-.782 37.849 37.849 0 0 0 3.959.15c-.324.281-.583.559-.583.559l4.031 3.01s1.367-.83 1.652-1.709a1.732 1.732 0 0 0 .754-.447c.043 1.039.292 2.164 1.157 2.19a1.372 1.372 0 0 0 .63-.138l6.593-1.448-.566 3.921.394.777c-.2 3.307-.429 6.819-.63 9.907l-.092.675.047.012c-.313 4.755-.564 8.357-.564 8.357a4.2 4.2 0 0 1 1.644-1.833l.043 7.057s.33 11.158.33 12.68.045 4.919.045 4.919.705 4.158 1.125 5.528a67.422 67.422 0 0 1 .75 7.608s.986 1.724.564 2.378 1.642 2.078 1.642 2.078a9.345 9.345 0 0 0-1.408 3.3c-.011.152.124.314.369.476a2.68 2.68 0 0 1-.244.2 3.946 3.946 0 0 1-2.842.637c-3.659-.357-6.237 3.4-3.987 4.158s9 .913 9 .913 2.045-1.415 3.644-.777a47.212 47.212 0 0 0 .054 3.034l-.019.017a14.805 14.805 0 0 1-4.574 3.255c-2.572.963-3.142 4.869.186 5.376s8.2-.609 8.2-.609a14.7 14.7 0 0 1 4.476-2.542c1.923-.456 3.564-1.472 3.236-2.689-.214-.777-.765-2.815-1.138-4.184q-.032-.124-.064-.238c.058-.143.116-.29.169-.442 0 0-.984-5.68-.186-7.1s.375-15.623.375-15.623-1.361-3.6-.656-5.78-1.125-5.276-1.125-5.276.2-6.2.735-9.66l.071-.428a16.551 16.551 0 0 0 2.615-1.12s.469-7.813.75-9.586c.028-.166.066-.435.114-.785l.214-1.253.253-1.427.857-4.862 1.547-2.221 3.987-4.517a15.752 15.752 0 0 0 .488-6.896zm-61.478-27.9l-.03.024a.458.458 0 0 1-.011-.052.192.192 0 0 0 .041.032zm39.387 5.537l-.154.373.564-.623-.765.951.257-.6zm-3.806 8.726c-.148.435-.306.906-.472 1.4l.3-1z" class="cls-9" data-name="Caminho 1995" transform="translate(-316.178 -180.818)"/>
    <path id="Caminho_1996" d="M595.632 441.785s-.525 3.878 1.05 3.928 2.628-2.991 2.628-2.991l-.643-2.432z" class="cls-10" data-name="Caminho 1996" transform="translate(-479.502 -344.098)"/>
    <path id="Caminho_1997" d="M595.632 441.785s-.525 3.878 1.05 3.928 2.628-2.991 2.628-2.991l-.643-2.432z" class="cls-11" data-name="Caminho 1997" transform="translate(-479.502 -344.098)"/>
    <path id="Caminho_1998" d="M403.877 757.582c-2.8.136-6.46-3.378-6.46-3.378l-.182-3.65s-.242.136-.731-.675c-.328-.544.144-2.8.489-4.22.167-.694.3-1.189.3-1.189l6.151 1.826.294.863 2.388 7.042s.552 3.246-2.249 3.381z" class="cls-12" data-name="Caminho 1998" transform="translate(-323.032 -575.958)"/>
    <path id="Caminho_1999" d="M495.277 731.262s-7.126 3.041-9.431.675-4.021-1.691-4.021-1.691-4.021.069-4.814-.271c-.467-.2-.214-1.888.077-3.233.2-.93.411-1.7.411-1.7s7-2.637 8.1-1.015a5.537 5.537 0 0 0 1.168 1.236 32.678 32.678 0 0 0 6.387 3.36c4.316 1.962 2.123 2.639 2.123 2.639z" class="cls-12" data-name="Caminho 1999" transform="translate(-386.169 -559.976)"/>
    <path id="Caminho_2000" d="M526.866 496.35l1.948 4.325s2.8 4.394-.487 6.082-3.228-9.729-3.228-9.729z" class="cls-13" data-name="Caminho 2000" transform="translate(-424.153 -386.83)"/>
    <path id="Caminho_2001" d="M495.25 338.61s2.133 1.082 3.412 5.609 2.986 12.232 2.986 12.232 1.157 8.716.973 10.88a15.544 15.544 0 0 0 .062 3.581l1.644 6.082-3.29 1.284-5.056-21.488z" class="cls-14" data-name="Caminho 2001" transform="translate(-400.701 -266.594)"/>
    <path id="Caminho_2002" d="M495.25 338.61s2.133 1.082 3.412 5.609 2.986 12.232 2.986 12.232 1.157 8.716.973 10.88a15.544 15.544 0 0 0 .062 3.581l1.644 6.082-3.29 1.284-5.056-21.488z" class="cls-4" data-name="Caminho 2002" transform="translate(-400.701 -266.594)"/>
    <path id="Caminho_2003" d="M405.622 746.314l.294.863-.36.763c-1.4.675-4.874.136-4.874.136s-.643-.906-1.522-2.4c.167-.694.3-1.189.3-1.189z" class="cls-6" data-name="Caminho 2003" transform="translate(-325.206 -575.973)"/>
    <path id="Caminho_2004" d="M488.153 725.585c-1.777 4.465-7.817 2.808-9.495 2.249-.276-.093-.429-.155-.429-.155s.011-.364.015-.937c.2-.93.411-1.7.411-1.7s7-2.637 8.1-1.015a5.541 5.541 0 0 0 1.168 1.236 2.283 2.283 0 0 0 .23.322z" class="cls-6" data-name="Caminho 2004" transform="translate(-387.329 -559.976)"/>
    <path id="Caminho_2005" d="M420.586 519.678c-1.462 3.376.306 5.271.306 5.271-1.777 4.463-7.817 2.808-9.495 2.247-.276-.09-.429-.152-.429-.152a45.629 45.629 0 0 0-.3-6.895 82.092 82.092 0 0 1-.122-12.77 30.038 30.038 0 0 0 .364-3.381 18.26 18.26 0 0 1 .122-3.918 2.18 2.18 0 0 0-.454-1.992l-.032-.036a60.6 60.6 0 0 1-1.832 5.948c-.489.875-.669 5.271-.731 6.082s-2.559 7.57-2.559 7.57-.973 3.108-1.155 3.985-.915 3.381-.915 3.381l-2.936 6.286c-1.4.675-4.874.136-4.874.136s-.669-.951-1.584-2.5-1.34-7.026-1.34-7.026 3.35-.069 2.5-3.65.731-6.353.671-7.57a19.667 19.667 0 0 1 1.157-5.811c.427-.609.364-3.176.242-4.6s-.06-6.419-.06-6.419a9.369 9.369 0 0 1 .731-3.243c.609-1.013.366-3.921.366-3.921s1.155-.675.364-7.23 1.286-15.069 1.286-15.069l.071-1.189.111-1.926s17.423-1.217 18.824.269a5.169 5.169 0 0 1 .89 1.415 15.217 15.217 0 0 1 1.007 3.6l.731 20.476.731 15.069-.242 11.348a16.49 16.49 0 0 1-1.414 6.215z" class="cls-15" data-name="Caminho 2005" transform="translate(-320.068 -359.744)"/>
    <path id="Caminho_2006" d="M480.418 538.42l-1.828 43.923-2.195 4c-.276-.09-.429-.152-.429-.152a45.622 45.622 0 0 0-.3-6.895 82.1 82.1 0 0 1-.122-12.77 30.038 30.038 0 0 0 .364-3.381 18.257 18.257 0 0 1 .122-3.918 2.181 2.181 0 0 0-.454-1.992l.03-.238z" class="cls-6" data-name="Caminho 2006" transform="translate(-385.065 -418.898)"/>
    <path id="Caminho_2007" d="M406.7 731.815s4.752-2.095 5.483-1.427-5.6 1.688-5.6 1.688z" class="cls-6" data-name="Caminho 2007" transform="translate(-331.036 -565.124)"/>
    <path id="Caminho_2008" d="M500.394 713.5c-.182.069-4.812 1.9-4.385 3.852s4.385-3.852 4.385-3.852z" class="cls-6" data-name="Caminho 2008" transform="translate(-401.275 -552.351)"/>
    <path id="Caminho_2009" d="M449.07 285.018s1.552 4.156.731 6.286 8.862 5.777 8.862 5.777-2.831-8.11-.09-12.673-9.503.61-9.503.61z" class="cls-13" data-name="Caminho 2009" transform="translate(-364.419 -223.845)"/>
    <path id="Caminho_2010" d="M660.131 772.692a14.256 14.256 0 0 0-4.34 2.535s-4.752 1.115-8 .609-2.694-4.41-.182-5.373a14.57 14.57 0 0 0 4.46-3.25c.412-.421.656-.713.656-.713l9.094-2.028.354 1.341c.364 1.372.9 3.407 1.108 4.182.319 1.227-1.281 2.24-3.15 2.697z" class="cls-16" data-name="Caminho 2010" transform="translate(-518.781 -591.203)"/>
    <path id="Caminho_2011" d="M633.406 741.66s-3.839.456-5.437-.557-3.884.609-3.884.609-6.58-.152-8.773-.913.319-4.517 3.884-4.156a3.776 3.776 0 0 0 2.771-.637 3.275 3.275 0 0 0 1.207-2.006l7.716.506 1.072 3.034z" class="cls-16" data-name="Caminho 2011" transform="translate(-494.386 -567.977)"/>
    <path id="Caminho_2012" d="M659.482 738.924s-8.968-1.626-10.112-2.917a3.275 3.275 0 0 0 1.207-2.007l7.716.506 1.072 3.034z" class="cls-6" data-name="Caminho 2012" transform="translate(-521.789 -567.977)"/>
    <path id="Caminho_2013" d="M634.52 513.219l.092 14.848s.319 11.151.319 12.672.045 4.914.045 4.914.686 4.156 1.1 5.526a68.6 68.6 0 0 1 .731 7.608s.96 1.724.549 2.378 1.6 2.078 1.6 2.078a9.322 9.322 0 0 0-1.37 3.3c-.084 1.317 10.232 3.188 10.232 3.188l-4.018-45.718-3.2-11.453z" class="cls-17" data-name="Caminho 2013" transform="translate(-510.121 -399.186)"/>
    <path id="Caminho_2014" d="M634.52 513.219l.092 14.848s.319 11.151.319 12.672.045 4.914.045 4.914.686 4.156 1.1 5.526a68.6 68.6 0 0 1 .731 7.608s.96 1.724.549 2.378 1.6 2.078 1.6 2.078a9.322 9.322 0 0 0-1.37 3.3c-.084 1.317 10.232 3.188 10.232 3.188l-4.018-45.718-3.2-11.453z" class="cls-6" data-name="Caminho 2014" transform="translate(-510.121 -399.186)"/>
    <path id="Caminho_2015" d="M686.113 765.823c-2.986 7.9-10.086 1.8-10.086 1.8s0-.152-.017-.414c.412-.421.656-.713.656-.713l9.094-2.028s.148.577.353 1.355z" class="cls-6" data-name="Caminho 2015" transform="translate(-542.719 -591.203)"/>
    <path id="Caminho_2016" d="M660.47 567.788c-2.926 8.322-10.189 2.078-10.189 2.078a32.27 32.27 0 0 1 .229-6.284c.459-1.976-.5-7.908-.5-7.908a46.871 46.871 0 0 0-1.05-6.486 12.752 12.752 0 0 1-.457-3.852 8.131 8.131 0 0 0-.229-2.941 21.755 21.755 0 0 1-.643-3.852 45.028 45.028 0 0 0-.411-6.132l-1.417-7.846-2.563-16.065.8-.152 14.324-2.787s2.7 15.216 1.781 16.776a7.1 7.1 0 0 0-.514 2.056c-.523 3.452-.718 9.651-.718 9.651s1.781 3.091 1.1 5.271.643 5.778.643 5.778.411 14.192-.367 15.611.181 7.084.181 7.084z" class="cls-17" data-name="Caminho 2016" transform="translate(-516.972 -393.85)"/>
    <path id="Caminho_2017" d="M678.119 298.5s-12.975 10.136-10.052 5.067c1.575-2.729 1.286-6.205.669-8.83a22.348 22.348 0 0 0-1.286-3.873s11.025-5.2 9.563-.54a9.771 9.771 0 0 0 1.106 8.176z" class="cls-18" data-name="Caminho 2017" transform="translate(-535.993 -228.311)"/>
    <path id="Caminho_2018" d="M583.623 426.035s-5.483-1.757-6.4-.033.274 5.506 1.929 6.115 5.452-2.061 5.452-2.061z" class="cls-18" data-name="Caminho 2018" transform="translate(-464.86 -332.63)"/>
    <path id="Caminho_2019" d="M608.7 416l-2.285 2.332a26.071 26.071 0 0 1-5.118.1s1.052 7.806-.457 8.768l9.229-2.078z" class="cls-10" data-name="Caminho 2019" transform="translate(-483.66 -325.584)"/>
    <path id="Caminho_2020" d="M608.7 416l-2.285 2.332a26.071 26.071 0 0 1-5.118.1s1.052 7.806-.457 8.768l9.229-2.078z" class="cls-6" data-name="Caminho 2020" transform="translate(-483.66 -325.584)"/>
    <path id="Caminho_2021" d="M450.347 249.734c0 4.2-3.071 7.608-6.859 7.608-3.519-1.876-6.859-3.4-6.859-7.608a7.84 7.84 0 0 1 3.346-6.839 6.283 6.283 0 0 1 7.015 0 7.84 7.84 0 0 1 3.346 6.839z" class="cls-6" data-name="Caminho 2021" transform="translate(-354.641 -192.82)"/>
    <path id="Caminho_2022" d="M450.458 249.9a7.417 7.417 0 0 1-5.673 7.487 6.792 6.792 0 0 1-7.618-4.923 7.993 7.993 0 0 1 3.072-9.167 6.4 6.4 0 0 1 8.667 1.794 8.136 8.136 0 0 1 1.552 4.809z" class="cls-13" data-name="Caminho 2022" transform="translate(-354.752 -193.188)"/>
    <path id="Caminho_2023" d="M446.641 463a15.014 15.014 0 0 1-2.124 1.222s-3.472-.559-3.974.1-4.93.913-4.93.913-6.762-.354-7.767-1.317a4.05 4.05 0 0 0-1.027-.675l.111-1.926s17.423-1.217 18.825.269a5.17 5.17 0 0 1 .886 1.414z" class="cls-6" data-name="Caminho 2023" transform="translate(-346.937 -359.767)"/>
    <path id="Caminho_2024" d="M433.169 345.3c-.137.861-2.971 2.178-2.971 2.178s-3.472-.556-3.974.1-4.93.913-4.93.913-6.762-.357-7.767-1.32a8.212 8.212 0 0 0-3.245-1.427s-1.142-9.02-.684-11-.686-7.4-.96-9.327.776-7.247 2.055-8.107 3.108-3.752 4.2-4.613a36.897 36.897 0 0 0 2.242-1.947l.088-.081a5.107 5.107 0 0 1 .915-2.377c.731-.806 7.446 5.119 7.446 5.119s.047.457.5-.4c.1-.193.988 1.224 1.142 1.824 0 0 3.654 7.1 3.884 8.559s1.187 6.234 1.37 7.4c.047.3.124 1.35.214 2.758.017.276.032.568.052.872.135 2.335.281 5.316.369 7.57 0 .257.019.5.026.742q.076 1.282.028 2.564z" class="cls-14" data-name="Caminho 2024" transform="translate(-332.619 -243.431)"/>
    <path id="Caminho_2025" d="M415 387.21s2.512 3.4 3.335 3.4-3.335-3.4-3.335-3.4z" class="cls-6" data-name="Caminho 2025" transform="translate(-337.651 -303.639)"/>
    <path id="Caminho_2026" d="M426.44 417.91s-4.113 4.967-3.564 5.88 3.564-5.88 3.564-5.88z" class="cls-6" data-name="Caminho 2026" transform="translate(-343.799 -327.04)"/>
    <path id="Caminho_2027" d="M425.62 434.783s4.715-5.728 4.93-7.7z" class="cls-6" data-name="Caminho 2027" transform="translate(-345.995 -334.029)"/>
    <path id="Caminho_2028" d="M453.33 441.269s5.437-3.193 5.894-5.728-5.894 5.728-5.894 5.728z" class="cls-6" data-name="Caminho 2028" transform="translate(-367.766 -340.11)"/>
    <path id="Caminho_2029" d="M482.754 329.461l-.754 2.026 1.256.659 1.234 3.828s3.4 7.551 3.266 11.479a77.035 77.035 0 0 0 .617 9.831l1.963-.4-.926-11.553a18.146 18.146 0 0 0-1.2-5.185c-1.569-3.985-4.488-11.341-4.672-11.341-.251 0-.075.1-.075.1z" class="cls-6" data-name="Caminho 2029" transform="translate(-390.291 -259.116)"/>
    <path id="Caminho_2030" d="M483.6 328.609l-.754 2.028 1.258.659 1.232 3.828s3.4 7.551 3.266 11.479a77.042 77.042 0 0 0 .617 9.831l1.965-.4-.928-11.553a18.082 18.082 0 0 0-1.194-5.185c-1.569-3.987-4.488-11.341-4.67-11.341-.253 0-.077.1-.077.1z" class="cls-19" data-name="Caminho 2030" transform="translate(-390.959 -258.468)"/>
    <path id="Caminho_2031" d="M573.516 433.378a16.228 16.228 0 0 1-4.16-1.9l-.386-.238.047-3.925a6.029 6.029 0 0 1 .7-.392c1.217-.59 3.714-1.391 4.966 1.189 1.688 3.457.044 5.357-1.167 5.266z" class="cls-13" data-name="Caminho 2031" transform="translate(-458.621 -333.452)"/>
    <path id="Caminho_2032" d="M448.771 245.006a.962.962 0 0 1-.319.145c-.8.193-1.7-.566-2.381-.078a2.016 2.016 0 0 0-.568 1.467l-.291 2.834a3.828 3.828 0 0 1-.189.977 2.167 2.167 0 0 1-2.1 1.241 1.177 1.177 0 0 1-.907-.333c-.148-.166-.227-.4-.39-.552-1.072-1-1.4 1.446-1.115 2.14.454 1.134 2.068 2.228 1.391 3.669a1.315 1.315 0 0 1-.5.554A7.543 7.543 0 0 1 436.6 250a7.64 7.64 0 0 1 4.477-7.329 6.444 6.444 0 0 1 7.694 2.335z" class="cls-6" data-name="Caminho 2032" transform="translate(-354.616 -193.106)"/>
    <path id="Caminho_2033" d="M433.354 239.677c.161.15.242.383.39.549a1.179 1.179 0 0 0 .907.333 2.156 2.156 0 0 0 2.1-1.243 3.7 3.7 0 0 0 .191-.975l.292-2.834a2.007 2.007 0 0 1 .568-1.467c.682-.476 1.586.271 2.381.078a1.3 1.3 0 0 0 .857-1.488 8.771 8.771 0 0 0-.566-1.246 8.874 8.874 0 0 1-.234-1.015 3.6 3.6 0 0 0-4.094-2.572c-.943.174-1.82.673-2.765.825-.677.109-1.37.038-2.053.119a4.81 4.81 0 0 0-1.822.6 1.077 1.077 0 0 0-.386.323 1.915 1.915 0 0 0-.193.609 8.225 8.225 0 0 1-1.5 2.454 6.26 6.26 0 0 0-1.016 3.165 2.8 2.8 0 0 0 .073.868c.045.166.116.328.15.5a3.815 3.815 0 0 1-.253 1.56 3.437 3.437 0 0 0 .15 1.983c.823 2.1 3.534 2.8 4.1 5a4.159 4.159 0 0 0 1.595.476 1.5 1.5 0 0 0 1.406-.8c.675-1.427-.937-2.535-1.391-3.666-.286-.695.033-3.134 1.113-2.136z" class="cls-20" data-name="Caminho 2033" transform="translate(-346.53 -182.086)"/>
    <path id="Caminho_2034" d="M677.055 290.327a9.62 9.62 0 0 0-.429 3.386c-.33.311-.69-.621-1.072-.38-1.046.67-2.255 2.266-3.549 2.266a6.547 6.547 0 0 1-3.23-.858 22.337 22.337 0 0 0-1.286-3.873s11.028-5.203 9.566-.541z" class="cls-6" data-name="Caminho 2034" transform="translate(-536.025 -228.311)"/>
    <path id="Caminho_2035" d="M669.517 258.408c0 4.367-3.192 7.908-7.129 7.908s-7.129-3.54-7.129-7.908 3.192-7.908 7.129-7.908 7.13 3.54 7.129 7.908z" class="cls-18" data-name="Caminho 2035" transform="translate(-526.416 -199.432)"/>
    <path id="Caminho_2036" d="M655.817 324.03s-1.342 1.622-1.524 1.755-4.072 18.307-4.141 18.519-4.632 16.622-4.632 16.622l-7.311 3.987.611-20.071 5.358-16.553s1.768-2.23 2.315-3.041 7.371-5.678 7.371-5.678l1.166 2.665z" class="cls-21" data-name="Caminho 2036" transform="translate(-513.021 -252.08)"/>
    <path id="Caminho_2037" d="M684.541 323.945l-8.406 6.676-.135-3.666c.549-.811 7.371-5.675 7.371-5.675z" class="cls-6" data-name="Caminho 2037" transform="translate(-542.711 -253.384)"/>
    <path id="Caminho_2038" d="M685.407 322.235L677 328.911l-.131-3.664c.549-.813 7.371-5.678 7.371-5.678z" class="cls-21" data-name="Caminho 2038" transform="translate(-543.395 -252.08)"/>
    <path id="Caminho_2039" d="M637.6 336.59l.281 1.631-1.88 2.118 1.5-3.726s-3.215 2.484-4.179 3.143a6.928 6.928 0 0 0-1.965 3.5c-.036.609-1.554 9.781-1.554 9.781s-1.142 3.4-.821 4.358-1.736 31.322-1.736 31.322a4.158 4.158 0 0 1 2.754-2.338l-.733-17.941s.892-11.935.937-12.087l2.079-7.071z" class="cls-10" data-name="Caminho 2039" transform="translate(-504.41 -265.054)"/>
    <path id="Caminho_2040" d="M641.8 344.3l-.146 3.329s-2.034 7.121-2.718 8.286-2.765 8.11-2.765 8.11L635 376.088l-2.01 1.015-.99-2.023 1.646-11.65s3.106-9.831 3.564-10.846l2.291-5.354z" class="cls-6" data-name="Caminho 2040" transform="translate(-508.142 -270.931)"/>
    <path id="Caminho_2041" d="M640.918 343.45l-.144 3.329s-2.034 7.121-2.72 8.286-2.763 8.11-2.763 8.11l-1.166 12.061-2.01 1.013-1.005-2.026 1.646-11.65s3.106-9.834 3.562-10.846l2.308-5.347z" class="cls-22" data-name="Caminho 2041" transform="translate(-507.442 -270.283)"/>
    <path id="Caminho_2042" d="M566.31 446.766l3.929 3.017s2.771-1.724 1.157-2.839a6.657 6.657 0 0 0-3.564-1.284c-.519 0-1.522 1.106-1.522 1.106z" class="cls-18" data-name="Caminho 2042" transform="translate(-456.531 -348.192)"/>
    <path id="Caminho_2043" d="M578.955 425.564a.69.69 0 0 0-.285.573c0 .925.094 3.374.793 2.268.857-1.353.7-2.568 2.01-1.69a8.087 8.087 0 0 1 2.1 2.14l-.364-2.905s-2.692-1.474-4.254-.386z" class="cls-18" data-name="Caminho 2043" transform="translate(-466.242 -332.569)"/>
    <path id="Caminho_2044" d="M662.68 522.3a7.1 7.1 0 0 0-.514 2.057c-8.012 2.665-13.873-2.97-13.873-2.97q-1.064-4-1.736-8.107a29.309 29.309 0 0 1 .021-4.969l14.322-2.791s2.695 15.204 1.78 16.78z" class="cls-6" data-name="Caminho 2044" transform="translate(-519.504 -393.82)"/>
    <path id="Caminho_2045" d="M670.859 334.982a17.446 17.446 0 0 0-.227 4l-3.29 17.233s-1.6 13.279-1.873 15.052-.731 9.579-.731 9.579a14.328 14.328 0 0 1-16.5-1.824q-1.063-4-1.736-8.11c-.459-3.01.891-15.069 1.53-20.426.191-1.586.319-2.584.319-2.584l2.4-9.884s2.947-8.338 4.044-10.77 5.5-7.9 5.5-7.9c.547-.385 1.421.975 2.071 2.214.491.937.857 1.807.857 1.807s5.483 2.634 6.3 4.042.686 4.308.778 4.46a4.859 4.859 0 0 1 .558 3.111z" class="cls-10" data-name="Caminho 2045" transform="translate(-519.459 -251.867)"/>
    <path id="Caminho_2046" d="M664.581 329.5s.411 2.687-.643 3.5c-1.018.785-8.6 17.316-9.068 18.348.191-1.588.319-2.587.319-2.587l2.4-9.881s2.949-8.338 4.044-10.773 5.506-7.9 5.506-7.9c.547-.385 1.419.975 2.068 2.214-.98 2.256-3.023 6.521-4.626 7.079z" class="cls-6" data-name="Caminho 2046" transform="translate(-526.11 -252.515)"/>
    <path id="Caminho_2047" d="M663.716 328.648s.409 2.687-.643 3.5-8.595 17.313-9.073 18.345c.191-1.586.319-2.584.319-2.584l2.4-9.884s2.947-8.338 4.044-10.77 5.5-7.9 5.5-7.9c.547-.385 1.421.975 2.07 2.214-.972 2.255-3.016 6.523-4.617 7.079z" class="cls-10" data-name="Caminho 2047" transform="translate(-525.426 -251.867)"/>
    <path id="Caminho_2048" d="M601.324 410.262l-2.578 14.881-.247 1.424-.555 3.2-2.368-.556-1.1-.259-15.275-3.59-1.123-.264-2.563-.6.5-3.695.208-1.536 1.85-13.623z" class="cls-23" data-name="Caminho 2048" transform="translate(-452.162 -309.204)"/>
    <path id="Caminho_2049" d="M665.439 511.92s-6.076 2.432-4.752 5.321 9.823-2.23 9.823-2.23z" class="cls-18" data-name="Caminho 2049" transform="translate(-530.532 -398.698)"/>
    <path id="Caminho_2050" d="M703.8 599.1c0 .2.229 2.789 1.142 3.7s-1.142-3.7-1.142-3.7z" class="cls-6" data-name="Caminho 2050" transform="translate(-564.553 -465.15)"/>
    <path id="Caminho_2051" d="M675.24 637.68a8.22 8.22 0 0 0 5.435 4.715c4.341 1.369-5.435-4.715-5.435-4.715z" class="cls-6" data-name="Caminho 2051" transform="translate(-542.114 -494.558)"/>
    <path id="Caminho_2052" d="M674.6 258.474a8.1 8.1 0 0 1-3.573 6.855 3.917 3.917 0 0 1-1.072-.991 1.653 1.653 0 0 1-.366-1.488c.15-.4.547-.656.643-1.072a1.747 1.747 0 0 0-.034-.766c-.079-.392-.154-.785-.232-1.175-.066-.333-.184-.725-.482-.806s-.547.195-.78.4a2.255 2.255 0 0 1-2.358.43c-.688-.411-.5-1.788-.606-2.532a.462.462 0 0 0-.15-.335.568.568 0 0 0-.311-.024c-.371 0-.669-.368-.776-.763a7.279 7.279 0 0 1-.124-1.224 1.416 1.416 0 0 0-.493-1.058 1.392 1.392 0 0 0-.812-.147l-1.344.017a6.743 6.743 0 0 1 7.957-2.81 7.877 7.877 0 0 1 4.9 7.5z" class="cls-6" data-name="Caminho 2052" transform="translate(-531.5 -199.498)"/>
    <path id="Caminho_2053" d="M664.331 252.594c.234-.2.491-.476.78-.4s.414.476.48.8l.232 1.172a1.761 1.761 0 0 1 .036.768c-.109.418-.5.67-.656 1.072a1.653 1.653 0 0 0 .366 1.486 3.809 3.809 0 0 0 2.205 1.462 1.465 1.465 0 0 0 .688.017c.51-.131.857-.651 1.132-1.139a19.64 19.64 0 0 0 2.885-8.029 5.7 5.7 0 0 0-.073-1.771 6.311 6.311 0 0 0-.489-1.3 10.627 10.627 0 0 0-1.378-2.313 7.662 7.662 0 0 0-3.7-2.3 11.354 11.354 0 0 0-4.782-.416c-.429.055-.84.133-1.262.164a11.454 11.454 0 0 1-1.59-.028l-3.155-.209a1.478 1.478 0 0 0 .214 1.27 2.416 2.416 0 0 1 .463 1.227 2.643 2.643 0 0 1-.529 1.189 1.273 1.273 0 0 0-.169 1.243 1.13 1.13 0 0 0 1.072.39l1.59-.019a1.389 1.389 0 0 1 .808.155 1.42 1.42 0 0 1 .493 1.058 7.729 7.729 0 0 0 .124 1.224c.109.395.405.768.776.763a.525.525 0 0 1 .311.026.456.456 0 0 1 .15.333c.111.744-.094 2.118.606 2.532a2.276 2.276 0 0 0 2.372-.427z" class="cls-22" data-name="Caminho 2053" transform="translate(-526.936 -192.663)"/>
    <path id="Caminho_2054" d="M687.941 353.4a3.5 3.5 0 0 0-3.676 2.6c-.857 2.708-2.287 7.594-1.929 9.525.5 2.737 1.1 7.3 1.1 7.3s2.6 1.664 1.286 3.343a10.027 10.027 0 0 0-1.691 4.056 4.041 4.041 0 0 0-2.055 2.535c-.364 1.724-2.833 4.1-2.833 4.1l-3.7 4.106s6.121 6.895 7.356 7.247l3.791-4.917 4.477-6.588 3.884-4.517a16.354 16.354 0 0 0 .457-6.895 35.726 35.726 0 0 0-2.24-8.818l.137-1.522s.417-10.896-4.364-11.555z" class="cls-6" data-name="Caminho 2054" transform="translate(-541.485 -277.85)"/>
    <path id="Caminho_2055" d="M689.648 353.4a3.5 3.5 0 0 0-3.672 2.6c-.857 2.708-2.287 7.594-1.929 9.524.5 2.737 1.1 7.3 1.1 7.3s2.6 1.664 1.286 3.343a10.007 10.007 0 0 0-1.689 4.056 4.048 4.048 0 0 0-2.058 2.534c-.366 1.724-2.831 4.1-2.831 4.1l-3.7 4.106s6.121 6.895 7.356 7.247l3.789-4.91 4.467-6.588 3.884-4.517a16.308 16.308 0 0 0 .457-6.895 35.886 35.886 0 0 0-2.238-8.818l.137-1.522s.423-10.9-4.359-11.56z" class="cls-10" data-name="Caminho 2055" transform="translate(-542.829 -277.852)"/>
    <path id="Caminho_2056" d="M721.28 418.34s3.884 5.269 5.53 4.1-5.53-4.1-5.53-4.1z" class="cls-6" data-name="Caminho 2056" transform="translate(-578.286 -327.367)"/>
    <path id="Caminho_2057" d="M728.1 401.28c.411.152 3.794 5.373 5.53 4.755s-5.53-4.755-5.53-4.755z" class="cls-6" data-name="Caminho 2057" transform="translate(-583.644 -314.363)"/>
    <path id="Caminho_2058" d="M732.58 439s.229 2.991 3.016 2.584S732.58 439 732.58 439z" class="cls-6" data-name="Caminho 2058" transform="translate(-587.164 -343.115)"/>
    <path id="Caminho_2059" d="M615.5 301.83l-1.507 3.726 1.882-2.118z" class="cls-6" data-name="Caminho 2059" transform="translate(-482.394 -230.068)"/>
    <path id="Caminho_2060" d="M615.5 300.98l-1.507 3.726 1.882-2.118z" class="cls-21" data-name="Caminho 2060" transform="translate(-482.394 -229.42)"/>
    <path id="Caminho_2061" d="M581.035 469.046l-1.123-.264-2.062-4.3.208-1.536z" class="cls-24" data-name="Caminho 2061" transform="translate(-454 -352.881)"/>
    <path id="Caminho_2062" d="M668.254 487.65l-.247 1.424-2.923 2.646-1.1-.259z" class="cls-24" data-name="Caminho 2062" transform="translate(-521.67 -371.708)"/>
    <path id="Caminho_2063" d="M442.277 370.109c-.566.1-1.115.2-1.616.271-2.786.407-9.413-3.243-9.413-3.243s-8.087-7.5-10.416-14.6 2.786-8.16 2.786-8.16c1.929-1.217 6.123 2.178 6.717 2.737a4.487 4.487 0 0 1 1.05 2.889c-.047.913 1.372 2.078 1.372 2.078a45.99 45.99 0 0 0 3.016 5.169 2.726 2.726 0 0 1 .913 1.826c.182.863 1.781 1.572 2.467 1.519s1.5.254 1.5.659c0 .326.671.487 1.222.54.162 2.606.325 6.006.402 8.315z" class="cls-6" data-name="Caminho 2063" transform="translate(-341.754 -270.793)"/>
    <path id="Caminho_2064" d="M443.595 366.768c-.429.076-.84.145-1.226.2-2.786.407-9.411-3.243-9.411-3.243s-8.087-7.5-10.416-14.6 2.786-8.16 2.786-8.16c1.929-1.217 6.121 2.178 6.715 2.737a4.5 4.5 0 0 1 1.052 2.889c-.045.913 1.37 2.078 1.37 2.078a46 46 0 0 0 3.016 5.169 2.737 2.737 0 0 1 .915 1.826c.184.863 1.781 1.569 2.467 1.519s1.5.254 1.5.659c0 .238.382.4.806.475.017.276.032.568.051.873.141 2.343.287 5.324.375 7.578z" class="cls-6" data-name="Caminho 2064" transform="translate(-343.098 -268.194)"/>
    <path id="Caminho_2065" d="M569.716 428.84l-.174 4.555h-.186l-.386-.238.047-3.925a6.024 6.024 0 0 1 .699-.392z" class="cls-6" data-name="Caminho 2065" transform="translate(-458.621 -335.371)"/>
    <path id="Caminho_2066" d="M423.617 342.674s-5.116 1.065-2.786 8.16 10.416 14.6 10.416 14.6 6.625 3.647 9.413 3.243 7.034-1.469 7.583-1.317 4.25.152 4.25.152l.182-4.755-4.287-.254-2.193-.506s-.778-.713-1.235-.609-1.415-.609-1.415-.609a2.634 2.634 0 0 0-1.286-.659c-.553 0-1.6-.152-1.6-.556s-.823-.713-1.5-.659-2.3-.659-2.484-1.531a2.726 2.726 0 0 0-.913-1.824 46.009 46.009 0 0 1-3.016-5.171s-1.417-1.165-1.372-2.076a4.509 4.509 0 0 0-1.05-2.891c-.59-.56-4.791-3.953-6.707-2.738z" class="cls-14" data-name="Caminho 2066" transform="translate(-341.754 -269.493)"/>
    <path id="Caminho_2067" d="M491.794 412.15s-1.965 2.18-1.464 2.584z" class="cls-6" data-name="Caminho 2067" transform="translate(-396.771 -322.649)"/>
    <path id="Caminho_2068" d="M499.965 419.4s-2.559 2.18-1.873 2.332 1.873-2.332 1.873-2.332z" class="cls-6" data-name="Caminho 2068" transform="translate(-402.842 -328.175)"/>
    <path id="Caminho_2069" d="M487 433c.367.2 5.8 3.8 7.859 3.752z" class="cls-6" data-name="Caminho 2069" transform="translate(-394.219 -338.542)"/>
    <path id="Caminho_2070" d="M457.749 315.152s-.96 3.5-1.327 3.5c-.287 0-5.11-4.332-7.122-6.153l.088-.081a5.094 5.094 0 0 1 .913-2.378c.731-.808 7.448 5.112 7.448 5.112z" class="cls-6" data-name="Caminho 2070" transform="translate(-364.599 -244.757)"/>
    <path id="Caminho_2071" d="M456.889 313.442s-.958 3.5-1.325 3.5c-.289 0-5.112-4.332-7.124-6.153l.088-.081a5.107 5.107 0 0 1 .915-2.378c.731-.808 7.446 5.112 7.446 5.112z" class="cls-14" data-name="Caminho 2071" transform="translate(-363.924 -243.454)"/>
    <g id="Grupo_687" class="cls-25" data-name="Grupo 687" transform="translate(80.026 46.952)">
        <path id="Caminho_2072" d="M427.49 282.54c.643 1.629 2.413 2.418 3.44 3.716-.611-1.595-2.396-2.377-3.44-3.716z" data-name="Caminho 2072" transform="translate(-427.49 -270.807)"/>
        <path id="Caminho_2073" d="M447.736 293.914a1.5 1.5 0 0 1-1.406.8 3.783 3.783 0 0 1-1.41-.4 3.2 3.2 0 0 1 .364.861 4.141 4.141 0 0 0 1.595.476 1.488 1.488 0 0 0 1.406-.8 2.2 2.2 0 0 0-.517-2.311 1.657 1.657 0 0 1-.032 1.374z" data-name="Caminho 2073" transform="translate(-441.184 -278.429)"/>
        <path id="Caminho_2074" d="M460.567 236.759a8.532 8.532 0 0 0-.566-1.246 8.478 8.478 0 0 1-.234-1.018 3.262 3.262 0 0 0-.658-1.305 3.268 3.268 0 0 1 .109.359 8.91 8.91 0 0 0 .24 1.022 8.534 8.534 0 0 1 .566 1.246 1.3 1.3 0 0 1-.857 1.488c-.793.193-1.7-.568-2.379-.078a2 2 0 0 0-.57 1.465q-.144 1.427-.292 2.836a3.719 3.719 0 0 1-.189.975 2.165 2.165 0 0 1-2.1 1.243 1.185 1.185 0 0 1-.9-.333 6.584 6.584 0 0 0-.392-.552c-1.072-1-1.4 1.443-1.115 2.14a4.372 4.372 0 0 0 .523.873c-.236-.785.094-3.043 1.14-2.076a6.1 6.1 0 0 1 .39.552 1.193 1.193 0 0 0 .907.333 2.165 2.165 0 0 0 2.1-1.243 3.721 3.721 0 0 0 .189-.977q.146-1.427.292-2.834a2.007 2.007 0 0 1 .568-1.465c.684-.49 1.588.271 2.381.076a1.3 1.3 0 0 0 .847-1.481z" data-name="Caminho 2074" transform="translate(-446.061 -233.19)"/>
    </g>
    <path id="Caminho_2075" d="M668.736 258.258a1.5 1.5 0 0 1-.688-.019 3.808 3.808 0 0 1-2.2-1.46 1.647 1.647 0 0 1-.366-1.488c.15-.4.544-.654.643-1.072a1.76 1.76 0 0 0-.036-.768l-.231-1.172c-.066-.333-.182-.725-.48-.8s-.547.193-.78.4a2.251 2.251 0 0 1-2.358.43c-.686-.414-.5-1.788-.607-2.532a.463.463 0 0 0-.15-.333.554.554 0 0 0-.313-.026c-.371 0-.667-.369-.776-.763a7.463 7.463 0 0 1-.122-1.224 1.422 1.422 0 0 0-.5-1.058 1.408 1.408 0 0 0-.808-.155l-1.59.019c-.392 0-.857-.029-1.072-.39a1.288 1.288 0 0 1 .169-1.243 2.578 2.578 0 0 0 .529-1.189 2.371 2.371 0 0 0-.463-1.227 2.332 2.332 0 0 1-.27-.68l-.457-.031a1.488 1.488 0 0 0 .214 1.27 2.406 2.406 0 0 1 .463 1.224 2.644 2.644 0 0 1-.529 1.189 1.266 1.266 0 0 0-.167 1.243 1.129 1.129 0 0 0 1.072.392l1.59-.021a1.1 1.1 0 0 1 1.3 1.215 7.266 7.266 0 0 0 .124 1.224c.107.392.405.768.776.761a.57.57 0 0 1 .311.026.466.466 0 0 1 .15.335c.111.742-.094 2.118.607 2.532a2.243 2.243 0 0 0 2.358-.43c.234-.2.493-.475.782-.4s.414.476.478.8l.234 1.175a1.758 1.758 0 0 1 .034.768c-.107.416-.5.67-.654 1.07a1.652 1.652 0 0 0 .366 1.488 3.805 3.805 0 0 0 2.218 1.46 1.5 1.5 0 0 0 .688.019 1.647 1.647 0 0 0 .892-.751 1.141 1.141 0 0 1-.381.192z" class="cls-6" data-name="Caminho 2075" transform="translate(-526.751 -192.549)"/>
    <ellipse id="Elipse_128" cx="5.18" cy=".882" class="cls-1" data-name="Elipse 128" rx="5.18" ry=".882" transform="translate(38.476 168.947)"/>
    <ellipse id="Elipse_129" cx="5.18" cy=".882" class="cls-1" data-name="Elipse 129" rx="5.18" ry=".882" transform="translate(219.353 146.013)"/>
    <ellipse id="Elipse_130" cx="15.003" cy="2.554" class="cls-1" data-name="Elipse 130" rx="15.003" ry="2.554" transform="translate(156.717 179.886)"/>
    <ellipse id="Elipse_131" cx="11.702" cy="1.992" class="cls-1" data-name="Elipse 131" rx="11.702" ry="1.992" transform="translate(202.667 169.63)"/>
    <ellipse id="Elipse_132" cx="19.845" cy="3.379" class="cls-1" data-name="Elipse 132" rx="19.845" ry="3.379" transform="translate(192.598 188.096)"/>
    <ellipse id="Elipse_133" cx="15.003" cy="2.554" class="cls-1" data-name="Elipse 133" rx="15.003" ry="2.554" transform="translate(6.481 191.893)"/>
    <path id="Caminho_2076" d="M252.97 631.85a1.928 1.928 0 0 1-.27 2.14c-.857 1.289-1.565 2.378-1.286 3.172 0 0 1.286-2.378 2.358-2.42s.357-1.456-.802-2.892z" class="cls-23" data-name="Caminho 2076" transform="translate(-209.078 -490.114)"/>
    <path id="Caminho_2077" d="M253.11 631.85a1 1 0 0 1 .12.266c1.029 1.341 1.575 2.589.587 2.615-.919.029-2.023 1.855-2.287 2.316a.949.949 0 0 0 .03.1s1.286-2.378 2.358-2.42.351-1.441-.808-2.877z" class="cls-6" data-name="Caminho 2077" transform="translate(-209.217 -490.114)"/>
    <path id="Caminho_2078" d="M263.5 635.792a1.149 1.149 0 0 1-.069.542 1.135 1.135 0 0 1-.069-.542c0-.3.039-.157.075-.157s.063-.142.063.157z" class="cls-26" data-name="Caminho 2078" transform="translate(-218.512 -492.972)"/>
    <path id="Caminho_2079" d="M264.047 637.257c-.236.143-.444.238-.461.193s.159-.181.4-.326.144-.038.161 0 .137-.012-.1.133z" class="cls-26" data-name="Caminho 2079" transform="translate(-218.688 -494.077)"/>
    <path id="Caminho_2080" d="M239.611 631.85a1.928 1.928 0 0 0 .27 2.14c.857 1.289 1.567 2.378 1.286 3.172 0 0-1.286-2.378-2.347-2.42s-.375-1.456.791-2.892z" class="cls-23" data-name="Caminho 2080" transform="translate(-198.818 -490.114)"/>
    <path id="Caminho_2081" d="M239.594 631.85a1.1 1.1 0 0 0-.12.266c-1.029 1.341-1.575 2.589-.587 2.615.919.029 2.023 1.855 2.289 2.316a.972.972 0 0 1-.032.1s-1.286-2.378-2.347-2.42-.369-1.441.797-2.877z" class="cls-6" data-name="Caminho 2081" transform="translate(-198.801 -490.114)"/>
    <path id="Caminho_2082" d="M239.35 635.792a1.166 1.166 0 0 0 .066.542 1.135 1.135 0 0 0 .069-.542c0-.3-.039-.157-.075-.157s-.06-.142-.06.157z" class="cls-26" data-name="Caminho 2082" transform="translate(-199.648 -492.972)"/>
    <path id="Caminho_2083" d="M237.072 637.257c.238.143.444.238.463.193s-.161-.181-.4-.326-.144-.038-.161 0-.14-.012.098.133z" class="cls-26" data-name="Caminho 2083" transform="translate(-197.744 -494.077)"/>
    <ellipse id="Elipse_134" cx="6.136" cy="1.044" class="cls-1" data-name="Elipse 134" rx="6.136" ry="1.044" transform="translate(36.207 151.47)"/>
    <path id="Caminho_2084" d="M243.244 648.077l-.03.266-.041.376-.017.157-.041.376-.019.157-.041.376-.469 4.28c-.041.38-.6.677-1.286.677h-2.43c-.677 0-1.239-.3-1.286-.677l-.469-4.28-.041-.376-.017-.157-.043-.376-.017-.157-.041-.376-.03-.266c-.024-.216.281-.4.664-.4h4.992c.381.003.685.184.662.4z" class="cls-27" data-name="Caminho 2084" transform="translate(-197.742 -502.18)"/>
    <path id="Caminho_2085" d="M189.218 614.76l-.041.376H183l-.041-.376z" class="cls-28" data-name="Caminho 2085" transform="translate(-143.746 -468.597)"/>
    <path id="Caminho_2086" d="M189.373 617l-.041.376h-6.059l-.043-.376z" class="cls-28" data-name="Caminho 2086" transform="translate(-143.959 -470.304)"/>
    <path id="Caminho_2087" d="M189.535 619.24l-.043.376h-5.941l-.041-.376z" class="cls-28" data-name="Caminho 2087" transform="translate(-144.179 -472.012)"/>
    <path id="Caminho_2088" d="M1082.411 618s-.733 3.785 2.527 4.232l.2-.421s-2.525-2.637-2.727-3.811z" class="cls-23" data-name="Caminho 2088" transform="translate(-861.961 -479.557)"/>
    <path id="Caminho_2089" d="M1089.86 615.659l-.759.178-.075.019s-2.023-1.821-2-5.887a10.247 10.247 0 0 0 .967 1.7 10.572 10.572 0 0 1 1.867 3.99z" class="cls-23" data-name="Caminho 2089" transform="translate(-865.644 -473.436)"/>
    <path id="Caminho_2090" d="M1094.828 611.56a.436.436 0 0 1-.407.059c-1.946-.5-1.286-7.539-1.286-7.539.107.055.214.951.673 2.107.782 2.027 1.646 4.864 1.02 5.373z" class="cls-23" data-name="Caminho 2090" transform="translate(-870.357 -468.946)"/>
    <path id="Caminho_2091" d="M1109.337 618s.126 3.785-3.134 4.232l-.2-.428s3.132-2.63 3.334-3.804z" class="cls-23" data-name="Caminho 2091" transform="translate(-880.55 -479.557)"/>
    <path id="Caminho_2092" d="M1104.616 610a7.185 7.185 0 0 1-2.6 5.887l-.077-.019-.757-.178a10.7 10.7 0 0 1 1.863-3.994 8.709 8.709 0 0 1 1.571-1.696z" class="cls-23" data-name="Caminho 2092" transform="translate(-876.763 -473.459)"/>
    <path id="Caminho_2093" d="M1100.227 611.2a1.209 1.209 0 0 1-.429.369.767.767 0 0 1-.161.059c-.478.124-.643-.259-.617-.91a18.239 18.239 0 0 1 1.286-4.672 5.89 5.89 0 0 1 1.222-1.957s-.028 5.476-1.301 7.111z" class="cls-23" data-name="Caminho 2093" transform="translate(-875.064 -468.954)"/>
    <path id="Caminho_2094" d="M1098.227 593.7s-2.173 8.559-.3 9.838.78-9.082.3-9.838z" class="cls-23" data-name="Caminho 2094" transform="translate(-873.608 -461.034)"/>
    <path id="Caminho_2095" d="M1082.411 618s-.733 3.785 2.527 4.232l.2-.421s-2.525-2.637-2.727-3.811z" class="cls-6" data-name="Caminho 2095" transform="translate(-861.961 -479.557)"/>
    <path id="Caminho_2096" d="M1089.86 615.659l-.759.178-.075.019s-2.023-1.821-2-5.887a10.247 10.247 0 0 0 .967 1.7 10.572 10.572 0 0 1 1.867 3.99z" class="cls-6" data-name="Caminho 2096" transform="translate(-865.644 -473.436)"/>
    <path id="Caminho_2097" d="M1094.828 611.56a.436.436 0 0 1-.407.059c-1.946-.5-1.286-7.539-1.286-7.539.107.055.214.951.673 2.107.782 2.027 1.646 4.864 1.02 5.373z" class="cls-6" data-name="Caminho 2097" transform="translate(-870.357 -468.946)"/>
    <path id="Caminho_2098" d="M1109.337 618s.126 3.785-3.134 4.232l-.2-.428s3.132-2.63 3.334-3.804z" class="cls-6" data-name="Caminho 2098" transform="translate(-880.55 -479.557)"/>
    <path id="Caminho_2099" d="M1104.616 610a7.185 7.185 0 0 1-2.6 5.887l-.077-.019-.757-.178a10.7 10.7 0 0 1 1.863-3.994 8.709 8.709 0 0 1 1.571-1.696z" class="cls-6" data-name="Caminho 2099" transform="translate(-876.763 -473.459)"/>
    <path id="Caminho_2100" d="M1100.227 611.2a1.209 1.209 0 0 1-.429.369.767.767 0 0 1-.161.059c-.478.124-.643-.259-.617-.91a18.239 18.239 0 0 1 1.286-4.672 5.89 5.89 0 0 1 1.222-1.957s-.028 5.476-1.301 7.111z" class="cls-6" data-name="Caminho 2100" transform="translate(-875.064 -468.954)"/>
    <path id="Caminho_2101" d="M1098.227 593.7s-2.173 8.559-.3 9.838.78-9.082.3-9.838z" class="cls-6" data-name="Caminho 2101" transform="translate(-873.608 -461.034)"/>
    <path id="Caminho_2102" d="M1082.6 618s-.429 3.785 2.829 4.232l.2-.421s-2.829-2.637-3.029-3.811z" class="cls-23" data-name="Caminho 2102" transform="translate(-862.152 -479.557)"/>
    <path id="Caminho_2103" d="M1090.139 615.682l-.759.179-.075.019A7.5 7.5 0 0 1 1087 610s.6.713 1.269 1.7a10.419 10.419 0 0 1 1.87 3.982z" class="cls-23" data-name="Caminho 2103" transform="translate(-865.621 -473.459)"/>
    <path id="Caminho_2104" d="M1094.815 621.094l-.759.178c-.718-.7-1-2.525-1.106-4.172a10.576 10.576 0 0 1 1.865 3.994z" class="cls-6" data-name="Caminho 2104" transform="translate(-870.297 -478.871)"/>
    <path id="Caminho_2105" d="M1095.426 611.56a.44.44 0 0 1-.409.059c-1.946-.5-1.59-7.539-1.59-7.539a10.167 10.167 0 0 1 .975 2.107c.786 2.027 1.648 4.864 1.024 5.373z" class="cls-23" data-name="Caminho 2105" transform="translate(-870.651 -468.946)"/>
    <path id="Caminho_2106" d="M1110.461 618s.429 3.785-2.829 4.232l-.2-.421s2.827-2.637 3.029-3.811z" class="cls-23" data-name="Caminho 2106" transform="translate(-881.673 -479.557)"/>
    <path id="Caminho_2107" d="M1105.724 610a7.494 7.494 0 0 1-2.3 5.887l-.075-.019-.759-.178a10.675 10.675 0 0 1 1.865-3.994 24.587 24.587 0 0 1 1.269-1.696z" class="cls-23" data-name="Caminho 2107" transform="translate(-877.87 -473.459)"/>
    <path id="Caminho_2108" d="M1104.455 617.1a8.428 8.428 0 0 1-.967 4.016 1.184 1.184 0 0 1-.139.157l-.759-.178a10.541 10.541 0 0 1 1.865-3.995z" class="cls-6" data-name="Caminho 2108" transform="translate(-877.87 -478.871)"/>
    <path id="Caminho_2109" d="M1101.638 611.2a1.183 1.183 0 0 1-.429.369.785.785 0 0 1-.159.059c-.48.124-.643-.259-.619-.91a18.426 18.426 0 0 1 1.286-4.672 9.5 9.5 0 0 1 .92-1.957s.272 5.476-.999 7.111z" class="cls-23" data-name="Caminho 2109" transform="translate(-876.173 -468.954)"/>
    <path id="Caminho_2110" d="M1098.672 618.313a.48.48 0 0 1-.309-.109c-.915-.632-.935-3.005-.716-5.264.787 2.028 1.653 4.86 1.025 5.373z" class="cls-6" data-name="Caminho 2110" transform="translate(-873.897 -475.7)"/>
    <path id="Caminho_2111" d="M1101.646 617.474c-.1.254-.246.387-.428.368a.542.542 0 0 1-.259-.109 1.524 1.524 0 0 1-.519-.742 18.426 18.426 0 0 1 1.286-4.672c.21 2.081.281 4.297-.08 5.155z" class="cls-6" data-name="Caminho 2111" transform="translate(-876.181 -475.227)"/>
    <path id="Caminho_2112" d="M1099.075 593.7s-1.869 8.559 0 9.838.48-9.082 0-9.838z" class="cls-23" data-name="Caminho 2112" transform="translate(-874.456 -461.034)"/>
    <path id="Caminho_2113" d="M1036.222 597.61h-7.782v1.429h1.187l.03.169.476 2.775h4.525l.476-2.775.028-.169h1.061z" class="cls-29" data-name="Caminho 2113" transform="translate(-808.016 -455.525)"/>
    <path id="Caminho_2114" d="M1036.222 597.61h-7.782v1.429h1.187l.03.169.476 2.775h4.525l.476-2.775.028-.169h1.061z" class="cls-6" data-name="Caminho 2114" transform="translate(-808.016 -455.525)"/>
    <path id="Caminho_2115" d="M1040.658 601.14l-.131.759-.476 2.775h-4.525l-.476-2.775-.131-.759z" class="cls-29" data-name="Caminho 2115" transform="translate(-813.107 -458.215)"/>
    <path id="Caminho_2116" d="M1040.658 601.14l-.131.759h-5.476l-.131-.759z" class="cls-6" data-name="Caminho 2116" transform="translate(-813.107 -458.215)"/>
    <path id="Retngulo_189" d="M0 0h7.782v1.429H0z" class="cls-29" data-name="Retngulo 189" transform="translate(220.727 142.085)"/>
    <path id="Caminho_2117" d="M144.475 730.488a4.317 4.317 0 0 0-.489 1.022c-.03.088-.06.19-.09.288a.882.882 0 0 0-.169-.067 2.138 2.138 0 0 0-.765-.071c0-.112.013-.238.015-.349.032-1.253-.1-3-1.179-2.259-1.033.713-.3 1.9.371 2.663.058.067.116.128.171.188-.609.476-.724 1.6-.825 2.767a6.668 6.668 0 0 1-1.588 3.169c-.06.074-.114.14-.167.2a2.02 2.02 0 0 0-1.725-.492 35.81 35.81 0 0 0-.079-.321c-.48-1.923-1.477-5.254-2.748-5.984l.167-.238c.54-.782 1.149-1.947.251-2.244s-.979 1.008-.93 1.988l.026.35a1.27 1.27 0 0 0-.939.509l-.139-.183c-.729-.951-2.064-2.466-2.469-1.322-.377 1.065.8 2.449 1.627 3.25l.051.05c-.555 2.5 1.869 4.536 3.174 5.428l.169.114c-1.8 2.354-2.913 6.767-2.913 6.767l5.041 1s3.344-3.2 2.915-6.205h.034c3.341-.742 4.1-4.693 3.579-7.04l.06-.026a3.85 3.85 0 0 0 1.547-1.3c.936-1.44-1.019-3.064-1.984-1.652z" class="cls-23" data-name="Caminho 2117" transform="translate(-114.6 -563.952)"/>
    <path id="Caminho_2118" d="M144.475 730.488a4.317 4.317 0 0 0-.489 1.022c-.03.088-.06.19-.09.288a.882.882 0 0 0-.169-.067 2.138 2.138 0 0 0-.765-.071c0-.112.013-.238.015-.349.032-1.253-.1-3-1.179-2.259-1.033.713-.3 1.9.371 2.663.058.067.116.128.171.188-.609.476-.724 1.6-.825 2.767a6.668 6.668 0 0 1-1.588 3.169c-.06.074-.114.14-.167.2a2.02 2.02 0 0 0-1.725-.492 35.81 35.81 0 0 0-.079-.321c-.48-1.923-1.477-5.254-2.748-5.984l.167-.238c.54-.782 1.149-1.947.251-2.244s-.979 1.008-.93 1.988l.026.35a1.27 1.27 0 0 0-.939.509l-.139-.183c-.729-.951-2.064-2.466-2.469-1.322-.377 1.065.8 2.449 1.627 3.25l.051.05c-.555 2.5 1.869 4.536 3.174 5.428l.169.114c-1.8 2.354-2.913 6.767-2.913 6.767l5.041 1s3.344-3.2 2.915-6.205h.034c3.341-.742 4.1-4.693 3.579-7.04l.06-.026a3.85 3.85 0 0 0 1.547-1.3c.936-1.44-1.019-3.064-1.984-1.652z" class="cls-6" data-name="Caminho 2118" transform="translate(-114.6 -563.952)"/>
    <path id="Caminho_2119" d="M135.572 735.243l-.589 1.9s-.328-.257-.742-.661c-.827-.8-2-2.185-1.627-3.25.405-1.144 1.74.366 2.469 1.322.294.382.489.689.489.689z" class="cls-23" data-name="Caminho 2119" transform="translate(-115.731 -567.081)"/>
    <path id="Caminho_2120" d="M149.951 731.02a8.926 8.926 0 0 1-.574.751q-.075-.5-.105-1.008c-.049-.98.045-2.28.93-1.988s.289 1.463-.251 2.245z" class="cls-23" data-name="Caminho 2120" transform="translate(-128.867 -563.963)"/>
    <path id="Caminho_2121" d="M181.8 731.81c-.017.63-.073 1.134-.073 1.134a7.8 7.8 0 0 1-.735-.73c-.667-.768-1.4-1.952-.371-2.663 1.065-.741 1.198 1.006 1.179 2.259z" class="cls-23" data-name="Caminho 2121" transform="translate(-153.101 -564.451)"/>
    <path id="Caminho_2122" d="M194.081 736.067a3.849 3.849 0 0 1-1.547 1.3 4.335 4.335 0 0 1-.519.209l-.694-1.082a8.281 8.281 0 0 1 .287-1.051 4.318 4.318 0 0 1 .489-1.022c.959-1.414 2.918.212 1.984 1.646z" class="cls-23" data-name="Caminho 2122" transform="translate(-161.912 -567.883)"/>
    <path id="Caminho_2123" d="M141.312 740.11c.294.38.489.675.489.675l-.589 1.9s-.328-.257-.742-.661a3.948 3.948 0 0 1 .664-1.681l.178-.233z" class="cls-6" data-name="Caminho 2123" transform="translate(-121.961 -572.635)"/>
    <path id="Caminho_2124" d="M149.989 737.526a8.9 8.9 0 0 1-.574.751q-.075-.5-.105-1.008a1.112 1.112 0 0 1 .679.257z" class="cls-6" data-name="Caminho 2124" transform="translate(-128.906 -570.47)"/>
    <path id="Caminho_2125" d="M145.815 746.225l-1.466.713a9.026 9.026 0 0 1-.78-.49c-1.541-1.051-4.638-3.7-2.572-6.816s3.809 2.475 4.5 5.211c.208.832.318 1.382.318 1.382z" class="cls-23" data-name="Caminho 2125" transform="translate(-121.833 -571.569)"/>
    <path id="Caminho_2126" d="M184.18 740.024a1.156 1.156 0 0 1 .808-.4c-.017.63-.073 1.134-.073 1.134a7.782 7.782 0 0 1-.735-.734z" class="cls-6" data-name="Caminho 2126" transform="translate(-156.302 -572.261)"/>
    <path id="Caminho_2127" d="M192.553 742.384a4.363 4.363 0 0 1-.519.209l-.694-1.082a8.281 8.281 0 0 1 .287-1.051 2.9 2.9 0 0 1 .926 1.924z" class="cls-6" data-name="Caminho 2127" transform="translate(-161.928 -572.901)"/>
    <path id="Caminho_2128" d="M169.2 749.884a3.688 3.688 0 0 1-.246.05c-4.915.827-1.62-2.114-1.62-2.114s.214-.238.521-.6a6.654 6.654 0 0 0 1.588-3.169c.154-1.767.332-3.424 2.212-2.939 1.84.488 2.193 7.738-2.455 8.772z" class="cls-23" data-name="Caminho 2128" transform="translate(-142.213 -573.336)"/>
    <path id="Retngulo_190" d="M0 0h9.39v2.739H0z" class="cls-30" data-name="Retngulo 190" transform="translate(17.5 190.122)"/>
    <path id="Retngulo_191" d="M0 0h12.268v9.558H0z" class="cls-30" data-name="Retngulo 191" transform="translate(16.008 181.22)"/>
    <path id="Retngulo_192" d="M0 0h9.39v2.739H0z" class="cls-6" data-name="Retngulo 192" transform="translate(17.5 190.122)"/>
    <path id="Retngulo_193" d="M0 0h12.268v9.558H0z" class="cls-6" data-name="Retngulo 193" transform="translate(16.008 181.22)"/>
    <path id="Retngulo_194" d="M0 0h9.39v2.739H0z" class="cls-30" data-name="Retngulo 194" transform="translate(18.117 190.122)"/>
    <path id="Caminho_2129" d="M157.449 764.51c.214.818.317 1.379.317 1.379l-1.466.713a9.033 9.033 0 0 1-.78-.49 3.82 3.82 0 0 1 1.929-1.602z" class="cls-6" data-name="Caminho 2129" transform="translate(-133.785 -591.233)"/>
    <path id="Caminho_2130" d="M169.2 769.74a3.688 3.688 0 0 1-.246.05c-4.915.828-1.62-2.113-1.62-2.113s.214-.238.521-.6a3.729 3.729 0 0 1 1.345 2.663z" class="cls-6" data-name="Caminho 2130" transform="translate(-142.213 -593.192)"/>
    <path id="Caminho_2131" d="M142.72 773.882s2.752-10.937 6.612-7.563-1.571 8.559-1.571 8.559z" class="cls-23" data-name="Caminho 2131" transform="translate(-123.728 -592.119)"/>
    <ellipse id="Elipse_135" cx=".309" cy=".342" class="cls-6" data-name="Elipse 135" rx=".309" ry=".342" transform="translate(20.072 169.435)"/>
    <ellipse id="Elipse_136" cx=".309" cy=".342" class="cls-6" data-name="Elipse 136" rx=".309" ry=".342" transform="translate(20.046 171.032)"/>
    <ellipse id="Elipse_137" cx=".309" cy=".342" class="cls-6" data-name="Elipse 137" rx=".309" ry=".342" transform="translate(28.999 169.748)"/>
    <ellipse id="Elipse_138" cx=".309" cy=".342" class="cls-6" data-name="Elipse 138" rx=".309" ry=".342" transform="translate(21.797 177.939)"/>
    <ellipse id="Elipse_139" cx=".309" cy=".342" class="cls-6" data-name="Elipse 139" rx=".309" ry=".342" transform="translate(28.356 172.402)"/>
    <ellipse id="Elipse_140" cx=".309" cy=".342" class="cls-6" data-name="Elipse 140" rx=".309" ry=".342" transform="translate(25.166 175.942)"/>
    <ellipse id="Elipse_141" cx=".309" cy=".342" class="cls-6" data-name="Elipse 141" rx=".309" ry=".342" transform="translate(21.126 170.119)"/>
    <ellipse id="Elipse_142" cx=".309" cy=".342" class="cls-6" data-name="Elipse 142" rx=".309" ry=".342" transform="translate(28.15 170.776)"/>
    <ellipse id="Elipse_143" cx=".309" cy=".342" class="cls-6" data-name="Elipse 143" rx=".309" ry=".342" transform="translate(27.095 173.429)"/>
    <ellipse id="Elipse_144" cx=".309" cy=".342" class="cls-6" data-name="Elipse 144" rx=".309" ry=".342" transform="translate(23.855 177.682)"/>
    <ellipse id="Elipse_145" cx=".309" cy=".342" class="cls-6" data-name="Elipse 145" rx=".309" ry=".342" transform="translate(23.186 175.999)"/>
    <ellipse id="Elipse_146" cx=".309" cy=".342" class="cls-6" data-name="Elipse 146" rx=".309" ry=".342" transform="translate(21.589 172.202)"/>
    <path id="Retngulo_195" d="M0 0h9.39v1.001H0z" class="cls-6" data-name="Retngulo 195" transform="translate(18.117 190.122)"/>
    <path id="Retngulo_196" d="M0 0h12.268v9.558H0z" class="cls-30" data-name="Retngulo 196" transform="translate(16.625 181.22)"/>
    <ellipse id="Elipse_147" cx=".309" cy=".342" class="cls-6" data-name="Elipse 147" rx=".309" ry=".342" transform="translate(24.266 179.223)"/>
    <ellipse id="Elipse_148" cx=".309" cy=".342" class="cls-6" data-name="Elipse 148" rx=".309" ry=".342" transform="translate(22.415 179.651)"/>
    <ellipse id="Elipse_149" cx="2.242" cy="2.487" class="cls-1" data-name="Elipse 149" rx="2.242" ry="2.487" transform="translate(8.475 9.876)"/>
    <ellipse id="Elipse_150" cx="3.001" cy="3.329" class="cls-1" data-name="Elipse 150" rx="3.001" ry="3.329" transform="translate(223.024 87.278)"/>
    <ellipse id="Elipse_151" cx="2.19" cy="2.43" class="cls-1" data-name="Elipse 151" rx="2.19" ry="2.43" transform="translate(229.619 81.044)"/>
    <ellipse id="Elipse_152" cx="3.001" cy="3.329" class="cls-1" data-name="Elipse 152" rx="3.001" ry="3.329" transform="translate(11.574)"/>
    <ellipse id="Elipse_153" cx="3.001" cy="3.329" class="cls-1" data-name="Elipse 153" rx="3.001" ry="3.329" transform="translate(0 15.216)"/>
</svg>
