<svg xmlns="http://www.w3.org/2000/svg" width="234" height="190.846" viewBox="0 0 234 190.846">
    <defs>
        <style>
            .cls-1,.cls-9{fill:#4052a9}.cls-1,.cls-15,.cls-6{opacity:.1}.cls-2{fill:#65617d}.cls-3{fill:url(#linear-gradient)}.cls-4{fill:#ee8e9e}.cls-5{fill:#dfe5ee}.cls-7{fill:#d48a9b}.cls-8{fill:#efc6cd}.cls-10,.cls-15{fill:#fff}.cls-11{fill:#ffd037}.cls-12{fill:#9d9cb5}.cls-13{fill:#603556}.cls-14{fill:#5c5c8e}.cls-16{fill:#efc8c4}.cls-17{fill:#727a9c}
        </style>
        <linearGradient id="linear-gradient" x1=".5" x2=".5" y1="1" gradientUnits="objectBoundingBox">
            <stop offset="0" stop-color="gray" stop-opacity=".251"/>
            <stop offset=".54" stop-color="gray" stop-opacity=".122"/>
            <stop offset="1" stop-color="gray" stop-opacity=".102"/>
        </linearGradient>
    </defs>
    <g id="Grupo_715" data-name="Grupo 715" transform="translate(-.012 -.057)">
        <path id="Caminho_2295" d="M300.618 184.9c-.042.271-.084.542-.13.812a106.558 106.558 0 0 1-7.58 26.273q-.179.406-.365.812A76.2 76.2 0 0 1 284 227.214a28.52 28.52 0 0 1-6.136 6.3c-3.292 2.3-7.141 3.23-10.923 3.994-3.931.8-7.912 1.451-11.884 2.176q-2.112.377-4.2.791a108.666 108.666 0 0 0-11.365 2.8 56.344 56.344 0 0 0-13.256 5.967q-.5.314-1 .646c-.329.218-.663.44-.983.667s-.643.452-.961.682l-.49.363c-.161.116-.32.242-.479.358-.473.353-.939.725-1.405 1.083l-.018.014q-.461.363-.917.725c-1.721 1.4-3.4 2.855-5.082 4.32l-1.058.926-1.639 1.419c-.32.278-.645.554-.968.829l-.7.6a100.562 100.562 0 0 1-4.525 3.608 45.558 45.558 0 0 1-7.852 4.734l-.035.017a29.38 29.38 0 0 1-4.171 1.574 23.136 23.136 0 0 1-2.457.583 19.868 19.868 0 0 1-6.661.126c-4.35-.675-8.427-2.9-12.766-3.646-8.952-1.521-17.646 3.385-26.071 7.236q-3.093 1.417-6.255 2.659-2.095.827-4.209 1.574a122.73 122.73 0 0 1-26.409 6.182 55.8 55.8 0 0 1-11.213.331 34.8 34.8 0 0 1-4.2-.6 23.467 23.467 0 0 1-12.68-6.77 32.992 32.992 0 0 1-6.617-11.264q-.957-2.522-1.686-5.159a62.219 62.219 0 0 1-1.717-8.421 45.04 45.04 0 0 1-.221-1.934q-.172-1.661-.256-3.336a63.024 63.024 0 0 1 1.571-17.649c1.5-6.38 4.014-12.49 5.119-18.931.046-.271.088-.542.13-.812q.221-1.451.336-2.954c.557-7.877-1.6-15.587-3.3-23.309l-.177-.812q-.276-1.284-.524-2.57a71 71 0 0 1-.608-25.057c.044-.271.1-.544.146-.812a42.8 42.8 0 0 1 5.161-14.127 47.432 47.432 0 0 1 9.721-11.254q2.684-2.345 5.552-4.388 2.061-1.465 4.2-2.773a65.144 65.144 0 0 1 37.622-9.671q1.032.058 2.059.155 1.078.1 2.15.242c8.358 1.057 16.491 3.675 24.575 6.54q4.063 1.451 8.113 2.9 1.8.643 3.6 1.269a174.279 174.279 0 0 0 17.914 5.251q2.1.484 4.2.882a90.976 90.976 0 0 0 14.712 1.659q2.872.077 5.744-.065 1.452-.073 2.905-.213c10.011-.938 19.664-4.084 29.356-7.038 1.4-.428 2.8-.853 4.2-1.264a189.23 189.23 0 0 1 5.539-1.55c11.529-3.029 21.8-1.289 32.52 4.959a16.336 16.336 0 0 1 6.363 5.781c1.5 2.65 1.867 5.931 2.145 9.088.393 4.492.663 9.047.749 13.621 0 .271 0 .542.015.812a158.347 158.347 0 0 1-1.725 27.622z" class="cls-1" data-name="Caminho 2295" transform="translate(-70.44 -99.871)"/>
        <path id="Caminho_2296" d="M233.414 212.288h-.753v.812h.853zm-8.539 0a.059.059 0 0 0 0 .019l-.066.672v.121h6.54v-.048l.466-.764zm-17.487 0v-26.273h7.512a5.492 5.492 0 0 0-.245-.213l-.11-.092c-.046-.041-.093-.08-.141-.116s-.164-.128-.25-.191-.139-.1-.221-.155l-.051-.036h-6.493v-1.439l-.175.092-.186.114h-.013l-.04.027-.115.082c-.04.027-.08.053-.117.082-.115.085-.221.176-.342.271l-.11.1c-.075.063-.146.128-.221.193-.294.264-.583.539-.884.793l-.221.189a5.682 5.682 0 0 1-.5.358 2.323 2.323 0 0 1-.221.133l-.124.063-.113.053a4.412 4.412 0 0 1-.822.285v25.683h-11.268a.4.4 0 0 0 .022.085c.062.242.124.484.183.725h11.065v28.164h.172l.2.015.358.029.579.063.261.034.287.039h.042c.166.024.334.053.5.082l.108.019.243.044.349.068.837-.048.115.027a.62.62 0 0 1 .141.031V213.1h17.412v-.121l.066-.672a.058.058 0 0 1 0-.019zm26.027 0h-.753v.812h.853zm-9.01 0l-.075.812h7.27l.495-.812zm-17.012 0v-26.273h7.507a5.492 5.492 0 0 0-.245-.213l-.11-.092c-.046-.041-.093-.08-.141-.116s-.164-.128-.25-.191-.139-.1-.221-.155l-.051-.036h-6.5v-1.439l-.175.092-.186.114h-.013l-.04.027-.115.082c-.04.027-.08.053-.117.082-.115.085-.221.176-.342.271l-.11.1c-.075.063-.146.128-.221.193-.294.264-.583.539-.884.793l-.221.189a5.682 5.682 0 0 1-.5.358 2.323 2.323 0 0 1-.221.133l-.124.063-.113.053a4.412 4.412 0 0 1-.822.285v25.683h-11.261a.4.4 0 0 0 .022.085c.062.242.126.484.186.725h11.062v28.161l.172.012.2.015.358.029.579.063.261.034.287.039h.042c.166.024.334.053.5.082l.108.019.243.043.349.068.837-.048.115.027a.621.621 0 0 1 .141.031V213.1h16.948l.08-.812zm56.927-54.713h47.332c0-.271 0-.542-.016-.812H264.32v-31.9a336.31 336.31 0 0 0-4.2 1.264v30.635h-51.477l-.13-.155.2-.242 19.147-22.995q-2.872.145-5.744.065l-14.728 17.675v-19.324q-2.108-.4-4.2-.882v19.316l-21.526-25.838c-2.7-.967-5.4-1.951-8.113-2.9l29.259 35.127-.13.155h-53.7v-41.827q-1.074-.133-2.15-.242-1.027-.1-2.059-.155v42.223h-37.624v-32.542q-2.141 1.306-4.2 2.773v29.769H82.486c-.051.268-.1.542-.146.812h20.589V185.2H83.48c.057.271.117.542.177.812h19.281v26.273H86.613c-.042.271-.084.542-.13.812h16.456v73.462a34.783 34.783 0 0 0 4.2.6V213.1h37.631v67.546q2.117-.752 4.209-1.574V213.1h54.205v59.016a29.37 29.37 0 0 0 4.171-1.574l.035-.017V213.1h52.721v27.675q2.1-.413 4.2-.791V213.1h37.487q.186-.406.365-.812H264.32v-26.273h45.432c.046-.271.088-.542.13-.812H264.32zm-157.172 0h37.619V185.2h-37.622zm0 54.713v-26.273h37.619v26.273zm41.831-54.713h54.2V185.2h-54.203zm0 54.713v-26.273h54.2v26.273zm111.133 0h-52.724v-26.273h52.721zm0-27.078h-52.724v-26.895l.74-.74h51.981zm-35.233 27.078a.057.057 0 0 0 0 .019l-.066.672v.121h6.54v-.048l.466-.764zm8.539 0h-.753v.812h.853zm-26.027 0v-26.273h7.509a5.492 5.492 0 0 0-.245-.213l-.11-.092c-.046-.041-.093-.08-.141-.116s-.164-.128-.25-.191-.139-.1-.221-.155l-.051-.036h-6.5v-1.439l-.175.092-.186.114h-.013l-.04.027-.115.082c-.04.027-.08.053-.117.082-.115.085-.221.176-.342.271l-.11.1c-.075.063-.146.128-.221.193-.294.264-.583.539-.884.793l-.221.189a5.682 5.682 0 0 1-.5.358 2.323 2.323 0 0 1-.221.133l-.124.063-.113.053a4.412 4.412 0 0 1-.822.285v25.683h-11.261a.4.4 0 0 0 .022.085c.062.242.124.484.183.725h11.065v28.164h.172l.2.015.358.029.579.063.261.034.287.039h.042c.166.024.334.053.5.082l.108.019.243.044.349.068.837-.048.115.027a.62.62 0 0 1 .141.031V213.1h17.412v-.121l.066-.672a.058.058 0 0 1 0-.019z" class="cls-1" data-name="Caminho 2296" transform="translate(-79.701 -100.172)"/>
        <path id="Caminho_2297" d="M271.572 208.446h.336a.893.893 0 0 1-.4-.708c0-.561.627-1.018 1.394-1.018h9.755c.767 0 1.394.457 1.394 1.018 0 .559-.627 1.018-1.394 1.018h-.325a.9.9 0 0 1 .4.708c0 .483-.455.88-1.065.989h2.808c.764 0 1.392.457 1.392 1.018s-.627 1.015-1.392 1.015h-9.766c-.764 0-1.392-.457-1.392-1.015 0-.484.455-.88 1.065-.989h-2.808c-.764 0-1.392-.457-1.392-1.018s.618-1.018 1.39-1.018z" class="cls-1" data-name="Caminho 2297" transform="translate(-226.04 -170.066)"/>
        <path id="Caminho_2298" d="M750.092 248.516h.327a.9.9 0 0 1-.4-.711c0-.559.627-1.015 1.394-1.015h9.755c.767 0 1.394.457 1.394 1.015 0 .561-.627 1.018-1.394 1.018h-.325a.9.9 0 0 1 .4.711c0 .484-.455.878-1.065.986h2.808c.764 0 1.392.459 1.392 1.018s-.627 1.018-1.392 1.018h-9.752c-.765 0-1.392-.457-1.392-1.018 0-.484.455-.88 1.065-.986h-2.813c-.764 0-1.392-.459-1.392-1.018s.63-1.018 1.39-1.018z" class="cls-1" data-name="Caminho 2298" transform="translate(-598.836 -200.448)"/>
        <path id="Caminho_2299" d="M203.842 419.979h.327a.9.9 0 0 1-.4-.711c0-.558.625-1.018 1.392-1.018h9.755c.767 0 1.394.459 1.394 1.018 0 .561-.627 1.018-1.394 1.018h-.325a.9.9 0 0 1 .4.711c0 .484-.455.878-1.065.987h2.808c.767 0 1.392.457 1.392 1.018s-.625 1.018-1.392 1.018h-9.757c-.764 0-1.392-.459-1.392-1.018 0-.483.457-.88 1.065-.989h-2.808c-.764 0-1.392-.457-1.392-1.015s.627-1.019 1.392-1.019z" class="cls-1" data-name="Caminho 2299" transform="translate(-173.274 -330.454)"/>
        <path id="Caminho_2300" d="M663.914 713.44l-1.639 1.419c-.32.278-.645.554-.968.829l-.7.6a100.562 100.562 0 0 1-4.525 3.608 45.562 45.562 0 0 1-7.852 4.734l-.035.017V713.44z" class="cls-2" data-name="Caminho 2300" transform="translate(-520.532 -554.276)"/>
        <path id="Caminho_2301" d="M474.847 346.512l.247-8.353c-.148-.126-.3-.242-.442-.358a48.674 48.674 0 0 0-.389-7.449c-1-8.353-7.483-8.535-9.313-6.811a4.429 4.429 0 0 1-.789.595c.166-1.192.371-2.386.519-3.566.8-6.363-.442-13.522-4.953-17.635-1.889-1.719-4.2-2.776-6.273-4.214-3.716-2.565-6.652-6.354-10.411-8.851s-9.036-3.433-12.315-.222c-1.27 1.243-2.09 2.966-3.394 4.166-2.43 2.234-6.219 2.381-8.34 4.876a4.854 4.854 0 0 0-.3.389c-1.768 2.481-1.284 6-.72 9.076.678 3.7.4 6.673 3.3 7.737.011.147.02.3.035.44a15.963 15.963 0 0 0 6.31 11.3l-.471.184a71.889 71.889 0 0 0-3.106 1.274 81.069 81.069 0 0 1-8.232 2.722s-.133 1.741-.108 4.308c-1.86 2.212-4.965 6.1-5.877 8.4-1.326 3.361-8.815 12.985-10.811 14.438s-4.158 3.177-4.158 3.177-3.159 1.908-4.655 2.089a23.027 23.027 0 0 1-4.242-.546s-12.8-17.166-11.973-3.994 11.055 13.616 11.055 13.616l10.311-.181s5.572.817 8.067-1.451c2.13-1.934 13.168-12.545 16.714-17.359.082.1.163.2.25.29 0 0 1.412-2 1.58 0s-.917 2.9-.334 3.627 2.329 3.269 2.41 4.267-2.326 5.077 1.745 8.172c.064.048.133.094.208.14a11.024 11.024 0 0 0 3.038 3.583l12.472-.181 23.532 2s.7-.675 1.648-1.777c1.266 1.272 3.022 2.362 5 1.692 0 0 2.828-3.721 2.912-6.172 0 0-1.829-5.176-2.651-6.719s.583-4.9.583-4.9 1-3.269 1.58-3.269.166-2.176.166-2.176a2.859 2.859 0 0 1-.25-2.451 25.374 25.374 0 0 0 .825-3.923z" class="cls-3" data-name="Caminho 2301" transform="translate(-306.879 -231.389)"/>
        <path id="Caminho_2302" d="M677.432 449.58l-.884 1.132-3.57 4.55-4.664.309-7.466.5s-10.066-13.273-8.175-16.162a5.7 5.7 0 0 0 .663-3.716 8.563 8.563 0 0 0-.071-.534 16.5 16.5 0 0 0-1.175-3.965l.247-.123.159-.08 8.8-4.4 2.178-1.088a6.854 6.854 0 0 0 .6 1.881c.042.092.089.184.137.271 3 5.44 12.631 2 12.631 2z" class="cls-4" data-name="Caminho 2302" transform="translate(-523.57 -336.338)"/>
        <path id="Caminho_2303" d="M771.657 449.723a17.264 17.264 0 0 1-.557 4.715l-12.459 2.077-.466-3.54L756.33 439l1.732-1.9a4.337 4.337 0 0 0 3.961-1.083c1.814-1.717 8.25-1.535 9.24 6.77a50.259 50.259 0 0 1 .394 6.936z" class="cls-4" data-name="Caminho 2303" transform="translate(-604.78 -343.271)"/>
        <path id="Caminho_2304" d="M787.615 610.447s2.8-3.7 2.888-6.138l-2.806-5.147-2.474-2.9-4.622 9.763s3.052 5.775 7.014 4.422z" class="cls-5" data-name="Caminho 2304" transform="translate(-623.688 -465.426)"/>
        <path id="Caminho_2305" d="M787.615 610.447s2.8-3.7 2.888-6.138l-2.806-5.147-2.474-2.9-4.622 9.763s3.052 5.775 7.014 4.422z" class="cls-6" data-name="Caminho 2305" transform="translate(-623.688 -465.426)"/>
        <path id="Caminho_2306" d="M212.421 695.838l-.7.6a100.562 100.562 0 0 1-4.525 3.608h-70.48l-20.852-.817-16.769-.155-4.2-.242-20.945-1.209a62.221 62.221 0 0 1-1.726-8.428 43.5 43.5 0 0 1-.221-1.934l22.883 1.388 4.2.259 37.622 2.3 4.209.256 54.205 3.312 4.171.256h.035z" class="cls-7" data-name="Caminho 2306" transform="translate(-71.646 -534.425)"/>
        <path id="Caminho_2307" d="M239.784 629.582a56.344 56.344 0 0 0-13.256 5.967c-.334.21-.663.426-1 .646s-.663.44-.983.667-.643.452-.961.682l-.491.363-.479.358c-.473.355-.939.725-1.405 1.083l-.018.015q-.461.362-.917.725c-1.721 1.4-3.4 2.855-5.082 4.32q-.53.464-1.063.926l-1.635 1.419c-.32.278-.645.553-.968.829l-.7.6-12.373-.646h-.035l-4.171-.213-54.23-2.812-4.209-.22-37.622-1.956-4.2-.22-22.671-1.168a45.04 45.04 0 0 1-.221-1.934q-.172-1.661-.256-3.337l23.146-8.945 4.2-1.627L102 623.63l6.949.4 16.06.9 10.808.621 4.209.242 2.689.155.643.039 22.629 1.294.239.017 10.1.575h.181l1.01.056 3.442.2 4.3.242 1.418.082.267.017 2.006.114.572.031 1.916.111.762.046h.183l1.792.1 2.775.16h.013l.862.048h.093l.515.031 1.264.073 1.1.063h.011l1.239.07h.02l.939.056.72.041 2.556.147.46.027h.159l.221.014.749.044.336.019 2.607.147h.239l3.849-.036h.027l14.633-.13h1.447l4.71-.041h.7z" class="cls-8" data-name="Caminho 2307" transform="translate(-70.742 -486.179)"/>
        <path id="Caminho_2308" d="M387.24 641.128l1.361 7.923 37-.609s2.784.88 2.722-1.557c0 0 5.632-5.824 34.157.948l-10.952-9.412-29.937 1.76-34.714-1.015z" class="cls-9" data-name="Caminho 2308" transform="translate(-316.956 -497.393)"/>
        <path id="Caminho_2309" d="M391.59 640.41l1.3 8.6s31.815-1.015 36.817-.068l-3.78-7.855s-19.238-1.963-34.337-.677z" class="cls-10" data-name="Caminho 2309" transform="translate(-320.625 -498.571)"/>
        <path id="Caminho_2310" d="M391.59 640.41l1.3 8.6s31.815-1.015 36.817-.068l-3.78-7.855s-19.238-1.963-34.337-.677z" class="cls-6" data-name="Caminho 2310" transform="translate(-320.625 -498.571)"/>
        <path id="Caminho_2311" d="M393.74 640.376l1.281 8s31.411-.943 36.36-.063l-3.727-7.3s-19.005-1.834-33.914-.637z" class="cls-10" data-name="Caminho 2311" transform="translate(-322.3 -498.568)"/>
        <path id="Caminho_2312" d="M396.35 641.464l1.248 7.48s30.722-.882 35.571-.058l-3.646-6.835s-18.589-1.716-33.173-.587z" class="cls-6" data-name="Caminho 2312" transform="translate(-324.334 -499.41)"/>
        <path id="Caminho_2313" d="M397.47 640.35l1.255 7.495s30.722-.882 35.571-.058l-3.654-6.842s-18.588-1.714-33.172-.595z" class="cls-10" data-name="Caminho 2313" transform="translate(-325.206 -498.569)"/>
        <path id="Caminho_2314" d="M283.5 557.41s1.608 2.3-.74 5.773-4.288 6.4-3.5 8.571c0 0 3.535-6.45 6.429-6.528s.986-3.938-2.189-7.816z" class="cls-9" data-name="Caminho 2314" transform="translate(-232.973 -435.969)"/>
        <path id="Caminho_2315" d="M283.82 557.41a2.908 2.908 0 0 1 .329.725c2.815 3.627 4.315 7.011 1.608 7.084-2.521.077-5.543 5.009-6.268 6.257q.038.14.086.283s3.535-6.45 6.429-6.528.996-3.943-2.184-7.821z" class="cls-6" data-name="Caminho 2315" transform="translate(-233.293 -435.969)"/>
        <path id="Caminho_2316" d="M311.311 567.912a3.069 3.069 0 0 1-.186 1.465 3.07 3.07 0 0 1-.186-1.465c0-.808.1-.43.205-.43s.167-.382.167.43z" class="cls-11" data-name="Caminho 2316" transform="translate(-257.794 -443.538)"/>
        <path id="Caminho_2317" d="M312.792 571.781c-.65.389-1.215.624-1.264.525s.442-.484 1.087-.88.393-.106.442 0 .385-.032-.265.355z" class="cls-11" data-name="Caminho 2317" transform="translate(-258.25 -446.443)"/>
        <path id="Caminho_2318" d="M247.937 557.41s-1.608 2.3.742 5.773 4.286 6.4 3.5 8.571c0 0-3.546-6.45-6.432-6.528s-.985-3.938 2.19-7.816z" class="cls-9" data-name="Caminho 2318" transform="translate(-205.9 -435.969)"/>
        <path id="Caminho_2319" d="M247.937 557.41a3.018 3.018 0 0 0-.329.725c-2.815 3.627-4.315 7.011-1.608 7.084 2.521.077 5.546 5.009 6.27 6.257q-.035.14-.086.283s-3.546-6.45-6.432-6.528-.99-3.943 2.185-7.821z" class="cls-6" data-name="Caminho 2319" transform="translate(-205.9 -435.969)"/>
        <path id="Caminho_2320" d="M247.13 567.912a3.07 3.07 0 0 0 .186 1.465 3.07 3.07 0 0 0 .186-1.465c0-.808-.1-.43-.205-.43s-.167-.382-.167.43z" class="cls-11" data-name="Caminho 2320" transform="translate(-208.082 -443.538)"/>
        <path id="Caminho_2321" d="M241.1 571.781c.65.389 1.217.624 1.266.525s-.442-.484-1.087-.88-.393-.106-.442 0-.386-.032.263.355z" class="cls-11" data-name="Caminho 2321" transform="translate(-203.078 -446.443)"/>
        <path id="Caminho_2322" d="M258 600.543l-.08.725-.113 1.013-.046.423-.113 1.016-.049.423-.115 1.015L256.2 616.7c-.115 1.03-1.653 1.833-3.509 1.833h-6.677c-1.856 0-3.391-.8-3.506-1.833l-1.288-11.537-.113-1.015-.046-.423-.115-1.016-.046-.423-.113-1.013-.082-.725c-.064-.583.767-1.073 1.818-1.073h13.667c1.053-.005 1.886.486 1.81 1.068z" class="cls-2" data-name="Caminho 2322" transform="translate(-203.076 -467.86)"/>
        <path id="Caminho_2323" d="M187.791 551.59l-.113 1.015h-16.915l-.113-1.015z" class="cls-12" data-name="Caminho 2323" transform="translate(-132.937 -418.189)"/>
        <path id="Caminho_2324" d="M188.192 557.54l-.113 1.015h-16.594l-.115-1.015z" class="cls-12" data-name="Caminho 2324" transform="translate(-133.498 -422.7)"/>
        <path id="Caminho_2325" d="M188.6 563.49l-.113 1.013h-16.274l-.113-1.013z" class="cls-12" data-name="Caminho 2325" transform="translate(-134.067 -427.212)"/>
        <path id="Caminho_2326" d="M396.728 594.85s-4.291-4.514-4.125 1.354 4.125-1.354 4.125-1.354z" class="cls-4" data-name="Caminho 2326" transform="translate(-321.411 -463.1)"/>
        <path id="Caminho_2327" d="M420.3 501.477a6.969 6.969 0 0 1-1.277 2.154c-3.721 4.9-14.306 15.094-16.38 16.984-2.475 2.258-8 1.451-8 1.451l-10.229.181s-10.148-.452-10.974-13.539 11.88 3.972 11.88 3.972a22.785 22.785 0 0 0 4.209.542c1.485-.179 4.62-2.074 4.62-2.074s2.145-1.717 4.125-3.16 9.405-11.015 10.727-14.356c.837-2.12 3.535-5.587 5.4-7.836 1.069-1.294 1.863-2.176 1.863-2.176s4.61 15.057 4.036 17.857z" class="cls-4" data-name="Caminho 2327" transform="translate(-306.451 -380.019)"/>
        <path id="Caminho_2328" d="M564.856 501.447a6.971 6.971 0 0 1-1.277 2.154c-3.756-4.185-4.54-12.536-4.629-17.845 1.069-1.293 1.862-2.176 1.862-2.176s4.62 15.067 4.044 17.867z" class="cls-6" data-name="Caminho 2328" transform="translate(-451.009 -379.989)"/>
        <path id="Caminho_2329" d="M676.546 467.908l-3.568 4.55-4.664.309-7.466.5s-10.066-13.267-8.175-16.158a5.7 5.7 0 0 0 .663-3.716 8.563 8.563 0 0 0-.071-.534 16.5 16.5 0 0 0-1.175-3.965l.247-.123.159-.08a18.709 18.709 0 0 1 .809 3.7c.024.172.046.351.068.534.077.653.148 1.378.221 2.176.574 7.306 4.775 10.055 6.67 10.93a18.563 18.563 0 0 1 1.785.945 8.828 8.828 0 0 0 5.988 1.185c4.679-.672 8.5-4.393 8.5-4.393l.02 3.663z" class="cls-6" data-name="Caminho 2329" transform="translate(-523.57 -353.534)"/>
        <path id="Caminho_2330" d="M605.644 492.705s-30.691-.092-34.736-3.16-1.648-7.132-1.732-8.126-1.814-3.52-2.391-4.245.495-1.625.329-3.61-1.567 0-1.567 0c-5.778-6.412-4.54-22.661-4.54-22.661a81.833 81.833 0 0 0 8.175-2.71 80.298 80.298 0 0 1 3.093-1.264l.466-.184c3.241-1.269 7.094-2.7 7.094-2.7s.74-.573 1.485 1.141a16.211 16.211 0 0 1 .957 4.086c.024.172.046.351.068.534.077.653.148 1.378.221 2.176.574 7.306 4.775 10.055 6.67 10.93a18.559 18.559 0 0 1 1.785.945 8.828 8.828 0 0 0 5.987 1.185c4.68-.672 8.5-4.393 8.5-4.393l.02 3.663.057 11.005z" class="cls-5" data-name="Caminho 2330" transform="translate(-452.525 -349.94)"/>
        <path id="Caminho_2331" d="M639.588 582.707l-.495 3.431s-12.211 3.339-16.995 4.333-15.1-.271-15.841 1.9 3.135 5.147 3.135 5.147l12.373-.181 23.349 1.987s8.911-8.578 6.023-14.538-11.549-2.079-11.549-2.079z" class="cls-4" data-name="Caminho 2331" transform="translate(-487.79 -454.207)"/>
        <path id="Caminho_2332" d="M627.077 474.58s-5.612 5.055-4.538 7.495 4.538-7.495 4.538-7.495z" class="cls-6" data-name="Caminho 2332" transform="translate(-500.442 -373.165)"/>
        <path id="Caminho_2333" d="M593.233 512.29s-5.694 10.744-5.362 11.557 1.9 3.7 1.814 1.535 3.548-13.092 3.548-13.092z" class="cls-6" data-name="Caminho 2333" transform="translate(-473.529 -401.758)"/>
        <path id="Caminho_2334" d="M612.4 520.14s-1.326 6.68-2.64 9.48 2.64-9.48 2.64-9.48z" class="cls-6" data-name="Caminho 2334" transform="translate(-490.381 -407.71)"/>
        <path id="Caminho_2335" d="M633.239 428.192a14.319 14.319 0 0 1-10.848 8.032h-.027a13.345 13.345 0 0 1-10.044-2.877c3.314-1.31 7.561-2.887 7.561-2.887s.74-.573 1.485 1.141l11.14-5.561a6.857 6.857 0 0 0 .733 2.152z" class="cls-6" data-name="Caminho 2335" transform="translate(-492.587 -336.361)"/>
        <path id="Caminho_2336" d="M614.225 352.809a16.7 16.7 0 0 1-1.878 7.751 15.7 15.7 0 0 1-2.128 3.1 13.794 13.794 0 0 1-8.652 4.681h-.029a12.76 12.76 0 0 1-1.586.1c-7.261 0-13.364-5.964-14.182-13.859a16.605 16.605 0 0 1-.091-1.762c0-8.626 6.39-15.618 14.273-15.618s14.273 6.993 14.273 15.618z" class="cls-4" data-name="Caminho 2336" transform="translate(-471.833 -268.999)"/>
        <path id="Caminho_2337" d="M753.251 500.089l1.326-2.176s7.26-9.48 14.361-3.431l-.248 8.307a23.794 23.794 0 0 1-.826 3.868 2.856 2.856 0 0 0 .248 2.439s.413 2.176-.164 2.176-1.569 3.249-1.569 3.249-1.4 3.341-.577 4.877 2.64 6.68 2.64 6.68a9.745 9.745 0 0 1-3.714-5.055s-7.013-5.96-12.459-2.176z" class="cls-6" data-name="Caminho 2337" transform="translate(-601.617 -386.725)"/>
        <path id="Caminho_2338" d="M778.162 490.176a17.257 17.257 0 0 1-.557 4.715l-12.459 2.077-.466-3.54c1.63-1.862 7.56-7.781 13.482-3.252z" class="cls-6" data-name="Caminho 2338" transform="translate(-611.285 -383.724)"/>
        <path id="Caminho_2339" d="M753.251 498.089l1.326-2.176s7.26-9.48 14.361-3.431l-.248 8.307a23.8 23.8 0 0 1-.826 3.868 2.856 2.856 0 0 0 .248 2.439s.413 2.176-.164 2.176-1.569 3.249-1.569 3.249-1.4 3.341-.577 4.877 2.64 6.68 2.64 6.68a9.744 9.744 0 0 1-3.714-5.055s-7.013-5.96-12.459-2.176z" class="cls-5" data-name="Caminho 2339" transform="translate(-601.617 -385.209)"/>
        <path id="Caminho_2340" d="M769.514 496.61s-11.962 8.037-11.385 15.084c0 0 6.683-12.918 11.385-15.084z" class="cls-6" data-name="Caminho 2340" transform="translate(-606.165 -389.869)"/>
        <path id="Caminho_2341" d="M624.72 383.35l.057 11.005c-2.262.111-4.394-.21-6.08-1.813a8.205 8.205 0 0 1-2.209-4.328 16.737 16.737 0 0 1-.287-4.093.232.232 0 0 1 0-.041c.139-3.039.778-6.078.442-9.1s-2.008-6.206-4.739-6.842a2.714 2.714 0 0 1-1.529-.607 2.611 2.611 0 0 1-.358-1.905l.08-1.129c.02-.29.029-.578.029-.866 0-5.294-3.428-9.845-8.175-10.865l-.089-.017a5.117 5.117 0 0 0-2.338-.143c-1.463.37-2.408 1.922-3.756 2.659-2.585 1.412-6.9-.133-9.6-.619a6.794 6.794 0 0 1-.506-.109 16.527 16.527 0 0 1-.091-1.762c0-6.556 3.747-12.412 9.374-14.662a13.5 13.5 0 0 1 15.8 4.594 16.805 16.805 0 0 1 1.489 17.82c.042.092.088.184.137.271 3 5.44 12.631 2 12.631 2l.579 19.412z" class="cls-6" data-name="Caminho 2341" transform="translate(-471.747 -268.974)"/>
        <path id="Caminho_2342" d="M583.272 319.927c1.339-.74 2.285-2.292 3.756-2.66a5.166 5.166 0 0 1 2.34.14l.088.019c5.037 1.091 8.533 6.131 8.137 11.733l-.08 1.129a2.571 2.571 0 0 0 .36 1.9 2.649 2.649 0 0 0 1.527.6c2.731.638 4.4 3.808 4.739 6.845s-.314 6.085-.442 9.136.384 6.419 2.492 8.423c3.314 3.143 8.352 1.354 12.737 1.066-1.94 0-3.394-2.19-3.5-4.308a13.835 13.835 0 0 1 1.58-6.044 12.883 12.883 0 0 0 1.467-6.078c-.252-2.9-2.342-5.225-3.142-8.017-.932-3.249-.033-6.738.389-10.116.793-6.325-.442-13.445-4.916-17.533-1.874-1.709-4.165-2.761-6.224-4.192-3.69-2.56-6.6-6.315-10.329-8.805s-8.966-3.414-12.22-.222c-1.259 1.235-2.072 2.95-3.367 4.141-2.53 2.333-6.551 2.377-8.579 5.239-1.745 2.464-1.273 5.962-.714 9.02.745 4.079.325 7.253 4.308 7.978 2.698.479 7.006 2.02 9.593.606z" class="cls-13" data-name="Caminho 2342" transform="translate(-458.732 -233.9)"/>
        <path id="Caminho_2343" d="M615.993 390.848c-3.193.428-6.356.648-8.681-1.557-2.108-2-2.627-5.37-2.492-8.423s.78-6.1.442-9.139-2.008-6.2-4.739-6.842a2.687 2.687 0 0 1-1.527-.6 2.593 2.593 0 0 1-.36-1.905l.08-1.129c.4-5.6-3.1-10.641-8.137-11.731l-.088-.019a5.166 5.166 0 0 0-2.34-.14c-1.463.37-2.408 1.934-3.756 2.659-2.587 1.414-6.893-.131-9.6-.616-3.977-.713-3.562-3.892-4.308-7.978a16.751 16.751 0 0 1-.221-6.973 3.74 3.74 0 0 0-.3.389c-1.745 2.464-1.273 5.962-.714 9.02.745 4.079.325 7.253 4.308 7.978 2.709.483 7.017 2.031 9.6.616 1.339-.74 2.284-2.292 3.756-2.659a5.166 5.166 0 0 1 2.34.14l.088.019c5.037 1.091 8.533 6.131 8.137 11.733l-.079 1.129a2.571 2.571 0 0 0 .36 1.9 2.649 2.649 0 0 0 1.527.6c2.731.638 4.4 3.808 4.739 6.845s-.312 6.085-.442 9.137.384 6.419 2.492 8.423c3.314 3.143 8.352 1.354 12.737 1.066a3.346 3.346 0 0 1-2.822-1.943z" class="cls-6" data-name="Caminho 2343" transform="translate(-458.63 -268.431)"/>
        <path id="Caminho_2344" d="M369.7 577.088l13.621-5.561a1.267 1.267 0 0 1 1.668.832 1.461 1.461 0 0 1-.76 1.825l-13.621 5.561-2.921-.319z" class="cls-14" data-name="Caminho 2344" transform="translate(-302.006 -446.605)"/>
        <path id="Caminho_2345" d="M384.55 572.6a1.461 1.461 0 0 1-.762 1.825l-13.63 5.58-2.192-.242-.316.368 2.921.319 13.621-5.561a1.462 1.462 0 0 0 .76-1.825 1.4 1.4 0 0 0-.53-.708 1.681 1.681 0 0 1 .128.244z" class="cls-15" data-name="Caminho 2345" transform="translate(-301.975 -447.305)"/>
        <path id="Caminho_2346" d="M299.273 539.52l.906 2.657-2.395-.263-.524-.058.716-.832z" class="cls-16" data-name="Caminho 2346" transform="translate(-231.574 -409.037)"/>
        <path id="Caminho_2347" d="M368.429 601a.615.615 0 0 1 .141.167.261.261 0 0 1 0 .259.476.476 0 0 1-.13.1.493.493 0 0 0-.194.358l-.526-.056z" class="cls-17" data-name="Caminho 2347" transform="translate(-302.029 -469.02)"/>
        <path id="Caminho_2348" d="M569.482 637.833s11.8-2.71 31.594.725l-7.755-6.228-14.109-3.16-9.982 2.9z" class="cls-10" data-name="Caminho 2348" transform="translate(-459.018 -490.38)"/>
        <path id="Caminho_2349" d="M569.482 637.833s11.8-2.71 31.594.725l-7.755-6.228-14.109-3.16-9.982 2.9z" class="cls-6" data-name="Caminho 2349" transform="translate(-459.018 -490.38)"/>
        <path id="Caminho_2350" d="M550.835 643.093s5.941-17.586 36.455.056l-10.952-7.713s-26.238-7.936-29.268 1.209z" class="cls-10" data-name="Caminho 2350" transform="translate(-441.754 -492.71)"/>
        <path id="Caminho_2351" d="M550.78 639.075s5.941-18.8 36.455.339l-10.952-8.365s-26.245-9.487-29.283.442z" class="cls-6" data-name="Caminho 2351" transform="translate(-441.699 -488.704)"/>
        <path id="Caminho_2352" d="M550.835 638.857s5.941-19.08 36.455.06l-10.952-8.365s-26.237-9.216-29.268.725z" class="cls-10" data-name="Caminho 2352" transform="translate(-441.754 -488.479)"/>
        <path id="Caminho_2353" d="M550.8 636.43s5.941-21.206 36.455.326l-10.955-9.412s-26.237-9.671-29.268 1.489z" class="cls-6" data-name="Caminho 2353" transform="translate(-441.723 -486.047)"/>
        <path id="Caminho_2354" d="M550.8 635.569s5.941-21.464 36.455.068l-10.955-9.413s-26.237-9.671-29.268 1.49z" class="cls-10" data-name="Caminho 2354" transform="translate(-441.723 -485.198)"/>
        <path id="Caminho_2355" d="M966.168 668.71s-7.324 8.585-.731 12.756a1.741 1.741 0 0 0 2.092.542s-.415-.4.417-1.182a5.269 5.269 0 0 0 .784-.943 2.838 2.838 0 0 0 .455-1.61s.959-3.406-2.088-7.828a5.594 5.594 0 0 0-.51-1.642l-.557 2.063a3.254 3.254 0 0 1 1.924 1.554s-1.843-1.583-2.022-1.252c-.035.068-.25 1.11-.25 1.11s2.43.687 3.19 2.514c0 0-1.964-2.207-3.274-2.12l-.239 1.591a5.571 5.571 0 0 1 3.541 2.637s-2.125-2.232-3.57-2.282l-.042 1.6s2.525.629 3.3 2.335c0 0-2.693-2.3-3.283-1.968a8.608 8.608 0 0 0 .221 1.857s1.8.484 2.17 1.533c0 0-1.949-1.332-2.116-1.129a8.664 8.664 0 0 0 1.253 2.71 6.063 6.063 0 0 1-1.52-2.606 3.564 3.564 0 0 0-.367 1.854s-.723-.875.245-2.316a8.3 8.3 0 0 1-.265-1.736 7.291 7.291 0 0 0-1.429 2.418 3.34 3.34 0 0 1 1.427-2.831v-1.61A10.119 10.119 0 0 0 963 677.31s-.022-1.5 1.947-2.991l.221-1.564a11.764 11.764 0 0 0-2.044 2.277 4.841 4.841 0 0 1 2.121-2.722l.259-1.025s-1.052.943-1.326 1.243-.378.242-.378.242a4.861 4.861 0 0 1 1.812-1.92 12.405 12.405 0 0 0 .556-2.14z" class="cls-1" data-name="Caminho 2355" transform="translate(-765.542 -520.36)"/>
        <path id="Caminho_2356" d="M1104.044 90.91s-9.785 4.835-5.172 11.457a1.885 1.885 0 0 0 1.739 1.385s-.241-.549.8-.916a4.66 4.66 0 0 0 1.056-.539 2.616 2.616 0 0 0 .988-1.293s2.086-2.737.833-8.1a5.726 5.726 0 0 0 .108-1.731l-1.242 1.668a3.589 3.589 0 0 1 1.229 2.246s-1.14-2.239-1.423-2.007c-.057.046-.621.916-.621.916s1.988 1.659 2.057 3.668c0 0-1.034-2.867-2.276-3.341l-.78 1.368a6.166 6.166 0 0 1 2.338 3.924s-1.175-2.954-2.49-3.612l-.6 1.451s2.11 1.646 2.21 3.547c0 0-1.672-3.264-2.335-3.2a8.062 8.062 0 0 0-.442 1.806s1.489 1.209 1.463 2.331c0 0-1.326-2.05-1.547-1.934a9.039 9.039 0 0 0 .2 3.029 6.486 6.486 0 0 1-.484-3.046 3.3 3.3 0 0 0-.992 1.557s-.358-1.115 1.043-2.036a8.2 8.2 0 0 1 .367-1.712 6.574 6.574 0 0 0-2.167 1.617 3.052 3.052 0 0 1 2.315-2.009l.574-1.48a9.14 9.14 0 0 0-2.678 1.576s.508-1.393 2.85-1.934l.754-1.349a10.757 10.757 0 0 0-2.689 1.238 4.4 4.4 0 0 1 2.919-1.615l.6-.837s-1.3.426-1.668.585-.442.065-.442.065a4.417 4.417 0 0 1 2.362-1.006 12.616 12.616 0 0 0 1.243-1.737z" class="cls-1" data-name="Caminho 2356" transform="translate(-870.677 -82.255)"/>
        <path id="Caminho_2357" d="M672.723 103.29s-14.7 4.594-7.554 11.431a2.812 2.812 0 0 0 2.669 1.451s-.38-.561 1.193-.9a8.743 8.743 0 0 0 1.586-.513 2.893 2.893 0 0 0 1.463-1.279s3.093-2.708 1.063-8.167c0 0 .369-1.489.122-1.746l-1.838 1.649s1.768.994 1.916 2.307c0 0-1.783-2.294-2.209-2.07-.086.046-.919.907-.919.907s3.067 1.736 3.206 3.769c0 0-1.635-2.928-3.535-3.443l-1.149 1.359s3.358 1.724 3.635 4.035c0 0-1.852-3.02-3.858-3.723l-.884 1.451s3.235 1.726 3.447 3.651c0 0-2.614-3.349-3.617-3.307a6 6 0 0 0-.63 1.816s2.285 1.277 2.273 2.4c0 0-2.064-2.113-2.4-2a6.268 6.268 0 0 0 .38 3.068 4.887 4.887 0 0 1-.809-3.092 3.452 3.452 0 0 0-1.463 1.543s-.57-1.134 1.529-2.024a5.821 5.821 0 0 1 .513-1.721 10.339 10.339 0 0 0-3.241 1.572s.415-1.422 3.456-1.963l.835-1.48a15.945 15.945 0 0 0-4.017 1.516s.736-1.393 4.271-1.876l1.1-1.342a20.236 20.236 0 0 0-4.043 1.173s1.072-1.173 4.379-1.547l.884-.827s-1.964.392-2.512.542-.663.053-.663.053a8.1 8.1 0 0 1 3.535-.948s2.014-1.623 1.886-1.725z" class="cls-1" data-name="Caminho 2357" transform="translate(-532.233 -91.642)"/>
        <path id="Caminho_2358" d="M891.7 802.44s7.4-8.508.846-12.749a1.746 1.746 0 0 0-2.088-.566s.413.409-.426 1.18a5.3 5.3 0 0 0-.793.933 2.815 2.815 0 0 0-.468 1.605s-.992 3.4 2.017 7.85a5.647 5.647 0 0 0 .495 1.649l.577-2.058a3.259 3.259 0 0 1-1.911-1.574s1.827 1.6 2.008 1.272c.038-.068.261-1.1.261-1.1s-2.43-.725-3.168-2.548c0 0 1.944 2.229 3.257 2.154l.252-1.588a5.608 5.608 0 0 1-3.515-2.659s2.106 2.253 3.551 2.321l.055-1.6s-2.521-.667-3.285-2.384c0 0 2.673 2.335 3.266 2a7.84 7.84 0 0 0-.221-1.857s-1.8-.517-2.156-1.557c0 0 1.938 1.354 2.106 1.151a8.66 8.66 0 0 0-1.228-2.722 6.073 6.073 0 0 1 1.5 2.621 3.547 3.547 0 0 0 .382-1.85s.716.885-.265 2.314a8.31 8.31 0 0 1 .25 1.739 7.3 7.3 0 0 0 1.449-2.391 3.289 3.289 0 0 1-1.452 2.814l-.022 1.61a10.086 10.086 0 0 0 1.935-2.568s0 1.5-1.973 2.971l-.221 1.562a11.762 11.762 0 0 0 2.064-2.256 4.836 4.836 0 0 1-2.145 2.7l-.267 1.023s1.06-.931 1.343-1.228.38-.242.38-.242a4.832 4.832 0 0 1-1.829 1.9 13.319 13.319 0 0 0-.561 2.128z" class="cls-1" data-name="Caminho 2358" transform="translate(-707.835 -611.538)"/>
        <path id="Caminho_2359" d="M575.85 55.633s1.262 11.663 8.429 8.849a1.833 1.833 0 0 0 1.73-1.4s-.552.087-.557-1.112a5.9 5.9 0 0 0-.152-1.264 2.678 2.678 0 0 0-.829-1.419s-1.759-3-6.82-3.3c0 0-1.211-.725-1.476-.633l1.08 1.8a3.038 3.038 0 0 1 2.327-.6s-2.293.517-2.176.88c.022.075.61.924.61.924s2.066-1.6 3.833-1.052c0 0-2.808.213-3.595 1.366l.943 1.228s2.09-1.794 4.125-1.26c0 0-2.93.338-3.9 1.511l1.1 1.069s2.068-1.707 3.756-1.248c0 0-3.349.764-3.5 1.472a7.035 7.035 0 0 0 1.443 1.011s1.511-1.187 2.47-.824c0 0-2.187.769-2.154 1.04a7.075 7.075 0 0 0 2.7.7 5.157 5.157 0 0 1-2.8-.411 3.322 3.322 0 0 0 1.058 1.5s-1.078.036-1.46-1.692a6.934 6.934 0 0 1-1.381-.9 7.764 7.764 0 0 0 .758 2.747s-1.144-.725-1.056-3.02l-1.1-1.047a11.2 11.2 0 0 0 .568 3.271s-1.061-.95-.831-3.559l-.948-1.192a13.413 13.413 0 0 0 .267 3.177 5.232 5.232 0 0 1-.528-3.53l-.55-.878s-.02 1.487 0 1.917-.075.471-.075.471a5.532 5.532 0 0 1-.172-2.763 12.461 12.461 0 0 0-1.137-1.829z" class="cls-1" data-name="Caminho 2359" transform="translate(-464.175 -55.29)"/>
        <path id="Caminho_2360" d="M780.209 733.476s-10.344-3.143-10.676 5.184a2.144 2.144 0 0 0 .528 2.282s.135-.59 1.151-.143a4.609 4.609 0 0 0 1.127.326 2.238 2.238 0 0 0 1.516-.3s3.2-.643 5.378-5.643c0 0 1.072-.95 1.1-1.255l-1.929.413a3.848 3.848 0 0 1-.371 2.587s.442-2.519.082-2.539c-.073 0-1.014.268-1.014.268s.566 2.674-.563 4.258c0 0 .884-2.925.205-4.158l-1.4.505s.725 2.795-.5 4.652c0 0 .826-3.092.2-4.519l-1.312.7s.663 2.742-.369 4.279c0 0 .623-3.68.077-4.1a7.208 7.208 0 0 0-1.4 1.078s.442 1.98-.239 2.814c0 0 .177-2.507-.064-2.575a8.266 8.266 0 0 0-1.617 2.469 6.208 6.208 0 0 1 1.41-2.679 2.827 2.827 0 0 0-1.672.5s.376-1.1 1.989-.832a7.026 7.026 0 0 1 1.284-1.059 6.037 6.037 0 0 0-2.611-.276s1.056-.88 2.954.077l1.308-.725a8.735 8.735 0 0 0-2.981-.662s1.2-.725 3.314.505l1.365-.51a10.56 10.56 0 0 0-2.788-.931 4.132 4.132 0 0 1 3.186.8l.95-.225s-1.251-.585-1.624-.725-.371-.242-.371-.242a4.376 4.376 0 0 1 2.393.87 10.591 10.591 0 0 0 1.984-.469z" class="cls-1" data-name="Caminho 2360" transform="translate(-614.965 -569.026)"/>
    </g>
</svg>
