<svg xmlns="http://www.w3.org/2000/svg" width="218" height="358.999" viewBox="0 0 218 358.999">
    <defs>
        <style>
            .cls-1{fill:#e8e9ea}
        </style>
    </defs>
    <path id="Interseção_3" d="M-6801.976 5646a14.479 14.479 0 0 1-11.525-7.981l-63.568-129.287v122.947a14.4 14.4 0 0 1-12.939 14.32h-2.912a14.4 14.4 0 0 1-12.937-14.32v-122.948l-24.342 49.507V5534.2l24.342-49.5v-17.133l-24.342 49.509v-24l19.38-39.407a23.377 23.377 0 0 1-3.637-8.485L-6930.2 5449v-10.907l16.116-3.9a23.5 23.5 0 0 1 22.619-17.271 23.4 23.4 0 0 1 17.254 7.61l101.282-24.56-18.7-77.229-138.571 33.557v-10.917l136.063-32.947-2.831-11.688a5.305 5.305 0 0 1 3.906-6.4l29.7-7.191a5.3 5.3 0 0 1 4.021.618 5.3 5.3 0 0 1 2.4 3.285l3.871 15.99a50.344 50.344 0 0 1 34.543 24.573 50.292 50.292 0 0 1 6.332 20.044v9.6a50.367 50.367 0 0 1-19.256 35.047l3.871 15.981a5.3 5.3 0 0 1-.626 4.009 5.3 5.3 0 0 1-3.28 2.393l-29.695 7.193a5.3 5.3 0 0 1-6.4-3.9l-2.837-11.7-98.421 23.865a23.245 23.245 0 0 1-3.243 19.515l84.42 171.683a14.377 14.377 0 0 1 .7 10.991 14.376 14.376 0 0 1-7.283 8.263 14.055 14.055 0 0 1-4.855 1.393zm-93.275-14.324a3.79 3.79 0 0 0 3.787 3.787 3.792 3.792 0 0 0 3.789-3.788v-168.123a21.72 21.72 0 0 1-7.576 0zm18.182-146.976l73.084 148.637a3.862 3.862 0 0 0 5.022 1.748 3.779 3.779 0 0 0 1.951-2.192 3.719 3.719 0 0 0-.185-2.864l-79.873-162.46zm-15.985-57.1a12.866 12.866 0 0 0-10.6 8.576 12.863 12.863 0 0 0 3.058 13.285l.028.034a12.863 12.863 0 0 0 9.1 3.773 12.859 12.859 0 0 0 9.1-3.773l.026-.034a12.8 12.8 0 0 0 1.649-16.083l-.005-.014a12.871 12.871 0 0 0-10.789-5.86 12.9 12.9 0 0 0-1.567.096zm107.651-124.19l2.793 11.515a.95.95 0 0 0 .051.151.374.374 0 0 1 .025.163l24 99.084 19.394-4.683-26.871-110.927zm51.131 81.311a39.673 39.673 0 0 0 10.627-37.52 39.676 39.676 0 0 0-26.619-28.5zm-161.148-20.811a5.309 5.309 0 0 1-1.271-5.244 5.3 5.3 0 0 1 3.979-3.642l40.728-9.871a5.3 5.3 0 0 1 5.2 1.422 5.3 5.3 0 0 1 1.269 5.235 5.3 5.3 0 0 1-3.966 3.645l-40.73 9.869a5.281 5.281 0 0 1-1.4.19 5.3 5.3 0 0 1-3.809-1.6zm61.642-14.945a5.306 5.306 0 0 1-1.271-5.243 5.31 5.31 0 0 1 3.979-3.644l12.119-2.932a5.282 5.282 0 0 1 4.015.623 5.288 5.288 0 0 1 2.389 3.285 5.3 5.3 0 0 1-.633 4.009 5.3 5.3 0 0 1-3.287 2.385l-12.105 2.932a5.264 5.264 0 0 1-1.4.19 5.311 5.311 0 0 1-3.806-1.601z" class="cls-1" data-name="Interseção 3" transform="translate(6930.199 -5287)"/>
</svg>
